<svg version="1.1" id="Layer_1" xmlns="http://www.w3.org/2000/svg" x="0" y="0" viewBox="0 0 512 512" xml:space="preserve"><style>.st1{fill:#d52b1e}.st2{fill:#fedf00}.st5{fill:#fff}.st6{fill:#4173cd}</style><path fill="#0018a8" d="M0 88h170.7v336H0z"/><path class="st1" d="M341.3 88H512v336H341.3z"/><path class="st2" d="M170.7 88h170.7v336H170.7z"/><path d="M316 284.7c0-2.6-2.1-4.6-4.6-4.6-.6 0-1.1.1-1.6.3-2.3-2-6.5-7.1-2.3-14.3.6.4 1.3.7 2 .7 1.8 0 3.3-1.5 3.3-3.3 0-1.5-.9-2.7-2.2-3.1 3.4-1.8 8.3-5.5 8.1-12.4-.4-9.9-8.4-15.3-13.4-13.1v-.4c0-1.8-1.5-3.3-3.3-3.3-1.1 0-2.1.6-2.7 1.4-.2-1-.2-2.8 2.1-4.8 4.3-3.7 9.1-12.5.3-18.7-4.9-3.4-14.2-5.1-17.3-.4-1.4 2-.3 4.9 1.3 5.6-2.5 1.4-7.2 3.5-10.9 1.8-5.3-2.3-2.2-6.9-1.1-9 2.1-3.6.8-9.6-6.2-9.6-4.6 0-7 4.6-11.6 4.6s-7-4.6-11.6-4.6c-7 0-8.3 5.9-6.2 9.6 1.2 2.1 4.3 6.7-1.1 9-3.7 1.6-8.5-.5-10.9-1.8 1.5-.7 2.6-3.6 1.3-5.6-3.1-4.7-12.4-3-17.3.4-8.8 6.2-4 15 .3 18.7 2.3 2 2.3 3.8 2.1 4.8-.6-.9-1.6-1.4-2.7-1.4-1.8 0-3.3 1.5-3.3 3.3v.4c-5-2.2-13 3.3-13.4 13.1-.3 6.9 4.6 10.7 8.1 12.4-1.3.5-2.2 1.7-2.2 3.1 0 1.8 1.5 3.3 3.3 3.3.8 0 1.5-.3 2-.7 4.2 7.2 0 12.2-2.3 14.3-.5-.2-1-.3-1.6-.3-2.6 0-4.6 2.1-4.6 4.6 0 2.4 1.8 4.4 4.2 4.6-3.2 3.3-6.1 10.5.2 18.7 6.8 9 23.1 8.3 30.9 8.6 5 .2 8.7 2.8 10.8 4.6-1.3.8-2.2 2.3-2.2 3.9 0 2.3 1.7 4.3 4 4.6.8 1.3 2.3 2.2 3.9 2.2 1.9 0 3.4-1.1 4.2-2.7 2.4 2 4.1 2.9 4.1 2.9s1.7-.8 4.1-2.9c.7 1.6 2.3 2.7 4.2 2.7 1.7 0 3.1-.9 3.9-2.2 2.3-.3 4-2.2 4-4.6 0-1.7-.9-3.1-2.2-3.9 2.1-1.9 5.8-4.4 10.8-4.6 7.8-.3 24.1.4 30.9-8.6 6.2-8.2 3.4-15.5.2-18.7 2.4-.3 4.2-2.2 4.2-4.6z" fill="#c7b37f"/><path d="M214.2 225.1v67.3c0 7.7 6.2 13.9 13.9 13.9h18.6c7 0 9.3 4.6 9.3 4.6s2.3-4.6 9.3-4.6h18.6c7.7 0 13.9-6.2 13.9-13.9v-67.3c0-1.3-1-2.3-2.3-2.3h-78.9c-1.3 0-2.4 1-2.4 2.3z" fill="#a59165"/><path class="st1" d="M218.9 227.4h34.8v34.8h-34.8zM253.7 301.7c-19.2 0-34.8-15.6-34.8-34.8h34.8v34.8z"/><path class="st2" d="M258.3 301.7v-34.8h34.8c0 19.2-15.6 34.8-34.8 34.8zM258.3 227.4h5v34.8h-5z"/><path class="st1" d="M263.3 227.4h5v34.8h-5z"/><path class="st2" d="M268.3 227.4h5v34.8h-5z"/><path class="st1" d="M273.2 227.4h5v34.8h-5z"/><path class="st2" d="M278.2 227.4h5v34.8h-5zM288.1 227.4h5v34.8h-5z"/><path class="st1" d="M283.2 227.4h5v34.8h-5zM230.5 266.9h3.9v34.8h-3.9z"/><path class="st2" d="M234.4 266.9h3.9v34.8h-3.9zM242.1 266.9h3.9v34.8h-3.9z"/><path class="st1" d="M238.2 266.9h3.9v34.8h-3.9z"/><path class="st2" d="M249.8 266.9h3.9v34.8h-3.9z"/><path class="st1" d="M245.9 266.9h3.9v34.8h-3.9z"/><path class="st2" d="M222.8 299.9v-33h-3.9v25.5c0 3.1 1.5 5.8 3.9 7.5z"/><path class="st1" d="M226.6 301.5v-34.6h-3.9v33c1.2.8 2.5 1.4 3.9 1.6z"/><path class="st2" d="M226.6 266.9v34.6c.5.1 1 .2 1.5.2h2.3v-34.8h-3.8z"/><path class="st5" d="M224.1 260.2c-.2 0-.3 0-.5-.2-2.3-1.5-2.4-3.1-2.3-3.9.2-1.1 1-2 2.1-2.3 1-.3 2.1 0 2.7.8 1.4 1.7 2.9 2.3 4.2 1.9 1-.4 1.6-1.3 1.6-2.1 0-.5.4-.9.9-.9s.9.4.9.9c0 1.6-1.2 3.2-2.8 3.8-1.2.4-3.5.7-6.2-2.4-.3-.3-.6-.3-.9-.3-.3.1-.7.4-.7.8-.1.6.4 1.4 1.5 2.1.4.3.5.8.3 1.3-.2.4-.5.5-.8.5zM248.6 260.2c-.3 0-.6-.1-.8-.4-.3-.4-.2-1 .3-1.3 1-.7 1.6-1.5 1.5-2.1-.1-.4-.4-.7-.7-.8-.2-.1-.6-.1-.9.3-2.7 3.1-5 2.8-6.2 2.4-1.6-.6-2.8-2.2-2.8-3.8 0-.5.4-.9.9-.9s.9.4.9.9c0 .7.6 1.7 1.6 2.1 1.3.5 2.7-.2 4.2-1.9.7-.8 1.7-1.1 2.7-.8 1.1.3 1.9 1.2 2.1 2.3.1.8 0 2.4-2.3 3.9-.1.1-.3.1-.5.1z"/><g><path class="st2" d="M223.6 261.3c-.2 0-.4-.1-.6-.2-.4-.3-.5-.9-.2-1.3l19.9-26.1c.2-.3.3-.8.3-1.4.2-1 .3-2.3 1.9-3.2 1-.6 2.2-.6 3.2.1 1.1.7 1.8 2 1.6 3.3-.1.8-.5 2.2-2.6 2.9-.5.2-1-.1-1.2-.5-.2-.5.1-1 .5-1.2.6-.2 1.3-.7 1.4-1.4.1-.6-.3-1.2-.8-1.6-.3-.2-.8-.4-1.3 0-.8.5-.9 1-1 1.9-.1.6-.2 1.4-.6 2.1L224.3 261c-.2.2-.5.3-.7.3z"/><path class="st2" d="M236.4 232.6l-9.1 11 3.6 10.9h11l3.6-10.9z"/></g><path class="st5" d="M236.4 231.2l-10.2 12.2 4 12.1h12.3l4-12.1-10.1-12.2zm-8.1 12.6l7.2-8.6v18.5h-3.9l-3.3-9.9zm12.9 9.8h-3.9v-18.5l7.2 8.6-3.3 9.9z"/><path class="st1" d="M284.6 277.8l.1-2s1.8-1.3.9-2.5-1.9-1.4-4-1.2c-2.1.3-5.4.2-6.9.3-1.4.1-2.2.9-4.4.2l.6-1.4s-1.1.1-1.7.4c-.4.2-1.2-1-2-.8s-1.7 1.9-3 2.8l.7 1.4s.8-.4 1.4 0 .8.7 1.8.7l.6.3s-.2 1.5.7 2.2c0 0-1.1 1.4-1 1.7.1.2 1.1 2 1.4 3l.8-1.6s-1.2-1.1-1-1.2 1.1-.3.9-.7.6 0 1.5.2c0 0 0 1.4.2 1.6s.5.9.4 1.7c0 .8-.7 1-.7 1l1.2.4s.3-.5.6-.4c0 0-.1-3.8.4-4.4 0 0 3 .6 4.4-.1 0 0 .2.2.5.4-.1.3-.3.6-.2.7.1.2.5.2.6 0 0-.1.1-.3.1-.5.2.1.4.1.6.1v.6c.2.2.5 0 .5-.2v-.4c.2 0 .5-.1.8-.1l-1.6 2.6-.8.3 1 .5.9-.4s.9-2.2 2.3-2.9c0 0 1 2.3-.2 3.5l1.1.6.5-1.1s-.2-2.1.5-3.4l-.5-1.9z"/><g><path class="st6" d="M267.2 271.3s-.5-.4-.6-1-.3-.8-.8-1c0 0 .3.4.3.9 0 .6 0 1.4.3 1.6l.8-.5zM271.2 272.9s-.6 2.1-2.5 3.2l-.6-.3s2-1.7 2.2-3.1l.9.2zM268.1 271.8c-.1-.1.8-.3.6-1-.2-.7-.2-1.2.2-1.5 0 0 0 .6.4.9.3.4.5 1.3 0 1.8-.1 0-.6.4-1.2-.2zM268.2 278.1c-.1-.1-.2-.2-.1-.3l.3-.6c.2-.3.1-.7-.3-.9-.4-.2-.8-.1-1 .3l-.3.6c-.1.1-.2.2-.3.1l-.2.4s.3.1.6.3c-.1.1 0 .3.1.4s.3 0 .4-.1c.3.2.6.3.6.3l.2-.5zM270.4 282l.7.1-.6 1.8-.5-.9zM272.1 283.9l-.4.8h1.7v-.4zM280.3 283.4v.4h-1.9l.9-.9zM283.3 283.7l-.9.9h1.9l.1-.3z"/></g><path class="st1" d="M284.6 292.3l.1-2s1.8-1.3.9-2.5-1.9-1.4-4-1.2c-2.1.3-5.4.2-6.9.3-1.4.1-2.2.9-4.4.2l.6-1.4s-1.1.1-1.7.4c-.4.2-1.2-1-2-.8s-1.7 1.9-3 2.8l.7 1.4s.8-.4 1.4 0 .8.7 1.8.7l.6.3s-.2 1.5.7 2.2c0 0-1.1 1.4-1 1.7.1.2 1.1 2 1.4 3l.8-1.6s-1.2-1.1-1-1.2 1.1-.3.9-.7c-.1-.4.6 0 1.5.2 0 0 0 1.4.2 1.6s.5.9.4 1.7c0 .8-.7 1-.7 1l1.2.4s.3-.5.6-.4c0 0-.1-3.8.4-4.4 0 0 3 .6 4.4-.1 0 0 .2.2.5.4-.1.3-.3.6-.2.7.1.2.5.2.6 0 0-.1.1-.3.1-.5.2.1.4.1.6.1v.6c.2.2.5 0 .5-.2v-.4c.2 0 .5-.1.8-.1l-1.6 2.6-.8.3 1 .5.9-.4s.9-2.2 2.3-2.9c0 0 1 2.3-.2 3.5l1.1.6.5-1.1s-.2-2.1.5-3.4l-.5-1.9z"/><g><path class="st6" d="M267.2 285.7s-.5-.4-.6-1-.3-.8-.8-1c0 0 .3.4.3.9 0 .6 0 1.4.3 1.6l.8-.5zM271.2 287.3s-.6 2.1-2.5 3.2l-.6-.3s2-1.7 2.2-3.1l.9.2zM268.1 286.2c-.1-.1.8-.3.6-1-.2-.7-.2-1.2.2-1.5 0 0 0 .6.4.9.3.4.5 1.3 0 1.8-.1 0-.6.5-1.2-.2zM268.2 292.5c-.1-.1-.2-.2-.1-.3l.3-.6c.2-.3.1-.7-.3-.9-.4-.2-.8-.1-1 .3l-.3.6c-.1.1-.2.2-.3.1l-.2.4s.3.1.6.3c-.1.1 0 .3.1.4s.3 0 .4-.1c.3.2.6.3.6.3l.2-.5zM270.4 296.4l.7.1-.6 1.8-.5-.9zM272.1 298.4l-.4.7h1.7v-.4zM280.3 297.8v.5h-1.9l.9-1zM283.3 298.1l-.9 1h1.9l.1-.4z"/></g></svg>