<?xml version="1.0" encoding="utf-8"?>
<!-- Generator: Adobe Illustrator 25.0.0, SVG Export Plug-In . SVG Version: 6.00 Build 0)  -->
<svg version="1.1" id="Layer_1" xmlns="http://www.w3.org/2000/svg" xmlns:xlink="http://www.w3.org/1999/xlink" x="0px" y="0px"
	 viewBox="0 0 512 512" style="enable-background:new 0 0 512 512;" xml:space="preserve">
<style type="text/css">
	.st0{fill:#0018A8;}
	.st1{fill:#D52B1E;}
	.st2{fill:#FEDF00;}
	.st3{fill:#C7B37F;}
	.st4{fill:#A59165;}
	.st5{fill:#FFFFFF;}
	.st6{fill:#4173CD;}
</style>
<rect y="88" class="st0" width="170.7" height="336"/>
<rect x="341.3" y="88" class="st1" width="170.7" height="336"/>
<rect x="170.7" y="88" class="st2" width="170.7" height="336"/>
<path class="st3" d="M316,284.7c0-2.6-2.1-4.6-4.6-4.6c-0.6,0-1.1,0.1-1.6,0.3c-2.3-2-6.5-7.1-2.3-14.3c0.6,0.4,1.3,0.7,2,0.7
	c1.8,0,3.3-1.5,3.3-3.3c0-1.5-0.9-2.7-2.2-3.1c3.4-1.8,8.3-5.5,8.1-12.4c-0.4-9.9-8.4-15.3-13.4-13.1c0-0.1,0-0.3,0-0.4
	c0-1.8-1.5-3.3-3.3-3.3c-1.1,0-2.1,0.6-2.7,1.4c-0.2-1-0.2-2.8,2.1-4.8c4.3-3.7,9.1-12.5,0.3-18.7c-4.9-3.4-14.2-5.1-17.3-0.4
	c-1.4,2-0.3,4.9,1.3,5.6c-2.5,1.4-7.2,3.5-10.9,1.8c-5.3-2.3-2.2-6.9-1.1-9c2.1-3.6,0.8-9.6-6.2-9.6c-4.6,0-7,4.6-11.6,4.6
	s-7-4.6-11.6-4.6c-7,0-8.3,5.9-6.2,9.6c1.2,2.1,4.3,6.7-1.1,9c-3.7,1.6-8.5-0.5-10.9-1.8c1.5-0.7,2.6-3.6,1.3-5.6
	c-3.1-4.7-12.4-3-17.3,0.4c-8.8,6.2-4,15,0.3,18.7c2.3,2,2.3,3.8,2.1,4.8c-0.6-0.9-1.6-1.4-2.7-1.4c-1.8,0-3.3,1.5-3.3,3.3
	c0,0.1,0,0.3,0,0.4c-5-2.2-13,3.3-13.4,13.1c-0.3,6.9,4.6,10.7,8.1,12.4c-1.3,0.5-2.2,1.7-2.2,3.1c0,1.8,1.5,3.3,3.3,3.3
	c0.8,0,1.5-0.3,2-0.7c4.2,7.2,0,12.2-2.3,14.3c-0.5-0.2-1-0.3-1.6-0.3c-2.6,0-4.6,2.1-4.6,4.6c0,2.4,1.8,4.4,4.2,4.6
	c-3.2,3.3-6.1,10.5,0.2,18.7c6.8,9,23.1,8.3,30.9,8.6c5,0.2,8.7,2.8,10.8,4.6c-1.3,0.8-2.2,2.3-2.2,3.9c0,2.3,1.7,4.3,4,4.6
	c0.8,1.3,2.3,2.2,3.9,2.2c1.9,0,3.4-1.1,4.2-2.7c2.4,2,4.1,2.9,4.1,2.9s1.7-0.8,4.1-2.9c0.7,1.6,2.3,2.7,4.2,2.7
	c1.7,0,3.1-0.9,3.9-2.2c2.3-0.3,4-2.2,4-4.6c0-1.7-0.9-3.1-2.2-3.9c2.1-1.9,5.8-4.4,10.8-4.6c7.8-0.3,24.1,0.4,30.9-8.6
	c6.2-8.2,3.4-15.5,0.2-18.7C314.2,289,316,287.1,316,284.7z"/>
<path class="st4" d="M214.2,225.1v67.3c0,7.7,6.2,13.9,13.9,13.9h18.6c7,0,9.3,4.6,9.3,4.6s2.3-4.6,9.3-4.6h18.6
	c7.7,0,13.9-6.2,13.9-13.9v-67.3c0-1.3-1-2.3-2.3-2.3h-78.9C215.3,222.8,214.2,223.8,214.2,225.1z"/>
<g>
	<rect x="218.9" y="227.4" class="st1" width="34.8" height="34.8"/>
	<path class="st1" d="M253.7,301.7L253.7,301.7c-19.2,0-34.8-15.6-34.8-34.8l0,0h34.8V301.7z"/>
</g>
<g>
	<path class="st2" d="M258.3,301.7L258.3,301.7v-34.8h34.8l0,0C293.1,286.1,277.5,301.7,258.3,301.7z"/>
	<rect x="258.3" y="227.4" class="st2" width="5" height="34.8"/>
</g>
<rect x="263.3" y="227.4" class="st1" width="5" height="34.8"/>
<rect x="268.3" y="227.4" class="st2" width="5" height="34.8"/>
<rect x="273.2" y="227.4" class="st1" width="5" height="34.8"/>
<g>
	<rect x="278.2" y="227.4" class="st2" width="5" height="34.8"/>
	<rect x="288.1" y="227.4" class="st2" width="5" height="34.8"/>
</g>
<g>
	<rect x="283.2" y="227.4" class="st1" width="5" height="34.8"/>
	<rect x="230.5" y="266.9" class="st1" width="3.9" height="34.8"/>
</g>
<g>
	<rect x="234.4" y="266.9" class="st2" width="3.9" height="34.8"/>
	<rect x="242.1" y="266.9" class="st2" width="3.9" height="34.8"/>
</g>
<rect x="238.2" y="266.9" class="st1" width="3.9" height="34.8"/>
<rect x="249.8" y="266.9" class="st2" width="3.9" height="34.8"/>
<rect x="245.9" y="266.9" class="st1" width="3.9" height="34.8"/>
<path class="st2" d="M222.8,299.9v-33h-3.9v25.5C218.9,295.5,220.4,298.2,222.8,299.9z"/>
<path class="st1" d="M226.6,301.5v-34.6h-3.9v33C223.9,300.7,225.2,301.3,226.6,301.5z"/>
<path class="st2" d="M226.6,266.9v34.6c0.5,0.1,1,0.2,1.5,0.2h2.3v-34.8L226.6,266.9L226.6,266.9z"/>
<g>
	<path class="st5" d="M224.1,260.2c-0.2,0-0.3,0-0.5-0.2c-2.3-1.5-2.4-3.1-2.3-3.9c0.2-1.1,1-2,2.1-2.3c1-0.3,2.1,0,2.7,0.8
		c1.4,1.7,2.9,2.3,4.2,1.9c1-0.4,1.6-1.3,1.6-2.1c0-0.5,0.4-0.9,0.9-0.9s0.9,0.4,0.9,0.9c0,1.6-1.2,3.2-2.8,3.8
		c-1.2,0.4-3.5,0.7-6.2-2.4c-0.3-0.3-0.6-0.3-0.9-0.3c-0.3,0.1-0.7,0.4-0.7,0.8c-0.1,0.6,0.4,1.4,1.5,2.1c0.4,0.3,0.5,0.8,0.3,1.3
		C224.7,260.1,224.4,260.2,224.1,260.2z"/>
	<path class="st5" d="M248.6,260.2c-0.3,0-0.6-0.1-0.8-0.4c-0.3-0.4-0.2-1,0.3-1.3c1-0.7,1.6-1.5,1.5-2.1c-0.1-0.4-0.4-0.7-0.7-0.8
		c-0.2-0.1-0.6-0.1-0.9,0.3c-2.7,3.1-5,2.8-6.2,2.4c-1.6-0.6-2.8-2.2-2.8-3.8c0-0.5,0.4-0.9,0.9-0.9s0.9,0.4,0.9,0.9
		c0,0.7,0.6,1.7,1.6,2.1c1.3,0.5,2.7-0.2,4.2-1.9c0.7-0.8,1.7-1.1,2.7-0.8c1.1,0.3,1.9,1.2,2.1,2.3c0.1,0.8,0,2.4-2.3,3.9
		C249,260.2,248.8,260.2,248.6,260.2z"/>
</g>
<g>
	<path class="st2" d="M223.6,261.3c-0.2,0-0.4-0.1-0.6-0.2c-0.4-0.3-0.5-0.9-0.2-1.3l19.9-26.1c0.2-0.3,0.3-0.8,0.3-1.4
		c0.2-1,0.3-2.3,1.9-3.2c1-0.6,2.2-0.6,3.2,0.1c1.1,0.7,1.8,2,1.6,3.3c-0.1,0.8-0.5,2.2-2.6,2.9c-0.5,0.2-1-0.1-1.2-0.5
		c-0.2-0.5,0.1-1,0.5-1.2c0.6-0.2,1.3-0.7,1.4-1.4c0.1-0.6-0.3-1.2-0.8-1.6c-0.3-0.2-0.8-0.4-1.3,0c-0.8,0.5-0.9,1-1,1.9
		c-0.1,0.6-0.2,1.4-0.6,2.1L224.3,261C224.1,261.2,223.8,261.3,223.6,261.3z"/>
	<polygon class="st2" points="236.4,232.6 227.3,243.6 230.9,254.5 241.9,254.5 245.5,243.6 	"/>
</g>
<path class="st5" d="M236.4,231.2l-10.2,12.2l4,12.1h12.3l4-12.1L236.4,231.2z M228.3,243.8l7.2-8.6v18.5h-3.9L228.3,243.8z
	 M241.2,253.6h-3.9v-18.5l7.2,8.6L241.2,253.6z"/>
<path class="st1" d="M284.6,277.8l0.1-2c0,0,1.8-1.3,0.9-2.5s-1.9-1.4-4-1.2c-2.1,0.3-5.4,0.2-6.9,0.3c-1.4,0.1-2.2,0.9-4.4,0.2
	l0.6-1.4c0,0-1.1,0.1-1.7,0.4c-0.4,0.2-1.2-1-2-0.8s-1.7,1.9-3,2.8l0.7,1.4c0,0,0.8-0.4,1.4,0s0.8,0.7,1.8,0.7l0.6,0.3
	c0,0-0.2,1.5,0.7,2.2c0,0-1.1,1.4-1,1.7c0.1,0.2,1.1,2,1.4,3l0.8-1.6c0,0-1.2-1.1-1-1.2s1.1-0.3,0.9-0.7s0.6,0,1.5,0.2
	c0,0,0,1.4,0.2,1.6s0.5,0.9,0.4,1.7c0,0.8-0.7,1-0.7,1l1.2,0.4c0,0,0.3-0.5,0.6-0.4c0,0-0.1-3.8,0.4-4.4c0,0,3,0.6,4.4-0.1
	c0,0,0.2,0.2,0.5,0.4c-0.1,0.3-0.3,0.6-0.2,0.7c0.1,0.2,0.5,0.2,0.6,0c0-0.1,0.1-0.3,0.1-0.5c0.2,0.1,0.4,0.1,0.6,0.1
	c0,0.3,0,0.6,0,0.6c0.2,0.2,0.5,0,0.5-0.2c0-0.1,0-0.2,0-0.4c0.2,0,0.5-0.1,0.8-0.1l-1.6,2.6l-0.8,0.3l1,0.5l0.9-0.4
	c0,0,0.9-2.2,2.3-2.9c0,0,1,2.3-0.2,3.5l1.1,0.6l0.5-1.1c0,0-0.2-2.1,0.5-3.4L284.6,277.8z"/>
<g>
	<path class="st6" d="M267.2,271.3c0,0-0.5-0.4-0.6-1s-0.3-0.8-0.8-1c0,0,0.3,0.4,0.3,0.9c0,0.6,0,1.4,0.3,1.6L267.2,271.3z"/>
	<path class="st6" d="M271.2,272.9c0,0-0.6,2.1-2.5,3.2l-0.6-0.3c0,0,2-1.7,2.2-3.1L271.2,272.9z"/>
	<path class="st6" d="M268.1,271.8c-0.1-0.1,0.8-0.3,0.6-1c-0.2-0.7-0.2-1.2,0.2-1.5c0,0,0,0.6,0.4,0.9c0.3,0.4,0.5,1.3,0,1.8
		C269.2,272,268.7,272.4,268.1,271.8z"/>
	<path class="st6" d="M268.2,278.1L268.2,278.1c-0.1-0.1-0.2-0.2-0.1-0.3l0.3-0.6c0.2-0.3,0.1-0.7-0.3-0.9c-0.4-0.2-0.8-0.1-1,0.3
		l-0.3,0.6c-0.1,0.1-0.2,0.2-0.3,0.1l-0.2,0.4c0,0,0.3,0.1,0.6,0.3l0,0c-0.1,0.1,0,0.3,0.1,0.4s0.3,0,0.4-0.1l0,0
		c0.3,0.2,0.6,0.3,0.6,0.3L268.2,278.1z"/>
	<polygon class="st6" points="270.4,282 271.1,282.1 270.5,283.9 270,283 	"/>
	<polygon class="st6" points="272.1,283.9 271.7,284.7 273.4,284.7 273.4,284.3 	"/>
	<polygon class="st6" points="280.3,283.4 280.3,283.8 278.4,283.8 279.3,282.9 	"/>
	<polygon class="st6" points="283.3,283.7 282.4,284.6 284.3,284.6 284.4,284.3 	"/>
</g>
<path class="st1" d="M284.6,292.3l0.1-2c0,0,1.8-1.3,0.9-2.5s-1.9-1.4-4-1.2c-2.1,0.3-5.4,0.2-6.9,0.3c-1.4,0.1-2.2,0.9-4.4,0.2
	l0.6-1.4c0,0-1.1,0.1-1.7,0.4c-0.4,0.2-1.2-1-2-0.8s-1.7,1.9-3,2.8l0.7,1.4c0,0,0.8-0.4,1.4,0s0.8,0.7,1.8,0.7l0.6,0.3
	c0,0-0.2,1.5,0.7,2.2c0,0-1.1,1.4-1,1.7c0.1,0.2,1.1,2,1.4,3l0.8-1.6c0,0-1.2-1.1-1-1.2s1.1-0.3,0.9-0.7c-0.1-0.4,0.6,0,1.5,0.2
	c0,0,0,1.4,0.2,1.6s0.5,0.9,0.4,1.7c0,0.8-0.7,1-0.7,1l1.2,0.4c0,0,0.3-0.5,0.6-0.4c0,0-0.1-3.8,0.4-4.4c0,0,3,0.6,4.4-0.1
	c0,0,0.2,0.2,0.5,0.4c-0.1,0.3-0.3,0.6-0.2,0.7c0.1,0.2,0.5,0.2,0.6,0c0-0.1,0.1-0.3,0.1-0.5c0.2,0.1,0.4,0.1,0.6,0.1
	c0,0.3,0,0.6,0,0.6c0.2,0.2,0.5,0,0.5-0.2c0-0.1,0-0.2,0-0.4c0.2,0,0.5-0.1,0.8-0.1l-1.6,2.6l-0.8,0.3l1,0.5l0.9-0.4
	c0,0,0.9-2.2,2.3-2.9c0,0,1,2.3-0.2,3.5l1.1,0.6l0.5-1.1c0,0-0.2-2.1,0.5-3.4L284.6,292.3z"/>
<g>
	<path class="st6" d="M267.2,285.7c0,0-0.5-0.4-0.6-1s-0.3-0.8-0.8-1c0,0,0.3,0.4,0.3,0.9c0,0.6,0,1.4,0.3,1.6L267.2,285.7z"/>
	<path class="st6" d="M271.2,287.3c0,0-0.6,2.1-2.5,3.2l-0.6-0.3c0,0,2-1.7,2.2-3.1L271.2,287.3z"/>
	<path class="st6" d="M268.1,286.2c-0.1-0.1,0.8-0.3,0.6-1c-0.2-0.7-0.2-1.2,0.2-1.5c0,0,0,0.6,0.4,0.9c0.3,0.4,0.5,1.3,0,1.8
		C269.2,286.4,268.7,286.9,268.1,286.2z"/>
	<path class="st6" d="M268.2,292.5L268.2,292.5c-0.1-0.1-0.2-0.2-0.1-0.3l0.3-0.6c0.2-0.3,0.1-0.7-0.3-0.9c-0.4-0.2-0.8-0.1-1,0.3
		l-0.3,0.6c-0.1,0.1-0.2,0.2-0.3,0.1l-0.2,0.4c0,0,0.3,0.1,0.6,0.3l0,0c-0.1,0.1,0,0.3,0.1,0.4s0.3,0,0.4-0.1l0,0
		c0.3,0.2,0.6,0.3,0.6,0.3L268.2,292.5z"/>
	<polygon class="st6" points="270.4,296.4 271.1,296.5 270.5,298.3 270,297.4 	"/>
	<polygon class="st6" points="272.1,298.4 271.7,299.1 273.4,299.1 273.4,298.7 	"/>
	<polygon class="st6" points="280.3,297.8 280.3,298.3 278.4,298.3 279.3,297.3 	"/>
	<polygon class="st6" points="283.3,298.1 282.4,299.1 284.3,299.1 284.4,298.7 	"/>
</g>
</svg>
