<svg version="1.1" id="Layer_1" xmlns="http://www.w3.org/2000/svg" x="0" y="0" viewBox="0 0 512 512" xml:space="preserve"><style>.st2{fill:#fff}</style><path d="M0 88.1h170.7v335.4H0z"/><path fill="#089a45" d="M341.3 88.1H512v335.4H341.3z"/><path fill="#bc2024" d="M170.7 88.1h170.7v335.5H170.7z"/><path class="st2" d="M279 273.3h-46l2.5-5.1h41zM279 232.3h-46l2.5 5.2h41z"/><path class="st2" d="M268.8 234.9h-25.6l5.1-5.1h15.4zM235.5 260.5h7.7v5.1h-7.7zM235.5 252.8h7.7v5.1h-7.7zM235.5 240h7.7v5.1h-7.7zM235.5 247.7h7.7v2.6h-7.7zM268.8 260.5h7.7v5.1h-7.7zM268.8 252.8h7.7v5.1h-7.7zM268.8 240h7.7v5.1h-7.7zM268.8 247.7h7.7v2.6h-7.7zM238.1 219.5h5.1v10.2h-5.1zM243.2 217h-5.1v-2.6c0-1.4 1.1-2.6 2.6-2.6 1.4 0 2.6 1.1 2.6 2.6v2.6h-.1zM268.8 219.5h5.1v10.2h-5.1zM273.9 217h-5.1v-2.6c0-1.4 1.1-2.6 2.6-2.6 1.4 0 2.6 1.1 2.6 2.6v2.6h-.1zM256 240c-5.7 0-10.2 4.6-10.2 10.2v15.4h20.5v-15.4c-.1-5.6-4.6-10.2-10.3-10.2z"/><path class="st2" d="M239.1 256.2l-13.9-16.3c.1-.3.2-.5.2-.8 0-1.4-1.1-2.6-2.6-2.6s-2.6 1.1-2.6 2.6 1.1 2.6 2.6 2.6c.2 0 .3-.1.4-.1l1.4 1.7-7 16.3 7.7 7.7 6.6-15.5 5.2 6.1 2-1.7zm-12.5 5.3l-6.1-6.1 2.8-6.5 6.1 6.1-2.8 6.5zM275 257.8l5.2-6.1 6.6 15.5 7.7-7.7-7-16.3 1.4-1.7c.1 0 .3.1.4.1 1.4 0 2.6-1.1 2.6-2.6s-1.1-2.6-2.6-2.6-2.6 1.1-2.6 2.6c0 .3.1.6.2.8L273 256.2l2 1.6zm7.7-2.7l6.1-6.1 2.8 6.5-6.1 6.1-2.8-6.5zM258.9 214.9c-.8-.2-1.5-.7-2-1.4-.3-.5-.6-1-.9-1.6-.3.6-.6 1.2-.9 1.6-.5.7-1.2 1.1-2 1.4-4.2 1.2-7.3 5.1-7.3 9.8 0 .9.1 1.7.4 2.6H266c.2-.8.4-1.7.4-2.6-.2-4.7-3.3-8.6-7.5-9.8zM197.3 252.5c-.1-1.6-.2-3.2-.2-4.8 0-3.3.3-6.5.8-9.7.7.5 1.5 1.1 2.3 1.7-.4 2.6-.6 5.3-.6 8 0 1.9.1 3.8.3 5.6l5.4 1.6c-.3-2.4-.6-4.8-.6-7.2 0-1.2.1-2.4.2-3.6 2.8 3.1 5.1 6.9 5.1 11.1 0 .1 8.2-12.2-6.7-25.7l-.1 5.8-8.6-.1c-.8 0-1.5.5-1.6 1.3-.7 3.7-1 7.4-1 11.3 0 1.1 0 2.2.1 3.2l5.2 1.5z"/><path class="st2" d="M220.1 201.1c1.1-.9 1.3-2.5.5-3.6-.9-1.1-2.5-1.3-3.6-.5-11.6 8.9-19.5 21.2-23 35l5.3.1c3.2-12.2 10.4-23 20.8-31z"/><path class="st2" d="M216.6 207.5c-5.6 5.5-9.8 11.9-12.6 18.8 1.6 1.3 2.9 2.6 4 3.9 2.6-7.1 6.7-13.6 12.3-19.1 1-1 1-2.6 0-3.6s-2.7-1-3.7 0zM207.7 281.3c-3.8-5.4-6.7-11.6-8.5-18.1l3 1.1c1.9 6 4.7 11.6 8.3 16.5l5.6-1c-3.2-4-5.8-8.4-7.7-13.2l3.3 1.2c1.9 4.2 4.3 8 7.3 11.4l5.9-1.1c-2.3-2.4-4.3-5-6.1-7.9l-3.4-6.8c-1.1-2.1-2.9-3.7-5.2-4.4l-8.1-2.4-1.9-.6-2.7-.8-5.3-1.6-2.8-.9 1.8 5.3c.4 1.2 1.2 2.1 2.2 2.8 1.6 7.7 4.6 15 8.8 21.4l5.5-.9zM308.8 235.2l-.1-5.8c-14.9 13.5-6.7 25.8-6.7 25.7 0-4.2 2.2-8 5.1-11.1.1 1.2.2 2.4.2 3.6 0 2.5-.2 4.9-.6 7.2l5.4-1.6c.2-1.8.3-3.7.3-5.6 0-2.7-.2-5.4-.6-8 .8-.6 1.6-1.2 2.3-1.7.5 3.2.8 6.4.8 9.7 0 1.6-.1 3.2-.2 4.8l5.3-1.6c.1-1.1.1-2.2.1-3.2 0-3.8-.4-7.6-1-11.3-.1-.8-.8-1.3-1.6-1.3l-8.7.2z"/><path class="st2" d="M312.8 232.1l5.3-.1c-3.4-13.8-11.4-26.1-23-35-1.1-.9-2.7-.7-3.6.5-.9 1.1-.7 2.7.5 3.6 10.3 8 17.5 18.8 20.8 31z"/><path class="st2" d="M308 226.3c-2.9-7-7.1-13.4-12.6-18.8-1-1-2.6-1-3.6 0s-1 2.6 0 3.6c5.6 5.5 9.7 12 12.3 19.1 1-1.3 2.3-2.6 3.9-3.9zM319.7 253.7l-5.3 1.6-2.7.8-1.9.6-8.1 2.4c-2.3.7-4.1 2.3-5.2 4.4l-3.4 6.8c-1.7 2.9-3.8 5.5-6.1 7.9l5.9 1.1c2.9-3.4 5.4-7.3 7.3-11.4l3.3-1.2c-1.9 4.8-4.5 9.2-7.7 13.2l5.6 1c3.6-5 6.4-10.5 8.3-16.5l3-1.1c-1.8 6.6-4.7 12.7-8.5 18.1l5.5 1c4.1-6.4 7.2-13.7 8.8-21.4 1-.6 1.8-1.6 2.2-2.8l1.8-5.3-2.8.8zM282.7 282l-.1.1c-7.4 5.7-16.7 9.1-26.5 9.1s-19.1-3.4-26.5-9.1l-.1-.1c-1-1.1-2.4-1.5-3.8-1.3l-25.8 5.4 5.7 5c1.5 1.3 3.5 2 5.5 1.9 4.6 4.6 9.9 8.5 15.7 11.5l-1.7 3.1c9.2 5 19.8 7.9 31.1 7.9 11.2 0 21.8-2.9 31.1-7.9l-1.7-3.1c5.8-3 11.1-6.9 15.7-11.5 2 .1 3.9-.5 5.5-1.9l5.7-5-25.8-5.4c-1.6-.3-3.1.2-4 1.3zM229 300c-4.6-2.4-8.9-5.5-12.7-9l2.5-1.2c3.5 3.1 7.3 5.8 11.4 7.9L229 300zm66.7-9c-3.8 3.5-8.1 6.6-12.7 9l-1.2-2.2c4.1-2.2 8-4.8 11.4-7.9l2.5 1.1zm-39.7 7.9c-12.2 0-23.4-4.3-32.2-11.5l2.6-1.2c8.3 6.4 18.6 10.1 29.6 10.1s21.3-3.7 29.6-10.1l2.6 1.2c-8.8 7.2-20 11.5-32.2 11.5z"/><path class="st2" d="M227.9 278.4c1.1.9 2.2 1.8 3.4 2.6h49.3c1.2-.8 2.3-1.7 3.4-2.6l-2.5-2.5h-51.2l-2.4 2.5z"/></svg>