<?xml version="1.0" encoding="utf-8"?>
<!-- Generator: Adobe Illustrator 25.0.0, SVG Export Plug-In . SVG Version: 6.00 Build 0)  -->
<svg version="1.1" id="Layer_1" xmlns="http://www.w3.org/2000/svg" xmlns:xlink="http://www.w3.org/1999/xlink" x="0px" y="0px"
	 viewBox="0 0 512 512" style="enable-background:new 0 0 512 512;" xml:space="preserve">
<style type="text/css">
	.st0{fill:#089A45;}
	.st1{fill:#BC2024;}
	.st2{fill:#FFFFFF;}
</style>
<rect y="88.1" width="170.7" height="335.4"/>
<rect x="341.3" y="88.1" class="st0" width="170.7" height="335.4"/>
<rect x="170.7" y="88.1" class="st1" width="170.7" height="335.5"/>
<g>
	<polygon class="st2" points="279,273.3 233,273.3 235.5,268.2 276.5,268.2 	"/>
	<polygon class="st2" points="279,232.3 233,232.3 235.5,237.5 276.5,237.5 	"/>
	<polygon class="st2" points="268.8,234.9 243.2,234.9 248.3,229.8 263.7,229.8 	"/>
	<rect x="235.5" y="260.5" class="st2" width="7.7" height="5.1"/>
	<rect x="235.5" y="252.8" class="st2" width="7.7" height="5.1"/>
	<rect x="235.5" y="240" class="st2" width="7.7" height="5.1"/>
	<rect x="235.5" y="247.7" class="st2" width="7.7" height="2.6"/>
	<rect x="268.8" y="260.5" class="st2" width="7.7" height="5.1"/>
	<rect x="268.8" y="252.8" class="st2" width="7.7" height="5.1"/>
	<rect x="268.8" y="240" class="st2" width="7.7" height="5.1"/>
	<rect x="268.8" y="247.7" class="st2" width="7.7" height="2.6"/>
	<rect x="238.1" y="219.5" class="st2" width="5.1" height="10.2"/>
	<path class="st2" d="M243.2,217h-5.1v-2.6c0-1.4,1.1-2.6,2.6-2.6l0,0c1.4,0,2.6,1.1,2.6,2.6v2.6H243.2z"/>
	<rect x="268.8" y="219.5" class="st2" width="5.1" height="10.2"/>
	<path class="st2" d="M273.9,217h-5.1v-2.6c0-1.4,1.1-2.6,2.6-2.6l0,0c1.4,0,2.6,1.1,2.6,2.6v2.6H273.9z"/>
	<path class="st2" d="M256,240L256,240c-5.7,0-10.2,4.6-10.2,10.2v15.4h20.5v-15.4C266.2,244.6,261.7,240,256,240z"/>
	<path class="st2" d="M239.1,256.2l-13.9-16.3c0.1-0.3,0.2-0.5,0.2-0.8c0-1.4-1.1-2.6-2.6-2.6s-2.6,1.1-2.6,2.6s1.1,2.6,2.6,2.6
		c0.2,0,0.3-0.1,0.4-0.1l1.4,1.7l-7,16.3l7.7,7.7l6.6-15.5l5.2,6.1L239.1,256.2z M226.6,261.5l-6.1-6.1l2.8-6.5l6.1,6.1L226.6,261.5
		z"/>
	<path class="st2" d="M275,257.8l5.2-6.1l6.6,15.5l7.7-7.7l-7-16.3l1.4-1.7c0.1,0,0.3,0.1,0.4,0.1c1.4,0,2.6-1.1,2.6-2.6
		s-1.1-2.6-2.6-2.6s-2.6,1.1-2.6,2.6c0,0.3,0.1,0.6,0.2,0.8L273,256.2L275,257.8z M282.7,255.1l6.1-6.1l2.8,6.5l-6.1,6.1
		L282.7,255.1z"/>
	<path class="st2" d="M258.9,214.9c-0.8-0.2-1.5-0.7-2-1.4c-0.3-0.5-0.6-1-0.9-1.6c-0.3,0.6-0.6,1.2-0.9,1.6c-0.5,0.7-1.2,1.1-2,1.4
		c-4.2,1.2-7.3,5.1-7.3,9.8c0,0.9,0.1,1.7,0.4,2.6H266c0.2-0.8,0.4-1.7,0.4-2.6C266.2,220,263.1,216.1,258.9,214.9z"/>
	<path class="st2" d="M197.3,252.5c-0.1-1.6-0.2-3.2-0.2-4.8c0-3.3,0.3-6.5,0.8-9.7c0.7,0.5,1.5,1.1,2.3,1.7c-0.4,2.6-0.6,5.3-0.6,8
		c0,1.9,0.1,3.8,0.3,5.6l5.4,1.6c-0.3-2.4-0.6-4.8-0.6-7.2c0-1.2,0.1-2.4,0.2-3.6c2.8,3.1,5.1,6.9,5.1,11.1c0,0.1,8.2-12.2-6.7-25.7
		l-0.1,5.8l-8.6-0.1c-0.8,0-1.5,0.5-1.6,1.3c-0.7,3.7-1,7.4-1,11.3c0,1.1,0,2.2,0.1,3.2L197.3,252.5z"/>
	<path class="st2" d="M220.1,201.1c1.1-0.9,1.3-2.5,0.5-3.6c-0.9-1.1-2.5-1.3-3.6-0.5c-11.6,8.9-19.5,21.2-23,35l5.3,0.1
		C202.5,219.9,209.7,209.1,220.1,201.1z"/>
	<path class="st2" d="M216.6,207.5c-5.6,5.5-9.8,11.9-12.6,18.8c1.6,1.3,2.9,2.6,4,3.9c2.6-7.1,6.7-13.6,12.3-19.1c1-1,1-2.6,0-3.6
		C219.3,206.5,217.6,206.5,216.6,207.5z"/>
	<path class="st2" d="M207.7,281.3c-3.8-5.4-6.7-11.6-8.5-18.1l3,1.1c1.9,6,4.7,11.6,8.3,16.5l5.6-1c-3.2-4-5.8-8.4-7.7-13.2
		l3.3,1.2c1.9,4.2,4.3,8,7.3,11.4l5.9-1.1c-2.3-2.4-4.3-5-6.1-7.9l-3.4-6.8c-1.1-2.1-2.9-3.7-5.2-4.4l-8.1-2.4l-1.9-0.6l-2.7-0.8
		l-5.3-1.6l-2.8-0.9l1.8,5.3c0.4,1.2,1.2,2.1,2.2,2.8c1.6,7.7,4.6,15,8.8,21.4L207.7,281.3z"/>
	<path class="st2" d="M308.8,235.2l-0.1-5.8c-14.9,13.5-6.7,25.8-6.7,25.7c0-4.2,2.2-8,5.1-11.1c0.1,1.2,0.2,2.4,0.2,3.6
		c0,2.5-0.2,4.9-0.6,7.2l5.4-1.6c0.2-1.8,0.3-3.7,0.3-5.6c0-2.7-0.2-5.4-0.6-8c0.8-0.6,1.6-1.2,2.3-1.7c0.5,3.2,0.8,6.4,0.8,9.7
		c0,1.6-0.1,3.2-0.2,4.8l5.3-1.6c0.1-1.1,0.1-2.2,0.1-3.2c0-3.8-0.4-7.6-1-11.3c-0.1-0.8-0.8-1.3-1.6-1.3L308.8,235.2z"/>
	<path class="st2" d="M312.8,232.1l5.3-0.1c-3.4-13.8-11.4-26.1-23-35c-1.1-0.9-2.7-0.7-3.6,0.5c-0.9,1.1-0.7,2.7,0.5,3.6
		C302.3,209.1,309.5,219.9,312.8,232.1z"/>
	<path class="st2" d="M308,226.3c-2.9-7-7.1-13.4-12.6-18.8c-1-1-2.6-1-3.6,0s-1,2.6,0,3.6c5.6,5.5,9.7,12,12.3,19.1
		C305.1,228.9,306.4,227.6,308,226.3z"/>
	<path class="st2" d="M319.7,253.7l-5.3,1.6l-2.7,0.8l-1.9,0.6l-8.1,2.4c-2.3,0.7-4.1,2.3-5.2,4.4l-3.4,6.8
		c-1.7,2.9-3.8,5.5-6.1,7.9l5.9,1.1c2.9-3.4,5.4-7.3,7.3-11.4l3.3-1.2c-1.9,4.8-4.5,9.2-7.7,13.2l5.6,1c3.6-5,6.4-10.5,8.3-16.5
		l3-1.1c-1.8,6.6-4.7,12.7-8.5,18.1l5.5,1c4.1-6.4,7.2-13.7,8.8-21.4c1-0.6,1.8-1.6,2.2-2.8l1.8-5.3L319.7,253.7z"/>
	<path class="st2" d="M282.7,282l-0.1,0.1c-7.4,5.7-16.7,9.1-26.5,9.1s-19.1-3.4-26.5-9.1l-0.1-0.1c-1-1.1-2.4-1.5-3.8-1.3
		l-25.8,5.4l5.7,5c1.5,1.3,3.5,2,5.5,1.9c4.6,4.6,9.9,8.5,15.7,11.5l-1.7,3.1c9.2,5,19.8,7.9,31.1,7.9c11.2,0,21.8-2.9,31.1-7.9
		l-1.7-3.1c5.8-3,11.1-6.9,15.7-11.5c2,0.1,3.9-0.5,5.5-1.9l5.7-5l-25.8-5.4C285.1,280.4,283.6,280.9,282.7,282z M229,300
		c-4.6-2.4-8.9-5.5-12.7-9l2.5-1.2c3.5,3.1,7.3,5.8,11.4,7.9L229,300z M295.7,291c-3.8,3.5-8.1,6.6-12.7,9l-1.2-2.2
		c4.1-2.2,8-4.8,11.4-7.9L295.7,291z M256,298.9c-12.2,0-23.4-4.3-32.2-11.5l2.6-1.2c8.3,6.4,18.6,10.1,29.6,10.1
		c11,0,21.3-3.7,29.6-10.1l2.6,1.2C279.4,294.6,268.2,298.9,256,298.9z"/>
	<path class="st2" d="M227.9,278.4c1.1,0.9,2.2,1.8,3.4,2.6h49.3c1.2-0.8,2.3-1.7,3.4-2.6l-2.5-2.5h-51.2L227.9,278.4z"/>
</g>
</svg>
