<svg version="1.1" id="Layer_1" xmlns="http://www.w3.org/2000/svg" x="0" y="0" viewBox="0 0 512 512" xml:space="preserve"><style>.st0{fill:#ce1126}</style><path class="st0" d="M512 423.7H256l256-336zM0 423.7h256L0 87.7z"/><path fill="#0072c6" d="M154.9 291.3h202.2l53.8-70.6H101.1z"/><path fill="#fdc116" d="M370.8 220.7l-58.5-11.2 49.7-32.7-58.3 12 33.4-49.3-49.2 33.5 12-58.3-32.7 49.7-11.2-58.5-11.2 58.5-32.7-49.7 12 58.3-49.2-33.5 33.4 49.3-58.3-12 49.7 32.7-58.5 11.2z"/><path d="M0 87.7l101.3 133h39.9l58.5-11.2-49.7-32.7 58.3 12-33.4-49.3 49.2 33.5-12-58.3 32.7 49.7 11.2-58.5 11.2 58.5 32.7-49.7-12 58.3 49.2-33.5-33.4 49.3 58.3-12-49.7 32.7 58.5 11.2h39.9L512 87.7z"/><path fill="#fff" d="M154.9 291.3L256 423.7l101.1-132.4z"/></svg>