<?xml version="1.0" encoding="utf-8"?>
<!-- Generator: Adobe Illustrator 25.0.0, SVG Export Plug-In . SVG Version: 6.00 Build 0)  -->
<svg version="1.1" id="Layer_1" xmlns="http://www.w3.org/2000/svg" xmlns:xlink="http://www.w3.org/1999/xlink" x="0px" y="0px"
	 viewBox="0 0 512 512" style="enable-background:new 0 0 512 512;" xml:space="preserve">
<style type="text/css">
	.st0{fill:#CE1126;}
	.st1{fill:#0072C6;}
	.st2{fill:#FDC116;}
	.st3{fill:#FFFFFF;}
</style>
<polygon class="st0" points="512,423.7 256,423.7 512,87.7 "/>
<polygon class="st0" points="0,423.7 256,423.7 0,87.7 "/>
<polygon class="st1" points="154.9,291.3 357.1,291.3 410.9,220.7 101.1,220.7 "/>
<polygon class="st2" points="370.8,220.7 312.3,209.5 362,176.8 303.7,188.8 337.1,139.5 287.9,173 299.9,114.7 267.2,164.4 
	256,105.9 244.8,164.4 212.1,114.7 224.1,173 174.9,139.5 208.3,188.8 150,176.8 199.7,209.5 141.2,220.7 "/>
<polygon points="0,87.7 101.3,220.7 141.2,220.7 199.7,209.5 150,176.8 208.3,188.8 174.9,139.5 224.1,173 212.1,114.7 244.8,164.4 
	256,105.9 267.2,164.4 299.9,114.7 287.9,173 337.1,139.5 303.7,188.8 362,176.8 312.3,209.5 370.8,220.7 410.7,220.7 512,87.7 "/>
<polygon class="st3" points="154.9,291.3 256,423.7 357.1,291.3 "/>
</svg>
