<svg version="1.1" id="Layer_1" xmlns="http://www.w3.org/2000/svg" x="0" y="0" viewBox="0 0 512 512" xml:space="preserve"><style>.st0{fill:#012169}.st1{fill:#fff}.st2{fill:#c8102e}.st4{fill:#ffa827}</style><path class="st0" d="M256.1 88v168.2H0V424h512V88z"/><g id="Union_flag"><path class="st0" d="M0 88h256.1v168.2H0z"/><path class="st1" d="M106 150.1v-7.9L22.7 88H0v17l69.3 45.1zM106 194.1H70.8L0 240.1v16.1h24.2l81.8-53.3zM233.9 88L150 142.5v7.6h37.3l68.8-44.8V88zM150 194.1v8.5l82.5 53.6h23.6v-16.4l-70.2-45.7z"/><path class="st1" d="M256.1 150.1H150V88h-44v62.1H0v44h106v62.1h44v-62.1h106.1z"/><path class="st2" d="M256.1 158.8H141.3V88h-26.5v70.8H0v26.5h114.8v70.9h26.5v-70.9h114.8z"/><path class="st2" d="M97.2 150.1L1.7 88H0v9.6l80.7 52.5zM106 194.1H89.6L0 252.4v3.8h10.6zM157.3 194.1l95.5 62.1h3.3v-8.6l-82.3-53.5zM245.4 88L150 150v.1h16.4l89.7-58.3V88z"/></g><g id="shield"><path id="Path_8_" d="M310.2 343c22.4 36 73.8 48 73.8 48s51.4-12 73.8-48H310.2z" fill="#aad9fe"/><path class="st1" d="M432 198.9c-19.6 0-37.1-9.4-48-24-11 14.6-28.4 24-48 24-13.5 0-26-4.5-36-12V307c0 14.1 4 26 10.2 36h147.5c6.2-10 10.2-22 10.2-36V186.9c-9.9 7.5-22.4 12-35.9 12z"/><path id="Path_9_" class="st4" d="M396.6 254.2c.3 1.4 8.7 10.2 17.6 20.1 1.4 1.6-8.7 12.6-6.9 12.6 4.8-.1 19.3-17.3 19.3 6.7.1 15.9-30 27.5-30 27.5h17.5l.7 15s5-13.3 7.6-16.6c8.1-10 20.2-30.1 34.6-27.1 14.4 3-13.7-13.9-13.7-13.9s-5.2-15.2-16.6-17c-10.1-1.6-14.3-2.5-26.6-7.3-1.8-.6-4-2.3-3.5 0z"/><path id="Path_10_" class="st4" d="M359.7 280.7c1.1-1 4.5-12.6 8.7-25.3.7-2 15.3 1.3 14.3-.3-2.5-4.1-24.6-8.1-3.9-20.1 13.8-8 38.8 12.3 38.8 12.3l-8.7-15.1 12.6-8s-14 2.3-18.1 1.7c-12.7-2-36.1-2.5-40.7-16.5-4.6-14-5.2 18.8-5.2 18.8s-10.6 12.1-6.4 22.9c3.7 9.5 5 13.6 7 26.7.1 1.8-.2 4.5 1.6 2.9z"/><path id="Path_11_" class="st4" d="M395.6 301.9c-1.4-.4-13.2 2.5-26.2 5.2-2.1.4-6.6-13.9-7.5-12.3-2.3 4.2 5.4 25.3-15.4 13.4-13.8-7.9-8.9-39.7-8.9-39.7l-8.7 15.2-13.3-6.9s9.1 11 10.6 14.8c4.6 12 16 32.5 6.2 43.5s18.9-4.9 18.9-4.9 15.8 3.1 23-6c6.4-7.9 9.3-11.1 19.6-19.4 1.5-1.1 4-2.2 1.7-2.9z"/></g></svg>