<?xml version="1.0" encoding="utf-8"?>
<!-- Generator: Adobe Illustrator 25.0.0, SVG Export Plug-In . SVG Version: 6.00 Build 0)  -->
<svg version="1.1" id="Layer_1" xmlns="http://www.w3.org/2000/svg" xmlns:xlink="http://www.w3.org/1999/xlink" x="0px" y="0px"
	 viewBox="0 0 512 512" style="enable-background:new 0 0 512 512;" xml:space="preserve">
<style type="text/css">
	.st0{fill:#CE1126;}
	.st1{fill:#F9D616;}
</style>
<rect x="0" y="88" class="st0" width="512" height="168"/>
<rect x="0" y="255.7" width="512" height="168"/>
<g>
	<path class="st1" d="M235.9,182.3l6,18.1l19.1,0.1c1.5,0,2.1,1.9,0.9,2.8l-15.3,11.3l5.8,18.2c0.4,1.4-1.2,2.6-2.4,1.7l-15.5-11.1
		l-15.5,11.1c-1.2,0.9-2.8-0.3-2.4-1.7l5.8-18.2L207,203.3c-1.2-0.9-0.6-2.8,0.9-2.8l19.1-0.1l6-18.1
		C233.5,180.9,235.4,180.9,235.9,182.3z"/>
	<path class="st1" d="M317.5,335.9c0,0-109.2-82.4-112.4-85.1c-5-4.2-8.8-11.6-9-20.6c0,0-11.8,12.1-9.5,24.6
		c2.7,14.4,10.9,19.6,21.6,26.6c7.5,4.9,67.1,42.5,101.9,64.4L317.5,335.9z"/>
	<path class="st1" d="M350.2,360.1c-1.4-1-12.9-9.5-28.7-21.2l-5.8,10.5c11.7,7.3,19.4,12.2,19.4,12.2s1.1,14.3,12.7,12
		C351.9,372.7,355.3,363.8,350.2,360.1z"/>
	<path class="st1" d="M255.9,322.1c-8.3,2.9-17.1,4.6-26.3,4.6c-23.4,0-44.4-10.2-59-26.4l-12.9,11.6c4.3,4.8,9,9.3,14.2,13.2
		l-2.6,4.5l19.1,11l2.5-4.4c8.6,3.8,17.9,6.3,27.6,7.4v5.1h22.1v-5.1c9.7-1.1,19-3.6,27.6-7.4l2.5,4.4l7.6-4.4
		C270.9,331.5,263.3,326.8,255.9,322.1z"/>
	<path class="st1" d="M326,236.1c-1.1-9.7-3.6-19-7.4-27.6l4.4-2.5l-11-19.1l-4.5,2.6c-5.7-7.7-12.5-14.5-20.2-20.2l2.6-4.5
		l-19.1-11l-2.5,4.4c-7.2-3.1-14.8-5.3-22.7-6.6l-2.9,17.4c37.7,6.2,66.4,38.9,66.4,78.3c0,21.2-8.4,40.5-21.9,54.7
		c4.7,3.5,9.3,7.1,14,10.5c2.2-2.4,4.5-4.8,6.5-7.5l4.5,2.6l11-19.1l-4.4-2.5c3.8-8.6,6.3-17.9,7.4-27.6h5.1v-22.1L326,236.1
		L326,236.1L326,236.1z"/>
</g>
</svg>
