<svg version="1.1" id="Layer_1" xmlns="http://www.w3.org/2000/svg" x="0" y="0" viewBox="0 0 512 512" xml:space="preserve"><style>.st1{fill:#f9d616}</style><path fill="#ce1126" d="M0 88h512v168H0z"/><path d="M0 255.7h512v168H0z"/><path class="st1" d="M235.9 182.3l6 18.1 19.1.1c1.5 0 2.1 1.9.9 2.8l-15.3 11.3 5.8 18.2c.4 1.4-1.2 2.6-2.4 1.7l-15.5-11.1-15.5 11.1c-1.2.9-2.8-.3-2.4-1.7l5.8-18.2-15.4-11.3c-1.2-.9-.6-2.8.9-2.8l19.1-.1 6-18.1c.5-1.4 2.4-1.4 2.9 0zM317.5 335.9s-109.2-82.4-112.4-85.1c-5-4.2-8.8-11.6-9-20.6 0 0-11.8 12.1-9.5 24.6 2.7 14.4 10.9 19.6 21.6 26.6 7.5 4.9 67.1 42.5 101.9 64.4l7.4-9.9zM350.2 360.1c-1.4-1-12.9-9.5-28.7-21.2l-5.8 10.5c11.7 7.3 19.4 12.2 19.4 12.2s1.1 14.3 12.7 12c4.1-.9 7.5-9.8 2.4-13.5zM255.9 322.1c-8.3 2.9-17.1 4.6-26.3 4.6-23.4 0-44.4-10.2-59-26.4l-12.9 11.6c4.3 4.8 9 9.3 14.2 13.2l-2.6 4.5 19.1 11 2.5-4.4c8.6 3.8 17.9 6.3 27.6 7.4v5.1h22.1v-5.1c9.7-1.1 19-3.6 27.6-7.4l2.5 4.4 7.6-4.4c-7.4-4.7-15-9.4-22.4-14.1z"/><path class="st1" d="M326 236.1c-1.1-9.7-3.6-19-7.4-27.6l4.4-2.5-11-19.1-4.5 2.6c-5.7-7.7-12.5-14.5-20.2-20.2l2.6-4.5-19.1-11-2.5 4.4c-7.2-3.1-14.8-5.3-22.7-6.6l-2.9 17.4c37.7 6.2 66.4 38.9 66.4 78.3 0 21.2-8.4 40.5-21.9 54.7 4.7 3.5 9.3 7.1 14 10.5 2.2-2.4 4.5-4.8 6.5-7.5l4.5 2.6 11-19.1-4.4-2.5c3.8-8.6 6.3-17.9 7.4-27.6h5.1v-22.1l-5.3-.2z"/></svg>