<?xml version="1.0" encoding="utf-8"?>
<!-- Generator: Adobe Illustrator 25.0.0, SVG Export Plug-In . SVG Version: 6.00 Build 0)  -->
<svg version="1.1" id="Layer_1" xmlns="http://www.w3.org/2000/svg" xmlns:xlink="http://www.w3.org/1999/xlink" x="0px" y="0px"
	 viewBox="0 0 512 512" style="enable-background:new 0 0 512 512;" xml:space="preserve">
<style type="text/css">
	.st0{fill:#FFFFFF;}
	.st1{fill:#74ACDF;}
	.st2{fill:#8B3C10;}
	.st3{fill:#F6B40E;}
</style>
<rect y="200.1" class="st0" width="512" height="111.8"/>
<rect y="87.7" class="st1" width="512" height="112.4"/>
<rect y="311.9" class="st1" width="512" height="111.8"/>
<path class="st2" d="M300.1,253.8h-31.8c0.6-0.4,1.1-0.9,1.5-1.3c0.8-0.8,1.4-1.4,3-2c1.6-0.7,2.5-0.7,3.6-0.7c1.3,0,2.8,0,5.2-1
	c2.4-1,3.5-2,4.4-3c0.8-0.8,1.4-1.4,3-2c1.6-0.7,2.5-0.7,3.6-0.7c1.3,0,2.8,0,5.2-1l-1.7-4.1c-1.6,0.7-2.5,0.7-3.6,0.7
	c-1.3,0-2.8,0-5.2,1c-2.4,1-3.5,2-4.4,3c-0.8,0.8-1.4,1.4-3,2c-1.6,0.7-2.5,0.7-3.6,0.7c-1.3,0-2.8,0-5.2,1c-2.4,1-3.5,2-4.4,3
	c-0.8,0.7-1.4,1.3-3,2l25-25l-3.1-3.1l-22.5,22.5c0.1-0.7,0.1-1.4,0.1-2c0-1.1,0-1.9,0.7-3.6s1.3-2.3,2-3c0.9-0.9,2-2,3-4.4
	s1-3.9,1-5.2c0-1.1,0-1.9,0.7-3.6c0.7-1.6,1.3-2.2,2-3c0.9-0.9,2-2,3-4.4l-4.1-1.7c-0.7,1.6-1.3,2.2-2,3c-0.9,0.9-2,2-3,4.4
	s-1,3.9-1,5.2c0,1.1,0,1.9-0.7,3.6c-0.7,1.6-1.3,2.3-2,3c-0.9,0.9-2,2-3,4.4s-1,3.9-1,5.2c0,1.1,0,1.9-0.7,3.5v-35.3h-4.4v31.8
	c-0.4-0.6-0.9-1.1-1.3-1.5c-0.8-0.8-1.4-1.4-2-3c-0.7-1.6-0.7-2.5-0.7-3.6c0-1.3,0-2.8-1-5.2s-2-3.5-3-4.4c-0.8-0.8-1.4-1.4-2-3
	c-0.7-1.6-0.7-2.5-0.7-3.6c0-1.3,0-2.8-1-5.2l-4.1,1.7c0.7,1.6,0.7,2.5,0.7,3.6c0,1.3,0,2.8,1,5.2s2,3.5,3,4.4c0.8,0.8,1.4,1.4,2,3
	c0.7,1.6,0.7,2.5,0.7,3.6c0,1.3,0,2.8,1,5.2s2,3.5,3,4.4c0.7,0.8,1.3,1.4,2,3l-25-25l-3.1,3.1l24.9,24.9c-1.4-0.6-2-1.2-2.7-1.9
	c-0.9-0.9-2-2-4.4-3s-3.9-1-5.2-1c-1.1,0-2,0-3.6-0.7c-1.7-0.7-2.3-1.3-3.1-2.1c-0.9-0.9-2-2-4.5-3c-2.4-1-3.9-1-5.2-1
	c-1.1,0-2,0-3.6-0.7L214,242c2.4,1,3.9,1,5.2,1c1.1,0,2,0,3.6,0.7c1.7,0.7,2.3,1.3,3.1,2.1c0.9,0.9,2,2,4.5,3c2.4,1,3.9,1,5.2,1.1
	c1.1,0,2,0,3.6,0.7c1.7,0.7,2.3,1.3,3,2c0.4,0.4,0.8,0.8,1.4,1.2h-31.9v4.4H247c-1.4,0.5-2.3,0.6-3.3,0.6c-1.3,0-2.8,0-5.2,1
	s-3.5,2.1-4.4,3c-0.8,0.8-1.4,1.4-3.1,2.1c-1.7,0.7-2.5,0.7-3.6,0.7c-1.3,0-2.8,0-5.2,1s-3.5,2.1-4.5,3c-0.8,0.8-1.4,1.4-3.1,2.1
	l1.7,4.1c2.4-1,3.5-2.1,4.5-3c0.8-0.8,1.4-1.4,3.1-2.1c1.7-0.7,2.5-0.7,3.6-0.7c1.3,0,2.8,0,5.3-1.1c2.4-1,3.5-2,4.4-3
	c0.8-0.8,1.4-1.4,3.1-2c1.6-0.7,2.5-0.7,3.6-0.7c0.6,0,1.2,0,1.9-0.1l-22.5,22.5l3.1,3.1l24.9-24.9c-0.6,1.4-1.2,2-1.9,2.7
	c-0.9,0.9-2,2-3,4.4s-1,3.9-1,5.2c0,1.1,0,2-0.7,3.6c-0.7,1.7-1.3,2.3-2.1,3.1c-0.9,0.9-2,2-3,4.5s-1,3.9-1,5.2c0,1.1,0,2-0.7,3.6
	l4.1,1.7c1-2.4,1-3.9,1-5.2c0-1.1,0-2,0.7-3.6c0.7-1.7,1.3-2.3,2.1-3.1c0.9-0.9,2-2,3-4.5c1-2.4,1-3.9,1-5.2c0-1.1,0-2,0.7-3.6
	c0.7-1.7,1.3-2.3,2-3.1c0.4-0.4,0.8-0.9,1.2-1.4V300h4.4v-35.3c0.5,1.4,0.6,2.3,0.6,3.3c0,1.3,0,2.8,1,5.2c1,2.4,2,3.5,3,4.4
	c0.8,0.8,1.4,1.4,2.1,3.1s0.7,2.5,0.7,3.6c0,1.3,0,2.8,1,5.2s2.1,3.5,3,4.5c0.8,0.8,1.4,1.4,2.1,3.1l4.1-1.7c-1-2.4-2.1-3.5-3-4.5
	c-0.8-0.8-1.4-1.4-2.1-3.1s-0.7-2.5-0.7-3.6c0-1.3,0-2.8-1-5.2c-1-2.4-2-3.5-3-4.4c-0.8-0.8-1.4-1.4-2.1-3.1
	c-0.7-1.6-0.7-2.5-0.7-3.6c0-0.6,0-1.2-0.1-1.9l22.6,22.5l3.1-3.1l-22.5-22.5c0.7,0.1,1.4,0.1,2,0.1c1.1,0,1.9,0,3.6,0.7
	c1.6,0.7,2.3,1.3,3,2.1c0.9,0.9,2,2,4.4,3s3.9,1,5.2,1c1.1,0,1.9,0,3.6,0.7c1.6,0.7,2.2,1.3,3,2c0.9,0.9,2,2,4.4,3l1.7-4.1
	c-1.6-0.7-2.2-1.3-3-2c-0.9-0.9-2-2-4.4-3s-3.9-1-5.2-1c-1.1,0-1.9,0-3.6-0.7c-1.6-0.7-2.3-1.3-3-2c-0.9-0.9-2-2-4.4-3s-3.9-1-5.2-1
	c-1.1,0-1.9,0-3.5-0.7h35.4L300.1,253.8L300.1,253.8L300.1,253.8z"/>
<circle class="st3" cx="256" cy="256" r="22.1"/>
</svg>
