<svg version="1.1" id="Layer_1" xmlns="http://www.w3.org/2000/svg" x="0" y="0" viewBox="0 0 512 512" xml:space="preserve"><style>.st1{fill:#74acdf}</style><path fill="#fff" d="M0 200.1h512v111.8H0z"/><path class="st1" d="M0 87.7h512v112.4H0zM0 311.9h512v111.8H0z"/><path d="M300.1 253.8h-31.8c.6-.4 1.1-.9 1.5-1.3.8-.8 1.4-1.4 3-2 1.6-.7 2.5-.7 3.6-.7 1.3 0 2.8 0 5.2-1 2.4-1 3.5-2 4.4-3 .8-.8 1.4-1.4 3-2 1.6-.7 2.5-.7 3.6-.7 1.3 0 2.8 0 5.2-1l-1.7-4.1c-1.6.7-2.5.7-3.6.7-1.3 0-2.8 0-5.2 1-2.4 1-3.5 2-4.4 3-.8.8-1.4 1.4-3 2-1.6.7-2.5.7-3.6.7-1.3 0-2.8 0-5.2 1-2.4 1-3.5 2-4.4 3-.8.7-1.4 1.3-3 2l25-25-3.1-3.1-22.5 22.5c.1-.7.1-1.4.1-2 0-1.1 0-1.9.7-3.6s1.3-2.3 2-3c.9-.9 2-2 3-4.4s1-3.9 1-5.2c0-1.1 0-1.9.7-3.6.7-1.6 1.3-2.2 2-3 .9-.9 2-2 3-4.4l-4.1-1.7c-.7 1.6-1.3 2.2-2 3-.9.9-2 2-3 4.4s-1 3.9-1 5.2c0 1.1 0 1.9-.7 3.6-.7 1.6-1.3 2.3-2 3-.9.9-2 2-3 4.4s-1 3.9-1 5.2c0 1.1 0 1.9-.7 3.5v-35.3h-4.4v31.8c-.4-.6-.9-1.1-1.3-1.5-.8-.8-1.4-1.4-2-3-.7-1.6-.7-2.5-.7-3.6 0-1.3 0-2.8-1-5.2s-2-3.5-3-4.4c-.8-.8-1.4-1.4-2-3-.7-1.6-.7-2.5-.7-3.6 0-1.3 0-2.8-1-5.2l-4.1 1.7c.7 1.6.7 2.5.7 3.6 0 1.3 0 2.8 1 5.2s2 3.5 3 4.4c.8.8 1.4 1.4 2 3 .7 1.6.7 2.5.7 3.6 0 1.3 0 2.8 1 5.2s2 3.5 3 4.4c.7.8 1.3 1.4 2 3l-25-25-3.1 3.1 24.9 24.9c-1.4-.6-2-1.2-2.7-1.9-.9-.9-2-2-4.4-3s-3.9-1-5.2-1c-1.1 0-2 0-3.6-.7-1.7-.7-2.3-1.3-3.1-2.1-.9-.9-2-2-4.5-3-2.4-1-3.9-1-5.2-1-1.1 0-2 0-3.6-.7L214 242c2.4 1 3.9 1 5.2 1 1.1 0 2 0 3.6.7 1.7.7 2.3 1.3 3.1 2.1.9.9 2 2 4.5 3 2.4 1 3.9 1 5.2 1.1 1.1 0 2 0 3.6.7 1.7.7 2.3 1.3 3 2 .4.4.8.8 1.4 1.2h-31.9v4.4H247c-1.4.5-2.3.6-3.3.6-1.3 0-2.8 0-5.2 1s-3.5 2.1-4.4 3c-.8.8-1.4 1.4-3.1 2.1-1.7.7-2.5.7-3.6.7-1.3 0-2.8 0-5.2 1s-3.5 2.1-4.5 3c-.8.8-1.4 1.4-3.1 2.1l1.7 4.1c2.4-1 3.5-2.1 4.5-3 .8-.8 1.4-1.4 3.1-2.1 1.7-.7 2.5-.7 3.6-.7 1.3 0 2.8 0 5.3-1.1 2.4-1 3.5-2 4.4-3 .8-.8 1.4-1.4 3.1-2 1.6-.7 2.5-.7 3.6-.7.6 0 1.2 0 1.9-.1l-22.5 22.5 3.1 3.1 24.9-24.9c-.6 1.4-1.2 2-1.9 2.7-.9.9-2 2-3 4.4s-1 3.9-1 5.2c0 1.1 0 2-.7 3.6-.7 1.7-1.3 2.3-2.1 3.1-.9.9-2 2-3 4.5s-1 3.9-1 5.2c0 1.1 0 2-.7 3.6l4.1 1.7c1-2.4 1-3.9 1-5.2 0-1.1 0-2 .7-3.6.7-1.7 1.3-2.3 2.1-3.1.9-.9 2-2 3-4.5 1-2.4 1-3.9 1-5.2 0-1.1 0-2 .7-3.6.7-1.7 1.3-2.3 2-3.1.4-.4.8-.9 1.2-1.4V300h4.4v-35.3c.5 1.4.6 2.3.6 3.3 0 1.3 0 2.8 1 5.2 1 2.4 2 3.5 3 4.4.8.8 1.4 1.4 2.1 3.1s.7 2.5.7 3.6c0 1.3 0 2.8 1 5.2s2.1 3.5 3 4.5c.8.8 1.4 1.4 2.1 3.1l4.1-1.7c-1-2.4-2.1-3.5-3-4.5-.8-.8-1.4-1.4-2.1-3.1s-.7-2.5-.7-3.6c0-1.3 0-2.8-1-5.2-1-2.4-2-3.5-3-4.4-.8-.8-1.4-1.4-2.1-3.1-.7-1.6-.7-2.5-.7-3.6 0-.6 0-1.2-.1-1.9l22.6 22.5 3.1-3.1-22.5-22.5c.7.1 1.4.1 2 .1 1.1 0 1.9 0 3.6.7 1.6.7 2.3 1.3 3 2.1.9.9 2 2 4.4 3s3.9 1 5.2 1c1.1 0 1.9 0 3.6.7 1.6.7 2.2 1.3 3 2 .9.9 2 2 4.4 3l1.7-4.1c-1.6-.7-2.2-1.3-3-2-.9-.9-2-2-4.4-3s-3.9-1-5.2-1c-1.1 0-1.9 0-3.6-.7-1.6-.7-2.3-1.3-3-2-.9-.9-2-2-4.4-3s-3.9-1-5.2-1c-1.1 0-1.9 0-3.5-.7h35.4l-.1-4.2z" fill="#8b3c10"/><circle cx="256" cy="256" r="22.1" fill="#f6b40e"/></svg>