<svg version="1.1" id="Layer_1" xmlns="http://www.w3.org/2000/svg" x="0" y="0" viewBox="0 0 512 512" xml:space="preserve"><style>.st3{fill:#fff5dc}.st4{fill:#d27d69}.st5{fill:#ffe15a}</style><path fill="#fff" d="M57.6 256L512 405.1V106.9z"/><path fill="#b22234" d="M512 88L0 256l512 168v-18.9L57.6 256 512 106.9z"/><path fill="#3c3b6e" d="M512 88H0v336h512L0 256z"/><g id="crest"><path class="st3" d="M458.1 212.6s30.2 1.3 33-1c2.8-2.3 3.3-17.7-6.7-20s-37.1 12.6-37.1 12.6l10.8 8.4z"/><path class="st4" d="M398.9 236.4s-.3.9-.5 4.6c-.2 3.8.5 13.5 12.3 17.8l-2.7 11.4 12.5 7.5s9.2-13.7 9.7-25.1c.5-11.4-31.3-16.2-31.3-16.2zM361.5 228.7l4.9-4.9s-10 6.1-13.7.6c-5-7.2 1.7-14.7 8.6-18 6.9-3.3 20.8-.8 20.8-.8l8.7 22.3-26.4 16.7-2.9-15.9zM443.2 186.2l23.6-2.8s-6.9 10-20.5 17.4c0 0 14.1 0 18.2 4.9s-4.1 9.5-7.2 11c-3.1 1.5-29.7 17.9-29.7 17.9l-23.8-2.8 39.4-45.6z"/><path class="st4" d="M460.7 168.1s5.1-12 5-20.3l-17.2 12s3.9-1.9 2.6-8.7l-56.4 30.6-11.4 20.3 34.8 10.8 42.6-44.7z"/><path class="st5" d="M418.3 261.2l-5.9 9.4s-10.5-2.3-14.1.3c-3.6 2.6-4 12.2 2.3 12.9 0 0 4.4 2.7 6.9.5 0 0 5.3 2 6.1-1.3.9-3.3-.3-6.1-.3-6.1h3.7l6.5-11.7-5.2-4z"/><path d="M365.6 241s16.4-8.2 16.4-20.5-15.2-13-27.5-8.9c0 0-7.3-5.8-1.2-11.6 8.4-8 45.1-24.6 45.1-24.6l-4.1 20.5s14.6 7.7 20.5 4.1c5-3 53.3-41 53.3-41s-4.1 20.5-32.8 41l-3 15.2c-.7 3.3-2.8 6.2-5.9 7.7l-11.6 5.8s32.8 4.1 32.8 8.2-8.2 24.6-24.6 32.8l-8.2-8.2 4.1-12.3s-12.3-4.1-20.5-8.2c0 0-12.3 4.1-20.5 4.1s-12.3-4.1-12.3-4.1z" fill="#b95546"/><path class="st3" d="M341 261.5V253c0-2.4 1-4.7 2.7-6.5l17.8-17.8 4.1 8.2H382l-4.1 4.1v4.1l-20.5 12.3-16.4 4.1z"/><g><path class="st5" d="M349.2 257.4H341s-8.2 12.3 0 12.3c0 0 12.3-8.2 16.4-12.3 0 0 0-4.1-8.2 0zM449.2 275.6h-56.7c-.5-.5-1.1-.8-1.9-.8 0 0-9.9-4.1-11.3-4.1h-1.2c-1.4 0-2.6 1.1-2.6 2.6v2.4h-13v-2.4c0-1.4-1.1-2.6-2.6-2.6h-.9c-1.4 0-2.6 1.1-2.6 2.6-5.6-.2-17.4-.9-23.6-3l-32.8 8.2 32.8 8.2c6.1-2 18-2.8 23.6-3 0 1.4 1.1 2.6 2.6 2.6h1.2c1.4 0 2.6-1.1 2.6-2.6v-2.4h13v2.4c0 1.4 1.1 2.6 2.6 2.6h1.2c1.4 0 11.3-4.1 11.3-4.1.7 0 1.4-.3 1.9-.8h56.7c1.6 0 2.9-1.3 2.9-2.9-.3-1.6-1.6-2.9-3.2-2.9z"/><path class="st5" d="M446.7 286.6c-3.4-.7-42.5 6.1-42.5 6.1s-2.4-2.4 4.8-9.1l-3.4-.9s-7.5 5.3-10.6 6c-2.6.6-8.6 3.5-9.8 7.3l-23.8 4 .5 2 23.4-2.7c1.1 3.6 4.8 4.3 7.4 3.2 0 0 3.4 1.4 6.5-1 0 0 6.1 1 6.5-4.6l42.9-6.5c-.1.1 1.6-3.1-1.9-3.8z"/><path class="st5" d="M422.5 315.5s-3.2 4.3-11.3.5c-8-3.8-17.4.3-22.5-.9s-12.8-4.3-20-1.5c-7.2 2.7-11.1 2.6-9.6-.9 1.5-3.4 2.4-6 0-7.2l2.7-3.4-.5-2s-13.7-5.3-22.9 2-6.5 24.1 8.9 25.3c0 0 4.8 6 16.6 4.3 0 0 7.7 5.3 20.8 2.9 0 0 .5 1.5 9.1.9 8.5-.7 18.1.3 16.4 6.1 0 0 6.3-1.2 2.6-7 0 0 7.5-.3 12.6 4.1 0 0 .3-5.1-4.6-7.9 0 0 8.4-2.9 13 0 0 0-3.1-6.5-11.3-5.6 0 0 6-4.8 8.7-3.6 0 0-2.6-3.1-10.1 0 0 0 4.8-2.9 1.4-6.1z"/></g></g></svg>