<svg version="1.1" id="Layer_1" xmlns="http://www.w3.org/2000/svg" x="0" y="0" viewBox="0 0 512 512" xml:space="preserve"><style>.st0{fill:#3f93dd}.st1{fill:#ffd028}</style><path class="st0" d="M0 88h512v214.7H0z"/><path id="Rectangle_1_" class="st1" d="M0 302.7h512v22.1H0z"/><path id="Rectangle_2_" class="st1" d="M0 347h512v22.1H0z"/><path class="st0" d="M0 324.8h512V347H0zM0 369.1h512V424H0z"/><g id="Group" transform="translate(19.747 23.978)"><path id="Path" fill="#fff" d="M60.7 200.7L1 174.3l59.7-26.2 26.2-59.5 26.2 59.5 59.7 26.2-59.7 26.4-26.2 59.5z"/><path id="Path_1_" fill="#ee2e40" d="M86.9 121.3l16.2 36.8 36.8 16.2-36.8 16.2-16.2 36.9-16.2-36.9-36.8-16.2 36.8-16.2z"/></g></svg>