<?xml version="1.0" encoding="utf-8"?>
<!-- Generator: Adobe Illustrator 25.0.0, SVG Export Plug-In . SVG Version: 6.00 Build 0)  -->
<svg version="1.1" id="Layer_1" xmlns="http://www.w3.org/2000/svg" xmlns:xlink="http://www.w3.org/1999/xlink" x="0px" y="0px"
	 viewBox="0 0 512 512" style="enable-background:new 0 0 512 512;" xml:space="preserve">
<style type="text/css">
	.st0{fill:#0053A5;}
	.st1{fill:#FFCE00;}
	.st2{fill:#D21034;}
</style>
<polygon class="st0" points="0,88 0,211.9 141.2,211.9 141.2,88.3 "/>
<polygon class="st0" points="0,424 0,300.1 141.2,300.1 141.2,423.7 "/>
<polygon class="st0" points="512.5,88 229.5,88.3 229.5,211.9 512,211.9 "/>
<polygon class="st0" points="512,300.1 229.5,300.1 229.5,423.7 512.5,424 "/>
<polygon class="st1" points="512,211.9 229.5,211.9 229.5,88.3 141.2,88.3 141.2,211.9 0,211.9 0,300.1 141.2,300.1 141.2,423.7 
	229.5,423.7 229.5,300.1 512,300.1 "/>
<polygon class="st2" points="512,229.5 211.9,229.5 211.9,88 158.9,88 158.9,229.5 0,229.5 0,282.5 158.9,282.5 158.9,424 
	211.9,424 211.9,282.5 512,282.5 "/>
</svg>
