<svg version="1.1" id="Layer_1" xmlns="http://www.w3.org/2000/svg" x="0" y="0" viewBox="0 0 512 512" xml:space="preserve"><style>.st3{fill:#fff}</style><path fill="#00b9e4" d="M0 88.3h512v112H0z"/><path fill="#3f9c35" d="M0 311.7h512v112H0z"/><path fill="#ed2939" d="M0 200h512v112H0z"/><path class="st3" d="M268 292.6c-19.8 0-35.9-16.1-35.9-35.9 0-19.8 16.1-35.9 35.9-35.9 7.4 0 14.2 2.3 19.8 6.1.9.6 1.9-.6 1.1-1.3-8.5-8.8-20.4-14.2-33.7-13.7-22.8.8-41.7 19.1-43.2 41.9-1.7 26.1 19 47.8 44.7 47.8 12.7 0 24.1-5.3 32.2-13.8.7-.7-.3-1.9-1.1-1.3-5.6 3.8-12.4 6.1-19.8 6.1z"/><path class="st3" d="M299.5 234.6l3.7 10.5 10-4.8c.8-.4 1.5.4 1.2 1.2l-4.8 10 10.5 3.7c.8.3.8 1.4 0 1.7l-10.5 3.7 4.8 10c.4.8-.4 1.5-1.2 1.2l-10-4.8-3.7 10.5c-.3.8-1.4.8-1.7 0l-3.7-10.5-10 4.8c-.8.4-1.5-.4-1.2-1.2l4.8-10-10.5-3.7c-.8-.3-.8-1.4 0-1.7l10.5-3.7-4.8-10c-.4-.8.4-1.5 1.2-1.2l10 4.8 3.7-10.5c.3-.8 1.4-.8 1.7 0z"/></svg>