<?xml version="1.0" encoding="utf-8"?>
<!-- Generator: Adobe Illustrator 25.0.0, SVG Export Plug-In . SVG Version: 6.00 Build 0)  -->
<svg version="1.1" id="Layer_1" xmlns="http://www.w3.org/2000/svg" xmlns:xlink="http://www.w3.org/1999/xlink" x="0px" y="0px"
	 viewBox="0 0 512 512" style="enable-background:new 0 0 512 512;" xml:space="preserve">
<style type="text/css">
	.st0{fill:#00B9E4;}
	.st1{fill:#3F9C35;}
	.st2{fill:#ED2939;}
	.st3{fill:#FFFFFF;}
</style>
<rect y="88.3" class="st0" width="512" height="112"/>
<rect y="311.7" class="st1" width="512" height="112"/>
<rect y="200" class="st2" width="512" height="112"/>
<g>
	<path class="st3" d="M268,292.6c-19.8,0-35.9-16.1-35.9-35.9c0-19.8,16.1-35.9,35.9-35.9c7.4,0,14.2,2.3,19.8,6.1
		c0.9,0.6,1.9-0.6,1.1-1.3c-8.5-8.8-20.4-14.2-33.7-13.7c-22.8,0.8-41.7,19.1-43.2,41.9c-1.7,26.1,19,47.8,44.7,47.8
		c12.7,0,24.1-5.3,32.2-13.8c0.7-0.7-0.3-1.9-1.1-1.3C282.2,290.3,275.4,292.6,268,292.6z"/>
	<path class="st3" d="M299.5,234.6l3.7,10.5l10-4.8c0.8-0.4,1.5,0.4,1.2,1.2l-4.8,10l10.5,3.7c0.8,0.3,0.8,1.4,0,1.7l-10.5,3.7
		l4.8,10c0.4,0.8-0.4,1.5-1.2,1.2l-10-4.8l-3.7,10.5c-0.3,0.8-1.4,0.8-1.7,0l-3.7-10.5l-10,4.8c-0.8,0.4-1.5-0.4-1.2-1.2l4.8-10
		l-10.5-3.7c-0.8-0.3-0.8-1.4,0-1.7l10.5-3.7l-4.8-10c-0.4-0.8,0.4-1.5,1.2-1.2l10,4.8l3.7-10.5
		C298.1,233.8,299.2,233.8,299.5,234.6z"/>
</g>
</svg>
