<?xml version="1.0" encoding="utf-8"?>
<!-- Generator: Adobe Illustrator 25.0.0, SVG Export Plug-In . SVG Version: 6.00 Build 0)  -->
<svg version="1.1" id="Layer_1" xmlns="http://www.w3.org/2000/svg" xmlns:xlink="http://www.w3.org/1999/xlink" x="0px" y="0px"
	 viewBox="0 0 512 512" style="enable-background:new 0 0 512 512;" xml:space="preserve">
<style type="text/css">
	.st0{fill:#002395;}
	.st1{fill:#FFE15A;}
	.st2{fill:#FFFFFF;}
	.st3{fill:#FECB00;}
</style>
<polygon class="st0" points="0,88.3 0,424.3 441.4,424.3 105.9,88.3 "/>
<polygon class="st1" points="441.4,88.3 441.4,423.7 105.9,88.3 "/>
<g>
	<path class="st2" d="M207.4,213.2l5.1,15.3l16.1,0.1c1.2,0,1.8,1.6,0.8,2.3l-12.9,9.6l4.9,15.3c0.4,1.2-1,2.2-2,1.4l-13.1-9.4
		l-13.1,9.4c-1,0.7-2.4-0.3-2-1.4l4.9-15.3l-12.9-9.6c-1-0.7-0.5-2.3,0.8-2.3l16.1-0.1l5.1-15.3C205.3,212,207,212,207.4,213.2z"/>
	<path class="st2" d="M170.6,176.4l5.1,15.3l16.1,0.1c1.2,0,1.8,1.6,0.8,2.3l-12.9,9.6l4.9,15.3c0.4,1.2-1,2.2-2,1.4l-13.1-9.4
		l-13.1,9.4c-1,0.7-2.4-0.3-2-1.4l4.9-15.3l-12.9-9.6c-1-0.7-0.5-2.3,0.8-2.3l16.1-0.1l5.1-15.3
		C168.5,175.2,170.2,175.2,170.6,176.4z"/>
	<path class="st2" d="M133.8,139.6l5.1,15.3L155,155c1.2,0,1.8,1.6,0.8,2.3l-12.9,9.6l4.9,15.3c0.4,1.2-1,2.2-2,1.4l-13.1-9.4
		l-13.1,9.4c-1,0.7-2.4-0.3-2-1.4l4.9-15.3l-12.9-9.6c-1-0.7-0.5-2.3,0.8-2.3l16.1-0.1l5.1-15.3
		C131.7,138.4,133.4,138.4,133.8,139.6z"/>
	<path class="st2" d="M97,102.8l5.1,15.3l16.1,0.1c1.2,0,1.8,1.6,0.8,2.3l-12.9,9.6l4.9,15.3c0.4,1.2-1,2.2-2,1.4l-13.1-9.4
		l-13.1,9.4c-1,0.7-2.4-0.3-2-1.4l4.9-15.3l-12.9-9.6c-1-0.7-0.5-2.3,0.8-2.3l16.1-0.1l5.1-15.3C94.9,101.7,96.6,101.7,97,102.8z"/>
	<path class="st2" d="M354.5,360.3l5.1,15.3l16.1,0.1c1.2,0,1.8,1.6,0.8,2.3l-12.9,9.6l4.9,15.3c0.4,1.2-1,2.2-2,1.4l-13.1-9.4
		l-13.1,9.4c-1,0.7-2.4-0.3-2-1.4l4.9-15.3l-12.9-9.6c-1-0.7-0.5-2.3,0.8-2.3l16.1-0.1l5.1-15.3
		C352.4,359.1,354.1,359.1,354.5,360.3z"/>
	<path class="st2" d="M317.7,323.5l5.1,15.3l16.1,0.1c1.2,0,1.8,1.6,0.8,2.3l-12.9,9.6l4.9,15.3c0.4,1.2-1,2.2-2,1.4l-13.1-9.4
		l-13.1,9.4c-1,0.7-2.4-0.3-2-1.4l4.9-15.3l-12.9-9.6c-1-0.7-0.5-2.3,0.8-2.3l16.1-0.1l5.1-15.3
		C315.6,322.3,317.3,322.3,317.7,323.5z"/>
	<path class="st2" d="M280.9,286.7L286,302l16.1,0.1c1.2,0,1.8,1.6,0.8,2.3l-12.9,9.6l4.9,15.3c0.4,1.2-1,2.2-2,1.4l-13.1-9.4
		l-13.1,9.4c-1,0.7-2.4-0.3-2-1.4l4.9-15.3l-12.9-9.6c-1-0.7-0.5-2.3,0.8-2.3l16.1-0.1l5.1-15.3
		C278.9,285.6,280.5,285.6,280.9,286.7z"/>
	<path class="st2" d="M244.1,250l5.1,15.3l16.1,0.1c1.2,0,1.8,1.6,0.8,2.3l-12.9,9.6l4.9,15.3c0.4,1.2-1,2.2-2,1.4l-13.1-9.4
		l-13.1,9.4c-1,0.7-2.4-0.3-2-1.4l4.9-15.3l-12.9-9.6c-1-0.7-0.5-2.3,0.8-2.3l16.1-0.1l5.1-15.3C242.1,248.8,243.7,248.8,244.1,250z
		"/>
	<path class="st2" d="M41.9,88.3l6.8,5l-4.9,15.3c-0.4,1.2,1,2.2,2,1.4l13.1-9.4l13.1,9.4c1,0.7,2.4-0.3,2-1.4l-4.8-15.3l6.8-5H41.9
		z"/>
	<path class="st2" d="M412.4,412.5l-16.1-0.1l-5.1-15.3c-0.4-1.2-2.1-1.2-2.5,0l-5.1,15.3l-16.1,0.1c-1.2,0-1.8,1.6-0.8,2.3
		l12.1,8.9h22.2l12.1-8.9C414.2,414.1,413.7,412.5,412.4,412.5z"/>
</g>
<polygon class="st3" points="441.4,424.3 441.4,88.3 105.9,88.3 "/>
<path class="st3" d="M649,116"/>
<rect x="441.4" y="88.3" class="st0" width="70.6" height="336"/>
</svg>
