<svg version="1.1" id="Layer_1" xmlns="http://www.w3.org/2000/svg" x="0" y="0" viewBox="0 0 512 512" xml:space="preserve"><style>.st0{fill:#002395}.st2{fill:#fff}.st3{fill:#fecb00}</style><path class="st0" d="M0 88.3v336h441.4l-335.5-336z"/><path fill="#ffe15a" d="M441.4 88.3v335.4L105.9 88.3z"/><path class="st2" d="M207.4 213.2l5.1 15.3 16.1.1c1.2 0 1.8 1.6.8 2.3l-12.9 9.6 4.9 15.3c.4 1.2-1 2.2-2 1.4l-13.1-9.4-13.1 9.4c-1 .7-2.4-.3-2-1.4l4.9-15.3-12.9-9.6c-1-.7-.5-2.3.8-2.3l16.1-.1 5.1-15.3c.1-1.2 1.8-1.2 2.2 0zM170.6 176.4l5.1 15.3 16.1.1c1.2 0 1.8 1.6.8 2.3l-12.9 9.6 4.9 15.3c.4 1.2-1 2.2-2 1.4l-13.1-9.4-13.1 9.4c-1 .7-2.4-.3-2-1.4l4.9-15.3-12.9-9.6c-1-.7-.5-2.3.8-2.3l16.1-.1 5.1-15.3c.1-1.2 1.8-1.2 2.2 0zM133.8 139.6l5.1 15.3 16.1.1c1.2 0 1.8 1.6.8 2.3l-12.9 9.6 4.9 15.3c.4 1.2-1 2.2-2 1.4l-13.1-9.4-13.1 9.4c-1 .7-2.4-.3-2-1.4l4.9-15.3-12.9-9.6c-1-.7-.5-2.3.8-2.3l16.1-.1 5.1-15.3c.1-1.2 1.8-1.2 2.2 0zM97 102.8l5.1 15.3 16.1.1c1.2 0 1.8 1.6.8 2.3l-12.9 9.6 4.9 15.3c.4 1.2-1 2.2-2 1.4l-13.1-9.4-13.1 9.4c-1 .7-2.4-.3-2-1.4l4.9-15.3-12.9-9.6c-1-.7-.5-2.3.8-2.3l16.1-.1 5.1-15.3c.1-1.1 1.8-1.1 2.2 0zM354.5 360.3l5.1 15.3 16.1.1c1.2 0 1.8 1.6.8 2.3l-12.9 9.6 4.9 15.3c.4 1.2-1 2.2-2 1.4l-13.1-9.4-13.1 9.4c-1 .7-2.4-.3-2-1.4l4.9-15.3-12.9-9.6c-1-.7-.5-2.3.8-2.3l16.1-.1 5.1-15.3c.1-1.2 1.8-1.2 2.2 0zM317.7 323.5l5.1 15.3 16.1.1c1.2 0 1.8 1.6.8 2.3l-12.9 9.6 4.9 15.3c.4 1.2-1 2.2-2 1.4l-13.1-9.4-13.1 9.4c-1 .7-2.4-.3-2-1.4l4.9-15.3-12.9-9.6c-1-.7-.5-2.3.8-2.3l16.1-.1 5.1-15.3c.1-1.2 1.8-1.2 2.2 0zM280.9 286.7L286 302l16.1.1c1.2 0 1.8 1.6.8 2.3L290 314l4.9 15.3c.4 1.2-1 2.2-2 1.4l-13.1-9.4-13.1 9.4c-1 .7-2.4-.3-2-1.4l4.9-15.3-12.9-9.6c-1-.7-.5-2.3.8-2.3l16.1-.1 5.1-15.3c.2-1.1 1.8-1.1 2.2 0zM244.1 250l5.1 15.3 16.1.1c1.2 0 1.8 1.6.8 2.3l-12.9 9.6 4.9 15.3c.4 1.2-1 2.2-2 1.4l-13.1-9.4-13.1 9.4c-1 .7-2.4-.3-2-1.4l4.9-15.3-12.9-9.6c-1-.7-.5-2.3.8-2.3l16.1-.1 5.1-15.3c.2-1.2 1.8-1.2 2.2 0zM41.9 88.3l6.8 5-4.9 15.3c-.4 1.2 1 2.2 2 1.4l13.1-9.4L72 110c1 .7 2.4-.3 2-1.4l-4.8-15.3 6.8-5H41.9zM412.4 412.5l-16.1-.1-5.1-15.3c-.4-1.2-2.1-1.2-2.5 0l-5.1 15.3-16.1.1c-1.2 0-1.8 1.6-.8 2.3l12.1 8.9H401l12.1-8.9c1.1-.7.6-2.3-.7-2.3z"/><path class="st3" d="M441.4 424.3v-336H105.9z"/><path class="st0" d="M441.4 88.3H512v336h-70.6z"/></svg>