<svg version="1.1" id="Layer_1" xmlns="http://www.w3.org/2000/svg" x="0" y="0" viewBox="0 0 512 512" xml:space="preserve"><style>.st0{fill:#00267f}</style><path class="st0" d="M0 87.7h170.7v336H0z"/><path fill="#ffc726" d="M170.7 87.7h170.7v336H170.7z"/><path class="st0" d="M341.3 87.7H512v336H341.3z"/><path d="M326.6 207.3s-24.6 0-43 18.4h12.3s-11.9 21.5-18 58.3l-12.7-2.1v-56.5l12.3 4-21.5-53-21.5 53 12.3-4.1v56.5l-12.7 2.1c-6.1-36.8-18-58.3-18-58.3h12.3c-18.4-18.4-43-18.4-43-18.4 30.7 36.8 30.7 98.3 30.7 98.3l30.7-5.1v42h18.4v-42l30.7 5.1s0-61.4 30.7-98.2z"/></svg>