<?xml version="1.0" encoding="utf-8"?>
<!-- Generator: Adobe Illustrator 25.0.0, SVG Export Plug-In . SVG Version: 6.00 Build 0)  -->
<svg version="1.1" id="Layer_1" xmlns="http://www.w3.org/2000/svg" xmlns:xlink="http://www.w3.org/1999/xlink" x="0px" y="0px"
	 viewBox="0 0 512 512" style="enable-background:new 0 0 512 512;" xml:space="preserve">
<style type="text/css">
	.st0{fill:#00267F;}
	.st1{fill:#FFC726;}
</style>
<rect y="87.7" class="st0" width="170.7" height="336"/>
<rect x="170.7" y="87.7" class="st1" width="170.7" height="336"/>
<rect x="341.3" y="87.7" class="st0" width="170.7" height="336"/>
<path d="M326.6,207.3c0,0-24.6,0-43,18.4h12.3c0,0-11.9,21.5-18,58.3l-12.7-2.1v-56.5l12.3,4l-21.5-53l-21.5,53l12.3-4.1v56.5
	l-12.7,2.1c-6.1-36.8-18-58.3-18-58.3h12.3c-18.4-18.4-43-18.4-43-18.4c30.7,36.8,30.7,98.3,30.7,98.3l30.7-5.1v42h18.4v-42
	l30.7,5.1C295.9,305.5,295.9,244.1,326.6,207.3z"/>
</svg>
