<?xml version="1.0" encoding="utf-8"?>
<!-- Generator: Adobe Illustrator 25.0.0, SVG Export Plug-In . SVG Version: 6.00 Build 0)  -->
<svg version="1.1" id="Layer_1" xmlns="http://www.w3.org/2000/svg" xmlns:xlink="http://www.w3.org/1999/xlink" x="0px" y="0px"
	 viewBox="0 0 512 512" style="enable-background:new 0 0 512 512;" xml:space="preserve">
<style type="text/css">
	.st0{fill:#CE1126;}
	.st1{fill:#FFFFFF;}
</style>
<polygon class="st0" points="141.2,88 141.2,88 211.9,109 141.2,130 211.9,151 141.2,172 211.9,193 141.2,214 211.9,235 141.2,256 
	211.9,277 141.2,298 211.9,319 141.2,340 211.9,361 141.2,382 211.9,403 141.2,424 512,424 512,88 "/>
<polygon class="st1" points="141.2,424 211.9,403 141.2,382 211.9,361 141.2,340 211.9,319 141.2,298 211.9,277 141.2,256 
	211.9,235 141.2,214 211.9,193 141.2,172 211.9,151 141.2,130 211.9,109 141.2,88 141.2,88 0,88 0,415.2 0,424 "/>
</svg>
