<svg version="1.1" id="Layer_1" xmlns="http://www.w3.org/2000/svg" x="0" y="0" viewBox="0 0 512 512" xml:space="preserve"><style>.st1{fill:#1eb53a}.st2{fill:#ce1126}</style><path d="M512 88.2h-40.1L307.7 196c-13.9-12-31.9-19.2-51.7-19.2-19.7 0-37.8 7.2-51.7 19.2L40.1 88.2H0v26.3l180.3 118.3c-2.2 7.3-3.5 15.1-3.5 23.2 0 8.2 1.2 16.1 3.6 23.5L0 397.9v25.9h40.8l163.9-107.5c13.8 11.8 31.8 18.9 51.4 18.9 19.6 0 37.5-7.1 51.4-18.9l163.9 107.5H512v-25.9L331.6 279.5c2.3-7.4 3.6-15.3 3.6-23.5 0-8.1-1.2-15.8-3.5-23.2L512 114.5V88.2z" fill="#fff"/><path class="st1" d="M176.8 256c0-8.1 1.2-15.8 3.5-23.2L0 114.5v283.4l180.4-118.4c-2.3-7.4-3.6-15.3-3.6-23.5zM335.2 256c0 8.2-1.2 16.1-3.6 23.5L512 397.9V114.5L331.7 232.8c2.3 7.4 3.5 15.1 3.5 23.2z"/><path class="st2" d="M256 335.2c-19.6 0-37.5-7.1-51.4-18.9L40.8 423.8h430.4L307.4 316.2c-13.9 11.9-31.8 19-51.4 19zM256 176.8c19.7 0 37.6 7.2 51.5 19L471.7 88.2H40.3l164.3 107.6c13.8-11.8 31.7-19 51.4-19z"/><g id="stars"><path class="st2" d="M250.3 230.5l-12 .4 6.3-10.3-6.3-10.2 12 .3 5.7-10.5 5.7 10.5 12-.3-6.3 10.2 6.3 10.3-12-.4-5.7 10.6z"/><path class="st1" d="M256 203l4.9 9.1 10.3-.3-5.4 8.8 5.4 8.8-10.3-.3-4.9 9.1-4.9-9.1-10.3.3 5.4-8.8-5.4-8.8 10.3.3 4.9-9.1m0-5.6l-2.3 4.3-4.2 7.7-8.7-.2-4.9-.1 2.5 4.2 4.6 7.4-4.6 7.4-2.5 4.2 4.9-.1 8.7-.2 4.2 7.7 2.3 4.3 2.3-4.3 4.2-7.7 8.7.2 4.9.1-2.5-4.2-4.6-7.4 4.6-7.4 2.5-4.2-4.9.1-8.7.2-4.2-7.7-2.3-4.3z"/><path class="st2" d="M217.4 289.1l-12 .3 6.3-10.3-6.3-10.2 12 .3 5.7-10.5 5.7 10.5 12-.3-6.2 10.2 6.2 10.3-12-.3-5.7 10.5z"/><path class="st1" d="M223.1 261.5l4.9 9.1 10.3-.3-5.4 8.8 5.4 8.8-10.3-.3-4.9 9.1-4.9-9.1-10.3.3 5.4-8.8-5.4-8.8 10.3.3 4.9-9.1m0-5.6l-2.3 4.3-4.2 7.7-8.7-.2-4.9-.1 2.5 4.2 4.6 7.4-4.6 7.4-2.5 4.2 4.9-.1 8.7-.2 4.2 7.7 2.3 4.3 2.3-4.3 4.2-7.7 8.7.2 4.9.1-2.5-4.2-4.6-7.4 4.6-7.4 2.5-4.2-4.9.1-8.7.2-4.2-7.7-2.3-4.3z"/><path class="st2" d="M283.2 289.1l-12 .3 6.2-10.3-6.2-10.2 12 .3 5.7-10.5 5.7 10.5 12-.3-6.3 10.2 6.3 10.3-12-.3-5.7 10.5z"/><path class="st1" d="M288.9 261.5l4.9 9.1 10.3-.3-5.4 8.8 5.4 8.8-10.3-.3-4.9 9.1-4.9-9.1-10.3.3 5.4-8.8-5.4-8.8 10.3.3 4.9-9.1m0-5.6l-2.3 4.3-4.2 7.7-8.7-.2-4.9-.1 2.5 4.2 4.6 7.4-4.6 7.4-2.5 4.2 4.9-.1 8.7-.2 4.2 7.7 2.3 4.3 2.3-4.3 4.2-7.7 8.7.2 4.9.1-2.5-4.2-4.6-7.4 4.6-7.4 2.5-4.2-4.9.1-8.7.2-4.2-7.7-2.3-4.3z"/></g></svg>