<svg version="1.1" id="Layer_1" xmlns="http://www.w3.org/2000/svg" x="0" y="0" viewBox="0 0 512 512" xml:space="preserve"><style>.st0{fill:#c8102e}.st2{fill:#fff}.st4{fill:#65b6d1}.st7{fill:#f5cd27}</style><path class="st0" d="M256.1 88v168.2H0V424h512V88z"/><g id="Union_flag"><path fill="#012169" d="M0 88h256.1v168.2H0z"/><path class="st2" d="M106 150.1v-7.9L22.7 88H0v17l69.3 45.1zM106 194.1H70.8L0 240.1v16.1h24.2l81.8-53.3zM233.9 88L150 142.5v7.6h37.3l68.8-44.8V88zM150 194.1v8.5l82.5 53.6h23.6v-16.4l-70.2-45.7z"/><path class="st2" d="M256.1 150.1H150V88h-44v62.1H0v44h106v62.1h44v-62.1h106.1z"/><path class="st0" d="M256.1 158.8H141.3V88h-26.5v70.8H0v26.5h114.8v70.9h26.5v-70.9h114.8z"/><path class="st0" d="M97.2 150.1L1.7 88H0v9.6l80.7 52.5zM106 194.1H89.6L0 252.4v3.8h10.6zM157.3 194.1l95.5 62.1h3.3v-8.6l-82.3-53.5zM245.4 88L150 150v.1h16.4l89.7-58.3V88z"/></g><g id="shield"><path class="st2" d="M320.9 174c-1.7 0-3.2 1.4-3.2 3.2v116.6c0 9.5 6.3 41 66.2 50.4 59.9-9.5 66.2-41 66.2-50.4V177.2c0-1.7-1.4-3.2-3.2-3.2h-126z"/><path d="M384 344.3c50-7.9 62.7-31.2 65.5-44.1h-131c2.8 12.9 15.5 36.2 65.5 44.1z" fill="#318f25"/><path class="st4" d="M425 240.2s3.2-3.2 0-9.5l-41-1.8-41 1.8c-3.2 6.3 0 9.5 0 9.5-3.2 3.2-3.2 6.3-3.2 6.3h6.3l6.8 11.3 31 17.1 31-17.1 6.8-11.3h6.3c.1 0 .1-3.1-3-6.3z"/><path class="st2" d="M415 257.8s-2-4.3-7.2-3.8c0 0-2.9-3.8-7.8-2.8 0 0-5.6-3.3-8.9 2.8 0 0-10.4-1.1-11 6.9 0 0 16.3 24.5 16.7 24.8.4.3 19.4.1 19.4.1l8.8-9.7-8.7-12.5-1.3-5.8z"/><path d="M384.4 265.6s-13.8-22.5-15.8-24.4c-1.9-1.8-5.6-3.5-9.5-.4 0 0-11.4-.9-9.9 7.8l3.3 13.1s-2.9 9.1-4.2 10c-1.3.9-6.2 3.4-6.2 3.4L345 286l36.8-1.8 2.6-18.6z" fill="#e5ca64"/><path d="M400.3 255.7l-1.1-2.4c-.1-.2-.2-.3-.4-.4-.2-.1-.4-.1-.6 0l-6.8 3-8.1-13.3c.4-.3.5-.8.3-1.3-.2-.6-.9-.9-1.5-.7l-1.8.6-1.2-3.6c-.1-.4-.6-.6-1-.5-.4.1-.6.6-.5 1l1.2 3.7-1.9.7c-.6.2-.9.9-.7 1.5.2.5.6.8 1.1.8h.2l2.7 16.2-1.7.8c-.4.2-.6.6-.4 1l1 2.7c0 .5 0 1.2-.1 2.2l-11-18.9c.5-.3.7-.9.5-1.4-.2-.6-.9-.9-1.5-.7l-1.8.6-1.2-3.6c-.1-.4-.6-.6-1-.5-.4.1-.6.6-.5 1l1.2 3.7-1.9.7c-.6.2-.9.9-.7 1.5.2.4.6.7 1 .7l4.8 29.8c-.6.3-1.2.5-1.9.8 0 0-2.2 10.6-.5 11.2s19.3 5.9 19.3 5.9 24.3-11.6 24.8-11.8c.5-.3 1.6-7.9 1.6-7.9l-9.9-23.1zm-1.5.7l-2 .9-.7-1.7 2-.9.7 1.7zm-12.3 3.4l1.7-.7.6 1.6-1.8.8-.5-1.7zm-.9 2.2l-2 .9-.6-1.5 2.1-.9.5 1.5zm4.7-2l-.6-1.6 1.8-.8.7 1.6-1.9.8zm2.5-3l1.8-.8.7 1.6-1.8.8-.7-1.6zm-11.1-13.7l8.2 13.3-3.9 1.7-5-14.8.7-.2zm-2.8 1l.6-.2 5 14.9-3 1.3-2.6-16zm2.6 17.7l.6 1.5-1.9.8-.5-1.5 1.8-.8zm-15.2-12.7l11.9 20.5c-.6 1.7-1.7 3.8-3.7 5.7l-8.8-26 .6-.2zm-3 1.1l.9-.3 9 26.6c-1.4 1.1-3.1 2.2-5.2 3.2l-4.7-29.5z" fill="#78411e"/><path class="st0" d="M427.8 226c-.8-1.3-3.5-.8-3.5-.8s-.8-1.5-2.8-1.7c-2-.1-2.4 1.7-2.4 1.7s-.4-.3-2.6-.2-1.8 3.7-1.8 3.7-.9 0-3.7-.9c-2.9-.9-4.8-.3-4.8-.3-.1-1.5-.9-2.6-.9-2.6-2.4 1-4.3-.1-4.8-1s.7-2.2.7-3.3c0-1.1-1.5-1.1-2.1-2.1s0-1.5 1.4-2.2 2.8-3 1.9-4.9-3.4-1.6-3.4-1.6c.9.1 1.6 1.8.2 2.2-1.4.3-2.7-4.9-2.7-4.9 3.3 2.2 5.7.9 6.4-1 .7-1.9-1.1-3.3-1.1-3.3-1.4 2.3-3.9.3-2.6-1.2 1.3-1.5 1.4-4 1.4-4-3 1.4-4.8-.4-4.8-.4 3.9-2.7 2.8-6.5 2.8-6.5-1.4-.7-4.5-.1-4.5-.1.7-1.3.5-3.7.5-3.7-1.6-.3-3.5.8-3.5.8.5-1.8-.2-5.1-.2-5.1-1.2.2-3.4.9-3.4.9-.9-2.1-3.5-3.4-3.5-3.4s-2.6 1.2-3.5 3.4c0 0-2.2-.7-3.4-.9 0 0-.7 3.2-.2 5.1 0 0-1.8-1.1-3.5-.8 0 0-.1 2.4.5 3.7 0 0-3.1-.5-4.5.1 0 0-1.1 3.8 2.8 6.5 0 0-1.8 1.8-4.8.4 0 0 .1 2.5 1.4 4 1.3 1.5-1.1 3.5-2.6 1.2 0 0-1.8 1.3-1.1 3.3s3.1 3.3 6.4 1c0 0-1.3 5.2-2.7 4.9-1.4-.3-.7-2 .2-2.2 0 0-2.6-.3-3.4 1.6-.9 1.9.4 4.3 1.9 4.9 1.4.6 2 1.2 1.4 2.2-.5 1-2.1.9-2.1 2.1 0 1.1 1.2 2.4.7 3.3-.5.9-2.4 2-4.8 1 0 0-.8 1.1-.9 2.6 0 0-1.9-.7-4.8.3-2.9.9-3.7.9-3.7.9s.5-3.7-1.8-3.7c-2.2-.1-2.6.2-2.6.2s-.4-1.8-2.4-1.7c-2 .1-2.8 1.7-2.8 1.7s-2.7-.6-3.5.8c-.8 1.3-.9 3.4.6 4.2 1.6.8 5.8 4.3 5.8 4.3l5.9 2.6 20.7-9.2 10.8 2.9 10.8-2.9 20.7 9.2 5.9-2.6s4.2-3.5 5.8-4.3c1.6-.8 1.5-2.9.6-4.2z"/><path class="st2" d="M377.5 192.6s.2 2.8 4.3 2c.1.1 0-2.8-4.3-2z"/><path class="st0" d="M362.3 302.5s-3-.1-6 2.2c-3.1 2.3-4.4.7-7.5.7s-3.8 3.2-3.8 3.2-5.9 1.5-3.5 5.8c1.5 2.7 3.6 2.7 4.9 2.3-.1 1.8.4 3.9 2.5 4.2 4 .7 5.8-1.5 4.9-4.8 0 0 .5 3.4 3.2 3.4 2.7-.1 4.4-1.6 4.1-5.1s4.4-1.4 8.1-6.6l-6.9-5.3z"/><path class="st4" d="M345 315.2s-1.8 2.4-1.3 4.8c0 0-3.9-1.2-1.8-7.1 0 0 2.7-.7 3.1 2.3zM351.2 318.4s-1.1 3.1.4 5.8c0 0-4.9-.1-3.9-6.2 0-.1 1.6-1.7 3.5.4zM356.2 318.1s.9 2.6 0 5c0 0 4-.2 3.4-6.1-.1 0-2.3-.8-3.4 1.1z"/><path class="st0" d="M352.6 259.2c-.4-3-19.4-4.8-18.2 11.2 0 0-2.1 0-3.1 1.9s-3.3 1.5-3.9.8c0 0 .1 3.6 4.6 3.4 0 0-1.4 1.1-1.2 2.7s1.4 3.6 1.3 5-1.4 3.3-1.4 3.3 3.4-1.2 3.6-3.6c.2-2.4-.3-4.5.3-5.7 0 0-.3 1.7 1.2 3.9s1.6 4.8 1 6.4c0 0 3.8-1.9 3-5.4s-1.5-3.3-1.1-5.3c0 0 3.9 4 3.2 7.4 0 0 1.2-1.5 1.1-4.3-.1-2.8-2.1-4.7-2.1-4.7s12.9-6.6 11.7-17zM405.7 302.5s3-.1 6 2.2c3.1 2.3 4.4.7 7.5.7s3.8 3.2 3.8 3.2 5.9 1.5 3.5 5.8c-1.5 2.7-3.6 2.7-4.9 2.3.1 1.8-.4 3.9-2.5 4.2-4 .7-5.8-1.5-4.9-4.8 0 0-.5 3.4-3.2 3.4-2.7-.1-4.4-1.6-4.1-5.1s-4.4-1.4-8.1-6.6l6.9-5.3z"/><path class="st4" d="M423 315.2s1.8 2.4 1.3 4.8c0 0 3.9-1.2 1.8-7.1 0 0-2.7-.7-3.1 2.3zM416.8 318.4s1.1 3.1-.4 5.8c0 0 4.9-.1 3.9-6.2 0-.1-1.6-1.7-3.5.4zM411.8 318.1s-.9 2.6 0 5c0 0-4-.2-3.4-6.1.1 0 2.3-.8 3.4 1.1z"/><path class="st0" d="M415.4 259.2c.4-3 19.4-4.8 18.2 11.2 0 0 2.1 0 3.1 1.9s3.3 1.5 3.9.8c0 0-.1 3.6-4.6 3.4 0 0 1.4 1.1 1.2 2.7s-1.4 3.6-1.3 5c.1 1.4 1.4 3.3 1.4 3.3s-3.4-1.2-3.6-3.6c-.2-2.4.3-4.5-.3-5.7 0 0 .3 1.7-1.2 3.9s-1.6 4.8-1 6.4c0 0-3.8-1.9-3-5.4s1.5-3.3 1.1-5.3c0 0-3.9 4-3.2 7.4 0 0-1.2-1.5-1.1-4.3.1-2.8 2.1-4.7 2.1-4.7s-12.9-6.6-11.7-17z"/><path class="st7" d="M423.2 231.9c-.7-.5-1.7-.3-2.2.4-1 1.5-2.3 2.4-4 2.7-5.6 1-13.8-4.6-16.1-6.3-3.4-2.5-7.7-3-10.5-1.2-1.1.4-4.5 1.4-6.4 1.4-1.9 0-5.3-1.1-6.4-1.4-2.8-1.7-7-1.3-10.5 1.2-2.4 1.7-10.5 7.3-16.1 6.3-1.7-.3-3-1.2-4-2.7-.5-.7-1.5-.9-2.2-.4-.7.5-.9 1.5-.4 2.2 1.5 2.2 3.5 3.6 6.1 4.1.6.1 1.3.2 2 .2 6 0 12.8-4.3 16.6-7 2.8-2 5.9-2 7.3-.9.4.3.8.8.7 1.3-.1.3-.3.6-.6.8.1-.5-.1-1-.4-1.4-.6-.6-1.6-.6-2.2 0-.8.8-.9 2.1-.2 3.1.7 1.1 2.1 1.8 3.9 1.2.9-.3 1.6-1 2.1-1.7 2.4-.7 4.6-.7 4.6-.7s2.2 0 4.6.7c.5.8 1.2 1.4 2.1 1.7 1.7.6 3.2-.1 3.9-1.2.7-1.1.6-2.3-.2-3.1-.6-.6-1.6-.6-2.2 0-.4.4-.5.9-.4 1.4-.3-.2-.5-.5-.6-.8-.1-.6.3-1 .7-1.3 1.4-1.2 4.5-1.2 7.3.9 3.7 2.8 10.6 7 16.6 7 .7 0 1.3-.1 2-.2 2.6-.5 4.6-1.8 6.1-4.1 0-.7-.2-1.7-1-2.2z"/><path class="st4" d="M343.8 233.6s-.3-3.5-.4-4.7-2.3-2-3.1-.9c-.7 1.3-1 3.4 3.5 5.6zM344.6 232.5s3.1-2.5 2.7-3.8c-.4-1.3-1.2-2-2.3-1.6-1 .3-1.5 2.7-.4 5.4zM350.6 230.5c.4-.4.6-2.6-.6-2.9-1.2-.2-2.9 1.7-2.8 4 .1.1 2.6-.2 3.4-1.1zM349.4 231.8c-1.4.5-2.8 1.7-2.8 1.7s2.6 1.9 4.3 1.3c1.8-.7.9-3.8-1.5-3z"/><path class="st2" d="M390.5 192.6s-.2 2.8-4.3 2c-.1.1 0-2.8 4.3-2z"/><g><path class="st4" d="M424.2 233.6s.3-3.5.4-4.7c.1-1.1 2.3-2 3.1-.9.7 1.3 1 3.4-3.5 5.6zM423.4 232.5s-3.1-2.5-2.7-3.8c.4-1.3 1.2-2 2.3-1.6 1 .3 1.5 2.7.4 5.4zM417.4 230.5c-.4-.4-.6-2.6.6-2.9 1.2-.2 2.9 1.7 2.8 4-.1.1-2.6-.2-3.4-1.1zM418.6 231.8c1.4.5 2.8 1.7 2.8 1.7s-2.6 1.9-4.3 1.3c-1.8-.7-.9-3.8 1.5-3z"/></g><g><path d="M382.4 199.2l1.2 1.2c.2.2.6.2.8 0l1.2-1.2c.3-.3.1-.9-.4-.9h-2.5c-.4-.1-.7.5-.3.9z"/><path d="M381.7 204.3c-.9 0-1.7-.3-2.3-.9-.6-.6-.8-1.5-.7-2.4.1-.3.4-.5.6-.5.3.1.5.3.5.6-.1.6.1 1.1.4 1.5.4.4.9.6 1.6.6 1.4-.1 1.6-1.4 1.6-1.5v-2.5c0-.3.2-.6.6-.6s.6.2.6.6v2.6c-.1.9-.9 2.4-2.7 2.5h-.2z"/><path d="M386.3 204.3h-.2c-1.8-.1-2.5-1.6-2.7-2.4v-2.6c0-.3.2-.6.6-.6s.6.2.6.6v2.6c0 .1.3 1.3 1.6 1.4.7 0 1.2-.2 1.6-.6.3-.4.5-.9.4-1.5 0-.3.2-.6.5-.6s.6.2.6.5c.1.9-.1 1.8-.7 2.4-.6.5-1.4.8-2.3.8z"/></g><g><path class="st2" d="M402.9 284.4s-3.9-6.3-8.5-2.1c-4.6 4.2-6.3 9.3-11.6 8.9-2.9-.2-4.4-1.5-5.1-2.7 1.4-1.1 2.4-2.9 1.3-5.5-2.4-5.6-11-3.9-13.4 2.2 0 0 2.8-9.1-6.8-6 0 0-1.2-6.3-6.7-4.6-3 .9-4.1 2.8-4.5 4.3-1.2-.3-2.7-.3-4 .8l7 18.8 10.5.1 2.4 3.5 13.8 8.7 2.5 5.3h8.7s.7-5.4 5.3-7c4.6-1.6 12.1-4.9 12.9-7.8l.8-2.9 8.4.1c.9-.7 7.1-10.8 7.1-10.8l2.9-13c-1.9 0-20-2.4-23 9.7z"/><path class="st2" d="M425.6 274.8v.1h.2l-.2-.1z"/></g><g><path class="st7" d="M368.4 304.5c-3.4-1.4-4.6-3.3-5-4.3-.4-.9-.3-1.6-.2-1.9.2-.5.5-.8.7-.9.2-.1.5.1.6.1.1.1.2.5.1.6-.6.6-.7 1.6-.1 2.2.6.6 1.6.7 2.2.1.6-.6 1-1.5 1-2.4 0-1-.3-2-1-2.7-.6-.7-2-1.3-3.4-1.1-.3.1-.6.2-1 .3.2-2.2-.6-3.3-1.2-3.8-1-.8-2.5-.8-3.8 0-1.3.7-2 2.1-1.8 3.4.1.9 1 1.4 1.8 1.3.9-.1 1.5-1 1.4-1.9.2-.2.4-.2.4-.3 0 0 .2.3 0 1.5-.4 1.7-1.3 2.8-2.7 3.2-1.8.5-4-.3-5.4-1.7-1.9-2.1-5.8-13-8.1-20.2 10-4.7 11.2-12.6 11-17-.3-6.7-4.3-13.5-8.7-14.9-1.7-.6-4.4-.7-6.3.3-1.1.6-1.8 1.4-2.2 2.5-.7 2.2.7 4 2.3 4.6 1.7.6 3.4-.1 4.1-1.7.3-.8 0-1.7-.8-2.1-.8-.3-1.7.1-2 .9-.1 0-.3 0-.4-.2-.1-.1-.1-.3-.1-.4.1-.2.2-.4.6-.6 1-.5 2.8-.5 3.9-.1 2.5.8 6.2 5.8 6.5 12 .2 3.7-1 10.6-10.4 14.5-.8.3-1.1 1.1-.9 1.9.6 2 6.1 19.3 9.2 22.8 1.7 1.8 4.2 2.9 6.6 2.9.7 0 1.3-.1 1.9-.2 1.1-.3 1.9-.8 2.7-1.5.1.6.2 1.2.5 1.8.6 1.5 2.3 4.2 7 6.1 9.5 3.8 10.5 6.4 10.4 7.3 0 .5-.3.8-.6.9-.1.1-.2.1-.3.1.4-.5.4-1.1.1-1.7-.4-.8-1.4-1-2.1-.6-1.1.6-1.8 2-1.2 3.6.5 1.2 1.7 1.9 3 1.9.2 0 .4 0 .7-.1 2-.3 3.4-2 3.5-4 .4-4.7-6.8-8.2-12.5-10.5zM399.6 304.5c3.4-1.4 4.6-3.3 5-4.3.4-.9.3-1.6.2-1.9-.2-.5-.5-.8-.7-.9-.2-.1-.5.1-.6.1-.1.1-.2.5-.1.6.6.6.7 1.6.1 2.2-.6.6-1.6.7-2.2.1-.6-.6-1-1.5-1-2.4 0-1 .3-2 1-2.7.6-.7 2-1.3 3.4-1.1.3.1.6.2 1 .3-.2-2.2.6-3.3 1.2-3.8 1-.8 2.5-.8 3.8 0 1.3.7 2 2.1 1.8 3.4-.1.9-1 1.4-1.8 1.3-.9-.1-1.5-1-1.4-1.9-.2-.2-.4-.2-.4-.3 0 0-.2.3 0 1.5.4 1.7 1.3 2.8 2.7 3.2 1.8.5 4-.3 5.4-1.7 1.9-2.1 5.8-13 8.1-20.2-10-4.7-11.2-12.6-11-17 .3-6.7 4.3-13.5 8.7-14.9 1.7-.6 4.4-.7 6.3.3 1.1.6 1.8 1.4 2.2 2.5.7 2.2-.7 4-2.3 4.6-1.7.6-3.4-.1-4.1-1.7-.3-.8 0-1.7.8-2.1.8-.3 1.7.1 2 .9.1 0 .3 0 .4-.2.1-.1.1-.3.1-.4-.1-.2-.2-.4-.6-.6-1-.5-2.8-.5-3.9-.1-2.5.8-6.2 5.8-6.5 12-.2 3.7 1 10.6 10.4 14.5.8.3 1.1 1.1.9 1.9-.6 2-6.1 19.3-9.2 22.8-1.7 1.8-4.2 2.9-6.6 2.9-.7 0-1.3-.1-1.9-.2-1.1-.3-1.9-.8-2.7-1.5-.1.6-.2 1.2-.5 1.8-.6 1.5-2.3 4.2-7 6.1-9.5 3.8-10.5 6.4-10.4 7.3 0 .5.3.8.6.9.1.1.2.1.3.1-.4-.5-.4-1.1-.1-1.7.4-.8 1.4-1 2.1-.6 1.1.6 1.8 2 1.2 3.6-.5 1.2-1.7 1.9-3 1.9-.2 0-.4 0-.7-.1-2-.3-3.4-2-3.5-4-.4-4.7 6.8-8.2 12.5-10.5z"/></g></g></svg>