<svg version="1.1" id="Layer_1" xmlns="http://www.w3.org/2000/svg" x="0" y="0" viewBox="0 0 512 512" xml:space="preserve"><style>.st0{fill:#f7e017}.st2{fill:#cf1126}</style><path class="st0" d="M512 300.3v-212H0zM0 211.7v212h512z"/><path d="M0 150v61.7l512 212V362z"/><path fill="#fff" d="M0 88.9v61.7l512 212v-61.7z"/><path class="st2" d="M305.6 240.3v-.2s-.1-1.2-.3-3.5c-.1-1.1-.3-2.5-.7-4.1-.3-1.6-.8-3.4-1.4-5.4-1.3-4-3.4-8.7-6.9-13.3-.4-.6-.9-1.1-1.4-1.7 2-2.3 3.9-5 5.8-8.2 0 0-10.1.5-21.4-4.5-3.7-1.9-7.8-3.5-12.2-4.6l-2.1-8.4c-.5-1.8-2.1-3.1-3.9-3.1H258v-4.1h14.2l-4.1-8.1 4.1-8.1H258v-4.1h-4v24.4h-2.9c-1.9 0-3.5 1.3-3.9 3.1l-2.1 8.3c-2.7.6-5.5 1.3-8.1 2.5-2.2.9-4.3 2-6.3 3.2-10.4 4-19.3 3.6-19.3 3.6 1.8 3.2 3.8 5.9 5.8 8.2-.4.5-.9.9-1.2 1.4-2.8 3.8-5 8-6.7 12.5-1.6 4.4-2.5 9.9-2.8 13.9v3.9c0 1.2.1 2.4.2 3.7.2 2.5.7 4.9 1.2 7.3 1.3 4.8 3.1 9.4 5.6 13.6 5.1 8.5 12.8 15.2 21.4 19.4 4.5 2 8.7 3.5 13.7 4.2 2.7.5 4.4.5 6.3.7h2l1.7-.1c1.1-.1 2.2-.1 3.3-.2 8.8-1 16.8-4.4 23-8.9 6.2-4.5 10.7-10.1 13.7-15.3 3.1-5.3 4.7-10.4 5.7-14.6.5-2.1.8-4 1-5.8.2-1.8.3-3.2.3-4.2v-3.4zm-73.8 28.6c-2.8-2.2-5.4-4.8-7.7-7.7-2.2-3-4-6.3-5.4-9.8-1.3-3.5-2.1-7.6-2.4-11.1-.1-4.7.1-7.9 1-12 1-3.8 2.4-7.6 4.4-11 .1-.2.3-.4.4-.6 9.2 7.2 19 6.7 25.8 3.2v7.9c2.2 0 4.1 4.5 4.1 10.1s-1.8 10.1-4.1 10.1v4.1c7.6 10.1 4.1 18.7-.6 23.7-2.1-.5-4.3-1.1-6.4-1.9-3.2-1.1-6.2-2.9-9.1-5zm63.9-29c0 .1-.1 1.1-.3 3.1-.1 1.1-.3 2.2-.6 3.3-.2 1.2-.6 2.6-1.2 4.2-1.1 3.2-2.8 6.9-5.6 10.5-2.8 3.6-6.6 7.2-11.3 10-3.6 2.1-7.8 3.6-12.3 4.6-4.5-5-7.7-13.4-.3-23.4v-4.1c-2.2 0-4.1-4.5-4.1-10.1s1.8-10.1 4.1-10.1V220c6.8 3.5 16.6 4 25.8-3.2.2.3.4.5.5.8 2.5 4.3 3.7 8.4 4.4 11.8.4 1.7.6 3.2.7 4.6.1 1.3.2 2.5.2 3.4v2.5z"/><path class="st2" d="M256 301c-15 0-28.6-5.8-38.7-15.3-1.9-1.7-4.8-1.5-6.5.4l-15.5 18.1c-1.7 1.9-.3 4.9 2.3 4.9h9.8l13 6.5c1.8.9 4.1.3 5.2-1.4l4.2-6.3c8.1 3.3 17 5.2 26.3 5.2s18.2-1.9 26.3-5.2l4.2 6.3c1.1 1.7 3.4 2.3 5.2 1.4l13-6.5h9.8c2.5 0 3.9-3 2.3-4.9L301.2 286c-1.7-1.9-4.6-2.1-6.5-.4C284.6 295.1 271 301 256 301zM199.2 284.7h-20.3l4.1-36.5s-14.2-7.1-12.7-28c.2-2.5 2.3-4.5 4.9-4.5h3.5c2.4 0 4.4 1.7 4.8 4.1.9 5.1 3.5 13.4 11.8 16.2l3.9 48.7zM312.8 284.7h20.3l-4.1-36.5s14.2-7.1 12.7-28c-.2-2.5-2.3-4.5-4.9-4.5h-3.5c-2.4 0-4.4 1.7-4.8 4.1-.9 5.1-3.5 13.4-11.8 16.2l-3.9 48.7z"/><g><path class="st0" d="M201.2 288.8h-24.4c-1.1 0-2-.9-2-2s.9-2 2-2h24.4c1.1 0 2 .9 2 2s-.9 2-2 2zM335.1 288.8h-24.4c-1.1 0-2-.9-2-2s.9-2 2-2h24.4c1.1 0 2 .9 2 2 .1 1.1-.8 2-2 2z"/></g></svg>