<svg version="1.1" id="Layer_1" xmlns="http://www.w3.org/2000/svg" x="0" y="0" viewBox="0 0 512 512" xml:space="preserve"><style>.st0{fill:#d52b1e}.st1{fill:#ffe000}.st2{fill:#007934}.st3{fill:#fff}.st4{fill:#ffbe5a}</style><path class="st0" d="M0 88.3h512v112H0z"/><path class="st1" d="M0 200.4h512v112H0z"/><path class="st2" d="M0 312.4h512v112H0zM244.6 206s-.2.3-.7.8c-.4.5-.9 1.2-1.5 2.3-1.1 2-2.3 5.1-2.4 8.8 0 1.8.4 4 1 5.7.7 1.9 1.8 3.8 3.2 5.4 1.4 1.7 3.3 2.9 5.3 3.9 1 .5 2.1.8 3.2 1.1.5.2 1.1.2 1.7.3.3.1.6 0 .8.1h.8-.2c.7 0 1.5 0 2.1-.1.5-.1.9-.1 1.5-.3 1.1-.3 2.2-.6 3.2-1.1 2-.9 3.9-2.2 5.3-3.9 1.4-1.6 2.5-3.5 3.2-5.4.6-2 1-3.8 1-5.7 0-3.7-1.2-6.8-2.4-8.8-.6-1-1.1-1.8-1.5-2.3-.4-.5-.6-.8-.6-.8l-.1-.1c-.4-.5-.3-1.2.2-1.6.4-.3.9-.3 1.3-.1l.9.6c.6.4 1.5 1 2.4 2 1.9 1.9 4.5 5.3 5.4 10.3.4 2.4.5 5.2-.1 8.1-.6 2.9-1.8 5.8-3.8 8.4-1.9 2.6-4.5 4.9-7.6 6.4-1.5.8-3.2 1.4-4.9 1.8-.8.2-1.8.3-2.8.5-.9.1-1.5.1-2.2.1h-1.6c-.4 0-.9 0-1.3-.1-.9-.2-1.7-.2-2.6-.5-1.7-.4-3.4-1-4.9-1.8-3.1-1.5-5.7-3.8-7.6-6.4-2-2.6-3.2-5.5-3.8-8.4-.6-3-.6-5.6-.1-8.1.9-4.9 3.4-8.4 5.4-10.3 1-1 1.9-1.6 2.5-2.1l.9-.6c.5-.3 1.2-.2 1.6.4.1.6.1 1.1-.2 1.5z"/><path class="st0" d="M253.8 293.9v14c0 1.4-1.7 2.1-2.7 1.1l-.8-.8c-.6-.6-1-1.5-1-2.4v-11.9h4.5z"/><path class="st1" d="M247.1 291.6v10.1c0 .6.2 1.2.7 1.6l1.5 1.5v-13.3h-2.2z"/><path class="st2" d="M244.9 291.6v5.4c0 .8.3 1.5.9 2.1l1.4 1.4v-8.9h-2.3z"/><path class="st0" d="M258.2 293.9v14c0 1.4 1.7 2.1 2.7 1.1l.8-.8c.6-.6 1-1.5 1-2.4v-11.9h-4.5z"/><path class="st1" d="M264.9 291.6v10.1c0 .6-.2 1.2-.7 1.6l-1.5 1.5v-13.3h2.2z"/><path class="st2" d="M267.1 291.6v5.4c0 .8-.3 1.5-.9 2.1l-1.4 1.4v-8.9h2.3z"/><path class="st0" d="M267.1 251.7l24.4-17.7v36.5c0 10.5-8.5 19-19 19-3.6 0-7-1-10.1-2.9l-13.1-8.2v-26.9l17.8.2z"/><path class="st1" d="M282.6 240.4V266c0 10.5-8.5 19-19 19-1.6 0-3.1-.2-4.6-.6l-9.7-6v-26.9l17.7.3 15.6-11.4z"/><path class="st2" d="M276 245.3v16.5c0 10.5-8.5 19-19 19-1.6 0-3.1-.2-4.6-.6l-3-1.9v-26.9l17.7.3 8.9-6.4z"/><path class="st3" d="M292.8 230l9.8-4.9-7.1 8.9h-4z"/><path class="st0" d="M280.4 262.8l24.4-17.7v36.5c0 10.5-8.5 19-19 19-3.6 0-7-1-10.1-2.9l-13.1-8.2v-26.9l17.8.2z"/><path class="st2" d="M289.3 256.4v16.5c0 10.5-8.5 19-19 19-1.6 0-3.1-.2-4.6-.6l-3-1.9v-26.9l17.7.3 8.9-6.4z"/><path class="st3" d="M306.1 241.1l9.8-4.9-7.1 8.9h-4z"/><path class="st0" d="M273.7 258.4l24.4-17.7v36.5c0 10.5-8.5 19-19 19-3.6 0-7-1-10.1-2.9l-13-8.3v-26.9l17.7.3z"/><path class="st1" d="M289.3 247.1v25.6c0 10.5-8.5 19-19 19-1.6 0-3.1-.2-4.6-.6l-9.7-6v-26.9l17.7.3 15.6-11.4z"/><path class="st2" d="M282.6 251.9v16.5c0 10.5-8.5 19-19 19-1.6 0-3.1-.2-4.6-.6l-3-1.9V258l17.7.3 8.9-6.4z"/><path class="st3" d="M299.5 236.6l9.7-4.9-7.1 8.9h-3.9z"/><path class="st0" d="M244.9 251.7L220.5 234v36.5c0 10.5 8.5 19 19 19 3.6 0 7-1 10.1-2.9l13.1-8.2v-26.9l-17.8.2z"/><path class="st1" d="M229.4 240.4V266c0 10.5 8.5 19 19 19 1.6 0 3.1-.2 4.6-.6l9.7-6v-26.9l-17.7.3-15.6-11.4z"/><path class="st2" d="M236 245.3v16.5c0 10.5 8.5 19 19 19 1.6 0 3.1-.2 4.6-.6l3-1.9v-26.9l-17.7.3-8.9-6.4z"/><path class="st3" d="M219.2 230l-9.8-4.9 7.1 8.9h4z"/><path class="st0" d="M231.6 262.8l-24.4-17.7v36.5c0 10.5 8.5 19 19 19 3.6 0 7-1 10.1-2.9l13.1-8.2v-26.9l-17.8.2z"/><path class="st2" d="M222.7 256.4v16.5c0 10.5 8.5 19 19 19 1.6 0 3.1-.2 4.6-.6l3-1.9v-26.9l-17.7.3-8.9-6.4z"/><path class="st3" d="M205.9 241.1l-9.8-4.9 7.1 8.9h4z"/><path class="st0" d="M238.3 258.4l-24.4-17.7v36.5c0 10.5 8.5 19 19 19 3.6 0 7-1 10.1-2.9l13-8.3v-26.9l-17.7.3z"/><path class="st1" d="M222.7 247.1v25.6c0 10.5 8.5 19 19 19 1.6 0 3.1-.2 4.6-.6l9.7-6v-26.9l-17.7.3-15.6-11.4z"/><path class="st2" d="M229.4 251.9v16.5c0 10.5 8.5 19 19 19 1.6 0 3.1-.2 4.6-.6l3-1.9V258l-17.7.3-8.9-6.4z"/><path class="st4" d="M226.9 291.4l-2.9-2.9c-1.8-1.8-1.7-4.7.1-6.4l48.4-45.5 6.3 6.3-45.5 48.4c-1.7 1.8-4.6 1.8-6.4.1z"/><circle class="st4" cx="225.5" cy="289.9" r="2.2"/><ellipse transform="rotate(-45.001 275.684 239.703)" class="st3" cx="275.7" cy="239.7" rx="2.2" ry="4.4"/><path class="st4" d="M285.1 291.4l2.9-2.9c1.8-1.8 1.7-4.7-.1-6.4l-48.4-45.5-6.3 6.3 45.5 48.4c1.7 1.8 4.6 1.8 6.4.1z"/><circle class="st4" cx="286.5" cy="289.9" r="2.2"/><ellipse transform="rotate(-45.001 236.322 239.705)" class="st3" cx="236.3" cy="239.7" rx="4.4" ry="2.2"/><ellipse class="st4" cx="256" cy="266.1" rx="19.6" ry="23.3"/><path class="st0" d="M256 245.1l1 4.5 2.4-4-.4 4.6 3.5-3-1.8 4.2 4.3-1.8-3.1 3.5 4.6-.4-3.9 2.4 4.5 1.1-4.5 1 3.9 2.4-4.6-.4 3.1 3.5-4.3-1.8 1.8 4.2-3.5-3 .4 4.6-2.4-4-1 4.5-1-4.5-2.4 4 .4-4.6-3.5 3 1.8-4.2-4.3 1.8 3.1-3.5-4.6.4 3.9-2.4-4.5-1 4.5-1.1-3.9-2.4 4.6.4-3.1-3.5 4.3 1.8-1.8-4.2 3.5 3-.4-4.6 2.4 4z"/><path class="st2" d="M280.5 265.7s-7.3 1.9-12.1-2.1c-5.3-4.5-9.3-6.6-11-7.4-.6-.3-1.2-.3-1.8 0-1.2.6-3.5 1.7-5.5 3.5-2.9 2.6-11.9 7.6-13.7 7.6v11l14.1 12.2 16.6-.5 13.4-24.3z"/><path d="M256 295c-14.1 0-25.5-12.9-25.5-28.8s11.4-28.8 25.5-28.8 25.5 12.9 25.5 28.8S270.1 295 256 295zm0-51.1c-10.4 0-18.9 10-18.9 22.2s8.5 22.2 18.9 22.2c10.4 0 18.9-10 18.9-22.2s-8.5-22.2-18.9-22.2z" fill="#3cc8ff"/><path class="st4" d="M252.2 288.9l.5 1.5h1.5c.2 0 .3.3.1.4l-1.2.9.5 1.5c.1.2-.2.3-.3.2l-1.3-.9-1.3.9c-.2.1-.4 0-.3-.2l.5-1.5-1.2-.9c-.2-.1-.1-.4.1-.4h1.5l.5-1.5c0-.1.3-.1.4 0zM245.2 286l.5 1.5h1.5c.2 0 .3.3.1.4l-1.2.9.5 1.5c.1.2-.2.3-.3.2l-1.3-.9-1.3.9c-.2.1-.4 0-.3-.2l.5-1.5-1.2-.9c-.2-.1-.1-.4.1-.4h1.5l.5-1.5c.1-.2.4-.2.4 0zM239.7 280.9l.5 1.5h1.5c.2 0 .3.3.1.4l-1.2.9.5 1.5c.1.2-.2.3-.3.2l-1.3-.9-1.3.9c-.2.1-.4 0-.3-.2l.5-1.5-1.2-.9c-.2-.1-.1-.4.1-.4h1.5l.5-1.5c0-.2.3-.2.4 0zM235.9 274.2l.5 1.5h1.5c.2 0 .3.3.1.4l-1.2.9.5 1.5c.1.2-.2.3-.3.2l-1.3-.9-1.3.9c-.2.1-.4 0-.3-.2l.5-1.5-1.2-.9c-.2-.1-.1-.4.1-.4h1.5l.5-1.5c0-.2.3-.2.4 0zM234.2 266.3l.5 1.5h1.5c.2 0 .3.3.1.4l-1.2.9.5 1.5c.1.2-.2.3-.3.2l-1.3-.9-1.3.9c-.2.1-.4 0-.3-.2l.5-1.5-1.2-.9c-.2-.1-.1-.4.1-.4h1.5l.5-1.5c.1-.2.3-.2.4 0zM259.8 288.9l-.5 1.5h-1.5c-.2 0-.3.3-.1.4l1.2.9-.5 1.5c-.1.2.2.3.3.2l1.3-.9 1.3.9c.2.1.4 0 .3-.2l-.5-1.5 1.2-.9c.2-.1.1-.4-.1-.4h-1.5l-.5-1.5c-.1-.1-.3-.1-.4 0zM266.7 286l-.5 1.5h-1.5c-.2 0-.3.3-.1.4l1.2.9-.5 1.5c-.1.2.2.3.3.2l1.3-.9 1.3.9c.2.1.4 0 .3-.2l-.5-1.5 1.2-.9c.2-.1.1-.4-.1-.4h-1.5l-.5-1.5c0-.2-.3-.2-.4 0zM272.3 280.9l-.5 1.5h-1.5c-.2 0-.3.3-.1.4l1.2.9-.5 1.5c-.1.2.2.3.3.2l1.3-.9 1.3.9c.2.1.4 0 .3-.2l-.5-1.5 1.2-.9c.2-.1.1-.4-.1-.4h-1.5l-.5-1.5c-.1-.2-.3-.2-.4 0zM276.1 274.2l-.5 1.5h-1.5c-.2 0-.3.3-.1.4l1.2.9-.5 1.5c-.1.2.2.3.3.2l1.3-.9 1.3.9c.2.1.4 0 .3-.2l-.5-1.5 1.2-.9c.2-.1.1-.4-.1-.4H277l-.5-1.5c-.1-.2-.3-.2-.4 0zM277.8 266.3l-.5 1.5h-1.5c-.2 0-.3.3-.1.4l1.2.9-.5 1.5c-.1.2.2.3.3.2l1.3-.9 1.3.9c.2.1.4 0 .3-.2l-.5-1.5 1.2-.9c.2-.1.1-.4-.1-.4h-1.5l-.5-1.5c-.1-.2-.3-.2-.4 0z"/><path class="st3" d="M246.4 280.4l.7 3.5h.3v-2.4s.5 1.7 1.3 2.4h.6c-.3-.4-.8-1.1-.8-1.9 0-1.1.9-1.2.9-2.4h.7v4.3h.4l.8-3.9s.7 2.4 1.9 3.9h.6c-.4-.6-1.2-2.1-1.1-4.4 0 0 1.2-.6 1.2-2.2V275c0-.4.3-.8.8-.8h.5s-.8-1.5-1.6-1.8v-1l-.6 1c-.6.1-1 .7-1 1.3v1.4c0 .4-.3.8-.8.8h-2.8c-.8 0-2.1.8-2.1 1.9s.8 1.7.8 1.7l-.7.9z"/><path class="st4" d="M258.8 276.8h-.3c-2 .1-3.1 1.4-3.1 1.4l2 2v3.8h2.4v-3.8l2-2c.2.1-1-1.2-3-1.4z"/><g><path class="st3" d="M263.1 270.5h.7v13.6h-.7z"/><path class="st3" d="M263.5 270.4l-4 4.8s-.5-2.3 1.8-4.6l-5.1.9s1.6-2.9 5.6-2.6l-4.2-3.5s3.6-.2 5.4 2.5c0 0 1-3.1 4-3.3l-2.4 3.7s2.4-1.2 5.7-.1l-5 1.3s2.8.3 3.9 4.3l-4.3-2.9s1.3 1.6.8 4.6l-2.2-5.1zM212.5 236.6l-9.7-4.9 7.1 8.9h3.9z"/></g><path d="M262.9 231l26.3-8.1-14-5.2c-2.5-.9-5.1-1.4-7.8-1.4h-2.6c-1.2 0-2.2 1-2.2 2.2v2.2h-13.3v-2.2c0-1.2-1-2.2-2.2-2.2h-2.6c-2.7 0-5.3.5-7.8 1.4l-14 5.2L249 231c1.3.4 1.9 1.9 1.3 3.1l-3.3 6.5h17.7l-3.3-6.5c-.4-1.2.2-2.7 1.5-3.1z" fill="#452c25"/><circle class="st3" cx="256" cy="222.9" r="4.4"/><path class="st4" d="M258.2 222.9c0 1.2-1 2.2-2.2 2.2h-8.9l3.8-3.8c.4-.4 1-.6 1.6-.6h3.5c1.2 0 2.2.9 2.2 2.2z"/></svg>