<?xml version="1.0" encoding="utf-8"?>
<!-- Generator: Adobe Illustrator 25.0.0, SVG Export Plug-In . SVG Version: 6.00 Build 0)  -->
<svg version="1.1" id="Layer_1" xmlns="http://www.w3.org/2000/svg" xmlns:xlink="http://www.w3.org/1999/xlink" x="0px" y="0px"
	 viewBox="0 0 512 512" style="enable-background:new 0 0 512 512;" xml:space="preserve">
<style type="text/css">
	.st0{fill:#012A87;}
	.st1{fill:#F9DA0E;}
	.st2{fill:#FFFFFF;}
	.st3{fill:#DC171D;}
	.st4{fill-rule:evenodd;clip-rule:evenodd;}
</style>
<polygon id="Path" class="st0" points="0,423.3 512,423.3 512,88 512,88 "/>
<polygon id="Path_1_" class="st1" points="250.4,88 0,88 0,88 0,252 "/>
<polygon class="st2" points="250.4,88 0,252 0,423.3 512,88 "/>
<g>
	<polygon id="Path_2_" class="st3" points="138.7,205 150.9,226.2 175.4,226.2 163.1,247.3 175.4,268.5 150.9,268.5 138.7,289.7 
		126.5,268.5 102,268.5 114.3,247.3 102,226.2 126.5,226.2 	"/>
	<path id="Combined-Shape" class="st4" d="M138.9,185c34.2,0,61.9,27.7,61.9,61.9s-27.7,61.9-61.9,61.9S77,281.2,77,246.9
		S104.7,185,138.9,185z M138.4,193c-29.5,0-53.4,23.9-53.4,53.4s23.9,53.4,53.4,53.4s53.4-23.9,53.4-53.4S168,193,138.4,193z"/>
</g>
</svg>
