<svg xmlns="http://www.w3.org/2000/svg" viewBox="0 0 512 512"><path fill="#012a87" d="M0 423.3h512V88z"/><path fill="#f9da0e" d="M250.4 88H0v164z"/><path fill="#fff" d="M250.4 88L0 252v171.3L512 88z"/><path fill="#dc171d" d="M138.7 205l12.2 21.2h24.5l-12.3 21.1 12.3 21.2h-24.5l-12.2 21.2-12.2-21.2H102l12.3-21.2-12.3-21.1h24.5z"/><path d="M138.9 185c34.2 0 61.9 27.7 61.9 61.9s-27.7 61.9-61.9 61.9S77 281.2 77 246.9s27.7-61.9 61.9-61.9zm-.5 8c-29.5 0-53.4 23.9-53.4 53.4s23.9 53.4 53.4 53.4 53.4-23.9 53.4-53.4S168 193 138.4 193z" fill-rule="evenodd" clip-rule="evenodd"/></svg>