<svg version="1.1" id="Layer_1" xmlns="http://www.w3.org/2000/svg" x="0" y="0" viewBox="0 0 512 512" xml:space="preserve"><style>.st3{fill:#fff}</style><path fill="#009b3a" d="M0 88h512v336H0z"/><path fill="#fedf00" d="M450.6 256l.3-.1h-.6L256 134.2 61.7 255.9h-.6l.3.1-.3.2h.6L256 377.9l194.3-121.7h.6z"/><circle cx="256" cy="256" r="70.6" fill="#002776"/><path class="st3" d="M195.4 219.9c-3.3 5.6-5.9 11.6-7.6 18.1 39.1-2.9 97.1 8 133.9 43.8 2.4-6.1 4-12.7 4.6-19.5-38.1-32.1-90.7-43.5-130.9-42.4zM258.9 280.1l1.9 5.6h5.9c.8 0 1.1 1 .5 1.4l-4.8 3.5 1.8 5.7c.2.7-.6 1.3-1.2.9l-4.8-3.5-4.8 3.5c-.6.4-1.5-.2-1.2-.9l1.8-5.7-4.8-3.5c-.6-.5-.3-1.4.5-1.4h5.9l1.9-5.6c.1-.7 1.2-.7 1.4 0zM282 294.7l.8 2.4h2.6c.3 0 .5.4.2.6l-2.1 1.5.8 2.4c.1.3-.3.6-.5.4l-2.1-1.5-2.1 1.5c-.3.2-.6-.1-.5-.4l.8-2.4-2.1-1.5c-.3-.2-.1-.6.2-.6h2.6l.8-2.4c.1-.3.5-.3.6 0zM248.9 269.4l.8 2.4h2.6c.3 0 .5.4.2.6l-2.1 1.5.8 2.4c.1.3-.3.6-.5.4l-2.1-1.5-2.1 1.5c-.3.2-.6-.1-.5-.4l.8-2.4-2.1-1.5c-.3-.2-.1-.6.2-.6h2.6l.8-2.4c.1-.3.5-.3.6 0zM204.1 266.4l.8 2.4h2.6c.3 0 .5.4.2.6l-2.1 1.5.8 2.4c.1.3-.3.6-.5.4l-2.1-1.5-2.1 1.5c-.3.2-.6-.1-.5-.4l.8-2.4-2.1-1.5c-.3-.2-.1-.6.2-.6h2.6l.8-2.4c.1-.3.5-.3.6 0zM241.6 293.8l.8 2.4h2.6c.3 0 .5.4.2.6l-2.1 1.5.8 2.4c.1.3-.3.6-.5.4l-2.1-1.5-2.1 1.5c-.3.2-.6-.1-.5-.4l.8-2.4-2.1-1.5c-.3-.2-.1-.6.2-.6h2.6l.8-2.4c.1-.3.5-.3.6 0zM221 264.8l.7 2h2.1c.3 0 .4.3.2.5l-1.7 1.2.6 2c.1.3-.2.5-.4.3l-1.7-1.2-1.7 1.2c-.2.2-.5-.1-.4-.3l.6-2-1.7-1.2c-.2-.2-.1-.5.2-.5h2.1l.7-2c-.1-.3.3-.3.4 0zM283.8 223.8l.8 2.5h2.6c.3 0 .5.4.2.6l-2.1 1.6.8 2.5c.1.3-.3.6-.5.4l-2.1-1.5-2.1 1.5c-.3.2-.6-.1-.5-.4l.8-2.5-2.1-1.6c-.3-.2-.1-.6.2-.6h2.6l.8-2.5c.1-.3.5-.3.6 0zM207 252.6l.7 2h2.1c.3 0 .4.3.2.5l-1.7 1.2.6 2c.1.3-.2.5-.4.3l-1.7-1.2-1.7 1.2c-.2.2-.5-.1-.4-.3l.6-2-1.7-1.2c-.2-.2-.1-.5.2-.5h2.1l.7-2c0-.2.3-.2.4 0zM217.1 280.6l1 3h3.2c.4 0 .6.5.2.8l-2.5 1.9 1 3c.1.4-.3.7-.7.5l-2.6-1.8-2.6 1.8c-.3.2-.8-.1-.7-.5l1-3-2.5-1.9c-.3-.2-.2-.8.2-.8h3.2l1-3c.1-.4.7-.4.8 0zM294.9 295.3l.6 1.9h2c.3 0 .4.3.2.5l-1.6 1.2.6 1.9c.1.2-.2.4-.4.3l-1.6-1.2-1.6 1.2c-.2.1-.5-.1-.4-.3l.6-1.9-1.6-1.2c-.2-.2-.1-.5.2-.5h2l.6-1.9c0-.2.3-.2.4 0zM301.9 280.9l.8 2.4h2.6c.3 0 .5.4.2.6l-2.1 1.5.8 2.4c.1.3-.3.6-.5.4l-2.1-1.5-2.1 1.5c-.3.2-.6-.1-.5-.4l.8-2.4-2.1-1.5c-.3-.2-.1-.6.2-.6h2.6l.8-2.4c0-.3.5-.3.6 0z"/></svg>