<?xml version="1.0" encoding="utf-8"?>
<!-- Generator: Adobe Illustrator 25.0.0, SVG Export Plug-In . SVG Version: 6.00 Build 0)  -->
<svg version="1.1" id="Layer_1" xmlns="http://www.w3.org/2000/svg" xmlns:xlink="http://www.w3.org/1999/xlink" x="0px" y="0px"
	 viewBox="0 0 512 512" style="enable-background:new 0 0 512 512;" xml:space="preserve">
<style type="text/css">
	.st0{fill:#009B3A;}
	.st1{fill:#FEDF00;}
	.st2{fill:#002776;}
	.st3{fill:#FFFFFF;}
</style>
<rect y="88" class="st0" width="512" height="336"/>
<polygon class="st1" points="450.6,256 450.9,255.9 450.3,255.9 256,134.2 61.7,255.9 61.1,255.9 61.4,256 61.1,256.2 61.7,256.2 
	256,377.9 450.3,256.2 450.9,256.2 "/>
<circle class="st2" cx="256" cy="256" r="70.6"/>
<g>
	<path class="st3" d="M195.4,219.9c-3.3,5.6-5.9,11.6-7.6,18.1c39.1-2.9,97.1,8,133.9,43.8c2.4-6.1,4-12.7,4.6-19.5
		C288.2,230.2,235.6,218.8,195.4,219.9z"/>
	<path class="st3" d="M258.9,280.1l1.9,5.6l5.9,0c0.8,0,1.1,1,0.5,1.4l-4.8,3.5l1.8,5.7c0.2,0.7-0.6,1.3-1.2,0.9l-4.8-3.5l-4.8,3.5
		c-0.6,0.4-1.5-0.2-1.2-0.9l1.8-5.7l-4.8-3.5c-0.6-0.5-0.3-1.4,0.5-1.4l5.9,0l1.9-5.6C257.6,279.4,258.7,279.4,258.9,280.1z"/>
	<path class="st3" d="M282,294.7l0.8,2.4l2.6,0c0.3,0,0.5,0.4,0.2,0.6l-2.1,1.5l0.8,2.4c0.1,0.3-0.3,0.6-0.5,0.4l-2.1-1.5l-2.1,1.5
		c-0.3,0.2-0.6-0.1-0.5-0.4l0.8-2.4l-2.1-1.5c-0.3-0.2-0.1-0.6,0.2-0.6l2.6,0l0.8-2.4C281.5,294.4,281.9,294.4,282,294.7z"/>
	<path class="st3" d="M248.9,269.4l0.8,2.4l2.6,0c0.3,0,0.5,0.4,0.2,0.6l-2.1,1.5l0.8,2.4c0.1,0.3-0.3,0.6-0.5,0.4l-2.1-1.5
		l-2.1,1.5c-0.3,0.2-0.6-0.1-0.5-0.4l0.8-2.4l-2.1-1.5c-0.3-0.2-0.1-0.6,0.2-0.6l2.6,0l0.8-2.4C248.4,269.1,248.8,269.1,248.9,269.4
		z"/>
	<path class="st3" d="M204.1,266.4l0.8,2.4l2.6,0c0.3,0,0.5,0.4,0.2,0.6l-2.1,1.5l0.8,2.4c0.1,0.3-0.3,0.6-0.5,0.4l-2.1-1.5
		l-2.1,1.5c-0.3,0.2-0.6-0.1-0.5-0.4l0.8-2.4l-2.1-1.5c-0.3-0.2-0.1-0.6,0.2-0.6l2.6,0l0.8-2.4C203.6,266.1,204,266.1,204.1,266.4z"
		/>
	<path class="st3" d="M241.6,293.8l0.8,2.4l2.6,0c0.3,0,0.5,0.4,0.2,0.6l-2.1,1.5l0.8,2.4c0.1,0.3-0.3,0.6-0.5,0.4l-2.1-1.5
		l-2.1,1.5c-0.3,0.2-0.6-0.1-0.5-0.4l0.8-2.4l-2.1-1.5c-0.3-0.2-0.1-0.6,0.2-0.6l2.6,0l0.8-2.4C241.1,293.5,241.5,293.5,241.6,293.8
		z"/>
	<path class="st3" d="M221,264.8l0.7,2l2.1,0c0.3,0,0.4,0.3,0.2,0.5l-1.7,1.2l0.6,2c0.1,0.3-0.2,0.5-0.4,0.3l-1.7-1.2l-1.7,1.2
		c-0.2,0.2-0.5-0.1-0.4-0.3l0.6-2l-1.7-1.2c-0.2-0.2-0.1-0.5,0.2-0.5l2.1,0l0.7-2C220.5,264.5,220.9,264.5,221,264.8z"/>
	<path class="st3" d="M283.8,223.8l0.8,2.5l2.6,0c0.3,0,0.5,0.4,0.2,0.6l-2.1,1.6l0.8,2.5c0.1,0.3-0.3,0.6-0.5,0.4l-2.1-1.5
		l-2.1,1.5c-0.3,0.2-0.6-0.1-0.5-0.4l0.8-2.5l-2.1-1.6c-0.3-0.2-0.1-0.6,0.2-0.6l2.6,0l0.8-2.5C283.3,223.5,283.7,223.5,283.8,223.8
		z"/>
	<path class="st3" d="M207,252.6l0.7,2l2.1,0c0.3,0,0.4,0.3,0.2,0.5l-1.7,1.2l0.6,2c0.1,0.3-0.2,0.5-0.4,0.3l-1.7-1.2l-1.7,1.2
		c-0.2,0.2-0.5-0.1-0.4-0.3l0.6-2l-1.7-1.2c-0.2-0.2-0.1-0.5,0.2-0.5l2.1,0l0.7-2C206.6,252.4,206.9,252.4,207,252.6z"/>
	<path class="st3" d="M217.1,280.6l1,3l3.2,0c0.4,0,0.6,0.5,0.2,0.8l-2.5,1.9l1,3c0.1,0.4-0.3,0.7-0.7,0.5l-2.6-1.8l-2.6,1.8
		c-0.3,0.2-0.8-0.1-0.7-0.5l1-3l-2.5-1.9c-0.3-0.2-0.2-0.8,0.2-0.8l3.2,0l1-3C216.4,280.2,217,280.2,217.1,280.6z"/>
	<path class="st3" d="M294.9,295.3l0.6,1.9l2,0c0.3,0,0.4,0.3,0.2,0.5l-1.6,1.2l0.6,1.9c0.1,0.2-0.2,0.4-0.4,0.3l-1.6-1.2l-1.6,1.2
		c-0.2,0.1-0.5-0.1-0.4-0.3l0.6-1.9l-1.6-1.2c-0.2-0.2-0.1-0.5,0.2-0.5l2,0l0.6-1.9C294.5,295.1,294.8,295.1,294.9,295.3z"/>
	<path class="st3" d="M301.9,280.9l0.8,2.4l2.6,0c0.3,0,0.5,0.4,0.2,0.6l-2.1,1.5l0.8,2.4c0.1,0.3-0.3,0.6-0.5,0.4l-2.1-1.5
		l-2.1,1.5c-0.3,0.2-0.6-0.1-0.5-0.4l0.8-2.4l-2.1-1.5c-0.3-0.2-0.1-0.6,0.2-0.6l2.6,0l0.8-2.4C301.3,280.6,301.8,280.6,301.9,280.9
		z"/>
</g>
</svg>
