<?xml version="1.0" encoding="utf-8"?>
<!-- Generator: Adobe Illustrator 25.0.0, SVG Export Plug-In . SVG Version: 6.00 Build 0)  -->
<svg version="1.1" id="Layer_1" xmlns="http://www.w3.org/2000/svg" xmlns:xlink="http://www.w3.org/1999/xlink" x="0px" y="0px"
	 viewBox="0 0 512 512" style="enable-background:new 0 0 512 512;" xml:space="preserve">
<style type="text/css">
	.st0{fill:#FF4E12;}
	.st1{fill:#FFD520;}
	.st2{fill:#FFF5DC;}
	.st3{fill:#FF6E55;}
	.st4{fill:#FFFFFF;}
</style>
<polygon class="st0" points="512,424 0,424 512,88 "/>
<polygon class="st1" points="0,424 0,88 512,88 "/>
<g>
	<path class="st2" d="M281.5,178c-4.4,0.9-11.4-1.4-11.4-1.4c1.4,2.5,5.3,4.1,8.7,5.2c-2.8,0.3-6,0.4-9.5,0.4
		c-14.3-0.3-20.9,9-20.9,9c5.1-3.2,10.3-3.2,18.1-2.1c7.8,1.1,24.2-3.8,24.2-3.8l1.4-6.3C292.1,179,286,177.1,281.5,178z"/>
	<path class="st2" d="M296.2,148.3c0,0,7.4,1.6,14.9,5.9c-0.5,0.2-0.9,0.5-1.3,0.9c-2.4-1.2-5.3-2.2-9.1-2.6c0,0,3.9,1,7.7,4
		c-1,1.1-1.8,2.5-2.4,3.6c-8.3-8.9-17.2-3-17.2-3c11.1-0.8,13.7,6.3,14.4,9.7c-2.2-1.4-4.2-2.6-6.1-3.6c0.3-0.2,0.4-0.4,0.7-0.6
		c0,0-0.7,0-1.7,0.2c-14.2-6.8-21.1-1.4-21.1-1.4c6.3-0.8,12.1,0.9,16.7,2.9c-2,1.2-3.4,3.2-2.3,6.7c-8-2.2-18-4.3-22.9-3
		c-8.9,2.4-6,10.6-6,10.6s0.2-5.5,6.2-6.8c4.5-0.9,26.9,6.2,26.9,6.2l7.3-3.5l-3-2.5c0,0-5.8-2.3-3.3-6.3c4.1,2.2,6.8,4.4,6.8,4.4
		l1.8-2.6c0.1,0.7,0.1,1.2,0.1,1.2l5.1-2.2l1.1-1.6c0.4-2.4,1.2-4.1,2-5.4c1.5,1.8,2.7,4.1,3.3,6.9l4.6,0.5c0,0-0.7-5.3-5.9-9.5
		c0.5-0.3,0.9-0.6,1.3-0.8c3.4,2.4,6.5,5.5,8.7,9.3l8.5-0.1C332,165.8,318,150.2,296.2,148.3z"/>
	<circle class="st2" cx="377" cy="223.2" r="10.6"/>
	<circle class="st2" cx="352.3" cy="312.5" r="14.2"/>
	<circle class="st2" cx="243.7" cy="305.6" r="11.3"/>
	<circle class="st2" cx="217.8" cy="359.2" r="13"/>
	<path class="st2" d="M341.9,195.5c0,0,24.4,8.7,30.3,11.6c8.3,4.2,21.4-8,30.5,1.4c0,0-1.6-6.3-9.2-6.7c0,0,0.2-6.2-7-5.9
		c0,0,5.2,3.8,2.2,6.5c0,0-2.1-4.6-7.9-3.8c0,0,4.4,1.7,3.3,4.4c0,0-7,3.4-10.2,1.2c-3.2-2.2-28.2-15.7-36.1-16L341.9,195.5z"/>
</g>
<g>
	<path class="st2" d="M373.7,187.4l-10,3.3c0,0,1.1,6.8-4.6,9.7c-3.5,1.8-5.9,6.6-5.7,10.1c0,0,3.3-4.6,8.1-7.1
		c1.1-0.6,2.2-1.1,3.1-1.7c-0.2,2.4-0.2,4.9,0.1,7c1,6.5-1.1,8.7-1.1,8.7s5.5-4.3,4.9-11.2c-0.2-2.7,0.2-4.6,0.9-6
		c0.5,4.9,3.1,7.1,3.1,7.1c-1.9-3.8,2.1-7.9,3.6-11.2C377.7,192.8,373.7,187.4,373.7,187.4z"/>
	<path class="st2" d="M398.9,173.6c-3.9-1.3-7.7,1.1-10,3.1c-1,0.9-3.5,1.3-6.1,1.5c1.7-1.2,3.6-2.7,4.5-3.9
		c2.1-2.7,6.1-3.2,9.4-4.3c3.3-1.1,4.8-5.3,4.8-5.3s-1.8,2.6-6.8,2.4c-5-0.2-6.7-0.5-10,3.1c-1,1.1-2.5,1.9-3.9,2.6
		c0-1.6,0.2-3.5,0.6-4.9c0.8-2.5,4.6-4.5,4.9-9.5c0.2-5,0.5-4.5,3.3-7.5c2.9-3,3.7-8.6,2.9-6.8s-4.6,3.9-7.8,6.9s-1,6.3-2.6,8.9
		c-1.7,2.6-5.6,3.2-5.8,8.1c-0.2,4.9-3.7,7.7-3.7,7.7s-8.4,4.6,1.7,8.3c10.1,3.7,18.3-6.6,23.3-6.3c11.2,0.6,14.1-3.1,14.1-3.1
		C409.7,174.7,404.9,175.6,398.9,173.6z"/>
	<path class="st2" d="M276.5,251.8c-0.6-0.5-11.6-12.5-15.2-14.3l0.8,3c0,0-2.4-0.2-6.7-5.4s-7.4-6.7-7.4-6.7s3,4.8,2.9,7.8
		c0,0-6.5-0.5-13.5,2.9c0,0-3.2-6.2-5.9-7.3c0,0,0.9,6.5-1.3,8.1c-2.2,1.6,20.9,12.5,24.1,12.8C257.4,253.1,276.5,251.8,276.5,251.8
		z"/>
	<path class="st2" d="M290.9,228.2c-0.2-0.1-1.4,0.8-2.9,1.8c-0.7-3.8-2-11.6-2-12c0-0.5-10.8-15.5-11.1-16.2c0,0,0,0,0,0
		c1-2.5,2.2-6.8-4.2-3.5c-8.7,4.6-12.2,15.2-12.2,15.2c2-2.1,5.5-3.7,8.2-4.7c0.1,1.3,0.1,2.8-1.7,5.5c-3.6,5.4-1.6,7.4-1.6,7.4
		c2.9-4.9,9.2-5.4,9.2-5.4c-1,5.9,2.4,9.2,2.4,9.2l2.7-3.2c-0.3,4.5,2.1,9.4,3.6,12c-0.6,0.3-1.1,0.5-1.5,0.6c-2.7,0.3-7,2.4-7,2.4
		s3.5-0.7,5.4,0.8c2,1.5,5.1,2.7,6.8,2.3c0,0-0.8,4.1,0.1,5.6c0,0-2.2-0.6-4.8-0.5c-2.6,0.1-4.5-1.7-4.5-1.7s4.8,6.8,8.2,8.2
		s9.5-3.8,9.5-3.8S291.5,228.4,290.9,228.2z"/>
	<path class="st2" d="M209,327.6c0,0-3,0.3-5.9,4.6l-1.3-4.4c0,0-3.5,2.5-7.3,1c0,0,3.5-0.8,4.1-4s1.9-3.5,1.9-3.5s-2.4-2.5-4.9-2.4
		c0,0,7-3.6,10.8-0.2C210.2,322.2,209,327.6,209,327.6z"/>
	<path class="st2" d="M292.8,292.6c0,0-3,0.3-5.9,4.6l-1.3-4.4c0,0-3.5,2.5-7.3,1c0,0,3.5-0.8,4.1-4c0.6-3.2,1.9-3.5,1.9-3.5
		s-2.4-2.5-4.9-2.4c0,0,7-3.6,10.8-0.2C294,287.2,292.8,292.6,292.8,292.6z"/>
	<path class="st2" d="M344.1,247.5c0,0-1.5,2.6,0.4,7.4l-4.4-1.5c0,0,0.1,4.3-3.4,6.5c0,0,1.4-3.3-0.9-5.6c-2.2-2.3-1.8-3.6-1.8-3.6
		s-3.4,0.5-4.8,2.7c0,0,1-7.8,6.1-8.9C340.5,243.4,344.1,247.5,344.1,247.5z"/>
</g>
<path class="st3" d="M359.4,301l3.1,1.8C361.6,302.1,360.5,301.5,359.4,301z"/>
<path class="st2" d="M186.5,316.3c0,0-14.1,19.8-30.3,24.1l5.7-7.3c0,0-7.6,6.7-16.2,8.1l10.3-11.9c0,0-23,21.4-52.4,25.8
	c0,0,22.8-14.4,27.4-19.5c0,0-11.1,4.4-21.1,4.6c0,0,28.7-11.1,33.4-15.5c0,0-11.4,2.5-18.5,0.2c0,0,24.7-7.1,28.2-6.2
	c0,0-14.3-5.7-22.8-5.1c0,0,14.6-3.5,31.5,0l-3.6-4c0,0,9.7-2.5,19.2-3.2c9.5-0.6,4.8-1.4,4.8-1.4l1.1-3.2c0,0-6.2,0.8-11.2,0
	c0,0,15.2-8.6,19.5-12.4c4.3-3.8,1.4-2.1,1.4-2.1s-7.9,2.7-10.8,3.2c0,0,7.1-8.2,9.3-13.6c0,0-6.5,2.5-12,0c0,0,6.7-1.9,10-5.2
	c3.3-3.3,8.2-11.6,8.2-11.6l-5.7,2.5c0,0,5-8.6,9.4-10.7c0,0-7.5,0.6-9.9-1.2c0,0,8-1.9,10.3-3.8c2.4-1.9,7.6-6.9,12.9-5
	c0,0,7.5-6.9,5-11.4c0,0,4.9,0.4,7.4,3.3c2.5,3,6.4,5.5,6.4,5.5l-20.4,15.9l-15.5,50.4L186.5,316.3z"/>
<path class="st4" d="M385.9,221.3c5.9,9.5-1.4,10.5-1.4,10.5c-1.1-9-8.7-7.9-8.7-7.9l2.1,6.7c-12.7,1.6-11.7-11.1-11.7-11.1
	c-1.9,1.6-5.1,8.1-5.1,8.1s-29.3,9.7-51.9-15.6c5.7,0.2,10.1-6.4,18.8-6.1c3.8,0.1,6.6-0.8,8.8-2.3c1.9,0.9,6.2,3.3,11.7,9.1
	c3.5,3.7,12.6,3.9,11.2-3.2c-1.2-5.8-12.8-9.7-18.3-11c0.9-1.6,1.7-3.2,2.5-4.9c2.9-6.3,11.3-4,16-1.3c9.5,5.5,12.5,1.4,13.9-4.8
	c1.4-6.2,7-7.9,5.1-12.4c-1.9-4.4-16.5-1.4-23.8-3c-7.3-1.6-10.8-8.6-17.6-9c-6.8-0.5-9.2,3.2-23.3,2.1
	c-14.1-1.1-24.2,14.4-24.2,14.4l-0.7,6.1l-16.9,2.3c0,0-7.3,16.5,1.6,26.6c8.9,10.1,19.3,24.4,17.4,31c-1.1,3.9-4.5,5.5-9.1,5.2
	c-3.2-0.2-7-1.4-11.1-3.3c-10.1-4.8-34.8-14.9-52.6-6.7c-17.7,8.2-19.7,22.5-23.1,33.6c-3.1,9.8-9.9,34.9-58.3,57.8
	c-2.3,1.1-1.1,4.6,1.3,4c21-5.2,49.6-13.9,58.5-24.2l7.1,0.2l-2.6,10.9c0,0,9.3,2.9,10.7,16.4c0,0-16.2,4.4-7,18.4
	c0,0,1.4-10.1,12.7-10.6c0,0,2.5,3.3,8.1,3.8c0,0,2.9,4.6,1.4,8.4c0,0,11.2-3.5,1.7-17c0,0,10.6-2.5,12,10.8c0,0,6.8-21.5-17.5-20
	c0,0,0-3.8-6.4-10.7c0,0-1.6-3.9,0-9.3c0.5-1.6,0.9-3.3,1.3-5c1.3,0.7,3.4,1.6,6,1.7c0,0,4,6.5,15.7,5.4c0,0-8.6-4-7.8-11.6
	c0.8-7.6,10.8-11.7,15-8.7c0,0-1.1-10-16.6-3.5c0,0,0-7.4,8.2-7.9c0,0-13.3-10.1-16.3,9.2l-5.5,1.4c-2.7-7.5-6.1-24.8,9-31.1
	c15.9-6.7,32.6,8.3,62,9.7c0,0-2.9,17.3,6.7,21.6c9.5,4.3,32.8,8.3,32.8,8.3c-0.2,25,18,21.7,18,21.7c-8.8-5.3-8.8-15.4-3.4-21.3
	c7.4-8,20.3-0.4,20.3-0.4c-0.2-12.2-17.3-10.3-17.3-10.3c2.7-7.9,13.3-10,13.3-10c-14.7-5.4-26.9,10.5-26.9,10.5l-24.9-7.1
	c0,0-1-5,5-11.6c5.9-6.7,10.9-17.8,9.3-29.7c0,0,6.9-4.8,15.4-0.1c8.6,4.8,26.9-5.7,26.9-5.7c7.9,10.1,26.8,8.2,29.3-4
	C395.1,222.7,385.9,221.3,385.9,221.3z M303.7,205c0,0-0.6-6,1.3-8.9c0,0,0,0,0,0c3.5-3.3,15.2-4,15.2-4l0.6,5.7
	c0,0-5.1,5.5-6.3,8.6c-0.9,2.1-4.3,3.7-6.2,4.5C306.7,209.1,305.2,207.1,303.7,205z"/>
<g>
	<path class="st2" d="M318.6,188.2c0,0-6.8,4.6-12.5,2.7c-5.7-1.9-10.8-1.3-16.6,0.6c0,0,10.8-1.3,15.2,2.9s15.7,1.4,16.5-0.3
		L318.6,188.2z"/>
	<path class="st2" d="M322.1,198.8c0,0-6.7,4.8-13.3,3.5c-6.7-1.3-12.7,1.4-12.7,1.4s4.9-5.4,11.6-4.4c6.7,0.9,9-5.5,9-5.5l4.4,0.3
		L322.1,198.8z"/>
	<circle class="st2" cx="327.5" cy="192.9" r="8.9"/>
	<path class="st2" d="M322.2,186.3c0,0-3.5-4.4-12.2-2.7c-8.7,1.7-10.8-1.4-10.8-1.4s4.1,6.3,10.6,5.5c6.5-0.8,9.2,3.6,9.2,3.6
		L322.2,186.3z"/>
	<path class="st2" d="M351.5,175.2c0.8-1.1,1.8-2.1,3.1-2.9c0.8-0.5,1.6-0.8,2.4-1c0.2-1.2,0-2.5-0.7-3.7c-1.5-2.6-4.6-3.5-7-2.2
		c-2.3,1.4-3,4.6-1.5,7.1C348.7,174,350.1,174.9,351.5,175.2z"/>
	<path class="st2" d="M343.8,185.4c0.4-1.3,1.1-2.5,2.2-3.7c0.6-0.7,1.3-1.2,2-1.6c-0.2-1.2-0.7-2.4-1.7-3.3c-2.2-2-5.4-2.1-7.3-0.1
		c-1.9,2-1.6,5.2,0.5,7.3C340.7,185,342.3,185.5,343.8,185.4z"/>
</g>
</svg>
