<svg version="1.1" id="Layer_1" xmlns="http://www.w3.org/2000/svg" x="0" y="0" viewBox="0 0 512 512" xml:space="preserve"><style>.st1{fill:#c8313e}</style><path fill="#fff" d="M0 88.3h70.6v336H0z"/><path class="st1" d="M70.6 88.3H512v247H70.6z"/><path fill="#4aa657" d="M70.6 335.3H512v89H70.6z"/><path class="st1" d="M8.8 409.1H12v-8.8H8.8v8.8zm25 0h3.1v-8.8h-3.1v8.8zm24.9 0h3.1v-8.8h-3.1v8.8zm-37.4-23.5h3.1v-7.3h-3.1v7.3zm24.9 0h3.1v-7.3h-3.1v7.3zm-37.4-19H12v-8.8H8.8v8.8zm25 0h3.1v-8.8h-3.1v8.8zm24.9 0h3.1v-8.8h-3.1v8.8zm-43.6 11.7h3.1V371h3.1v-7.3h3.1v7.3h3.1v7.4h3.1v7.3h-3.1v7.4h-3.1v7.4h-3.1V393h-3.1v-7.4h-3.1v-7.3zm24.9 0h3.1V371h3.1v-7.3h3.1v7.3h3.1v7.4h3.1v7.3h-3.1v7.4h-3.1v7.4h-3.1V393h-3.1v-7.4H40v-7.3zm6.2-29.3v7.3h-3.1v7.4H40v7.3h-3.1v7.4h-3.1V371h-3.1v-7.3h-3.1v-7.4h-3.1V349h-3.1v7.3h-3.1v7.4h-3.1v7.3H12v7.4H8.8v7.3H12v7.4h3.1v7.4h3.1v7.3h3.1v7.3h3.1v-7.3h3.1v-7.3h3.1V393h3.1v-7.4h3.1v7.4H40v7.4h3.1v7.3h3.1v7.3h3.1v-7.3h3.1v-7.3h3.1V393h3.1v-7.4h3.1v-7.3h-3.1V371h-3.1v-7.3h-3.1v-7.4h-3.1V349h-3.1zm7.8-7.3h1.6v-2.9h1.6v2.9h1.6v2.9h-1.6v3h-1.6v-3H54v-2.9zm0-10.2v4.3h-1.5v4.4h-1.6v5.8h1.6v4.4H54v4.4h4.7v-4.4h1.6V346h1.5v-5.8h-1.5v-4.4h-1.6v-4.3H54zm-42 10.2h1.6v-2.9h1.6v2.9h1.5v3h-1.5v2.9h-1.6v-2.9H12v-3zm0-10.2v4.4h-1.6v4.4H8.8v5.9h1.6v4.4H12v4.4h4.7v-4.4h1.6v-4.4h1.5v-5.9h-1.5v-4.4h-1.6v-4.4H12zm17.1 10.2h1.5v-2.9h1.6v2.9h1.5v3h-1.5v2.9h-1.6v-2.9h-1.5v-3zm7.8 0h1.6v-2.9H40v2.9h1.5v3H40v2.9h-1.6v-2.9h-1.6v-3zm0-10.2v4.4h-3.1v-4.4h-4.7v4.4h-1.6v4.4H26v5.9h1.6v4.4h1.6v4.4h4.7v-4.4H37v4.4h4.7v-4.4h1.6v-4.4h1.5v-5.9h-1.5v-4.4h-1.6v-4.4h-4.8zm-28.1-3H12v-8.7H8.8v8.7zm25 0h3.1v-8.7h-3.1v8.7zm24.9 0h3.1v-8.7h-3.1v8.7zM8.8 291.9H12v-5.8H8.8v5.8zm49.9 0h3.1v-5.8h-3.1v5.8zm-24.9-20.5h3.1v-7.3h-3.1v7.3zm-25-19.8v8.9H12v-8.9H8.8zm17.2 0v8.9h3.1v-8.9H26zm15.5 0v8.9h3.1v-8.9h-3.1zm17.2 0v8.9h3.1v-8.9h-3.1zm-20.3-5.1v2.9h-1.6v2.2h-3.1v-2.2h-1.5v-2.9h-3.1v4.4h1.5v2.2h1.6v5.9h-1.6v2.2h-1.5v4.4h3.1v-2.9h1.5v-2.2h3.1v2.2h1.6v2.9h3.1v-4.4H40V259h-1.6v-5.9H40v-2.2h1.5v-4.4h-3.1zm-4.6 1.4h3.1v-7.3h-3.1v7.3zM8.8 226H12v-5.8H8.8v5.8zm49.9 0h3.1v-5.8h-3.1v5.8zM8.8 192.3H12v-8.8H8.8v8.8zm25 0h3.1v-8.8h-3.1v8.8zm24.9 0h3.1v-8.8h-3.1v8.8zm-37.4 63.8V253h3.1v-5h3.1v-5.9h4.7v-6.9h1.5v-3.4h3.2v3.3h1.6v7h4.7v5.9h3.1v5.1h3.1v5.8h-3.1v5.2h-3.1v5.8h-4.7v6.9h-1.6v3.3h-3.2v-3.3h-1.5v-6.9h-4.7v-5.8h-3.1v-5.2h-3.1v-2.8zm24.9-81.4v7.4h-3.1v7.3H40v7.4h-3.1v7.3h-3.1v-7.3h-3.1v-7.4h-3.1v-7.3h-3.1v-7.4h-3.1v7.4h-3.1v7.3h-3.1v7.4H12v7.3H8.8v7.4H12v7.4h3.1v7.3h3.1v7.3h3.1V226h3.1v-7.3h3.1v-7.4h-3.1v-8.8h3.1v5.9h3.1v11.7h1.6v7.2l-4.7.1v5.8h-3.1v4.4h-3.1v7.4h-3.1v-7.4h-3.1v-4.4H12v-4.4H8.8V242H12v5.9h3.1v5.1h3.1v5.9h-3.1v5.2H12v5.8H8.8v13.2H12v-4.4h3.1v-4.4h3.1V267h3.1v7.3h3.1v4.4h3.1v5.9l4.7.1v7.2h-1.6v11.7h-3.1v5.9h-3.1v-8.9h3.1v-7.3h-3.1V286h-3.1v-7.4h-3.1v7.4h-3.1v7.3H12v7.3H8.8v7.4H12v7.3h3.1v7.4h3.1v7.4h3.1v7.3h3.1V330h3.1v-7.4h3.1v-7.4h3.1V308h3.1v7.3H40v7.4h3.1v7.4h3.1v7.3h3.1V330h3.1v-7.4h3.1v-7.4h3.1V308h3.1v-7.4h-3.1v-7.3h-3.1V286h-3.1v-7.4h-3.1v7.4h-3.1v7.3h-3.1v7.3h3.1v8.9h-3.1v-5.9H40v-11.7h-1.5v-7.3h4.6v-5.9h3.1v-4.4h3.1V267h3.1v7.3h3.1v4.4h3.1v4.4h3.1v-13.2h-3.1v-5.8h-3.1v-5.2h-3.1v-5.8h3.1V248h3.1v-5.9h3.1v-13.2h-3.1v4.4h-3.1v4.4h-3.1v7.4h-3.1v-7.4h-3.1v-4.4h-3.1v-5.8h-4.6v-7.3H40v-11.7h3.1v-6h3.1v8.9h-3.1v7.4h3.1v7.3h3.1v7.3h3.1V226h3.1v-7.3h3.1v-7.4h3.1V204h-3.1v-7.3h-3.1v-7.4h-3.1V182h-3.1v-7.4l-3.1.1zM12 167.4h1.5v-2.9h1.6v2.9h1.5v2.9h-1.5v3h-1.6v-3H12v-2.9zm0-5.9h-1.6v4.4H8.8v5.8h1.6v4.4H12v4.4h4.7v-4.4h1.6v-4.4h1.5V166h-1.5v-4.4h-1.6v-4.3H12v4.2zm17.1 5.9h1.5v-2.9h1.6v2.9h1.5v2.9h-1.5v3h-1.6v-3h-1.5v-2.9zm7.8 0h1.6v-2.9H40v2.9h1.5v2.9H40v3h-1.6v-3h-1.6v-2.9zm-7.8-5.9h-1.6v4.4H26v5.8h1.6v4.4h1.6v4.4h4.7v-4.4H37v4.4h4.7v-4.4h1.6v-4.4h1.5V166h-1.5v-4.4h-1.6v-4.3H37v4.3h-3.1v-4.3h-4.7v4.2zm24.9 5.9h1.6v-2.9h1.6v2.9h1.6v3h-1.6v2.9h-1.6v-2.9H54v-3zm0-10.2v4.4h-1.5v4.4h-1.6v5.8h1.6v4.4H54v4.4h4.7v-4.4h1.6v-4.4h1.5V166h-1.5v-4.4h-1.6v-4.4H54zm-45.2-3H12v-8.8H8.8v8.8zm25 0h3.1v-8.8h-3.1v8.8zm24.9 0h3.1v-8.8h-3.1v8.8zm-37.4-20.4h3.1v-7.4h-3.1v7.4zm24.9 0h3.1v-7.4h-3.1v7.4zm-37.4-22H12V103H8.8v8.8zm25 0h3.1V103h-3.1v8.8zm24.9 0h3.1V103h-3.1v8.8zm-43.6 14.6h3.1v-7.3h3.1v-7.4h3.1v7.4h3.1v7.3h3.1v7.4h-3.1v7.3h-3.1v7.4h-3.1V141h-3.1v-7.3h-3.1v-7.3zm24.9 0h3.1v-7.3h3.1v-7.4h3.1v7.4h3.1v7.3h3.1v7.4h-3.1v7.3h-3.1v7.4h-3.1V141h-3.1v-7.3H40v-7.3zm6.2-29.3v7.4h-3.1v7.3H40v7.4h-3.1v7.3h-3.1v-7.3h-3.1v-7.4h-3.1v-7.3h-3.1v-7.4h-3.1v7.4h-3.1v7.3h-3.1v7.4H12v7.3H8.8v7.4H12v7.3h3.1v7.4h3.1v7.4h3.1v7.3h3.1V156h3.1v-7.4h3.1V141h3.1v-7.3h3.1v7.3H40v7.4h3.1v7.4h3.1v7.3h3.1v-7.3h3.1v-7.4h3.1V141h3.1v-7.3h3.1v-7.4h-3.1V119h-3.1v-7.4h-3.1v-7.3h-3.1v-7.4c0 .2-3.1.2-3.1.2z"/></svg>