<svg version="1.1" id="Layer_1" xmlns="http://www.w3.org/2000/svg" x="0" y="0" viewBox="0 0 512 512" xml:space="preserve"><style>.st0{fill:#ce1126}.st3{fill:#9dd7ff}.st4{fill:#965032}.st5{fill:#289400}.st6{fill:#be7855}.st7{fill:#ffd83c}.st8{fill:#eaf3f5}.st9{fill:#464655}.st10{fill:#8c5a28}.st11{fill:#f5f5f5}.st12{fill:#ff4b55}</style><path class="st0" d="M0 88.6h512v35H0z"/><path fill="#003f87" d="M0 123.6h512v266H0z"/><path class="st0" d="M0 389.6h512v35H0z"/><circle cx="256" cy="256" r="114.8" fill="#fff"/><path class="st3" d="M234 316.3l-17.7 3c-2.2.4-4.3-1.3-4.3-3.6V309h22v7.3zM277.9 316.3l17.7 3c2.2.4 4.3-1.3 4.3-3.6V309h-22v7.3z"/><path class="st4" d="M252.3 197.2h-1.5c-1.8 0-3.5-1-4.3-2.7l-2.7-5.4 2.5-1.2 2.7 5.4c.4.7 1.1 1.1 1.9 1.1h1.5v2.8z"/><path transform="rotate(-26.565 224.978 196.746)" class="st4" d="M223.6 191.7h2.7v10.1h-2.7z"/><path class="st4" d="M261 239.5l-7.5-7.5c-1.6-1.6-2.6-3.9-2.6-6.2v-2.5c0-.9-.2-1.9-.6-2.7l-1.9-3.7c-.4-.8-1.2-1.3-2-1.3h-6.5c-1.9 0-3.6-1.1-4.5-2.8l-2.6-5.3 2.5-1.2 2.6 5.3c.4.8 1.2 1.3 2 1.3h6.5c1.9 0 3.6 1.1 4.5 2.8l1.9 3.7c.6 1.2.9 2.6.9 3.9v2.5c0 1.6.6 3.1 1.8 4.2l2.8 2.8V220c0-3.5-1.2-6.9-3.4-9.6-2.6-3.2-4-7.2-4-11.3v-10.6h2.7v10.6c0 3.5 1.2 6.9 3.4 9.6 2.6 3.2 4 7.2 4 11.3v19.5z"/><path class="st4" d="M254.4 232.4h-4.1c-2.5 0-4.8-1.6-5.7-3.9l-1-2.8 2.6-1 1 2.8c.5 1.3 1.7 2.1 3.1 2.1h4.1v2.8z"/><path transform="rotate(-66.203 259.214 202.41)" class="st4" d="M240.1 201h38.3v2.7h-38.3z"/><path class="st4" d="M272 215.6h-13.3v-2.8h10.5v-13.3h2.8z"/><path class="st5" d="M246.8 228.8h-11c-3 0-5.5-2.5-5.5-5.5s2.5-5.5 5.5-5.5h11c3 0 5.5 2.5 5.5 5.5 0 3.1-2.5 5.5-5.5 5.5zM272.4 228.8h-11c-3 0-5.5-2.5-5.5-5.5s2.5-5.5 5.5-5.5h11c3 0 5.5 2.5 5.5 5.5 0 3.1-2.4 5.5-5.5 5.5zM283.4 217.8h-14.6c-3 0-5.5-2.5-5.5-5.5s2.5-5.5 5.5-5.5h14.6c3 0 5.5 2.5 5.5 5.5 0 3.1-2.5 5.5-5.5 5.5zM287.1 203.2h-25.6c-3 0-5.5-2.5-5.5-5.5s2.5-5.5 5.5-5.5h25.6c3 0 5.5 2.5 5.5 5.5s-2.5 5.5-5.5 5.5zM272.4 188.6h-7.3c-3 0-5.5-2.5-5.5-5.5s2.5-5.5 5.5-5.5h7.3c3 0 5.5 2.5 5.5 5.5s-2.4 5.5-5.5 5.5zM224.8 195.9h-3.7c-3 0-5.5-2.5-5.5-5.5s2.5-5.5 5.5-5.5h3.7c3 0 5.5 2.5 5.5 5.5s-2.4 5.5-5.5 5.5zM250.5 192.2h-11c-3 0-5.5-2.5-5.5-5.5s2.5-5.5 5.5-5.5h11c3 0 5.5 2.5 5.5 5.5-.1 3.1-2.5 5.5-5.5 5.5zM246.8 210.5h-22c-3 0-5.5-2.5-5.5-5.5s2.5-5.5 5.5-5.5h22c3 0 5.5 2.5 5.5 5.5 0 3.1-2.5 5.5-5.5 5.5zM310.9 287.1H201c-4 0-7.3 3.3-7.3 7.3s3.3 7.3 7.3 7.3h29.3c0 4 3.3 7.3 7.3 7.3h36.6c4 0 7.3-3.3 7.3-7.3h29.3c4 0 7.3-3.3 7.3-7.3.1-4.1-3.2-7.3-7.2-7.3z"/><path class="st6" d="M328.9 222.1c-.3-.6-1.7.1-2.6-.2-11.1-4.1-25.9-11.6-35.6-16.7l-1.9-3.1-18.4-8.9c-1.2-.6-2.6-.1-3.2 1l-.9 1.6c-.7 1.2-.2 2.8 1 3.4l17.5 9.1 5-.4 19.2 9.9s13.1 6.7 13.8 7.2 1.1 3.2 2.4 3c.9-.2 4.9-3.6 3.7-5.9z"/><path class="st7" d="M207.6 292.5s1.2 5.4.1 6c-1.1.6-7.2.6-7.1-.7.2-1.3 1-5.9 1-5.9l6 .6zM217.7 289.6s-1 4 1 4.2c2 .2 13.2.1 13.5-.2s.7-1.1.7-1.1l-10.4-2.9h-4.8z"/><path class="st8" d="M206.4 239.2s-2.7 6.5-3.7 28.9c-.3 6 .5 4.6-2.5 23.8l3.5 1.8c1 .5 2.3.5 3.3-.1l3.4-2.1s-1.7-21.5 3.8-33.9c0 0 2.9 5.3 2.9 9.3 0 4-.2 23-.2 23s6.4 1.1 9.3.8c0 0-1.8-41.4-3.7-51.1l-16.1-.4z"/><path class="st4" d="M206.9 236.5s-1.1.8-.5 2.7c0 0 8.4 3.6 16.2.5 0 0 .9-1.3-.2-2.8l-15.5-.4zM195.7 216.7c-4.8 1.8-12 6.2-11.5 9.7s2.9 2.7 3.7 1.8 3-3.6 3.7-4.1 11.9-6.3 11.9-6.3l29.8-15.3s.2-1.5-1.5-2.7c-.1 0-18.3 10.2-36.1 16.9z"/><path class="st7" d="M209.7 199.4l-.2 1.3s-.5 8.1 2.2 10.2c0 0 .6 1.7-.3 2.5s-10 5.4-10 5.4-2.3 4.9-2.3 7.6c0 0-2.2-.9-2-1.9.2-1.1 1.5-3.9 1.1-5.3s-1.9-1-1.9-1-.7.8.5 1.3l-.4 1.7-4.9 2.9 1.1 1.3s.1 10.1 6 11.4c0 0 3.1.2 6.9-6.9 0 0 2 3.5 1.3 6.6 0 0 6.5 3.5 15.4.5l.1-6.2s1.4 9.5 6.1 8.6c0 0 13-5 10.8-6.9-5-4.4-11.1-.7-11.1-.7-.3-6.4-.8-14.7-1.7-15.6-1.4-1.5-5.6-.7-6.4-2.6s-.6-5.3.3-9.2c.9-3.9-3.7-6.6-3.7-6.6l-6.9 1.6z"/><path class="st9" d="M209.6 200.7s4.7 1.2 8.3-.3l1.6 4h.9s2.2-7.3-.7-7.3c0 0 0-2.4-5.1-2.3-4.4.1-6 3-5 5.9z"/><path class="st4" d="M304.9 292.5s-1.2 5.4-.1 6 7.2.6 7.1-.7-1-5.9-1-5.9l-6 .6zM294.8 289.6s1 4-1 4.2c-2 .2-13.2.1-13.5-.2-.3-.3-.7-1.1-.7-1.1l10.4-2.9h4.8z"/><path class="st8" d="M306.1 239.2s2.7 6.5 3.7 28.9c.3 6-.5 4.6 2.5 23.8l-3.5 1.8c-1 .5-2.3.5-3.3-.1l-3.4-2.1s1.7-21.5-3.8-33.9c0 0-2.9 5.3-2.9 9.3 0 4 .2 23 .2 23s-6.4 1.1-9.3.8c0 0 1.8-41.4 3.7-51.1l16.1-.4z"/><path class="st6" d="M305.6 236.5s1.1.8.5 2.7c0 0-8.4 3.6-16.2.5 0 0-.9-1.3.2-2.8l15.5-.4z"/><path class="st4" d="M302.8 199.4l.2 1.3s.5 8.1-2.2 10.2c0 0-.6 1.7.3 2.5s10 5.4 10 5.4 2.3 4.9 2.3 7.6c0 0 2.2-.9 2-1.9-.2-1.1-1.5-3.9-1.1-5.3s1.9-1 1.9-1 .7.8-.5 1.3l.4 1.7 4.9 2.9-1.1 1.3s-.1 10.1-6 11.4c0 0-3.1.2-6.9-6.9 0 0-2 3.5-1.3 6.6 0 0-6.5 3.5-15.4.5l-.1-6.2s-1.4 9.5-6.1 8.6c0 0-13-5-10.8-6.9 5-4.4 11.1-.7 11.1-.7.3-6.4.8-14.7 1.7-15.6 1.4-1.5 5.6-.7 6.4-2.6s.6-5.3-.3-9.2c-.9-3.9 3.7-6.6 3.7-6.6l6.9 1.6z"/><path class="st9" d="M302.9 200.7s-4.7 1.2-8.3-.3l-1.6 4h-.9s-2.2-7.3.7-7.3c0 0 0-2.4 5.1-2.3 4.4.1 6 3 5 5.9z"/><path class="st8" d="M224.5 203.7c-.4-.9.3-1.2.3-1.2s4.6-2.5 5.2-2.5c.9.1 2 1.6 2 3 0 1.3 1.7 4.8 5.3 5.7 0 0-4.5 6.1-10.7 5.2-.1 0 .3-4.1-2.1-10.2z"/><path class="st3" d="M230.9 232.1c-1.4 0-2.5 1.2-2.5 2.6V265c0 7.3 3.4 33 27.5 40.3 24-7.3 27.5-33 27.5-40.3v-30.3c0-1.5-1.1-2.6-2.5-2.6h-50z"/><path class="st7" d="M283.4 265.1v-30.3c0-1.5-1.1-2.6-2.5-2.6h-25v25.6l24.1 24.1c2.7-7.1 3.4-13.6 3.4-16.8z"/><path class="st8" d="M228.5 265.1v-30.3c0-1.5 1.1-2.6 2.5-2.6h25v25.6l-24.1 24.1c-2.8-7.1-3.4-13.6-3.4-16.8z"/><path class="st10" d="M239.7 281.1l6.4 6.7h17.7l3.7-4.8-4.3 1.8h-14.3z"/><path class="st11" d="M246.6 272.4l-1 9.8-4.4-1.7s2-4.7 5.4-8.1z"/><path class="st10" d="M255.3 268.6h.7v16.7h-.7zM261.3 270h.7v15.2h-.7zM249.3 270h.7v15.2h-.7z"/><g><path class="st11" d="M257.8 283.6h-4.4c-.3 0-.5-.2-.5-.5v-2.4c0-.3.2-.5.5-.5h4.4c.3 0 .5.2.5.5v2.4c.1.3-.2.5-.5.5zM257.8 279h-4.4c-.3 0-.5-.2-.5-.5V276c0-.3.2-.5.5-.5h4.4c.3 0 .5.2.5.5v2.4c.1.3-.2.6-.5.6zM257.8 274.6h-4.4c-.3 0-.5-.2-.5-.5v-2.4c0-.3.2-.5.5-.5h4.4c.3 0 .5.2.5.5v2.4c.1.3-.2.5-.5.5zM263.5 283.6h-3.7c-.3 0-.5-.2-.5-.5v-2.4c0-.3.2-.5.5-.5h3.7c.3 0 .5.2.5.5v2.4c0 .3-.2.5-.5.5zM263.5 279.3h-3.7c-.3 0-.5-.2-.5-.5v-1.9c0-.3.2-.5.5-.5h3.7c.3 0 .5.2.5.5v1.9c0 .3-.2.5-.5.5zM263.5 275.1h-3.7c-.3 0-.5-.2-.5-.5v-1.4c0-.3.2-.5.5-.5h3.7c.3 0 .5.2.5.5v1.4c0 .2-.2.5-.5.5zM251.4 283.6h-3.7c-.3 0-.5-.2-.5-.5v-2.4c0-.3.2-.5.5-.5h3.7c.3 0 .5.2.5.5v2.4c.1.3-.2.5-.5.5zM251.4 279.3h-3.7c-.3 0-.5-.2-.5-.5v-1.9c0-.3.2-.5.5-.5h3.7c.3 0 .5.2.5.5v1.9c.1.3-.2.5-.5.5zM251.4 275.1h-3.7c-.3 0-.5-.2-.5-.5v-1.4c0-.3.2-.5.5-.5h3.7c.3 0 .5.2.5.5v1.4c.1.2-.2.5-.5.5z"/></g><g><path class="st12" d="M261.3 270v2l-2.9-1zM249.3 270v2l-2.9-1zM255.3 268.6v1.9l-2.9-1z"/></g><path d="M277.7 287.1h-43.6c.6 1.2 1.4 2.5 2.2 3.7h39.3c.8-1.3 1.5-2.5 2.1-3.7z" fill="#4173cd"/><path class="st5" d="M275.6 290.7h-39.3c1.7 2.6 3.9 5.1 6.4 7.3h26.4c2.6-2.2 4.7-4.7 6.5-7.3z"/><path class="st7" d="M242.7 298c3.5 3.1 7.8 5.7 13.2 7.3 5.4-1.6 9.7-4.2 13.2-7.3h-26.4z"/><path class="st6" d="M251.2 259.9s-.3.1-.6.1c-.2-.1-.7-.1-.4-1 .1-.4.4-1 .2-1.2-.2-.2-.3-.4-.5-.6-.4-.4-.8-.9-1.3-1.5-1-1.1-2.1-2.3-3.4-3.5-.7-.6-1.3-1.2-2-1.9-.7-.6-1.4-1.3-2.2-1.9-.4-.2-1-.4-1.5-.5-.5-.2-.8-.6-1.1-.9-.7-.6-1.4-1.3-2-1.9-1.3-1.2-2.5-2.4-3.5-3.4s-1.8-1.8-2.3-2.4c-.5-.6-.5-1.5.1-2l1.6-1.6c.6-.5 1.5-.6 2 0l2.4 2.4c1 1 2.1 2.3 3.3 3.6l1.8 2.1c.3.4.7.7.8 1.2.2.5.3 1.1.5 1.5.5.8 1.2 1.5 1.8 2.2l1.8 2.1c1.2 1.4 2.3 2.6 3.4 3.6.5.5 1 .9 1.4 1.3l.6.6c.1.2.7-.1 1.2-.2.9-.2.9.2.9.4 0 .3-.1.6-.1.6l-2.9 2.8z"/><path class="st4" d="M233.3 262.8c-.3 0-.6-.1-.8-.3-.6-.5-.7-1.3-.3-1.9l13-17.7c.4-.6 1.3-.7 1.9-.3.6.4.7 1.3.3 1.9l-13 17.7c-.3.4-.7.6-1.1.6z"/><path class="st11" d="M243.7 241.8l6.8 4.4 2.9-4-6.3-5.1z"/><path class="st4" d="M261.8 240l17.4 21.5s2.4.1 2.1-1.8l-18-21.1-1.5 1.4z"/><path class="st8" d="M257.9 243s4.9-.9 6.9-3.9l2.8 3.3s-4.6 3.2-5 6.7c0-.1-3.7-1.1-4.7-6.1z"/><g><path class="st4" d="M276.7 240.8c-.3 0-.6-.2-.8-.5-.5-.9-.6-1.8-.3-2.5.5-1 1.5-1.3 1.7-1.4.5-.1 1 .2 1.1.6.1.5-.2 1-.6 1.1-.1 0-.4.2-.5.4-.1.2 0 .6.2 1s.1 1-.4 1.2c-.1.1-.3.1-.4.1zM262.4 254.1c0-.3-.2-.6-.5-.8-.9-.5-1.8-.6-2.5-.3-1 .5-1.3 1.5-1.4 1.7-.1.5.2 1 .6 1.1.5.1 1-.2 1.1-.6 0-.1.2-.4.4-.5.2-.1.6 0 1 .2s1 .1 1.2-.4c.1-.1.1-.3.1-.4z"/></g><path class="st8" d="M277.3 238.8l-16.4 16.1 3.8 4.3 16.1-16.1z"/><path class="st7" d="M194.1 215.7c1.1-.3 2.1 1.2 1.1 2.3-1 1.1-3.9 3-4.7 2.8-1.6-.3-2.7-3.7 3.6-5.1z"/><path class="st4" d="M318.3 217.2c-1-.3-1.9 1.2-1 2.3.9 1.1 3.6 3 4.4 2.8 1.5-.3 2.4-3.6-3.4-5.1z"/><path class="st9" d="M280.9 232.1c1.4 0 2.5 1.2 2.5 2.6V265c0 7.3-3.4 33-27.5 40.3-24-7.3-27.5-33-27.5-40.3v-30.3c0-1.5 1.1-2.6 2.5-2.6h50m0-1.8H231c-2.4 0-4.3 2-4.3 4.5v30.3c0 1.7.2 11 4.9 20.9 5 10.6 13.2 17.9 23.9 21.1l.5.2.5-.2c10.7-3.2 18.9-10.5 23.9-21.1 4.7-9.9 4.9-19.2 4.9-20.9v-30.3c-.1-2.5-2-4.5-4.4-4.5z"/><path class="st7" d="M299.9 305.8c-7.8-2.6-16.1-1.4-24 3.8-10.1 6.7-16.7 6.7-19.9 6.7s-9.9 0-19.9-6.7c-7.9-5.2-16.2-6.5-24-3.8v7.8c4.9-2.3 11.8-3.3 19.9 2.1 11.9 7.9 20.4 7.9 24 7.9 3.6 0 12.1 0 24-7.9 8.1-5.4 15-4.4 19.9-2.1v-7.8z"/><path class="st4" d="M255.9 347.5c-51.5 0-93.4-41.9-93.4-93.4s41.9-93.4 93.4-93.4 93.4 41.9 93.4 93.4-41.9 93.4-93.4 93.4zm0-183.1c-49.5 0-89.7 40.2-89.7 89.7s40.2 89.7 89.7 89.7 89.7-40.2 89.7-89.7-40.2-89.7-89.7-89.7z"/><g><path class="st5" d="M153.8 261.9s-.4-11.4 10.6-11.4c0 0 .2 4.5-3.7 6.5-3.2 1.5-6.9 4.9-6.9 4.9z"/><path class="st5" d="M175 261.9s.4-11.4-10.6-11.4c0 0-.2 4.5 3.7 6.5 3.3 1.5 6.9 4.9 6.9 4.9zM358 250.4s.4 11.4-10.6 11.4c0 0-.2-4.5 3.7-6.5 3.2-1.5 6.9-4.9 6.9-4.9z"/><path class="st5" d="M336.8 250.4s-.4 11.4 10.6 11.4c0 0 .2-4.5-3.7-6.5-3.3-1.5-6.9-4.9-6.9-4.9zM261.6 358.3s-11.4.4-11.4-10.6c0 0 4.5-.2 6.5 3.7 1.6 3.2 4.9 6.9 4.9 6.9z"/><path class="st5" d="M261.6 337s-11.4-.4-11.4 10.6c0 0 4.5.2 6.5-3.7 1.6-3.2 4.9-6.9 4.9-6.9zM250.2 154.1s11.4-.4 11.4 10.6c0 0-4.5.2-6.5-3.7-1.6-3.3-4.9-6.9-4.9-6.9z"/><path class="st5" d="M250.2 175.3s11.4.4 11.4-10.6c0 0-4.5-.2-6.5 3.7-1.6 3.2-4.9 6.9-4.9 6.9zM187.8 332.4s-8.4-7.8-.6-15.6c0 0 3.3 3 1.9 7.2-1.1 3.4-1.3 8.4-1.3 8.4z"/><path class="st5" d="M202.8 317.4s-7.8-8.4-15.6-.6c0 0 3 3.3 7.2 1.9 3.4-1.1 8.4-1.3 8.4-1.3zM324.1 179.9s8.4 7.8.6 15.6c0 0-3.3-3-1.9-7.2 1-3.4 1.3-8.4 1.3-8.4z"/><path class="st5" d="M309.1 194.9s7.8 8.4 15.6.6c0 0-3-3.3-7.2-1.9-3.5 1.1-8.4 1.3-8.4 1.3zM332.1 324.3s-7.8 8.4-15.6.6c0 0 3-3.3 7.2-1.9 3.5 1.1 8.4 1.3 8.4 1.3z"/><path class="st5" d="M317.1 309.3s-8.4 7.8-.6 15.6c0 0 3.3-3 1.9-7.2-1-3.4-1.3-8.4-1.3-8.4zM179.7 188s7.8-8.4 15.6-.6c0 0-3 3.3-7.2 1.9-3.5-1.1-8.4-1.3-8.4-1.3z"/><path class="st5" d="M194.7 203s8.4-7.8.6-15.6c0 0-3.3 3-1.9 7.2 1.1 3.5 1.3 8.4 1.3 8.4zM163.8 300.5s-4.7-10.4 5.4-14.6c0 0 1.9 4.1-1 7.4-2.3 2.7-4.4 7.2-4.4 7.2z"/><path class="st5" d="M183.4 292.4s-4-10.7-14.2-6.5c0 0 1.5 4.2 5.9 4.6 3.6.2 8.3 1.9 8.3 1.9zM348 211.8s4.7 10.4-5.4 14.6c0 0-1.9-4.1 1-7.4 2.3-2.7 4.4-7.2 4.4-7.2z"/><path class="st5" d="M328.4 219.9s4 10.7 14.2 6.5c0 0-1.5-4.2-5.9-4.6-3.6-.2-8.3-1.9-8.3-1.9zM300.3 348.3s-10.4 4.7-14.6-5.4c0 0 4.1-1.9 7.4 1 2.7 2.3 7.2 4.4 7.2 4.4z"/><path class="st5" d="M292.1 328.7s-10.7 4-6.5 14.2c0 0 4.2-1.5 4.6-5.9.2-3.6 1.9-8.3 1.9-8.3zM211.6 164s10.4-4.7 14.6 5.4c0 0-4.1 1.9-7.4-1-2.7-2.3-7.2-4.4-7.2-4.4z"/><path class="st5" d="M219.7 183.6s10.7-4 6.5-14.2c0 0-4.2 1.5-4.6 5.9-.2 3.7-1.9 8.3-1.9 8.3zM222.1 352.7s-10.7-4-6.5-14.2c0 0 4.2 1.5 4.6 5.9.2 3.6 1.9 8.3 1.9 8.3z"/><path class="st5" d="M230.2 333.1s-10.4-4.7-14.6 5.4c0 0 4.1 1.9 7.4-1 2.7-2.3 7.2-4.4 7.2-4.4zM289.7 159.7s10.7 4 6.5 14.2c0 0-4.2-1.5-4.6-5.9-.2-3.7-1.9-8.3-1.9-8.3z"/><path class="st5" d="M281.6 179.2s10.4 4.7 14.6-5.4c0 0-4.1-1.9-7.4 1-2.7 2.4-7.2 4.4-7.2 4.4zM352.4 289.9s-4 10.7-14.2 6.5c0 0 1.5-4.2 5.9-4.6 3.7-.2 8.3-1.9 8.3-1.9z"/><path class="st5" d="M332.8 281.8s-4.7 10.4 5.4 14.6c0 0 1.9-4.1-1-7.4-2.3-2.7-4.4-7.2-4.4-7.2zM159.4 222.4s4-10.7 14.2-6.5c0 0-1.5 4.2-5.9 4.6-3.6.2-8.3 1.9-8.3 1.9z"/><path class="st5" d="M179 230.5s4.7-10.4-5.4-14.6c0 0-1.9 4.1 1 7.4 2.3 2.7 4.4 7.2 4.4 7.2zM156.9 281.7s-2.6-11.1 8.2-13.3c0 0 1.1 4.4-2.4 7.1-2.9 2.2-5.8 6.2-5.8 6.2z"/><path class="st5" d="M177.7 277.6s-1.9-11.3-12.6-9.2c0 0 .7 4.5 4.9 5.6 3.5 1 7.7 3.6 7.7 3.6zM354.9 230.6s2.6 11.1-8.2 13.3c0 0-1.1-4.4 2.4-7.1 2.9-2.2 5.8-6.2 5.8-6.2z"/><path class="st5" d="M334.1 234.8s1.9 11.3 12.6 9.2c0 0-.7-4.5-4.9-5.6-3.4-1-7.7-3.6-7.7-3.6zM281.4 355.2s-11.1 2.6-13.3-8.2c0 0 4.4-1.1 7.1 2.4 2.2 2.8 6.2 5.8 6.2 5.8z"/><path class="st5" d="M277.3 334.4s-11.3 1.9-9.2 12.6c0 0 4.5-.7 5.6-4.9 1-3.5 3.6-7.7 3.6-7.7zM230.4 157.2s11.1-2.6 13.3 8.2c0 0-4.4 1.1-7.1-2.4-2.2-2.9-6.2-5.8-6.2-5.8z"/><path class="st5" d="M234.5 178s11.3-1.9 9.2-12.6c0 0-4.5.7-5.6 4.9-1 3.4-3.6 7.7-3.6 7.7zM203.9 344.2s-9.7-6-3.6-15.2c0 0 3.9 2.3 3.3 6.7-.4 3.6.3 8.5.3 8.5z"/><path class="st5" d="M215.7 326.6s-9.3-6.7-15.4 2.5c0 0 3.6 2.7 7.5.5 3.1-1.8 7.9-3 7.9-3zM307.9 168.1s9.7 6 3.6 15.2c0 0-3.9-2.3-3.3-6.7.4-3.6-.3-8.5-.3-8.5z"/><path class="st5" d="M296.1 185.7s9.3 6.7 15.4-2.5c0 0-3.6-2.7-7.5-.5-3.1 1.9-7.9 3-7.9 3zM344 308.1s-6 9.7-15.2 3.6c0 0 2.3-3.9 6.7-3.3 3.6.5 8.5-.3 8.5-.3z"/><path class="st5" d="M326.3 296.3s-6.7 9.3 2.5 15.4c0 0 2.7-3.6.5-7.5-1.8-3-3-7.9-3-7.9zM167.8 204.2s6-9.7 15.2-3.6c0 0-2.3 3.9-6.7 3.3-3.6-.5-8.5.3-8.5.3z"/><path class="st5" d="M185.5 216s6.7-9.3-2.5-15.4c0 0-2.7 3.6-.5 7.5 1.8 3.1 3 7.9 3 7.9zM174.2 317.6s-6.7-9.3 2.5-15.4c0 0 2.7 3.6.5 7.5-1.8 3.1-3 7.9-3 7.9z"/><path class="st5" d="M191.8 305.9s-6-9.7-15.2-3.6c0 0 2.3 3.9 6.7 3.3 3.6-.5 8.5.3 8.5.3zM337.6 194.7s6.7 9.3-2.5 15.4c0 0-2.7-3.6-.5-7.5 1.8-3.1 3-7.9 3-7.9z"/><path class="st5" d="M320 206.5s6 9.7 15.2 3.6c0 0-2.3-3.9-6.7-3.3-3.6.4-8.5-.3-8.5-.3zM317.4 337.9s-9.3 6.7-15.4-2.5c0 0 3.6-2.7 7.5-.5 3.1 1.8 7.9 3 7.9 3z"/><path class="st5" d="M305.6 320.2s-9.7 6-3.6 15.2c0 0 3.9-2.3 3.3-6.7-.5-3.6.3-8.5.3-8.5zM194.4 174.5s9.3-6.7 15.4 2.5c0 0-3.6 2.7-7.5.5-3-1.9-7.9-3-7.9-3z"/><path class="st5" d="M206.2 192.1s9.7-6 3.6-15.2c0 0-3.9 2.3-3.3 6.7.5 3.6-.3 8.5-.3 8.5zM241.6 357.4s-11.3-1.9-9.2-12.6c0 0 4.5.7 5.6 4.9 1 3.5 3.6 7.7 3.6 7.7z"/><path class="st5" d="M245.7 336.6s-11.1-2.6-13.3 8.2c0 0 4.4 1.1 7.1-2.4 2.2-2.9 6.2-5.8 6.2-5.8zM270.2 154.9s11.3 1.9 9.2 12.6c0 0-4.5-.7-5.6-4.9-1-3.4-3.6-7.7-3.6-7.7z"/><path class="st5" d="M266.1 175.7s11.1 2.6 13.3-8.2c0 0-4.4-1.1-7.1 2.4-2.2 2.9-6.2 5.8-6.2 5.8zM357.2 270.5s-1.9 11.3-12.6 9.2c0 0 .7-4.5 4.9-5.6 3.4-1.1 7.7-3.6 7.7-3.6z"/><path class="st5" d="M336.4 266.3s-2.6 11.1 8.2 13.3c0 0 1.1-4.4-2.4-7.1-2.9-2.2-5.8-6.2-5.8-6.2zM154.7 241.9s1.9-11.3 12.6-9.2c0 0-.7 4.5-4.9 5.6-3.5 1-7.7 3.6-7.7 3.6z"/><path class="st5" d="M175.5 246s2.6-11.1-8.2-13.3c0 0-1.1 4.4 2.4 7.1 2.8 2.2 5.8 6.2 5.8 6.2z"/></g></svg>