<?xml version="1.0" encoding="utf-8"?>
<!-- Generator: Adobe Illustrator 25.0.0, SVG Export Plug-In . SVG Version: 6.00 Build 0)  -->
<svg version="1.1" id="Layer_1" xmlns="http://www.w3.org/2000/svg" xmlns:xlink="http://www.w3.org/1999/xlink" x="0px" y="0px"
	 viewBox="0 0 512 512" style="enable-background:new 0 0 512 512;" xml:space="preserve">
<style type="text/css">
	.st0{fill:#FF0000;}
	.st1{fill:#FFFFFF;}
</style>
<rect y="87.7" class="st0" width="114.8" height="336"/>
<rect x="114.8" y="87.7" class="st1" width="282.5" height="336"/>
<rect x="397.2" y="87.7" class="st0" width="114.8" height="336"/>
<path class="st0" d="M309.6,294.8l52.4-29.9l-12-6c-3.4-1.7-5.3-5.3-4.8-9.1l3.9-29.3l-22.2,6.5c-4.9,1.4-10-1.6-11.1-6.6l-2.1-9.6
	l-20.8,24.4c-2.9,3.4-8.4,0.8-7.6-3.6l8.9-51.7l-13.6,3.7c-4,1.1-8.2-0.7-10.1-4.4L256,152.3v0l0,0l0,0v0l-14.3,26.9
	c-1.9,3.6-6.1,5.4-10.1,4.4l-13.6-3.7l8.9,51.7c0.8,4.4-4.7,7-7.6,3.6l-20.8-24.4l-2.1,9.6c-1.1,5-6.2,8-11.1,6.6l-22.2-6.5
	l3.9,29.3c0.5,3.7-1.4,7.4-4.8,9.1l-12,6l52.4,29.9c5.4,3.1,7.8,9.7,5.6,15.5l-4.5,12l44.9-3.8c2.5-0.2,4.6,1.8,4.5,4.3l-1.4,48h8.8
	l-1.4-48c-0.1-2.5,2-4.5,4.5-4.3l44.9,3.8l-4.5-12C301.8,304.4,304.1,297.9,309.6,294.8z"/>
</svg>
