<svg version="1.1" id="Layer_1" xmlns="http://www.w3.org/2000/svg" x="0" y="0" viewBox="0 0 512 512" xml:space="preserve"><style>.st0{fill:red}</style><path class="st0" d="M0 87.7h114.8v336H0z"/><path fill="#fff" d="M114.8 87.7h282.5v336H114.8z"/><path class="st0" d="M397.2 87.7H512v336H397.2zM309.6 294.8l52.4-29.9-12-6c-3.4-1.7-5.3-5.3-4.8-9.1l3.9-29.3-22.2 6.5c-4.9 1.4-10-1.6-11.1-6.6l-2.1-9.6-20.8 24.4c-2.9 3.4-8.4.8-7.6-3.6l8.9-51.7-13.6 3.7c-4 1.1-8.2-.7-10.1-4.4L256 152.3l-14.3 26.9c-1.9 3.6-6.1 5.4-10.1 4.4l-13.6-3.7 8.9 51.7c.8 4.4-4.7 7-7.6 3.6l-20.8-24.4-2.1 9.6c-1.1 5-6.2 8-11.1 6.6l-22.2-6.5 3.9 29.3c.5 3.7-1.4 7.4-4.8 9.1l-12 6 52.4 29.9c5.4 3.1 7.8 9.7 5.6 15.5l-4.5 12 44.9-3.8c2.5-.2 4.6 1.8 4.5 4.3l-1.4 48h8.8l-1.4-48c-.1-2.5 2-4.5 4.5-4.3l44.9 3.8-4.5-12c-2.2-5.9.1-12.4 5.6-15.5z"/></svg>