<?xml version="1.0" encoding="utf-8"?>
<!-- Generator: Adobe Illustrator 25.0.0, SVG Export Plug-In . SVG Version: 6.00 Build 0)  -->
<svg version="1.1" id="Layer_1" xmlns="http://www.w3.org/2000/svg" xmlns:xlink="http://www.w3.org/1999/xlink" x="0px" y="0px"
	 viewBox="0 0 512 512" style="enable-background:new 0 0 512 512;" xml:space="preserve">
<style type="text/css">
	.st0{fill:#008000;}
	.st1{fill:#FFE000;}
	.st2{fill:#802000;}
</style>
<rect y="88" class="st0" width="512" height="336"/>
<g>
	<path class="st1" d="M283.6,307.6c-28.5,0-51.6-23.1-51.6-51.6s23.1-51.6,51.6-51.6c3.8,0,7.5,0.5,11,1.3c1.4,0.3,2.2-1.6,0.9-2.3
		c-10.8-6.7-23.8-10.2-37.7-9.1c-30.3,2.5-54.6,27.1-56.7,57.4c-2.5,36.2,26.2,66.3,61.8,66.3c12,0,23.1-3.4,32.6-9.3
		c1.2-0.8,0.5-2.7-0.9-2.3C291.1,307.2,287.4,307.6,283.6,307.6z"/>
	<path class="st1" d="M328.6,212.3l3.9,9.8l10.1-3.1c0.6-0.2,1,0.4,0.8,0.9l-5.3,9.2l8.7,6c0.5,0.3,0.3,1.1-0.3,1.2l-10.4,1.6
		l0.8,10.5c0,0.6-0.7,0.9-1.1,0.5l-7.8-7.2l-7.8,7.2c-0.4,0.4-1.1,0.1-1.1-0.5l0.8-10.5l-10.4-1.6c-0.6-0.1-0.8-0.8-0.3-1.2l8.7-6
		l-5.3-9.2c-0.3-0.5,0.2-1.1,0.8-0.9l10.1,3.1l3.9-9.8C327.6,211.7,328.4,211.7,328.6,212.3z"/>
	<path class="st1" d="M469.9,185.8l3.9,9.8l10.1-3.1c0.6-0.2,1,0.4,0.8,0.9l-5.3,9.2l8.7,6c0.5,0.3,0.3,1.1-0.3,1.2l-10.4,1.6
		l0.8,10.5c0,0.6-0.7,0.9-1.1,0.5l-7.8-7.2l-7.8,7.2c-0.4,0.4-1.1,0.1-1.1-0.5l0.8-10.5l-10.4-1.6c-0.6-0.1-0.8-0.8-0.3-1.2l8.7-6
		l-5.3-9.2c-0.3-0.5,0.2-1.1,0.8-0.9l10.1,3.1l3.9-9.8C468.9,185.2,469.7,185.2,469.9,185.8z"/>
	<path class="st1" d="M399.2,122.1l3.9,9.8l10.1-3.1c0.6-0.2,1,0.4,0.8,0.9l-5.3,9.2l8.7,6c0.5,0.3,0.3,1.1-0.3,1.2l-10.4,1.6
		l0.8,10.5c0,0.6-0.7,0.9-1.1,0.5l-7.8-7.2l-7.8,7.2c-0.4,0.4-1.1,0.1-1.1-0.5l0.8-10.5l-10.4-1.6c-0.6-0.1-0.8-0.8-0.3-1.2l8.7-6
		l-5.3-9.2c-0.3-0.5,0.2-1.1,0.8-0.9l10.1,3.1l3.9-9.8C398.3,121.6,399,121.6,399.2,122.1z"/>
	<path class="st1" d="M399.2,353.5l3.9,9.8l10.1-3.1c0.6-0.2,1,0.4,0.8,0.9l-5.3,9.2l8.7,6c0.5,0.3,0.3,1.1-0.3,1.2l-10.4,1.6
		l0.8,10.5c0,0.6-0.7,0.9-1.1,0.5l-7.8-7.2l-7.8,7.2c-0.4,0.4-1.1,0.1-1.1-0.5l0.8-10.5l-10.4-1.6c-0.6-0.1-0.8-0.8-0.3-1.2l8.7-6
		l-5.3-9.2c-0.3-0.5,0.2-1.1,0.8-0.9l10.1,3.1l3.9-9.8C398.3,353,399,353,399.2,353.5z"/>
	<path class="st1" d="M428.2,221.2l2.7,8.1l8.6,0.1c0.7,0,0.9,0.9,0.4,1.2l-6.9,5.1l2.6,8.2c0.2,0.6-0.5,1.2-1.1,0.8l-7-5l-7,5
		c-0.5,0.4-1.3-0.1-1.1-0.8l2.6-8.2l-6.9-5.1c-0.5-0.4-0.3-1.2,0.4-1.2l8.6-0.1l2.7-8.1C427.1,220.5,427.9,220.5,428.2,221.2z"/>
</g>
<g>
	<circle class="st1" cx="92.7" cy="181" r="57.4"/>
	<path class="st2" d="M86.8,225.7h15.5c0,0,8.8-39.4,0.7-53.5l-4.9,3.2C98.1,175.3,106.2,202.4,86.8,225.7z"/>
	<path class="st0" d="M87.4,173.9c0,0-8.9,6.1-6.1,24.2c0,0,6.8-5.6,10.6-18.1c0,0-5.4,10.3,2.1,18.5c0,0,8-11.3,6.8-21.1
		c0,0,26.5,27.7,20.9,20.7c-0.9-1.2,1.4-12.9-7.7-22.5c0,0,15,3.8,20.7,2.3c0,0,0.5-12-13.9-14.1l3.3-9.4c0,0-11-0.7-16.9,4.9
		c0,0-1.4-14.6,4.5-21.6c0,0-17.4-2.6-18.1,20.2c0,0-6.3-14.6-25.8-11c0,0,11,8,12.9,11.5c0,0-15.5-10.6-22.8,4.2
		c0,0,12.4-3.3,16.9,2.6c0,0-20-2.1-21.6,15C53.1,180.2,71.6,171.6,87.4,173.9z"/>
</g>
</svg>
