<svg version="1.1" id="Layer_1" xmlns="http://www.w3.org/2000/svg" x="0" y="0" viewBox="0 0 512 512" xml:space="preserve"><style>.st0{fill:green}.st1{fill:#ffe000}</style><path class="st0" d="M0 88h512v336H0z"/><path class="st1" d="M283.6 307.6c-28.5 0-51.6-23.1-51.6-51.6s23.1-51.6 51.6-51.6c3.8 0 7.5.5 11 1.3 1.4.3 2.2-1.6.9-2.3-10.8-6.7-23.8-10.2-37.7-9.1-30.3 2.5-54.6 27.1-56.7 57.4-2.5 36.2 26.2 66.3 61.8 66.3 12 0 23.1-3.4 32.6-9.3 1.2-.8.5-2.7-.9-2.3-3.5.8-7.2 1.2-11 1.2zM328.6 212.3l3.9 9.8 10.1-3.1c.6-.2 1 .4.8.9l-5.3 9.2 8.7 6c.5.3.3 1.1-.3 1.2l-10.4 1.6.8 10.5c0 .6-.7.9-1.1.5l-7.8-7.2-7.8 7.2c-.4.4-1.1.1-1.1-.5l.8-10.5-10.4-1.6c-.6-.1-.8-.8-.3-1.2l8.7-6-5.3-9.2c-.3-.5.2-1.1.8-.9l10.1 3.1 3.9-9.8c.2-.6 1-.6 1.2 0zM469.9 185.8l3.9 9.8 10.1-3.1c.6-.2 1 .4.8.9l-5.3 9.2 8.7 6c.5.3.3 1.1-.3 1.2l-10.4 1.6.8 10.5c0 .6-.7.9-1.1.5l-7.8-7.2-7.8 7.2c-.4.4-1.1.1-1.1-.5l.8-10.5-10.4-1.6c-.6-.1-.8-.8-.3-1.2l8.7-6-5.3-9.2c-.3-.5.2-1.1.8-.9l10.1 3.1 3.9-9.8c.2-.6 1-.6 1.2 0zM399.2 122.1l3.9 9.8 10.1-3.1c.6-.2 1 .4.8.9l-5.3 9.2 8.7 6c.5.3.3 1.1-.3 1.2l-10.4 1.6.8 10.5c0 .6-.7.9-1.1.5l-7.8-7.2-7.8 7.2c-.4.4-1.1.1-1.1-.5l.8-10.5-10.4-1.6c-.6-.1-.8-.8-.3-1.2l8.7-6-5.3-9.2c-.3-.5.2-1.1.8-.9l10.1 3.1 3.9-9.8c.3-.5 1-.5 1.2 0zM399.2 353.5l3.9 9.8 10.1-3.1c.6-.2 1 .4.8.9l-5.3 9.2 8.7 6c.5.3.3 1.1-.3 1.2l-10.4 1.6.8 10.5c0 .6-.7.9-1.1.5l-7.8-7.2-7.8 7.2c-.4.4-1.1.1-1.1-.5l.8-10.5-10.4-1.6c-.6-.1-.8-.8-.3-1.2l8.7-6-5.3-9.2c-.3-.5.2-1.1.8-.9l10.1 3.1 3.9-9.8c.3-.5 1-.5 1.2 0zM428.2 221.2l2.7 8.1 8.6.1c.7 0 .9.9.4 1.2l-6.9 5.1 2.6 8.2c.2.6-.5 1.2-1.1.8l-7-5-7 5c-.5.4-1.3-.1-1.1-.8l2.6-8.2-6.9-5.1c-.5-.4-.3-1.2.4-1.2l8.6-.1 2.7-8.1c.3-.7 1.1-.7 1.4 0z"/><g><circle class="st1" cx="92.7" cy="181" r="57.4"/><path d="M86.8 225.7h15.5s8.8-39.4.7-53.5l-4.9 3.2c0-.1 8.1 27-11.3 50.3z" fill="#802000"/><path class="st0" d="M87.4 173.9s-8.9 6.1-6.1 24.2c0 0 6.8-5.6 10.6-18.1 0 0-5.4 10.3 2.1 18.5 0 0 8-11.3 6.8-21.1 0 0 26.5 27.7 20.9 20.7-.9-1.2 1.4-12.9-7.7-22.5 0 0 15 3.8 20.7 2.3 0 0 .5-12-13.9-14.1l3.3-9.4s-11-.7-16.9 4.9c0 0-1.4-14.6 4.5-21.6 0 0-17.4-2.6-18.1 20.2 0 0-6.3-14.6-25.8-11 0 0 11 8 12.9 11.5 0 0-15.5-10.6-22.8 4.2 0 0 12.4-3.3 16.9 2.6 0 0-20-2.1-21.6 15-.1 0 18.4-8.6 34.2-6.3z"/></g></svg>