<svg version="1.1" id="Layer_1" xmlns="http://www.w3.org/2000/svg" x="0" y="0" viewBox="0 0 512 512" xml:space="preserve"><style>.st2{fill:#ffce00}</style><path fill="#003082" d="M0 88.2h512v84H0z"/><path fill="#fff" d="M0 172.1h512v84H0z"/><path class="st2" d="M0 339.8h512v84H0z"/><path fill="#289728" d="M0 255.9h512v84H0z"/><path fill="#d21034" d="M214.1 88.3H298v335.5h-83.9z"/><path class="st2" d="M76.5 99.6l7.4 22.1 23.3.2c1.8 0 2.6 2.3 1.1 3.4l-18.7 13.8 7 22.2c.5 1.7-1.4 3.1-2.9 2.1l-18.9-13.5-18.9 13.5c-1.5 1-3.4-.4-2.9-2.1l7-22.2-18.7-13.8c-1.5-1.1-.7-3.4 1.1-3.4l23.3-.2 7.4-22.1c.4-1.7 2.8-1.7 3.4 0z"/></svg>