<svg version="1.1" id="Layer_1" xmlns="http://www.w3.org/2000/svg" x="0" y="0" viewBox="0 0 512 512" xml:space="preserve"><style>.st0{fill:#012169}.st1{fill:#fff}.st2{fill:#c8102e}</style><path class="st0" d="M256.1 88v168.2H0V424h512V88z"/><g id="Union_flag"><path class="st0" d="M0 88h256.1v168.2H0z"/><path class="st1" d="M106 150.1v-7.9L22.7 88H0v17l69.3 45.1zM106 194.1H70.8L0 240.1v16.1h24.2l81.8-53.3zM233.9 88L150 142.5v7.6h37.3l68.8-44.8V88zM150 194.1v8.5l82.5 53.6h23.6v-16.4l-70.2-45.7z"/><path class="st1" d="M256.1 150.1H150V88h-44v62.1H0v44h106v62.1h44v-62.1h106.1z"/><path class="st2" d="M256.1 158.8H141.3V88h-26.5v70.8H0v26.5h114.8v70.9h26.5v-70.9h114.8z"/><path class="st2" d="M97.2 150.1L1.7 88H0v9.6l80.7 52.5zM106 194.1H89.6L0 252.4v3.8h10.6zM157.3 194.1l95.5 62.1h3.3v-8.6l-82.3-53.5zM245.4 88L150 150v.1h16.4l89.7-58.3V88z"/></g><path class="st1" d="M377.1 150.1l3.2 9.7 10.2.1c.8 0 1.1 1 .5 1.5l-8.2 6.1 3.1 9.8c.2.8-.6 1.4-1.3.9l-8.3-6-8.3 6c-.6.5-1.5-.2-1.3-.9l3.1-9.8-8.2-6.1c-.6-.5-.3-1.5.5-1.5l10.2-.1 3.2-9.7c.3-.7 1.4-.7 1.6 0zM333.6 162.1l6.9 7.6 9.4-4.1c.7-.3 1.4.5 1 1.2l-5 8.9 6.8 7.7c.5.6 0 1.5-.8 1.4l-10-2.1-5.2 8.8c-.4.7-1.4.5-1.5-.3l-1.1-10.2-10-2.2c-.8-.2-.9-1.2-.2-1.6l9.3-4.2-1-10.2c-.1-.9.9-1.3 1.4-.7zM298.7 190.7l9.4 4.1 6.9-7.6c.5-.6 1.5-.2 1.4.6l-1 10.2 9.3 4.2c.7.3.6 1.4-.2 1.6l-10 2.2-1.1 10.2c-.1.8-1.1 1-1.5.3l-5.2-8.8-10 2.1c-.8.2-1.3-.8-.8-1.4l6.8-7.7-5-8.9c-.4-.7.3-1.5 1-1.1zM278.5 231l10.2-.1 3.2-9.7c.2-.8 1.3-.8 1.6 0l3.2 9.7 10.3.1c.8 0 1.1 1 .5 1.5l-8.2 6.1 3.1 9.8c.2.8-.6 1.4-1.3.9l-8.3-6-8.3 6c-.6.5-1.5-.2-1.3-.9l3.1-9.8-8.2-6.1c-.7-.5-.4-1.5.4-1.5zM276.4 276.1l9.3-4.2-1-10.2c-.1-.8.9-1.2 1.4-.6l6.9 7.6 9.4-4.1c.7-.3 1.4.5 1 1.2l-5 8.9 6.8 7.7c.5.6 0 1.5-.8 1.4l-10-2-5.2 8.8c-.4.7-1.4.5-1.5-.3l-1.1-10.2-10-2.2c-.8-.5-.9-1.5-.2-1.8zM292.8 318.1l6.8-7.7-5-8.9c-.4-.7.3-1.5 1-1.2l9.4 4.1 6.9-7.6c.5-.6 1.5-.2 1.4.6l-1 10.2 9.3 4.2c.7.3.6 1.4-.2 1.6l-10 2.2-1.1 10.2c-.1.8-1.1 1-1.5.3l-5.2-8.8-10 2c-.8.3-1.3-.6-.8-1.2zM324.9 349.8l3.1-9.8-8.2-6.1c-.6-.5-.3-1.5.5-1.5l10.2-.1 3.2-9.7c.2-.8 1.3-.8 1.6 0l3.2 9.7 10.2.1c.8 0 1.1 1 .5 1.5L341 340l3.1 9.8c.2.8-.6 1.4-1.3.9l-8.3-6-8.3 6c-.7.5-1.5-.1-1.3-.9zM367.1 365.7l-1.1-10.2-10-2.2c-.8-.2-.9-1.2-.2-1.6l9.3-4.2-1-10.2c-.1-.8.9-1.2 1.4-.6l6.9 7.6 9.4-4.1c.7-.3 1.4.5 1 1.2l-5 8.9 6.8 7.7c.5.6 0 1.5-.8 1.4l-10-2-5.2 8.8c-.3.5-1.4.3-1.5-.5zM412.2 363.1l-5.2-8.8-10 2c-.8.2-1.3-.8-.8-1.4l6.8-7.7-5-8.9c-.4-.7.3-1.5 1-1.2l9.4 4.1 6.9-7.6c.5-.6 1.5-.2 1.4.6l-1 10.2 9.3 4.2c.7.3.6 1.4-.2 1.6l-10 2.2-1.1 10.2c-.1.9-1.1 1.2-1.5.5zM452.3 342.4l-8.3-6-8.3 6c-.6.5-1.5-.2-1.3-.9l3.1-9.8-8.2-6.1c-.6-.5-.3-1.5.5-1.5l10.2-.1 3.2-9.7c.2-.8 1.3-.8 1.6 0l3.2 9.7 10.2.1c.8 0 1.1 1 .5 1.5l-8.2 6.1 3.1 9.8c.2.7-.7 1.3-1.3.9zM480.4 307.1l-10-2-5.2 8.8c-.4.7-1.4.5-1.5-.3l-1.1-10.2-10-2.2c-.8-.2-.9-1.2-.2-1.6l9.3-4.2-1-10.2c-.1-.8.9-1.2 1.4-.6l6.9 7.6 9.4-4.1c.7-.3 1.4.5 1 1.2l-5 8.9 6.8 7.7c.5.5 0 1.4-.8 1.2zM491.9 263.5l-10 2.2-1.1 10.2c-.1.8-1.1 1-1.5.3l-5.2-8.8-10 2c-.8.2-1.3-.8-.8-1.4l6.8-7.7-5-8.9c-.4-.7.3-1.5 1-1.2l9.4 4.1 6.9-7.6c.5-.6 1.5-.2 1.4.6l-1 10.2 9.3 4.2c.6.5.5 1.6-.2 1.8zM484.5 218.9l-8.2 6.1 3.1 9.8c.2.8-.6 1.4-1.3.9l-8.3-6-8.3 6c-.6.5-1.5-.2-1.3-.9l3.1-9.8-8.2-6.1c-.6-.5-.3-1.5.5-1.5l10.2-.1 3.2-9.7c.2-.8 1.3-.8 1.6 0l3.2 9.7 10.2.1c.8.1 1.2 1.1.5 1.5zM459.7 181.2l-5 8.9 6.8 7.7c.5.6 0 1.5-.8 1.4l-10-2.1-5.2 8.8c-.4.7-1.4.5-1.5-.3l-1.1-10.2-10-2.2c-.8-.2-.9-1.2-.2-1.6l9.3-4.2-1-10.2c-.1-.8.9-1.2 1.4-.6l6.9 7.6 9.4-4.1c.7-.3 1.4.5 1 1.1zM421.7 156.9l-1 10.2 9.3 4.2c.7.3.6 1.4-.2 1.6l-10 2.2-1.1 10.2c-.1.8-1.1 1-1.5.3l-5.2-8.8-10 2.1c-.8.2-1.3-.8-.8-1.4l6.8-7.7-5-8.9c-.4-.7.3-1.5 1-1.2l9.4 4.1 6.9-7.6c.5-.5 1.5-.1 1.4.7z"/><path class="st1" d="M377.1 150.1l3.2 9.7 10.2.1c.8 0 1.1 1 .5 1.5l-8.2 6.1 3.1 9.8c.2.8-.6 1.4-1.3.9l-8.3-6-8.3 6c-.6.5-1.5-.2-1.3-.9l3.1-9.8-8.2-6.1c-.6-.5-.3-1.5.5-1.5l10.2-.1 3.2-9.7c.3-.7 1.4-.7 1.6 0z"/></svg>