<svg version="1.1" id="Layer_1" xmlns="http://www.w3.org/2000/svg" x="0" y="0" viewBox="0 0 512 512" xml:space="preserve"><style>.st0{fill:#fff}</style><path class="st0" d="M0 88.3h512v168H0z"/><path fill="#0039a6" d="M0 88.3h168v168H0z"/><path class="st0" d="M87.3 134.5l8.4 25.2 26.6.2c3.4 0 4.9 4.4 2.1 6.5L103 182.2l8 25.4c1 3.3-2.7 6-5.5 4l-21.6-15.5-21.6 15.5c-2.8 2-6.5-.7-5.5-4l8-25.4-21.4-15.8c-2.8-2-1.3-6.4 2.1-6.5l26.6-.2 8.4-25.2c1.1-3.3 5.7-3.3 6.8 0z"/><path fill="#d52b1e" d="M0 256.3h512v168H0z"/></svg>