<svg version="1.1" id="Layer_1" xmlns="http://www.w3.org/2000/svg" x="0" y="0" viewBox="0 0 512 512" xml:space="preserve"><style>.st2{fill:#fcd116}</style><path fill="#007a5e" d="M0 88.3h170.7v336H0z"/><path fill="#ce1126" d="M170.7 88.3h170.7v336H170.7z"/><path class="st2" d="M341.3 88.3H512v336H341.3zM257.8 223.6l7.6 22.7 24 .2c1.9 0 2.6 2.4 1.1 3.5l-19.3 14.2 7.2 22.9c.6 1.8-1.5 3.2-3 2.2L256 275.4l-19.5 13.9c-1.5 1.1-3.5-.4-3-2.2l7.2-22.9-19.3-14.2c-1.5-1.1-.7-3.5 1.1-3.5l24-.2 7.6-22.7c.7-1.7 3.1-1.7 3.7 0z"/></svg>