<svg version="1.1" id="Layer_1" xmlns="http://www.w3.org/2000/svg" x="0" y="0" viewBox="0 0 512 512" xml:space="preserve"><style>.st1{fill:#ffde00}</style><path fill="#de2910" d="M0 88h512v336H0z"/><path class="st1" d="M85 140.7l8.4 25.2 26.6.2c3.4 0 4.9 4.4 2.1 6.5l-21.4 15.8 8 25.4c1 3.3-2.7 6-5.5 4l-21.6-15.5L60 217.8c-2.8 2-6.5-.7-5.5-4l8-25.4-21.4-15.8c-2.8-2-1.3-6.4 2.1-6.5l26.6-.2 8.4-25.2c1.1-3.2 5.7-3.2 6.8 0zM181.6 147l6 8.2 9.7-3c1.3-.4 2.3 1 1.5 2.1l-6 8.3 5.9 8.3c.8 1.1-.3 2.5-1.5 2.1l-9.7-3.1-6.1 8.2c-.8 1.1-2.5.5-2.5-.8v-10.2l-9.7-3.3c-1.3-.4-1.2-2.2 0-2.6l9.7-3.2.1-10.2c.1-1.4 1.8-1.9 2.6-.8zM144.9 122.4l10.1 1.1 4.3-9.2c.6-1.2 2.3-1 2.6.3l2.1 10 10.1 1.3c1.3.2 1.7 1.9.5 2.6l-8.9 5.1 1.9 10c.2 1.3-1.3 2.2-2.3 1.3l-7.6-6.9-8.9 4.9c-1.2.6-2.5-.6-1.9-1.8l4.2-9.3-7.5-7c-.8-.9-.1-2.5 1.3-2.4zM160.9 221.3l-6 8.2-9.7-3c-1.3-.4-2.3 1-1.5 2.1l6 8.3-5.9 8.3c-.8 1.1.3 2.5 1.5 2.1l9.7-3.1 6.1 8.2c.8 1.1 2.5.5 2.5-.8v-10.2l9.7-3.3c1.3-.4 1.2-2.2 0-2.6l-9.7-3.2-.1-10.2c-.1-1.3-1.8-1.9-2.6-.8zM197.6 198.3l-10.1 1.1-4.3-9.2c-.6-1.2-2.3-1-2.6.3l-2.1 10-10.1 1.3c-1.3.2-1.7 1.9-.5 2.6l8.9 5.1-1.9 10c-.2 1.3 1.3 2.2 2.3 1.3l7.6-6.9 8.9 4.9c1.2.6 2.5-.6 1.9-1.8l-4.2-9.3 7.5-7c.8-1 0-2.6-1.3-2.4z"/></svg>