<svg version="1.1" id="Layer_1" xmlns="http://www.w3.org/2000/svg" x="0" y="0" viewBox="0 0 512 512" xml:space="preserve"><style>.st0{fill:#002b7f}.st1{fill:#fff}.st3{fill:#3cc8ff}.st5{fill:#73af00}.st6{fill:#f0aa00}.st7{fill:#8c5a28}</style><path class="st0" d="M0 88.3h512v57.4H0zM0 366.3h512v57.4H0z"/><path class="st1" d="M0 309h512v57.4H0zM0 145.7h512v57.4H0z"/><path fill="#ce1126" d="M0 202.9h512V309H0z"/><path class="st3" d="M117 238.9h42.7v21.4H117z"/><path fill="#ffe15a" d="M122.7 251.1l.5 4.7 1.9-4.4-1 4.7 3.2-3.6-2.4 4.1 4.1-2.3-3.5 3.1 4.6-1-4.3 2 4.7.4-4.7.5 4.3 2-4.6-1 3.5 3.1-4.1-2.4 2.4 4.1-3.2-3.5 1 4.7-1.9-4.4-.5 4.7-.5-4.7-1.9 4.4 1-4.7-3.1 3.5 2.3-4.1-4.1 2.4 3.6-3.1-4.7 1 4.4-2-4.8-.5 4.8-.4-4.4-2 4.7 1-3.6-3.1 4.1 2.3-2.3-4.1 3.1 3.6-1-4.7 1.9 4.4z"/><path class="st0" d="M146.9 290.2h-17l-15.7-12.8v-18.6H164v18.6z"/><path class="st5" d="M155.5 253.2c0-.4-.3-.7-.7-.7s-.7.3-.7.7c0 2.5-1.4 5.9-3.2 8.3-2.5-3.1-3.4-6.7-3.7-8.9-.2-1.1-1.3-1.7-2.3-1.2-.5.2-.8.7-.9 1.2-1.1 7-4.4 9.9-6.5 11.2-3.2-3.1-4.2-8.1-4.6-11-.1-1.1-1.4-1.8-2.4-1.3-.4.2-.7.6-.8 1-4.5 13.6-16.9 15-16.9 15v4.3h49.8V264.6c-5.7-1.5-7.1-11.4-7.1-11.4z"/><path class="st6" d="M162.6 240.3c-5.7-2.8-5.7-5.7-5.7-5.7s-7.1-2.8-12.8-2.8c0 0 1.4-2.8-1.4-2.8h-4.3-4.3c-2.9 0-1.4 2.8-1.4 2.8-5.7 0-12.8 2.8-12.8 2.8s0 2.8-5.7 5.7c-5.7 2.8-5.7 9.3-5.7 9.3 0 1.2 1 2.1 2.1 2.1 1.2 0 2.1-1 2.1-2.1 0-.2-.1-.5-.1-.7h.1l14.2-10h22.8l14.2 10h.1c-.1.2-.1.4-.1.7 0 1.2 1 2.1 2.1 2.1s2.1-1 2.1-2.1c.2 0 .2-6.4-5.5-9.3z"/><path class="st6" d="M166.9 257.4c-1.4 0-5.7 0-5.7-4.3s5.7-4.3 5.7-4.3l-8.5-2.8c-2.8 10 2.8 10 2.8 22.8 0 11.5-12.8 18.5-17.1 18.5-4.3 0-5.7 2.8-5.7 2.8s-1.4-2.8-5.7-2.8c-4.3 0-17.1-7-17.1-18.5 0-12.8 5.7-12.8 2.8-22.8l-8.5 2.8s5.7 0 5.7 4.3-4.3 4.3-5.7 4.3-7.1 0-7.1 7.1 7.1 15.7 17.1 21.4c10 5.7 5.7 11.4 18.5 11.4s8.5-5.7 18.5-11.4 17.1-14.2 17.1-21.4c0-7.1-5.7-7.1-7.1-7.1z"/><path class="st5" d="M135.5 235.1l-3.4-1.5c-.6-.3-1.2-.3-1.8-.2-2.2.5-7.7 2.2-11.8 6.9l4.3 1.4 12.7-6.6zM141.2 235.1l3.4-1.5c.6-.3 1.2-.3 1.8-.2 2.2.5 7.7 2.2 11.8 6.9l-4.3 1.4-12.7-6.6z"/><path class="st5" d="M138.9 236.1l2.6-2.6c.1-.1.1-.4 0-.5s-.4-.1-.5 0l-2.6 2.6-2.6-2.6c-.1-.1-.4-.1-.5 0s-.1.4 0 .5l2.6 2.6-2.6 2.6c-.1.1-.1.4 0 .5.1.1.2.1.3.1.1 0 .2 0 .3-.1l2.6-2.6 2.6 2.6c.1.1.2.1.3.1.1 0 .2 0 .3-.1.1-.1.1-.4 0-.5l-2.8-2.6z"/><path class="st1" d="M166.9 248.9c0-2.4-2.3-3.5-4.3-3.9v-1.1c-2.7-.3-4.2-1.3-6.8-3-1-.7-2.1-1.5-3.5-2.3-5-3-8.9-3.5-11.1-3.4v2.4h-5.7v-2.4c-2.2-.1-6.1.3-11.1 3.4-1.4.8-2.5 1.6-3.5 2.3-2.6 1.8-4.1 2.8-6.8 3v1.1c-2 .5-4.3 1.5-4.3 3.9l4.3-1.4v.6c4-.3 6.4-1.8 9.2-3.8 1-.7 2-1.4 3.3-2.2 3.3-2 5.8-2.6 7.4-2.7v2.3h8.5v-2.3c1.7.1 4.2.8 7.4 2.7 1.3.8 2.4 1.5 3.3 2.2 2.8 1.9 5.1 3.5 9.2 3.8v-.6l4.5 1.4z"/><path class="st3" d="M155.5 226.4v-1.8h-4c.7-.6 1.1-1.3 1.1-2.1 0-3.9-8.9-5-14.2-5s-14.2 1-14.2 5c0 .8.4 1.5 1.1 2.1h-4v1.8c-3.5.8-6.3 2.6-6.5 2.7l1.6 2.4s4-2.6 7.8-2.6v-1.4h28.5v1.4c3.8 0 7.7 2.6 7.8 2.6l1.6-2.4c-.3 0-3.1-1.9-6.6-2.7zm-11.4-2.1v-1.1c0-.7-.7-1.2-1.3-1l-4.4 1.1-4.4-1.1c-.7-.2-1.3.3-1.3 1v1.1c-3.2-.5-5.1-1.3-5.6-1.7.8-.7 4.5-2.1 11.3-2.1s10.5 1.4 11.3 2.1c-.5.4-2.4 1.2-5.6 1.7z"/><path class="st1" d="M138.6 242.3l.4 1.1h1.1c.1 0 .2.2.1.3l-.9.7.3 1.1c0 .1-.1.3-.2.2l-.9-.7-.9.7c-.1.1-.3 0-.2-.2l.3-1.1-.9-.7c-.1-.1-.1-.3.1-.3h1.1l.4-1.1c-.1-.1.1-.1.2 0zM133 242.7l.5 1 1.1-.1c.1 0 .2.2.1.3l-.8.8.5 1c.1.1-.1.3-.2.2l-1-.6-.9.8c-.1.1-.3 0-.3-.1l.2-1.1-1-.6c-.1-.1-.1-.3.1-.3l1.1-.1.2-1.1c.1-.2.3-.3.4-.1zM127.3 244.2l.7.9 1.1-.4c.1 0 .3.1.2.2l-.7.9.7.9c.1.1 0 .3-.2.2l-1.1-.3-.7.9c-.1.1-.3.1-.3-.1v-1.1l-1.1-.4c-.1 0-.1-.2 0-.3l1.1-.4v-1.1s.2 0 .3.1zM121.5 246.6l.8.8 1-.5c.1-.1.3.1.2.2l-.5 1 .8.8c.1.1 0 .3-.1.3l-1.1-.2-.5 1c-.1.1-.3.1-.3-.1l-.2-1.1-1.1-.2c-.1 0-.2-.2 0-.3l1-.5-.2-1.1c-.1-.1.1-.2.2-.1zM143.9 242.7l-.5 1-1.1-.1c-.1 0-.2.2-.1.3l.8.8-.5 1c-.1.1.1.3.2.2l1-.6.9.8c.1.1.3 0 .3-.1l-.2-1.1 1-.6c.1-.1.1-.3-.1-.3l-1.1-.1-.2-1.1c-.2-.2-.4-.3-.4-.1zM149.6 244.2l-.7.9-1.1-.4c-.1 0-.3.1-.2.2l.7.9-.7.9c-.1.1 0 .3.2.2l1.1-.3.7.9c.1.1.3.1.3-.1v-1.1l1.1-.4c.1 0 .1-.2 0-.3l-1.1-.4v-1.1s-.2 0-.3.1zM155.3 246.6l-.8.8-1-.5c-.1-.1-.3.1-.2.2l.5 1-.8.9c-.1.1 0 .3.1.3l1.1-.2.5 1c.1.1.3.1.3-.1l.2-1.1 1.1-.2c.1 0 .2-.2 0-.3l-1-.5.2-1.1c.1-.2-.1-.3-.2-.2z"/><path class="st7" d="M128.6 276.5l7.2 4.8h8.8l4-3.5-3.1 1.3h-10.3z"/><path class="st1" d="M133.5 270.2l-.7 7.1-3.2-1.2s1.5-3.5 3.9-5.9z"/><g><path class="st7" d="M139.8 267.4h.5v12h-.5zM144.1 268.4h.5v11h-.5zM135.4 268.4h.5v11h-.5z"/></g><g><path class="st1" d="M141.5 278.3h-2.9c-.3 0-.5-.2-.5-.5v-1.5c0-.3.2-.5.5-.5h2.9c.3 0 .5.2.5.5v1.5c0 .2-.2.5-.5.5zM141.5 274.9h-2.9c-.3 0-.5-.2-.5-.5v-1.5c0-.3.2-.5.5-.5h2.9c.3 0 .5.2.5.5v1.5c0 .3-.2.5-.5.5zM141.5 271.8h-2.9c-.3 0-.5-.2-.5-.5v-1.5c0-.3.2-.5.5-.5h2.9c.3 0 .5.2.5.5v1.5c0 .3-.2.5-.5.5zM145.6 278.3h-2.3c-.3 0-.5-.2-.5-.5v-1.5c0-.3.2-.5.5-.5h2.3c.3 0 .5.2.5.5v1.5c0 .2-.2.5-.5.5zM145.6 275.2h-2.3c-.3 0-.5-.2-.5-.5v-1.1c0-.3.2-.5.5-.5h2.3c.3 0 .5.2.5.5v1.1c0 .2-.2.5-.5.5zM145.6 272.1h-2.3c-.3 0-.5-.2-.5-.5v-.7c0-.3.2-.5.5-.5h2.3c.3 0 .5.2.5.5v.7c0 .3-.2.5-.5.5zM136.9 278.3h-2.3c-.3 0-.5-.2-.5-.5v-1.5c0-.3.2-.5.5-.5h2.3c.3 0 .5.2.5.5v1.5c0 .2-.2.5-.5.5zM136.9 275.2h-2.3c-.3 0-.5-.2-.5-.5v-1.1c0-.3.2-.5.5-.5h2.3c.3 0 .5.2.5.5v1.1c0 .2-.2.5-.5.5zM136.9 272.1h-2.3c-.3 0-.5-.2-.5-.5v-.7c0-.3.2-.5.5-.5h2.3c.3 0 .5.2.5.5v.7c0 .3-.2.5-.5.5zM135.9 268.4v1.5l2.1-.8zM144.6 268.4v1.5l2.1-.8zM140.3 267.4v1.4l2-.7z"/></g><path class="st7" d="M134.7 257.8l2.5 1.7h3.1l1.4-1.2-1.1.4H137z"/><path class="st1" d="M136.4 255.6l-.2 2.5-1.1-.4s.5-1.2 1.3-2.1z"/><g><path class="st7" d="M138.6 254.6h.2v4.2h-.2zM140.1 255h.2v3.8h-.2zM137.1 255h.2v3.8h-.2z"/></g><g><path class="st1" d="M139.2 258.4h-1c-.1 0-.2-.1-.2-.2v-.5c0-.1.1-.2.2-.2h1c.1 0 .2.1.2.2v.5c0 .2-.1.2-.2.2zM139.2 257.3h-1c-.1 0-.2-.1-.2-.2v-.5c0-.1.1-.2.2-.2h1c.1 0 .2.1.2.2v.5c0 .1-.1.2-.2.2zM139.2 256.2h-1c-.1 0-.2-.1-.2-.2v-.5c0-.1.1-.2.2-.2h1c.1 0 .2.1.2.2v.5c0 .1-.1.2-.2.2zM140.6 258.4h-.8c-.1 0-.2-.1-.2-.2v-.5c0-.1.1-.2.2-.2h.8c.1 0 .2.1.2.2v.5c0 .2-.1.2-.2.2zM140.6 257.4h-.8c-.1 0-.2-.1-.2-.2v-.4c0-.1.1-.2.2-.2h.8c.1 0 .2.1.2.2v.4c0 .1-.1.2-.2.2zM140.6 256.3h-.8c-.1 0-.2-.1-.2-.2v-.2c0-.1.1-.2.2-.2h.8c.1 0 .2.1.2.2v.2c0 .1-.1.2-.2.2zM137.6 258.4h-.8c-.1 0-.2-.1-.2-.2v-.5c0-.1.1-.2.2-.2h.8c.1 0 .2.1.2.2v.5c0 .2-.1.2-.2.2zM137.6 257.4h-.8c-.1 0-.2-.1-.2-.2v-.4c0-.1.1-.2.2-.2h.8c.1 0 .2.1.2.2v.4c0 .1-.1.2-.2.2zM137.6 256.3h-.8c-.1 0-.2-.1-.2-.2v-.2c0-.1.1-.2.2-.2h.8c.1 0 .2.1.2.2v.2c0 .1-.1.2-.2.2zM137.2 255v.5l.8-.2zM140.3 255v.5l.7-.2zM138.8 254.7v.4l.7-.2zM132.9 250.3h-1.8c-.7 0-1.2-.5-1.2-1.2s.5-1.2 1.2-1.2h1.8c.7 0 1.2.5 1.2 1.2s-.5 1.2-1.2 1.2zM147 250.3h-1.2c-.7 0-1.2-.5-1.2-1.2s.5-1.2 1.2-1.2h1.2c.7 0 1.2.5 1.2 1.2s-.6 1.2-1.2 1.2zM155.6 252.1h-1.1c-.4 0-.7-.3-.7-.7v-.1c0-.4.3-.7.7-.7h1.1c.4 0 .7.3.7.7v.1c0 .4-.3.7-.7.7z"/></g></svg>