<?xml version="1.0" encoding="utf-8"?>
<!-- Generator: Adobe Illustrator 25.0.0, SVG Export Plug-In . SVG Version: 6.00 Build 0)  -->
<svg version="1.1" id="Layer_1" xmlns="http://www.w3.org/2000/svg" xmlns:xlink="http://www.w3.org/1999/xlink" x="0px" y="0px"
	 viewBox="0 0 512 512" style="enable-background:new 0 0 512 512;" xml:space="preserve">
<style type="text/css">
	.st0{fill:#002B7F;}
	.st1{fill:#FFFFFF;}
	.st2{fill:#CE1126;}
	.st3{fill:#3CC8FF;}
	.st4{fill:#FFE15A;}
	.st5{fill:#73AF00;}
	.st6{fill:#F0AA00;}
	.st7{fill:#8C5A28;}
</style>
<rect y="88.3" class="st0" width="512" height="57.4"/>
<rect y="366.3" class="st0" width="512" height="57.4"/>
<rect y="309" class="st1" width="512" height="57.4"/>
<rect y="145.7" class="st1" width="512" height="57.4"/>
<rect y="202.9" class="st2" width="512" height="106.1"/>
<rect x="117" y="238.9" class="st3" width="42.7" height="21.4"/>
<polygon class="st4" points="122.7,251.1 123.2,255.8 125.1,251.4 124.1,256.1 127.3,252.5 124.9,256.6 129,254.3 125.5,257.4 
	130.1,256.4 125.8,258.4 130.5,258.8 125.8,259.3 130.1,261.3 125.5,260.3 129,263.4 124.9,261 127.3,265.1 124.1,261.6 
	125.1,266.3 123.2,261.9 122.7,266.6 122.2,261.9 120.3,266.3 121.3,261.6 118.2,265.1 120.5,261 116.4,263.4 120,260.3 
	115.3,261.3 119.7,259.3 114.9,258.8 119.7,258.4 115.3,256.4 120,257.4 116.4,254.3 120.5,256.6 118.2,252.5 121.3,256.1 
	120.3,251.4 122.2,255.8 "/>
<polygon class="st0" points="146.9,290.2 129.9,290.2 114.2,277.4 114.2,258.8 164,258.8 164,277.4 "/>
<path class="st5" d="M155.5,253.2L155.5,253.2c0-0.4-0.3-0.7-0.7-0.7s-0.7,0.3-0.7,0.7h0c0,2.5-1.4,5.9-3.2,8.3
	c-2.5-3.1-3.4-6.7-3.7-8.9c-0.2-1.1-1.3-1.7-2.3-1.2c-0.5,0.2-0.8,0.7-0.9,1.2c-1.1,7-4.4,9.9-6.5,11.2c-3.2-3.1-4.2-8.1-4.6-11
	c-0.1-1.1-1.4-1.8-2.4-1.3c-0.4,0.2-0.7,0.6-0.8,1c-4.5,13.6-16.9,15-16.9,15v4.3h49.8v-1.4v-1.4v-1.4V266v-1.4
	C156.9,263.1,155.5,253.2,155.5,253.2z"/>
<g>
	<path class="st6" d="M162.6,240.3c-5.7-2.8-5.7-5.7-5.7-5.7s-7.1-2.8-12.8-2.8c0,0,1.4-2.8-1.4-2.8c-2.8,0-4.3,0-4.3,0
		s-1.4,0-4.3,0s-1.4,2.8-1.4,2.8c-5.7,0-12.8,2.8-12.8,2.8s0,2.8-5.7,5.7c-5.7,2.8-5.7,9.3-5.7,9.3c0,1.2,1,2.1,2.1,2.1
		c1.2,0,2.1-1,2.1-2.1c0-0.2-0.1-0.5-0.1-0.7l0.1,0l14.2-10h11.4h11.4l14.2,10l0.1,0c-0.1,0.2-0.1,0.4-0.1,0.7c0,1.2,1,2.1,2.1,2.1
		s2.1-1,2.1-2.1C168.3,249.6,168.3,243.2,162.6,240.3z"/>
	<path class="st6" d="M166.9,257.4c-1.4,0-5.7,0-5.7-4.3s5.7-4.3,5.7-4.3l-8.5-2.8c-2.8,10,2.8,10,2.8,22.8
		c0,11.5-12.8,18.5-17.1,18.5c-4.3,0-5.7,2.8-5.7,2.8s-1.4-2.8-5.7-2.8c-4.3,0-17.1-7-17.1-18.5c0-12.8,5.7-12.8,2.8-22.8l-8.5,2.8
		c0,0,5.7,0,5.7,4.3c0,4.3-4.3,4.3-5.7,4.3s-7.1,0-7.1,7.1s7.1,15.7,17.1,21.4c10,5.7,5.7,11.4,18.5,11.4s8.5-5.7,18.5-11.4
		c10-5.7,17.1-14.2,17.1-21.4C174,257.4,168.3,257.4,166.9,257.4z"/>
</g>
<g>
	<path class="st5" d="M135.5,235.1l-3.4-1.5c-0.6-0.3-1.2-0.3-1.8-0.2c-2.2,0.5-7.7,2.2-11.8,6.9l4.3,1.4L135.5,235.1z"/>
	<path class="st5" d="M141.2,235.1l3.4-1.5c0.6-0.3,1.2-0.3,1.8-0.2c2.2,0.5,7.7,2.2,11.8,6.9l-4.3,1.4L141.2,235.1z"/>
	<path class="st5" d="M138.9,236.1l2.6-2.6c0.1-0.1,0.1-0.4,0-0.5s-0.4-0.1-0.5,0l-2.6,2.6l-2.6-2.6c-0.1-0.1-0.4-0.1-0.5,0
		s-0.1,0.4,0,0.5l2.6,2.6l-2.6,2.6c-0.1,0.1-0.1,0.4,0,0.5c0.1,0.1,0.2,0.1,0.3,0.1c0.1,0,0.2,0,0.3-0.1l2.6-2.6l2.6,2.6
		c0.1,0.1,0.2,0.1,0.3,0.1c0.1,0,0.2,0,0.3-0.1c0.1-0.1,0.1-0.4,0-0.5L138.9,236.1z"/>
</g>
<path class="st1" d="M166.9,248.9c0-2.4-2.3-3.5-4.3-3.9v-1.1c-2.7-0.3-4.2-1.3-6.8-3c-1-0.7-2.1-1.5-3.5-2.3c-5-3-8.9-3.5-11.1-3.4
	v2.4h-5.7v-2.4c-2.2-0.1-6.1,0.3-11.1,3.4c-1.4,0.8-2.5,1.6-3.5,2.3c-2.6,1.8-4.1,2.8-6.8,3v1.1c-2,0.5-4.3,1.5-4.3,3.9l4.3-1.4v0.6
	c4-0.3,6.4-1.8,9.2-3.8c1-0.7,2-1.4,3.3-2.2c3.3-2,5.8-2.6,7.4-2.7v2.3h8.5v-2.3c1.7,0.1,4.2,0.8,7.4,2.7c1.3,0.8,2.4,1.5,3.3,2.2
	c2.8,1.9,5.1,3.5,9.2,3.8v-0.6L166.9,248.9z"/>
<path class="st3" d="M155.5,226.4v-1.8h-4c0.7-0.6,1.1-1.3,1.1-2.1c0-3.9-8.9-5-14.2-5s-14.2,1-14.2,5c0,0.8,0.4,1.5,1.1,2.1h-4v1.8
	c-3.5,0.8-6.3,2.6-6.5,2.7l1.6,2.4c0,0,4-2.6,7.8-2.6v-1.4h28.5v1.4c3.8,0,7.7,2.6,7.8,2.6l1.6-2.4
	C161.8,229.1,159,227.2,155.5,226.4z M144.1,224.3v-1.1c0-0.7-0.7-1.2-1.3-1l-4.4,1.1l-4.4-1.1c-0.7-0.2-1.3,0.3-1.3,1v1.1
	c-3.2-0.5-5.1-1.3-5.6-1.7c0.8-0.7,4.5-2.1,11.3-2.1s10.5,1.4,11.3,2.1C149.2,223,147.3,223.8,144.1,224.3z"/>
<g>
	<path class="st1" d="M138.6,242.3l0.4,1.1l1.1,0c0.1,0,0.2,0.2,0.1,0.3l-0.9,0.7l0.3,1.1c0,0.1-0.1,0.3-0.2,0.2l-0.9-0.7l-0.9,0.7
		c-0.1,0.1-0.3,0-0.2-0.2l0.3-1.1l-0.9-0.7c-0.1-0.1-0.1-0.3,0.1-0.3l1.1,0l0.4-1.1C138.3,242.2,138.5,242.2,138.6,242.3z"/>
	<path class="st1" d="M133,242.7l0.5,1l1.1-0.1c0.1,0,0.2,0.2,0.1,0.3l-0.8,0.8l0.5,1c0.1,0.1-0.1,0.3-0.2,0.2l-1-0.6l-0.9,0.8
		c-0.1,0.1-0.3,0-0.3-0.1l0.2-1.1l-1-0.6c-0.1-0.1-0.1-0.3,0.1-0.3l1.1-0.1l0.2-1.1C132.7,242.6,132.9,242.5,133,242.7z"/>
	<path class="st1" d="M127.3,244.2l0.7,0.9l1.1-0.4c0.1,0,0.3,0.1,0.2,0.2l-0.7,0.9l0.7,0.9c0.1,0.1,0,0.3-0.2,0.2l-1.1-0.3
		l-0.7,0.9c-0.1,0.1-0.3,0.1-0.3-0.1l0-1.1l-1.1-0.4c-0.1,0-0.1-0.2,0-0.3l1.1-0.4l0-1.1C127,244.1,127.2,244.1,127.3,244.2z"/>
	<path class="st1" d="M121.5,246.6l0.8,0.8l1-0.5c0.1-0.1,0.3,0.1,0.2,0.2l-0.5,1l0.8,0.8c0.1,0.1,0,0.3-0.1,0.3l-1.1-0.2l-0.5,1
		c-0.1,0.1-0.3,0.1-0.3-0.1l-0.2-1.1l-1.1-0.2c-0.1,0-0.2-0.2,0-0.3l1-0.5l-0.2-1.1C121.2,246.6,121.4,246.5,121.5,246.6z"/>
	<path class="st1" d="M143.9,242.7l-0.5,1l-1.1-0.1c-0.1,0-0.2,0.2-0.1,0.3l0.8,0.8l-0.5,1c-0.1,0.1,0.1,0.3,0.2,0.2l1-0.6l0.9,0.8
		c0.1,0.1,0.3,0,0.3-0.1l-0.2-1.1l1-0.6c0.1-0.1,0.1-0.3-0.1-0.3l-1.1-0.1l-0.2-1.1C144.1,242.6,143.9,242.5,143.9,242.7z"/>
	<path class="st1" d="M149.6,244.2l-0.7,0.9l-1.1-0.4c-0.1,0-0.3,0.1-0.2,0.2l0.7,0.9l-0.7,0.9c-0.1,0.1,0,0.3,0.2,0.2l1.1-0.3
		l0.7,0.9c0.1,0.1,0.3,0.1,0.3-0.1l0-1.1l1.1-0.4c0.1,0,0.1-0.2,0-0.3l-1.1-0.4l0-1.1C149.9,244.1,149.7,244.1,149.6,244.2z"/>
	<path class="st1" d="M155.3,246.6l-0.8,0.8l-1-0.5c-0.1-0.1-0.3,0.1-0.2,0.2l0.5,1L153,249c-0.1,0.1,0,0.3,0.1,0.3l1.1-0.2l0.5,1
		c0.1,0.1,0.3,0.1,0.3-0.1l0.2-1.1l1.1-0.2c0.1,0,0.2-0.2,0-0.3l-1-0.5l0.2-1.1C155.6,246.6,155.4,246.5,155.3,246.6z"/>
</g>
<polygon class="st7" points="128.6,276.5 135.8,281.3 144.6,281.3 148.6,277.8 145.5,279.1 135.2,279.1 "/>
<path class="st1" d="M133.5,270.2l-0.7,7.1l-3.2-1.2C129.6,276.1,131.1,272.6,133.5,270.2z"/>
<g>
	<rect x="139.8" y="267.4" class="st7" width="0.5" height="12"/>
	<rect x="144.1" y="268.4" class="st7" width="0.5" height="11"/>
	<rect x="135.4" y="268.4" class="st7" width="0.5" height="11"/>
</g>
<g>
	<path class="st1" d="M141.5,278.3h-2.9c-0.3,0-0.5-0.2-0.5-0.5v-1.5c0-0.3,0.2-0.5,0.5-0.5h2.9c0.3,0,0.5,0.2,0.5,0.5v1.5
		C142,278,141.8,278.3,141.5,278.3z"/>
	<path class="st1" d="M141.5,274.9h-2.9c-0.3,0-0.5-0.2-0.5-0.5v-1.5c0-0.3,0.2-0.5,0.5-0.5h2.9c0.3,0,0.5,0.2,0.5,0.5v1.5
		C142,274.7,141.8,274.9,141.5,274.9z"/>
	<path class="st1" d="M141.5,271.8h-2.9c-0.3,0-0.5-0.2-0.5-0.5v-1.5c0-0.3,0.2-0.5,0.5-0.5h2.9c0.3,0,0.5,0.2,0.5,0.5v1.5
		C142,271.6,141.8,271.8,141.5,271.8z"/>
	<path class="st1" d="M145.6,278.3h-2.3c-0.3,0-0.5-0.2-0.5-0.5v-1.5c0-0.3,0.2-0.5,0.5-0.5h2.3c0.3,0,0.5,0.2,0.5,0.5v1.5
		C146.1,278,145.9,278.3,145.6,278.3z"/>
	<path class="st1" d="M145.6,275.2h-2.3c-0.3,0-0.5-0.2-0.5-0.5v-1.1c0-0.3,0.2-0.5,0.5-0.5h2.3c0.3,0,0.5,0.2,0.5,0.5v1.1
		C146.1,274.9,145.9,275.2,145.6,275.2z"/>
	<path class="st1" d="M145.6,272.1h-2.3c-0.3,0-0.5-0.2-0.5-0.5v-0.7c0-0.3,0.2-0.5,0.5-0.5h2.3c0.3,0,0.5,0.2,0.5,0.5v0.7
		C146.1,271.9,145.9,272.1,145.6,272.1z"/>
	<path class="st1" d="M136.9,278.3h-2.3c-0.3,0-0.5-0.2-0.5-0.5v-1.5c0-0.3,0.2-0.5,0.5-0.5h2.3c0.3,0,0.5,0.2,0.5,0.5v1.5
		C137.4,278,137.2,278.3,136.9,278.3z"/>
	<path class="st1" d="M136.9,275.2h-2.3c-0.3,0-0.5-0.2-0.5-0.5v-1.1c0-0.3,0.2-0.5,0.5-0.5h2.3c0.3,0,0.5,0.2,0.5,0.5v1.1
		C137.4,274.9,137.2,275.2,136.9,275.2z"/>
	<path class="st1" d="M136.9,272.1h-2.3c-0.3,0-0.5-0.2-0.5-0.5v-0.7c0-0.3,0.2-0.5,0.5-0.5h2.3c0.3,0,0.5,0.2,0.5,0.5v0.7
		C137.4,271.9,137.2,272.1,136.9,272.1z"/>
	<polygon class="st1" points="135.9,268.4 135.9,269.9 138,269.1 	"/>
	<polygon class="st1" points="144.6,268.4 144.6,269.9 146.7,269.1 	"/>
	<polygon class="st1" points="140.3,267.4 140.3,268.8 142.3,268.1 	"/>
</g>
<polygon class="st7" points="134.7,257.8 137.2,259.5 140.3,259.5 141.7,258.3 140.6,258.7 137,258.7 "/>
<path class="st1" d="M136.4,255.6l-0.2,2.5l-1.1-0.4C135.1,257.7,135.6,256.5,136.4,255.6z"/>
<g>
	<rect x="138.6" y="254.6" class="st7" width="0.2" height="4.2"/>
	<rect x="140.1" y="255" class="st7" width="0.2" height="3.8"/>
	<rect x="137.1" y="255" class="st7" width="0.2" height="3.8"/>
</g>
<g>
	<path class="st1" d="M139.2,258.4h-1c-0.1,0-0.2-0.1-0.2-0.2v-0.5c0-0.1,0.1-0.2,0.2-0.2h1c0.1,0,0.2,0.1,0.2,0.2v0.5
		C139.4,258.4,139.3,258.4,139.2,258.4z"/>
	<path class="st1" d="M139.2,257.3h-1c-0.1,0-0.2-0.1-0.2-0.2v-0.5c0-0.1,0.1-0.2,0.2-0.2h1c0.1,0,0.2,0.1,0.2,0.2v0.5
		C139.4,257.2,139.3,257.3,139.2,257.3z"/>
	<path class="st1" d="M139.2,256.2h-1c-0.1,0-0.2-0.1-0.2-0.2v-0.5c0-0.1,0.1-0.2,0.2-0.2h1c0.1,0,0.2,0.1,0.2,0.2v0.5
		C139.4,256.1,139.3,256.2,139.2,256.2z"/>
	<path class="st1" d="M140.6,258.4h-0.8c-0.1,0-0.2-0.1-0.2-0.2v-0.5c0-0.1,0.1-0.2,0.2-0.2h0.8c0.1,0,0.2,0.1,0.2,0.2v0.5
		C140.8,258.4,140.7,258.4,140.6,258.4z"/>
	<path class="st1" d="M140.6,257.4h-0.8c-0.1,0-0.2-0.1-0.2-0.2v-0.4c0-0.1,0.1-0.2,0.2-0.2h0.8c0.1,0,0.2,0.1,0.2,0.2v0.4
		C140.8,257.3,140.7,257.4,140.6,257.4z"/>
	<path class="st1" d="M140.6,256.3h-0.8c-0.1,0-0.2-0.1-0.2-0.2v-0.2c0-0.1,0.1-0.2,0.2-0.2h0.8c0.1,0,0.2,0.1,0.2,0.2v0.2
		C140.8,256.2,140.7,256.3,140.6,256.3z"/>
	<path class="st1" d="M137.6,258.4h-0.8c-0.1,0-0.2-0.1-0.2-0.2v-0.5c0-0.1,0.1-0.2,0.2-0.2h0.8c0.1,0,0.2,0.1,0.2,0.2v0.5
		C137.8,258.4,137.7,258.4,137.6,258.4z"/>
	<path class="st1" d="M137.6,257.4h-0.8c-0.1,0-0.2-0.1-0.2-0.2v-0.4c0-0.1,0.1-0.2,0.2-0.2h0.8c0.1,0,0.2,0.1,0.2,0.2v0.4
		C137.8,257.3,137.7,257.4,137.6,257.4z"/>
	<path class="st1" d="M137.6,256.3h-0.8c-0.1,0-0.2-0.1-0.2-0.2v-0.2c0-0.1,0.1-0.2,0.2-0.2h0.8c0.1,0,0.2,0.1,0.2,0.2v0.2
		C137.8,256.2,137.7,256.3,137.6,256.3z"/>
	<polygon class="st1" points="137.2,255 137.2,255.5 138,255.3 	"/>
	<polygon class="st1" points="140.3,255 140.3,255.5 141,255.3 	"/>
	<polygon class="st1" points="138.8,254.7 138.8,255.1 139.5,254.9 	"/>
	<path class="st1" d="M132.9,250.3h-1.8c-0.7,0-1.2-0.5-1.2-1.2l0,0c0-0.7,0.5-1.2,1.2-1.2h1.8c0.7,0,1.2,0.5,1.2,1.2l0,0
		C134.1,249.8,133.6,250.3,132.9,250.3z"/>
	<path class="st1" d="M147,250.3h-1.2c-0.7,0-1.2-0.5-1.2-1.2l0,0c0-0.7,0.5-1.2,1.2-1.2h1.2c0.7,0,1.2,0.5,1.2,1.2l0,0
		C148.2,249.8,147.6,250.3,147,250.3z"/>
	<path class="st1" d="M155.6,252.1h-1.1c-0.4,0-0.7-0.3-0.7-0.7v-0.1c0-0.4,0.3-0.7,0.7-0.7h1.1c0.4,0,0.7,0.3,0.7,0.7v0.1
		C156.3,251.8,156,252.1,155.6,252.1z"/>
</g>
</svg>
