<svg version="1.1" id="Layer_1" xmlns="http://www.w3.org/2000/svg" x="0" y="0" viewBox="0 0 512 512" xml:space="preserve"><style>.st1{fill:#fff}.st2{fill:#002a8f}</style><path fill="#cf142b" d="M0 88.3v336l260.8-168z"/><path class="st1" d="M88.5 213.4l9.1 27.2 28.6.2c2.2 0 3.1 2.8 1.4 4.2l-23 17 8.6 27.3c.7 2.1-1.7 3.9-3.5 2.6l-23.3-16.7L63 291.9c-1.8 1.3-4.2-.5-3.5-2.6l8.6-27.3-23-17c-1.8-1.3-.9-4.2 1.4-4.2l28.6-.2 9.1-27.2c.6-2.1 3.6-2.1 4.3 0z"/><path class="st2" d="M105.3 356.4L1 423.6h511v-67.2z"/><path class="st1" d="M209.4 289.4l-104.3 67.2H512v-67.2z"/><path class="st2" d="M208.2 222.4l52.6 33.9-51.6 33.3H512v-67.2z"/><path class="st1" d="M104.1 155.3l104.3 67.2H512v-67.2z"/><path class="st2" d="M0 88.3l104.3 67.2H512V88.3z"/></svg>