<svg version="1.1" id="Layer_1" xmlns="http://www.w3.org/2000/svg" x="0" y="0" viewBox="0 0 512 512" xml:space="preserve"><style>.st0{fill:#003893}.st1{fill:#fff}.st3{fill:#f7d116}</style><path class="st0" d="M0 353.1h512v70.6H0zM0 88.3h512v194.8H0z"/><path class="st1" d="M0 282.5h512V306H0zM0 329.6h512v23.5H0z"/><path fill="#cf2027" d="M0 306h512v23.5H0z"/><path class="st3" d="M169.6 234.7l2.7 8.1 8.6.1c.7 0 .9.9.4 1.2l-6.9 5.1 2.6 8.2c.2.6-.5 1.2-1.1.8l-7-5-7 5c-.5.4-1.3-.1-1.1-.8l2.6-8.2-6.9-5.1c-.5-.4-.3-1.2.4-1.2l8.6-.1 2.7-8.1c.3-.7 1.2-.7 1.4 0zM169.6 377.3l2.7 8.1 8.6.1c.7 0 .9.9.4 1.2l-6.9 5.1 2.6 8.2c.2.6-.5 1.2-1.1.8l-7-5-7 5c-.5.4-1.3-.1-1.1-.8l2.6-8.2-6.9-5.1c-.5-.4-.3-1.2.4-1.2l8.6-.1 2.7-8.1c.3-.6 1.2-.6 1.4 0zM123.3 385.3l6.9-5.1 7 4.9c.5.4 1.3-.2 1-.8l-2.7-8.1 6.8-5.2c.5-.4.2-1.2-.4-1.2l-8.6.1-2.8-8.1c-.2-.6-1.1-.6-1.3 0l-2.6 8.2-8.6.2c-.7 0-.9.9-.4 1.3l7 5-2.4 8.2c-.1.5.6 1 1.1.6zM137.1 269.3l-7-4.9-6.9 5c-.5.4-1.3-.1-1.1-.8l2.5-8.2-6.9-5c-.5-.4-.3-1.2.4-1.2l8.6-.1 2.7-8.1c.2-.6 1.1-.6 1.3 0l2.7 8.1h8.6c.7 0 .9.8.4 1.2l-6.9 5.1 2.6 8.1c.3.7-.5 1.2-1 .8zM201.6 269.4l6.9-5.1 7 4.9c.5.4 1.3-.2 1-.8l-2.7-8.1 6.8-5.2c.5-.4.2-1.2-.4-1.2l-8.6.1-2.8-8.1c-.2-.6-1.1-.6-1.3 0l-2.6 8.2-8.6.2c-.7 0-.9.9-.4 1.3l7 5-2.4 8.2c-.2.5.5 1 1.1.6zM215.3 385.2l-7-4.9-6.9 5c-.5.4-1.3-.1-1.1-.8l2.5-8.2-6.9-5c-.5-.4-.3-1.2.4-1.2l8.6-.1 2.7-8.1c.2-.6 1.1-.6 1.3 0l2.7 8.1h8.6c.7 0 .9.8.4 1.2l-6.9 5.1 2.6 8.1c.3.6-.4 1.2-1 .8zM113.1 335.3l-8.6.1-2.8-8.1c-.2-.6-1.1-.6-1.3 0l-2.6 8.2-8.6.2c-.7 0-.9.9-.4 1.3l7 5-2.5 8.2c-.2.6.5 1.1 1.1.8l6.9-5.1 7 4.9c.5.4 1.3-.2 1-.8l-2.7-8.1 6.8-5.2c.7-.5.4-1.4-.3-1.4zM89.3 291.3l8.6-.2 2.6-8.1c.2-.6 1.1-.6 1.3 0l2.8 8.1h8.6c.7 0 .9.8.4 1.2l-6.8 5.2 2.7 8.1c.2.6-.5 1.2-1.1.8l-7-4.9-6.9 5.1c-.5.4-1.3-.1-1.1-.8l2.5-8.2-6.9-5c-.7-.4-.4-1.2.3-1.3zM248.7 291l-8.6.1-2.8-8.1c-.2-.6-1.1-.6-1.3 0l-2.6 8.2-8.6.2c-.7 0-.9.9-.4 1.3l7 5-2.5 8.2c-.2.6.5 1.1 1.1.8l6.9-5.1 7 4.9c.5.4 1.3-.2 1-.8l-2.7-8.1 6.8-5.2c.6-.5.4-1.4-.3-1.4zM224.9 335.6l8.6-.2 2.6-8.1c.2-.6 1.1-.6 1.3 0l2.8 8.1h8.6c.7 0 .9.8.4 1.2l-6.8 5.2 2.7 8.1c.2.6-.5 1.2-1.1.8l-7-4.9-6.9 5.1c-.5.4-1.3-.1-1.1-.8l2.5-8.2-6.9-5c-.7-.4-.4-1.2.3-1.3z"/></svg>