<?xml version="1.0" encoding="utf-8"?>
<!-- Generator: Adobe Illustrator 25.0.0, SVG Export Plug-In . SVG Version: 6.00 Build 0)  -->
<svg version="1.1" id="Layer_1" xmlns="http://www.w3.org/2000/svg" xmlns:xlink="http://www.w3.org/1999/xlink" x="0px" y="0px"
	 viewBox="0 0 512 512" style="enable-background:new 0 0 512 512;" xml:space="preserve">
<style type="text/css">
	.st0{fill:#002680;}
	.st1{fill:#F9E90D;}
	.st2{fill:#FFFFFF;}
</style>
<polygon class="st0" points="0,88 0,130 0,172 0,214 0,256 0,298 512,298 512,256 512,214 512,172 512,130 512,88 "/>
<rect y="298" class="st1" width="512" height="42"/>
<polygon class="st0" points="0,340 0,382 0,424 512,424 512,382 512,340 "/>
<g id="Group" transform="translate(52.000000, 32.000000)">
	<polygon id="Path" class="st2" points="98.9,134.2 109.8,167.9 145.2,167.9 116.6,188.7 127.5,222.3 98.9,201.5 70.3,222.3 
		81.2,188.7 52.6,167.9 88,167.9 	"/>
	<polygon id="Path_1_" class="st2" points="28.4,88.5 35,108.7 56.1,108.7 39,121.2 45.6,141.3 28.4,128.9 11.2,141.3 17.8,121.2 
		0.6,108.7 21.9,108.7 	"/>
</g>
</svg>
