<svg version="1.1" id="Layer_1" xmlns="http://www.w3.org/2000/svg" x="0" y="0" viewBox="0 0 512 512" xml:space="preserve"><style>.st0{fill:#1b8a42}.st2{fill:#fff}.st3{fill:#ffc639}</style><path class="st0" d="M512 424.3L0 88.3h512z"/><path fill="#0021ad" d="M512 424.3H0v-336z"/><path class="st2" d="M38.6 256.6l3.1 7.8 8-2.4c.4-.1.8.3.6.7l-4.2 7.2 6.9 4.7c.4.3.2.9-.2.9l-8.2 1.3.6 8.3c0 .5-.5.7-.9.4l-6.1-5.7-6.1 5.7c-.3.3-.9 0-.9-.4l.6-8.3-8.2-1.3c-.5-.1-.6-.7-.2-.9l6.9-4.7-4.2-7.2c-.2-.4.1-.9.6-.7l8 2.4 3.1-7.8c0-.4.6-.4.8 0zM150.2 235.7l3.1 7.8 8-2.4c.4-.1.8.3.6.7l-4.2 7.2 6.9 4.7c.4.3.2.9-.2.9l-8.2 1.3.6 8.3c0 .5-.5.7-.9.4l-6.1-5.7-6.1 5.7c-.3.3-.9 0-.9-.4l.6-8.3-8.2-1.3c-.5-.1-.6-.7-.2-.9l6.9-4.7-4.2-7.2c-.2-.4.1-.9.6-.7l8 2.4 3.1-7.8c0-.5.6-.5.8 0zM94.4 185.4l3.1 7.8 8-2.4c.4-.1.8.3.6.7l-4.2 7.2 6.9 4.7c.4.3.2.9-.2.9l-8.2 1.3.6 8.3c0 .5-.5.7-.9.4l-6.1-5.7-6.1 5.7c-.3.3-.9.1-.9-.4l.6-8.3-8.2-1.3c-.5-.1-.6-.7-.2-.9l6.9-4.7-4.2-7.2c-.2-.4.1-.9.6-.7l8 2.4 3.1-7.8c0-.5.6-.5.8 0zM94.4 368.2l3.1 7.8 8-2.4c.4-.1.8.3.6.7l-4.2 7.2 6.9 4.7c.4.3.2.9-.2.9l-8.2 1.3.6 8.3c0 .5-.5.7-.9.4l-6.1-5.7-6.1 5.7c-.3.3-.9 0-.9-.4l.6-8.3-8.2-1.3c-.5-.1-.6-.7-.2-.9l6.9-4.7-4.2-7.2c-.2-.4.1-.9.6-.7l8 2.4 3.1-7.8c0-.5.6-.5.8 0zM117.2 263.6l2.1 6.4 6.8.1c.5 0 .7.7.3 1l-5.4 4 2 6.4c.2.5-.4.9-.8.6l-5.5-3.9-5.5 3.9c-.4.3-1-.1-.8-.6l2-6.4-5.4-4c-.4-.3-.2-1 .3-1l6.8-.1 2.1-6.4c.2-.5.9-.5 1 0z"/><g><circle class="st3" cx="256" cy="256" r="53"/><path class="st0" d="M224.6 233.2c-2.2-.5-4.3 5.1-1.9 7s6.8 5.5 4.1 7.7-3.6 2.4-4.1 5.1c-.5 2.7 0 3.1-2.2 4.3s-7.2 3.6-5.1 6 5.1 1 7-2.9c0 0 13.5-.5 14 .5s1.7 4.6 4.6 3.6l2.9-1s1.7-.7 2.9.7 4.1 1.9 7.5 1.9 6.3 1.9 6 6.5c-.2 2.9-.9 9-1.4 13.1-.3 2.1 1.2 4.1 3.3 4.5l6.2 1c1.6.3 3.1-.9 3.3-2.5.3-3.3.7-8.1.7-8.3-.1-1.7 3.4-10.6 3.1-14.7l-.2-4.1s3.6-.5 5.1-2.9 4.6-8.4 10.9-10.6l1.7-4.1s-4.8-2.2-3.9-3.6c1-1.4 1.4-5.3.7-8.4s-1-7.5-1-7.5-1.7-.7-2.1.3-.7 1.5-1.6 1.4c-.9-.2-2.3-.3-2.6-1.1-.4-.8-1.4-1.6-2.3-1.2-.9.5-2.5 6.5-4.6 7.2 0 0-.2-2.6-1.5-2.1s-1.3 1.8-1.5 4.1-15.4 17.6-28.8 13.5c0 0-1.5-2.9-4.5-2.6-3 .3-5.9.2-7.6-1.9-1.8-2.1-4.5-8.3-7.1-8.9z"/></g><path class="st3" d="M322.8 258.5c4 4.3 48.2 16.3 92.9-7.1s71.3-30.1 71.3-30.1.4-6 5.9-6.9c5.5-.9 2.8-3.2 1.4-5s-8.3-6.6-17.7-2.5c0 0-10.9.4-12.6-14.7s-2.4-30.5-6.1-37.1c-3.8-6.6-35-39.7-38.8-37.1s9.5 35.5 21.8 47.1c0 0 2.8 20.3-.7 21.3-3.5.9-23.2-17-58.2-21.3 0 0 14.9 20.3 33.1 28.9 18.2 8.5 23.2 16.3 22.7 19.6-.5 3.3-6.6 19.2-16.8 26.5-10.2 7.3-35.7 27.2-93.6 16.8-.1-.2-6.5-.5-4.6 1.6z"/></svg>