<?xml version="1.0" encoding="utf-8"?>
<!-- Generator: Adobe Illustrator 25.0.0, SVG Export Plug-In . SVG Version: 6.00 Build 0)  -->
<svg version="1.1" id="Layer_1" xmlns="http://www.w3.org/2000/svg" xmlns:xlink="http://www.w3.org/1999/xlink" x="0px" y="0px"
	 viewBox="0 0 512 512" style="enable-background:new 0 0 512 512;" xml:space="preserve">
<style type="text/css">
	.st0{fill:#FFFFFF;}
	.st1{fill:#12AD2B;}
	.st2{fill:#6AB2E7;}
	.st3{fill:#D7141A;}
</style>
<polygon class="st0" points="0,88 0,424 256,256 "/>
<polygon class="st1" points="255.8,255.9 256,256 0.2,423.9 512,423.9 512,255.9 "/>
<polygon class="st2" points="0,88 256,256 512,256 512,88 "/>
<path class="st3" d="M91.8,216.1l-8.9,26.8l-28.3,0.2c-1.5,0-2.2,2-0.9,2.9l22.7,16.8l-8.5,26.9c-0.5,1.5,1.2,2.7,2.5,1.8l23-16.4
	l23,16.4c1.3,0.9,2.9-0.3,2.5-1.8l-8.5-26.9l22.7-16.8c1.2-0.9,0.6-2.9-0.9-2.9l-28.3-0.2l-8.9-26.8
	C94.3,214.7,92.3,214.7,91.8,216.1z"/>
</svg>
