<svg version="1.1" id="Layer_1" xmlns="http://www.w3.org/2000/svg" x="0" y="0" viewBox="0 0 512 512" xml:space="preserve"><style>.st0{fill:#fcd116}.st1{fill:#fff}.st2{fill:#006b3f}.st4{fill:#9461c9}</style><path d="M244.2 88.3h23.5v336h-23.5z"/><path class="st0" d="M220.7 88.3h23.5v336h-23.5z"/><path class="st1" d="M267.8 88.3h23.5v336h-23.5z"/><path transform="rotate(90 256 256)" d="M244.2 0h23.5v512h-23.5z"/><path transform="rotate(90 256 232.46)" class="st0" d="M244.2-23.5h23.5v512h-23.5z"/><path transform="rotate(90 256 279.54)" class="st1" d="M244.2 23.5h23.5v512h-23.5z"/><path class="st2" d="M291.3 291.3H512v133H291.3zM291.3 88.3H512v132.4H291.3zM0 88.3h220.7v132.4H0zM0 291.3h220.7v133H0z"/><g id="shield"><circle cx="256" cy="256" r="88.3" fill="#d41c30"/><path class="st2" d="M248.4 271.2s-1 7.2 6 17.9H268l-3.1-13-16.5-4.9z"/><path class="st4" d="M247.5 222.9s-22.3 36.4 10.4 58.1l3.4-20.6 2.2-26.7-3.4-11.4-12.6.6z"/><path class="st2" d="M247.5 222.9s-2.5 4.2-4.7 10.6c2.9 3 10.7 6.7 20.3 5.1l.4-4.8-3.4-11.4-12.6.5z"/><path class="st4" d="M243.2 217.6s.3-7.3 7.4-7.3c8.9 0 16.2 2.1 27.8 26 0 0-10.3 10.1-16.8-3.8-1.9-4.1-2.6-9.1-2.6-9.1s-8 2.7-13.5-.4l-2.3-5.4z"/><path class="st0" d="M246.8 221.1l-1.6-4.4s-9.2-1.5-5.4 9.6c0 0 .3-2.2 2.6-1.9 2.3.3 4.8-1.5 4.4-3.3z"/><path class="st2" d="M262.2 262.9s-9.7 7.6-4.3 25.4c2.9 9.5 14.4 19.9 14.4 19.9s8.6-22.4 5.8-31c-1.6-5.1-15.9-14.3-15.9-14.3z"/><path class="st2" d="M280.6 291.6s-25-23.8-26.7-42.6 9.2-15.8 11.1-14.6c4.7 2.9 16.5 15 15.6 57.2z"/><path d="M277.5 297.1h-41.4c-.9 0-1.6-.7-1.6-1.6v-3.1c0-.9.7-1.6 1.6-1.6h41.4c.9 0 1.6.7 1.6 1.6v3.1c-.1.9-.8 1.6-1.6 1.6z" fill="#b34900"/><path class="st0" d="M267.4 291.2c-1.4.6-4.3 1.3-3.6 3.9.6 2 4.3 1.8 3.6 4-.5 1.5-8.2 1.7-11.1 1.2-1.8-.3-5.8-1.3-5.2-5.9.6-4.5 2.2-5.2 4.3-6 2-.8 11-.6 12.3.5.6.6.8 1.8-.3 2.3z"/><g><path class="st2" d="M256.8 177.1l2 6 6.4.1c.8 0 1.2 1.1.5 1.5l-5.1 3.8 1.9 6.1c.2.8-.6 1.4-1.3 1l-5.2-3.7-5.2 3.7c-.7.5-1.6-.2-1.3-1l1.9-6.1-5.1-3.8c-.7-.5-.3-1.5.5-1.5l6.4-.1 2-6c.2-.7 1.4-.7 1.6 0zM256.8 318l2 6h6.4c.8 0 1.2 1.1.5 1.5l-5.1 3.8 1.9 6.1c.2.8-.6 1.4-1.3 1l-5.2-3.7-5.2 3.7c-.7.5-1.6-.2-1.3-1l1.9-6.1-5.1-3.8c-.7-.5-.3-1.5.5-1.5h6.4l2-6c.2-.8 1.4-.8 1.6 0z"/><path class="st2" d="M256.8 177.1l2 6 6.4.1c.8 0 1.2 1.1.5 1.5l-5.1 3.8 1.9 6.1c.2.8-.6 1.4-1.3 1l-5.2-3.7-5.2 3.7c-.7.5-1.6-.2-1.3-1l1.9-6.1-5.1-3.8c-.7-.5-.3-1.5.5-1.5l6.4-.1 2-6c.2-.7 1.4-.7 1.6 0zM256.8 318l2 6h6.4c.8 0 1.2 1.1.5 1.5l-5.1 3.8 1.9 6.1c.2.8-.6 1.4-1.3 1l-5.2-3.7-5.2 3.7c-.7.5-1.6-.2-1.3-1l1.9-6.1-5.1-3.8c-.7-.5-.3-1.5.5-1.5h6.4l2-6c.2-.8 1.4-.8 1.6 0zM207.7 191.6l1.8 6.1-5.2 3.6c-.7.5-.4 1.5.5 1.6l6.3.2 1.9 6.1c.2.8 1.3.8 1.6 0l2.2-6 6.4.1c.8 0 1.2-1 .5-1.5l-5-3.9 2.1-6c.3-.8-.6-1.4-1.3-1l-5.3 3.6-5.1-3.8c-.7-.5-1.6.1-1.4.9zM287.6 307.6l1.8 6.1-5.2 3.6c-.7.5-.4 1.5.5 1.6l6.3.2 1.9 6.1c.2.8 1.3.8 1.6 0l2.2-6 6.4.1c.8 0 1.2-1 .5-1.5l-5-3.9 2.1-6c.3-.8-.6-1.4-1.3-1l-5.3 3.6-5.1-3.8c-.7-.5-1.6.1-1.4.9zM177.9 232l5.1 3.8-2 6c-.3.8.6 1.4 1.3 1l5.2-3.6 5.1 3.7c.7.5 1.6-.2 1.3-.9l-1.9-6.1 5.1-3.7c.7-.5.3-1.5-.5-1.5l-6.4-.1-1.9-6c-.3-.8-1.4-.8-1.6 0l-2.1 6h-6.4c-.6-.1-1 .9-.3 1.4zM311.4 276.9l5.1 3.8-2 6c-.3.8.6 1.4 1.3 1l5.2-3.6 5.1 3.7c.7.5 1.6-.2 1.3-.9l-1.9-6.1 5.1-3.7c.7-.5.3-1.5-.5-1.5l-6.4-.1-1.9-6c-.3-.8-1.4-.8-1.6 0l-2.1 6h-6.4c-.6-.2-1 .9-.3 1.4zM300.9 191.6l-1.8 6.1 5.2 3.6c.7.5.4 1.5-.5 1.6l-6.3.2-1.9 6.1c-.2.8-1.3.8-1.6 0l-2.2-6-6.4.1c-.8 0-1.2-1-.5-1.5l5-3.9-2.1-6c-.3-.8.6-1.4 1.3-1l5.3 3.6 5.1-3.8c.7-.5 1.6.1 1.4.9zM221.1 307.6l-1.8 6.1 5.2 3.6c.7.5.4 1.5-.5 1.6l-6.3.2-1.9 6.1c-.2.8-1.3.8-1.6 0l-2.2-6-6.4.1c-.8 0-1.2-1-.5-1.5l5-3.9-2.1-6c-.3-.8.6-1.4 1.3-1l5.3 3.6 5.1-3.8c.7-.5 1.6.1 1.4.9zM330.8 232l-5.1 3.8 2 6c.3.8-.6 1.4-1.3 1l-5.2-3.6-5.2 3.8c-.7.5-1.6-.2-1.3-.9l1.9-6.1-5.1-3.7c-.7-.5-.3-1.5.5-1.5l6.4-.1 1.9-6c.3-.8 1.4-.8 1.6 0l2.1 6h6.4c.7-.2 1 .8.4 1.3zM197.2 276.9l-5.1 3.8 2 6c.3.8-.6 1.4-1.3 1l-5.2-3.6-5.1 3.7c-.7.5-1.6-.2-1.3-.9l1.9-6.1-5.1-3.7c-.7-.5-.3-1.5.5-1.5l6.4-.1 1.9-6c.3-.8 1.4-.8 1.6 0l2.1 6h6.4c.7-.2 1 .9.3 1.4z"/></g></g></svg>