<svg version="1.1" id="Layer_1" xmlns="http://www.w3.org/2000/svg" x="0" y="0" viewBox="0 0 512 512" xml:space="preserve"><style>.st1{fill:#002d62}.st2{fill:#ce1126}.st3{fill:#008337}.st4{fill:#c9576d}.st5{fill:#2d5984}.st6{fill:#f5f5f5}.st7{fill:#eac102}</style><path fill="#fff" d="M512 221H291.3V88.3h-70.6V221H0v70.6h220.7v132.7h70.6V291.6H512z"/><path class="st1" d="M0 88.3h220.7V221H0z"/><path class="st2" d="M291.3 88.3H512V221H291.3zM0 291.6h220.7v132.7H0z"/><path class="st1" d="M291.3 291.6H512v132.7H291.3z"/><g id="shield"><path class="st3" d="M250.9 281.2s5.3 1.9 4.6 8.6h2.1s-1.3-7.7-2.5-8.6-4.2 0-4.2 0z"/><path class="st3" d="M256.2 280.1c-2.2 0-6.1 0-10.3-1.1.9-1 2.2-2.9 2.2-6.2 0-5.2-3.6-1.9-3.6-1.9s-2.4 2-.9 7.4c-1.4-.5-2.8-1.2-4.1-2.1.8-1 2.5-3.5 3.4-7.3 0 0-6-1.2-7.7 3.3-1-1.3-1.9-2.7-2.6-4.3 1.5 0 3.7-1 3.7-6.9 0 0-3.9 0-5 3.4-.4-1.4-.7-3-1-4.6 1.6.5 5.6.8 5.6-8 0 0-4.9 0-6 4.3-.1-1.1-.1-2.2-.1-3.4 2.4-1.2 5.6-4 5.3-9.6 0 0-2.2.5-4.3 2.2.4-2.1.2-5.2-3-7.8 0 0-3 5.3 1.4 9.6-.4.5-.7 1.1-1 1.8-1-1.5-2.6-2.9-5.1-3.7 0 0-1.2 7.1 5.4 10 .2 4.1.8 7.8 1.9 11-1.9-1.7-3.4-4-3.4-4 0-7.9-6.5-8.1-6.5-8.1-1.2 9 5.4 9.3 5.4 9.3l3.6 4c-7.9-1.3-7.9 5.2-7.9 5.2 5.2 1.3 7.9-1.3 7.9-1.3l2.8 1.5c-5 .1-6.8 5.1-6.8 5.1 6.3 1.1 11-.4 12.5-1.1 6.4 4.5 14.2 4.5 17.9 4.5l.3-1.2z"/><path class="st3" d="M255.8 280.1c2.2 0 6.1 0 10.3-1.1-.9-1-2.2-2.9-2.2-6.2 0-5.2 3.6-1.9 3.6-1.9s2.4 2 .9 7.4c1.4-.5 2.8-1.2 4.1-2.1-.8-1-2.5-3.5-3.4-7.3 0 0 6-1.2 7.7 3.3 1-1.3 1.9-2.7 2.6-4.3-1.5 0-3.7-1-3.7-6.9 0 0 3.9 0 5 3.4.4-1.4.7-3 1-4.6-1.6.5-5.6.8-5.6-8 0 0 4.9 0 6 4.3.1-1.1.1-2.2.1-3.4-2.4-1.2-5.6-4-5.3-9.6 0 0 2.2.5 4.3 2.2-.4-2.1-.2-5.2 3-7.8 0 0 3 5.3-1.4 9.6.4.5.7 1.1 1 1.8 1-1.5 2.6-2.9 5.1-3.7 0 0 1.2 7.1-5.4 10-.2 4.1-.8 7.8-1.9 11 1.9-1.7 3.4-4 3.4-4 0-7.9 6.5-8.1 6.5-8.1 1.2 9-5.4 9.3-5.4 9.3l-3.6 4c7.9-1.3 7.9 5.2 7.9 5.2-5.2 1.3-7.9-1.3-7.9-1.3l-2.8 1.5c5 .1 6.8 5.1 6.8 5.1-6.3 1.1-11-.4-12.5-1.1-6.4 4.5-14.2 4.5-17.9 4.5l-.3-1.2z"/><path class="st1" d="M233.9 223c-4.6 3-8.7 6.7-12 11.2 1.4 1 2.8 2.1 4.2 3.1 2.9-3.9 6.5-7.2 10.6-9.9l-2.8-4.4z"/><path class="st4" d="M256 257.1h18.4v10.5c0 2.9-2.3 5.2-5.2 5.2h-7.9c-2.2 0-4.1 1.1-5.2 2.7l-.1-18.4z"/><path class="st5" d="M260 245.3v-14.5h19.6l-5.2 5.3v14.4H260z"/><path class="st6" d="M267.8 250.5h6.6v6.6h-6.6z"/><path class="st4" d="M256 257.1h-18.4v10.5c0 2.9 2.3 5.2 5.2 5.2h7.9c2.2 0 4.1 1.1 5.2 2.7l.1-18.4z"/><path class="st6" d="M252.7 273.1c1.3.4 2.4 1.2 3.2 2.3h.1c.8-1.1 1.9-1.9 3.2-2.3v-10.8h-6.6l.1 10.8z"/><path class="st5" d="M252.1 245.3v-14.5h-19.7l5.2 5.3v14.4h14.5z"/><path class="st6" d="M237.6 250.5h6.6v6.6h-6.6z"/><path class="st1" d="M244.2 237.4v3.9l3.9 2.6v-2.6z"/><path class="st6" d="M248.1 241.3v4l5.3 2.6v-1.3z"/><path class="st1" d="M267.8 237.4v3.9l-3.9 2.6v-2.6z"/><path class="st6" d="M263.9 241.3v4l-5.3 2.6v-1.3z"/><path class="st2" d="M263.9 266.2h-15.8c-3.6 0-6.5-2.9-6.5-6.6v-20.3l14.5 9.8 14.3-9.8v20.3c0 3.7-2.9 6.6-6.5 6.6z"/><path class="st1" d="M246.8 242.6l-5.2-3.9v14.4l5.2 2.7zM265.2 242.6l5.2-3.9v14.4l-5.2 2.7zM248.1 255.8h15.7v6.6h-15.7z"/><path class="st2" d="M248.1 243.9l7.9 4 7.9-4v11.9h-15.8z"/><path class="st6" d="M261.9 245.2v13.2c0 1.1-.9 2-2 2H252c-1.1 0-2-.9-2-2v-13.1l-3.9-2.6v15.8c0 3.3 2.6 5.9 5.9 5.9h7.9c3.3 0 5.9-2.6 5.9-5.9v-15.9l-3.9 2.6z"/><path class="st6" d="M263.3 254.4c-2.2.2-4.7.4-7.3 1.3-2.6-.9-5.1-1.1-7.3-1.3-3.7-.3-5.9-.7-7.1-2.9v3.8c1.9 1.3 4.4 1.5 6.9 1.7 2.3.2 4.6.4 7 1.3l.5.2.5-.2c2.4-.9 4.8-1.1 7-1.3 2.5-.2 5-.5 6.9-1.7v-3.8c-1.2 2.2-3.4 2.5-7.1 2.9z"/><path class="st7" d="M258.6 242h-1.9v-2h-1.3v2h-2v1.3h2v5.9h1.3v-5.9h1.9z"/><path transform="rotate(-45.001 249.204 242.155)" d="M248.7 234h1v16.3h-1z"/><path class="st7" d="M241.3 234.2l1.4 2.9 1.5-1.4z"/><path transform="rotate(-36.07 250.843 241.039)" d="M250.3 232.9h1v16.3h-1z"/><path class="st7" d="M244.2 232l1 3.1 1.7-1.2z"/><path transform="rotate(-55.075 247.902 243.519)" d="M247.4 235.4h1v16.3h-1z"/><path class="st7" d="M238.7 237.1l1.9 2.6 1.2-1.7z"/><path transform="rotate(-45.001 262.82 242.146)" d="M254.7 241.6H271v1h-16.3z"/><path class="st7" d="M270.7 234.2l-1.4 2.9-1.4-1.4z"/><path transform="rotate(-53.928 261.198 241.03)" d="M253 240.5h16.3v1H253z"/><path class="st7" d="M267.8 232l-1 3.1-1.6-1.2z"/><path transform="rotate(-34.925 264.137 243.534)" d="M256 243h16.3v1H256z"/><path class="st7" d="M273.3 237.1l-1.9 2.6-1.2-1.7z"/><path class="st6" d="M255.3 272.4s-5.1-5.4-4.1-10.5c.8-4 3.2-8.5 5.1-9.5 0 0 2.7-.2 2 2.1-.7 2.3-1.5 2.9-1.2 5.2.4 4 1 8.7-1.8 12.7z"/><path class="st1" d="M256.9 252.5h-.6c-1.9 1.1-4.3 5.5-5.1 9.5-.4 2.3.4 4.6 1.4 6.5-.6-8.2 1.8-11.1 4.3-16z"/><path class="st2" d="M257.1 259.8c-.2-2.3.6-2.9 1.2-5.2.5-1.6-.7-2-1.4-2.1 0 0-1.7 3.9-1.8 6.5-.1 2.3.5 11.6.3 13.5 2.7-4.1 2.1-8.8 1.7-12.7z"/><path d="M253.6 254.4c1.1-1 2.5-1.5 4-1.2-.7-2.2-1.4-4.4-2.1-6.7-1.5-.2-2.9.2-4 1.2.8 2.3 1.4 4.5 2.1 6.7z" fill="#f5f0f0"/><path class="st6" d="M257.6 253.2c1.1-1 2.5-1.5 4-1.2-.7-2.2-1.4-4.4-2.1-6.7-1.5-.2-2.9.2-4 1.2.8 2.2 1.4 4.5 2.1 6.7z"/><path class="st5" d="M250 224.4c-7.1-.2-14.2 1.6-20.4 5.1-.9-1.5-1.7-3.1-2.6-4.6 7-3.9 15-5.9 23.1-5.7 0 1.7 0 3.4-.1 5.2z"/><path class="st1" d="M278.2 223c4.6 3 8.7 6.7 12 11.2-1.4 1-2.8 2.1-4.2 3.1-2.9-3.9-6.5-7.2-10.6-9.9l2.8-4.4z"/><path class="st5" d="M262 224.4c7.1-.2 14.2 1.6 20.4 5.1.9-1.5 1.7-3.1 2.6-4.6-7-3.9-15-5.9-23.1-5.7 0 1.7.1 3.4.1 5.2z"/><path class="st1" d="M266.5 223c-6.9-1.9-14.1-1.9-21 0-.5-1.7-.9-3.4-1.4-5.1 7.8-2.1 16-2.1 23.8 0-.5 1.7-.9 3.4-1.4 5.1z"/><g><path class="st4" d="M238.4 281.8c-5.7 1.5-11.2 3.5-16.5 6 .7 1.6 1.5 3.2 2.2 4.7 5.1-2.4 10.5-4.3 16-5.7l-1.7-5zM273.6 281.8c5.7 1.5 11.2 3.5 16.5 6-.7 1.6-1.5 3.2-2.2 4.7-5.1-2.4-10.5-4.3-16-5.7l1.7-5z"/></g><g><path class="st2" d="M277.1 285.8c-13.8-3.3-28.2-3.3-42 0l-1.2-5.1c14.6-3.5 29.8-3.5 44.4 0l-1.2 5.1z"/><path class="st2" d="M256 287.2l-3.6.9c-.8.2-1.6-.4-1.6-1.3V285c0-.9.8-1.5 1.6-1.3l3.6.9v2.6zM256 284.6l3.6-.9c.8-.2 1.6.4 1.6 1.3v1.9c0 .9-.8 1.5-1.6 1.3l-3.6-.9v-2.7z"/></g><path class="st4" d="M256.3 287.2h-.6c-.6 0-1-.5-1-1v-.6c0-.6.5-1 1-1h.6c.6 0 1 .5 1 1v.6c0 .6-.4 1-1 1z"/></g></svg>