<?xml version="1.0" encoding="utf-8"?>
<!-- Generator: Adobe Illustrator 25.0.0, SVG Export Plug-In . SVG Version: 6.00 Build 0)  -->
<svg version="1.1" id="Layer_1" xmlns="http://www.w3.org/2000/svg" xmlns:xlink="http://www.w3.org/1999/xlink" x="0px" y="0px"
	 viewBox="0 0 512 512" style="enable-background:new 0 0 512 512;" xml:space="preserve">
<style type="text/css">
	.st0{fill:#FFFFFF;}
	.st1{fill:#002D62;}
	.st2{fill:#CE1126;}
	.st3{fill:#008337;}
	.st4{fill:#C9576D;}
	.st5{fill:#2D5984;}
	.st6{fill:#F5F5F5;}
	.st7{fill:#EAC102;}
	.st8{fill:#F5F0F0;}
</style>
<polygon class="st0" points="512,221 291.3,221 291.3,88.3 220.7,88.3 220.7,221 0,221 0,291.6 220.7,291.6 220.7,424.3 
	291.3,424.3 291.3,291.6 512,291.6 "/>
<rect y="88.3" class="st1" width="220.7" height="132.7"/>
<rect x="291.3" y="88.3" class="st2" width="220.7" height="132.7"/>
<rect y="291.6" class="st2" width="220.7" height="132.7"/>
<rect x="291.3" y="291.6" class="st1" width="220.7" height="132.7"/>
<g id="shield">
	<g>
		<path class="st3" d="M250.9,281.2c0,0,5.3,1.9,4.6,8.6l2.1,0c0,0-1.3-7.7-2.5-8.6S250.9,281.2,250.9,281.2z"/>
		<path class="st3" d="M256.2,280.1c-2.2,0-6.1,0-10.3-1.1c0.9-1,2.2-2.9,2.2-6.2c0-5.2-3.6-1.9-3.6-1.9s-2.4,2-0.9,7.4
			c-1.4-0.5-2.8-1.2-4.1-2.1c0.8-1,2.5-3.5,3.4-7.3c0,0-6-1.2-7.7,3.3c-1-1.3-1.9-2.7-2.6-4.3c1.5,0,3.7-1,3.7-6.9c0,0-3.9,0-5,3.4
			c-0.4-1.4-0.7-3-1-4.6c1.6,0.5,5.6,0.8,5.6-8c0,0-4.9,0-6,4.3c-0.1-1.1-0.1-2.2-0.1-3.4c2.4-1.2,5.6-4,5.3-9.6
			c0,0-2.2,0.5-4.3,2.2c0.4-2.1,0.2-5.2-3-7.8c0,0-3,5.3,1.4,9.6c-0.4,0.5-0.7,1.1-1,1.8c-1-1.5-2.6-2.9-5.1-3.7c0,0-1.2,7.1,5.4,10
			c0.2,4.1,0.8,7.8,1.9,11c-1.9-1.7-3.4-4-3.4-4c0-7.9-6.5-8.1-6.5-8.1c-1.2,9,5.4,9.3,5.4,9.3l3.6,4c-7.9-1.3-7.9,5.2-7.9,5.2
			c5.2,1.3,7.9-1.3,7.9-1.3l2.8,1.5c-5,0.1-6.8,5.1-6.8,5.1c6.3,1.1,11-0.4,12.5-1.1c6.4,4.5,14.2,4.5,17.9,4.5L256.2,280.1
			L256.2,280.1L256.2,280.1z"/>
		<path class="st3" d="M255.8,280.1c2.2,0,6.1,0,10.3-1.1c-0.9-1-2.2-2.9-2.2-6.2c0-5.2,3.6-1.9,3.6-1.9s2.4,2,0.9,7.4
			c1.4-0.5,2.8-1.2,4.1-2.1c-0.8-1-2.5-3.5-3.4-7.3c0,0,6-1.2,7.7,3.3c1-1.3,1.9-2.7,2.6-4.3c-1.5,0-3.7-1-3.7-6.9c0,0,3.9,0,5,3.4
			c0.4-1.4,0.7-3,1-4.6c-1.6,0.5-5.6,0.8-5.6-8c0,0,4.9,0,6,4.3c0.1-1.1,0.1-2.2,0.1-3.4c-2.4-1.2-5.6-4-5.3-9.6
			c0,0,2.2,0.5,4.3,2.2c-0.4-2.1-0.2-5.2,3-7.8c0,0,3,5.3-1.4,9.6c0.4,0.5,0.7,1.1,1,1.8c1-1.5,2.6-2.9,5.1-3.7c0,0,1.2,7.1-5.4,10
			c-0.2,4.1-0.8,7.8-1.9,11c1.9-1.7,3.4-4,3.4-4c0-7.9,6.5-8.1,6.5-8.1c1.2,9-5.4,9.3-5.4,9.3l-3.6,4c7.9-1.3,7.9,5.2,7.9,5.2
			c-5.2,1.3-7.9-1.3-7.9-1.3l-2.8,1.5c5,0.1,6.8,5.1,6.8,5.1c-6.3,1.1-11-0.4-12.5-1.1c-6.4,4.5-14.2,4.5-17.9,4.5L255.8,280.1
			L255.8,280.1L255.8,280.1z"/>
	</g>
	<path class="st1" d="M233.9,223c-4.6,3-8.7,6.7-12,11.2c1.4,1,2.8,2.1,4.2,3.1c2.9-3.9,6.5-7.2,10.6-9.9L233.9,223z"/>
	<path class="st4" d="M256,257.1h18.4v10.5c0,2.9-2.3,5.2-5.2,5.2h-7.9c-2.2,0-4.1,1.1-5.2,2.7L256,257.1L256,257.1z"/>
	<polygon class="st5" points="260,245.3 260,230.8 279.6,230.8 274.4,236.1 274.4,250.5 260,250.5 	"/>
	<rect x="267.8" y="250.5" class="st6" width="6.6" height="6.6"/>
	<path class="st4" d="M256,257.1h-18.4v10.5c0,2.9,2.3,5.2,5.2,5.2h7.9c2.2,0,4.1,1.1,5.2,2.7L256,257.1L256,257.1z"/>
	<path class="st6" d="M252.7,273.1c1.3,0.4,2.4,1.2,3.2,2.3h0.1c0.8-1.1,1.9-1.9,3.2-2.3v-10.8h-6.6L252.7,273.1L252.7,273.1z"/>
	<polygon class="st5" points="252.1,245.3 252.1,230.8 232.4,230.8 237.6,236.1 237.6,250.5 252.1,250.5 	"/>
	<rect x="237.6" y="250.5" class="st6" width="6.6" height="6.6"/>
	<polygon class="st1" points="244.2,237.4 244.2,241.3 248.1,243.9 248.1,241.3 	"/>
	<polygon class="st6" points="248.1,241.3 248.1,245.3 253.4,247.9 253.4,246.6 	"/>
	<polygon class="st1" points="267.8,237.4 267.8,241.3 263.9,243.9 263.9,241.3 	"/>
	<polygon class="st6" points="263.9,241.3 263.9,245.3 258.6,247.9 258.6,246.6 	"/>
	<path class="st2" d="M263.9,266.2h-15.8c-3.6,0-6.5-2.9-6.5-6.6v-20.3l14.5,9.8l14.3-9.8v20.3C270.4,263.3,267.5,266.2,263.9,266.2
		z"/>
	<g>
		<polygon class="st1" points="246.8,242.6 241.6,238.7 241.6,253.1 246.8,255.8 		"/>
		<polygon class="st1" points="265.2,242.6 270.4,238.7 270.4,253.1 265.2,255.8 		"/>
		<rect x="248.1" y="255.8" class="st1" width="15.7" height="6.6"/>
	</g>
	<polygon class="st2" points="248.1,243.9 256,247.9 263.9,243.9 263.9,255.8 248.1,255.8 	"/>
	<g>
		<path class="st6" d="M261.9,245.2v13.2c0,1.1-0.9,2-2,2h-7.9c-1.1,0-2-0.9-2-2v-13.1l-3.9-2.6v15.8c0,3.3,2.6,5.9,5.9,5.9h7.9
			c3.3,0,5.9-2.6,5.9-5.9v-15.9L261.9,245.2z"/>
		<path class="st6" d="M263.3,254.4c-2.2,0.2-4.7,0.4-7.3,1.3c-2.6-0.9-5.1-1.1-7.3-1.3c-3.7-0.3-5.9-0.7-7.1-2.9v3.8
			c1.9,1.3,4.4,1.5,6.9,1.7c2.3,0.2,4.6,0.4,7,1.3l0.5,0.2l0.5-0.2c2.4-0.9,4.8-1.1,7-1.3c2.5-0.2,5-0.5,6.9-1.7v-3.8
			C269.2,253.7,267,254,263.3,254.4z"/>
	</g>
	<polygon class="st7" points="258.6,242 256.7,242 256.7,240 255.4,240 255.4,242 253.4,242 253.4,243.3 255.4,243.3 255.4,249.2 
		256.7,249.2 256.7,243.3 258.6,243.3 	"/>
	<rect x="248.7" y="234" transform="matrix(0.7071 -0.7071 0.7071 0.7071 -98.2358 247.1393)" width="1" height="16.3"/>
	<polygon class="st7" points="241.3,234.2 242.7,237.1 244.2,235.7 	"/>
	<rect x="250.3" y="232.9" transform="matrix(0.8083 -0.5888 0.5888 0.8083 -93.8371 193.9033)" width="1" height="16.3"/>
	<polygon class="st7" points="244.2,232 245.2,235.1 246.9,233.9 	"/>
	<rect x="247.4" y="235.4" transform="matrix(0.5725 -0.8199 0.8199 0.5725 -93.6828 307.3594)" width="1" height="16.3"/>
	<polygon class="st7" points="238.7,237.1 240.6,239.7 241.8,238 	"/>
	<rect x="254.7" y="241.6" transform="matrix(0.7071 -0.7071 0.7071 0.7071 -94.2419 256.764)" width="16.3" height="1"/>
	<polygon class="st7" points="270.7,234.2 269.3,237.1 267.9,235.7 	"/>
	<rect x="253" y="240.5" transform="matrix(0.5888 -0.8083 0.8083 0.5888 -87.4196 310.2379)" width="16.3" height="1"/>
	<polygon class="st7" points="267.8,232 266.8,235.1 265.2,233.9 	"/>
	<rect x="256" y="243" transform="matrix(0.8199 -0.5725 0.5725 0.8199 -91.852 195.0786)" width="16.3" height="1"/>
	<polygon class="st7" points="273.3,237.1 271.4,239.7 270.2,238 	"/>
	<path class="st6" d="M255.3,272.4c0,0-5.1-5.4-4.1-10.5c0.8-4,3.2-8.5,5.1-9.5c0,0,2.7-0.2,2,2.1c-0.7,2.3-1.5,2.9-1.2,5.2
		C257.5,263.7,258.1,268.4,255.3,272.4z"/>
	<path class="st1" d="M256.9,252.5c-0.3,0-0.6,0-0.6,0c-1.9,1.1-4.3,5.5-5.1,9.5c-0.4,2.3,0.4,4.6,1.4,6.5
		C252,260.3,254.4,257.4,256.9,252.5z"/>
	<path class="st2" d="M257.1,259.8c-0.2-2.3,0.6-2.9,1.2-5.2c0.5-1.6-0.7-2-1.4-2.1c0,0-1.7,3.9-1.8,6.5c-0.1,2.3,0.5,11.6,0.3,13.5
		C258.1,268.4,257.5,263.7,257.1,259.8z"/>
	<path class="st8" d="M253.6,254.4c1.1-1,2.5-1.5,4-1.2c-0.7-2.2-1.4-4.4-2.1-6.7c-1.5-0.2-2.9,0.2-4,1.2
		C252.3,250,252.9,252.2,253.6,254.4z"/>
	<path class="st6" d="M257.6,253.2c1.1-1,2.5-1.5,4-1.2c-0.7-2.2-1.4-4.4-2.1-6.7c-1.5-0.2-2.9,0.2-4,1.2
		C256.3,248.7,256.9,251,257.6,253.2z"/>
	<path class="st5" d="M250,224.4c-7.1-0.2-14.2,1.6-20.4,5.1c-0.9-1.5-1.7-3.1-2.6-4.6c7-3.9,15-5.9,23.1-5.7
		C250.1,220.9,250.1,222.6,250,224.4z"/>
	<path class="st1" d="M278.2,223c4.6,3,8.7,6.7,12,11.2c-1.4,1-2.8,2.1-4.2,3.1c-2.9-3.9-6.5-7.2-10.6-9.9L278.2,223z"/>
	<path class="st5" d="M262,224.4c7.1-0.2,14.2,1.6,20.4,5.1c0.9-1.5,1.7-3.1,2.6-4.6c-7-3.9-15-5.9-23.1-5.7
		C261.9,220.9,262,222.6,262,224.4z"/>
	<path class="st1" d="M266.5,223c-6.9-1.9-14.1-1.9-21,0c-0.5-1.7-0.9-3.4-1.4-5.1c7.8-2.1,16-2.1,23.8,0
		C267.4,219.6,267,221.3,266.5,223z"/>
	<g>
		<path class="st4" d="M238.4,281.8c-5.7,1.5-11.2,3.5-16.5,6c0.7,1.6,1.5,3.2,2.2,4.7c5.1-2.4,10.5-4.3,16-5.7L238.4,281.8z"/>
		<path class="st4" d="M273.6,281.8c5.7,1.5,11.2,3.5,16.5,6c-0.7,1.6-1.5,3.2-2.2,4.7c-5.1-2.4-10.5-4.3-16-5.7L273.6,281.8z"/>
	</g>
	<g>
		<path class="st2" d="M277.1,285.8c-13.8-3.3-28.2-3.3-42,0c-0.4-1.7-0.8-3.4-1.2-5.1c14.6-3.5,29.8-3.5,44.4,0
			C277.9,282.4,277.5,284.1,277.1,285.8z"/>
		<path class="st2" d="M256,287.2l-3.6,0.9c-0.8,0.2-1.6-0.4-1.6-1.3V285c0-0.9,0.8-1.5,1.6-1.3l3.6,0.9V287.2z"/>
		<path class="st2" d="M256,284.6l3.6-0.9c0.8-0.2,1.6,0.4,1.6,1.3v1.9c0,0.9-0.8,1.5-1.6,1.3l-3.6-0.9V284.6z"/>
	</g>
	<path class="st4" d="M256.3,287.2h-0.6c-0.6,0-1-0.5-1-1v-0.6c0-0.6,0.5-1,1-1h0.6c0.6,0,1,0.5,1,1v0.6
		C257.3,286.8,256.9,287.2,256.3,287.2z"/>
</g>
</svg>
