<?xml version="1.0" encoding="utf-8"?>
<!-- Generator: Adobe Illustrator 25.0.0, SVG Export Plug-In . SVG Version: 6.00 Build 0)  -->
<svg version="1.1" id="Layer_1" xmlns="http://www.w3.org/2000/svg" xmlns:xlink="http://www.w3.org/1999/xlink" x="0px" y="0px"
	 viewBox="0 0 512 512" style="enable-background:new 0 0 512 512;" xml:space="preserve">
<style type="text/css">
	.st0{fill:#FFFFFF;}
	.st1{fill:#006233;}
	.st2{fill:#D21034;}
</style>
<rect x="256" y="87.7" class="st0" width="256" height="336"/>
<rect y="87.7" class="st1" width="256" height="336"/>
<g>
	<path class="st2" d="M298.6,223.9l-15.3,20l-23.9-8c-1.3-0.4-2.5,1.1-1.7,2.2l14.3,20.7l-15,20.3c-0.8,1.1,0.2,2.7,1.6,2.3
		l24.1-7.2l14.6,20.5c0.8,1.1,2.6,0.6,2.7-0.8l0.6-25.2l24-7.6c1.3-0.4,1.4-2.3,0-2.8L301,250l0.2-25.2
		C301.3,223.4,299.5,222.8,298.6,223.9z"/>
	<path class="st2" d="M271.9,316.6c-33.5,0-60.6-27.1-60.6-60.6c0-33.4,27.1-60.6,60.6-60.6c12.4,0,23.9,3.8,33.5,10.3
		c1.5,1,3.1-0.9,1.9-2.2c-14.3-14.9-34.5-23.9-57-23.2c-38.5,1.3-70.5,32.2-72.9,70.7c-2.8,44.1,32.1,80.7,75.6,80.7
		c21.4,0,40.7-9,54.4-23.3c1.2-1.3-0.5-3.2-1.9-2.2C295.8,312.8,284.3,316.6,271.9,316.6z"/>
</g>
</svg>
