<svg version="1.1" id="Layer_1" xmlns="http://www.w3.org/2000/svg" x="0" y="0" viewBox="0 0 512 512" xml:space="preserve"><style>.st2{fill:#d21034}</style><path fill="#fff" d="M256 87.7h256v336H256z"/><path fill="#006233" d="M0 87.7h256v336H0z"/><path class="st2" d="M298.6 223.9l-15.3 20-23.9-8c-1.3-.4-2.5 1.1-1.7 2.2l14.3 20.7-15 20.3c-.8 1.1.2 2.7 1.6 2.3l24.1-7.2 14.6 20.5c.8 1.1 2.6.6 2.7-.8l.6-25.2 24-7.6c1.3-.4 1.4-2.3 0-2.8L301 250l.2-25.2c.1-1.4-1.7-2-2.6-.9z"/><path class="st2" d="M271.9 316.6c-33.5 0-60.6-27.1-60.6-60.6 0-33.4 27.1-60.6 60.6-60.6 12.4 0 23.9 3.8 33.5 10.3 1.5 1 3.1-.9 1.9-2.2-14.3-14.9-34.5-23.9-57-23.2-38.5 1.3-70.5 32.2-72.9 70.7-2.8 44.1 32.1 80.7 75.6 80.7 21.4 0 40.7-9 54.4-23.3 1.2-1.3-.5-3.2-1.9-2.2-9.7 6.6-21.2 10.4-33.6 10.4z"/></svg>