<svg version="1.1" id="Layer_1" xmlns="http://www.w3.org/2000/svg" x="0" y="0" viewBox="0 0 512 512" xml:space="preserve"><style>.st0{fill:#fd0}.st1{fill:#034ea2}.st2{fill:#ed1c24}.st3{fill:#452c25}.st7{fill:#086f35}.st10{fill:#009b64}.st13{fill:#b3babf}</style><path class="st0" d="M0 88.3h512v168H0z"/><path class="st1" d="M0 255.9h512v84H0z"/><path class="st2" d="M0 339.8h512v84H0z"/><g id="shield"><path class="st0" d="M246.8 261l64.5-55.3v80c0 13.5-10.9 24.4-24.4 24.4-6 0-11.8-2.2-16.3-6.3l-23.7-21.4-.1-21.4z"/><path class="st2" d="M280.8 292.4l-18.7-16.8v-27.8l33.8-28.9v66.8c0 5-4.1 9.1-9.1 9.1-2.2-.1-4.3-.9-6-2.4z"/><path class="st1" d="M271.4 239.9v31.6l15.4 13.9v-58.6l9.2-7.9v66.8c0 5-4.1 9.1-9.1 9.1-2.2 0-4.4-.8-6.1-2.3l-18.7-16.8v-27.8l9.3-8z"/><path class="st0" d="M265.2 261l-64.5-55.3v80c0 13.5 10.9 24.4 24.4 24.4 6 0 11.8-2.2 16.3-6.3l23.7-21.4V261z"/><path class="st2" d="M231.2 292.4l18.7-16.8v-27.8l-33.8-28.9v66.8c0 5 4.1 9.1 9.1 9.1 2.2-.1 4.3-.9 6-2.4z"/><path class="st1" d="M240.6 239.9v31.6l-15.4 13.9v-58.6l-9.2-7.9v66.8c0 5 4.1 9.1 9.1 9.1 2.2 0 4.4-.8 6.1-2.3l18.7-16.8v-27.8l-9.3-8zM309 206h4.4v26.4H309zM198.5 206h4.4v26.4h-4.4z"/><path class="st3" d="M246.8 193.4s6.1-29.2-15.4-25.3-21.5 10-46.1 22.3c0 0 27.6 6.1 39.9 3.1 0 0 9.2 12.3 18.4 15.4h9.2l-6-15.5zM265.2 193.4s-6.1-29.2 15.4-25.3c21.5 3.8 21.5 10 46.1 22.3 0 0-27.6 6.1-39.9 3.1 0 0-9.2 12.3-18.4 15.4h-9.2l6-15.5z"/><path class="st3" d="M265.2 208.8h-18.4v-15.5c0-5 4.1-9.1 9.1-9.1h.2c5 0 9.1 4.1 9.1 9.1v15.5z"/><circle transform="rotate(-80.781 256.004 193.397)" cx="256" cy="193.4" fill="#e6e1cd" r="6.1"/><path d="M242.8 189.4l11.5 6.2c1 .5 2.2.3 2.9-.4 1-1 1-2.6 0-3.5l-7.4-7.4H248c-2.8-.1-5.2 2.2-5.2 5.1z" fill="#ffd0af"/><path d="M246.8 190.3h-9.2l4-4.7c.8-.9 1.9-1.4 3-1.4h5.2v3.1c.1 1.7-1.3 3-3 3z" fill="#ffaf94"/><path class="st7" d="M282.2 208.8c-2.1-2.5-2.5-5.7-1.5-8.5 3-.5 6.1.5 8.2 2.9 1.8 2.1 2.3 4.8 1.8 7.3.6 1 1.4 2.4 2.2 4 0-.2 0-.4.1-.7.7-2.5 2.7-4.3 5.1-5 1.7 1.8 2.5 4.4 1.8 6.9-.6 2.2-2.2 3.8-4.2 4.6.8 1.8 1.5 3.7 2.2 5.7 0-.1 0-.2.1-.4 1-2.5 3.2-4 5.6-4.4 1.5 2 2 4.6 1 7.1-.9 2.1-2.7 3.6-4.8 4.1 1.1 4.2 1.8 8.7 1.8 13.2h-3.1c0-3.9-.6-7.9-1.5-11.6-1.9.6-4 .5-5.8-.6-2.2-1.4-3.4-3.8-3.4-6.2 2.2-1.2 4.8-1.2 7.1.2.1 0 .1.1.2.2-.7-1.9-1.4-3.7-2.1-5.4-1.8.9-4 1-6 .1-2.4-1.1-3.8-3.4-4-5.8 2-1.4 4.7-1.7 7-.6-.8-1.6-1.6-3-2.2-4-2.1-.4-4.1-1.4-5.6-3.1zM229.8 208.8c2.1-2.5 2.5-5.7 1.5-8.5-3-.5-6.1.5-8.2 2.9-1.8 2.1-2.3 4.8-1.8 7.3-.6 1-1.4 2.4-2.2 4 0-.2 0-.4-.1-.7-.7-2.5-2.7-4.3-5.1-5-1.7 1.8-2.5 4.4-1.8 6.9.6 2.2 2.2 3.8 4.2 4.6-.8 1.8-1.5 3.7-2.2 5.7 0-.1 0-.2-.1-.4-1-2.5-3.2-4-5.6-4.4-1.5 2-2 4.6-1 7.1.9 2.1 2.7 3.6 4.8 4.1-1.1 4.2-1.8 8.7-1.8 13.2h3.1c0-3.9.6-7.9 1.5-11.6 1.9.6 4 .5 5.8-.6 2.2-1.4 3.4-3.8 3.4-6.2-2.2-1.2-4.8-1.2-7.1.2-.1 0-.1.1-.2.2.7-1.9 1.4-3.7 2.1-5.4 1.8.9 4 1 6 .1 2.4-1.1 3.8-3.4 4-5.8-2-1.4-4.7-1.7-7-.6.8-1.6 1.6-3 2.2-4 2.1-.4 4.1-1.4 5.6-3.1z"/><path class="st0" d="M256 276.3L191.5 221v80c0 13.5 10.9 24.4 24.4 24.4 6 0 11.8-2.2 16.3-6.3l23.7-21.4v-21.4z"/><path class="st2" d="M222 307.8l18.7-16.8v-27.8l-33.8-28.9V301c0 5 4.1 9.1 9.1 9.1 2.2 0 4.3-.8 6-2.3z"/><path class="st1" d="M231.4 255.3v31.6L216 300.8v-58.6l-9.2-7.9V301c0 5 4.1 9.1 9.1 9.1 2.2 0 4.4-.8 6.1-2.3l18.7-16.8v-27.8l-9.3-7.9z"/><path class="st0" d="M256 276.3l64.5-55.3v80c0 13.5-10.9 24.4-24.4 24.4-6 0-11.8-2.2-16.3-6.3L256 297.8v-21.5z"/><path class="st2" d="M290 307.8L271.4 291v-27.8l33.8-28.9V301c0 5-4.1 9.1-9.1 9.1-2.3 0-4.4-.8-6.1-2.3z"/><path class="st1" d="M280.6 255.3v31.6l15.4 13.9v-58.6l9.2-7.9V301c0 5-4.1 9.1-9.1 9.1-2.2 0-4.4-.8-6.1-2.3L271.4 291v-27.8l9.2-7.9z"/><ellipse cx="256" cy="254.8" rx="30.7" ry="46.1" fill="#69c3ff"/><path fill="#5aa0e6" d="M228.4 267.1l3 18.4 15.4 15.4h9.2l12.3-3.1 12.3-12.3 3-18.4z"/><path class="st10" d="M243.7 265.4l14.6 13.6-2.3 5 9.2 1.4 6.9 6.4 8.4-9.6 3.1-16.1zM238.7 270.9l3.1-5.5h-14.2l.8 9.5 4.6 6.1 4.6-8.1 3-1.4z"/><path d="M228.4 267.1h55.3l3.1-12.3-14 2.3c-2.8.5-5.7-.3-7.8-2.2l-16-13.6c-1.4-1.2-3.2-1.9-5.1-1.9-2.1 0-4.1.8-5.5 2.3l-10 10v15.4z" fill="#587074"/><path d="M253.1 252.8l5.3-3.4-9.4-8c-1.4-1.2-3.2-1.9-5.1-1.9-2.1 0-4.1.8-5.5 2.3l-10 10v3.1l15.4-3.1 2.7 1.4c2.1 1 4.6.8 6.6-.4z" fill="#fff"/><path class="st13" d="M256 303.9c-18.6 0-33.8-22-33.8-49.1s15.2-49.1 33.8-49.1 33.8 22 33.8 49.1-15.2 49.1-33.8 49.1zm0-92.1c-15.2 0-27.6 19.3-27.6 43s12.4 43 27.6 43 27.6-19.3 27.6-43-12.4-43-27.6-43zM234.3 300.6c-2.6-3.6-6.4-5.9-10.7-5.9s-8.2 2.3-10.7 5.9c4.4 1.2 8 4.8 9.7 9.5.7 1.9 1.1 4 1.1 6.1-.1-7.6 4.5-13.9 10.6-15.6z"/><path class="st13" d="M226 310.3s-.2 4.1-2.3 6l-.1-.1c-2.1-1.9-2.3-6-2.3-6l4.7.1z"/><path class="st13" d="M294.4 311.6h-76.8c-.8 0-1.5-.7-1.5-1.5s.7-1.5 1.5-1.5h76.8c.8 0 1.5.7 1.5 1.5s-.7 1.5-1.5 1.5z"/><path d="M271.4 316.2h-30.9c-3.4 0-6.1-2.7-6.1-6.1v-.1c0-3.4 2.7-6.1 6.1-6.1h30.9c3.4 0 6.1 2.7 6.1 6.1v.2c0 3.3-2.7 6-6.1 6z" fill="#be915a"/><path d="M228.4 308.5h-10.7c-.8 0-1.5.7-1.5 1.5s.7 1.5 1.5 1.5h10.7v-3z" fill="#b9b9b9"/><path class="st2" d="M256 316.2v28.1l-12.3-3.5 6.2-24.6z"/><path class="st1" d="M252.9 316.2l-6.1 21.5-12.3-3.1 9.2-18.4z"/><path class="st0" d="M240.6 316.2l-9.2 12.3 9.2 3.1 6.2-15.4z"/><path class="st2" d="M256 316.2v28.1l12.3-3.5-6.2-24.6z"/><path class="st1" d="M259.1 316.2l6.1 21.5 12.3-3.1-9.2-18.4z"/><path class="st0" d="M271.4 316.2l9.2 12.3-9.2 3.1-6.2-15.4z"/><g><path class="st1" d="M193.7 247.5l-4.4-4.5v-22h4.4zM322.6 243l-4.4 4.5V221h4.4z"/></g></g></svg>