<svg xmlns="http://www.w3.org/2000/svg" viewBox="0 0 512 512"><path fill="#ce1126" d="M0 88h512v112H0z"/><path fill="#fff" d="M0 200h512v112H0z"/><path d="M0 312h512v112H0z"/><path d="M284.2 238.6c0-4.4-4.3-7.5-8.4-6.1l-7.8 2.6-1.9-11.4c-1.1-6.8-7-11.8-13.9-11.8h-7.3l-7.6 9.4h10.1l-2.8 14-8.2-2.7c-4.2-1.4-8.4 1.7-8.4 6.1V286l11.4-11.4-5.4 16.1h-6v9.4h56.4v-9.4h-6l-5.4-16.1 11.4 11.4-.2-47.4zm-32.9 52.1h-7.6l5.2-13.9 2.4 3v10.9zm9.4 0v-10.9l2.4-3 5.2 13.9h-7.6zm-4.7-17s-14.5-9.8-13.9-28.2c0 0 9-1.5 13.9-9.4 5 7.9 13.9 9.4 13.9 9.4.6 18.4-13.9 28.2-13.9 28.2z" fill="#c09300"/></svg>