<svg version="1.1" id="Layer_1" xmlns="http://www.w3.org/2000/svg" x="0" y="0" viewBox="0 0 512 512" xml:space="preserve"><style>.st2{fill:#c4111b}</style><path fill="#fff" d="M170.7 200l85.3 56-85.3 56H512V200z"/><path id="Path" fill="#ff4b55" d="M256 255.7L0 423.3V88z"/><g id="Group" transform="translate(286 120)"><path id="Path_1_" class="st2" d="M23.6 135.9c0-22.9 13.1-42.1 34.6-46.8-3.3-.7-6.7-1.1-10.3-1.1C21.5 88 0 109.4 0 135.9s21.4 47.9 47.9 47.9c3.5 0 7-.4 10.3-1.1-21.5-4.8-34.6-23.9-34.6-46.8z"/><path id="Path_2_" class="st2" d="M78.7 95L89 126.7h33.3l-27 19.6 10.3 31.7-26.9-19.6-27 19.6L62 146.3l-27-19.6h33.4z"/></g><path class="st2" d="M0 88v336l256-168z"/><path d="M0 88l170.7 112H512V88z"/><path fill="#007a3d" d="M170.7 312L0 424h512V312z"/></svg>