<svg xmlns="http://www.w3.org/2000/svg" viewBox="0 0 512 512"><path fill="#ea0437" d="M0 88v336l512-168z"/><path fill="#4189dd" d="M511.6 255.9l.4.1L.4 423.9H512v-168z"/><path fill="#12ad2b" d="M0 88l512 168V88z"/><path d="M188.8 306.4s24.9-9.1 31.9-36.3c0 0-10.8 14-18.4 18.1 0 0 16.7-22.2 13.2-43.9 0 0-2 8.8-6.1 12.3 0 0 7.3-31.3-2-44.5 0 0 .3 11.1-3.8 22.2 0 0 1.6-35.2-14.4-44.2 0 0 6.2 11.1 3.6 20.5 0 0-4.4-19.9-24.8-27.8 0 0-1.3 1.5-1 5.9 0 0-5.6-6.7-19.3-6.4 0 0 .3 5 3.8 9.7 0 0-5.6 2.9-9.1 2 0 0 5.6 6.1 25.2 5.6 0 0-2.6 2.3-7.9 2.9 0 0 8 3.7 15.9 4.4 10.8 1 15.1 7.3 17.2 15.2 0 0-8.5-5-11.7-9.9 0 0-.6 8.5 15.5 24.9l-8.2-3.5s5.3 15.2 11.7 32.5l-6.7-7.3s-1.5 12.3-2.6 35.1l-4.7-10.8s-8.2 26.9-20.8 31.3c-9.8 3.4-20.7 5.8-25 6.6-.4-15.1 6-18.3 6-18.3 11.4.6 14-12 14-12-2.3 2.3-6.7 2.3-6.7 2.3 6.7-7 6.7-17 6.7-17-4.1 7.9-10.5 9.1-10.5 9.1l.6-7.9c-11.9 8.7-11 18.8-10.9 20.3-.3-1.9-2.4-16.7-3.5-20.3-1.2-3.8 1.5-11.4 5.6-10.2 13.3 3.8 16.4-5.8 16.4-5.8-7 3.2-11.1.9-11.1.9 9.1-8.8 5.3-17 5.3-17-2.9 8.5-11.1 9.9-11.1 9.9l-.3-9.4c-3.8 2-7.3 11.1-7.3 11.1s-.9-7.3 1.8-13.7c2.6-6.4 9.4-3.2 9.4-3.2 12 2.3 15.8-9.1 15.8-9.1l-7.9 1.2c8.8-6.4 6.1-14.3 6.1-14.3-2 5-9.4 5.9-9.4 5.9l3.5-9.4c-7.6 0-12 9.9-12 9.9l-.6-9.7c3.5-12.6-4.7-18.1-4.7-18.1-1.8 2.3-.9 7.3-.9 7.3-7.3-6.4-12.9 1.2-12.9 1.2 5.6 5.9 10.8 5.3 10.8 5.3-1.8 1.2-8.2 1.8-8.2 1.8 7.3 6.1 11.4 5 11.4 5 3.5 14.9-5.9 21.6-5.9 21.6-1.8-11.1-8.5-16.4-8.5-16.4l.3 7.3c-4.4-2.6-7.9-10.5-7.9-10.5-2.9 11.1 5 20.8 5 20.8l-7.3-.6c6.4 14.9 16.7 10.2 16.7 10.2-.9 10.5 2.6 27.8 2.6 27.8-1.5-1.8-17-16.4-17-16.4-.6 5.8 5 13.5 5 13.5-2.9-.6-11.4-7-11.4-7 .9 9.4 13.2 15.5 13.2 15.5-4.7.6-13.7-4.7-13.7-4.7 5.3 22.5 24.6 12.6 24.6 12.6l1.5 30.5c-4.1-1-13-3.3-22.2-6.5-12.9-4.6-21.1-31.5-21.1-31.5L85 293.8c-1.2-22.8-2.6-35.1-2.6-35.1l-6.7 7.3c6.4-17.3 11.7-32.5 11.7-32.5l-8.2 3.5c16.1-16.4 15.5-24.9 15.5-24.9-3.2 5-11.7 9.9-11.7 9.9 2-7.9 8.5-16.1 16.4-16.7s16.7-2.9 16.7-2.9c-5.3-.6-7.9-2.9-7.9-2.9 22.8-2 25.2-8.2 25.2-8.2-3.5.9-14.3-.3-14.3-.3 9.1-5 24-9.7 24-9.7-18.4-3.2-34.2 7.3-34.2 7.3 2.6-5 7.3-10.5 7.3-10.5-22.5 9.9-33.1 32.5-33.1 32.5-2.6-9.4 3.6-20.5 3.6-20.5-16 9-14.4 44.2-14.4 44.2-4.1-11.1-3.8-22.2-3.8-22.2-9.4 13.2-2 44.5-2 44.5-4.1-3.5-6.1-12.3-6.1-12.3-3.5 21.6 13.2 43.9 13.2 43.9-7.6-4.1-18.4-18.1-18.4-18.1 7 27.2 31.9 36.3 31.9 36.3-13.7-5.3-19.6-.9-19.6-.9 9.7 2 19 7.9 26.6 13.5s17.8 6.7 26.9 7.9c3.7.5 6.8 1.1 9.3 1.7-5 2.4-8.4 7.5-8.4 13.4h29.8c0-5.7-3.2-10.6-7.8-13.1 3-.6 7-1.4 11.3-2 9.1-1.2 18.5-3.6 26.9-7.9 9.1-4.7 17-11.4 26.6-13.5-.3 0-6.1-4.4-19.9.9z" fill="#ffc726"/></svg>