<svg version="1.1" id="Layer_1" xmlns="http://www.w3.org/2000/svg" x="0" y="0" viewBox="0 0 512 512" xml:space="preserve"><style>.st1{fill:#c60b1e}.st2{fill:#fff}.st3{fill:#fab446}.st4{fill:#ffb441}.st5{fill:#0039f0}.st7{fill:#ffd250}</style><path fill="#ffc400" d="M0 156h512v200H0z"/><path class="st1" d="M0 356h512v68H0zM0 88h512v68H0z"/><g id="crest"><path class="st1" d="M216.3 256l7.5-33.7c.7-3.1-1.7-6-4.8-6h-5.3c-3.2 0-5.5 2.9-4.8 6l7.4 33.7z"/><path class="st2" d="M207.4 238.3h17.7v75h-17.7z"/><path class="st3" d="M203 229.5h26.5v8.8H203z"/><path class="st1" d="M185.4 256h44.1v8.8h-44.1zM229.5 291.3l-26.5-8.8v-8.8l26.5 8.8zM83.9 256l7.5-33.7c.7-3.1-1.7-6-4.8-6h-5.3c-3.2 0-5.5 2.9-4.8 6l7.4 33.7z"/><path class="st2" d="M114.8 229.5c-4.9 0-8.8 4-8.8 8.8v57.4c0 10.7 10 30.9 44.1 30.9s44.1-20.2 44.1-30.9v-57.4c0-4.9-4-8.8-8.8-8.8h-70.6z"/><path class="st1" d="M150.1 273.7H106v-35.3c0-4.9 4-8.8 8.8-8.8h35.3v44.1zM150.1 273.7h44.1v22.1c0 12.2-9.9 22.1-22.1 22.1-12.2 0-22.1-9.9-22.1-22.1v-22.1z"/><path class="st3" d="M105.9 273.7H150v22.1c0 12.2-9.9 22.1-22.1 22.1-12.2 0-22.1-9.9-22.1-22.1v-22.1z"/><path class="st1" d="M141.2 313.3v-39.6h-8.8v43.7c3.3-.7 6.3-2.2 8.8-4.1zM123.6 317.3v-43.7h-8.8v39.6c2.5 2 5.5 3.5 8.8 4.1z"/><path class="st4" d="M114.8 256h26.5v8.8h-26.5z"/><path class="st3" d="M114.8 238.3h26.5v8.8h-26.5z"/><path class="st3" d="M119.2 243.6h17.7v16h-17.7z"/><path class="st2" d="M75 238.3h17.7v75H75z"/><path class="st3" d="M70.6 309h26.5v8.8H70.6zM70.6 229.5h26.5v8.8H70.6z"/><path class="st5" d="M66.2 317.8h35.3v8.8H66.2z"/><path class="st3" d="M203 309h26.5v8.8H203z"/><path class="st5" d="M198.6 317.8h35.3v8.8h-35.3z"/><path class="st3" d="M123.6 220.7h53v8.8h-53z"/><path class="st4" d="M145.7 194.2h8.8v26.5h-8.8z"/><path class="st2" d="M141.2 207.4c-7.3 0-13.2-5.9-13.2-13.2 0-7.3 5.9-13.2 13.2-13.2 7.3 0 13.2 5.9 13.2 13.2.1 7.3-5.9 13.2-13.2 13.2zm0-17.6c-2.4 0-4.4 2-4.4 4.4 0 2.4 2 4.4 4.4 4.4s4.4-2 4.4-4.4c.1-2.4-1.9-4.4-4.4-4.4z"/><path class="st2" d="M158.9 207.4c-7.3 0-13.2-5.9-13.2-13.2 0-7.3 5.9-13.2 13.2-13.2 7.3 0 13.2 5.9 13.2 13.2s-5.9 13.2-13.2 13.2zm0-17.6c-2.4 0-4.4 2-4.4 4.4 0 2.4 2 4.4 4.4 4.4 2.4 0 4.4-2 4.4-4.4 0-2.4-2-4.4-4.4-4.4z"/><path class="st2" d="M176.6 216.3c-7.3 0-13.2-5.9-13.2-13.2 0-7.3 5.9-13.2 13.2-13.2 7.3 0 13.2 5.9 13.2 13.2s-5.9 13.2-13.2 13.2zm0-17.7c-2.4 0-4.4 2-4.4 4.4 0 2.4 2 4.4 4.4 4.4 2.4 0 4.4-2 4.4-4.4s-2-4.4-4.4-4.4zM123.6 216.3c-7.3 0-13.2-5.9-13.2-13.2 0-7.3 5.9-13.2 13.2-13.2 7.3 0 13.2 5.9 13.2 13.2 0 7.2-5.9 13.2-13.2 13.2zm0-17.7c-2.4 0-4.4 2-4.4 4.4 0 2.4 2 4.4 4.4 4.4s4.4-2 4.4-4.4c0-2.4-2-4.4-4.4-4.4z"/><path class="st3" d="M176.6 291.3v4.4c0 2.4-2 4.4-4.4 4.4s-4.4-2-4.4-4.4v-4.4h8.8m8.8-8.8h-26.5v13.2c0 7.3 5.9 13.2 13.2 13.2 7.3 0 13.2-5.9 13.2-13.2l.1-13.2z"/><path d="M172.1 264.8c-4.9 0-8.8-4-8.8-8.8v-8.8c0-4.9 4-8.8 8.8-8.8 4.9 0 8.8 4 8.8 8.8v8.8c.1 4.9-3.9 8.8-8.8 8.8z" fill="#ffa0d2"/><circle class="st5" cx="150.1" cy="273.7" r="13.2"/><path class="st3" d="M145.7 176.6h8.8v26.5h-8.8z"/><path class="st1" d="M123.6 220.7l-8.8-8.8 5.2-5.2c8-8 18.8-12.5 30.1-12.5s22.1 4.5 30.1 12.5l5.2 5.2-8.8 8.8h-53z"/><g><circle class="st7" cx="150.1" cy="211.9" r="4.4"/><circle class="st7" cx="132.4" cy="211.9" r="4.4"/><circle class="st7" cx="167.7" cy="211.9" r="4.4"/></g><g><path class="st1" d="M70.6 256h44.1v8.8H70.6zM70.6 291.3l26.5-8.8v-8.8l-26.5 8.8z"/></g></g></svg>