<?xml version="1.0" encoding="utf-8"?>
<!-- Generator: Adobe Illustrator 25.0.0, SVG Export Plug-In . SVG Version: 6.00 Build 0)  -->
<svg version="1.1" id="Layer_1" xmlns="http://www.w3.org/2000/svg" xmlns:xlink="http://www.w3.org/1999/xlink" x="0px" y="0px"
	 viewBox="0 0 512 512" style="enable-background:new 0 0 512 512;" xml:space="preserve">
<style type="text/css">
	.st0{fill:#FFC400;}
	.st1{fill:#C60B1E;}
	.st2{fill:#FFFFFF;}
	.st3{fill:#FAB446;}
	.st4{fill:#FFB441;}
	.st5{fill:#0039F0;}
	.st6{fill:#FFA0D2;}
	.st7{fill:#FFD250;}
</style>
<rect y="156" class="st0" width="512" height="200"/>
<rect y="356" class="st1" width="512" height="68"/>
<rect y="88" class="st1" width="512" height="68"/>
<g id="crest">
	<path class="st1" d="M216.3,256l7.5-33.7c0.7-3.1-1.7-6-4.8-6h-5.3c-3.2,0-5.5,2.9-4.8,6L216.3,256z"/>
	<rect x="207.4" y="238.3" class="st2" width="17.7" height="75"/>
	<rect x="203" y="229.5" class="st3" width="26.5" height="8.8"/>
	<g>
		<rect x="185.4" y="256" class="st1" width="44.1" height="8.8"/>
		<polygon class="st1" points="229.5,291.3 203,282.5 203,273.7 229.5,282.5 		"/>
		<path class="st1" d="M83.9,256l7.5-33.7c0.7-3.1-1.7-6-4.8-6h-5.3c-3.2,0-5.5,2.9-4.8,6L83.9,256z"/>
	</g>
	<path class="st2" d="M114.8,229.5c-4.9,0-8.8,4-8.8,8.8v57.4c0,10.7,10,30.9,44.1,30.9s44.1-20.2,44.1-30.9v-57.4
		c0-4.9-4-8.8-8.8-8.8H114.8z"/>
	<g>
		<path class="st1" d="M150.1,273.7h-44.1v-35.3c0-4.9,4-8.8,8.8-8.8h35.3V273.7z"/>
		<path class="st1" d="M150.1,273.7h44.1v22.1c0,12.2-9.9,22.1-22.1,22.1l0,0c-12.2,0-22.1-9.9-22.1-22.1V273.7z"/>
	</g>
	<path class="st3" d="M105.9,273.7h44.1v22.1c0,12.2-9.9,22.1-22.1,22.1l0,0c-12.2,0-22.1-9.9-22.1-22.1V273.7z"/>
	<g>
		<path class="st1" d="M141.2,313.3v-39.6h-8.8v43.7C135.7,316.7,138.7,315.2,141.2,313.3z"/>
		<path class="st1" d="M123.6,317.3v-43.7h-8.8v39.6C117.3,315.2,120.3,316.7,123.6,317.3z"/>
	</g>
	<rect x="114.8" y="256" class="st4" width="26.5" height="8.8"/>
	<g>
		<rect x="114.8" y="238.3" class="st3" width="26.5" height="8.8"/>
		<rect x="119.2" y="243.6" class="st3" width="17.7" height="16"/>
	</g>
	<rect x="75" y="238.3" class="st2" width="17.7" height="75"/>
	<g>
		<rect x="70.6" y="309" class="st3" width="26.5" height="8.8"/>
		<rect x="70.6" y="229.5" class="st3" width="26.5" height="8.8"/>
	</g>
	<rect x="66.2" y="317.8" class="st5" width="35.3" height="8.8"/>
	<rect x="203" y="309" class="st3" width="26.5" height="8.8"/>
	<rect x="198.6" y="317.8" class="st5" width="35.3" height="8.8"/>
	<rect x="123.6" y="220.7" class="st3" width="53" height="8.8"/>
	<rect x="145.7" y="194.2" class="st4" width="8.8" height="26.5"/>
	<g>
		<path class="st2" d="M141.2,207.4c-7.3,0-13.2-5.9-13.2-13.2c0-7.3,5.9-13.2,13.2-13.2c7.3,0,13.2,5.9,13.2,13.2
			C154.5,201.5,148.5,207.4,141.2,207.4z M141.2,189.8c-2.4,0-4.4,2-4.4,4.4c0,2.4,2,4.4,4.4,4.4s4.4-2,4.4-4.4
			C145.7,191.8,143.7,189.8,141.2,189.8z"/>
		<path class="st2" d="M158.9,207.4c-7.3,0-13.2-5.9-13.2-13.2c0-7.3,5.9-13.2,13.2-13.2c7.3,0,13.2,5.9,13.2,13.2
			S166.2,207.4,158.9,207.4z M158.9,189.8c-2.4,0-4.4,2-4.4,4.4c0,2.4,2,4.4,4.4,4.4c2.4,0,4.4-2,4.4-4.4
			C163.3,191.8,161.3,189.8,158.9,189.8z"/>
		<path class="st2" d="M176.6,216.3c-7.3,0-13.2-5.9-13.2-13.2c0-7.3,5.9-13.2,13.2-13.2c7.3,0,13.2,5.9,13.2,13.2
			S183.9,216.3,176.6,216.3z M176.6,198.6c-2.4,0-4.4,2-4.4,4.4c0,2.4,2,4.4,4.4,4.4c2.4,0,4.4-2,4.4-4.4S179,198.6,176.6,198.6z"/>
		<path class="st2" d="M123.6,216.3c-7.3,0-13.2-5.9-13.2-13.2c0-7.3,5.9-13.2,13.2-13.2c7.3,0,13.2,5.9,13.2,13.2
			C136.8,210.3,130.9,216.3,123.6,216.3z M123.6,198.6c-2.4,0-4.4,2-4.4,4.4c0,2.4,2,4.4,4.4,4.4s4.4-2,4.4-4.4
			C128,200.6,126,198.6,123.6,198.6z"/>
	</g>
	<path class="st3" d="M176.6,291.3v4.4c0,2.4-2,4.4-4.4,4.4s-4.4-2-4.4-4.4v-4.4H176.6 M185.4,282.5h-26.5v13.2
		c0,7.3,5.9,13.2,13.2,13.2c7.3,0,13.2-5.9,13.2-13.2L185.4,282.5L185.4,282.5z"/>
	<path class="st6" d="M172.1,264.8L172.1,264.8c-4.9,0-8.8-4-8.8-8.8v-8.8c0-4.9,4-8.8,8.8-8.8l0,0c4.9,0,8.8,4,8.8,8.8v8.8
		C181,260.9,177,264.8,172.1,264.8z"/>
	<circle class="st5" cx="150.1" cy="273.7" r="13.2"/>
	<rect x="145.7" y="176.6" class="st3" width="8.8" height="26.5"/>
	<path class="st1" d="M123.6,220.7l-8.8-8.8l5.2-5.2c8-8,18.8-12.5,30.1-12.5l0,0c11.3,0,22.1,4.5,30.1,12.5l5.2,5.2l-8.8,8.8H123.6
		z"/>
	<g>
		<circle class="st7" cx="150.1" cy="211.9" r="4.4"/>
		<circle class="st7" cx="132.4" cy="211.9" r="4.4"/>
		<circle class="st7" cx="167.7" cy="211.9" r="4.4"/>
	</g>
	<g>
		<rect x="70.6" y="256" class="st1" width="44.1" height="8.8"/>
		<polygon class="st1" points="70.6,291.3 97.1,282.5 97.1,273.7 70.6,282.5 		"/>
	</g>
</g>
</svg>
