<svg version="1.1" id="Layer_1" xmlns="http://www.w3.org/2000/svg" x="0" y="0" viewBox="0 0 512 512" xml:space="preserve"><style>.st1{fill:#fcdd09}</style><path fill="#078930" d="M0 88.3h512v112H0z"/><path class="st1" d="M0 200h512v112H0z"/><path fill="#da121a" d="M0 311.7h512v112H0z"/><g id="shield"><path d="M361.9 256.1c0 58.4-47.4 105.9-105.9 105.9s-105.9-47.5-105.9-105.9c0-58.6 47.4-106 105.9-106s105.9 47.4 105.9 106z" fill="#0f47af"/><path class="st1" d="M175.4 229.5H237l13.9-42.9 3.7 11.5-20.2 62.3-6-4.4 6.3-19.4h-49.5l-9.8-7.1zm30.8 94.7l19-58.5-36.5-26.6h12l53 38.5-6 4.4-16.5-12-15.3 47.2-9.7 7zm99.6 0L256 288.1l-36.4 26.5 3.7-11.3 53-38.6 2.3 7.1-16.6 11.9 40.1 29.2 3.7 11.3zm30.8-94.7l-49.8 36.3 13.9 42.9-9.7-7.1-20.2-62.3h7.4l6.3 19.4 40.1-29.2h12zM256 171l19 58.5h45.1l-9.7 7.2h-65.5l2.3-7.2h20.4l-15.3-47.1L256 171z"/><path class="st1" d="M257.8 340.8h-3.5v-45.9h3.5v45.9zm78.3-57l-43.7-14.1 1.1-3.3 43.7 14.1-1.1 3.3zm-160.2 0l-1.1-3.3 43.7-14.1 1.1 3.3-43.7 14.1zm104.4-58.1l-2.9-2 27-37.1 2.8 2-26.9 37.1zm-48.5 0l-27-37.1 2.9-2 27 37.1-2.9 2z"/></g></svg>