<svg version="1.1" id="Layer_1" xmlns="http://www.w3.org/2000/svg" x="0" y="0" viewBox="0 0 512 512" xml:space="preserve"><style>.st1{fill:#fff}.st2{fill:#c8102e}.st3{fill:#ffd100}.st6{fill:#00a651}.st7{fill:#b46446}</style><path fill="#68bfe5" d="M0 88.3h512v336H0z"/><path class="st1" d="M322 184.6v96.9c0 39.3 55.2 59.5 61.9 61.8 6.7-2.3 61.9-22.5 61.9-61.8v-96.9H322z"/><path class="st2" d="M448 229v-46.6H319.8V229h55.4v43.7h-55.4v17.5h55.4v52.4l8.7 3 8.8-3v-52.4H448v-17.5h-55.3V229z"/><circle class="st1" cx="334.2" cy="210.9" r="7.3"/><path class="st3" d="M348.2 201c-2.3-1.3-6.5-4.7-8.2-4.1-1.7.6-2.1 1.8-4.4 2s-5.9 2.4-4.4 4.9c2 3.2 8.1.7 8.6-.8 0 0 1.5.2 2.8-.1 0 0 2.5 3.5 5.7 3.3 3.1-.2 4.6-4.1 3.9-4.1s-4-1.1-4-1.1zM357.9 216.5c-.5 1-4.5 4.4-11.2 6-1.5.4-1.2 2.1-2.7 1.2-1.5-.9-5.6-1.6-9.3-1.8-3.7-.2-4-3.6-3.4-4.8.8-1.6 6.7-2.5 7.7-.6s1.8 1.5 4.5 2.1c1.6.3 1.7 1.1 1.7 1.1s3-3 5.5-3.9 4.7-2.8 5.2-2.8c.4 0 2.7.6 2.7.6l-.7 2.9zM367.6 206.1c3.9 1.4 15.2 1 27.4-3s15.7-4.6 21.6-2.5 8.5-4.7 4.6-5.9c-6.1-1.8-25.1 9.2-38.9 3 0 0-.4 1.7 0 2.5 0 0-10 .4-7.6-10 0 0 .7 3.8 5.4 3.3 8.9-.8 10.2 5.5 29.1-.4 10.5-3.2 18.6-1.6 18.7 3.5.1 6.1-8.4 7.6-8.4 7.6s3.3 6.7 9.9 3.8 7 2.2 7.6 3.9c.6 1.8 1.7 3.4 3.1 3.6 0 0 1 3.1.6 3.6-.4.4-3.1 3.9-5.9 3.9h-8.7s-1.6-3.9 1.5-4c3-.1 6.7-.3 6.2-1.9-.5-1.6-2.9-2.4-2.8-4.2 0 0-7.1 5.1-11.4-.9l-.1 2.9s-5.3-1-7.2-5.3c0 0 .5 4.8-4 4.1 0 0 .9 1.4 2.5 2.4s-.1 3.1-3.1 5c-3 1.8-12.4 7.1-16.6 1.7-4.3-5.4.9-8.5 2.2-8.1s5 6 7.5 5.3c2.5-.8 3.7-3.3 1.6-4.9s-3.7-3.1-2.3-4.7c1.8-2.2 8.5-1.5 8.3-3s-6.5-1.1-10.6 3-21.8 13.5-28.9 7.5c-6.9-6-1.3-11.8-1.3-11.8z"/><path d="M365.4 203.5s5.3 5.3 14.4 6.9c0 0-1.7 2.5-6.5 1.8 0 0 1.9 1.7 3.2 4.5 0 0-3.1.7-5.8-.8 0 0 .4 2.3 1.7 4.1 0 0-3.6 0-6.7-2.7l-1.2 3.5s-2.1-1.4-3.4-4.1c0 0-2.5 1.9-4.9 1.9 0 0 .9-2.6.9-4.1 0 0-3.5 2.1-6.4 1.3 0 0 .1-3.7 1-4.7 0 0-2.3.3-3.8-.5 0 0 .9-2 1.3-3.3 0 0-2.5.1-3.9-1.3 0 0 4.7-1.8 5.8-3.6l14.3 1.1z" fill="#ffd25a"/><path d="M356.7 188.8c1 .6 2.7 1.9 3.4 4 0 0 1.9-2.8 5.3-3.3 0 0 1.5 1.6 1 5.9 0 0 3.7-1.1 5.7.9 0 0-3.9.9-5.7 4.1 0 0-.7 3.3.5 5.3 0 0-1.4.2-2.7-.4 0 0-.7 3.3 0 4.4 0 0-1.9-.2-3-2.3 0 0-1.6 2.4-1.5 3.9 0 0-2.1-1.2-2.2-3 0 0-1.5 2.7-3 3 0 0-.2-3.9-.9-5.3 0 0-1.3 1.5-3.1 1.4 0 0 0-3 1.5-4.4 0 0-2.5.8-3.8-1.9 0 0 4 1.2 5-1.3s1.3-3.2 2.7-4.6c1.4-1.4.8-6.4.8-6.4z" fill="#ffbe5a"/><path class="st3" d="M365.4 200.1s-5 9.5-9.5 6.7c-5-3.2 1.2-10.6 2-11.4-.1 0 3.6.9 7.5 4.7z"/><path class="st6" d="M347.4 249s-.5-6.9-4.2-8.8c-3.5-1.9-5.6-2.8-6-5.2 0 0 3 1.4 6.2 2.3 2.9.8 5.7 5.7 4.9 11.2l-.9.5z"/><path class="st7" d="M335.6 254.6l.5.9.3 1.9-.7 2.2s2.7 1.1 3.4 4.8c.4 2.5 1.5 3.1 2.2 2.6s1.1-1.1.4-3.9c-.9-3.5-3.4-6.9-3.4-6.9l-1.9-3-.8 1.4z"/><path class="st6" d="M338.3 256.1c-2.5-3.2-9.3-9.9-10.6-.8 0 0-2.7-7.7 2.3-7.4 5.9.3 8.3 8.2 8.3 8.2z"/><path class="st6" d="M336.1 255.5c-2.1-2.4-2.8-4.1-4-8.4-1.1-4.4-1.5-5.7-2.7-5.6-1.3.1-2.1 1.5-2.1 4.3 0 0-3.8-3.4-1.2-6.1 2.6-2.7 8.3-1.2 8.7 3.6.3 4.8.3 8 2 12l-.7.2z"/><path class="st6" d="M336.7 253.4s-4.6-10 8.2-15.4c0 0-11.3-3-10 13.1l1.8 2.3zM338.2 256.9s-9.6-3.7-8.8 5.2c0 0 1.6-4.2 6.4-2.6l2.4-2.6z"/><path class="st7" d="M349.1 253.4c0 2.6 1 10.1-.4 11.1-.7.5-2.8.1-2.6-1.7s1-10.7 1-12.9c-.1-2.2 2 3.5 2 3.5z"/><path class="st6" d="M343 259.5c1.7-1.7 2.2-5.5 1.6-10.6 0 0 3.4 2.4 4.5 4.6 0 0 1.1-5.1-2.5-6.4-3.5-1.3-5.4-.6-6.1 1-.6 1.6 1.1 3.4 1.8 6.1.8 2.4.7 5.3.7 5.3z"/><path class="st6" d="M348.9 252.1s.6-2.7 2.5-3.8c0 0 3.9 2.7 3.6 6.4 0 0 1-5-1.1-7s-4.5-2.5-5.7-.8c-1.3 1.8.7 5.2.7 5.2z"/><path class="st6" d="M349.8 247s1.2-7.1 4.2-8.7c3-1.6 8.6-3 9-3.4 0 0-6.7.3-7.8.3-1.1 0-7.1 4.4-7.1 10.8s.6 2 .7 2c.2 0 1-1 1-1z"/><path class="st7" d="M352.6 265.9c.7 1.4 2.3 1.8 2.7 1 .3-.7 1.9-6.4 1.9-6.4l-2.2-1-2.4 6.4z"/><path class="st6" d="M365.4 242.1c2.7-1.6 4.5 3.1 4.5 3.1 0-5.5-1.7-7.2-6-5.1-1.3.6-2.2 1.9-2.9 3.5-2.2-6.2-7-6.2-7-6.2l-1.1.8c3.9.8 6.2 5.5 7.1 8-.5 1.9-.8 3.7-.9 4.7-2.6 2.7-4.2 8.6-4.2 8.6s1.8 1.1 2.2 1c0 0 1.2-3.7 2.7-3.6s3.3 2.5 3.3 4c0 0 2.2-4.5-.4-6.3-1-.7-1.8-.9-2.4-.9l2-2.2c3.2.6 5.5 3.7 5.5 3.7.1-5.4-2.3-6.5-4.9-6.1.4-2.2 1.4-6.3 2.5-7z"/><path class="st7" d="M418.4 249.6V265c0 .7-3.3 3.7-3.3 3.7h8.7s-2.8-3.2-2.8-3.7.6-14.3.6-14.3l-3.2-1.1z"/><path class="st6" d="M419 251.2c-2.1-.2-7.8 4.6-9.5 11.8 0 0-5.1-8.3 7.7-15.2 0 0-5.7-1.7-14.3 7.3-.5.5-.9-13.5 14.6-9.8 0 0-5.9-8.6-18-1.8 0 0 8.1-14.4 19.9-1.5 0 0 .1-11.2.2-10s1 6.3 1 6.3l2.3-4.1-1.8 8.3s10.6-14.1 19.6.6c0 0-11.6-4.8-17.2.6 0 0 12-3.2 11 10.6 0 0-4.7-8.2-12.4-7.1 0 0 9 4.1 6.1 15.4-.1-.1-5.5-11.1-9.2-11.4zM342.8 301.1c-.4-.6-1.1-.9-1.7-1 .2-.8.4-1.2.3-1.8.2 0 .4.1.6.2l.1-.7c-.7-.1-1.5-.4-2.3-.9.5-.4.8-1.1.8-1.9 0-.9-.4-1.6-1-2-.6.4-1 1.1-1 2 0 .6.3 1.2.6 1.6-.3-.2-.6-.4-.9-.7-.1-.5-.3-1.1-.7-1.5-.6-.6-1.4-.8-2.1-.6-.1.7.2 1.5.8 2 .5.4 1.1.6 1.6.6.1.1.3.2.4.3-.4 0-.8 0-1.2.1-.8.3-1.3.9-1.5 1.6.6.4 1.4.5 2.2.2.7-.3 1.2-.8 1.4-1.3.5.3 1 .6 1.5.8h-.1c0 .5 0 .7-.2 1.6-.5-.4-1.3-.5-2-.3-.8.2-1.4.8-1.6 1.5.5.4 1.3.6 2.2.4.6-.2 1-.6 1.3-1-.1.3-.3.7-.4 1.1-.5.2-.9.6-1.2 1.1-.4.8-.3 1.6 0 2.2.7-.1 1.3-.6 1.7-1.4.3-.6.3-1.2.1-1.7.1-.2.1-.3.2-.5.1.4.2.8.5 1.1.5.7 1.2 1 1.9 1 .3-.6.2-1.4-.3-2.1z"/><path d="M338.9 299c2.9 0 6.7-.1 6.6 2.8s-3.4 12.8 4.1 15.8 8.4 2.6 8.4 2.6l3.4 7.7 8.2-2.9-7.8-6.3s-.7-4.3-2.6-7.2c0 0 4.8-2.5 6.5-4.6l-3.4-.2s4.4-2.8 6.4-5.9l-2.4.2s2.7-2.7 3.4-5.8c0 0-4.4 4.4-8.8 4.9 0 0 1.9-4.9 2.4-6.8 0 0-3.4 2.1-5.7 3-2.4.9-6 1-4.4 8.6 0 0-2-1.7-3.2-5.3-1.2-3.6-1.7-4.9-3.4-4.9-2.7 0-3.8 2.5-3.8 2.5l-3.9 1.8z" fill="#ffecde"/><path class="st7" d="M421.5 300.4c1-1.3 3-5.5 4.8-4.4s4.1 3.8 5.5 2.5 1.5-2.9-.7-3.6-4.6-2-6.1-1.5-6.1 5.3-6.1 5.3l2.6 1.7z"/><path class="st3" d="M408.5 304c-.1-1.9 1.2-10.3 6.5-9.2 2.9.6 4.3 3.6 8 5 3.9 1.5 6.5 2.4 5.7 5s-2.2 5.7-5.5 6.5c-3.3.8-14.7-7.3-14.7-7.3z"/><g><path class="st6" d="M405.1 310.9c-1.1.2-5.3 6.3-.3 12.4 0 0 6 2.5 10.9-1.3s1.2-5.7 1.2-5.7l-11.8-5.4z"/><path class="st6" d="M405.5 312.2c-.5-.8-.4-1.3-.4-1.3s-.3-8.7 3.4-8.8c3.6-.2 16.6 8.4 16.6 9.8s-4.2 5.5-7.7 6.4c-3.6.8-11.9-6.1-11.9-6.1z"/></g><path class="st7" d="M396.6 333.2s11.5-5.2 9.3-9.3c-1.6-3-5-1.1-5.6 1.2-.7 2.9-2.9 6.9-3.7 8.1z"/><path d="M383.9 347.9l-.7-.2c-.7-.2-16.5-5.3-32.6-15.9-21.6-14.2-33-31.6-33-50.3V180.2h132.5v101.2c0 18.6-11.4 36-33 50.3-16.1 10.6-31.9 15.7-32.6 15.9l-.6.3zM322 184.6v96.9c0 39.3 55.2 59.5 61.9 61.8 6.7-2.3 61.9-22.5 61.9-61.8v-96.9H322z"/><g id="Union_flag"><path fill="#012169" d="M0 88h256.1v168.2H0z"/><path class="st1" d="M106 150.1v-7.9L22.7 88H0v17l69.3 45.1zM106 194.1H70.8L0 240.1v16.1h24.2l81.8-53.3zM233.9 88L150 142.5v7.6h37.3l68.8-44.8V88zM150 194.1v8.5l82.5 53.6h23.6v-16.4l-70.2-45.7z"/><path class="st1" d="M256.1 150.1H150V88h-44v62.1H0v44h106v62.1h44v-62.1h106.1z"/><path class="st2" d="M256.1 158.8H141.3V88h-26.5v70.8H0v26.5h114.8v70.9h26.5v-70.9h114.8z"/><path class="st2" d="M97.2 150.1L1.7 88H0v9.6l80.7 52.5zM106 194.1H89.6L0 252.4v3.8h10.6zM157.3 194.1l95.5 62.1h3.3v-8.6l-82.3-53.5zM245.4 88L150 150v.1h16.4l89.7-58.3V88z"/></g></svg>