<?xml version="1.0" encoding="utf-8"?>
<!-- Generator: Adobe Illustrator 25.0.0, SVG Export Plug-In . SVG Version: 6.00 Build 0)  -->
<svg version="1.1" id="Layer_1" xmlns="http://www.w3.org/2000/svg" xmlns:xlink="http://www.w3.org/1999/xlink" x="0px" y="0px"
	 viewBox="0 0 512 512" style="enable-background:new 0 0 512 512;" xml:space="preserve">
<style type="text/css">
	.st0{fill:#68BFE5;}
	.st1{fill:#FFFFFF;}
	.st2{fill:#C8102E;}
	.st3{fill:#FFD100;}
	.st4{fill:#FFD25A;}
	.st5{fill:#FFBE5A;}
	.st6{fill:#00A651;}
	.st7{fill:#B46446;}
	.st8{fill:#FFECDE;}
	.st9{fill:#012169;}
</style>
<rect y="88.3" class="st0" width="512" height="336"/>
<path class="st1" d="M322,184.6v96.9c0,39.3,55.2,59.5,61.9,61.8c6.7-2.3,61.9-22.5,61.9-61.8v-96.9H322L322,184.6z"/>
<polygon class="st2" points="448,229 448,182.4 319.8,182.4 319.8,229 375.2,229 375.2,272.7 319.8,272.7 319.8,290.2 375.2,290.2 
	375.2,342.6 383.9,345.6 392.7,342.6 392.7,290.2 448,290.2 448,272.7 392.7,272.7 392.7,229 "/>
<circle class="st1" cx="334.2" cy="210.9" r="7.3"/>
<g>
	<path class="st3" d="M348.2,201c-2.3-1.3-6.5-4.7-8.2-4.1c-1.7,0.6-2.1,1.8-4.4,2s-5.9,2.4-4.4,4.9c2,3.2,8.1,0.7,8.6-0.8
		c0,0,1.5,0.2,2.8-0.1c0,0,2.5,3.5,5.7,3.3c3.1-0.2,4.6-4.1,3.9-4.1S348.2,201,348.2,201z"/>
	<path class="st3" d="M357.9,216.5c-0.5,1-4.5,4.4-11.2,6c-1.5,0.4-1.2,2.1-2.7,1.2c-1.5-0.9-5.6-1.6-9.3-1.8
		c-3.7-0.2-4-3.6-3.4-4.8c0.8-1.6,6.7-2.5,7.7-0.6s1.8,1.5,4.5,2.1c1.6,0.3,1.7,1.1,1.7,1.1s3-3,5.5-3.9s4.7-2.8,5.2-2.8
		c0.4,0,2.7,0.6,2.7,0.6L357.9,216.5z"/>
	<path class="st3" d="M367.6,206.1c3.9,1.4,15.2,1,27.4-3s15.7-4.6,21.6-2.5s8.5-4.7,4.6-5.9c-6.1-1.8-25.1,9.2-38.9,3
		c0,0-0.4,1.7,0,2.5c0,0-10,0.4-7.6-10c0,0,0.7,3.8,5.4,3.3c8.9-0.8,10.2,5.5,29.1-0.4c10.5-3.2,18.6-1.6,18.7,3.5
		c0.1,6.1-8.4,7.6-8.4,7.6s3.3,6.7,9.9,3.8s7,2.2,7.6,3.9c0.6,1.8,1.7,3.4,3.1,3.6c0,0,1,3.1,0.6,3.6c-0.4,0.4-3.1,3.9-5.9,3.9
		s-8.7,0-8.7,0s-1.6-3.9,1.5-4c3-0.1,6.7-0.3,6.2-1.9c-0.5-1.6-2.9-2.4-2.8-4.2c0,0-7.1,5.1-11.4-0.9l-0.1,2.9c0,0-5.3-1-7.2-5.3
		c0,0,0.5,4.8-4,4.1c0,0,0.9,1.4,2.5,2.4s-0.1,3.1-3.1,5c-3,1.8-12.4,7.1-16.6,1.7c-4.3-5.4,0.9-8.5,2.2-8.1s5,6,7.5,5.3
		c2.5-0.8,3.7-3.3,1.6-4.9s-3.7-3.1-2.3-4.7c1.8-2.2,8.5-1.5,8.3-3s-6.5-1.1-10.6,3s-21.8,13.5-28.9,7.5
		C362,211.9,367.6,206.1,367.6,206.1z"/>
</g>
<path class="st4" d="M365.4,203.5c0,0,5.3,5.3,14.4,6.9c0,0-1.7,2.5-6.5,1.8c0,0,1.9,1.7,3.2,4.5c0,0-3.1,0.7-5.8-0.8
	c0,0,0.4,2.3,1.7,4.1c0,0-3.6,0-6.7-2.7l-1.2,3.5c0,0-2.1-1.4-3.4-4.1c0,0-2.5,1.9-4.9,1.9c0,0,0.9-2.6,0.9-4.1c0,0-3.5,2.1-6.4,1.3
	c0,0,0.1-3.7,1-4.7c0,0-2.3,0.3-3.8-0.5c0,0,0.9-2,1.3-3.3c0,0-2.5,0.1-3.9-1.3c0,0,4.7-1.8,5.8-3.6L365.4,203.5z"/>
<path class="st5" d="M356.7,188.8c1,0.6,2.7,1.9,3.4,4c0,0,1.9-2.8,5.3-3.3c0,0,1.5,1.6,1,5.9c0,0,3.7-1.1,5.7,0.9
	c0,0-3.9,0.9-5.7,4.1c0,0-0.7,3.3,0.5,5.3c0,0-1.4,0.2-2.7-0.4c0,0-0.7,3.3,0,4.4c0,0-1.9-0.2-3-2.3c0,0-1.6,2.4-1.5,3.9
	c0,0-2.1-1.2-2.2-3c0,0-1.5,2.7-3,3c0,0-0.2-3.9-0.9-5.3c0,0-1.3,1.5-3.1,1.4c0,0,0-3,1.5-4.4c0,0-2.5,0.8-3.8-1.9c0,0,4,1.2,5-1.3
	s1.3-3.2,2.7-4.6C357.3,193.8,356.7,188.8,356.7,188.8z"/>
<path class="st3" d="M365.4,200.1c0,0-5,9.5-9.5,6.7c-5-3.2,1.2-10.6,2-11.4C357.8,195.4,361.5,196.3,365.4,200.1z"/>
<path class="st6" d="M347.4,249c0,0-0.5-6.9-4.2-8.8c-3.5-1.9-5.6-2.8-6-5.2c0,0,3,1.4,6.2,2.3c2.9,0.8,5.7,5.7,4.9,11.2L347.4,249z
	"/>
<path class="st7" d="M335.6,254.6l0.5,0.9l0.3,1.9l-0.7,2.2c0,0,2.7,1.1,3.4,4.8c0.4,2.5,1.5,3.1,2.2,2.6s1.1-1.1,0.4-3.9
	c-0.9-3.5-3.4-6.9-3.4-6.9l-1.9-3L335.6,254.6z"/>
<g>
	<path class="st6" d="M338.3,256.1c-2.5-3.2-9.3-9.9-10.6-0.8c0,0-2.7-7.7,2.3-7.4C335.9,248.2,338.3,256.1,338.3,256.1z"/>
	<path class="st6" d="M336.1,255.5c-2.1-2.4-2.8-4.1-4-8.4c-1.1-4.4-1.5-5.7-2.7-5.6c-1.3,0.1-2.1,1.5-2.1,4.3c0,0-3.8-3.4-1.2-6.1
		c2.6-2.7,8.3-1.2,8.7,3.6c0.3,4.8,0.3,8,2,12L336.1,255.5z"/>
	<path class="st6" d="M336.7,253.4c0,0-4.6-10,8.2-15.4c0,0-11.3-3-10,13.1L336.7,253.4z"/>
	<path class="st6" d="M338.2,256.9c0,0-9.6-3.7-8.8,5.2c0,0,1.6-4.2,6.4-2.6L338.2,256.9z"/>
</g>
<path class="st7" d="M349.1,253.4c0,2.6,1,10.1-0.4,11.1c-0.7,0.5-2.8,0.1-2.6-1.7s1-10.7,1-12.9C347,247.7,349.1,253.4,349.1,253.4
	z"/>
<g>
	<path class="st6" d="M343,259.5c1.7-1.7,2.2-5.5,1.6-10.6c0,0,3.4,2.4,4.5,4.6c0,0,1.1-5.1-2.5-6.4c-3.5-1.3-5.4-0.6-6.1,1
		c-0.6,1.6,1.1,3.4,1.8,6.1C343.1,256.6,343,259.5,343,259.5z"/>
	<path class="st6" d="M348.9,252.1c0,0,0.6-2.7,2.5-3.8c0,0,3.9,2.7,3.6,6.4c0,0,1-5-1.1-7s-4.5-2.5-5.7-0.8
		C346.9,248.7,348.9,252.1,348.9,252.1z"/>
	<path class="st6" d="M349.8,247c0,0,1.2-7.1,4.2-8.7c3-1.6,8.6-3,9-3.4c0,0-6.7,0.3-7.8,0.3c-1.1,0-7.1,4.4-7.1,10.8
		c0,6.4,0.6,2,0.7,2C349,248,349.8,247,349.8,247z"/>
</g>
<path class="st7" d="M352.6,265.9c0.7,1.4,2.3,1.8,2.7,1c0.3-0.7,1.9-6.4,1.9-6.4l-2.2-1L352.6,265.9z"/>
<path class="st6" d="M365.4,242.1c2.7-1.6,4.5,3.1,4.5,3.1c0-5.5-1.7-7.2-6-5.1c-1.3,0.6-2.2,1.9-2.9,3.5c-2.2-6.2-7-6.2-7-6.2
	l-1.1,0.8c3.9,0.8,6.2,5.5,7.1,8c-0.5,1.9-0.8,3.7-0.9,4.7c-2.6,2.7-4.2,8.6-4.2,8.6s1.8,1.1,2.2,1c0,0,1.2-3.7,2.7-3.6
	s3.3,2.5,3.3,4c0,0,2.2-4.5-0.4-6.3c-1-0.7-1.8-0.9-2.4-0.9l2-2.2c3.2,0.6,5.5,3.7,5.5,3.7c0.1-5.4-2.3-6.5-4.9-6.1
	C363.3,246.9,364.3,242.8,365.4,242.1z"/>
<path class="st7" d="M418.4,249.6c0,4.6,0,14.7,0,15.4s-3.3,3.7-3.3,3.7h8.7c0,0-2.8-3.2-2.8-3.7s0.6-14.3,0.6-14.3L418.4,249.6z"/>
<g>
	<path class="st6" d="M419,251.2c-2.1-0.2-7.8,4.6-9.5,11.8c0,0-5.1-8.3,7.7-15.2c0,0-5.7-1.7-14.3,7.3c-0.5,0.5-0.9-13.5,14.6-9.8
		c0,0-5.9-8.6-18-1.8c0,0,8.1-14.4,19.9-1.5c0,0,0.1-11.2,0.2-10s1,6.3,1,6.3l2.3-4.1l-1.8,8.3c0,0,10.6-14.1,19.6,0.6
		c0,0-11.6-4.8-17.2,0.6c0,0,12-3.2,11,10.6c0,0-4.7-8.2-12.4-7.1c0,0,9,4.1,6.1,15.4C428.1,262.5,422.7,251.5,419,251.2z"/>
	<path class="st6" d="M342.8,301.1c-0.4-0.6-1.1-0.9-1.7-1c0.2-0.8,0.4-1.2,0.3-1.8c0.2,0,0.4,0.1,0.6,0.2l0.1-0.7
		c-0.7-0.1-1.5-0.4-2.3-0.9c0.5-0.4,0.8-1.1,0.8-1.9c0-0.9-0.4-1.6-1-2c-0.6,0.4-1,1.1-1,2c0,0.6,0.3,1.2,0.6,1.6
		c-0.3-0.2-0.6-0.4-0.9-0.7c-0.1-0.5-0.3-1.1-0.7-1.5c-0.6-0.6-1.4-0.8-2.1-0.6c-0.1,0.7,0.2,1.5,0.8,2c0.5,0.4,1.1,0.6,1.6,0.6
		c0.1,0.1,0.3,0.2,0.4,0.3c-0.4,0-0.8,0-1.2,0.1c-0.8,0.3-1.3,0.9-1.5,1.6c0.6,0.4,1.4,0.5,2.2,0.2c0.7-0.3,1.2-0.8,1.4-1.3
		c0.5,0.3,1,0.6,1.5,0.8h-0.1c0,0.5,0,0.7-0.2,1.6c-0.5-0.4-1.3-0.5-2-0.3c-0.8,0.2-1.4,0.8-1.6,1.5c0.5,0.4,1.3,0.6,2.2,0.4
		c0.6-0.2,1-0.6,1.3-1c-0.1,0.3-0.3,0.7-0.4,1.1c-0.5,0.2-0.9,0.6-1.2,1.1c-0.4,0.8-0.3,1.6,0,2.2c0.7-0.1,1.3-0.6,1.7-1.4
		c0.3-0.6,0.3-1.2,0.1-1.7c0.1-0.2,0.1-0.3,0.2-0.5c0.1,0.4,0.2,0.8,0.5,1.1c0.5,0.7,1.2,1,1.9,1
		C343.4,302.6,343.3,301.8,342.8,301.1z"/>
</g>
<path class="st8" d="M338.9,299c2.9,0,6.7-0.1,6.6,2.8s-3.4,12.8,4.1,15.8s8.4,2.6,8.4,2.6l3.4,7.7l8.2-2.9l-7.8-6.3
	c0,0-0.7-4.3-2.6-7.2c0,0,4.8-2.5,6.5-4.6l-3.4-0.2c0,0,4.4-2.8,6.4-5.9l-2.4,0.2c0,0,2.7-2.7,3.4-5.8c0,0-4.4,4.4-8.8,4.9
	c0,0,1.9-4.9,2.4-6.8c0,0-3.4,2.1-5.7,3c-2.4,0.9-6,1-4.4,8.6c0,0-2-1.7-3.2-5.3c-1.2-3.6-1.7-4.9-3.4-4.9c-2.7,0-3.8,2.5-3.8,2.5
	L338.9,299z"/>
<path class="st7" d="M421.5,300.4c1-1.3,3-5.5,4.8-4.4s4.1,3.8,5.5,2.5s1.5-2.9-0.7-3.6s-4.6-2-6.1-1.5s-6.1,5.3-6.1,5.3
	L421.5,300.4z"/>
<path class="st3" d="M408.5,304c-0.1-1.9,1.2-10.3,6.5-9.2c2.9,0.6,4.3,3.6,8,5c3.9,1.5,6.5,2.4,5.7,5s-2.2,5.7-5.5,6.5
	C419.9,312.1,408.5,304,408.5,304z"/>
<g>
	<path class="st6" d="M405.1,310.9c-1.1,0.2-5.3,6.3-0.3,12.4c0,0,6,2.5,10.9-1.3s1.2-5.7,1.2-5.7L405.1,310.9z"/>
	<path class="st6" d="M405.5,312.2c-0.5-0.8-0.4-1.3-0.4-1.3s-0.3-8.7,3.4-8.8c3.6-0.2,16.6,8.4,16.6,9.8s-4.2,5.5-7.7,6.4
		C413.8,319.1,405.5,312.2,405.5,312.2z"/>
</g>
<path class="st7" d="M396.6,333.2c0,0,11.5-5.2,9.3-9.3c-1.6-3-5-1.1-5.6,1.2C399.6,328,397.4,332,396.6,333.2z"/>
<path d="M383.9,347.9l-0.7-0.2c-0.7-0.2-16.5-5.3-32.6-15.9c-21.6-14.2-33-31.6-33-50.3V180.2h132.5v101.2c0,18.6-11.4,36-33,50.3
	c-16.1,10.6-31.9,15.7-32.6,15.9L383.9,347.9z M322,184.6v96.9c0,39.3,55.2,59.5,61.9,61.8c6.7-2.3,61.9-22.5,61.9-61.8v-96.9H322
	L322,184.6z"/>
<g id="Union_flag">
	<rect y="88" class="st9" width="256.1" height="168.2"/>
	<g>
		<polygon class="st1" points="106,150.1 106,142.2 22.7,88 0,88 0,105 69.3,150.1 		"/>
		<polygon class="st1" points="106,194.1 70.8,194.1 0,240.1 0,256.2 24.2,256.2 106,202.9 		"/>
		<polygon class="st1" points="233.9,88 150,142.5 150,150.1 187.3,150.1 256.1,105.3 256.1,88 		"/>
		<polygon class="st1" points="150,194.1 150,202.6 232.5,256.2 256.1,256.2 256.1,239.8 185.9,194.1 		"/>
	</g>
	<polygon class="st1" points="256.1,150.1 150,150.1 150,88 106,88 106,150.1 0,150.1 0,194.1 106,194.1 106,256.2 150,256.2 
		150,194.1 256.1,194.1 	"/>
	<polygon class="st2" points="256.1,158.8 141.3,158.8 141.3,88 114.8,88 114.8,158.8 0,158.8 0,185.3 114.8,185.3 114.8,256.2 
		141.3,256.2 141.3,185.3 256.1,185.3 	"/>
	<polygon class="st2" points="97.2,150.1 1.7,88 0,88 0,97.6 80.7,150.1 	"/>
	<polygon class="st2" points="106,194.1 89.6,194.1 0,252.4 0,256.2 10.6,256.2 	"/>
	<polygon class="st2" points="157.3,194.1 252.8,256.2 256.1,256.2 256.1,247.6 173.8,194.1 	"/>
	<polygon class="st2" points="245.4,88 150,150 150,150.1 166.4,150.1 256.1,91.8 256.1,88 	"/>
</g>
</svg>
