<svg version="1.1" id="Layer_1" xmlns="http://www.w3.org/2000/svg" x="0" y="0" viewBox="0 0 512 512" xml:space="preserve"><style>.st0{fill:#012169}.st1{fill:#fff}.st2{fill:#c8102e}</style><path class="st0" d="M256.1 88v168.2H0V424h512V88z"/><g id="Union_flag"><path class="st0" d="M0 88h256.1v168.2H0z"/><path class="st1" d="M106 150.1v-7.9L22.7 88H0v17l69.3 45.1zM106 194.1H70.8L0 240.1v16.1h24.2l81.8-53.3zM233.9 88L150 142.5v7.6h37.3l68.8-44.8V88zM150 194.1v8.5l82.5 53.6h23.6v-16.4l-70.2-45.7z"/><path class="st1" d="M256.1 150.1H150V88h-44v62.1H0v44h106v62.1h44v-62.1h106.1z"/><path class="st2" d="M256.1 158.8H141.3V88h-26.5v70.8H0v26.5h114.8v70.9h26.5v-70.9h114.8z"/><path class="st2" d="M97.2 150.1L1.7 88H0v9.6l80.7 52.5zM106 194.1H89.6L0 252.4v3.8h10.6zM157.3 194.1l95.5 62.1h3.3v-8.6l-82.3-53.5zM245.4 88L150 150v.1h16.4l89.7-58.3V88z"/></g><g id="shield" transform="translate(312 82)"><path id="Path_7_" d="M1.2 194.2v-90c0-8.5 6.5-15.3 15-15.3h120.5c8.3 0 15 6.8 15 15.3v90c0 75.2-75.2 105.3-75.2 105.3S1.2 269.4 1.2 194.2z" fill="#259bfd"/><path id="Shape" class="st1" d="M.2 194.2v-90c0-8.5 6.5-15.3 15-15.3h120.5c8.3 0 15 6.8 15 15.3v90c0 75.2-75.2 105.3-75.2 105.3S.2 269.4.2 194.2zm79.6 86.3c7.9-4.5 15.9-10 23.2-16.7 20.5-18.5 32.6-41.4 32.6-69.7v-90c0-.3-120.4-.3-120.4-.3v90.3c0 28.3 12.1 51.2 32.6 69.7 8.3 7.5 17.6 13.9 27.6 19 1.4-.6 2.8-1.4 4.4-2.3z"/><path id="Path_8_" d="M35.1 198.4c-2.6-7.9 1.7-14.3 10.1-14.3h60.5c8.2 0 12.8 6.3 10.1 14.3l-5.5 16.5c-2.6 7.9-8.9 9.2-15.8 4 0 0 2.6-6.8-19.1-6.8s-19.1 6.8-19.1 6.8c-6.1 5.7-13.1 4-15.8-4 .1.1-5.4-16.5-5.4-16.5z" fill="#4c7c28"/><path id="Path_9_" class="st1" d="M45.4 184.1c8.1 1.6 17.8-15 30.1-15 13.1 0 21.8 17.1 30.1 15 7.4-1.8 15-22.2 15-30.1 0-16.6-20.2-30.1-45.1-30.1S30.4 137.4 30.4 154c-.1 8.5 6.6 28.5 15 30.1z"/><path id="Shape_1_" class="st1" d="M44 275.7c6.2.4 12.5-1.8 17.2-6.5l9-9c2.9-2.9 7.5-2.9 10.4 0l9 9c4.7 4.7 11 6.9 17.1 6.5 5.3-.3 32.5-33.5 25.7-32.6-4.6.6-9.1 2.8-12.7 6.3l-.1.1-9 9c-2.9 2.9-7.5 2.9-10.4 0l-9-9c-8.7-8.8-22.9-8.8-31.7-.1l-.1.1-9 9c-2.9 2.9-7.5 2.9-10.4 0l-9-9c-3.5-3.5-7.8-5.6-12.3-6.3-6.7-1.1 20.1 32.2 25.3 32.5zM10.1 215c2.9-2.9 7.5-2.9 10.4 0l9 9c8.8 8.7 22.9 8.7 31.7 0l9-9c2.9-2.9 7.5-2.9 10.4 0l9 9c8.8 8.7 22.9 8.7 31.7 0l9-9c2.9-2.9 7.5-2.9 10.4 0 0 0 5.5-14.8 2.5-15.9-7.9-2.9-17.2-1.2-23.5 5.2l-.1.1-9 9c-2.9 2.9-7.5 2.9-10.4 0l-9-9c-8.7-8.8-22.9-8.8-31.7-.1l-.1.1-9 9c-2.9 2.9-7.5 2.9-10.4 0l-9-9c-6.2-6.2-15.1-8-22.8-5.5-3.1 1.1 1.9 16.1 1.9 16.1z"/></g></svg>