<svg version="1.1" id="Layer_1" xmlns="http://www.w3.org/2000/svg" x="0" y="0" viewBox="0 0 512 512" xml:space="preserve"><style>.st1{fill:#fff}</style><path fill="#75b2dd" d="M0 88.3h512v336H0z"/><path class="st1" d="M254.8 136.6L248 157l-21.5.2c-1.2 0-1.7 1.5-.7 2.2l17.3 12.8-6.5 20.5c-.4 1.1.9 2.1 1.9 1.4l17.5-12.5 17.5 12.5c1 .7 2.2-.2 1.9-1.4l-6.5-20.5 17.3-12.8c.9-.7.5-2.2-.7-2.2L264 157l-6.8-20.4c-.4-1.1-2-1.1-2.4 0zM254.8 318.6L248 339l-21.5.2c-1.2 0-1.7 1.5-.7 2.2l17.3 12.8-6.5 20.5c-.4 1.1.9 2.1 1.9 1.4l17.5-12.5 17.5 12.5c1 .7 2.2-.2 1.9-1.4l-6.5-20.5 17.3-12.8c.9-.7.5-2.2-.7-2.2L264 339l-6.8-20.4c-.4-1.1-2-1.1-2.4 0zM375.4 254.8L355 248l-.2-21.5c0-1.2-1.5-1.7-2.2-.7l-12.8 17.3-20.5-6.5c-1.1-.4-2.1.9-1.4 1.9l12.5 17.5-12.4 17.5c-.7 1 .2 2.2 1.4 1.9l20.5-6.5 12.8 17.3c.7.9 2.2.5 2.2-.7l.1-21.5 20.4-6.8c1.1-.4 1.1-2 0-2.4zM136.6 254.8L157 248l.2-21.5c0-1.2 1.5-1.7 2.2-.7l12.8 17.3 20.5-6.5c1.1-.4 2.1.9 1.4 1.9L181.5 256l12.5 17.5c.7 1-.2 2.2-1.4 1.9l-20.5-6.5-12.8 17.3c-.7.9-2.2.5-2.2-.7L157 264l-20.4-6.8c-1.1-.4-1.1-2 0-2.4z"/></svg>