<?xml version="1.0" encoding="utf-8"?>
<!-- Generator: Adobe Illustrator 25.0.0, SVG Export Plug-In . SVG Version: 6.00 Build 0)  -->
<svg version="1.1" id="Layer_1" xmlns="http://www.w3.org/2000/svg" xmlns:xlink="http://www.w3.org/1999/xlink" x="0px" y="0px"
	 viewBox="0 0 512 512" style="enable-background:new 0 0 512 512;" xml:space="preserve">
<style type="text/css">
	.st0{fill:#75B2DD;}
	.st1{fill:#FFFFFF;}
</style>
<rect y="88.3" class="st0" width="512" height="336"/>
<g>
	<path class="st1" d="M254.8,136.6L248,157l-21.5,0.2c-1.2,0-1.7,1.5-0.7,2.2l17.3,12.8l-6.5,20.5c-0.4,1.1,0.9,2.1,1.9,1.4
		l17.5-12.5l17.5,12.5c1,0.7,2.2-0.2,1.9-1.4l-6.5-20.5l17.3-12.8c0.9-0.7,0.5-2.2-0.7-2.2L264,157l-6.8-20.4
		C256.8,135.5,255.2,135.5,254.8,136.6z"/>
	<path class="st1" d="M254.8,318.6L248,339l-21.5,0.2c-1.2,0-1.7,1.5-0.7,2.2l17.3,12.8l-6.5,20.5c-0.4,1.1,0.9,2.1,1.9,1.4
		l17.5-12.5l17.5,12.5c1,0.7,2.2-0.2,1.9-1.4l-6.5-20.5l17.3-12.8c0.9-0.7,0.5-2.2-0.7-2.2L264,339l-6.8-20.4
		C256.8,317.5,255.2,317.5,254.8,318.6z"/>
	<path class="st1" d="M375.4,254.8L355,248l-0.2-21.5c0-1.2-1.5-1.7-2.2-0.7l-12.8,17.3l-20.5-6.5c-1.1-0.4-2.1,0.9-1.4,1.9
		l12.5,17.5L318,273.5c-0.7,1,0.2,2.2,1.4,1.9l20.5-6.5l12.8,17.3c0.7,0.9,2.2,0.5,2.2-0.7L355,264l20.4-6.8
		C376.5,256.8,376.5,255.2,375.4,254.8z"/>
	<path class="st1" d="M136.6,254.8L157,248l0.2-21.5c0-1.2,1.5-1.7,2.2-0.7l12.8,17.3l20.5-6.5c1.1-0.4,2.1,0.9,1.4,1.9L181.5,256
		l12.5,17.5c0.7,1-0.2,2.2-1.4,1.9l-20.5-6.5l-12.8,17.3c-0.7,0.9-2.2,0.5-2.2-0.7L157,264l-20.4-6.8
		C135.5,256.8,135.5,255.2,136.6,254.8z"/>
</g>
</svg>
