<?xml version="1.0" encoding="utf-8"?>
<!-- Generator: Adobe Illustrator 25.0.0, SVG Export Plug-In . SVG Version: 6.00 Build 0)  -->
<svg version="1.1" id="Layer_1" xmlns="http://www.w3.org/2000/svg" xmlns:xlink="http://www.w3.org/1999/xlink" x="0px" y="0px"
	 viewBox="0 0 512 512" style="enable-background:new 0 0 512 512;" xml:space="preserve">
<style type="text/css">
	.st0{fill:#FFFFFF;}
	.st1{fill:#0165BF;}
	.st2{fill:#EE2436;}
</style>
<rect y="88" class="st0" width="141.2" height="123.8"/>
<rect y="300.2" class="st0" width="141.2" height="123.8"/>
<rect x="229.5" y="300.2" class="st0" width="282.5" height="123.8"/>
<rect x="229.5" y="88" class="st0" width="282.5" height="123.8"/>
<polygon class="st1" points="229.5,211.8 229.5,88 211.9,88 211.9,229.5 512,229.5 512,211.8 "/>
<polygon class="st1" points="0,282.5 0,300.2 141.2,300.2 141.2,424 158.9,424 158.9,282.5 "/>
<polygon class="st1" points="158.9,88 141.2,88 141.2,211.8 0,211.8 0,229.5 158.9,229.5 "/>
<polygon class="st1" points="211.9,424 229.5,424 229.5,300.2 512,300.2 512,282.5 211.9,282.5 "/>
<polygon class="st2" points="512,229.5 211.9,229.5 211.9,88 158.9,88 158.9,229.5 0,229.5 0,282.5 158.9,282.5 158.9,424 
	211.9,424 211.9,282.5 512,282.5 "/>
</svg>
