<svg version="1.1" id="Layer_1" xmlns="http://www.w3.org/2000/svg" x="0" y="0" viewBox="0 0 512 512" xml:space="preserve"><style>.st1{fill:#fff}.st2{fill:#c8102e}</style><path fill="#012169" d="M0 88h512v336H0z"/><path class="st1" d="M211.9 212.1v-15.8L45.4 88H0v34l138.5 90.1zM211.9 299.9h-70.4L0 391.8V424h48.4l163.5-106.5zM467.6 88L299.9 196.9v15.2h74.6L512 122.6V88zM299.9 299.9v17L464.8 424H512v-32.8l-140.3-91.3z"/><path class="st1" d="M512 212.1H299.9V88h-88v124.1H0v87.8h211.9V424h88V299.9H512z"/><path class="st2" d="M512 229.4H282.5V88h-53v141.4H0v53h229.5V424h53V282.4H512z"/><path class="st2" d="M194.3 212.1L3.4 88H0v19.2l161.3 104.9zM211.9 299.9h-32.8L0 416.4v7.6h21.2zM314.5 299.9L505.4 424h6.6v-17.2L347.5 299.9zM490.6 88L299.9 211.9v.2h32.8L512 95.6V88z"/></svg>