<svg version="1.1" id="Layer_1" xmlns="http://www.w3.org/2000/svg" x="0" y="0" viewBox="0 0 512 512" xml:space="preserve"><style>.st0{fill:#ce1126}.st1{fill:#007a5e}.st2{fill:#fcd116}</style><path class="st0" d="M0 88.3v336h512v-336H0zm459 282.5H53V141.2h406v229.6z"/><path class="st1" d="M53 141.2L256 256 53 370.8zM459 141.2L256 256l203 114.8z"/><path class="st2" d="M53 370.8h406L256 256zM53 141.2L256 256l203-114.8z"/><circle class="st0" cx="256" cy="256" r="35.3"/><path class="st2" d="M258.2 230.1l5.5 16.6 17.5.1c2.3 0 3.2 2.9 1.4 4.2l-14 10.4 5.3 16.6c.7 2.2-1.8 3.9-3.6 2.6L256 270.5l-14.2 10.2c-1.8 1.3-4.3-.5-3.6-2.6l5.3-16.6-14-10.4c-1.8-1.3-.9-4.2 1.4-4.2l17.5-.1 5.5-16.6c.6-2.2 3.6-2.2 4.3-.1zM257.3 100l3.3 9.8 10.3.1c1.3 0 1.9 1.7.8 2.5l-8.3 6.1 3.1 9.8c.4 1.3-1 2.3-2.1 1.5l-8.4-6-8.4 6c-1.1.8-2.5-.3-2.1-1.5l3.1-9.8-8.3-6.1c-1.1-.8-.5-2.5.8-2.5l10.3-.1 3.3-9.8c.4-1.3 2.2-1.3 2.6 0zM373.5 100l3.3 9.8 10.3.1c1.3 0 1.9 1.7.8 2.5l-8.3 6.1 3.1 9.8c.4 1.3-1 2.3-2.1 1.5l-8.4-6-8.4 6c-1.1.8-2.5-.3-2.1-1.5l3.1-9.8-8.3-6.1c-1.1-.8-.5-2.5.8-2.5l10.3-.1 3.3-9.8c.3-1.3 2.1-1.3 2.6 0zM141.2 100l3.3 9.8 10.3.1c1.3 0 1.9 1.7.8 2.5l-8.3 6.1 3.1 9.8c.4 1.3-1 2.3-2.1 1.5l-8.4-6-8.4 6c-1.1.8-2.5-.3-2.1-1.5l3.1-9.8-8.3-6.1c-1.1-.8-.5-2.5.8-2.5l10.3-.1 3.3-9.8c.4-1.3 2.2-1.3 2.6 0zM257.3 382l3.3 9.8 10.3.1c1.3 0 1.9 1.7.8 2.5l-8.3 6.1 3.1 9.8c.4 1.3-1 2.3-2.1 1.5l-8.4-6-8.4 6c-1.1.8-2.5-.3-2.1-1.5l3.1-9.8-8.3-6.1c-1.1-.8-.5-2.5.8-2.5l10.3-.1 3.3-9.8c.4-1.3 2.2-1.3 2.6 0zM373.5 382l3.3 9.8 10.3.1c1.3 0 1.9 1.7.8 2.5l-8.3 6.1 3.1 9.8c.4 1.3-1 2.3-2.1 1.5l-8.4-6-8.4 6c-1.1.8-2.5-.3-2.1-1.5l3.1-9.8-8.3-6.1c-1.1-.8-.5-2.5.8-2.5l10.3-.1 3.3-9.8c.3-1.3 2.1-1.3 2.6 0zM141.2 382l3.3 9.8 10.3.1c1.3 0 1.9 1.7.8 2.5l-8.3 6.1 3.1 9.8c.4 1.3-1 2.3-2.1 1.5l-8.4-6-8.4 6c-1.1.8-2.5-.3-2.1-1.5l3.1-9.8-8.3-6.1c-1.1-.8-.5-2.5.8-2.5l10.3-.1 3.3-9.8c.4-1.3 2.2-1.3 2.6 0zM118.1 233.9H96V256c0 12.2 9.9 22.1 22.1 22.1s22.1-9.9 22.1-22.1-9.9-22.1-22.1-22.1z"/><path class="st0" d="M140.1 278.1l-12.1-2.4-9.9-19.7 19.7 9.9z"/></svg>