<svg version="1.1" id="Layer_1" xmlns="http://www.w3.org/2000/svg" x="0" y="0" viewBox="0 0 512 512" xml:space="preserve"><style>.st0{fill:red}.st1{fill:#fff}</style><path class="st0" d="M512 229.7H282.5V88.3h-53v141.4H0v53.1h229.5v141.5h53V282.8H512z"/><path class="st1" d="M282.5 88.3H512v141.5H282.5zM0 282.8h229.5v141.5H0zM0 88.3h229.5v141.5H0zM282.5 282.8H512v141.5H282.5z"/><path class="st0" d="M150.1 146.9c-8.7.9-17.3 1.8-25.9 2.6.9-8.6 1.8-17.2 2.6-25.9-8 1-16.1 1-24.1 0 .9 8.8 1.8 17.3 2.6 25.9-8.6-.9-17.1-1.8-25.9-2.6 1 8 1 16.1 0 24.2 8.7-.9 17.3-1.8 25.9-2.6-.9 8.6-1.8 17.2-2.6 25.9 8-1 16.1-1 24.1 0-.9-8.8-1.8-17.3-2.6-25.9 8.6.9 17.1 1.8 25.9 2.6-1.1-8-1.1-16.1 0-24.2zM432.6 146.9c-8.7.9-17.3 1.8-25.9 2.6.9-8.6 1.8-17.2 2.6-25.9-8 1-16.1 1-24.1 0 .9 8.8 1.8 17.3 2.6 25.9-8.6-.9-17.1-1.8-25.9-2.6 1 8 1 16.1 0 24.2 8.7-.9 17.3-1.8 25.9-2.6-.9 8.6-1.8 17.2-2.6 25.9 8-1 16.1-1 24.1 0-.9-8.8-1.8-17.3-2.6-25.9 8.6.9 17.1 1.8 25.9 2.6-1.1-8-1.1-16.1 0-24.2zM150.1 341.5c-8.7.9-17.3 1.8-25.9 2.6.9-8.6 1.8-17.2 2.6-25.9-8 1-16.1 1-24.1 0 .9 8.8 1.8 17.3 2.6 25.9-8.6-.9-17.1-1.8-25.9-2.6 1 8 1 16.1 0 24.2 8.7-.9 17.3-1.8 25.9-2.6-.9 8.6-1.8 17.2-2.6 25.9 8-1 16.1-1 24.1 0-.9-8.8-1.8-17.3-2.6-25.9 8.6.9 17.1 1.8 25.9 2.6-1.1-8.1-1.1-16.2 0-24.2zM432.6 341.5c-8.7.9-17.3 1.8-25.9 2.6.9-8.6 1.8-17.2 2.6-25.9-8 1-16.1 1-24.1 0 .9 8.8 1.8 17.3 2.6 25.9-8.6-.9-17.1-1.8-25.9-2.6 1 8 1 16.1 0 24.2 8.7-.9 17.3-1.8 25.9-2.6-.9 8.6-1.8 17.2-2.6 25.9 8-1 16.1-1 24.1 0-.9-8.8-1.8-17.3-2.6-25.9 8.6.9 17.1 1.8 25.9 2.6-1.1-8.1-1.1-16.2 0-24.2z"/></svg>