<svg version="1.1" id="Layer_1" xmlns="http://www.w3.org/2000/svg" x="0" y="0" viewBox="0 0 512 512" xml:space="preserve"><style>.st1{fill:#fff}</style><path id="Path" fill="#c8102e" d="M307 88H203v115.7H0v104h203V424h104V307.7h205v-104H307z"/><path class="st1" d="M0 307.7h203V424H0zM0 88h203v115.7H0zM307 307.7h205V424H307zM307 88h205v115.7H307z"/><path id="Path_1_" fill="#fcdf3b" d="M367.6 273l26 17.3V221l-26 17.3h-95.3v-95.2l17.3-26h-69.2l17.3 26v95.2h-95.3l-26-17.3v69.3l26-17.3h95.3v95.2l-17.3 26h69.2l-17.3-26V273z"/></svg>