<?xml version="1.0" encoding="utf-8"?>
<!-- Generator: Adobe Illustrator 25.0.0, SVG Export Plug-In . SVG Version: 6.00 Build 0)  -->
<svg version="1.1" id="Layer_1" xmlns="http://www.w3.org/2000/svg" xmlns:xlink="http://www.w3.org/1999/xlink" x="0px" y="0px"
	 viewBox="0 0 512 512" style="enable-background:new 0 0 512 512;" xml:space="preserve">
<style type="text/css">
	.st0{fill:#C8102E;}
	.st1{fill:#FFFFFF;}
	.st2{fill:#FCDF3B;}
</style>
<polygon id="Path" class="st0" points="307,88 203,88 203,203.7 0,203.7 0,307.7 203,307.7 203,424 307,424 307,307.7 512,307.7 
	512,203.7 307,203.7 "/>
<rect y="307.7" class="st1" width="203" height="116.3"/>
<rect y="88" class="st1" width="203" height="115.7"/>
<rect x="307" y="307.7" class="st1" width="205" height="116.3"/>
<rect x="307" y="88" class="st1" width="205" height="115.7"/>
<polygon id="Path_1_" class="st2" points="367.6,273 393.6,290.3 393.6,221 367.6,238.3 272.3,238.3 272.3,143.1 289.6,117.1 
	220.4,117.1 237.7,143.1 237.7,238.3 142.4,238.3 116.4,221 116.4,290.3 142.4,273 237.7,273 237.7,368.2 220.4,394.2 289.6,394.2 
	272.3,368.2 272.3,273 "/>
</svg>
