<?xml version="1.0" encoding="utf-8"?>
<!-- Generator: Adobe Illustrator 25.0.0, SVG Export Plug-In . SVG Version: 6.00 Build 0)  -->
<svg version="1.1" id="Layer_1" xmlns="http://www.w3.org/2000/svg" xmlns:xlink="http://www.w3.org/1999/xlink" x="0px" y="0px"
	 viewBox="0 0 512 512" style="enable-background:new 0 0 512 512;" xml:space="preserve">
<style type="text/css">
	.st0{fill:#CE1126;}
	.st1{fill:#FCD116;}
	.st2{fill:#006B3F;}
</style>
<rect y="88.3" class="st0" width="512" height="112"/>
<rect y="200.3" class="st1" width="512" height="112"/>
<rect y="312.3" class="st2" width="512" height="112"/>
<path d="M259.7,213.9l9.2,27.6l29.1,0.2c3.8,0,5.3,4.8,2.3,7.1l-23.4,17.3l8.8,27.8c1.1,3.6-3,6.6-6,4.4L256,281.3l-23.7,16.9
	c-3.1,2.2-7.2-0.8-6-4.4l8.8-27.8l-23.4-17.3c-3-2.2-1.5-7.1,2.3-7.1l29.1-0.2l9.2-27.6C253.5,210.3,258.5,210.3,259.7,213.9z"/>
</svg>
