<?xml version="1.0" encoding="utf-8"?>
<!-- Generator: Adobe Illustrator 25.0.0, SVG Export Plug-In . SVG Version: 6.00 Build 0)  -->
<svg version="1.1" id="Layer_1" xmlns="http://www.w3.org/2000/svg" xmlns:xlink="http://www.w3.org/1999/xlink" x="0px" y="0px"
	 viewBox="0 0 512 512" style="enable-background:new 0 0 512 512;" xml:space="preserve">
<style type="text/css">
	.st0{fill:#E32011;}
	.st1{fill:#FFFFFF;}
	.st2{fill:#FADC37;}
</style>
<rect y="312" class="st0" width="512" height="112"/>
<rect y="88" class="st1" width="512" height="224"/>
<polygon class="st0" points="353.1,211.9 353.1,194.2 335.4,194.2 335.4,150.1 344.3,150.1 344.3,132.4 291.3,132.4 291.3,150.1 
	300.1,150.1 300.1,194.2 273.7,194.2 273.7,132.4 282.5,132.4 282.5,114.8 229.5,114.8 229.5,132.4 238.3,132.4 238.3,194.2 
	211.9,194.2 211.9,150.1 220.7,150.1 220.7,132.4 167.7,132.4 167.7,150.1 176.6,150.1 176.6,194.2 158.9,194.2 158.9,211.9 
	167.7,211.9 167.7,282.5 158.9,282.5 158.9,300.1 353.1,300.1 353.1,282.5 344.3,282.5 344.3,211.9 "/>
<g>
	<path d="M273.7,291.3h-35.3V256c0-9.8,7.9-17.7,17.7-17.7l0,0c9.8,0,17.7,7.9,17.7,17.7V291.3z"/>
	<path d="M256,167.7c-4.9,0-8.8,4-8.8,8.8V203h17.7v-26.5C264.8,171.7,260.9,167.7,256,167.7z"/>
	<path d="M317.8,176.6c-4.9,0-8.8,4-8.8,8.8V203h17.7v-17.7C326.6,180.5,322.7,176.6,317.8,176.6z"/>
	<path d="M194.2,176.6c-4.9,0-8.8,4-8.8,8.8V203H203v-17.7C203,180.5,199.1,176.6,194.2,176.6z"/>
	<path d="M326.6,291.3h-35.3v-26.5c0-9.8,7.9-17.7,17.7-17.7l0,0c9.8,0,17.7,7.9,17.7,17.7V291.3z"/>
	<path d="M220.7,291.3h-35.3v-26.5c0-9.8,7.9-17.7,17.7-17.7l0,0c9.8,0,17.7,7.9,17.7,17.7V291.3z"/>
</g>
<path class="st2" d="M280.3,322.2c0-1.5-0.7-2.9-2-3.7l-17.9-11.9v-3.7l15.2-7.6c2.2-1.1,3.1-3.7,2-5.9c-1.1-2.2-3.7-3.1-5.9-2
	l-15.7,7.8l-15.7-7.8c-2.2-1.1-4.8-0.2-5.9,2c-1.1,2.2-0.2,4.8,2,5.9l15.2,7.6v3.7l-17.9,11.9c-1.2,0.8-2,2.2-2,3.7s0.7,2.9,2,3.7
	l17.9,11.9v37.4h-17.7v6.8c0,2.4,2,4.4,4.4,4.4c1.7,0,3.2-0.9,3.9-2.3h9.3v8.8h-9.4c-0.8-1.3-2.2-2.2-3.8-2.2c-2.4,0-4.4,2-4.4,4.4
	v6.6h17.7v4.4c0,2.4,2,4.4,4.4,4.4s4.4-2,4.4-4.4v-4.4v-26.5v-37.4l17.9-11.9C279.5,325.1,280.3,323.7,280.3,322.2z M256,330.1
	l-11.9-7.9l11.9-7.9l11.9,7.9L256,330.1z"/>
</svg>
