<svg version="1.1" id="Layer_1" xmlns="http://www.w3.org/2000/svg" x="0" y="0" viewBox="0 0 512 512" xml:space="preserve"><style>.st0{fill:#e32011}</style><path class="st0" d="M0 312h512v112H0z"/><path fill="#fff" d="M0 88h512v224H0z"/><path class="st0" d="M353.1 211.9v-17.7h-17.7v-44.1h8.9v-17.7h-53v17.7h8.8v44.1h-26.4v-61.8h8.8v-17.6h-53v17.6h8.8v61.8h-26.4v-44.1h8.8v-17.7h-53v17.7h8.9v44.1h-17.7v17.7h8.8v70.6h-8.8v17.6h194.2v-17.6h-8.8v-70.6z"/><path d="M273.7 291.3h-35.3V256c0-9.8 7.9-17.7 17.7-17.7 9.8 0 17.7 7.9 17.7 17.7v35.3zM256 167.7c-4.9 0-8.8 4-8.8 8.8V203h17.7v-26.5c-.1-4.8-4-8.8-8.9-8.8zM317.8 176.6c-4.9 0-8.8 4-8.8 8.8V203h17.7v-17.7c-.1-4.8-4-8.7-8.9-8.7zM194.2 176.6c-4.9 0-8.8 4-8.8 8.8V203H203v-17.7c0-4.8-3.9-8.7-8.8-8.7zM326.6 291.3h-35.3v-26.5c0-9.8 7.9-17.7 17.7-17.7 9.8 0 17.7 7.9 17.7 17.7v26.5zM220.7 291.3h-35.3v-26.5c0-9.8 7.9-17.7 17.7-17.7 9.8 0 17.7 7.9 17.7 17.7v26.5z"/><path d="M280.3 322.2c0-1.5-.7-2.9-2-3.7l-17.9-11.9v-3.7l15.2-7.6c2.2-1.1 3.1-3.7 2-5.9s-3.7-3.1-5.9-2l-15.7 7.8-15.7-7.8c-2.2-1.1-4.8-.2-5.9 2-1.1 2.2-.2 4.8 2 5.9l15.2 7.6v3.7l-17.9 11.9c-1.2.8-2 2.2-2 3.7s.7 2.9 2 3.7l17.9 11.9v37.4h-17.7v6.8c0 2.4 2 4.4 4.4 4.4 1.7 0 3.2-.9 3.9-2.3h9.3v8.8h-9.4c-.8-1.3-2.2-2.2-3.8-2.2-2.4 0-4.4 2-4.4 4.4v6.6h17.7v4.4c0 2.4 2 4.4 4.4 4.4s4.4-2 4.4-4.4v-68.3l17.9-11.9c1.2-.8 2-2.2 2-3.7zm-24.3 7.9l-11.9-7.9 11.9-7.9 11.9 7.9-11.9 7.9z" fill="#fadc37"/></svg>