<svg version="1.1" id="Layer_1" xmlns="http://www.w3.org/2000/svg" x="0" y="0" viewBox="0 0 512 512" xml:space="preserve"><style>.st3{fill:#3e9a00}.st4{fill:gold}</style><path fill="#0073ce" d="M0 88.3v336l130-168z"/><path fill="#e32118" d="M86.7 312.3L0 424.3h512v-112z"/><path fill="#fff" d="M86.7 200.3l43.3 56-43.3 56H512v-112z"/><path class="st3" d="M0 88.3l86.7 112H512v-112z"/><g id="shield"><path d="M256 308.3c-.3 0-.6-.2-.7-.5-.1-.2-2-5.7-9.7-5.7h-10.4c-6.2 0-11.2-5-11.2-11.2v-68.6c0-.4.3-.8.8-.8h64.4c.4 0 .8.3.8.8v68.6c0 6.2-5 11.2-11.2 11.2h-12.5c-7.7 0-9.6 5.6-9.7 5.7 0 .3-.3.5-.6.5zm-30.4-85.2v67.8c0 5.3 4.3 9.6 9.6 9.6h10.4c6.2 0 9.2 3.3 10.4 5.3 1.2-2 4.2-5.3 10.4-5.3h12.5c5.3 0 9.6-4.3 9.6-9.6v-67.8h-62.9z"/><path class="st4" d="M248 203.8l2 3.2 3.7.1-1.8 3.3 1.8 3.3-3.7.1-2 3.2-2-3.2-3.7-.1 1.7-3.3-1.7-3.3 3.7-.1zM230.4 206.7l2.7 2.6 3.6-.8-.9 3.6 2.5 2.8-3.6 1-1.2 3.6-2.7-2.7-3.6.8.9-3.6-2.4-2.8 3.5-1zM213.6 211.6l3.1 2 3.4-1.5-.1 3.7 3 2.2-3.3 1.8-.4 3.7-3.1-2-3.4 1.5.1-3.7-3-2.2 3.3-1.7zM264 203.8l-2 3.2-3.7.1 1.8 3.3-1.8 3.3 3.7.1 2 3.2 2-3.2 3.7-.1-1.7-3.3 1.7-3.3-3.7-.1zM281.6 206.7l-2.7 2.6-3.6-.8.9 3.6-2.5 2.8 3.6 1 1.2 3.6 2.7-2.7 3.6.8-.9-3.6 2.4-2.8-3.5-1zM298.4 211.6l-3.1 2-3.4-1.5.1 3.7-3 2.2 3.3 1.8.4 3.7 3.1-2 3.4 1.5-.1-3.7 3-2.2-3.3-1.7z"/><path d="M265.5 251l-2.5-3.3c-.2.1-2.7 2-5 5.1v-5.5h-2v47.8h7.4c-5.3-10.2-5.4-31-5.4-31.2 0-7.2 7.4-12.8 7.5-12.9z" fill="#593520"/><path d="M253.9 247.3v5.5c-2.3-3.1-4.8-5-5-5.1l-2.5 3.3c.1.1 7.5 5.7 7.5 12.9 0 .2-.1 21-5.4 31.2h7.5v-47.8h-2.1z" fill="#885624"/><path class="st3" d="M276.7 239h-.4c-.8-2.4-3.1-4.2-5.9-4.2-1 0-1.9.2-2.7.7-.9-1.6-2.6-2.7-4.5-2.7-.6 0-1.1.1-1.6.3-1.1-2.6-3.7-4.4-6.7-4.4-3.7 0-6.7 2.8-7.2 6.3-.4-.1-.7-.1-1.1-.1-4 0-7.3 3.3-7.3 7.3 0 .5.1.9.1 1.4-1.8.6-3.3 2-3.9 3.9h-.4c-2.3 0-4.2 1.9-4.2 4.2 0 2.3 1.9 4.2 4.2 4.2 1.1 0 2-.4 2.8-1.1.4.3.9.5 1.4.7.3.1.6.2 1 .3h.1c.3.1.7.1 1.1.1 1.1 0 2.2-.3 3.1-.9.9.5 2 .9 3.1.9 3.4 0 6.2-2.8 6.2-6.2 0-.3 0-.5-.1-.8 1 .5 2 .8 3.2.8 1.4 0 2.8-.4 3.9-1.2 1.1 1.9 3.1 3.2 5.4 3.2.5 0 1-.1 1.5-.2 1.1 1.4 2.8 2.3 4.8 2.3 1.9 0 3.5-.8 4.7-2.1 3.2-.3 5.7-2.9 5.7-6.2 0-3.8-2.8-6.5-6.3-6.5z"/></g></svg>