<svg version="1.1" id="Layer_1" xmlns="http://www.w3.org/2000/svg" x="0" y="0" viewBox="0 0 512 512" xml:space="preserve"><style>.st0{fill:#fff}.st1{fill:#0d5eaf}</style><path class="st0" d="M0 274.5h512v37.3H0z"/><path class="st1" d="M0 311.7h512V349H0z"/><path class="st0" d="M0 349h512v37.3H0z"/><path class="st1" d="M0 386.2h512v37.3H0z"/><path fill="#f5f5f5" d="M0 349.2h512v37.3H0z"/><path class="st1" d="M512 274.6v-37.4H176.6v37.3"/><path class="st0" d="M176.6 200H512v37.3H176.6z"/><path class="st1" d="M176.6 162.8H512v37.3H176.6z"/><path class="st0" d="M176.6 125.5H512v37.3H176.6z"/><path class="st1" d="M512 88.3v37.3H176.6V88.3"/><g id="cross"><path class="st0" d="M176.6 162.8h-69.7V88.3H69.6v74.5H0v37.3h69.6v74.4h37.3v-74.4h69.7z"/><path class="st1" d="M0 200.1h69.6v74.4H0zM0 88.3h69.6v74.5H0zM106.9 88.3h69.6v74.5h-69.6zM106.9 200.1h69.6v74.4h-69.6z"/></g></svg>