<?xml version="1.0" encoding="utf-8"?>
<!-- Generator: Adobe Illustrator 25.0.1, SVG Export Plug-In . SVG Version: 6.00 Build 0)  -->
<svg version="1.1" id="Layer_1" xmlns="http://www.w3.org/2000/svg" xmlns:xlink="http://www.w3.org/1999/xlink" x="0px" y="0px"
	 viewBox="0 0 512 512" style="enable-background:new 0 0 512 512;" xml:space="preserve">
<style type="text/css">
	.st0{fill:#012169;}
	.st1{fill:#FFFFFF;}
	.st2{fill:#C8102E;}
	.st3{fill:#FFCE00;}
	.st4{fill:#39B200;}
	.st5{fill:#9B9B9B;}
	.st6{fill:#757575;}
	.st7{fill:#C6B56F;}
	.st8{fill:#A54A00;}
	.st9{fill:#0049FF;}
	.st10{fill:#0041F9;}
	.st11{fill:#F7D71E;}
	.st12{fill:#CEC851;}
	.st13{fill:#7C0B29;}
</style>
<polygon class="st0" points="256.1,88 256.1,256.2 0,256.2 0,424 512,424 512,88 "/>
<g id="Union_flag">
	<rect y="88" class="st0" width="256.1" height="168.2"/>
	<g>
		<polygon class="st1" points="106,150.1 106,142.2 22.7,88 0,88 0,105 69.3,150.1 		"/>
		<polygon class="st1" points="106,194.1 70.8,194.1 0,240.1 0,256.2 24.2,256.2 106,202.9 		"/>
		<polygon class="st1" points="233.9,88 150,142.5 150,150.1 187.3,150.1 256.1,105.3 256.1,88 		"/>
		<polygon class="st1" points="150,194.1 150,202.6 232.5,256.2 256.1,256.2 256.1,239.8 185.9,194.1 		"/>
	</g>
	<polygon class="st1" points="256.1,150.1 150,150.1 150,88 106,88 106,150.1 0,150.1 0,194.1 106,194.1 106,256.2 150,256.2 
		150,194.1 256.1,194.1 	"/>
	<polygon class="st2" points="256.1,158.8 141.3,158.8 141.3,88 114.8,88 114.8,158.8 0,158.8 0,185.3 114.8,185.3 114.8,256.2 
		141.3,256.2 141.3,185.3 256.1,185.3 	"/>
	<polygon class="st2" points="97.2,150.1 1.7,88 0,88 0,97.6 80.7,150.1 	"/>
	<polygon class="st2" points="106,194.1 89.6,194.1 0,252.4 0,256.2 10.6,256.2 	"/>
	<polygon class="st2" points="157.3,194.1 252.8,256.2 256.1,256.2 256.1,247.6 173.8,194.1 	"/>
	<polygon class="st2" points="245.4,88 150,150 150,150.1 166.4,150.1 256.1,91.8 256.1,88 	"/>
</g>
<g>
	<ellipse class="st1" cx="443.4" cy="319" rx="29" ry="43.5"/>
	<ellipse class="st3" cx="406.9" cy="403.1" rx="22" ry="9.3"/>
	<ellipse class="st3" cx="364" cy="403.1" rx="22" ry="9.3"/>
	<polygon class="st4" points="342,275.5 385.4,362.4 428.9,275.5 	"/>
	<ellipse class="st5" cx="327.5" cy="319" rx="29" ry="43.5"/>
	<path class="st6" d="M371,261l-14.5,14.5h57.9L399.9,261l14.5-43.5c0,0-13-29-29-29s-29,29-29,29L371,261z"/>
	<circle class="st7" cx="385.4" cy="152.4" r="29"/>
	<circle class="st8" cx="386" cy="174.1" r="29"/>
	<circle class="st1" cx="443.4" cy="203.1" r="29"/>
	<circle class="st9" cx="342.2" cy="232.1" r="29"/>
	<circle class="st10" cx="429.8" cy="232.1" r="29"/>
	<circle class="st11" cx="386" cy="319" r="29"/>
	<circle class="st12" cx="457.9" cy="275.5" r="29"/>
	<circle class="st1" cx="385.4" cy="374.9" r="29"/>
	<path class="st13" d="M371,221.1l14.5-3.5l14.5,3.5c0,7.5-14.5,11-14.5,11S371,228.6,371,221.1z"/>
	<circle class="st1" cx="327.5" cy="202.8" r="29"/>
</g>
</svg>
