<svg version="1.1" id="Layer_1" xmlns="http://www.w3.org/2000/svg" x="0" y="0" viewBox="0 0 512 512" xml:space="preserve"><style>.st0{fill:#012169}.st1{fill:#fff}.st2{fill:#c8102e}.st3{fill:#ffce00}</style><path class="st0" d="M256.1 88v168.2H0V424h512V88z"/><g id="Union_flag"><path class="st0" d="M0 88h256.1v168.2H0z"/><path class="st1" d="M106 150.1v-7.9L22.7 88H0v17l69.3 45.1zM106 194.1H70.8L0 240.1v16.1h24.2l81.8-53.3zM233.9 88L150 142.5v7.6h37.3l68.8-44.8V88zM150 194.1v8.5l82.5 53.6h23.6v-16.4l-70.2-45.7z"/><path class="st1" d="M256.1 150.1H150V88h-44v62.1H0v44h106v62.1h44v-62.1h106.1z"/><path class="st2" d="M256.1 158.8H141.3V88h-26.5v70.8H0v26.5h114.8v70.9h26.5v-70.9h114.8z"/><path class="st2" d="M97.2 150.1L1.7 88H0v9.6l80.7 52.5zM106 194.1H89.6L0 252.4v3.8h10.6zM157.3 194.1l95.5 62.1h3.3v-8.6l-82.3-53.5zM245.4 88L150 150v.1h16.4l89.7-58.3V88z"/></g><ellipse class="st1" cx="443.4" cy="319" rx="29" ry="43.5"/><ellipse class="st3" cx="406.9" cy="403.1" rx="22" ry="9.3"/><ellipse class="st3" cx="364" cy="403.1" rx="22" ry="9.3"/><path fill="#39b200" d="M342 275.5l43.4 86.9 43.5-86.9z"/><ellipse cx="327.5" cy="319" rx="29" ry="43.5" fill="#9b9b9b"/><path d="M371 261l-14.5 14.5h57.9L399.9 261l14.5-43.5s-13-29-29-29-29 29-29 29L371 261z" fill="#757575"/><circle cx="385.4" cy="152.4" r="29" fill="#c6b56f"/><circle cx="386" cy="174.1" r="29" fill="#a54a00"/><circle class="st1" cx="443.4" cy="203.1" r="29"/><circle cx="342.2" cy="232.1" r="29" fill="#0049ff"/><circle cx="429.8" cy="232.1" r="29" fill="#0041f9"/><circle cx="386" cy="319" r="29" fill="#f7d71e"/><circle cx="457.9" cy="275.5" r="29" fill="#cec851"/><circle class="st1" cx="385.4" cy="374.9" r="29"/><path d="M371 221.1l14.5-3.5 14.5 3.5c0 7.5-14.5 11-14.5 11s-14.5-3.5-14.5-11z" fill="#7c0b29"/><circle class="st1" cx="327.5" cy="202.8" r="29"/></svg>