<svg version="1.1" id="Layer_1" xmlns="http://www.w3.org/2000/svg" x="0" y="0" viewBox="0 0 512 512" xml:space="preserve"><style>.st0{fill:#4997d0}.st2{fill:#ffc855}.st3{fill:#44b127}.st4{fill:#6c301e}.st5{fill:#b2b6ba}.st6{fill:#a0a0a0}.st7{fill:#ffe15a}.st8{fill:#f4e08f}.st9{fill:#ecd077}</style><path class="st0" d="M0 88.3h170.7v336H0z"/><path fill="#fff" d="M171 88.3h170.7v336H171z"/><path class="st0" d="M342.1 88.3h170.7v336H342.1z"/><g id="shield"><path class="st2" d="M253.8 212.1l-5.1 2.5 4.7 2z"/><path class="st3" d="M256 305.6c-28.1 0-51-22.9-51-51 0-17.5 8.8-33.5 23.5-43l1.3 2c-14 9-22.4 24.3-22.4 40.9 0 26.8 21.8 48.6 48.6 48.6v2.5z"/><path class="st3" d="M226.8 308.8c1.9.4 4.9-.1 8-1.6 3.1-1.4 5.4-3.4 6.3-5.1-1.9-.4-4.9.1-8 1.6-3 1.4-5.4 3.4-6.3 5.1zM241.2 302.1c.4-1.9-.1-4.9-1.6-8-1.4-3.1-3.4-5.4-5.1-6.3-.4 1.9.1 4.9 1.6 8 1.4 3.1 3.3 5.4 5.1 6.3zM216.6 302.6c1.9.7 4.9.6 8.2-.4 3.3-1 5.8-2.6 7-4.2-1.9-.7-4.9-.6-8.2.4-3.2 1-5.8 2.6-7 4.2z"/><path class="st3" d="M231.8 298.1c.7-1.9.6-4.9-.4-8.2-1-3.3-2.6-5.8-4.2-7-.7 1.9-.6 4.9.4 8.2 1 3.2 2.6 5.8 4.2 7zM207.2 294.1c1.7 1 4.7 1.5 8.1 1.1s6.2-1.5 7.7-2.8c-1.7-1-4.7-1.5-8.1-1.1s-6.2 1.4-7.7 2.8zM223 292.4c1-1.7 1.5-4.7 1.1-8.1s-1.5-6.2-2.8-7.7c-1 1.7-1.5 4.7-1.1 8.1.3 3.4 1.4 6.2 2.8 7.7zM199.5 282.3c1.5 1.3 4.4 2.3 7.8 2.5s6.4-.4 8-1.4c-1.5-1.3-4.4-2.3-7.8-2.5-3.4-.2-6.4.4-8 1.4zM215.3 283.4c1.3-1.5 2.3-4.4 2.5-7.8.2-3.4-.4-6.4-1.4-8-1.3 1.5-2.3 4.4-2.5 7.8-.3 3.4.3 6.4 1.4 8zM194.9 269.4c1.2 1.6 3.8 3.2 7.1 4.1s6.3 1 8.2.3c-1.2-1.6-3.8-3.2-7.1-4.1s-6.3-1-8.2-.3z"/><path class="st3" d="M210.1 273.8c1.6-1.2 3.2-3.8 4.1-7.1.9-3.3 1-6.3.3-8.2-1.6 1.2-3.2 3.8-4.1 7.1-.9 3.3-1 6.3-.3 8.2zM193 254.3c.8 1.8 2.9 4 5.8 5.8 2.9 1.8 5.8 2.6 7.8 2.4-.8-1.8-2.9-4-5.8-5.8-2.9-1.8-5.8-2.6-7.8-2.4z"/><path class="st3" d="M206.6 262.5c1.8-.8 4-2.9 5.8-5.8 1.8-2.9 2.6-5.8 2.4-7.8-1.8.8-4 2.9-5.8 5.8-1.8 2.9-2.6 5.8-2.4 7.8zM194.8 240c.4 2 1.9 4.5 4.4 6.9 2.5 2.3 5.2 3.7 7.1 4-.4-2-1.9-4.5-4.4-6.9-2.4-2.3-5.1-3.8-7.1-4zM206.4 250.9c2-.4 4.5-1.9 6.9-4.4 2.3-2.5 3.7-5.2 4-7.1-2 .4-4.5 1.9-6.9 4.4-2.4 2.4-3.8 5.1-4 7.1zM202 224.6c-.4 1.9.1 4.9 1.5 8 1.4 3.1 3.4 5.4 5.1 6.4.4-1.9-.1-4.9-1.5-8-1.4-3.1-3.4-5.5-5.1-6.4zM208.6 239c1.9.4 4.9-.1 8-1.5 3.1-1.4 5.4-3.4 6.4-5.1-1.9-.4-4.9.1-8 1.5s-5.5 3.4-6.4 5.1zM210.5 213.1c-.9 1.8-1.2 4.8-.7 8.1.5 3.4 1.8 6.1 3.2 7.5.9-1.8 1.2-4.8.7-8.1s-1.7-6.1-3.2-7.5zM213 228.8c1.8.9 4.8 1.2 8.1.7 3.4-.5 6.1-1.8 7.5-3.2-1.8-.9-4.8-1.2-8.1-.7s-6.1 1.8-7.5 3.2zM219 205.2c-1.2 1.6-1.9 4.5-1.9 7.9s.9 6.3 2.1 7.9c1.2-1.6 1.9-4.5 1.9-7.9-.1-3.4-1-6.3-2.1-7.9z"/><path class="st3" d="M219.1 221c1.6 1.2 4.5 1.9 7.9 1.9s6.3-.9 7.9-2.1c-1.6-1.2-4.5-1.9-7.9-1.9-3.4.1-6.3 1-7.9 2.1zM223.2 216.9c2 .2 4.9-.7 7.8-2.5 2.9-1.8 5-4 5.7-5.9-2-.2-4.9.7-7.8 2.5-2.9 1.8-5 4-5.7 5.9zM256 305.6v-2.4c26.8 0 48.6-21.8 48.6-48.6 0-16.6-8.4-32-22.4-40.9l1.3-2c14.7 9.4 23.5 25.5 23.5 43 0 28.1-22.9 50.9-51 50.9z"/><path class="st3" d="M285.2 308.8c-1.9.4-4.9-.1-8-1.6-3.1-1.4-5.4-3.4-6.3-5.1 1.9-.4 4.9.1 8 1.6 3 1.4 5.4 3.4 6.3 5.1zM270.8 302.1c-.4-1.9.1-4.9 1.6-8 1.4-3.1 3.4-5.4 5.1-6.3.4 1.9-.1 4.9-1.6 8-1.4 3.1-3.3 5.4-5.1 6.3zM295.4 302.6c-1.9.7-4.9.6-8.2-.4-3.3-1-5.8-2.6-7-4.2 1.9-.7 4.9-.6 8.2.4 3.2 1 5.8 2.6 7 4.2z"/><path class="st3" d="M280.2 298.1c-.7-1.9-.6-4.9.4-8.2 1-3.3 2.6-5.8 4.2-7 .7 1.9.6 4.9-.4 8.2-1 3.2-2.6 5.8-4.2 7zM304.8 294.1c-1.7 1-4.7 1.5-8.1 1.1s-6.2-1.5-7.7-2.8c1.7-1 4.7-1.5 8.1-1.1s6.2 1.4 7.7 2.8zM289 292.4c-1-1.7-1.5-4.7-1.1-8.1s1.5-6.2 2.8-7.7c1 1.7 1.5 4.7 1.1 8.1s-1.4 6.2-2.8 7.7zM312.5 282.3c-1.5 1.3-4.4 2.3-7.8 2.5-3.4.2-6.4-.4-8-1.4 1.5-1.3 4.4-2.3 7.8-2.5 3.4-.2 6.4.4 8 1.4zM296.7 283.4c-1.3-1.5-2.3-4.4-2.5-7.8-.2-3.4.4-6.4 1.4-8 1.3 1.5 2.3 4.4 2.5 7.8.3 3.4-.3 6.4-1.4 8zM317.1 269.4c-1.2 1.6-3.8 3.2-7.1 4.1-3.3.9-6.3 1-8.2.3 1.2-1.6 3.8-3.2 7.1-4.1s6.3-1 8.2-.3z"/><path class="st3" d="M301.9 273.8c-1.6-1.2-3.2-3.8-4.1-7.1-.9-3.3-1-6.3-.3-8.2 1.6 1.2 3.2 3.8 4.1 7.1.9 3.3 1 6.3.3 8.2zM319 254.3c-.8 1.8-2.9 4-5.8 5.8-2.9 1.8-5.8 2.6-7.8 2.4.8-1.8 2.9-4 5.8-5.8 2.9-1.8 5.8-2.6 7.8-2.4zM305.4 262.5c-1.8-.8-4-2.9-5.8-5.8-1.8-2.9-2.6-5.8-2.4-7.8 1.8.8 4 2.9 5.8 5.8 1.8 2.9 2.6 5.8 2.4 7.8zM317.2 240c-.4 2-1.9 4.5-4.4 6.9s-5.2 3.7-7.1 4c.4-2 1.9-4.5 4.4-6.9s5.1-3.8 7.1-4zM305.6 250.9c-2-.4-4.5-1.9-6.9-4.4-2.3-2.5-3.7-5.2-4-7.1 2 .4 4.5 1.9 6.9 4.4 2.4 2.4 3.8 5.1 4 7.1zM310 224.6c.4 1.9-.1 4.9-1.5 8s-3.4 5.4-5.1 6.4c-.4-1.9.1-4.9 1.5-8 1.4-3.1 3.4-5.5 5.1-6.4zM303.4 239c-1.9.4-4.9-.1-8-1.5s-5.4-3.4-6.4-5.1c1.9-.4 4.9.1 8 1.5 3.1 1.4 5.5 3.4 6.4 5.1zM301.5 213.1c.9 1.8 1.2 4.8.7 8.1-.5 3.4-1.8 6.1-3.2 7.5-.9-1.8-1.2-4.8-.7-8.1s1.7-6.1 3.2-7.5zM299 228.8c-1.8.9-4.8 1.2-8.1.7-3.4-.5-6.1-1.8-7.5-3.2 1.8-.9 4.8-1.2 8.1-.7s6.1 1.8 7.5 3.2zM293 205.2c1.2 1.6 1.9 4.5 1.9 7.9s-.9 6.3-2.1 7.9c-1.2-1.6-1.9-4.5-1.9-7.9.1-3.4 1-6.3 2.1-7.9z"/><path class="st3" d="M292.9 221c-1.6 1.2-4.5 1.9-7.9 1.9s-6.3-.9-7.9-2.1c1.6-1.2 4.5-1.9 7.9-1.9s6.3 1 7.9 2.1zM288.8 216.9c-2 .2-4.9-.7-7.8-2.5-2.9-1.8-5-4-5.7-5.9 2-.2 4.9.7 7.8 2.5 2.9 1.8 5 4 5.7 5.9z"/><path class="st4" d="M228.1 294.3l-8.8 8.8-4.4-8.7 13.1-13.1 4.4 4.4-1.3 3.8c-.6 1.8-1.6 3.5-3 4.8z"/><path class="st5" d="M276 229.1l-48 48c-1.2 1.2-1.2 3.2 0 4.4l2.2 2.2 8.7-8.7 34.9-39.3 4.4-4.4-2.2-2.2z"/><path class="st4" d="M239.8 269.6c-.6.6-.9 1.4-.9 2.2v3.1l34.9-39.3-34 34z"/><path class="st6" d="M278.2 231.2l-2.2-2.1-2.2 2.1 2.2 2.2 2.2 2.2 24-28.4z"/><path class="st4" d="M286.3 294.3l8.8 8.8 4.4-8.7-13.1-13.1-4.4 4.4 1.3 3.8c.6 1.8 1.6 3.5 3 4.8z"/><path class="st5" d="M238.4 229.1l48 48c1.2 1.2 1.2 3.2 0 4.4l-2.2 2.2-8.7-8.7-34.9-39.3-4.4-4.4 2.2-2.2z"/><path class="st4" d="M274.6 269.6c.6.6.9 1.4.9 2.2v3.1l-34.9-39.3 34 34z"/><path class="st6" d="M236.3 231.2l2.1-2.1 2.2 2.1-2.2 2.2-2.1 2.2-24-28.4z"/><path class="st5" d="M239.3 292.5l2.2 2c7.9-8.7 21.7-23.8 43.7-43.5 0 0-18.2 11.2-45.9 41.5z"/><path class="st7" d="M233.2 301.4c-.8-.7-.8-1.9-.1-2.7l4.6-5.1c.7-.8 1.9-.8 2.7-.1.8.7.8 1.9.1 2.7l-4.6 5.1c-.7.8-1.9.8-2.7.1z"/><path class="st2" d="M237.6 290.9l-1.3.6c-1.1.6-4.1 2.2-4.6 4.6-.2 1.1.1 2.2 1 3.3.1-.2.2-.4.4-.6l.6-.6c-.4-.6-.6-1.1-.5-1.7.3-1.5 2.3-2.8 3.5-3.5l5.6 5.1 1.4-1.5-6.1-5.7z"/><path class="st5" d="M275.1 294.9l-2.2 2c-7.9-8.7-21.7-23.8-43.7-43.5.1 0 18.2 11.2 45.9 41.5z"/><path class="st7" d="M281.2 303.8c.8-.7.8-1.9.1-2.7l-4.6-5.1c-.7-.8-1.9-.8-2.7-.1-.8.7-.8 1.9-.1 2.7l4.6 5.1c.7.8 1.9.8 2.7.1z"/><path class="st2" d="M276.9 293.3l1.3.6c1.1.6 4.1 2.2 4.6 4.6.2 1.1-.1 2.2-1 3.3-.1-.2-.2-.4-.4-.6l-.6-.6c.4-.6.6-1.1.5-1.7-.3-1.5-2.3-2.8-3.5-3.5l-5.6 5.1-1.4-1.5 6.1-5.7z"/><path class="st3" d="M258.2 214.7c.2-.4.3-.9.3-1.4 0-2-1.6-3.6-3.6-3.6s-3.6 1.6-3.6 3.6c0 1.2.6 2.3 1.5 2.9-1.3 10.6 9.1 11.4 13.1 12.9 6 2.2 13.6 6.8 13.1 19.5-.5 12.3-8.3 24.3-8.3 24.3l6.5-8.8c-2.4 10-7.9 22.8-21.1 38 0 0 9-8.8 16.5-20.1-5.5 13-11.6 25-11.6 25s10.8-14.1 19.6-38.4c10.5-29.7-11.9-47.4-22.4-53.9z"/><path class="st8" d="M239 258.3h9.7v4.9H239z"/><g><circle class="st9" cx="239" cy="263.1" r="4.9"/><circle class="st9" cx="239" cy="231.5" r="4.9"/></g><path d="M268.1 236.4c2.7 0 4.9-2.2 4.9-4.9s-2.2-4.9-4.9-4.9H239c2.7 0 4.9 2.2 4.9 4.9s-2.2 4.9-4.9 4.9-4.9-2.2-4.9-4.9c0 8.2 6.8 18 9 26.7 0 0 .7 2.2.7 4.9s-2.2 4.9-4.9 4.9h29.2c2.7 0 4.9-2.2 4.9-4.9 0-8.2-6.8-18-9-26.7h4.1z" fill="#f9f0aa"/><g><path class="st8" d="M243.9 231.5c0 2.7-2.2 4.9-4.9 4.9h29.2c2.7 0 4.9-2.2 4.9-4.9h-29.2zM243.9 263.1c0 2.7-2.2 4.9-4.9 4.9h29.2c2.7 0 4.9-2.2 4.9-4.9h-29.2z"/></g></g></svg>