<svg version="1.1" id="Layer_1" xmlns="http://www.w3.org/2000/svg" x="0" y="0" viewBox="0 0 512 512" xml:space="preserve"><style>.st1{fill:#c71b36}.st6{fill:#ffe26d}.st7{fill:#a05106}</style><path fill="#00257c" d="M18 106h476v300H18z"/><path class="st1" d="M494 106v300H18V106h476m18-18H0v336h512V88z"/><g id="crest"><path d="M256 167.7c-33.5 17.7-56.2 59.7-56.2 88.3s22.6 70.6 56.2 88.3c33.5-17.7 56.2-59.7 56.2-88.3s-22.7-70.6-56.2-88.3z" fill="#a3e3fc"/><path d="M263.2 225.8c5.4-2.9 14.7-6 25.2-2.1 0 0-10.1-11.3-24.2-2.1 3.8-4.6 9.5-10.3 15.6-11.8 0 0-12.2-4.6-19.6 11.7 1.4-8.2 1.2-21.2-12.1-28.7 0 0 7.4 15.9 8.1 29.1-.4-2.3-1.3-4.8-3.6-7.2-7-7.3-13.1-7.9-13.1-7.9s9.7 10.8 14.5 21c-2.8-3.3-7.6-7.5-15.4-7.3-18.3.6-22.3 11.6-22.3 11.6 7.6-3.2 19.6-4.8 29-4-12 2.1-16.3 17.1-16.3 17.1 9.7-12.1 20.2-14 24.5-14.3-7.7 6.4-7.2 18.1-7.2 18.1 1.8-6.6 8.7-14.1 12.1-17.5 9.1 9.8 10.2 20.9 10.2 20.9s2-3.3 1.1-10.1c-.9-6.4-4.9-10.6-7.9-13.1 16.1 2.2 26.5 13.9 26.5 13.9-5.3-15.3-18.5-17.3-25.1-17.3z" fill="#11a131"/><path fill="#ad9542" d="M238.1 277.3l8.1-13.9 66.4-1.5-4.4 18.4z"/><path d="M202.2 273.7c6.7 26.2 26.6 56.4 53.8 70.6 27.1-14.3 47.1-44.5 53.8-70.6H202.2z" fill="#00a4ea"/><path class="st6" d="M211.9 300.1s19.3-1 30.8 3.8c2.9 1.2 3.3 5.1.7 6.8-5.6 3.7-13.8 10.1-13.8 15.9l-17.7-26.5zM245.7 335.4c-.7-7.4 5.8-12.7 14.7-16.2 11.6-4.5 5.2-11.7-.6-16.4-6.9-5.6 2-7.2 39.5-7.9L281 323.7l-25 20.6-10.3-8.9z"/><path class="st1" d="M256 349.3l-2.1-1.1c-35-18.4-58.5-62.5-58.5-92.2 0-29.6 23.5-73.8 58.5-92.2l2.1-1.1 2.1 1.1c35 18.4 58.5 62.5 58.5 92.2 0 29.6-23.5 73.8-58.5 92.2l-2.1 1.1zm0-176.5c-31.1 17.5-51.8 56.8-51.8 83.2s20.7 65.7 51.8 83.2c31.1-17.5 51.8-56.8 51.8-83.2s-20.7-65.7-51.8-83.2z"/><g><path class="st7" d="M274.8 306.4c-.4 0-.8-.1-1.2-.3-12-7.5-18.9-20-18.9-34.2v-40.6c0-1.2 1-2.2 2.2-2.2s2.2 1 2.2 2.2v40.6c0 12.7 6.1 23.8 16.8 30.5 1 .7 1.3 2 .7 3-.4.6-1.1 1-1.8 1z"/><circle class="st7" cx="256.9" cy="231.3" r="4.8"/></g></g></svg>