<?xml version="1.0" encoding="utf-8"?>
<!-- Generator: Adobe Illustrator 25.0.0, SVG Export Plug-In . SVG Version: 6.00 Build 0)  -->
<svg version="1.1" id="Layer_1" xmlns="http://www.w3.org/2000/svg" xmlns:xlink="http://www.w3.org/1999/xlink" x="0px" y="0px"
	 viewBox="0 0 512 512" style="enable-background:new 0 0 512 512;" xml:space="preserve">
<style type="text/css">
	.st0{fill:#DE2408;}
	.st1{fill:#FFFFFF;}
</style>
<rect y="88" class="st0" width="512" height="336"/>
<g>
	<path class="st1" d="M224.5,268.9c-11.1,0.1-23.6-3.4-34.6-15.5c-0.8-0.8-0.6-2.1,0.2-2.9l0,0c0.8-0.7,2.1-0.6,2.8,0.2
		c16.7,18.3,37.4,15.1,49.7,10.7c-4.6,0.2-10.3-0.1-14-2.6c-15.4-10.1-8.4-20.9-18.7-33.9c-10.2-12.9-19.3-12.6-33.7-10.4
		c-14.3,2.2-18.8-8.3-20.2-14.1c-0.3-1-1.7-1.1-2.1-0.1c-17.8,48.1,35.7,107.5,90.6,64.8C239.1,267,232.1,268.8,224.5,268.9z
		 M184.4,252.6c-0.3,0.9-1.5,0.8-1.8-0.1l-2-6.7l-7-0.2c-0.9,0-1.3-1.2-0.5-1.7l5.8-4l-1.9-6.8c-0.3-0.9,0.8-1.6,1.5-1l5.6,4.3
		l5.8-3.9c0.8-0.5,1.7,0.2,1.4,1.1l-2.3,6.7l5.6,4.3c0.7,0.6,0.3,1.7-0.6,1.7l-7.1-0.1L184.4,252.6z"/>
	<path class="st1" d="M263.9,237c8.8-6.8,21-11.4,37-8.3c1.1,0.2,1.8,1.3,1.6,2.4l0,0c-0.2,1.1-1.3,1.7-2.4,1.5
		c-24.3-4.7-39,10.3-46.2,21.3c3.5-2.9,8.3-6.1,12.7-6.3c18.4-1.1,19.3,11.7,35.3,16c15.9,4.3,23-1.5,33.3-11.9
		c10.1-10.3,20-4.6,24.7-0.8c0.8,0.7,2-0.1,1.7-1.2c-14.6-49.1-93-64.6-111.3,2.5C253.3,247.3,257.8,241.7,263.9,237z M305.7,226
		c-0.3-0.9,0.7-1.6,1.5-1l5.7,4.2l5.8-4c0.7-0.5,1.7,0.2,1.4,1.1l-2.2,6.7l5.6,4.3c0.7,0.6,0.3,1.7-0.6,1.7l-7.1,0l-2.3,6.7
		c-0.3,0.9-1.5,0.8-1.8,0l-2.1-6.7l-7.1-0.1c-0.9,0-1.3-1.2-0.5-1.7l5.7-4.1L305.7,226z"/>
	<path class="st1" d="M234.4,241.6c-4.3-10.2-5.8-23.2,1.2-37.9c0.5-1,1.7-1.4,2.7-0.9l0,0c1,0.5,1.3,1.7,0.9,2.7
		c-10.6,22.4,0.2,40.3,9,50.1c-1.9-4.1-3.8-9.6-3-13.9c3.5-18.1,16.1-15.8,24.3-30.2c8.1-14.3,4.3-22.7-3.2-35.2
		c-7.4-12.4,0.5-20.6,5.4-24.1c0.9-0.6,0.4-2-0.7-2c-51.2,1.8-85.8,73.9-25.4,108.4C241.7,254.4,237.4,248.7,234.4,241.6z
		 M234.2,198.4c-0.9,0-1.3-1.1-0.6-1.7l5.5-4.5l-2.5-6.6c-0.3-0.9,0.6-1.6,1.4-1.1l5.9,3.8l5.5-4.4c0.7-0.6,1.7,0.1,1.5,1l-1.8,6.8
		l5.9,3.9c0.8,0.5,0.4,1.7-0.5,1.7l-7,0.4l-1.9,6.8c-0.2,0.9-1.5,0.9-1.8,0.1l-2.6-6.6L234.2,198.4z"/>
	<path class="st1" d="M274.3,264.9c9.2,6.3,17.4,16.3,19.5,32.5c0.1,1.1-0.7,2.1-1.8,2.2h0c-1.1,0.1-2-0.7-2.2-1.8
		c-3.2-24.6-22-33.8-34.7-37.2c3.9,2.4,8.4,6,10,10.1c6.9,17.1-5,22-4.1,38.5c1,16.4,8.6,21.4,21.7,27.9
		c12.9,6.4,10.7,17.6,8.5,23.1c-0.4,1,0.8,1.9,1.6,1.3c42.1-29.3,32.1-108.6-37.4-104.9C261.2,258.1,268,260.6,274.3,264.9z
		 M297.9,301.2c0.7-0.5,1.7,0.2,1.5,1.1l-2.2,6.7l5.6,4.2c0.7,0.5,0.3,1.7-0.6,1.7l-7.1,0l-2.3,6.7c-0.3,0.9-1.5,0.9-1.8,0l-2.2-6.7
		l-7.1-0.1c-0.9,0-1.3-1.2-0.5-1.7l5.7-4.1l-2.1-6.7c-0.3-0.9,0.7-1.6,1.5-1l5.7,4.1L297.9,301.2z"/>
	<path class="st1" d="M251.3,284.8c-3.2,10.7-10.3,21.6-25,28.5c-1,0.5-2.2,0-2.7-1l0,0c-0.4-1,0-2.1,1-2.6
		c22.4-10.6,25.5-31.3,24.9-44.4c-1.2,4.4-3.2,9.8-6.6,12.6c-14.2,11.7-22.5,1.9-37.9,7.8c-15.4,5.9-17.8,14.8-19.9,29.2
		c-2.1,14.3-13.5,15.5-19.4,15.2c-1.1-0.1-1.6,1.3-0.7,2c40.7,31.1,113.3-2.4,88.6-67.5C253.8,270.3,253.5,277.5,251.3,284.8z
		 M223.9,318.3c0.7,0.6,0.3,1.7-0.6,1.7l-7.1,0l-2.3,6.7c-0.3,0.9-1.5,0.8-1.8,0l-2.2-6.7l-7.1-0.1c-0.9,0-1.3-1.2-0.5-1.7l5.7-4.1
		l-2-6.8c-0.3-0.9,0.7-1.6,1.5-1l5.7,4.2l5.8-4c0.7-0.5,1.7,0.2,1.4,1.1l-2.2,6.7L223.9,318.3z"/>
</g>
</svg>
