<svg version="1.1" id="Layer_1" xmlns="http://www.w3.org/2000/svg" x="0" y="0" viewBox="0 0 512 512" xml:space="preserve"><style>.st1{fill:#fff}</style><path fill="#de2408" d="M0 88h512v336H0z"/><path class="st1" d="M224.5 268.9c-11.1.1-23.6-3.4-34.6-15.5-.8-.8-.6-2.1.2-2.9.8-.7 2.1-.6 2.8.2 16.7 18.3 37.4 15.1 49.7 10.7-4.6.2-10.3-.1-14-2.6-15.4-10.1-8.4-20.9-18.7-33.9-10.2-12.9-19.3-12.6-33.7-10.4-14.3 2.2-18.8-8.3-20.2-14.1-.3-1-1.7-1.1-2.1-.1-17.8 48.1 35.7 107.5 90.6 64.8-5.4 1.9-12.4 3.7-20 3.8zm-40.1-16.3c-.3.9-1.5.8-1.8-.1l-2-6.7-7-.2c-.9 0-1.3-1.2-.5-1.7l5.8-4-1.9-6.8c-.3-.9.8-1.6 1.5-1l5.6 4.3 5.8-3.9c.8-.5 1.7.2 1.4 1.1l-2.3 6.7 5.6 4.3c.7.6.3 1.7-.6 1.7l-7.1-.1-2.5 6.4zM263.9 237c8.8-6.8 21-11.4 37-8.3 1.1.2 1.8 1.3 1.6 2.4-.2 1.1-1.3 1.7-2.4 1.5-24.3-4.7-39 10.3-46.2 21.3 3.5-2.9 8.3-6.1 12.7-6.3 18.4-1.1 19.3 11.7 35.3 16 15.9 4.3 23-1.5 33.3-11.9 10.1-10.3 20-4.6 24.7-.8.8.7 2-.1 1.7-1.2-14.6-49.1-93-64.6-111.3 2.5 3-4.9 7.5-10.5 13.6-15.2zm41.8-11c-.3-.9.7-1.6 1.5-1l5.7 4.2 5.8-4c.7-.5 1.7.2 1.4 1.1l-2.2 6.7 5.6 4.3c.7.6.3 1.7-.6 1.7h-7.1l-2.3 6.7c-.3.9-1.5.8-1.8 0l-2.1-6.7-7.1-.1c-.9 0-1.3-1.2-.5-1.7l5.7-4.1-2-7.1z"/><path class="st1" d="M234.4 241.6c-4.3-10.2-5.8-23.2 1.2-37.9.5-1 1.7-1.4 2.7-.9 1 .5 1.3 1.7.9 2.7-10.6 22.4.2 40.3 9 50.1-1.9-4.1-3.8-9.6-3-13.9 3.5-18.1 16.1-15.8 24.3-30.2 8.1-14.3 4.3-22.7-3.2-35.2-7.4-12.4.5-20.6 5.4-24.1.9-.6.4-2-.7-2-51.2 1.8-85.8 73.9-25.4 108.4-3.9-4.2-8.2-9.9-11.2-17zm-.2-43.2c-.9 0-1.3-1.1-.6-1.7l5.5-4.5-2.5-6.6c-.3-.9.6-1.6 1.4-1.1l5.9 3.8 5.5-4.4c.7-.6 1.7.1 1.5 1l-1.8 6.8 5.9 3.9c.8.5.4 1.7-.5 1.7l-7 .4-1.9 6.8c-.2.9-1.5.9-1.8.1l-2.6-6.6-7 .4zM274.3 264.9c9.2 6.3 17.4 16.3 19.5 32.5.1 1.1-.7 2.1-1.8 2.2-1.1.1-2-.7-2.2-1.8-3.2-24.6-22-33.8-34.7-37.2 3.9 2.4 8.4 6 10 10.1 6.9 17.1-5 22-4.1 38.5 1 16.4 8.6 21.4 21.7 27.9 12.9 6.4 10.7 17.6 8.5 23.1-.4 1 .8 1.9 1.6 1.3 42.1-29.3 32.1-108.6-37.4-104.9 5.8 1.5 12.6 4 18.9 8.3zm23.6 36.3c.7-.5 1.7.2 1.5 1.1l-2.2 6.7 5.6 4.2c.7.5.3 1.7-.6 1.7h-7.1l-2.3 6.7c-.3.9-1.5.9-1.8 0l-2.2-6.7-7.1-.1c-.9 0-1.3-1.2-.5-1.7l5.7-4.1-2.1-6.7c-.3-.9.7-1.6 1.5-1l5.7 4.1 5.9-4.2z"/><path class="st1" d="M251.3 284.8c-3.2 10.7-10.3 21.6-25 28.5-1 .5-2.2 0-2.7-1-.4-1 0-2.1 1-2.6 22.4-10.6 25.5-31.3 24.9-44.4-1.2 4.4-3.2 9.8-6.6 12.6-14.2 11.7-22.5 1.9-37.9 7.8-15.4 5.9-17.8 14.8-19.9 29.2-2.1 14.3-13.5 15.5-19.4 15.2-1.1-.1-1.6 1.3-.7 2 40.7 31.1 113.3-2.4 88.6-67.5.2 5.7-.1 12.9-2.3 20.2zm-27.4 33.5c.7.6.3 1.7-.6 1.7h-7.1l-2.3 6.7c-.3.9-1.5.8-1.8 0l-2.2-6.7-7.1-.1c-.9 0-1.3-1.2-.5-1.7l5.7-4.1-2-6.8c-.3-.9.7-1.6 1.5-1l5.7 4.2 5.8-4c.7-.5 1.7.2 1.4 1.1l-2.2 6.7 5.7 4z"/></svg>