<svg version="1.1" id="Layer_1" xmlns="http://www.w3.org/2000/svg" x="0" y="0" viewBox="0 0 512 512" xml:space="preserve"><style>.st0{fill:#012169}.st1{fill:#fff}.st2{fill:#c8102e}</style><path class="st0" d="M256.6 88v168.2H.5V424h512V88z"/><g id="Union_flag"><path class="st0" d="M.5 88h256.1v168.2H.5z"/><path class="st1" d="M106.5 150.1v-7.9L23.2 88H.5v17l69.3 45.1zM106.5 194.1H71.3l-70.8 46v16.1h24.2l81.8-53.3zM234.4 88l-83.9 54.5v7.6h37.3l68.8-44.8V88zM150.5 194.1v8.5l82.5 53.6h23.6v-16.4l-70.2-45.7z"/><path class="st1" d="M256.6 150.1H150.5V88h-44v62.1H.5v44h106v62.1h44v-62.1h106.1z"/><path class="st2" d="M256.6 158.8H141.8V88h-26.5v70.8H.5v26.5h114.8v70.9h26.5v-70.9h114.8z"/><path class="st2" d="M97.7 150.1L2.2 88H.5v9.6l80.7 52.5zM106.5 194.1H90.1L.5 252.4v3.8h10.6zM157.8 194.1l95.5 62.1h3.3v-8.6l-82.3-53.5zM245.9 88l-95.4 62v.1h16.4l89.7-58.3V88z"/></g><path class="st1" d="M131.2 304.1l6.7 22 21.4-8.5c1.8-.7 3.5 1.4 2.4 3l-13 18.9 20 11.4c1.7 1 1.1 3.6-.8 3.7l-22.9 1.6 3.5 22.7c.3 1.9-2.1 3.1-3.4 1.6l-15.5-16.9-15.5 16.9c-1.3 1.4-3.7.3-3.4-1.6l3.5-22.7-22.9-1.6c-2-.1-2.5-2.7-.8-3.7l20-11.4-13-18.9c-1.1-1.6.5-3.7 2.4-3l21.4 8.5 6.7-22c-.1-1.8 2.6-1.8 3.2 0zM393.8 147.7l3.3 10.7 10.4-4.2c.9-.4 1.7.7 1.2 1.4l-6.4 9.2 9.8 5.6c.8.5.5 1.7-.4 1.8l-11.2.8 1.7 11.1c.1.9-1 1.5-1.7.8l-7.6-8.3-7.6 8.3c-.6.7-1.8.1-1.7-.8l1.7-11.1-11.2-.8c-1-.1-1.2-1.3-.4-1.8l9.8-5.6-6.4-9.2c-.5-.8.3-1.8 1.2-1.4l10.4 4.2 3.3-10.7c.2-.9 1.5-.9 1.8 0zM321.2 230.2l3.3 10.8 10.4-4.2c.9-.4 1.7.7 1.2 1.4l-6.4 9.2 9.8 5.6c.8.5.5 1.7-.4 1.8l-11.2.8 1.7 11.1c.1.9-1 1.5-1.7.8l-7.6-8.3-7.6 8.3c-.6.7-1.8.1-1.7-.8l1.7-11.1-11.2-.8c-1-.1-1.2-1.3-.4-1.8l9.8-5.6-6.4-9.2c-.5-.8.3-1.8 1.2-1.4l10.4 4.2 3.3-10.7c.2-1 1.5-1 1.8-.1zM462.4 194.9l3.3 10.7 10.4-4.2c.9-.4 1.7.7 1.2 1.4l-6.4 9.2 9.8 5.6c.8.5.5 1.7-.4 1.8l-11.2.8 1.7 11.1c.1.9-1 1.5-1.7.8l-7.6-8.1-7.6 8.3c-.6.7-1.8.1-1.7-.8l1.7-11.1-11.2-.8c-1-.1-1.2-1.3-.4-1.8l9.8-5.6-6.4-9.2c-.5-.8.3-1.8 1.2-1.4l10.4 4.2 3.3-10.7c.3-1.1 1.6-1.1 1.8-.2zM393.8 336.1l3.3 10.7 10.4-4.2c.9-.4 1.7.7 1.2 1.4l-6.4 9.2 9.8 5.6c.8.5.5 1.7-.4 1.8l-11.2.8 1.7 11.1c.1.9-1 1.5-1.7.8l-7.6-8.3-7.6 8.3c-.6.7-1.8.1-1.7-.8l1.7-11.1-11.2-.8c-1-.1-1.2-1.3-.4-1.8l9.8-5.6-6.4-9.2c-.5-.8.3-1.8 1.2-1.4l10.4 4.2 3.3-10.7c.2-.9 1.5-.9 1.8 0zM419 249.5l-2.6 7.8-8.3.1c-1.1 0-1.5 1.4-.7 2l6.6 4.9-2.5 7.9c-.3 1 .8 1.9 1.7 1.2l6.7-4.8 6.7 4.8c.9.6 2-.2 1.7-1.2l-2.5-7.9 6.6-4.9c.9-.6.4-2-.7-2l-8.3-.1-2.6-7.8c-.1-1-1.5-1-1.8 0z"/></svg>