<?xml version="1.0" encoding="utf-8"?>
<!-- Generator: Adobe Illustrator 25.0.0, SVG Export Plug-In . SVG Version: 6.00 Build 0)  -->
<svg version="1.1" id="Layer_1" xmlns="http://www.w3.org/2000/svg" xmlns:xlink="http://www.w3.org/1999/xlink" x="0px" y="0px"
	 viewBox="0 0 512 512" style="enable-background:new 0 0 512 512;" xml:space="preserve">
<style type="text/css">
	.st0{fill:#0073CF;}
	.st1{fill:#FFFFFF;}
</style>
<rect y="88.3" class="st0" width="512" height="112"/>
<rect y="200.3" class="st1" width="512" height="112"/>
<rect y="312.3" class="st0" width="512" height="112"/>
<g>
	<path class="st0" d="M257.3,241.6l3.2,9.5l10,0.1c1.3,0,1.8,1.7,0.8,2.4l-8,5.9l3,9.5c0.4,1.2-1,2.3-2.1,1.5l-8.1-5.8l-8.1,5.8
		c-1.1,0.8-2.5-0.3-2.1-1.5l3-9.5l-8-5.9c-1-0.8-0.5-2.4,0.8-2.4l10-0.1l3.2-9.5C255.1,240.4,256.9,240.4,257.3,241.6z"/>
	<path class="st0" d="M167.1,267l3.2,9.5l10,0.1c1.3,0,1.8,1.7,0.8,2.4l-8,5.9l3,9.5c0.4,1.2-1,2.3-2.1,1.5l-8.1-5.8l-8.1,5.8
		c-1.1,0.8-2.5-0.3-2.1-1.5l3-9.5l-8-5.9c-1-0.8-0.5-2.4,0.8-2.4l10-0.1l3.2-9.5C165,265.8,166.7,265.8,167.1,267z"/>
	<path class="st0" d="M167.1,216.2l3.2,9.5l10,0.1c1.3,0,1.8,1.7,0.8,2.4l-8,5.9l3,9.5c0.4,1.2-1,2.3-2.1,1.5l-8.1-5.8l-8.1,5.8
		c-1.1,0.8-2.5-0.3-2.1-1.5l3-9.5l-8-5.9c-1-0.8-0.5-2.4,0.8-2.4l10-0.1l3.2-9.5C165,214.9,166.7,214.9,167.1,216.2z"/>
	<path class="st0" d="M347.4,267l3.2,9.5l10,0.1c1.3,0,1.8,1.7,0.8,2.4l-8,5.9l3,9.5c0.4,1.2-1,2.3-2.1,1.5l-8.1-5.8l-8.1,5.8
		c-1.1,0.8-2.5-0.3-2.1-1.5l3-9.5l-8-5.9c-1-0.8-0.5-2.4,0.8-2.4l10-0.1l3.2-9.5C345.3,265.8,347,265.8,347.4,267z"/>
	<path class="st0" d="M347.4,216.2l3.2,9.5l10,0.1c1.3,0,1.8,1.7,0.8,2.4l-8,5.9l3,9.5c0.4,1.2-1,2.3-2.1,1.5l-8.1-5.8l-8.1,5.8
		c-1.1,0.8-2.5-0.3-2.1-1.5l3-9.5l-8-5.9c-1-0.8-0.5-2.4,0.8-2.4l10-0.1l3.2-9.5C345.3,214.9,347,214.9,347.4,216.2z"/>
</g>
</svg>
