<svg version="1.1" id="Layer_1" xmlns="http://www.w3.org/2000/svg" x="0" y="0" viewBox="0 0 512 512" xml:space="preserve"><style>.st0{fill:#0073cf}</style><path class="st0" d="M0 88.3h512v112H0z"/><path fill="#fff" d="M0 200.3h512v112H0z"/><path class="st0" d="M0 312.3h512v112H0zM257.3 241.6l3.2 9.5 10 .1c1.3 0 1.8 1.7.8 2.4l-8 5.9 3 9.5c.4 1.2-1 2.3-2.1 1.5l-8.1-5.8-8.1 5.8c-1.1.8-2.5-.3-2.1-1.5l3-9.5-8-5.9c-1-.8-.5-2.4.8-2.4l10-.1 3.2-9.5c.2-1.2 2-1.2 2.4 0zM167.1 267l3.2 9.5 10 .1c1.3 0 1.8 1.7.8 2.4l-8 5.9 3 9.5c.4 1.2-1 2.3-2.1 1.5l-8.1-5.8-8.1 5.8c-1.1.8-2.5-.3-2.1-1.5l3-9.5-8-5.9c-1-.8-.5-2.4.8-2.4l10-.1 3.2-9.5c.3-1.2 2-1.2 2.4 0zM167.1 216.2l3.2 9.5 10 .1c1.3 0 1.8 1.7.8 2.4l-8 5.9 3 9.5c.4 1.2-1 2.3-2.1 1.5l-8.1-5.8-8.1 5.8c-1.1.8-2.5-.3-2.1-1.5l3-9.5-8-5.9c-1-.8-.5-2.4.8-2.4l10-.1 3.2-9.5c.3-1.3 2-1.3 2.4 0zM347.4 267l3.2 9.5 10 .1c1.3 0 1.8 1.7.8 2.4l-8 5.9 3 9.5c.4 1.2-1 2.3-2.1 1.5l-8.1-5.8-8.1 5.8c-1.1.8-2.5-.3-2.1-1.5l3-9.5-8-5.9c-1-.8-.5-2.4.8-2.4l10-.1 3.2-9.5c.3-1.2 2-1.2 2.4 0zM347.4 216.2l3.2 9.5 10 .1c1.3 0 1.8 1.7.8 2.4l-8 5.9 3 9.5c.4 1.2-1 2.3-2.1 1.5l-8.1-5.8-8.1 5.8c-1.1.8-2.5-.3-2.1-1.5l3-9.5-8-5.9c-1-.8-.5-2.4.8-2.4l10-.1 3.2-9.5c.3-1.3 2-1.3 2.4 0z"/></svg>