<svg version="1.1" id="Layer_1" xmlns="http://www.w3.org/2000/svg" x="0" y="0" viewBox="0 0 512 512" xml:space="preserve"><style>.st0{fill:red}.st1{fill:#fff}.st3{fill:#0093dd}.st4{fill:#171796}.st5{fill:#f7db17}</style><path class="st0" d="M0 88.3h512v112H0z"/><path class="st1" d="M0 200.3h512v112H0z"/><path fill="#002b7f" d="M0 312.3h512v112H0z"/><g id="shield"><path class="st0" d="M243.6 259.5h24.7v28.2h-24.7zM218.9 287.8h24.7V316h-24.7zM268.4 287.8h24.7V316h-24.7zM268.4 316h-24.7v27c4 .8 8.1 1.2 12.4 1.2 4.2 0 8.4-.4 12.4-1.2l-.1-27zM268.4 231.3h24.7v28.2h-24.7zM194.2 203h24.7v28.2h-24.7zM243.6 203h24.7v28.2h-24.7zM218.9 231.3h24.7v28.2h-24.7zM293.1 203h24.7v28.2h-24.7z"/><path class="st0" d="M218.9 287.8v-28.2h-24.7v23c0 1.8.1 3.5.3 5.3l24.4-.1zM293.1 287.8h24.5c.1-1.7.3-3.5.3-5.3v-23h-24.7v28.3zM218.9 331.8V316h-14.8c4 6.1 9 11.5 14.8 15.8zM307.8 316H293v15.8c5.9-4.3 10.9-9.7 14.8-15.8z"/><g><path class="st0" d="M317.8 203v79.4c0 34.1-27.7 61.8-61.8 61.8s-61.8-27.7-61.8-61.8V203h123.6m4.4-4.4H189.8V282.4c0 36.5 29.7 66.2 66.2 66.2s66.2-29.7 66.2-66.2V198.6z"/></g><g><path class="st1" d="M218.9 203h24.7v28.2h-24.7zM268.4 203h24.7v28.2h-24.7zM194.2 231.3h24.7v28.2h-24.7zM243.6 231.3h24.7v28.2h-24.7zM293.1 231.3h24.7v28.2h-24.7zM218.9 259.5h24.7v28.2h-24.7zM268.4 259.5h24.7v28.2h-24.7zM243.6 287.8h24.7V316h-24.7zM317.5 287.8H293V316h14.8c5.4-8.2 8.8-17.9 9.7-28.2zM204.1 316h14.8v-28.2h-24.4c.9 10.3 4.3 20 9.6 28.2zM218.9 331.8c7.2 5.4 15.6 9.3 24.7 11.2v-27h-24.7v15.8zM268.4 343c9.1-1.9 17.5-5.8 24.7-11.2V316h-24.7v27z"/></g><g><path class="st3" d="M211.3 156.3c-5.4-.8-10.9-1.4-16.5-1.8-4.3 3.6-8.5 7.3-12.4 11.1 3.9 9.5 7.9 19 11.8 28.5 7.9-3.3 16-5.9 24.2-7.9-2.3-9.9-4.7-19.9-7.1-29.9zM271 151.6c-4.8-2.4-9.8-4.7-15-6.8-5.2 2.1-10.2 4.3-15 6.8.8 10.3 1.6 20.5 2.4 30.8 8.4-.7 16.8-.7 25.2 0 .8-10.3 1.6-20.5 2.4-30.8zM329.6 165.7c-3.9-3.9-8.1-7.6-12.4-11.1-5.6.3-11.1.9-16.5 1.8l-7.2 30c8.2 2 16.3 4.6 24.2 7.9 4-9.6 8-19.1 11.9-28.6z"/></g><g><path class="st4" d="M241 151.6c-5.2-1.7-10.5-3.1-15.9-4.3-4.8 2.8-9.4 5.9-13.8 9l7.2 30c8.2-2 16.6-3.3 25-3.9-.9-10.3-1.7-20.5-2.5-30.8zM300.7 156.3c-4.4-3.2-9-6.2-13.8-9-5.4 1.2-10.7 2.7-15.9 4.3-.8 10.3-1.6 20.5-2.4 30.8 8.4.7 16.7 2 25 3.9 2.3-10 4.7-20 7.1-30z"/></g><g><path class="st0" d="M242 163.9c-9.3.7-18.6 2.2-27.8 4.4-.5-2-1-4-1.4-6 9.5-2.3 19.1-3.8 28.8-4.5 0 2 .2 4.1.4 6.1zM242.9 176.2c-8.7.7-17.4 2-25.9 4.1-.5-2-1-4-1.4-6 8.9-2.1 17.8-3.5 26.9-4.2.1 2 .3 4.1.4 6.1zM320.2 188.5c-8.2-3.4-16.6-6.1-25.2-8.2.5-2 1-4 1.4-6 8.9 2.1 17.6 4.9 26.1 8.5-.8 1.9-1.6 3.8-2.3 5.7z"/></g><g><path class="st5" d="M318 170c-.9 2.4-3.8 3.6-6.6 2.6-2.8-.9-4.5-3.6-3.8-6s3.7-3.8 6.6-2.8c3 .9 4.6 3.8 3.8 6.2zM204.4 166.6c.7 2.5-1 5.1-3.8 6-2.8.9-5.7-.2-6.6-2.6-.9-2.4.8-5.2 3.7-6.2 3-1 6 .3 6.7 2.8zM254.6 162.5c0 2-1.8 3.7-4.1 3.8-2.3.1-4.2-1.5-4.3-3.5-.1-2 1.7-3.8 4.1-3.9 2.3 0 4.3 1.6 4.3 3.6zM265.9 162.8c-.1 2-2.1 3.6-4.3 3.5-2.3-.1-4.1-1.7-4.1-3.8 0-2 2-3.7 4.3-3.6 2.3.1 4.2 1.9 4.1 3.9zM260 172.1c-.1 2-1.9 3.7-4 3.7-2.2 0-3.9-1.6-4-3.7-.1-2 1.7-3.8 4-3.7 2.3-.1 4.1 1.6 4 3.7zM285.3 178.3c-2.2-.4-4.3-.7-6.5-1-3.6-.5-6.2-3.5-5.9-6.9.3-3.4 3.7-5.9 7.6-5.3 2.3.3 4.6.7 7 1.1 3.9.7 6.4 4.1 5.6 7.4-.8 3.3-4.2 5.3-7.8 4.7z"/></g></g></svg>