<svg version="1.1" id="Layer_1" xmlns="http://www.w3.org/2000/svg" x="0" y="0" viewBox="0 0 512 512" xml:space="preserve"><style>.st0{fill:#0038b8}</style><path class="st0" d="M0 88.3h512v62H0zM0 361.7h512v62H0z"/><path fill="#fff" d="M0 150.1h512V362H0z"/><path class="st0" d="M301.9 256l22.9-39.7h-45.9L256 176.6l-22.9 39.7h-45.9l22.9 39.7-22.9 39.7h45.9l22.9 39.7 22.9-39.7h45.9L301.9 256zm.4-26.7l-7.9 13.7-7.9-13.7h15.8zM286.9 256l-15.4 26.7h-30.9L225.1 256l15.4-26.7h30.9l15.5 26.7zM256 202.5l7.9 13.7H248l8-13.7zm-46.3 26.8h15.9l-7.9 13.7-8-13.7zm0 53.4l7.9-13.7 7.9 13.7h-15.8zm46.3 26.8l-7.9-13.7H264l-8 13.7zm38.4-40.5l7.9 13.7h-15.9l8-13.7z"/></svg>