<svg version="1.1" id="Layer_1" xmlns="http://www.w3.org/2000/svg" x="0" y="0" viewBox="0 0 512 512" xml:space="preserve"><style>.st3{fill:#008}</style><path fill="#fab446" d="M0 88.3h512v112H0z"/><path fill="#fff" d="M0 200.3h512v112H0z"/><path fill="#128807" d="M0 312.3h512v112H0z"/><path class="st3" d="M256 208.6c-26.2 0-47.4 21.3-47.4 47.4s21.3 47.4 47.4 47.4 47.4-21.3 47.4-47.4-21.2-47.4-47.4-47.4zm38.6 46.4l-24.9-1.2-5.4.5 5.2-1.6 22.6-10.6c1.5 4.1 2.4 8.4 2.5 12.9zm-3.3-14.7l-23.5 8.5-4.8 2.6 4.2-3.5 16.8-18.4c3 3.1 5.5 6.8 7.3 10.8zm-8.7-12.3l-18.4 16.8-3.5 4.2 2.6-4.8 8.5-23.5c3.9 1.8 7.6 4.3 10.8 7.3zm-12.8-8l-10.6 22.6-1.6 5.2.5-5.4-1.2-24.9c4.6 0 8.9.9 12.9 2.5zm-14.8-2.6l-1.2 24.9.5 5.4-1.6-5.2-10.5-22.5c4-1.6 8.3-2.5 12.8-2.6zm-14.7 3.3l8.5 23.5 2.6 4.8-3.5-4.2-18.5-16.8c3.2-3 6.9-5.5 10.9-7.3zm-12.3 8.7l16.8 18.4 4.2 3.5-4.8-2.6-23.5-8.5c1.8-3.9 4.3-7.6 7.3-10.8zm-8 12.8l22.6 10.6 5.2 1.6-5.4-.5-24.9 1.2c0-4.6.9-8.9 2.5-12.9zm-2.6 14.8l24.9 1.2 5.4-.5-5.2 1.6-22.5 10.5c-1.6-4-2.5-8.3-2.6-12.8zm3.3 14.7l23.5-8.5 4.8-2.6-4.2 3.5-16.8 18.5c-3-3.2-5.5-6.9-7.3-10.9zm8.7 12.3l18.4-16.8 3.5-4.2-2.6 4.8-8.5 23.5c-3.9-1.8-7.6-4.3-10.8-7.3zm12.8 8.1l10.6-22.6 1.6-5.2-.5 5.4 1.2 24.9c-4.6-.1-8.9-1-12.9-2.5zm6.5-36.1c0-4 3.2-7.3 7.3-7.3s7.3 3.2 7.3 7.3-3.2 7.3-7.3 7.3-7.3-3.3-7.3-7.3zm8.3 38.6l1.2-24.9-.5-5.4 1.6 5.2 10.6 22.6c-4.1 1.5-8.4 2.4-12.9 2.5zm14.7-3.3l-8.5-23.5-2.6-4.8 3.5 4.2 18.4 16.8c-3.1 3-6.8 5.5-10.8 7.3zm12.3-8.7l-16.8-18.4-4.2-3.5 4.8 2.6 23.5 8.5c-1.8 3.9-4.3 7.6-7.3 10.8zm8-12.8l-22.6-10.6-5.2-1.6 5.4.5 24.9-1.2c0 4.6-.9 8.9-2.5 12.9z"/><circle class="st3" cx="256" cy="256" r="4.4"/></svg>