<?xml version="1.0" encoding="utf-8"?>
<!-- Generator: Adobe Illustrator 25.0.0, SVG Export Plug-In . SVG Version: 6.00 Build 0)  -->
<svg version="1.1" id="Layer_1" xmlns="http://www.w3.org/2000/svg" xmlns:xlink="http://www.w3.org/1999/xlink" x="0px" y="0px"
	 viewBox="0 0 512 512" style="enable-background:new 0 0 512 512;" xml:space="preserve">
<style type="text/css">
	.st0{fill:#FFFFFF;}
	.st1{fill:#012169;}
	.st2{fill:#B45308;}
	.st3{fill:#007C0C;}
	.st4{fill:#FFD733;}
	.st5{fill:#C8102E;}
</style>
<path class="st0" d="M256,105.9c25.5,0,25.5,8.8,51.1,8.8c25.6,0,25.6-8.8,51.2-8.8c25.6,0,25.6,8.8,51.2,8.8
	c25.6,0,25.6-8.8,51.3-8.8c25.6,0,25.6,8.8,51.3,8.8V97.1c0,0,0-9.1,0-9.1H256L256,105.9z"/>
<path class="st0" d="M512,141.3c-25.6,0-25.6-8.8-51.3-8.8c-25.6,0-25.6,8.8-51.3,8.8c-25.6,0-25.6-8.8-51.2-8.8
	c-25.6,0-25.6,8.8-51.2,8.8c-25.6,0-25.6-8.8-51.1-8.8l0,26.5c25.5,0,25.5,8.8,51.1,8.8c25.6,0,25.6-8.8,51.2-8.8
	c25.6,0,25.6,8.8,51.2,8.8c25.6,0,25.6-8.8,51.3-8.8c25.6,0,25.6,8.8,51.3,8.8L512,141.3z"/>
<path class="st0" d="M512,194.3c-25.6,0-25.6-8.8-51.3-8.8c-25.6,0-25.6,8.8-51.3,8.8c-25.6,0-25.6-8.8-51.2-8.8
	c-25.6,0-25.6,8.8-51.2,8.8c-25.6,0-25.6-8.8-51.1-8.8V212c25.5,0,25.5,8.8,51.1,8.8c25.6,0,25.6-8.8,51.2-8.8
	c25.6,0,25.6,8.8,51.2,8.8c25.6,0,25.6-8.8,51.3-8.8c25.6,0,25.6,8.8,51.3,8.8V194.3z"/>
<path class="st0" d="M0,273.8c25.6,0,25.6-8.8,51.1-8.8c25.6,0,25.6,8.8,51.2,8.8c25.6,0,25.6-8.8,51.2-8.8
	c25.6,0,25.6,8.8,51.2,8.8c25.6,0,25.6-8.8,51.2-8.8c25.6,0,25.6,8.8,51.2,8.8c25.6,0,25.6-8.8,51.2-8.8c25.6,0,25.6,8.8,51.2,8.8
	c25.6,0,25.6-8.8,51.3-8.8c25.6,0,25.6,8.8,51.3,8.8v-26.5c-25.6,0-25.6-8.8-51.3-8.8c-25.6,0-25.6,8.8-51.3,8.8
	c-25.6,0-25.6-8.8-51.2-8.8c-25.6,0-25.6,8.8-51.2,8.8c-25.6,0-25.6-8.8-51.1-8.8v17.9H0L0,273.8z"/>
<path class="st0" d="M0,326.8c25.6,0,25.6-8.8,51.1-8.8c25.6,0,25.6,8.8,51.2,8.8c25.6,0,25.6-8.8,51.2-8.8
	c25.6,0,25.6,8.8,51.2,8.8c25.6,0,25.6-8.8,51.2-8.8c25.6,0,25.6,8.8,51.2,8.8c25.6,0,25.6-8.8,51.2-8.8c25.6,0,25.6,8.8,51.2,8.8
	c25.6,0,25.6-8.8,51.3-8.8c25.6,0,25.6,8.8,51.3,8.8v-26.5c-25.6,0-25.6-8.8-51.3-8.8c-25.6,0-25.6,8.8-51.3,8.8
	c-25.6,0-25.6-8.8-51.2-8.8c-25.6,0-25.6,8.8-51.2,8.8c-25.6,0-25.6-8.8-51.2-8.8c-25.6,0-25.6,8.8-51.2,8.8
	c-25.6,0-25.6-8.8-51.2-8.8s-25.6,8.8-51.2,8.8c-25.6,0-25.6-8.8-51.2-8.8c-25.6,0-25.6,8.8-51.1,8.8V326.8z"/>
<path class="st0" d="M0,379.8c25.6,0,25.6-8.8,51.1-8.8c25.6,0,25.6,8.8,51.2,8.8c25.6,0,25.6-8.8,51.2-8.8
	c25.6,0,25.6,8.8,51.2,8.8c25.6,0,25.6-8.8,51.2-8.8c25.6,0,25.6,8.8,51.2,8.8c25.6,0,25.6-8.8,51.2-8.8c25.6,0,25.6,8.8,51.2,8.8
	c25.6,0,25.6-8.8,51.3-8.8c25.6,0,25.6,8.8,51.3,8.8v-26.5c-25.6,0-25.6-8.8-51.3-8.8c-25.6,0-25.6,8.8-51.3,8.8
	c-25.6,0-25.6-8.8-51.2-8.8c-25.6,0-25.6,8.8-51.2,8.8c-25.6,0-25.6-8.8-51.2-8.8c-25.6,0-25.6,8.8-51.2,8.8
	c-25.6,0-25.6-8.8-51.2-8.8s-25.6,8.8-51.2,8.8c-25.6,0-25.6-8.8-51.2-8.8c-25.6,0-25.6,8.8-51.1,8.8V379.8z"/>
<path class="st0" d="M512,406.3c-25.6,0-25.6-8.8-51.3-8.8c-25.6,0-25.6,8.8-51.3,8.8c-25.6,0-25.6-8.8-51.2-8.8
	c-25.6,0-25.6,8.8-51.2,8.8c-25.6,0-25.6-8.8-51.2-8.8c-25.6,0-25.6,8.8-51.2,8.8c-25.6,0-25.6-8.8-51.2-8.8s-25.6,8.8-51.2,8.8
	c-25.6,0-25.6-8.8-51.2-8.8c-25.6,0-25.6,8.8-51.1,8.8L0,424h503.2h8.8v-8.8c0,0,0,0,0,0"/>
<path class="st1" d="M512,353.3c-25.6,0-25.6-8.8-51.3-8.8c-25.6,0-25.6,8.8-51.3,8.8c-25.6,0-25.6-8.8-51.2-8.8
	c-25.6,0-25.6,8.8-51.2,8.8c-25.6,0-25.6-8.8-51.2-8.8c-25.6,0-25.6,8.8-51.2,8.8s-25.6-8.8-51.2-8.8s-25.6,8.8-51.2,8.8
	c-25.6,0-25.6-8.8-51.2-8.8c-25.6,0-25.6,8.8-51.1,8.8v-26.5c25.6,0,25.6-8.8,51.1-8.8c25.6,0,25.6,8.8,51.2,8.8
	c25.6,0,25.6-8.8,51.2-8.8s25.6,8.8,51.2,8.8c25.6,0,25.6-8.8,51.2-8.8c25.6,0,25.6,8.8,51.2,8.8c25.6,0,25.6-8.8,51.2-8.8
	c25.6,0,25.6,8.8,51.2,8.8c25.6,0,25.6-8.8,51.3-8.8c25.6,0,25.6,8.8,51.3,8.8V353.3z"/>
<path class="st1" d="M512,300.3c-25.6,0-25.6-8.8-51.3-8.8c-25.6,0-25.6,8.8-51.3,8.8c-25.6,0-25.6-8.8-51.2-8.8
	c-25.6,0-25.6,8.8-51.2,8.8c-25.6,0-25.6-8.8-51.2-8.8c-25.6,0-25.6,8.8-51.2,8.8s-25.6-8.8-51.2-8.8s-25.6,8.8-51.2,8.8
	c-25.6,0-25.6-8.8-51.2-8.8c-25.6,0-25.6,8.8-51.1,8.8v-26.5c25.6,0,25.6-8.8,51.1-8.8c25.6,0,25.6,8.8,51.2,8.8
	c25.6,0,25.6-8.8,51.2-8.8s25.6,8.8,51.2,8.8c25.6,0,25.6-8.8,51.2-8.8c25.6,0,25.6,8.8,51.2,8.8c25.6,0,25.6-8.8,51.2-8.8
	c25.6,0,25.6,8.8,51.2,8.8c25.6,0,25.6-8.8,51.3-8.8c25.6,0,25.6,8.8,51.3,8.8V300.3z"/>
<path class="st1" d="M512,406.3c-25.6,0-25.6-8.8-51.3-8.8c-25.6,0-25.6,8.8-51.3,8.8c-25.6,0-25.6-8.8-51.2-8.8
	c-25.6,0-25.6,8.8-51.2,8.8c-25.6,0-25.6-8.8-51.2-8.8c-25.6,0-25.6,8.8-51.2,8.8s-25.6-8.8-51.2-8.8s-25.6,8.8-51.2,8.8
	c-25.6,0-25.6-8.8-51.2-8.8c-25.6,0-25.6,8.8-51.1,8.8v-26.5c25.6,0,25.6-8.8,51.1-8.8c25.6,0,25.6,8.8,51.2,8.8
	c25.6,0,25.6-8.8,51.2-8.8s25.6,8.8,51.2,8.8c25.6,0,25.6-8.8,51.2-8.8c25.6,0,25.6,8.8,51.2,8.8c25.6,0,25.6-8.8,51.2-8.8
	c25.6,0,25.6,8.8,51.2,8.8c25.6,0,25.6-8.8,51.3-8.8c25.6,0,25.6,8.8,51.3,8.8V406.3z"/>
<path class="st1" d="M460.7,105.9c-25.6,0-25.6,8.8-51.3,8.8c-25.6,0-25.6-8.8-51.2-8.8c-25.6,0-25.6,8.8-51.2,8.8
	c-25.6,0-25.6-8.8-51.1-8.8v26.5c25.5,0,25.5,8.8,51.1,8.8c25.6,0,25.6-8.8,51.2-8.8c25.6,0,25.6,8.8,51.2,8.8
	c25.6,0,25.6-8.8,51.3-8.8c25.6,0,25.6,8.8,51.3,8.8v-26.5C486.4,114.8,486.4,105.9,460.7,105.9z"/>
<path class="st1" d="M460.7,159c-25.6,0-25.6,8.8-51.3,8.8c-25.6,0-25.6-8.8-51.2-8.8c-25.6,0-25.6,8.8-51.2,8.8
	c-25.6,0-25.6-8.8-51.1-8.8v26.5c25.5,0,25.5,8.8,51.1,8.8c25.6,0,25.6-8.8,51.2-8.8c25.6,0,25.6,8.8,51.2,8.8
	c25.6,0,25.6-8.8,51.3-8.8c25.6,0,25.6,8.8,51.3,8.8v-26.5C486.4,167.8,486.4,159,460.7,159z"/>
<path class="st1" d="M460.7,212c-25.6,0-25.6,8.8-51.3,8.8c-25.6,0-25.6-8.8-51.2-8.8c-25.6,0-25.6,8.8-51.2,8.8
	c-25.6,0-25.6-8.8-51.1-8.8v26.5c25.5,0,25.5,8.8,51.1,8.8c25.6,0,25.6-8.8,51.2-8.8c25.6,0,25.6,8.8,51.2,8.8
	c25.6,0,25.6-8.8,51.3-8.8c25.6,0,25.6,8.8,51.3,8.8v-26.5C486.4,220.8,486.4,212,460.7,212z"/>
<g>
	<path class="st2" d="M388.4,387.6L388.4,387.6c-3.4,0-6.1-2.7-6.1-6.1V185.8h12.2v195.7C394.5,384.9,391.8,387.6,388.4,387.6z"/>
	<polygon class="st3" points="474,210.3 461.7,204.2 416.7,198.5 444.6,162.7 448.9,149.7 435.9,154 400.1,181.9 394.5,136.9 
		388.4,124.6 382.3,136.9 376.7,181.9 340.9,154 327.9,149.7 332.2,162.7 360.1,198.5 315.1,204.2 302.9,210.3 315.1,216.4 
		360.1,222 332.2,257.8 327.9,270.8 340.9,266.5 379.8,236.2 388.4,222.5 397.1,236.2 435.9,266.5 448.9,270.8 444.6,257.8 
		416.7,222 461.7,216.4 	"/>
	<path class="st4" d="M415,281.5c-5.5-5.5-17.3-3.5-23.5-1.9v-5.1c0-1.7-1.4-3.1-3.1-3.1s-3.1,1.4-3.1,3.1v5.1
		c-6.3-1.6-18.1-3.6-23.5,1.9c-5.2,5.2-1.4,17.9,2.2,26.7v8.1c0,2.2,1.8,4.1,4.1,4.1h40.8c2.2,0,4.1-1.8,4.1-4.1v-8.1
		C416.5,299.4,420.3,286.7,415,281.5z M410.7,285.8c2.3,2.3-0.3,12.6-4.5,22.3h-14.7v-22.2C398.3,284,407.7,282.8,410.7,285.8z
		 M366.1,285.8c3-3,12.4-1.8,19.2,0.1v22.2h-14.7C366.4,298.4,363.8,288.2,366.1,285.8z"/>
</g>
<g id="Union_flag">
	<rect y="88" class="st1" width="256.1" height="168.3"/>
	<g>
		<polygon class="st0" points="106,150.2 106,142.2 22.7,88 0,88 0,105 69.3,150.2 		"/>
		<polygon class="st0" points="106,194.2 70.8,194.2 0,240.2 0,256.3 24.2,256.3 106,203 		"/>
		<polygon class="st0" points="233.9,88 150,142.5 150,150.2 187.3,150.2 256.1,105.3 256.1,88 		"/>
		<polygon class="st0" points="150,194.2 150,202.7 232.5,256.3 256.1,256.3 256.1,239.9 185.9,194.2 		"/>
	</g>
	<polygon class="st0" points="256.1,150.2 150,150.2 150,88 106,88 106,150.2 0,150.2 0,194.2 106,194.2 106,256.3 150,256.3 
		150,194.2 256.1,194.2 	"/>
	<polygon class="st5" points="256.1,158.9 141.3,158.9 141.3,88 114.8,88 114.8,158.9 0,158.9 0,185.4 114.8,185.4 114.8,256.3 
		141.3,256.3 141.3,185.4 256.1,185.4 	"/>
	<polygon class="st5" points="97.2,150.2 1.7,88 0,88 0,97.6 80.7,150.2 	"/>
	<polygon class="st5" points="106,194.2 89.6,194.2 0,252.5 0,256.3 10.6,256.3 	"/>
	<polygon class="st5" points="157.3,194.2 252.8,256.3 256.1,256.3 256.1,247.7 173.8,194.2 	"/>
	<polygon class="st5" points="245.4,88 150,150.1 150,150.2 166.4,150.2 256.1,91.8 256.1,88 	"/>
</g>
</svg>
