<svg version="1.1" id="Layer_1" xmlns="http://www.w3.org/2000/svg" x="0" y="0" viewBox="0 0 512 512" xml:space="preserve"><style>.st0{fill:#fff}.st1{fill:#012169}.st5{fill:#c8102e}</style><path class="st0" d="M256 105.9c25.5 0 25.5 8.8 51.1 8.8s25.6-8.8 51.2-8.8 25.6 8.8 51.2 8.8 25.6-8.8 51.3-8.8c25.6 0 25.6 8.8 51.3 8.8V97.1 88H256v17.9zM512 141.3c-25.6 0-25.6-8.8-51.3-8.8-25.6 0-25.6 8.8-51.3 8.8-25.6 0-25.6-8.8-51.2-8.8s-25.6 8.8-51.2 8.8-25.6-8.8-51.1-8.8V159c25.5 0 25.5 8.8 51.1 8.8s25.6-8.8 51.2-8.8 25.6 8.8 51.2 8.8 25.6-8.8 51.3-8.8c25.6 0 25.6 8.8 51.3 8.8v-26.5zM512 194.3c-25.6 0-25.6-8.8-51.3-8.8-25.6 0-25.6 8.8-51.3 8.8-25.6 0-25.6-8.8-51.2-8.8s-25.6 8.8-51.2 8.8-25.6-8.8-51.1-8.8V212c25.5 0 25.5 8.8 51.1 8.8s25.6-8.8 51.2-8.8 25.6 8.8 51.2 8.8 25.6-8.8 51.3-8.8c25.6 0 25.6 8.8 51.3 8.8v-26.5zM0 273.8c25.6 0 25.6-8.8 51.1-8.8 25.6 0 25.6 8.8 51.2 8.8s25.6-8.8 51.2-8.8 25.6 8.8 51.2 8.8 25.6-8.8 51.2-8.8 25.6 8.8 51.2 8.8 25.6-8.8 51.2-8.8 25.6 8.8 51.2 8.8 25.6-8.8 51.3-8.8c25.6 0 25.6 8.8 51.3 8.8v-26.5c-25.6 0-25.6-8.8-51.3-8.8-25.6 0-25.6 8.8-51.3 8.8-25.6 0-25.6-8.8-51.2-8.8s-25.6 8.8-51.2 8.8-25.6-8.8-51.1-8.8v17.9H0v17.4zM0 326.8c25.6 0 25.6-8.8 51.1-8.8 25.6 0 25.6 8.8 51.2 8.8s25.6-8.8 51.2-8.8 25.6 8.8 51.2 8.8 25.6-8.8 51.2-8.8 25.6 8.8 51.2 8.8 25.6-8.8 51.2-8.8 25.6 8.8 51.2 8.8 25.6-8.8 51.3-8.8c25.6 0 25.6 8.8 51.3 8.8v-26.5c-25.6 0-25.6-8.8-51.3-8.8-25.6 0-25.6 8.8-51.3 8.8-25.6 0-25.6-8.8-51.2-8.8s-25.6 8.8-51.2 8.8-25.6-8.8-51.2-8.8-25.6 8.8-51.2 8.8-25.6-8.8-51.2-8.8-25.6 8.8-51.2 8.8-25.6-8.8-51.2-8.8-25.6 8.8-51.1 8.8v26.5zM0 379.8c25.6 0 25.6-8.8 51.1-8.8 25.6 0 25.6 8.8 51.2 8.8s25.6-8.8 51.2-8.8 25.6 8.8 51.2 8.8 25.6-8.8 51.2-8.8 25.6 8.8 51.2 8.8 25.6-8.8 51.2-8.8 25.6 8.8 51.2 8.8 25.6-8.8 51.3-8.8c25.6 0 25.6 8.8 51.3 8.8v-26.5c-25.6 0-25.6-8.8-51.3-8.8-25.6 0-25.6 8.8-51.3 8.8-25.6 0-25.6-8.8-51.2-8.8s-25.6 8.8-51.2 8.8-25.6-8.8-51.2-8.8-25.6 8.8-51.2 8.8-25.6-8.8-51.2-8.8-25.6 8.8-51.2 8.8-25.6-8.8-51.2-8.8-25.6 8.8-51.1 8.8v26.5zM512 406.3c-25.6 0-25.6-8.8-51.3-8.8-25.6 0-25.6 8.8-51.3 8.8-25.6 0-25.6-8.8-51.2-8.8s-25.6 8.8-51.2 8.8-25.6-8.8-51.2-8.8-25.6 8.8-51.2 8.8-25.6-8.8-51.2-8.8-25.6 8.8-51.2 8.8-25.6-8.8-51.2-8.8-25.6 8.8-51.1 8.8L0 424h512v-8.8"/><path class="st1" d="M512 353.3c-25.6 0-25.6-8.8-51.3-8.8-25.6 0-25.6 8.8-51.3 8.8-25.6 0-25.6-8.8-51.2-8.8s-25.6 8.8-51.2 8.8-25.6-8.8-51.2-8.8-25.6 8.8-51.2 8.8-25.6-8.8-51.2-8.8-25.6 8.8-51.2 8.8-25.6-8.8-51.2-8.8-25.6 8.8-51.1 8.8v-26.5c25.6 0 25.6-8.8 51.1-8.8 25.6 0 25.6 8.8 51.2 8.8s25.6-8.8 51.2-8.8 25.6 8.8 51.2 8.8 25.6-8.8 51.2-8.8 25.6 8.8 51.2 8.8 25.6-8.8 51.2-8.8 25.6 8.8 51.2 8.8 25.6-8.8 51.3-8.8c25.6 0 25.6 8.8 51.3 8.8v26.5zM512 300.3c-25.6 0-25.6-8.8-51.3-8.8-25.6 0-25.6 8.8-51.3 8.8-25.6 0-25.6-8.8-51.2-8.8s-25.6 8.8-51.2 8.8-25.6-8.8-51.2-8.8-25.6 8.8-51.2 8.8-25.6-8.8-51.2-8.8-25.6 8.8-51.2 8.8-25.6-8.8-51.2-8.8-25.6 8.8-51.1 8.8v-26.5c25.6 0 25.6-8.8 51.1-8.8 25.6 0 25.6 8.8 51.2 8.8s25.6-8.8 51.2-8.8 25.6 8.8 51.2 8.8 25.6-8.8 51.2-8.8 25.6 8.8 51.2 8.8 25.6-8.8 51.2-8.8 25.6 8.8 51.2 8.8 25.6-8.8 51.3-8.8c25.6 0 25.6 8.8 51.3 8.8v26.5zM512 406.3c-25.6 0-25.6-8.8-51.3-8.8-25.6 0-25.6 8.8-51.3 8.8-25.6 0-25.6-8.8-51.2-8.8s-25.6 8.8-51.2 8.8-25.6-8.8-51.2-8.8-25.6 8.8-51.2 8.8-25.6-8.8-51.2-8.8-25.6 8.8-51.2 8.8-25.6-8.8-51.2-8.8-25.6 8.8-51.1 8.8v-26.5c25.6 0 25.6-8.8 51.1-8.8 25.6 0 25.6 8.8 51.2 8.8s25.6-8.8 51.2-8.8 25.6 8.8 51.2 8.8 25.6-8.8 51.2-8.8 25.6 8.8 51.2 8.8 25.6-8.8 51.2-8.8 25.6 8.8 51.2 8.8 25.6-8.8 51.3-8.8c25.6 0 25.6 8.8 51.3 8.8v26.5zM460.7 105.9c-25.6 0-25.6 8.8-51.3 8.8-25.6 0-25.6-8.8-51.2-8.8s-25.6 8.8-51.2 8.8-25.6-8.8-51.1-8.8v26.5c25.5 0 25.5 8.8 51.1 8.8s25.6-8.8 51.2-8.8 25.6 8.8 51.2 8.8 25.6-8.8 51.3-8.8c25.6 0 25.6 8.8 51.3 8.8v-26.5c-25.6.1-25.6-8.8-51.3-8.8zM460.7 159c-25.6 0-25.6 8.8-51.3 8.8-25.6 0-25.6-8.8-51.2-8.8s-25.6 8.8-51.2 8.8-25.6-8.8-51.1-8.8v26.5c25.5 0 25.5 8.8 51.1 8.8s25.6-8.8 51.2-8.8 25.6 8.8 51.2 8.8 25.6-8.8 51.3-8.8c25.6 0 25.6 8.8 51.3 8.8v-26.5c-25.6 0-25.6-8.8-51.3-8.8zM460.7 212c-25.6 0-25.6 8.8-51.3 8.8-25.6 0-25.6-8.8-51.2-8.8s-25.6 8.8-51.2 8.8-25.6-8.8-51.1-8.8v26.5c25.5 0 25.5 8.8 51.1 8.8s25.6-8.8 51.2-8.8 25.6 8.8 51.2 8.8 25.6-8.8 51.3-8.8c25.6 0 25.6 8.8 51.3 8.8v-26.5c-25.6 0-25.6-8.8-51.3-8.8z"/><path d="M388.4 387.6c-3.4 0-6.1-2.7-6.1-6.1V185.8h12.2v195.7c0 3.4-2.7 6.1-6.1 6.1z" fill="#b45308"/><path fill="#007c0c" d="M474 210.3l-12.3-6.1-45-5.7 27.9-35.8 4.3-13-13 4.3-35.8 27.9-5.6-45-6.1-12.3-6.1 12.3-5.6 45-35.8-27.9-13-4.3 4.3 13 27.9 35.8-45 5.7-12.2 6.1 12.2 6.1 45 5.6-27.9 35.8-4.3 13 13-4.3 38.9-30.3 8.6-13.7 8.7 13.7 38.8 30.3 13 4.3-4.3-13-27.9-35.8 45-5.6z"/><path d="M415 281.5c-5.5-5.5-17.3-3.5-23.5-1.9v-5.1c0-1.7-1.4-3.1-3.1-3.1s-3.1 1.4-3.1 3.1v5.1c-6.3-1.6-18.1-3.6-23.5 1.9-5.2 5.2-1.4 17.9 2.2 26.7v8.1c0 2.2 1.8 4.1 4.1 4.1h40.8c2.2 0 4.1-1.8 4.1-4.1v-8.1c3.5-8.8 7.3-21.5 2-26.7zm-4.3 4.3c2.3 2.3-.3 12.6-4.5 22.3h-14.7v-22.2c6.8-1.9 16.2-3.1 19.2-.1zm-44.6 0c3-3 12.4-1.8 19.2.1v22.2h-14.7c-4.2-9.7-6.8-19.9-4.5-22.3z" fill="#ffd733"/><g id="Union_flag"><path class="st1" d="M0 88h256.1v168.3H0z"/><path class="st0" d="M106 150.2v-8L22.7 88H0v17l69.3 45.2zM106 194.2H70.8L0 240.2v16.1h24.2L106 203zM233.9 88L150 142.5v7.7h37.3l68.8-44.9V88zM150 194.2v8.5l82.5 53.6h23.6v-16.4l-70.2-45.7z"/><path class="st0" d="M256.1 150.2H150V88h-44v62.2H0v44h106v62.1h44v-62.1h106.1z"/><path class="st5" d="M256.1 158.9H141.3V88h-26.5v70.9H0v26.5h114.8v70.9h26.5v-70.9h114.8z"/><path class="st5" d="M97.2 150.2L1.7 88H0v9.6l80.7 52.6zM106 194.2H89.6L0 252.5v3.8h10.6zM157.3 194.2l95.5 62.1h3.3v-8.6l-82.3-53.5zM245.4 88L150 150.1v.1h16.4l89.7-58.4V88z"/></g></svg>