<?xml version="1.0" encoding="utf-8"?>
<!-- Generator: Adobe Illustrator 25.0.0, SVG Export Plug-In . SVG Version: 6.00 Build 0)  -->
<svg version="1.1" id="Layer_1" xmlns="http://www.w3.org/2000/svg" xmlns:xlink="http://www.w3.org/1999/xlink" x="0px" y="0px"
	 viewBox="0 0 512 512" style="enable-background:new 0 0 512 512;" xml:space="preserve">
<style type="text/css">
	.st0{fill:#CE1126;}
	.st1{fill:#FFFFFF;}
	.st2{fill:#449D71;}
</style>
<rect y="88.3" class="st0" width="512" height="112"/>
<rect y="200" class="st1" width="512" height="112"/>
<rect y="311.7" width="512" height="112"/>
<g>
	<path class="st2" d="M308.1,233.5c-0.9-0.5-2-2.2-1.7-3c0.4-0.8-0.2-0.7,1.7-0.2c3.4,0.9,5.6,0.5,7.8-1.4l1.9-1.5l2.3,1.1
		c1.2,0.6,2.5,1,2.9,0.9c1-0.2,3.1-2.8,3-3.7c0-1.2,0.8-0.9,1.3,0.4c0.9,2.4-0.8,6.6-3.1,7.2c-1.1,0.3-2.2,0.2-4-0.3
		c-2.1-0.8-2.4-0.8-3.5,0C314.4,234.9,311,235.1,308.1,233.5"/>
	<path class="st2" d="M316.9,224.2c-1.1-1.6-2.5-7.1-2.1-8.5c0.4-1.2,0.8-1.5,1.9-1.1c1.9,0.7,2.4,1.9,2.2,6.5
		C318.5,224.4,318,225.5,316.9,224.2"/>
	<path class="st2" d="M241,248.7c-4.7,2.6-11.6,3.1-11.6,10.4c-10.1,0.4-22.1,0.8-32.9,0.6c2.9-3.8,21.4-20.9,29.1-27.6
		c1.3-1.1,1.7-3.3,1-4.8l-0.2-0.4c-1.1-2.3-4.1-2.8-6-1.1c-7.7,7.3-15.2,14.2-16.5,15.3c-9.9,10-12.8,12.9-14.4,14.5
		c-1.1,1.1-1.7,2.6-1.7,4.2v0.1c0,3.3,2.7,5.9,5.9,5.9h43.4c2.5,0-0.6-8.5,2.6-8.5c2.2,0,2.4,3.1,2.3,6.3c-0.1,2.5-2.1,4.4-4.6,4.4
		c-18.8,0-38.3,0.2-56.7,0.2c-1.5,0-2.7-1.2-2.7-2.7v-3.3c0-2.8-3.1-4.4-5.5-2.9c-0.1,0.1-0.2,0.1-0.3,0.2c-1.2,0.8-1.9,2.3-1.4,3.6
		c0.3,0.9,0.4,2,0.5,3.1c0,1.5-1.2,2.7-2.7,2.8c-6.1,0.2-12.7,0.2-14.6-3.3c-1.1-2-3.3-3-5.4-2l-0.3,0.1c-2.1,1.1-3,3.7-1.8,5.8
		c2.2,4,4.3,8.6,3.2,15.1c-0.9,2-2.5,3.3-4.3,4.5c-2,1.3-0.7,4.3,1.6,3.8c5.6-1,9.4-5.4,10.6-10.6h86.4c3.2,0,5.7-2.6,5.7-5.7v-18.8
		C249.4,252.3,243.4,252.5,241,248.7z"/>
	<path class="st2" d="M350.6,223.9c1.3,0.8,2.6,1.6,4,2.3c1.6,0.7,2.2,2.6,1.2,4.1c-0.2,0.4-0.4,0.8-0.6,1.3v37.2
		c2.5,0.5,4,0,5.2-0.8c1.3-0.9,3.1-0.2,3.5,1.3c0.9,3.3,2.3,6.5,3.1,9.4c0.5,1.8-0.9,3.6-2.8,3.6h-14.6c-1.3,0-2.3-1-2.3-2.3v-54.3
		C347.3,224.1,349.2,223,350.6,223.9z"/>
	<path class="st2" d="M333,233c0,10.3,0.1,21.3,0.1,32.3c0,1.4-1.2,2.6-2.6,2.6h-0.2c-1.4,0-2.6-1.2-2.6-2.6v-26.1
		c0-1.4-1.7-2.2-2.7-1.2l-3.4,3c-0.7,0.6-1.1,1.5-1.1,2.4c0,4.2,0,16.6-0.1,22c0,1.4-1.2,2.6-2.6,2.6h-0.2c-1.4,0-2.6-1.1-2.6-2.6
		c0-3.6-0.1-10.2-0.1-15.2c0-1.4-1.7-2.2-2.8-1.2c-3.5,3.1-4.4,3.8-6.2,5.7c0.2,1,0.9,0,1.4,0.8v5c-12.9-2.4-13.9,7.9-13.4,18.9
		c0.1,1.7,1.4,3,3.1,3h40.5c1.5,0,2.7-1.2,2.7-2.7v-50.4c0-1.7-2-2.5-3.2-1.4c-1,0.9-2,1.8-3,2.6C333.4,231.1,333,232,333,233z
		 M303.1,267.6c-0.8-2.3,3.7-3.1,4.2-1.1C307.5,269,304.1,269.1,303.1,267.6z"/>
	<path class="st2" d="M169.3,286.4c1.6,0,2.8,1.3,2.8,2.8c0,1.6-1.2,2.8-2.8,2.8c-1.6,0-2.9-1.2-2.9-2.8
		C166.4,287.7,167.7,286.4,169.3,286.4"/>
	<path class="st2" d="M261.4,225.1c0.8,0.5,1.5,0.9,2.4,1.3c1.5,0.7,2.1,2.6,1.2,3.9c-0.3,0.4-0.5,0.9-0.6,1.5v37.1
		c2.7,0.6,4.2,0,5.3-0.9c1.2-0.9,2.9-0.3,3.2,1.1c0.7,2.5,1.7,5,2.5,7.4c1,2.9-1.2,5.9-4.2,5.9h-11.4c-1.8,0-3.3-1.5-3.3-3.3V228
		C256.4,225.4,259.2,223.8,261.4,225.1z"/>
</g>
</svg>
