<svg version="1.1" id="Layer_1" xmlns="http://www.w3.org/2000/svg" x="0" y="0" viewBox="0 0 512 512" xml:space="preserve"><style>.st2{fill:#449d71}</style><path fill="#ce1126" d="M0 88.3h512v112H0z"/><path fill="#fff" d="M0 200h512v112H0z"/><path d="M0 311.7h512v112H0z"/><path class="st2" d="M308.1 233.5c-.9-.5-2-2.2-1.7-3 .4-.8-.2-.7 1.7-.2 3.4.9 5.6.5 7.8-1.4l1.9-1.5 2.3 1.1c1.2.6 2.5 1 2.9.9 1-.2 3.1-2.8 3-3.7 0-1.2.8-.9 1.3.4.9 2.4-.8 6.6-3.1 7.2-1.1.3-2.2.2-4-.3-2.1-.8-2.4-.8-3.5 0-2.3 1.9-5.7 2.1-8.6.5M316.9 224.2c-1.1-1.6-2.5-7.1-2.1-8.5.4-1.2.8-1.5 1.9-1.1 1.9.7 2.4 1.9 2.2 6.5-.4 3.3-.9 4.4-2 3.1M241 248.7c-4.7 2.6-11.6 3.1-11.6 10.4-10.1.4-22.1.8-32.9.6 2.9-3.8 21.4-20.9 29.1-27.6 1.3-1.1 1.7-3.3 1-4.8l-.2-.4c-1.1-2.3-4.1-2.8-6-1.1-7.7 7.3-15.2 14.2-16.5 15.3-9.9 10-12.8 12.9-14.4 14.5-1.1 1.1-1.7 2.6-1.7 4.2v.1c0 3.3 2.7 5.9 5.9 5.9h43.4c2.5 0-.6-8.5 2.6-8.5 2.2 0 2.4 3.1 2.3 6.3-.1 2.5-2.1 4.4-4.6 4.4-18.8 0-38.3.2-56.7.2-1.5 0-2.7-1.2-2.7-2.7v-3.3c0-2.8-3.1-4.4-5.5-2.9-.1.1-.2.1-.3.2-1.2.8-1.9 2.3-1.4 3.6.3.9.4 2 .5 3.1 0 1.5-1.2 2.7-2.7 2.8-6.1.2-12.7.2-14.6-3.3-1.1-2-3.3-3-5.4-2l-.3.1c-2.1 1.1-3 3.7-1.8 5.8 2.2 4 4.3 8.6 3.2 15.1-.9 2-2.5 3.3-4.3 4.5-2 1.3-.7 4.3 1.6 3.8 5.6-1 9.4-5.4 10.6-10.6H244c3.2 0 5.7-2.6 5.7-5.7v-18.8c-.3-5.6-6.3-5.4-8.7-9.2zM350.6 223.9c1.3.8 2.6 1.6 4 2.3 1.6.7 2.2 2.6 1.2 4.1-.2.4-.4.8-.6 1.3v37.2c2.5.5 4 0 5.2-.8 1.3-.9 3.1-.2 3.5 1.3.9 3.3 2.3 6.5 3.1 9.4.5 1.8-.9 3.6-2.8 3.6h-14.6c-1.3 0-2.3-1-2.3-2.3v-54.3c0-1.6 1.9-2.7 3.3-1.8zM333 233c0 10.3.1 21.3.1 32.3 0 1.4-1.2 2.6-2.6 2.6h-.2c-1.4 0-2.6-1.2-2.6-2.6v-26.1c0-1.4-1.7-2.2-2.7-1.2l-3.4 3c-.7.6-1.1 1.5-1.1 2.4 0 4.2 0 16.6-.1 22 0 1.4-1.2 2.6-2.6 2.6h-.2c-1.4 0-2.6-1.1-2.6-2.6 0-3.6-.1-10.2-.1-15.2 0-1.4-1.7-2.2-2.8-1.2-3.5 3.1-4.4 3.8-6.2 5.7.2 1 .9 0 1.4.8v5c-12.9-2.4-13.9 7.9-13.4 18.9.1 1.7 1.4 3 3.1 3h40.5c1.5 0 2.7-1.2 2.7-2.7v-50.4c0-1.7-2-2.5-3.2-1.4-1 .9-2 1.8-3 2.6-.6.6-1 1.5-1 2.5zm-29.9 34.6c-.8-2.3 3.7-3.1 4.2-1.1.2 2.5-3.2 2.6-4.2 1.1z"/><path class="st2" d="M169.3 286.4c1.6 0 2.8 1.3 2.8 2.8 0 1.6-1.2 2.8-2.8 2.8-1.6 0-2.9-1.2-2.9-2.8 0-1.5 1.3-2.8 2.9-2.8M261.4 225.1c.8.5 1.5.9 2.4 1.3 1.5.7 2.1 2.6 1.2 3.9-.3.4-.5.9-.6 1.5v37.1c2.7.6 4.2 0 5.3-.9 1.2-.9 2.9-.3 3.2 1.1.7 2.5 1.7 5 2.5 7.4 1 2.9-1.2 5.9-4.2 5.9h-11.4c-1.8 0-3.3-1.5-3.3-3.3V228c-.1-2.6 2.7-4.2 4.9-2.9z"/></svg>