<svg version="1.1" id="Layer_1" xmlns="http://www.w3.org/2000/svg" x="0" y="0" viewBox="0 0 512 512" xml:space="preserve"><style>.st1{fill:#da0000}.st2{fill:#fff}</style><path fill="#239f40" d="M0 88.3h512v110H0z"/><path class="st1" d="M0 314.3h512v110H0z"/><path class="st2" d="M0 200.1h512v111.8H0zM1.4 194.2c.8 0 1.5-.6 1.5-1.4v-3c0-.8.6-1.4 1.4-1.4h5.8c.8 0 1.4.6 1.4 1.4v3c0 .8.6 1.4 1.4 1.4h11.5c.8 0 1.4-.6 1.4-1.4v-5.9c0-.8-.6-1.4-1.4-1.4h-5.8c-.8 0-1.4.6-1.4 1.4v.2c0 .8.6 1.4 1.4 1.4h2.9c.8 0 1.4.6 1.4 1.4v.2c0 .8-.6 1.4-1.4 1.4h-5.8c-.8 0-1.4-.6-1.4-1.4V187c0-.8-.6-1.4-1.4-1.4H1.4c-.8 0-1.4.6-1.4 1.4v5.9c0 .7.6 1.3 1.4 1.3zm5.7 0c.8 0 1.5-.6 1.5-1.4v-.1c0-.8-.6-1.4-1.4-1.4h-.1c-.8 0-1.4.6-1.4 1.4v.1c0 .8.7 1.4 1.4 1.4zm-5.7-11.7h34.4c.8 0 1.4-.6 1.4-1.4v-.1c0-.8-.6-1.4-1.4-1.4H1.4c-.8 0-1.4.6-1.4 1.4v.2c0 .7.6 1.3 1.4 1.3zm34.4 11.7H30c-.8 0-1.4-.6-1.4-1.4v-5.9c0-.8.6-1.4 1.4-1.4h8.6c.8 0 1.4-.6 1.4-1.4V181c0-.8.6-1.4 1.4-1.4h.1c.8 0 1.4.6 1.4 1.4v8.9c0 .8.6 1.4 1.4 1.4h.1c.8 0 1.4-.6 1.4-1.4V181c0-.8.6-1.4 1.4-1.4h.1c.8 0 1.4.6 1.4 1.4v8.9c0 .8.6 1.4 1.4 1.4h.1c.8 0 1.4-.6 1.4-1.4V181c0-.8.6-1.4 1.4-1.4.8 0 1.4.6 1.4 1.4v11.8c0 .8-.6 1.4-1.4 1.4H41.4c-.8 0-1.4-.6-1.4-1.4v-3c0-.8-.6-1.4-1.4-1.4h-5.8c-.8 0-1.4.6-1.4 1.4v.2c0 .8.6 1.4 1.4 1.4h2.9c.8 0 1.4.6 1.4 1.4v.1c.1.7-.5 1.3-1.3 1.3zM58.6 194.2h.1c.8 0 1.4-.6 1.4-1.4v-3c0-.8.6-1.4 1.4-1.4h5.8c.8 0 1.4.6 1.4 1.4v3c0 .8.6 1.4 1.4 1.4h11.5c.8 0 1.4-.6 1.4-1.4v-5.9c0-.8-.6-1.4-1.4-1.4h-5.8c-.8 0-1.4.6-1.4 1.4v.2c0 .8.6 1.4 1.4 1.4h2.9c.8 0 1.4.6 1.4 1.4v.2c0 .8-.6 1.4-1.4 1.4h-5.8c-.8 0-1.4-.6-1.4-1.4V187c0-.8-.6-1.4-1.4-1.4H58.6c-.8 0-1.4.6-1.4 1.4v5.9c0 .7.7 1.3 1.4 1.3zm5.7 0c.8 0 1.5-.6 1.5-1.4v-.1c0-.8-.6-1.4-1.4-1.4h-.1c-.8 0-1.4.6-1.4 1.4v.1c0 .8.7 1.4 1.4 1.4zm-5.7-11.7H93c.8 0 1.4-.6 1.4-1.4v-.1c0-.8-.6-1.4-1.4-1.4H58.6c-.8 0-1.4.6-1.4 1.4v.2c0 .7.7 1.3 1.4 1.3zM93 194.2h-5.8c-.8 0-1.4-.6-1.4-1.4v-5.9c0-.8.6-1.4 1.4-1.4h8.6c.8 0 1.4-.6 1.4-1.4V181c0-.8.6-1.4 1.4-1.4h.1c.8 0 1.4.6 1.4 1.4v8.9c0 .8.6 1.4 1.4 1.4h.1c.8 0 1.4-.6 1.4-1.4V181c0-.8.6-1.4 1.4-1.4.8 0 1.4.6 1.4 1.4v8.9c0 .8.6 1.4 1.4 1.4h.1c.8 0 1.4-.6 1.4-1.4V181c0-.8.6-1.4 1.4-1.4h.1c.8 0 1.4.6 1.4 1.4v11.8c0 .8-.6 1.4-1.4 1.4H98.6c-.8 0-1.4-.6-1.4-1.4v-3c0-.8-.6-1.4-1.4-1.4H90c-.8 0-1.4.6-1.4 1.4v.2c0 .8.6 1.4 1.4 1.4h3c.8 0 1.4.6 1.4 1.4v.1c0 .7-.6 1.3-1.4 1.3zM115.8 194.2c.8 0 1.5-.6 1.5-1.4v-3c0-.8.6-1.4 1.4-1.4h5.8c.8 0 1.4.6 1.4 1.4v3c0 .8.6 1.4 1.4 1.4h11.5c.8 0 1.4-.6 1.4-1.4v-5.9c0-.8-.6-1.4-1.4-1.4H133c-.8 0-1.4.6-1.4 1.4v.2c0 .8.6 1.4 1.4 1.4h2.9c.8 0 1.4.6 1.4 1.4v.2c0 .8-.6 1.4-1.4 1.4h-5.8c-.8 0-1.4-.6-1.4-1.4V187c0-.8-.6-1.4-1.4-1.4h-11.5c-.8 0-1.4.6-1.4 1.4v5.9c0 .7.6 1.3 1.4 1.3zm5.7 0c.8 0 1.5-.6 1.5-1.4v-.1c0-.8-.6-1.4-1.4-1.4h-.1c-.8 0-1.4.6-1.4 1.4v.1c0 .8.7 1.4 1.4 1.4zm-5.7-11.7h34.4c.8 0 1.4-.6 1.4-1.4v-.1c0-.8-.6-1.4-1.4-1.4h-34.4c-.8 0-1.4.6-1.4 1.4v.2c0 .7.6 1.3 1.4 1.3zm34.4 11.7h-5.8c-.8 0-1.4-.6-1.4-1.4v-5.9c0-.8.6-1.4 1.4-1.4h8.6c.8 0 1.4-.6 1.4-1.4V181c0-.8.6-1.4 1.4-1.4h.1c.8 0 1.4.6 1.4 1.4v8.9c0 .8.6 1.4 1.4 1.4h.1c.8 0 1.4-.6 1.4-1.4V181c0-.8.6-1.4 1.4-1.4h.1c.8 0 1.4.6 1.4 1.4v8.9c0 .8.6 1.4 1.4 1.4.8 0 1.4-.6 1.4-1.4V181c0-.8.6-1.4 1.4-1.4h.1c.8 0 1.4.6 1.4 1.4v11.8c0 .8-.6 1.4-1.4 1.4h-11.5c-.8 0-1.4-.6-1.4-1.4v-3c0-.8-.6-1.4-1.4-1.4h-5.8c-.8 0-1.4.6-1.4 1.4v.2c0 .8.6 1.4 1.4 1.4h3c.8 0 1.4.6 1.4 1.4v.1c-.1.7-.7 1.3-1.5 1.3zM173 194.2c.8 0 1.5-.6 1.5-1.4v-3c0-.8.6-1.4 1.4-1.4h5.8c.8 0 1.4.6 1.4 1.4v3c0 .8.6 1.4 1.4 1.4H196c.8 0 1.4-.6 1.4-1.4v-5.9c0-.8-.6-1.4-1.4-1.4h-5.8c-.8 0-1.4.6-1.4 1.4v.2c0 .8.6 1.4 1.4 1.4h2.9c.8 0 1.4.6 1.4 1.4v.2c0 .8-.6 1.4-1.4 1.4h-5.8c-.8 0-1.4-.6-1.4-1.4V187c0-.8-.6-1.4-1.4-1.4H173c-.8 0-1.4.6-1.4 1.4v5.9c0 .7.6 1.3 1.4 1.3zm5.7 0c.8 0 1.5-.6 1.5-1.4v-.1c0-.8-.6-1.4-1.4-1.4h-.1c-.8 0-1.4.6-1.4 1.4v.1c0 .8.7 1.4 1.4 1.4zm-5.7-11.7h34.4c.8 0 1.4-.6 1.4-1.4v-.1c0-.8-.6-1.4-1.4-1.4H173c-.8 0-1.4.6-1.4 1.4v.2c0 .7.6 1.3 1.4 1.3zm34.4 11.7h-5.8c-.8 0-1.4-.6-1.4-1.4v-5.9c0-.8.6-1.4 1.4-1.4h8.7c.8 0 1.4-.6 1.4-1.4V181c0-.8.6-1.4 1.4-1.4h.1c.8 0 1.4.6 1.4 1.4v8.9c0 .8.6 1.4 1.4 1.4.8 0 1.4-.6 1.4-1.4V181c0-.8.6-1.4 1.4-1.4h.1c.8 0 1.4.6 1.4 1.4v8.9c0 .8.6 1.4 1.4 1.4h.1c.8 0 1.4-.6 1.4-1.4V181c0-.8.6-1.4 1.4-1.4h.1c.8 0 1.4.6 1.4 1.4v11.8c0 .8-.6 1.4-1.4 1.4h-11.5c-.8 0-1.4-.6-1.4-1.4v-3c0-.8-.6-1.4-1.4-1.4h-5.8c-.8 0-1.4.6-1.4 1.4v.2c0 .8.6 1.4 1.4 1.4h2.9c.8 0 1.4.6 1.4 1.4v.1c-.1.7-.7 1.3-1.5 1.3zM230.2 194.2c.8 0 1.5-.6 1.5-1.4v-3c0-.8.6-1.4 1.4-1.4h5.8c.8 0 1.4.6 1.4 1.4v3c0 .8.6 1.4 1.4 1.4h11.5c.8 0 1.4-.6 1.4-1.4v-5.9c0-.8-.6-1.4-1.4-1.4h-5.8c-.8 0-1.4.6-1.4 1.4v.2c0 .8.6 1.4 1.4 1.4h3c.8 0 1.4.6 1.4 1.4v.2c0 .8-.6 1.4-1.4 1.4h-5.8c-.8 0-1.4-.6-1.4-1.4V187c0-.8-.6-1.4-1.4-1.4h-11.5c-.8 0-1.4.6-1.4 1.4v5.9c-.1.7.5 1.3 1.3 1.3zm5.7 0c.8 0 1.4-.6 1.4-1.4v-.1c0-.8-.6-1.4-1.4-1.4-.8 0-1.4.6-1.4 1.4v.1c.1.8.7 1.4 1.4 1.4zm-5.7-11.7h34.4c.8 0 1.4-.6 1.4-1.4v-.1c0-.8-.6-1.4-1.4-1.4h-34.4c-.8 0-1.4.6-1.4 1.4v.2c0 .7.6 1.3 1.4 1.3zm34.4 11.7h-5.8c-.8 0-1.4-.6-1.4-1.4v-5.9c0-.8.6-1.4 1.4-1.4h8.7c.8 0 1.4-.6 1.4-1.4V181c0-.8.6-1.4 1.4-1.4h.1c.8 0 1.4.6 1.4 1.4v8.9c0 .8.6 1.4 1.4 1.4h.1c.8 0 1.4-.6 1.4-1.4V181c0-.8.6-1.4 1.4-1.4h.1c.8 0 1.4.6 1.4 1.4v8.9c0 .8.6 1.4 1.4 1.4h.1c.8 0 1.4-.6 1.4-1.4V181c0-.8.6-1.4 1.4-1.4h.1c.8 0 1.4.6 1.4 1.4v11.8c0 .8-.6 1.4-1.4 1.4h-11.5c-.8 0-1.4-.6-1.4-1.4v-3c0-.8-.6-1.4-1.4-1.4h-5.8c-.8 0-1.4.6-1.4 1.4v.2c0 .8.6 1.4 1.4 1.4h3c.8 0 1.4.6 1.4 1.4v.1c-.3.7-.9 1.3-1.7 1.3zM287.4 194.2c.8 0 1.5-.6 1.5-1.4v-3c0-.8.6-1.4 1.4-1.4h5.8c.8 0 1.4.6 1.4 1.4v3c0 .8.6 1.4 1.4 1.4h11.5c.8 0 1.4-.6 1.4-1.4v-5.9c0-.8-.6-1.4-1.4-1.4h-5.8c-.8 0-1.4.6-1.4 1.4v.2c0 .8.6 1.4 1.4 1.4h2.9c.8 0 1.4.6 1.4 1.4v.2c0 .8-.6 1.4-1.4 1.4h-5.8c-.8 0-1.4-.6-1.4-1.4V187c0-.8-.6-1.4-1.4-1.4h-11.5c-.8 0-1.4.6-1.4 1.4v5.9c0 .7.6 1.3 1.4 1.3zm5.7 0c.8 0 1.4-.6 1.4-1.4v-.1c0-.8-.6-1.4-1.4-1.4-.8 0-1.4.6-1.4 1.4v.1c.1.8.7 1.4 1.4 1.4zm-5.7-11.7h34.4c.8 0 1.4-.6 1.4-1.4v-.1c0-.8-.6-1.4-1.4-1.4h-34.4c-.8 0-1.4.6-1.4 1.4v.2c0 .7.6 1.3 1.4 1.3zm34.4 11.7H316c-.8 0-1.4-.6-1.4-1.4v-5.9c0-.8.6-1.4 1.4-1.4h8.6c.8 0 1.4-.6 1.4-1.4V181c0-.8.6-1.4 1.4-1.4h.1c.8 0 1.4.6 1.4 1.4v8.9c0 .8.6 1.4 1.4 1.4h.1c.8 0 1.4-.6 1.4-1.4V181c0-.8.6-1.4 1.4-1.4h.1c.8 0 1.4.6 1.4 1.4v8.9c0 .8.6 1.4 1.4 1.4h.1c.8 0 1.4-.6 1.4-1.4V181c0-.8.6-1.4 1.4-1.4h.1c.8 0 1.4.6 1.4 1.4v11.8c0 .8-.6 1.4-1.4 1.4h-11.5c-.8 0-1.4-.6-1.4-1.4v-3c0-.8-.6-1.4-1.4-1.4H319c-.8 0-1.4.6-1.4 1.4v.2c0 .8.6 1.4 1.4 1.4h3c.8 0 1.4.6 1.4 1.4v.1c-.2.7-.8 1.3-1.6 1.3zM344.6 194.2c.8 0 1.5-.6 1.5-1.4v-3c0-.8.6-1.4 1.4-1.4h5.8c.8 0 1.4.6 1.4 1.4v3c0 .8.6 1.4 1.4 1.4h11.5c.8 0 1.4-.6 1.4-1.4v-5.9c0-.8-.6-1.4-1.4-1.4h-5.8c-.8 0-1.4.6-1.4 1.4v.2c0 .8.6 1.4 1.4 1.4h3c.8 0 1.4.6 1.4 1.4v.2c0 .8-.6 1.4-1.4 1.4h-5.9c-.8 0-1.4-.6-1.4-1.4V187c0-.8-.6-1.4-1.4-1.4h-11.5c-.8 0-1.4.6-1.4 1.4v5.9c0 .7.6 1.3 1.4 1.3zm5.7 0h.1c.8 0 1.4-.6 1.4-1.4v-.1c0-.8-.6-1.4-1.4-1.4h-.1c-.8 0-1.4.6-1.4 1.4v.1c0 .8.6 1.4 1.4 1.4zm-5.7-11.7H379c.8 0 1.4-.6 1.4-1.4v-.1c0-.8-.6-1.4-1.4-1.4h-34.4c-.8 0-1.4.6-1.4 1.4v.2c0 .7.6 1.3 1.4 1.3zm34.4 11.7h-5.8c-.8 0-1.4-.6-1.4-1.4v-5.9c0-.8.6-1.4 1.4-1.4h8.6c.8 0 1.4-.6 1.4-1.4V181c0-.8.6-1.4 1.4-1.4h.1c.8 0 1.4.6 1.4 1.4v8.9c0 .8.6 1.4 1.4 1.4h.1c.8 0 1.4-.6 1.4-1.4V181c0-.8.6-1.4 1.4-1.4h.1c.8 0 1.4.6 1.4 1.4v8.9c0 .8.6 1.4 1.4 1.4h.1c.8 0 1.4-.6 1.4-1.4V181c0-.8.6-1.4 1.4-1.4.8 0 1.4.6 1.4 1.4v11.8c0 .8-.6 1.4-1.4 1.4h-11.5c-.8 0-1.4-.6-1.4-1.4v-3c0-.8-.6-1.4-1.4-1.4h-5.8c-.8 0-1.4.6-1.4 1.4v.2c0 .8.6 1.4 1.4 1.4h2.9c.8 0 1.4.6 1.4 1.4v.1c0 .7-.6 1.3-1.4 1.3zM401.8 194.2c.8 0 1.4-.6 1.4-1.4v-3c0-.8.6-1.4 1.4-1.4h5.8c.8 0 1.4.6 1.4 1.4v3c0 .8.6 1.4 1.4 1.4h11.5c.8 0 1.4-.6 1.4-1.4v-5.9c0-.8-.6-1.4-1.4-1.4H419c-.8 0-1.4.6-1.4 1.4v.2c0 .8.6 1.4 1.4 1.4h2.9c.8 0 1.4.6 1.4 1.4v.2c0 .8-.6 1.4-1.4 1.4h-5.8c-.8 0-1.4-.6-1.4-1.4V187c0-.8-.6-1.4-1.4-1.4h-11.5c-.8 0-1.4.6-1.4 1.4v5.9c0 .7.7 1.3 1.4 1.3zm5.7 0c.8 0 1.5-.6 1.5-1.4v-.1c0-.8-.6-1.4-1.4-1.4h-.1c-.8 0-1.4.6-1.4 1.4v.1c0 .8.7 1.4 1.4 1.4zm-5.7-11.7h34.5c.8 0 1.4-.6 1.4-1.4v-.1c0-.8-.6-1.4-1.4-1.4h-34.5c-.8 0-1.4.6-1.4 1.4v.2c0 .7.7 1.3 1.4 1.3zm34.5 11.7h-5.9c-.8 0-1.4-.6-1.4-1.4v-5.9c0-.8.6-1.4 1.4-1.4h8.6c.8 0 1.4-.6 1.4-1.4V181c0-.8.6-1.4 1.4-1.4h.1c.8 0 1.4.6 1.4 1.4v8.9c0 .8.6 1.4 1.4 1.4h.1c.8 0 1.4-.6 1.4-1.4V181c0-.8.6-1.4 1.4-1.4.8 0 1.4.6 1.4 1.4v8.9c0 .8.6 1.4 1.4 1.4h.1c.8 0 1.4-.6 1.4-1.4V181c0-.8.6-1.4 1.4-1.4h.1c.8 0 1.4.6 1.4 1.4v11.8c0 .8-.6 1.4-1.4 1.4h-11.5c-.8 0-1.4-.6-1.4-1.4v-3c0-.8-.6-1.4-1.4-1.4h-5.8c-.8 0-1.4.6-1.4 1.4v.2c0 .8.6 1.4 1.4 1.4h3c.8 0 1.4.6 1.4 1.4v.1c0 .7-.7 1.3-1.4 1.3zM459 194.2c.8 0 1.5-.6 1.5-1.4v-3c0-.8.6-1.4 1.4-1.4h5.8c.8 0 1.4.6 1.4 1.4v3c0 .8.6 1.4 1.4 1.4H482c.8 0 1.4-.6 1.4-1.4v-5.9c0-.8-.6-1.4-1.4-1.4h-5.8c-.8 0-1.4.6-1.4 1.4v.2c0 .8.6 1.4 1.4 1.4h2.9c.8 0 1.4.6 1.4 1.4v.2c0 .8-.6 1.4-1.4 1.4h-5.9c-.8 0-1.4-.6-1.4-1.4V187c0-.8-.6-1.4-1.4-1.4H459c-.8 0-1.4.6-1.4 1.4v5.9c0 .7.6 1.3 1.4 1.3zm5.7 0c.8 0 1.5-.6 1.5-1.4v-.1c0-.8-.6-1.4-1.4-1.4h-.1c-.8 0-1.4.6-1.4 1.4v.1c0 .8.7 1.4 1.4 1.4zm-5.7-11.7h34.4c.8 0 1.4-.6 1.4-1.4v-.1c0-.8-.6-1.4-1.4-1.4H459c-.8 0-1.4.6-1.4 1.4v.2c0 .7.6 1.3 1.4 1.3zm34.4 11.7h-5.8c-.8 0-1.4-.6-1.4-1.4v-5.9c0-.8.6-1.4 1.4-1.4h8.7c.8 0 1.4-.6 1.4-1.4V181c0-.8.6-1.4 1.4-1.4.8 0 1.4.6 1.4 1.4v8.9c0 .8.6 1.4 1.4 1.4h.2c.8 0 1.4-.6 1.4-1.4V181c0-.8.6-1.4 1.4-1.4.8 0 1.4.6 1.4 1.4v8.9c0 .8.6 1.4 1.4 1.4h.1c.8 0 1.4-.6 1.4-1.4V181c0-.8.6-1.4 1.4-1.4h.2c.8 0 1.4.6 1.4 1.4v11.8c0 .8-.6 1.4-1.4 1.4h-11.5c-.8 0-1.4-.6-1.4-1.4v-3c0-.8-.6-1.4-1.4-1.4h-5.9c-.8 0-1.4.6-1.4 1.4v.2c0 .8.6 1.4 1.4 1.4h2.9c.8 0 1.4.6 1.4 1.4v.1c-.1.7-.7 1.3-1.5 1.3z"/><path class="st2" d="M1.4 203h23c.8 0 1.4-.6 1.4-1.4v-3.1c0-.8-.6-1.4-1.4-1.4h-23c-.8 0-1.4.6-1.4 1.4v3.1c0 .8.6 1.4 1.4 1.4zm28.6 0h22.9c.8 0 1.4-.6 1.4-1.4v-3.1c0-.8-.6-1.4-1.4-1.4H30c-.8 0-1.4.6-1.4 1.4v3.1c0 .8.7 1.4 1.4 1.4zM58.6 203h22.9c.8 0 1.4-.6 1.4-1.4v-3.1c0-.8-.6-1.4-1.4-1.4H58.6c-.8 0-1.4.6-1.4 1.4v3.1c0 .8.7 1.4 1.4 1.4zm28.6 0h23c.8 0 1.4-.6 1.4-1.4v-3.1c0-.8-.6-1.4-1.4-1.4h-23c-.8 0-1.4.6-1.4 1.4v3.1c0 .8.6 1.4 1.4 1.4zM115.8 203h23c.8 0 1.4-.6 1.4-1.4v-3.1c0-.8-.6-1.4-1.4-1.4h-23c-.8 0-1.4.6-1.4 1.4v3.1c0 .8.6 1.4 1.4 1.4zm28.6 0h23c.8 0 1.4-.6 1.4-1.4v-3.1c0-.8-.6-1.4-1.4-1.4h-23c-.8 0-1.4.6-1.4 1.4v3.1c0 .8.6 1.4 1.4 1.4zM173 203h23c.8 0 1.4-.6 1.4-1.4v-3.1c0-.8-.6-1.4-1.4-1.4h-23c-.8 0-1.4.6-1.4 1.4v3.1c0 .8.6 1.4 1.4 1.4zm28.6 0h23c.8 0 1.4-.6 1.4-1.4v-3.1c0-.8-.6-1.4-1.4-1.4h-23c-.8 0-1.4.6-1.4 1.4v3.1c0 .8.6 1.4 1.4 1.4zM230.2 203h23c.8 0 1.4-.6 1.4-1.4v-3.1c0-.8-.6-1.4-1.4-1.4h-23c-.8 0-1.4.6-1.4 1.4v3.1c0 .8.6 1.4 1.4 1.4zm28.6 0h23c.8 0 1.4-.6 1.4-1.4v-3.1c0-.8-.6-1.4-1.4-1.4h-23c-.8 0-1.4.6-1.4 1.4v3.1c0 .8.6 1.4 1.4 1.4zM287.4 203h23c.8 0 1.4-.6 1.4-1.4v-3.1c0-.8-.6-1.4-1.4-1.4h-23c-.8 0-1.4.6-1.4 1.4v3.1c0 .8.6 1.4 1.4 1.4zm28.6 0h23c.8 0 1.4-.6 1.4-1.4v-3.1c0-.8-.6-1.4-1.4-1.4h-23c-.8 0-1.4.6-1.4 1.4v3.1c0 .8.7 1.4 1.4 1.4zM344.6 203h23c.8 0 1.4-.6 1.4-1.4v-3.1c0-.8-.6-1.4-1.4-1.4h-23c-.8 0-1.4.6-1.4 1.4v3.1c0 .8.6 1.4 1.4 1.4zm28.6 0h22.9c.8 0 1.4-.6 1.4-1.4v-3.1c0-.8-.6-1.4-1.4-1.4h-22.9c-.8 0-1.4.6-1.4 1.4v3.1c0 .8.7 1.4 1.4 1.4zM401.8 203h22.9c.8 0 1.4-.6 1.4-1.4v-3.1c0-.8-.6-1.4-1.4-1.4h-22.9c-.8 0-1.4.6-1.4 1.4v3.1c0 .8.7 1.4 1.4 1.4zm28.6 0h23c.8 0 1.4-.6 1.4-1.4v-3.1c0-.8-.6-1.4-1.4-1.4h-23c-.8 0-1.4.6-1.4 1.4v3.1c0 .8.6 1.4 1.4 1.4zM459 203h23c.8 0 1.4-.6 1.4-1.4v-3.1c0-.8-.6-1.4-1.4-1.4h-23c-.8 0-1.4.6-1.4 1.4v3.1c0 .8.6 1.4 1.4 1.4zm28.6 0h23c.8 0 1.4-.6 1.4-1.4v-3.1c0-.8-.6-1.4-1.4-1.4h-23c-.8 0-1.4.6-1.4 1.4v3.1c0 .8.6 1.4 1.4 1.4zM510.6 317.8c-.8 0-1.5.6-1.5 1.4v3c0 .8-.6 1.4-1.4 1.4h-5.8c-.8 0-1.4-.6-1.4-1.4v-3c0-.8-.6-1.4-1.4-1.4h-11.5c-.8 0-1.4.6-1.4 1.4v5.9c0 .8.6 1.4 1.4 1.4h5.8c.8 0 1.4-.6 1.4-1.4v-.1c0-.8-.6-1.4-1.4-1.4h-2.9c-.8 0-1.4-.6-1.4-1.4v-.2c0-.8.6-1.4 1.4-1.4h5.8c.8 0 1.4.6 1.4 1.4v3.1c0 .8.6 1.4 1.4 1.4h11.5c.8 0 1.4-.6 1.4-1.4v-5.9c0-.8-.6-1.4-1.4-1.4zm-5.7 0c-.8 0-1.5.6-1.5 1.4v.1c0 .8.6 1.4 1.4 1.4h.1c.8 0 1.4-.6 1.4-1.4v-.1c0-.8-.7-1.4-1.4-1.4zm5.7 11.7h-34.4c-.8 0-1.4.6-1.4 1.4v.2c0 .8.6 1.4 1.4 1.4h34.4c.8 0 1.4-.6 1.4-1.4v-.2c0-.8-.6-1.4-1.4-1.4zm-34.4-11.7h5.8c.8 0 1.4.6 1.4 1.4v5.9c0 .8-.6 1.4-1.4 1.4h-8.6c-.8 0-1.4.6-1.4 1.4v3.1c0 .8-.6 1.4-1.4 1.4h-.1c-.8 0-1.4-.6-1.4-1.4v-8.9c0-.8-.6-1.4-1.4-1.4h-.1c-.8 0-1.4.6-1.4 1.4v8.9c0 .8-.6 1.4-1.4 1.4h-.1c-.8 0-1.4-.6-1.4-1.4v-8.9c0-.8-.6-1.4-1.4-1.4h-.1c-.8 0-1.4.6-1.4 1.4v8.9c0 .8-.6 1.4-1.4 1.4-.8 0-1.4-.6-1.4-1.4v-11.8c0-.8.6-1.4 1.4-1.4h11.5c.8 0 1.4.6 1.4 1.4v3c0 .8.6 1.4 1.4 1.4h5.8c.8 0 1.4-.6 1.4-1.4v-.2c0-.8-.6-1.4-1.4-1.4h-2.9c-.8 0-1.4-.6-1.4-1.4v-.1c0-.7.6-1.3 1.4-1.3zM453.4 317.8h-.1c-.8 0-1.4.6-1.4 1.4v3c0 .8-.6 1.4-1.4 1.4h-5.8c-.8 0-1.4-.6-1.4-1.4v-3c0-.8-.6-1.4-1.4-1.4h-11.5c-.8 0-1.4.6-1.4 1.4v5.9c0 .8.6 1.4 1.4 1.4h5.8c.8 0 1.4-.6 1.4-1.4v-.1c0-.8-.6-1.4-1.4-1.4h-2.9c-.8 0-1.4-.6-1.4-1.4v-.2c0-.8.6-1.4 1.4-1.4h5.8c.8 0 1.4.6 1.4 1.4v3.1c0 .8.6 1.4 1.4 1.4h11.5c.8 0 1.4-.6 1.4-1.4v-5.9c0-.8-.7-1.4-1.4-1.4zm-5.7 0c-.8 0-1.5.6-1.5 1.4v.1c0 .8.6 1.4 1.4 1.4h.1c.8 0 1.4-.6 1.4-1.4v-.1c0-.8-.7-1.4-1.4-1.4zm5.7 11.7H419c-.8 0-1.4.6-1.4 1.4v.2c0 .8.6 1.4 1.4 1.4h34.4c.8 0 1.4-.6 1.4-1.4v-.2c0-.8-.7-1.4-1.4-1.4zM419 317.8h5.8c.8 0 1.4.6 1.4 1.4v5.9c0 .8-.6 1.4-1.4 1.4h-8.6c-.8 0-1.4.6-1.4 1.4v3.1c0 .8-.6 1.4-1.4 1.4h-.1c-.8 0-1.4-.6-1.4-1.4v-8.9c0-.8-.6-1.4-1.4-1.4h-.1c-.8 0-1.4.6-1.4 1.4v8.9c0 .8-.6 1.4-1.4 1.4-.8 0-1.4-.6-1.4-1.4v-8.9c0-.8-.6-1.4-1.4-1.4h-.1c-.8 0-1.4.6-1.4 1.4v8.9c0 .8-.6 1.4-1.4 1.4h-.1c-.8 0-1.4-.6-1.4-1.4v-11.8c0-.8.6-1.4 1.4-1.4h11.6c.8 0 1.4.6 1.4 1.4v3c0 .8.6 1.4 1.4 1.4h5.8c.8 0 1.4-.6 1.4-1.4v-.2c0-.8-.6-1.4-1.4-1.4h-3c-.8 0-1.4-.6-1.4-1.4v-.1c0-.7.6-1.3 1.4-1.3zM396.2 317.8c-.8 0-1.5.6-1.5 1.4v3c0 .8-.6 1.4-1.4 1.4h-5.8c-.8 0-1.4-.6-1.4-1.4v-3c0-.8-.6-1.4-1.4-1.4h-11.5c-.8 0-1.4.6-1.4 1.4v5.9c0 .8.6 1.4 1.4 1.4h5.8c.8 0 1.4-.6 1.4-1.4v-.1c0-.8-.6-1.4-1.4-1.4h-2.9c-.8 0-1.4-.6-1.4-1.4v-.2c0-.8.6-1.4 1.4-1.4h5.8c.8 0 1.4.6 1.4 1.4v3.1c0 .8.6 1.4 1.4 1.4h11.5c.8 0 1.4-.6 1.4-1.4v-5.9c0-.8-.6-1.4-1.4-1.4zm-5.7 0c-.8 0-1.5.6-1.5 1.4v.1c0 .8.6 1.4 1.4 1.4h.1c.8 0 1.4-.6 1.4-1.4v-.1c0-.8-.7-1.4-1.4-1.4zm5.7 11.7h-34.4c-.8 0-1.4.6-1.4 1.4v.2c0 .8.6 1.4 1.4 1.4h34.4c.8 0 1.4-.6 1.4-1.4v-.2c0-.8-.6-1.4-1.4-1.4zm-34.4-11.7h5.8c.8 0 1.4.6 1.4 1.4v5.9c0 .8-.6 1.4-1.4 1.4H359c-.8 0-1.4.6-1.4 1.4v3.1c0 .8-.6 1.4-1.4 1.4h-.1c-.8 0-1.4-.6-1.4-1.4v-8.9c0-.8-.6-1.4-1.4-1.4h-.1c-.8 0-1.4.6-1.4 1.4v8.9c0 .8-.6 1.4-1.4 1.4h-.1c-.8 0-1.4-.6-1.4-1.4v-8.9c0-.8-.6-1.4-1.4-1.4-.8 0-1.4.6-1.4 1.4v8.9c0 .8-.6 1.4-1.4 1.4h-.1c-.8 0-1.4-.6-1.4-1.4v-11.8c0-.8.6-1.4 1.4-1.4h11.5c.8 0 1.4.6 1.4 1.4v3c0 .8.6 1.4 1.4 1.4h5.8c.8 0 1.4-.6 1.4-1.4v-.2c0-.8-.6-1.4-1.4-1.4h-3c-.8 0-1.4-.6-1.4-1.4v-.1c.1-.7.7-1.3 1.5-1.3zM339 317.8c-.8 0-1.5.6-1.5 1.4v3c0 .8-.6 1.4-1.4 1.4h-5.8c-.8 0-1.4-.6-1.4-1.4v-3c0-.8-.6-1.4-1.4-1.4H316c-.8 0-1.4.6-1.4 1.4v5.9c0 .8.6 1.4 1.4 1.4h5.8c.8 0 1.4-.6 1.4-1.4v-.1c0-.8-.6-1.4-1.4-1.4h-2.9c-.8 0-1.4-.6-1.4-1.4v-.2c0-.8.6-1.4 1.4-1.4h5.8c.8 0 1.4.6 1.4 1.4v3.1c0 .8.6 1.4 1.4 1.4H339c.8 0 1.4-.6 1.4-1.4v-5.9c0-.8-.6-1.4-1.4-1.4zm-5.7 0c-.8 0-1.5.6-1.5 1.4v.1c0 .8.6 1.4 1.4 1.4h.1c.8 0 1.4-.6 1.4-1.4v-.1c0-.8-.7-1.4-1.4-1.4zm5.7 11.7h-34.4c-.8 0-1.4.6-1.4 1.4v.2c0 .8.6 1.4 1.4 1.4H339c.8 0 1.4-.6 1.4-1.4v-.2c0-.8-.6-1.4-1.4-1.4zm-34.4-11.7h5.8c.8 0 1.4.6 1.4 1.4v5.9c0 .8-.6 1.4-1.4 1.4h-8.7c-.8 0-1.4.6-1.4 1.4v3.1c0 .8-.6 1.4-1.4 1.4h-.1c-.8 0-1.4-.6-1.4-1.4v-8.9c0-.8-.6-1.4-1.4-1.4-.8 0-1.4.6-1.4 1.4v8.9c0 .8-.6 1.4-1.4 1.4h-.1c-.8 0-1.4-.6-1.4-1.4v-8.9c0-.8-.6-1.4-1.4-1.4h-.1c-.8 0-1.4.6-1.4 1.4v8.9c0 .8-.6 1.4-1.4 1.4h-.1c-.8 0-1.4-.6-1.4-1.4v-11.8c0-.8.6-1.4 1.4-1.4h11.5c.8 0 1.4.6 1.4 1.4v3c0 .8.6 1.4 1.4 1.4h5.8c.8 0 1.4-.6 1.4-1.4v-.2c0-.8-.6-1.4-1.4-1.4h-2.9c-.8 0-1.4-.6-1.4-1.4v-.1c.1-.7.7-1.3 1.5-1.3zM281.8 317.8c-.8 0-1.5.6-1.5 1.4v3c0 .8-.6 1.4-1.4 1.4h-5.8c-.8 0-1.4-.6-1.4-1.4v-3c0-.8-.6-1.4-1.4-1.4h-11.5c-.8 0-1.4.6-1.4 1.4v5.9c0 .8.6 1.4 1.4 1.4h5.8c.8 0 1.4-.6 1.4-1.4v-.1c0-.8-.6-1.4-1.4-1.4h-3c-.8 0-1.4-.6-1.4-1.4v-.2c0-.8.6-1.4 1.4-1.4h5.8c.8 0 1.4.6 1.4 1.4v3.1c0 .8.6 1.4 1.4 1.4h11.5c.8 0 1.4-.6 1.4-1.4v-5.9c.1-.8-.5-1.4-1.3-1.4zm-5.8 0c-.8 0-1.4.6-1.4 1.4v.1c0 .8.6 1.4 1.4 1.4.8 0 1.4-.6 1.4-1.4v-.1c0-.8-.6-1.4-1.4-1.4zm5.8 11.7h-34.4c-.8 0-1.4.6-1.4 1.4v.2c0 .8.6 1.4 1.4 1.4h34.4c.8 0 1.4-.6 1.4-1.4v-.2c0-.8-.6-1.4-1.4-1.4zm-34.4-11.7h5.8c.8 0 1.4.6 1.4 1.4v5.9c0 .8-.6 1.4-1.4 1.4h-8.7c-.8 0-1.4.6-1.4 1.4v3.1c0 .8-.6 1.4-1.4 1.4h-.1c-.8 0-1.4-.6-1.4-1.4v-8.9c0-.8-.6-1.4-1.4-1.4h-.1c-.8 0-1.4.6-1.4 1.4v8.9c0 .8-.6 1.4-1.4 1.4h-.1c-.8 0-1.4-.6-1.4-1.4v-8.9c0-.8-.6-1.4-1.4-1.4h-.1c-.8 0-1.4.6-1.4 1.4v8.9c0 .8-.6 1.4-1.4 1.4h-.1c-.8 0-1.4-.6-1.4-1.4v-11.8c0-.8.6-1.4 1.4-1.4h11.5c.8 0 1.4.6 1.4 1.4v3c0 .8.6 1.4 1.4 1.4h5.8c.8 0 1.4-.6 1.4-1.4v-.2c0-.8-.6-1.4-1.4-1.4h-3c-.8 0-1.4-.6-1.4-1.4v-.1c.3-.7.9-1.3 1.7-1.3zM224.6 317.8c-.8 0-1.5.6-1.5 1.4v3c0 .8-.6 1.4-1.4 1.4H216c-.8 0-1.4-.6-1.4-1.4v-3c0-.8-.6-1.4-1.4-1.4h-11.5c-.8 0-1.4.6-1.4 1.4v5.9c0 .8.6 1.4 1.4 1.4h5.8c.8 0 1.4-.6 1.4-1.4v-.1c0-.8-.6-1.4-1.4-1.4h-2.9c-.8 0-1.4-.6-1.4-1.4v-.2c0-.8.6-1.4 1.4-1.4h5.8c.8 0 1.4.6 1.4 1.4v3.1c0 .8.6 1.4 1.4 1.4h11.5c.8 0 1.4-.6 1.4-1.4v-5.9c-.1-.8-.7-1.4-1.5-1.4zm-5.7 0c-.8 0-1.4.6-1.4 1.4v.1c0 .8.6 1.4 1.4 1.4.8 0 1.4-.6 1.4-1.4v-.1c-.1-.8-.7-1.4-1.4-1.4zm5.7 11.7h-34.4c-.8 0-1.4.6-1.4 1.4v.2c0 .8.6 1.4 1.4 1.4h34.4c.8 0 1.4-.6 1.4-1.4v-.2c0-.8-.6-1.4-1.4-1.4zm-34.4-11.7h5.8c.8 0 1.4.6 1.4 1.4v5.9c0 .8-.6 1.4-1.4 1.4h-8.6c-.8 0-1.4.6-1.4 1.4v3.1c0 .8-.6 1.4-1.4 1.4h-.1c-.8 0-1.4-.6-1.4-1.4v-8.9c0-.8-.6-1.4-1.4-1.4h-.1c-.8 0-1.4.6-1.4 1.4v8.9c0 .8-.6 1.4-1.4 1.4h-.1c-.8 0-1.4-.6-1.4-1.4v-8.9c0-.8-.6-1.4-1.4-1.4h-.1c-.8 0-1.4.6-1.4 1.4v8.9c0 .8-.6 1.4-1.4 1.4-.8 0-1.4-.6-1.4-1.4v-11.8c0-.8.6-1.4 1.4-1.4h11.5c.8 0 1.4.6 1.4 1.4v3c0 .8.6 1.4 1.4 1.4h5.8c.8 0 1.4-.6 1.4-1.4v-.2c0-.8-.6-1.4-1.4-1.4h-3c-.8 0-1.4-.6-1.4-1.4v-.1c.1-.7.7-1.3 1.5-1.3zM167.4 317.8c-.8 0-1.5.6-1.5 1.4v3c0 .8-.6 1.4-1.4 1.4h-5.8c-.8 0-1.4-.6-1.4-1.4v-3c0-.8-.6-1.4-1.4-1.4h-11.5c-.8 0-1.4.6-1.4 1.4v5.9c0 .8.6 1.4 1.4 1.4h5.8c.8 0 1.4-.6 1.4-1.4v-.1c0-.8-.6-1.4-1.4-1.4h-3c-.8 0-1.4-.6-1.4-1.4v-.2c0-.8.6-1.4 1.4-1.4h5.9c.8 0 1.4.6 1.4 1.4v3.1c0 .8.6 1.4 1.4 1.4h11.5c.8 0 1.4-.6 1.4-1.4v-5.9c0-.8-.6-1.4-1.4-1.4zm-5.7 0h-.1c-.8 0-1.4.6-1.4 1.4v.1c0 .8.6 1.4 1.4 1.4h.1c.8 0 1.4-.6 1.4-1.4v-.1c0-.8-.6-1.4-1.4-1.4zm5.7 11.7H133c-.8 0-1.4.6-1.4 1.4v.2c0 .8.6 1.4 1.4 1.4h34.4c.8 0 1.4-.6 1.4-1.4v-.2c0-.8-.6-1.4-1.4-1.4zM133 317.8h5.8c.8 0 1.4.6 1.4 1.4v5.9c0 .8-.6 1.4-1.4 1.4h-8.6c-.8 0-1.4.6-1.4 1.4v3.1c0 .8-.6 1.4-1.4 1.4h-.1c-.8 0-1.4-.6-1.4-1.4v-8.9c0-.8-.6-1.4-1.4-1.4h-.1c-.8 0-1.4.6-1.4 1.4v8.9c0 .8-.6 1.4-1.4 1.4h-.1c-.8 0-1.4-.6-1.4-1.4v-8.9c0-.8-.6-1.4-1.4-1.4h-.1c-.8 0-1.4.6-1.4 1.4v8.9c0 .8-.6 1.4-1.4 1.4-.8 0-1.4-.6-1.4-1.4v-11.8c0-.8.6-1.4 1.4-1.4h11.5c.8 0 1.4.6 1.4 1.4v3c0 .8.6 1.4 1.4 1.4h5.8c.8 0 1.4-.6 1.4-1.4v-.2c0-.8-.6-1.4-1.4-1.4H133c-.8 0-1.4-.6-1.4-1.4v-.1c0-.7.6-1.3 1.4-1.3zM110.2 317.8c-.8 0-1.4.6-1.4 1.4v3c0 .8-.6 1.4-1.4 1.4h-5.8c-.8 0-1.4-.6-1.4-1.4v-3c0-.8-.6-1.4-1.4-1.4H87.3c-.8 0-1.4.6-1.4 1.4v5.9c0 .8.6 1.4 1.4 1.4H93c.8 0 1.4-.6 1.4-1.4v-.1c0-.8-.6-1.4-1.4-1.4h-2.9c-.8 0-1.4-.6-1.4-1.4v-.2c0-.8.6-1.4 1.4-1.4h5.8c.8 0 1.4.6 1.4 1.4v3.1c0 .8.6 1.4 1.4 1.4h11.5c.8 0 1.4-.6 1.4-1.4v-5.9c0-.8-.7-1.4-1.4-1.4zm-5.7 0c-.8 0-1.5.6-1.5 1.4v.1c0 .8.6 1.4 1.4 1.4h.1c.8 0 1.4-.6 1.4-1.4v-.1c0-.8-.7-1.4-1.4-1.4zm5.7 11.7H75.7c-.8 0-1.4.6-1.4 1.4v.2c0 .8.6 1.4 1.4 1.4h34.5c.8 0 1.4-.6 1.4-1.4v-.2c0-.8-.7-1.4-1.4-1.4zm-34.5-11.7h5.9c.8 0 1.4.6 1.4 1.4v5.9c0 .8-.6 1.4-1.4 1.4H73c-.8 0-1.4.6-1.4 1.4v3.1c0 .8-.6 1.4-1.4 1.4H70c-.8 0-1.4-.6-1.4-1.4v-8.9c0-.8-.6-1.4-1.4-1.4h-.1c-.8 0-1.4.6-1.4 1.4v8.9c0 .8-.6 1.4-1.4 1.4-.8 0-1.4-.6-1.4-1.4v-8.9c0-.8-.6-1.4-1.4-1.4h-.1c-.8 0-1.4.6-1.4 1.4v8.9c0 .8-.6 1.4-1.4 1.4h-.1c-.8 0-1.4-.6-1.4-1.4v-11.8c0-.8.6-1.4 1.4-1.4H70c.8 0 1.4.6 1.4 1.4v3c0 .8.6 1.4 1.4 1.4h5.8c.8 0 1.4-.6 1.4-1.4v-.2c0-.8-.6-1.4-1.4-1.4h-3c-.8 0-1.4-.6-1.4-1.4v-.1c.1-.7.8-1.3 1.5-1.3zM53 317.8c-.8 0-1.5.6-1.5 1.4v3c0 .8-.6 1.4-1.4 1.4h-5.8c-.8 0-1.4-.6-1.4-1.4v-3c0-.8-.6-1.4-1.4-1.4H30c-.8 0-1.4.6-1.4 1.4v5.9c0 .8.6 1.4 1.4 1.4h5.8c.8 0 1.4-.6 1.4-1.4v-.1c0-.8-.6-1.4-1.4-1.4h-2.9c-.8 0-1.4-.6-1.4-1.4v-.2c0-.8.6-1.4 1.4-1.4h5.9c.8 0 1.4.6 1.4 1.4v3.1c0 .8.6 1.4 1.4 1.4H53c.8 0 1.4-.6 1.4-1.4v-5.9c0-.8-.6-1.4-1.4-1.4zm-5.7 0c-.8 0-1.5.6-1.5 1.4v.1c0 .8.6 1.4 1.4 1.4h.1c.8 0 1.4-.6 1.4-1.4v-.1c0-.8-.7-1.4-1.4-1.4zm5.7 11.7H18.6c-.8 0-1.4.6-1.4 1.4v.2c0 .8.6 1.4 1.4 1.4H53c.8 0 1.4-.6 1.4-1.4v-.2c0-.8-.6-1.4-1.4-1.4zm-34.4-11.7h5.8c.8 0 1.4.6 1.4 1.4v5.9c0 .8-.6 1.4-1.4 1.4h-8.7c-.8 0-1.4.6-1.4 1.4v3.1c0 .8-.6 1.4-1.4 1.4-.8 0-1.4-.6-1.4-1.4v-8.9c0-.8-.6-1.4-1.4-1.4H10c-.8 0-1.4.6-1.4 1.4v8.9c0 .8-.6 1.4-1.4 1.4-.8 0-1.4-.6-1.4-1.4v-8.9c0-.8-.6-1.4-1.4-1.4h-.1c-.8 0-1.4.6-1.4 1.4v8.9c0 .8-.6 1.4-1.4 1.4h-.1c-.8 0-1.4-.6-1.4-1.4v-11.8c0-.8.6-1.4 1.4-1.4h11.5c.8 0 1.4.6 1.4 1.4v3c0 .8.6 1.4 1.4 1.4h5.9c.8 0 1.4-.6 1.4-1.4v-.2c0-.8-.6-1.4-1.4-1.4h-2.9c-.8 0-1.4-.6-1.4-1.4v-.1c-.1-.7.5-1.3 1.3-1.3zM510.6 309h-23c-.8 0-1.4.6-1.4 1.4v3.1c0 .8.6 1.4 1.4 1.4h23c.8 0 1.4-.6 1.4-1.4v-3.1c0-.8-.6-1.4-1.4-1.4zm-28.6 0h-22.9c-.8 0-1.4.6-1.4 1.4v3.1c0 .8.6 1.4 1.4 1.4H482c.8 0 1.4-.6 1.4-1.4v-3.1c0-.8-.7-1.4-1.4-1.4zM453.4 309h-22.9c-.8 0-1.4.6-1.4 1.4v3.1c0 .8.6 1.4 1.4 1.4h22.9c.8 0 1.4-.6 1.4-1.4v-3.1c0-.8-.7-1.4-1.4-1.4zm-28.6 0h-23c-.8 0-1.4.6-1.4 1.4v3.1c0 .8.6 1.4 1.4 1.4h23c.8 0 1.4-.6 1.4-1.4v-3.1c0-.8-.6-1.4-1.4-1.4zM396.2 309h-23c-.8 0-1.4.6-1.4 1.4v3.1c0 .8.6 1.4 1.4 1.4h23c.8 0 1.4-.6 1.4-1.4v-3.1c0-.8-.6-1.4-1.4-1.4zm-28.6 0h-23c-.8 0-1.4.6-1.4 1.4v3.1c0 .8.6 1.4 1.4 1.4h23c.8 0 1.4-.6 1.4-1.4v-3.1c0-.8-.6-1.4-1.4-1.4zM339 309h-23c-.8 0-1.4.6-1.4 1.4v3.1c0 .8.6 1.4 1.4 1.4h23c.8 0 1.4-.6 1.4-1.4v-3.1c0-.8-.6-1.4-1.4-1.4zm-28.6 0h-23c-.8 0-1.4.6-1.4 1.4v3.1c0 .8.6 1.4 1.4 1.4h23c.8 0 1.4-.6 1.4-1.4v-3.1c0-.8-.6-1.4-1.4-1.4zM281.8 309h-23c-.8 0-1.4.6-1.4 1.4v3.1c0 .8.6 1.4 1.4 1.4h23c.8 0 1.4-.6 1.4-1.4v-3.1c0-.8-.6-1.4-1.4-1.4zm-28.6 0h-23c-.8 0-1.4.6-1.4 1.4v3.1c0 .8.6 1.4 1.4 1.4h23c.8 0 1.4-.6 1.4-1.4v-3.1c0-.8-.6-1.4-1.4-1.4zM224.6 309h-23c-.8 0-1.4.6-1.4 1.4v3.1c0 .8.6 1.4 1.4 1.4h23c.8 0 1.4-.6 1.4-1.4v-3.1c0-.8-.6-1.4-1.4-1.4zm-28.6 0h-23c-.8 0-1.4.6-1.4 1.4v3.1c0 .8.6 1.4 1.4 1.4h23c.8 0 1.4-.6 1.4-1.4v-3.1c0-.8-.7-1.4-1.4-1.4zM167.4 309h-23c-.8 0-1.4.6-1.4 1.4v3.1c0 .8.6 1.4 1.4 1.4h23c.8 0 1.4-.6 1.4-1.4v-3.1c0-.8-.6-1.4-1.4-1.4zm-28.6 0h-22.9c-.8 0-1.4.6-1.4 1.4v3.1c0 .8.6 1.4 1.4 1.4h22.9c.8 0 1.4-.6 1.4-1.4v-3.1c0-.8-.7-1.4-1.4-1.4zM110.2 309H87.3c-.8 0-1.4.6-1.4 1.4v3.1c0 .8.6 1.4 1.4 1.4h22.9c.8 0 1.4-.6 1.4-1.4v-3.1c0-.8-.7-1.4-1.4-1.4zm-28.6 0h-23c-.8 0-1.4.6-1.4 1.4v3.1c0 .8.6 1.4 1.4 1.4h23c.8 0 1.4-.6 1.4-1.4v-3.1c0-.8-.7-1.4-1.4-1.4zM53 309H30c-.8 0-1.4.6-1.4 1.4v3.1c0 .8.6 1.4 1.4 1.4h23c.8 0 1.4-.6 1.4-1.4v-3.1c0-.8-.6-1.4-1.4-1.4zm-28.6 0h-23c-.8 0-1.4.6-1.4 1.4v3.1c0 .8.6 1.4 1.4 1.4h23c.8 0 1.4-.6 1.4-1.4v-3.1c0-.8-.6-1.4-1.4-1.4z"/><g><path class="st1" d="M248.7 214.3c2.6.7 5.4-.1 7.3-2 2.9 2.9 7.6 3 10.7.1 2-1.9 2.8-4.8 2.1-7.3-2.5 4.1-7.9 5.4-12 2.9-.2-.1-.5-.3-.7-.4-3.9 2.9-9.4 2.1-12.3-1.7-.1-.2-.3-.5-.5-.7-1.1 3.9 1.4 8.1 5.4 9.1zM265 295.9c9.4-5.2 17.2-13.3 21.5-24 7.3-18.3 2.7-39-11.3-52.4-.5-.5-1.2.2-.9.7 13.8 22.5 8.4 52.1-13 68.3l1-65.4c0-.9-.4-1.7-1.1-2.3l-3.5-2.8c-1.1-.9-2.6-.9-3.6 0l-3.4 2.8c-.7.6-1.1 1.4-1.1 2.3l1 65.4c-21.4-16.2-26.8-45.8-13-68.3.3-.6-.4-1.2-.9-.7-14 13.4-18.6 34.1-11.3 52.4 4.3 10.7 12.1 18.8 21.5 24-6 2-12.3 3.1-18.6 3-.7 0-.8.9-.2 1.1a48.6 48.6 0 0024.2.9l3.1 5.9c.2.4.8.4 1 0l3.1-5.9c7.8 1.7 16.1 1.6 24.2-.9.6-.2.5-1.1-.2-1.1-6.3.1-12.5-1-18.5-3z"/><path class="st1" d="M303.2 235.1c-4.8-9-12.8-15.8-22.3-19.1-.6-.2-1.1.6-.6 1 21 17.3 25.2 48 9 70.3-.8 1.1-1.7 2.3-2.6 3.3 19.9-10.7 27.2-35.6 16.5-55.5zM222.8 287.3c-16.2-22.3-12-53 8.9-70.3.5-.4 0-1.2-.6-1-9.5 3.3-17.4 10.1-22.2 19.1-10.8 19.9-3.4 44.8 16.6 55.4-1-.9-1.9-2.1-2.7-3.2z"/></g></svg>