<?xml version="1.0" encoding="utf-8"?>
<!-- Generator: Adobe Illustrator 25.0.0, SVG Export Plug-In . SVG Version: 6.00 Build 0)  -->
<svg version="1.1" id="Layer_1" xmlns="http://www.w3.org/2000/svg" xmlns:xlink="http://www.w3.org/1999/xlink" x="0px" y="0px"
	 viewBox="0 0 512 512" style="enable-background:new 0 0 512 512;" xml:space="preserve">
<style type="text/css">
	.st0{fill:#239F40;}
	.st1{fill:#DA0000;}
	.st2{fill:#FFFFFF;}
</style>
<rect y="88.3" class="st0" width="512" height="110"/>
<rect y="314.3" class="st1" width="512" height="110"/>
<g>
	<rect y="200.1" class="st2" width="512" height="111.8"/>
	<path class="st2" d="M1.4,194.2L1.4,194.2c0.8,0,1.5-0.6,1.5-1.4v-3c0-0.8,0.6-1.4,1.4-1.4h5.8c0.8,0,1.4,0.6,1.4,1.4v3
		c0,0.8,0.6,1.4,1.4,1.4h11.5c0.8,0,1.4-0.6,1.4-1.4v-5.9c0-0.8-0.6-1.4-1.4-1.4h-5.8c-0.8,0-1.4,0.6-1.4,1.4v0.2
		c0,0.8,0.6,1.4,1.4,1.4h2.9c0.8,0,1.4,0.6,1.4,1.4v0.2c0,0.8-0.6,1.4-1.4,1.4h-5.8c-0.8,0-1.4-0.6-1.4-1.4v-3.1
		c0-0.8-0.6-1.4-1.4-1.4H1.4c-0.8,0-1.4,0.6-1.4,1.4v5.9C0,193.6,0.6,194.2,1.4,194.2z M7.1,194.2L7.1,194.2c0.8,0,1.5-0.6,1.5-1.4
		v-0.1c0-0.8-0.6-1.4-1.4-1.4H7.1c-0.8,0-1.4,0.6-1.4,1.4v0.1C5.7,193.6,6.4,194.2,7.1,194.2z M1.4,182.5h34.4
		c0.8,0,1.4-0.6,1.4-1.4V181c0-0.8-0.6-1.4-1.4-1.4H1.4c-0.8,0-1.4,0.6-1.4,1.4v0.2C0,181.9,0.6,182.5,1.4,182.5z M35.8,194.2H30
		c-0.8,0-1.4-0.6-1.4-1.4v-5.9c0-0.8,0.6-1.4,1.4-1.4h8.6c0.8,0,1.4-0.6,1.4-1.4V181c0-0.8,0.6-1.4,1.4-1.4h0.1
		c0.8,0,1.4,0.6,1.4,1.4v8.9c0,0.8,0.6,1.4,1.4,1.4h0.1c0.8,0,1.4-0.6,1.4-1.4V181c0-0.8,0.6-1.4,1.4-1.4h0.1c0.8,0,1.4,0.6,1.4,1.4
		v8.9c0,0.8,0.6,1.4,1.4,1.4h0.1c0.8,0,1.4-0.6,1.4-1.4V181c0-0.8,0.6-1.4,1.4-1.4h0c0.8,0,1.4,0.6,1.4,1.4v11.8
		c0,0.8-0.6,1.4-1.4,1.4H41.4c-0.8,0-1.4-0.6-1.4-1.4v-3c0-0.8-0.6-1.4-1.4-1.4h-5.8c-0.8,0-1.4,0.6-1.4,1.4v0.2
		c0,0.8,0.6,1.4,1.4,1.4h2.9c0.8,0,1.4,0.6,1.4,1.4v0.1C37.2,193.6,36.6,194.2,35.8,194.2z"/>
	<path class="st2" d="M58.6,194.2h0.1c0.8,0,1.4-0.6,1.4-1.4v-3c0-0.8,0.6-1.4,1.4-1.4h5.8c0.8,0,1.4,0.6,1.4,1.4v3
		c0,0.8,0.6,1.4,1.4,1.4h11.5c0.8,0,1.4-0.6,1.4-1.4v-5.9c0-0.8-0.6-1.4-1.4-1.4h-5.8c-0.8,0-1.4,0.6-1.4,1.4v0.2
		c0,0.8,0.6,1.4,1.4,1.4h2.9c0.8,0,1.4,0.6,1.4,1.4v0.2c0,0.8-0.6,1.4-1.4,1.4h-5.8c-0.8,0-1.4-0.6-1.4-1.4v-3.1
		c0-0.8-0.6-1.4-1.4-1.4H58.6c-0.8,0-1.4,0.6-1.4,1.4v5.9C57.2,193.6,57.9,194.2,58.6,194.2z M64.3,194.2L64.3,194.2
		c0.8,0,1.5-0.6,1.5-1.4v-0.1c0-0.8-0.6-1.4-1.4-1.4h-0.1c-0.8,0-1.4,0.6-1.4,1.4v0.1C62.9,193.6,63.6,194.2,64.3,194.2z
		 M58.6,182.5H93c0.8,0,1.4-0.6,1.4-1.4V181c0-0.8-0.6-1.4-1.4-1.4H58.6c-0.8,0-1.4,0.6-1.4,1.4v0.2
		C57.2,181.9,57.9,182.5,58.6,182.5z M93,194.2h-5.8c-0.8,0-1.4-0.6-1.4-1.4v-5.9c0-0.8,0.6-1.4,1.4-1.4h8.6c0.8,0,1.4-0.6,1.4-1.4
		V181c0-0.8,0.6-1.4,1.4-1.4h0.1c0.8,0,1.4,0.6,1.4,1.4v8.9c0,0.8,0.6,1.4,1.4,1.4h0.1c0.8,0,1.4-0.6,1.4-1.4V181
		c0-0.8,0.6-1.4,1.4-1.4h0c0.8,0,1.4,0.6,1.4,1.4v8.9c0,0.8,0.6,1.4,1.4,1.4h0.1c0.8,0,1.4-0.6,1.4-1.4V181c0-0.8,0.6-1.4,1.4-1.4
		h0.1c0.8,0,1.4,0.6,1.4,1.4v11.8c0,0.8-0.6,1.4-1.4,1.4H98.6c-0.8,0-1.4-0.6-1.4-1.4v-3c0-0.8-0.6-1.4-1.4-1.4h-5.8
		c-0.8,0-1.4,0.6-1.4,1.4v0.2c0,0.8,0.6,1.4,1.4,1.4H93c0.8,0,1.4,0.6,1.4,1.4v0.1C94.4,193.6,93.8,194.2,93,194.2z"/>
	<path class="st2" d="M115.8,194.2L115.8,194.2c0.8,0,1.5-0.6,1.5-1.4v-3c0-0.8,0.6-1.4,1.4-1.4h5.8c0.8,0,1.4,0.6,1.4,1.4v3
		c0,0.8,0.6,1.4,1.4,1.4h11.5c0.8,0,1.4-0.6,1.4-1.4v-5.9c0-0.8-0.6-1.4-1.4-1.4H133c-0.8,0-1.4,0.6-1.4,1.4v0.2
		c0,0.8,0.6,1.4,1.4,1.4h2.9c0.8,0,1.4,0.6,1.4,1.4v0.2c0,0.8-0.6,1.4-1.4,1.4h-5.8c-0.8,0-1.4-0.6-1.4-1.4v-3.1
		c0-0.8-0.6-1.4-1.4-1.4h-11.5c-0.8,0-1.4,0.6-1.4,1.4v5.9C114.4,193.6,115,194.2,115.8,194.2z M121.5,194.2L121.5,194.2
		c0.8,0,1.5-0.6,1.5-1.4v-0.1c0-0.8-0.6-1.4-1.4-1.4h-0.1c-0.8,0-1.4,0.6-1.4,1.4v0.1C120.1,193.6,120.8,194.2,121.5,194.2z
		 M115.8,182.5h34.4c0.8,0,1.4-0.6,1.4-1.4V181c0-0.8-0.6-1.4-1.4-1.4h-34.4c-0.8,0-1.4,0.6-1.4,1.4v0.2
		C114.4,181.9,115,182.5,115.8,182.5z M150.2,194.2h-5.8c-0.8,0-1.4-0.6-1.4-1.4v-5.9c0-0.8,0.6-1.4,1.4-1.4h8.6
		c0.8,0,1.4-0.6,1.4-1.4V181c0-0.8,0.6-1.4,1.4-1.4h0.1c0.8,0,1.4,0.6,1.4,1.4v8.9c0,0.8,0.6,1.4,1.4,1.4h0.1c0.8,0,1.4-0.6,1.4-1.4
		V181c0-0.8,0.6-1.4,1.4-1.4h0.1c0.8,0,1.4,0.6,1.4,1.4v8.9c0,0.8,0.6,1.4,1.4,1.4h0c0.8,0,1.4-0.6,1.4-1.4V181
		c0-0.8,0.6-1.4,1.4-1.4h0.1c0.8,0,1.4,0.6,1.4,1.4v11.8c0,0.8-0.6,1.4-1.4,1.4h-11.5c-0.8,0-1.4-0.6-1.4-1.4v-3
		c0-0.8-0.6-1.4-1.4-1.4h-5.8c-0.8,0-1.4,0.6-1.4,1.4v0.2c0,0.8,0.6,1.4,1.4,1.4h3c0.8,0,1.4,0.6,1.4,1.4v0.1
		C151.6,193.6,151,194.2,150.2,194.2z"/>
	<path class="st2" d="M173,194.2L173,194.2c0.8,0,1.5-0.6,1.5-1.4v-3c0-0.8,0.6-1.4,1.4-1.4h5.8c0.8,0,1.4,0.6,1.4,1.4v3
		c0,0.8,0.6,1.4,1.4,1.4H196c0.8,0,1.4-0.6,1.4-1.4v-5.9c0-0.8-0.6-1.4-1.4-1.4h-5.8c-0.8,0-1.4,0.6-1.4,1.4v0.2
		c0,0.8,0.6,1.4,1.4,1.4h2.9c0.8,0,1.4,0.6,1.4,1.4v0.2c0,0.8-0.6,1.4-1.4,1.4h-5.8c-0.8,0-1.4-0.6-1.4-1.4v-3.1
		c0-0.8-0.6-1.4-1.4-1.4H173c-0.8,0-1.4,0.6-1.4,1.4v5.9C171.6,193.6,172.2,194.2,173,194.2z M178.7,194.2L178.7,194.2
		c0.8,0,1.5-0.6,1.5-1.4v-0.1c0-0.8-0.6-1.4-1.4-1.4h-0.1c-0.8,0-1.4,0.6-1.4,1.4v0.1C177.3,193.6,178,194.2,178.7,194.2z
		 M173,182.5h34.4c0.8,0,1.4-0.6,1.4-1.4V181c0-0.8-0.6-1.4-1.4-1.4H173c-0.8,0-1.4,0.6-1.4,1.4v0.2
		C171.6,181.9,172.2,182.5,173,182.5z M207.4,194.2h-5.8c-0.8,0-1.4-0.6-1.4-1.4v-5.9c0-0.8,0.6-1.4,1.4-1.4h8.7
		c0.8,0,1.4-0.6,1.4-1.4V181c0-0.8,0.6-1.4,1.4-1.4h0.1c0.8,0,1.4,0.6,1.4,1.4v8.9c0,0.8,0.6,1.4,1.4,1.4h0c0.8,0,1.4-0.6,1.4-1.4
		V181c0-0.8,0.6-1.4,1.4-1.4h0.1c0.8,0,1.4,0.6,1.4,1.4v8.9c0,0.8,0.6,1.4,1.4,1.4h0.1c0.8,0,1.4-0.6,1.4-1.4V181
		c0-0.8,0.6-1.4,1.4-1.4h0.1c0.8,0,1.4,0.6,1.4,1.4v11.8c0,0.8-0.6,1.4-1.4,1.4h-11.5c-0.8,0-1.4-0.6-1.4-1.4v-3
		c0-0.8-0.6-1.4-1.4-1.4h-5.8c-0.8,0-1.4,0.6-1.4,1.4v0.2c0,0.8,0.6,1.4,1.4,1.4h2.9c0.8,0,1.4,0.6,1.4,1.4v0.1
		C208.8,193.6,208.2,194.2,207.4,194.2z"/>
	<path class="st2" d="M230.2,194.2L230.2,194.2c0.8,0,1.5-0.6,1.5-1.4v-3c0-0.8,0.6-1.4,1.4-1.4h5.8c0.8,0,1.4,0.6,1.4,1.4v3
		c0,0.8,0.6,1.4,1.4,1.4h11.5c0.8,0,1.4-0.6,1.4-1.4v-5.9c0-0.8-0.6-1.4-1.4-1.4h-5.8c-0.8,0-1.4,0.6-1.4,1.4v0.2
		c0,0.8,0.6,1.4,1.4,1.4h3c0.8,0,1.4,0.6,1.4,1.4v0.2c0,0.8-0.6,1.4-1.4,1.4h-5.8c-0.8,0-1.4-0.6-1.4-1.4v-3.1
		c0-0.8-0.6-1.4-1.4-1.4h-11.5c-0.8,0-1.4,0.6-1.4,1.4v5.9C228.8,193.6,229.4,194.2,230.2,194.2z M235.9,194.2L235.9,194.2
		c0.8,0,1.4-0.6,1.4-1.4v-0.1c0-0.8-0.6-1.4-1.4-1.4h0c-0.8,0-1.4,0.6-1.4,1.4v0.1C234.6,193.6,235.2,194.2,235.9,194.2z
		 M230.2,182.5h34.4c0.8,0,1.4-0.6,1.4-1.4V181c0-0.8-0.6-1.4-1.4-1.4h-34.4c-0.8,0-1.4,0.6-1.4,1.4v0.2
		C228.8,181.9,229.4,182.5,230.2,182.5z M264.6,194.2h-5.8c-0.8,0-1.4-0.6-1.4-1.4v-5.9c0-0.8,0.6-1.4,1.4-1.4h8.7
		c0.8,0,1.4-0.6,1.4-1.4V181c0-0.8,0.6-1.4,1.4-1.4h0.1c0.8,0,1.4,0.6,1.4,1.4v8.9c0,0.8,0.6,1.4,1.4,1.4h0.1c0.8,0,1.4-0.6,1.4-1.4
		V181c0-0.8,0.6-1.4,1.4-1.4h0.1c0.8,0,1.4,0.6,1.4,1.4v8.9c0,0.8,0.6,1.4,1.4,1.4h0.1c0.8,0,1.4-0.6,1.4-1.4V181
		c0-0.8,0.6-1.4,1.4-1.4h0.1c0.8,0,1.4,0.6,1.4,1.4v11.8c0,0.8-0.6,1.4-1.4,1.4h-11.5c-0.8,0-1.4-0.6-1.4-1.4v-3
		c0-0.8-0.6-1.4-1.4-1.4h-5.8c-0.8,0-1.4,0.6-1.4,1.4v0.2c0,0.8,0.6,1.4,1.4,1.4h3c0.8,0,1.4,0.6,1.4,1.4v0.1
		C266,193.6,265.4,194.2,264.6,194.2z"/>
	<path class="st2" d="M287.4,194.2L287.4,194.2c0.8,0,1.5-0.6,1.5-1.4v-3c0-0.8,0.6-1.4,1.4-1.4h5.8c0.8,0,1.4,0.6,1.4,1.4v3
		c0,0.8,0.6,1.4,1.4,1.4h11.5c0.8,0,1.4-0.6,1.4-1.4v-5.9c0-0.8-0.6-1.4-1.4-1.4h-5.8c-0.8,0-1.4,0.6-1.4,1.4v0.2
		c0,0.8,0.6,1.4,1.4,1.4h2.9c0.8,0,1.4,0.6,1.4,1.4v0.2c0,0.8-0.6,1.4-1.4,1.4h-5.8c-0.8,0-1.4-0.6-1.4-1.4v-3.1
		c0-0.8-0.6-1.4-1.4-1.4h-11.5c-0.8,0-1.4,0.6-1.4,1.4v5.9C286,193.6,286.6,194.2,287.4,194.2z M293.1,194.2L293.1,194.2
		c0.8,0,1.4-0.6,1.4-1.4v-0.1c0-0.8-0.6-1.4-1.4-1.4h0c-0.8,0-1.4,0.6-1.4,1.4v0.1C291.8,193.6,292.4,194.2,293.1,194.2z
		 M287.4,182.5h34.4c0.8,0,1.4-0.6,1.4-1.4V181c0-0.8-0.6-1.4-1.4-1.4h-34.4c-0.8,0-1.4,0.6-1.4,1.4v0.2
		C286,181.9,286.6,182.5,287.4,182.5z M321.8,194.2H316c-0.8,0-1.4-0.6-1.4-1.4v-5.9c0-0.8,0.6-1.4,1.4-1.4h8.6
		c0.8,0,1.4-0.6,1.4-1.4V181c0-0.8,0.6-1.4,1.4-1.4h0.1c0.8,0,1.4,0.6,1.4,1.4v8.9c0,0.8,0.6,1.4,1.4,1.4h0.1c0.8,0,1.4-0.6,1.4-1.4
		V181c0-0.8,0.6-1.4,1.4-1.4h0.1c0.8,0,1.4,0.6,1.4,1.4v8.9c0,0.8,0.6,1.4,1.4,1.4h0.1c0.8,0,1.4-0.6,1.4-1.4V181
		c0-0.8,0.6-1.4,1.4-1.4h0.1c0.8,0,1.4,0.6,1.4,1.4v11.8c0,0.8-0.6,1.4-1.4,1.4h-11.5c-0.8,0-1.4-0.6-1.4-1.4v-3
		c0-0.8-0.6-1.4-1.4-1.4h-5.8c-0.8,0-1.4,0.6-1.4,1.4v0.2c0,0.8,0.6,1.4,1.4,1.4h3c0.8,0,1.4,0.6,1.4,1.4v0.1
		C323.2,193.6,322.6,194.2,321.8,194.2z"/>
	<path class="st2" d="M344.6,194.2L344.6,194.2c0.8,0,1.5-0.6,1.5-1.4v-3c0-0.8,0.6-1.4,1.4-1.4h5.8c0.8,0,1.4,0.6,1.4,1.4v3
		c0,0.8,0.6,1.4,1.4,1.4h11.5c0.8,0,1.4-0.6,1.4-1.4v-5.9c0-0.8-0.6-1.4-1.4-1.4h-5.8c-0.8,0-1.4,0.6-1.4,1.4v0.2
		c0,0.8,0.6,1.4,1.4,1.4h3c0.8,0,1.4,0.6,1.4,1.4v0.2c0,0.8-0.6,1.4-1.4,1.4h-5.9c-0.8,0-1.4-0.6-1.4-1.4v-3.1
		c0-0.8-0.6-1.4-1.4-1.4h-11.5c-0.8,0-1.4,0.6-1.4,1.4v5.9C343.2,193.6,343.8,194.2,344.6,194.2z M350.3,194.2h0.1
		c0.8,0,1.4-0.6,1.4-1.4v-0.1c0-0.8-0.6-1.4-1.4-1.4h-0.1c-0.8,0-1.4,0.6-1.4,1.4v0.1C348.9,193.6,349.5,194.2,350.3,194.2z
		 M344.6,182.5H379c0.8,0,1.4-0.6,1.4-1.4V181c0-0.8-0.6-1.4-1.4-1.4h-34.4c-0.8,0-1.4,0.6-1.4,1.4v0.2
		C343.2,181.9,343.8,182.5,344.6,182.5z M379,194.2h-5.8c-0.8,0-1.4-0.6-1.4-1.4v-5.9c0-0.8,0.6-1.4,1.4-1.4h8.6
		c0.8,0,1.4-0.6,1.4-1.4V181c0-0.8,0.6-1.4,1.4-1.4h0.1c0.8,0,1.4,0.6,1.4,1.4v8.9c0,0.8,0.6,1.4,1.4,1.4h0.1c0.8,0,1.4-0.6,1.4-1.4
		V181c0-0.8,0.6-1.4,1.4-1.4h0.1c0.8,0,1.4,0.6,1.4,1.4v8.9c0,0.8,0.6,1.4,1.4,1.4h0.1c0.8,0,1.4-0.6,1.4-1.4V181
		c0-0.8,0.6-1.4,1.4-1.4h0c0.8,0,1.4,0.6,1.4,1.4v11.8c0,0.8-0.6,1.4-1.4,1.4h-11.5c-0.8,0-1.4-0.6-1.4-1.4v-3
		c0-0.8-0.6-1.4-1.4-1.4h-5.8c-0.8,0-1.4,0.6-1.4,1.4v0.2c0,0.8,0.6,1.4,1.4,1.4h2.9c0.8,0,1.4,0.6,1.4,1.4v0.1
		C380.4,193.6,379.8,194.2,379,194.2z"/>
	<path class="st2" d="M401.8,194.2L401.8,194.2c0.8,0,1.4-0.6,1.4-1.4v-3c0-0.8,0.6-1.4,1.4-1.4h5.8c0.8,0,1.4,0.6,1.4,1.4v3
		c0,0.8,0.6,1.4,1.4,1.4h11.5c0.8,0,1.4-0.6,1.4-1.4v-5.9c0-0.8-0.6-1.4-1.4-1.4H419c-0.8,0-1.4,0.6-1.4,1.4v0.2
		c0,0.8,0.6,1.4,1.4,1.4h2.9c0.8,0,1.4,0.6,1.4,1.4v0.2c0,0.8-0.6,1.4-1.4,1.4h-5.8c-0.8,0-1.4-0.6-1.4-1.4v-3.1
		c0-0.8-0.6-1.4-1.4-1.4h-11.5c-0.8,0-1.4,0.6-1.4,1.4v5.9C400.4,193.6,401.1,194.2,401.8,194.2z M407.5,194.2L407.5,194.2
		c0.8,0,1.5-0.6,1.5-1.4v-0.1c0-0.8-0.6-1.4-1.4-1.4h-0.1c-0.8,0-1.4,0.6-1.4,1.4v0.1C406.1,193.6,406.8,194.2,407.5,194.2z
		 M401.8,182.5h34.5c0.8,0,1.4-0.6,1.4-1.4V181c0-0.8-0.6-1.4-1.4-1.4h-34.5c-0.8,0-1.4,0.6-1.4,1.4v0.2
		C400.4,181.9,401.1,182.5,401.8,182.5z M436.3,194.2h-5.9c-0.8,0-1.4-0.6-1.4-1.4v-5.9c0-0.8,0.6-1.4,1.4-1.4h8.6
		c0.8,0,1.4-0.6,1.4-1.4V181c0-0.8,0.6-1.4,1.4-1.4h0.1c0.8,0,1.4,0.6,1.4,1.4v8.9c0,0.8,0.6,1.4,1.4,1.4h0.1c0.8,0,1.4-0.6,1.4-1.4
		V181c0-0.8,0.6-1.4,1.4-1.4h0c0.8,0,1.4,0.6,1.4,1.4v8.9c0,0.8,0.6,1.4,1.4,1.4h0.1c0.8,0,1.4-0.6,1.4-1.4V181
		c0-0.8,0.6-1.4,1.4-1.4h0.1c0.8,0,1.4,0.6,1.4,1.4v11.8c0,0.8-0.6,1.4-1.4,1.4h-11.5c-0.8,0-1.4-0.6-1.4-1.4v-3
		c0-0.8-0.6-1.4-1.4-1.4h-5.8c-0.8,0-1.4,0.6-1.4,1.4v0.2c0,0.8,0.6,1.4,1.4,1.4h3c0.8,0,1.4,0.6,1.4,1.4v0.1
		C437.7,193.6,437,194.2,436.3,194.2z"/>
	<path class="st2" d="M459,194.2L459,194.2c0.8,0,1.5-0.6,1.5-1.4v-3c0-0.8,0.6-1.4,1.4-1.4h5.8c0.8,0,1.4,0.6,1.4,1.4v3
		c0,0.8,0.6,1.4,1.4,1.4H482c0.8,0,1.4-0.6,1.4-1.4v-5.9c0-0.8-0.6-1.4-1.4-1.4h-5.8c-0.8,0-1.4,0.6-1.4,1.4v0.2
		c0,0.8,0.6,1.4,1.4,1.4h2.9c0.8,0,1.4,0.6,1.4,1.4v0.2c0,0.8-0.6,1.4-1.4,1.4h-5.9c-0.8,0-1.4-0.6-1.4-1.4v-3.1
		c0-0.8-0.6-1.4-1.4-1.4H459c-0.8,0-1.4,0.6-1.4,1.4v5.9C457.6,193.6,458.2,194.2,459,194.2z M464.7,194.2L464.7,194.2
		c0.8,0,1.5-0.6,1.5-1.4v-0.1c0-0.8-0.6-1.4-1.4-1.4h-0.1c-0.8,0-1.4,0.6-1.4,1.4v0.1C463.3,193.6,464,194.2,464.7,194.2z
		 M459,182.5h34.4c0.8,0,1.4-0.6,1.4-1.4V181c0-0.8-0.6-1.4-1.4-1.4H459c-0.8,0-1.4,0.6-1.4,1.4v0.2
		C457.6,181.9,458.2,182.5,459,182.5z M493.4,194.2h-5.8c-0.8,0-1.4-0.6-1.4-1.4v-5.9c0-0.8,0.6-1.4,1.4-1.4h8.7
		c0.8,0,1.4-0.6,1.4-1.4V181c0-0.8,0.6-1.4,1.4-1.4h0c0.8,0,1.4,0.6,1.4,1.4v8.9c0,0.8,0.6,1.4,1.4,1.4h0.2c0.8,0,1.4-0.6,1.4-1.4
		V181c0-0.8,0.6-1.4,1.4-1.4h0c0.8,0,1.4,0.6,1.4,1.4v8.9c0,0.8,0.6,1.4,1.4,1.4h0.1c0.8,0,1.4-0.6,1.4-1.4V181
		c0-0.8,0.6-1.4,1.4-1.4h0.2c0.8,0,1.4,0.6,1.4,1.4v11.8c0,0.8-0.6,1.4-1.4,1.4h-11.5c-0.8,0-1.4-0.6-1.4-1.4v-3
		c0-0.8-0.6-1.4-1.4-1.4h-5.9c-0.8,0-1.4,0.6-1.4,1.4v0.2c0,0.8,0.6,1.4,1.4,1.4h2.9c0.8,0,1.4,0.6,1.4,1.4v0.1
		C494.8,193.6,494.2,194.2,493.4,194.2z"/>
	<path class="st2" d="M1.4,203h23c0.8,0,1.4-0.6,1.4-1.4v-3.1c0-0.8-0.6-1.4-1.4-1.4h-23c-0.8,0-1.4,0.6-1.4,1.4v3.1
		C0,202.4,0.6,203,1.4,203z M30,203h22.9c0.8,0,1.4-0.6,1.4-1.4v-3.1c0-0.8-0.6-1.4-1.4-1.4H30c-0.8,0-1.4,0.6-1.4,1.4v3.1
		C28.6,202.4,29.3,203,30,203z"/>
	<path class="st2" d="M58.6,203h22.9c0.8,0,1.4-0.6,1.4-1.4v-3.1c0-0.8-0.6-1.4-1.4-1.4H58.6c-0.8,0-1.4,0.6-1.4,1.4v3.1
		C57.2,202.4,57.9,203,58.6,203z M87.2,203h23c0.8,0,1.4-0.6,1.4-1.4v-3.1c0-0.8-0.6-1.4-1.4-1.4h-23c-0.8,0-1.4,0.6-1.4,1.4v3.1
		C85.8,202.4,86.4,203,87.2,203z"/>
	<path class="st2" d="M115.8,203h23c0.8,0,1.4-0.6,1.4-1.4v-3.1c0-0.8-0.6-1.4-1.4-1.4h-23c-0.8,0-1.4,0.6-1.4,1.4v3.1
		C114.4,202.4,115,203,115.8,203z M144.4,203h23c0.8,0,1.4-0.6,1.4-1.4v-3.1c0-0.8-0.6-1.4-1.4-1.4h-23c-0.8,0-1.4,0.6-1.4,1.4v3.1
		C143,202.4,143.6,203,144.4,203z"/>
	<path class="st2" d="M173,203h23c0.8,0,1.4-0.6,1.4-1.4v-3.1c0-0.8-0.6-1.4-1.4-1.4h-23c-0.8,0-1.4,0.6-1.4,1.4v3.1
		C171.6,202.4,172.2,203,173,203z M201.6,203h23c0.8,0,1.4-0.6,1.4-1.4v-3.1c0-0.8-0.6-1.4-1.4-1.4h-23c-0.8,0-1.4,0.6-1.4,1.4v3.1
		C200.2,202.4,200.8,203,201.6,203z"/>
	<path class="st2" d="M230.2,203h23c0.8,0,1.4-0.6,1.4-1.4v-3.1c0-0.8-0.6-1.4-1.4-1.4h-23c-0.8,0-1.4,0.6-1.4,1.4v3.1
		C228.8,202.4,229.4,203,230.2,203z M258.8,203h23c0.8,0,1.4-0.6,1.4-1.4v-3.1c0-0.8-0.6-1.4-1.4-1.4h-23c-0.8,0-1.4,0.6-1.4,1.4
		v3.1C257.4,202.4,258,203,258.8,203z"/>
	<path class="st2" d="M287.4,203h23c0.8,0,1.4-0.6,1.4-1.4v-3.1c0-0.8-0.6-1.4-1.4-1.4h-23c-0.8,0-1.4,0.6-1.4,1.4v3.1
		C286,202.4,286.6,203,287.4,203z M316,203H339c0.8,0,1.4-0.6,1.4-1.4v-3.1c0-0.8-0.6-1.4-1.4-1.4H316c-0.8,0-1.4,0.6-1.4,1.4v3.1
		C314.6,202.4,315.3,203,316,203z"/>
	<path class="st2" d="M344.6,203h23c0.8,0,1.4-0.6,1.4-1.4v-3.1c0-0.8-0.6-1.4-1.4-1.4h-23c-0.8,0-1.4,0.6-1.4,1.4v3.1
		C343.2,202.4,343.8,203,344.6,203z M373.2,203h22.9c0.8,0,1.4-0.6,1.4-1.4v-3.1c0-0.8-0.6-1.4-1.4-1.4h-22.9
		c-0.8,0-1.4,0.6-1.4,1.4v3.1C371.8,202.4,372.5,203,373.2,203z"/>
	<path class="st2" d="M401.8,203h22.9c0.8,0,1.4-0.6,1.4-1.4v-3.1c0-0.8-0.6-1.4-1.4-1.4h-22.9c-0.8,0-1.4,0.6-1.4,1.4v3.1
		C400.4,202.4,401.1,203,401.8,203z M430.4,203h23c0.8,0,1.4-0.6,1.4-1.4v-3.1c0-0.8-0.6-1.4-1.4-1.4h-23c-0.8,0-1.4,0.6-1.4,1.4
		v3.1C429,202.4,429.6,203,430.4,203z"/>
	<path class="st2" d="M459,203h23c0.8,0,1.4-0.6,1.4-1.4v-3.1c0-0.8-0.6-1.4-1.4-1.4h-23c-0.8,0-1.4,0.6-1.4,1.4v3.1
		C457.6,202.4,458.2,203,459,203z M487.6,203h23c0.8,0,1.4-0.6,1.4-1.4v-3.1c0-0.8-0.6-1.4-1.4-1.4h-23c-0.8,0-1.4,0.6-1.4,1.4v3.1
		C486.2,202.4,486.8,203,487.6,203z"/>
	<path class="st2" d="M510.6,317.8L510.6,317.8c-0.8,0-1.5,0.6-1.5,1.4v3c0,0.8-0.6,1.4-1.4,1.4h-5.8c-0.8,0-1.4-0.6-1.4-1.4v-3
		c0-0.8-0.6-1.4-1.4-1.4h-11.5c-0.8,0-1.4,0.6-1.4,1.4v5.9c0,0.8,0.6,1.4,1.4,1.4h5.8c0.8,0,1.4-0.6,1.4-1.4V325
		c0-0.8-0.6-1.4-1.4-1.4h-2.9c-0.8,0-1.4-0.6-1.4-1.4v-0.2c0-0.8,0.6-1.4,1.4-1.4h5.8c0.8,0,1.4,0.6,1.4,1.4v3.1
		c0,0.8,0.6,1.4,1.4,1.4h11.5c0.8,0,1.4-0.6,1.4-1.4v-5.9C512,318.4,511.4,317.8,510.6,317.8z M504.9,317.8L504.9,317.8
		c-0.8,0-1.5,0.6-1.5,1.4v0.1c0,0.8,0.6,1.4,1.4,1.4h0.1c0.8,0,1.4-0.6,1.4-1.4v-0.1C506.3,318.4,505.6,317.8,504.9,317.8z
		 M510.6,329.5h-34.4c-0.8,0-1.4,0.6-1.4,1.4v0.2c0,0.8,0.6,1.4,1.4,1.4h34.4c0.8,0,1.4-0.6,1.4-1.4v-0.2
		C512,330.1,511.4,329.5,510.6,329.5z M476.2,317.8h5.8c0.8,0,1.4,0.6,1.4,1.4v5.9c0,0.8-0.6,1.4-1.4,1.4h-8.6
		c-0.8,0-1.4,0.6-1.4,1.4v3.1c0,0.8-0.6,1.4-1.4,1.4h-0.1c-0.8,0-1.4-0.6-1.4-1.4v-8.9c0-0.8-0.6-1.4-1.4-1.4h-0.1
		c-0.8,0-1.4,0.6-1.4,1.4v8.9c0,0.8-0.6,1.4-1.4,1.4h-0.1c-0.8,0-1.4-0.6-1.4-1.4v-8.9c0-0.8-0.6-1.4-1.4-1.4h-0.1
		c-0.8,0-1.4,0.6-1.4,1.4v8.9c0,0.8-0.6,1.4-1.4,1.4h0c-0.8,0-1.4-0.6-1.4-1.4v-11.8c0-0.8,0.6-1.4,1.4-1.4h11.5
		c0.8,0,1.4,0.6,1.4,1.4v3c0,0.8,0.6,1.4,1.4,1.4h5.8c0.8,0,1.4-0.6,1.4-1.4v-0.2c0-0.8-0.6-1.4-1.4-1.4h-2.9
		c-0.8,0-1.4-0.6-1.4-1.4v-0.1C474.8,318.4,475.4,317.8,476.2,317.8z"/>
	<path class="st2" d="M453.4,317.8h-0.1c-0.8,0-1.4,0.6-1.4,1.4v3c0,0.8-0.6,1.4-1.4,1.4h-5.8c-0.8,0-1.4-0.6-1.4-1.4v-3
		c0-0.8-0.6-1.4-1.4-1.4h-11.5c-0.8,0-1.4,0.6-1.4,1.4v5.9c0,0.8,0.6,1.4,1.4,1.4h5.8c0.8,0,1.4-0.6,1.4-1.4V325
		c0-0.8-0.6-1.4-1.4-1.4h-2.9c-0.8,0-1.4-0.6-1.4-1.4v-0.2c0-0.8,0.6-1.4,1.4-1.4h5.8c0.8,0,1.4,0.6,1.4,1.4v3.1
		c0,0.8,0.6,1.4,1.4,1.4h11.5c0.8,0,1.4-0.6,1.4-1.4v-5.9C454.8,318.4,454.1,317.8,453.4,317.8z M447.7,317.8L447.7,317.8
		c-0.8,0-1.5,0.6-1.5,1.4v0.1c0,0.8,0.6,1.4,1.4,1.4h0.1c0.8,0,1.4-0.6,1.4-1.4v-0.1C449.1,318.4,448.4,317.8,447.7,317.8z
		 M453.4,329.5H419c-0.8,0-1.4,0.6-1.4,1.4v0.2c0,0.8,0.6,1.4,1.4,1.4h34.4c0.8,0,1.4-0.6,1.4-1.4v-0.2
		C454.8,330.1,454.1,329.5,453.4,329.5z M419,317.8h5.8c0.8,0,1.4,0.6,1.4,1.4v5.9c0,0.8-0.6,1.4-1.4,1.4h-8.6
		c-0.8,0-1.4,0.6-1.4,1.4v3.1c0,0.8-0.6,1.4-1.4,1.4h-0.1c-0.8,0-1.4-0.6-1.4-1.4v-8.9c0-0.8-0.6-1.4-1.4-1.4h-0.1
		c-0.8,0-1.4,0.6-1.4,1.4v8.9c0,0.8-0.6,1.4-1.4,1.4h0c-0.8,0-1.4-0.6-1.4-1.4v-8.9c0-0.8-0.6-1.4-1.4-1.4h-0.1
		c-0.8,0-1.4,0.6-1.4,1.4v8.9c0,0.8-0.6,1.4-1.4,1.4h-0.1c-0.8,0-1.4-0.6-1.4-1.4v-11.8c0-0.8,0.6-1.4,1.4-1.4h11.6
		c0.8,0,1.4,0.6,1.4,1.4v3c0,0.8,0.6,1.4,1.4,1.4h5.8c0.8,0,1.4-0.6,1.4-1.4v-0.2c0-0.8-0.6-1.4-1.4-1.4H419c-0.8,0-1.4-0.6-1.4-1.4
		v-0.1C417.6,318.4,418.2,317.8,419,317.8z"/>
	<path class="st2" d="M396.2,317.8L396.2,317.8c-0.8,0-1.5,0.6-1.5,1.4v3c0,0.8-0.6,1.4-1.4,1.4h-5.8c-0.8,0-1.4-0.6-1.4-1.4v-3
		c0-0.8-0.6-1.4-1.4-1.4h-11.5c-0.8,0-1.4,0.6-1.4,1.4v5.9c0,0.8,0.6,1.4,1.4,1.4h5.8c0.8,0,1.4-0.6,1.4-1.4V325
		c0-0.8-0.6-1.4-1.4-1.4h-2.9c-0.8,0-1.4-0.6-1.4-1.4v-0.2c0-0.8,0.6-1.4,1.4-1.4h5.8c0.8,0,1.4,0.6,1.4,1.4v3.1
		c0,0.8,0.6,1.4,1.4,1.4h11.5c0.8,0,1.4-0.6,1.4-1.4v-5.9C397.6,318.4,397,317.8,396.2,317.8z M390.5,317.8L390.5,317.8
		c-0.8,0-1.5,0.6-1.5,1.4v0.1c0,0.8,0.6,1.4,1.4,1.4h0.1c0.8,0,1.4-0.6,1.4-1.4v-0.1C391.9,318.4,391.2,317.8,390.5,317.8z
		 M396.2,329.5h-34.4c-0.8,0-1.4,0.6-1.4,1.4v0.2c0,0.8,0.6,1.4,1.4,1.4h34.4c0.8,0,1.4-0.6,1.4-1.4v-0.2
		C397.6,330.1,397,329.5,396.2,329.5z M361.8,317.8h5.8c0.8,0,1.4,0.6,1.4,1.4v5.9c0,0.8-0.6,1.4-1.4,1.4h-8.6
		c-0.8,0-1.4,0.6-1.4,1.4v3.1c0,0.8-0.6,1.4-1.4,1.4h-0.1c-0.8,0-1.4-0.6-1.4-1.4v-8.9c0-0.8-0.6-1.4-1.4-1.4h-0.1
		c-0.8,0-1.4,0.6-1.4,1.4v8.9c0,0.8-0.6,1.4-1.4,1.4h-0.1c-0.8,0-1.4-0.6-1.4-1.4v-8.9c0-0.8-0.6-1.4-1.4-1.4h0
		c-0.8,0-1.4,0.6-1.4,1.4v8.9c0,0.8-0.6,1.4-1.4,1.4h-0.1c-0.8,0-1.4-0.6-1.4-1.4v-11.8c0-0.8,0.6-1.4,1.4-1.4h11.5
		c0.8,0,1.4,0.6,1.4,1.4v3c0,0.8,0.6,1.4,1.4,1.4h5.8c0.8,0,1.4-0.6,1.4-1.4v-0.2c0-0.8-0.6-1.4-1.4-1.4h-3c-0.8,0-1.4-0.6-1.4-1.4
		v-0.1C360.4,318.4,361,317.8,361.8,317.8z"/>
	<path class="st2" d="M339,317.8L339,317.8c-0.8,0-1.5,0.6-1.5,1.4v3c0,0.8-0.6,1.4-1.4,1.4h-5.8c-0.8,0-1.4-0.6-1.4-1.4v-3
		c0-0.8-0.6-1.4-1.4-1.4H316c-0.8,0-1.4,0.6-1.4,1.4v5.9c0,0.8,0.6,1.4,1.4,1.4h5.8c0.8,0,1.4-0.6,1.4-1.4V325
		c0-0.8-0.6-1.4-1.4-1.4h-2.9c-0.8,0-1.4-0.6-1.4-1.4v-0.2c0-0.8,0.6-1.4,1.4-1.4h5.8c0.8,0,1.4,0.6,1.4,1.4v3.1
		c0,0.8,0.6,1.4,1.4,1.4H339c0.8,0,1.4-0.6,1.4-1.4v-5.9C340.4,318.4,339.8,317.8,339,317.8z M333.3,317.8L333.3,317.8
		c-0.8,0-1.5,0.6-1.5,1.4v0.1c0,0.8,0.6,1.4,1.4,1.4h0.1c0.8,0,1.4-0.6,1.4-1.4v-0.1C334.7,318.4,334,317.8,333.3,317.8z M339,329.5
		h-34.4c-0.8,0-1.4,0.6-1.4,1.4v0.2c0,0.8,0.6,1.4,1.4,1.4H339c0.8,0,1.4-0.6,1.4-1.4v-0.2C340.4,330.1,339.8,329.5,339,329.5z
		 M304.6,317.8h5.8c0.8,0,1.4,0.6,1.4,1.4v5.9c0,0.8-0.6,1.4-1.4,1.4h-8.7c-0.8,0-1.4,0.6-1.4,1.4v3.1c0,0.8-0.6,1.4-1.4,1.4h-0.1
		c-0.8,0-1.4-0.6-1.4-1.4v-8.9c0-0.8-0.6-1.4-1.4-1.4h0c-0.8,0-1.4,0.6-1.4,1.4v8.9c0,0.8-0.6,1.4-1.4,1.4h-0.1
		c-0.8,0-1.4-0.6-1.4-1.4v-8.9c0-0.8-0.6-1.4-1.4-1.4h-0.1c-0.8,0-1.4,0.6-1.4,1.4v8.9c0,0.8-0.6,1.4-1.4,1.4h-0.1
		c-0.8,0-1.4-0.6-1.4-1.4v-11.8c0-0.8,0.6-1.4,1.4-1.4h11.5c0.8,0,1.4,0.6,1.4,1.4v3c0,0.8,0.6,1.4,1.4,1.4h5.8
		c0.8,0,1.4-0.6,1.4-1.4v-0.2c0-0.8-0.6-1.4-1.4-1.4h-2.9c-0.8,0-1.4-0.6-1.4-1.4v-0.1C303.2,318.4,303.8,317.8,304.6,317.8z"/>
	<path class="st2" d="M281.8,317.8L281.8,317.8c-0.8,0-1.5,0.6-1.5,1.4v3c0,0.8-0.6,1.4-1.4,1.4h-5.8c-0.8,0-1.4-0.6-1.4-1.4v-3
		c0-0.8-0.6-1.4-1.4-1.4h-11.5c-0.8,0-1.4,0.6-1.4,1.4v5.9c0,0.8,0.6,1.4,1.4,1.4h5.8c0.8,0,1.4-0.6,1.4-1.4V325
		c0-0.8-0.6-1.4-1.4-1.4h-3c-0.8,0-1.4-0.6-1.4-1.4v-0.2c0-0.8,0.6-1.4,1.4-1.4h5.8c0.8,0,1.4,0.6,1.4,1.4v3.1
		c0,0.8,0.6,1.4,1.4,1.4h11.5c0.8,0,1.4-0.6,1.4-1.4v-5.9C283.2,318.4,282.6,317.8,281.8,317.8z M276,317.8L276,317.8
		c-0.8,0-1.4,0.6-1.4,1.4v0.1c0,0.8,0.6,1.4,1.4,1.4h0c0.8,0,1.4-0.6,1.4-1.4v-0.1C277.4,318.4,276.8,317.8,276,317.8z M281.8,329.5
		h-34.4c-0.8,0-1.4,0.6-1.4,1.4v0.2c0,0.8,0.6,1.4,1.4,1.4h34.4c0.8,0,1.4-0.6,1.4-1.4v-0.2C283.2,330.1,282.6,329.5,281.8,329.5z
		 M247.4,317.8h5.8c0.8,0,1.4,0.6,1.4,1.4v5.9c0,0.8-0.6,1.4-1.4,1.4h-8.7c-0.8,0-1.4,0.6-1.4,1.4v3.1c0,0.8-0.6,1.4-1.4,1.4h-0.1
		c-0.8,0-1.4-0.6-1.4-1.4v-8.9c0-0.8-0.6-1.4-1.4-1.4h-0.1c-0.8,0-1.4,0.6-1.4,1.4v8.9c0,0.8-0.6,1.4-1.4,1.4h-0.1
		c-0.8,0-1.4-0.6-1.4-1.4v-8.9c0-0.8-0.6-1.4-1.4-1.4h-0.1c-0.8,0-1.4,0.6-1.4,1.4v8.9c0,0.8-0.6,1.4-1.4,1.4h-0.1
		c-0.8,0-1.4-0.6-1.4-1.4v-11.8c0-0.8,0.6-1.4,1.4-1.4h11.5c0.8,0,1.4,0.6,1.4,1.4v3c0,0.8,0.6,1.4,1.4,1.4h5.8
		c0.8,0,1.4-0.6,1.4-1.4v-0.2c0-0.8-0.6-1.4-1.4-1.4h-3c-0.8,0-1.4-0.6-1.4-1.4v-0.1C246,318.4,246.6,317.8,247.4,317.8z"/>
	<path class="st2" d="M224.6,317.8L224.6,317.8c-0.8,0-1.5,0.6-1.5,1.4v3c0,0.8-0.6,1.4-1.4,1.4H216c-0.8,0-1.4-0.6-1.4-1.4v-3
		c0-0.8-0.6-1.4-1.4-1.4h-11.5c-0.8,0-1.4,0.6-1.4,1.4v5.9c0,0.8,0.6,1.4,1.4,1.4h5.8c0.8,0,1.4-0.6,1.4-1.4V325
		c0-0.8-0.6-1.4-1.4-1.4h-2.9c-0.8,0-1.4-0.6-1.4-1.4v-0.2c0-0.8,0.6-1.4,1.4-1.4h5.8c0.8,0,1.4,0.6,1.4,1.4v3.1
		c0,0.8,0.6,1.4,1.4,1.4h11.5c0.8,0,1.4-0.6,1.4-1.4v-5.9C226,318.4,225.4,317.8,224.6,317.8z M218.9,317.8L218.9,317.8
		c-0.8,0-1.4,0.6-1.4,1.4v0.1c0,0.8,0.6,1.4,1.4,1.4h0c0.8,0,1.4-0.6,1.4-1.4v-0.1C220.2,318.4,219.6,317.8,218.9,317.8z
		 M224.6,329.5h-34.4c-0.8,0-1.4,0.6-1.4,1.4v0.2c0,0.8,0.6,1.4,1.4,1.4h34.4c0.8,0,1.4-0.6,1.4-1.4v-0.2
		C226,330.1,225.4,329.5,224.6,329.5z M190.2,317.8h5.8c0.8,0,1.4,0.6,1.4,1.4v5.9c0,0.8-0.6,1.4-1.4,1.4h-8.6
		c-0.8,0-1.4,0.6-1.4,1.4v3.1c0,0.8-0.6,1.4-1.4,1.4h-0.1c-0.8,0-1.4-0.6-1.4-1.4v-8.9c0-0.8-0.6-1.4-1.4-1.4h-0.1
		c-0.8,0-1.4,0.6-1.4,1.4v8.9c0,0.8-0.6,1.4-1.4,1.4h-0.1c-0.8,0-1.4-0.6-1.4-1.4v-8.9c0-0.8-0.6-1.4-1.4-1.4h-0.1
		c-0.8,0-1.4,0.6-1.4,1.4v8.9c0,0.8-0.6,1.4-1.4,1.4H173c-0.8,0-1.4-0.6-1.4-1.4v-11.8c0-0.8,0.6-1.4,1.4-1.4h11.5
		c0.8,0,1.4,0.6,1.4,1.4v3c0,0.8,0.6,1.4,1.4,1.4h5.8c0.8,0,1.4-0.6,1.4-1.4v-0.2c0-0.8-0.6-1.4-1.4-1.4h-3c-0.8,0-1.4-0.6-1.4-1.4
		v-0.1C188.8,318.4,189.4,317.8,190.2,317.8z"/>
	<path class="st2" d="M167.4,317.8L167.4,317.8c-0.8,0-1.5,0.6-1.5,1.4v3c0,0.8-0.6,1.4-1.4,1.4h-5.8c-0.8,0-1.4-0.6-1.4-1.4v-3
		c0-0.8-0.6-1.4-1.4-1.4h-11.5c-0.8,0-1.4,0.6-1.4,1.4v5.9c0,0.8,0.6,1.4,1.4,1.4h5.8c0.8,0,1.4-0.6,1.4-1.4V325
		c0-0.8-0.6-1.4-1.4-1.4h-3c-0.8,0-1.4-0.6-1.4-1.4v-0.2c0-0.8,0.6-1.4,1.4-1.4h5.9c0.8,0,1.4,0.6,1.4,1.4v3.1
		c0,0.8,0.6,1.4,1.4,1.4h11.5c0.8,0,1.4-0.6,1.4-1.4v-5.9C168.8,318.4,168.2,317.8,167.4,317.8z M161.7,317.8h-0.1
		c-0.8,0-1.4,0.6-1.4,1.4v0.1c0,0.8,0.6,1.4,1.4,1.4h0.1c0.8,0,1.4-0.6,1.4-1.4v-0.1C163.1,318.4,162.5,317.8,161.7,317.8z
		 M167.4,329.5H133c-0.8,0-1.4,0.6-1.4,1.4v0.2c0,0.8,0.6,1.4,1.4,1.4h34.4c0.8,0,1.4-0.6,1.4-1.4v-0.2
		C168.8,330.1,168.2,329.5,167.4,329.5z M133,317.8h5.8c0.8,0,1.4,0.6,1.4,1.4v5.9c0,0.8-0.6,1.4-1.4,1.4h-8.6
		c-0.8,0-1.4,0.6-1.4,1.4v3.1c0,0.8-0.6,1.4-1.4,1.4h-0.1c-0.8,0-1.4-0.6-1.4-1.4v-8.9c0-0.8-0.6-1.4-1.4-1.4h-0.1
		c-0.8,0-1.4,0.6-1.4,1.4v8.9c0,0.8-0.6,1.4-1.4,1.4h-0.1c-0.8,0-1.4-0.6-1.4-1.4v-8.9c0-0.8-0.6-1.4-1.4-1.4h-0.1
		c-0.8,0-1.4,0.6-1.4,1.4v8.9c0,0.8-0.6,1.4-1.4,1.4h0c-0.8,0-1.4-0.6-1.4-1.4v-11.8c0-0.8,0.6-1.4,1.4-1.4h11.5
		c0.8,0,1.4,0.6,1.4,1.4v3c0,0.8,0.6,1.4,1.4,1.4h5.8c0.8,0,1.4-0.6,1.4-1.4v-0.2c0-0.8-0.6-1.4-1.4-1.4H133c-0.8,0-1.4-0.6-1.4-1.4
		v-0.1C131.6,318.4,132.2,317.8,133,317.8z"/>
	<path class="st2" d="M110.2,317.8L110.2,317.8c-0.8,0-1.4,0.6-1.4,1.4v3c0,0.8-0.6,1.4-1.4,1.4h-5.8c-0.8,0-1.4-0.6-1.4-1.4v-3
		c0-0.8-0.6-1.4-1.4-1.4H87.3c-0.8,0-1.4,0.6-1.4,1.4v5.9c0,0.8,0.6,1.4,1.4,1.4H93c0.8,0,1.4-0.6,1.4-1.4V325
		c0-0.8-0.6-1.4-1.4-1.4h-2.9c-0.8,0-1.4-0.6-1.4-1.4v-0.2c0-0.8,0.6-1.4,1.4-1.4h5.8c0.8,0,1.4,0.6,1.4,1.4v3.1
		c0,0.8,0.6,1.4,1.4,1.4h11.5c0.8,0,1.4-0.6,1.4-1.4v-5.9C111.6,318.4,110.9,317.8,110.2,317.8z M104.5,317.8L104.5,317.8
		c-0.8,0-1.5,0.6-1.5,1.4v0.1c0,0.8,0.6,1.4,1.4,1.4h0.1c0.8,0,1.4-0.6,1.4-1.4v-0.1C105.9,318.4,105.2,317.8,104.5,317.8z
		 M110.2,329.5H75.7c-0.8,0-1.4,0.6-1.4,1.4v0.2c0,0.8,0.6,1.4,1.4,1.4h34.5c0.8,0,1.4-0.6,1.4-1.4v-0.2
		C111.6,330.1,110.9,329.5,110.2,329.5z M75.7,317.8h5.9c0.8,0,1.4,0.6,1.4,1.4v5.9c0,0.8-0.6,1.4-1.4,1.4h-8.6
		c-0.8,0-1.4,0.6-1.4,1.4v3.1c0,0.8-0.6,1.4-1.4,1.4H70c-0.8,0-1.4-0.6-1.4-1.4v-8.9c0-0.8-0.6-1.4-1.4-1.4h-0.1
		c-0.8,0-1.4,0.6-1.4,1.4v8.9c0,0.8-0.6,1.4-1.4,1.4h0c-0.8,0-1.4-0.6-1.4-1.4v-8.9c0-0.8-0.6-1.4-1.4-1.4h-0.1
		c-0.8,0-1.4,0.6-1.4,1.4v8.9c0,0.8-0.6,1.4-1.4,1.4h-0.1c-0.8,0-1.4-0.6-1.4-1.4v-11.8c0-0.8,0.6-1.4,1.4-1.4h11.5
		c0.8,0,1.4,0.6,1.4,1.4v3c0,0.8,0.6,1.4,1.4,1.4h5.8c0.8,0,1.4-0.6,1.4-1.4v-0.2c0-0.8-0.6-1.4-1.4-1.4h-3c-0.8,0-1.4-0.6-1.4-1.4
		v-0.1C74.3,318.4,75,317.8,75.7,317.8z"/>
	<path class="st2" d="M53,317.8L53,317.8c-0.8,0-1.5,0.6-1.5,1.4v3c0,0.8-0.6,1.4-1.4,1.4h-5.8c-0.8,0-1.4-0.6-1.4-1.4v-3
		c0-0.8-0.6-1.4-1.4-1.4H30c-0.8,0-1.4,0.6-1.4,1.4v5.9c0,0.8,0.6,1.4,1.4,1.4h5.8c0.8,0,1.4-0.6,1.4-1.4V325c0-0.8-0.6-1.4-1.4-1.4
		h-2.9c-0.8,0-1.4-0.6-1.4-1.4v-0.2c0-0.8,0.6-1.4,1.4-1.4h5.9c0.8,0,1.4,0.6,1.4,1.4v3.1c0,0.8,0.6,1.4,1.4,1.4H53
		c0.8,0,1.4-0.6,1.4-1.4v-5.9C54.4,318.4,53.8,317.8,53,317.8z M47.3,317.8L47.3,317.8c-0.8,0-1.5,0.6-1.5,1.4v0.1
		c0,0.8,0.6,1.4,1.4,1.4h0.1c0.8,0,1.4-0.6,1.4-1.4v-0.1C48.7,318.4,48,317.8,47.3,317.8z M53,329.5H18.6c-0.8,0-1.4,0.6-1.4,1.4
		v0.2c0,0.8,0.6,1.4,1.4,1.4H53c0.8,0,1.4-0.6,1.4-1.4v-0.2C54.4,330.1,53.8,329.5,53,329.5z M18.6,317.8h5.8c0.8,0,1.4,0.6,1.4,1.4
		v5.9c0,0.8-0.6,1.4-1.4,1.4h-8.7c-0.8,0-1.4,0.6-1.4,1.4v3.1c0,0.8-0.6,1.4-1.4,1.4h0c-0.8,0-1.4-0.6-1.4-1.4v-8.9
		c0-0.8-0.6-1.4-1.4-1.4H10c-0.8,0-1.4,0.6-1.4,1.4v8.9c0,0.8-0.6,1.4-1.4,1.4h0c-0.8,0-1.4-0.6-1.4-1.4v-8.9c0-0.8-0.6-1.4-1.4-1.4
		H4.3c-0.8,0-1.4,0.6-1.4,1.4v8.9c0,0.8-0.6,1.4-1.4,1.4H1.4c-0.8,0-1.4-0.6-1.4-1.4v-11.8c0-0.8,0.6-1.4,1.4-1.4h11.5
		c0.8,0,1.4,0.6,1.4,1.4v3c0,0.8,0.6,1.4,1.4,1.4h5.9c0.8,0,1.4-0.6,1.4-1.4v-0.2c0-0.8-0.6-1.4-1.4-1.4h-2.9
		c-0.8,0-1.4-0.6-1.4-1.4v-0.1C17.2,318.4,17.8,317.8,18.6,317.8z"/>
	<path class="st2" d="M510.6,309h-23c-0.8,0-1.4,0.6-1.4,1.4v3.1c0,0.8,0.6,1.4,1.4,1.4h23c0.8,0,1.4-0.6,1.4-1.4v-3.1
		C512,309.6,511.4,309,510.6,309z M482,309h-22.9c-0.8,0-1.4,0.6-1.4,1.4v3.1c0,0.8,0.6,1.4,1.4,1.4H482c0.8,0,1.4-0.6,1.4-1.4v-3.1
		C483.4,309.6,482.7,309,482,309z"/>
	<path class="st2" d="M453.4,309h-22.9c-0.8,0-1.4,0.6-1.4,1.4v3.1c0,0.8,0.6,1.4,1.4,1.4h22.9c0.8,0,1.4-0.6,1.4-1.4v-3.1
		C454.8,309.6,454.1,309,453.4,309z M424.8,309h-23c-0.8,0-1.4,0.6-1.4,1.4v3.1c0,0.8,0.6,1.4,1.4,1.4h23c0.8,0,1.4-0.6,1.4-1.4
		v-3.1C426.2,309.6,425.6,309,424.8,309z"/>
	<path class="st2" d="M396.2,309h-23c-0.8,0-1.4,0.6-1.4,1.4v3.1c0,0.8,0.6,1.4,1.4,1.4h23c0.8,0,1.4-0.6,1.4-1.4v-3.1
		C397.6,309.6,397,309,396.2,309z M367.6,309h-23c-0.8,0-1.4,0.6-1.4,1.4v3.1c0,0.8,0.6,1.4,1.4,1.4h23c0.8,0,1.4-0.6,1.4-1.4v-3.1
		C369,309.6,368.4,309,367.6,309z"/>
	<path class="st2" d="M339,309h-23c-0.8,0-1.4,0.6-1.4,1.4v3.1c0,0.8,0.6,1.4,1.4,1.4h23c0.8,0,1.4-0.6,1.4-1.4v-3.1
		C340.4,309.6,339.8,309,339,309z M310.4,309h-23c-0.8,0-1.4,0.6-1.4,1.4v3.1c0,0.8,0.6,1.4,1.4,1.4h23c0.8,0,1.4-0.6,1.4-1.4v-3.1
		C311.8,309.6,311.2,309,310.4,309z"/>
	<path class="st2" d="M281.8,309h-23c-0.8,0-1.4,0.6-1.4,1.4v3.1c0,0.8,0.6,1.4,1.4,1.4h23c0.8,0,1.4-0.6,1.4-1.4v-3.1
		C283.2,309.6,282.6,309,281.8,309z M253.2,309h-23c-0.8,0-1.4,0.6-1.4,1.4v3.1c0,0.8,0.6,1.4,1.4,1.4h23c0.8,0,1.4-0.6,1.4-1.4
		v-3.1C254.6,309.6,254,309,253.2,309z"/>
	<path class="st2" d="M224.6,309h-23c-0.8,0-1.4,0.6-1.4,1.4v3.1c0,0.8,0.6,1.4,1.4,1.4h23c0.8,0,1.4-0.6,1.4-1.4v-3.1
		C226,309.6,225.4,309,224.6,309z M196,309H173c-0.8,0-1.4,0.6-1.4,1.4v3.1c0,0.8,0.6,1.4,1.4,1.4H196c0.8,0,1.4-0.6,1.4-1.4v-3.1
		C197.4,309.6,196.7,309,196,309z"/>
	<path class="st2" d="M167.4,309h-23c-0.8,0-1.4,0.6-1.4,1.4v3.1c0,0.8,0.6,1.4,1.4,1.4h23c0.8,0,1.4-0.6,1.4-1.4v-3.1
		C168.8,309.6,168.2,309,167.4,309z M138.8,309h-22.9c-0.8,0-1.4,0.6-1.4,1.4v3.1c0,0.8,0.6,1.4,1.4,1.4h22.9c0.8,0,1.4-0.6,1.4-1.4
		v-3.1C140.2,309.6,139.5,309,138.8,309z"/>
	<path class="st2" d="M110.2,309H87.3c-0.8,0-1.4,0.6-1.4,1.4v3.1c0,0.8,0.6,1.4,1.4,1.4h22.9c0.8,0,1.4-0.6,1.4-1.4v-3.1
		C111.6,309.6,110.9,309,110.2,309z M81.6,309h-23c-0.8,0-1.4,0.6-1.4,1.4v3.1c0,0.8,0.6,1.4,1.4,1.4h23c0.8,0,1.4-0.6,1.4-1.4v-3.1
		C83,309.6,82.3,309,81.6,309z"/>
	<path class="st2" d="M53,309H30c-0.8,0-1.4,0.6-1.4,1.4v3.1c0,0.8,0.6,1.4,1.4,1.4h23c0.8,0,1.4-0.6,1.4-1.4v-3.1
		C54.4,309.6,53.8,309,53,309z M24.4,309h-23c-0.8,0-1.4,0.6-1.4,1.4v3.1c0,0.8,0.6,1.4,1.4,1.4h23c0.8,0,1.4-0.6,1.4-1.4v-3.1
		C25.8,309.6,25.2,309,24.4,309z"/>
</g>
<g>
	<path class="st1" d="M248.7,214.3c2.6,0.7,5.4-0.1,7.3-2c2.9,2.9,7.6,3,10.7,0.1c2-1.9,2.8-4.8,2.1-7.3c-2.5,4.1-7.9,5.4-12,2.9
		c-0.2-0.1-0.5-0.3-0.7-0.4c-3.9,2.9-9.4,2.1-12.3-1.7c-0.1-0.2-0.3-0.5-0.5-0.7C242.2,209.1,244.7,213.3,248.7,214.3z"/>
	<path class="st1" d="M265,295.9c9.4-5.2,17.2-13.3,21.5-24c7.3-18.3,2.7-39-11.3-52.4c-0.5-0.5-1.2,0.2-0.9,0.7
		c13.8,22.5,8.4,52.1-13,68.3l1-65.4c0-0.9-0.4-1.7-1.1-2.3l-3.5-2.8c-1.1-0.9-2.6-0.9-3.6,0l-3.4,2.8c-0.7,0.6-1.1,1.4-1.1,2.3
		l1,65.4c-21.4-16.2-26.8-45.8-13-68.3c0.3-0.6-0.4-1.2-0.9-0.7c-14,13.4-18.6,34.1-11.3,52.4c4.3,10.7,12.1,18.8,21.5,24
		c-6,2-12.3,3.1-18.6,3c-0.7,0-0.8,0.9-0.2,1.1c8.1,2.4,16.4,2.6,24.2,0.9l3.1,5.9c0.2,0.4,0.8,0.4,1,0l3.1-5.9
		c7.8,1.7,16.1,1.6,24.2-0.9c0.6-0.2,0.5-1.1-0.2-1.1C277.2,299,271,297.9,265,295.9z"/>
	<path class="st1" d="M303.2,235.1c-4.8-9-12.8-15.8-22.3-19.1c-0.6-0.2-1.1,0.6-0.6,1c21,17.3,25.2,48,9,70.3
		c-0.8,1.1-1.7,2.3-2.6,3.3C306.6,279.9,313.9,255,303.2,235.1z"/>
	<path class="st1" d="M222.8,287.3c-16.2-22.3-12-53,8.9-70.3c0.5-0.4,0-1.2-0.6-1c-9.5,3.3-17.4,10.1-22.2,19.1
		c-10.8,19.9-3.4,44.8,16.6,55.4C224.5,289.6,223.6,288.4,222.8,287.3z"/>
</g>
</svg>
