<svg version="1.1" id="Layer_1" xmlns="http://www.w3.org/2000/svg" x="0" y="0" viewBox="0 0 512 512" xml:space="preserve"><style>.st1{fill:#c8102e}</style><path id="Rectangle" fill="#fff" d="M0 88h512v336H0z"/><path id="Path" class="st1" d="M301.2 256L512 117.7V88h-45.2L256 226.3 45.2 88H0v29.7L210.8 256 0 394.3V424h45.2L256 285.7 466.8 424H512v-29.7z"/><g id="shield" transform="translate(229.7 7.8)"><path id="Path_1_" fill="#ffe15a" d="M4 117.8l22.3 5.6 22.3-5.6 4-20.9-14.9 6.5L26.3 88l-11.4 15.4L0 96.9z"/><path id="Path_2_" class="st1" d="M4 117.8s-4 12.9-4 29.9C0 175.6 26.3 189 26.3 189s26.3-15.5 26.3-41.3c0-15.4-4-29.9-4-29.9s-8.1-5-22.3-5-22.3 5-22.3 5z"/></g></svg>