<?xml version="1.0" encoding="utf-8"?>
<!-- Generator: Adobe Illustrator 25.0.0, SVG Export Plug-In . SVG Version: 6.00 Build 0)  -->
<svg version="1.1" id="Layer_1" xmlns="http://www.w3.org/2000/svg" xmlns:xlink="http://www.w3.org/1999/xlink" x="0px" y="0px"
	 viewBox="0 0 512 512" style="enable-background:new 0 0 512 512;" xml:space="preserve">
<style type="text/css">
	.st0{fill:#FED100;}
	.st1{fill:#009B3A;}
</style>
<polygon class="st0" points="512,88.3 463.7,88.3 256,224.6 48.3,88.3 0,88.3 0,120 207.7,256.3 0,392.6 0,424.3 0,424.3 
	48.3,424.3 256,288 463.7,424.3 512,424.3 512,424.3 512,392.6 304.3,256.3 512,120 "/>
<polygon points="0,120 0,392.6 207.7,256.3 "/>
<polygon class="st1" points="463.7,88.3 48.3,88.3 256,224.6 "/>
<polygon points="512,392.6 512,120 304.3,256.3 "/>
<polygon class="st1" points="48.3,424.3 463.7,424.3 256,288 "/>
</svg>
