<svg version="1.1" id="Layer_1" xmlns="http://www.w3.org/2000/svg" x="0" y="0" viewBox="0 0 512 512" xml:space="preserve"><style>.st2{fill:#fff}</style><path fill="#ce1126" d="M0 88.3v336l304.5-168z"/><path fill="#007a3d" d="M203 312.3L0 424.3h512v-112z"/><path class="st2" d="M203 200.3l101.5 56-101.5 56h309v-112z"/><path d="M0 88.3l203 112h309v-112z"/><path class="st2" d="M95.4 233.2l5.2 11.4 12.2-3c.8-.2 1.4.6 1 1.3l-5.6 11.2 9.9 7.6c.6.5.4 1.5-.4 1.6l-12.3 2.6.2 12.5c0 .8-.9 1.2-1.5.7l-9.7-8-9.7 8c-.6.5-1.5.1-1.5-.7l.2-12.5-12.3-2.6c-.8-.2-1-1.1-.4-1.6l9.9-7.6-5.6-11.2c-.4-.7.3-1.5 1-1.3l12.2 3 5.2-11.4c.7-.7 1.7-.7 2 0z"/></svg>