<?xml version="1.0" encoding="utf-8"?>
<!-- Generator: Adobe Illustrator 25.0.0, SVG Export Plug-In . SVG Version: 6.00 Build 0)  -->
<svg version="1.1" id="Layer_1" xmlns="http://www.w3.org/2000/svg" xmlns:xlink="http://www.w3.org/1999/xlink" x="0px" y="0px"
	 viewBox="0 0 512 512" style="enable-background:new 0 0 512 512;" xml:space="preserve">
<style type="text/css">
	.st0{fill:#FFFFFF;}
	.st1{fill:#BB0000;}
	.st2{fill:#006600;}
</style>
<rect y="194.2" class="st0" width="512" height="17.7"/>
<rect y="300.1" class="st0" width="512" height="17.7"/>
<rect y="211.9" class="st1" width="512" height="88.3"/>
<rect y="88.3" width="512" height="105.9"/>
<rect y="317.8" class="st2" width="512" height="105.9"/>
<g id="shield">
	<path class="st0" d="M303.3,181.6c7.1-14.7,14.5-48.6,14.5-48.6s-22.1,26.8-29.2,41.5c-1.5,3.1-0.9,6.6,1.3,9l-81,166.9l5.5,2.7
		l81-166.9C298.6,186.4,301.8,184.7,303.3,181.6z"/>
	<path class="st0" d="M208.7,181.6c-7.1-14.7-14.5-48.6-14.5-48.6s22.1,26.8,29.2,41.5c1.5,3.1,0.9,6.6-1.3,9l81,166.9l-5.5,2.7
		l-81-166.9C213.4,186.4,210.2,184.7,208.7,181.6z"/>
	<path class="st1" d="M300.1,256c0,48.8-36,88.3-44.1,88.3s-44.1-39.5-44.1-88.3s36-88.3,44.1-88.3S300.1,207.2,300.1,256z"/>
	<g>
		<path d="M291.3,298.6c5.2-12.6,8.8-27.1,8.8-42.6s-3.6-30-8.8-42.6c-5.2,12.6-8.8,27.1-8.8,42.6S286.1,286,291.3,298.6z"/>
		<path d="M220.7,213.4c-5.2,12.6-8.8,27.1-8.8,42.6s3.6,30,8.8,42.6c5.2-12.6,8.8-27.1,8.8-42.6S225.9,226,220.7,213.4z"/>
	</g>
	<g>
		<ellipse class="st0" cx="256" cy="256" rx="8.8" ry="13.2"/>
		<path class="st0" d="M257.3,167.7v75c2.4-5,6.7-19.8,6.7-37.5C264,187.5,259.7,172.7,257.3,167.7z"/>
		<path class="st0" d="M254.7,167.7c-2.4,5-6.7,19.8-6.7,37.5s4.3,32.5,6.7,37.5V167.7z"/>
		<path class="st0" d="M257.3,269.2v75c2.4-5,6.7-19.8,6.7-37.5C264,289.1,259.7,274.3,257.3,269.2z"/>
		<path class="st0" d="M254.7,269.2c-2.4,5-6.7,19.8-6.7,37.5s4.3,32.5,6.7,37.5V269.2z"/>
	</g>
</g>
</svg>
