<svg version="1.1" id="Layer_1" xmlns="http://www.w3.org/2000/svg" x="0" y="0" viewBox="0 0 512 512" xml:space="preserve"><style>.st0{fill:#fff}.st1{fill:#b00}</style><path class="st0" d="M0 194.2h512v17.7H0zM0 300.1h512v17.7H0z"/><path class="st1" d="M0 211.9h512v88.3H0z"/><path d="M0 88.3h512v105.9H0z"/><path fill="#060" d="M0 317.8h512v105.9H0z"/><g id="shield"><path class="st0" d="M303.3 181.6c7.1-14.7 14.5-48.6 14.5-48.6s-22.1 26.8-29.2 41.5c-1.5 3.1-.9 6.6 1.3 9l-81 166.9 5.5 2.7 81-166.9c3.2.2 6.4-1.5 7.9-4.6z"/><path class="st0" d="M208.7 181.6c-7.1-14.7-14.5-48.6-14.5-48.6s22.1 26.8 29.2 41.5c1.5 3.1.9 6.6-1.3 9l81 166.9-5.5 2.7-81-166.9c-3.2.2-6.4-1.5-7.9-4.6z"/><path class="st1" d="M300.1 256c0 48.8-36 88.3-44.1 88.3s-44.1-39.5-44.1-88.3 36-88.3 44.1-88.3 44.1 39.5 44.1 88.3z"/><path d="M291.3 298.6c5.2-12.6 8.8-27.1 8.8-42.6s-3.6-30-8.8-42.6c-5.2 12.6-8.8 27.1-8.8 42.6s3.6 30 8.8 42.6zM220.7 213.4c-5.2 12.6-8.8 27.1-8.8 42.6s3.6 30 8.8 42.6c5.2-12.6 8.8-27.1 8.8-42.6s-3.6-30-8.8-42.6z"/><g><ellipse class="st0" cx="256" cy="256" rx="8.8" ry="13.2"/><path class="st0" d="M257.3 167.7v75c2.4-5 6.7-19.8 6.7-37.5s-4.3-32.5-6.7-37.5zM254.7 167.7c-2.4 5-6.7 19.8-6.7 37.5s4.3 32.5 6.7 37.5v-75zM257.3 269.2v75c2.4-5 6.7-19.8 6.7-37.5 0-17.6-4.3-32.4-6.7-37.5zM254.7 269.2c-2.4 5-6.7 19.8-6.7 37.5s4.3 32.5 6.7 37.5v-75z"/></g></g></svg>