<svg version="1.1" id="Layer_1" xmlns="http://www.w3.org/2000/svg" x="0" y="0" viewBox="0 0 512 512" xml:space="preserve"><style>.st1{fill:#ffef00}</style><path fill="#e8112d" d="M0 87.7h512v336H0z"/><path class="st1" d="M349.4 282.3s-17.6-2.9-30.6-13.7c-3.8-3.2-9.4-5.6-14.9-7.4 4.4-.2 9-.1 13.4.8 18.1 3.7 35.7-5.1 35.7-5.1s-17.7 1.8-33.1-5.2c-4.2-1.9-9.6-2.8-14.8-3.2 3.8-1.1 7.8-1.9 11.8-2.2 18.5-1 33.3-14 33.3-14s-16.7 6.2-33.4 3.3c-4.9-.8-10.8-.2-16.4.9 3.6-2.3 7.7-4.4 11.8-5.8 17.6-5.8 28.5-22.2 28.5-22.2s-14.5 10.4-31.4 11.9c-5 .5-10.7 2.7-15.8 5.3 3-3.3 6.4-6.5 10.1-9 15.4-10.2 21.6-28.9 21.6-28.9s-11.3 13.8-27.1 19.8c-4.3 1.6-8.8 4.9-12.8 8.4 1.9-3.5 4.2-7 6.9-10 12.3-13.8 13.6-33.4 13.6-33.4s-7.4 16.2-21.3 26c-4 2.8-7.8 7.5-10.9 12.2 1-4.2 2.3-8.6 4.3-12.5 8.3-16.5 4.4-35.8 4.4-35.8s-2.9 17.6-13.7 30.6c-3.2 3.8-5.6 9.4-7.4 14.9-.2-4.4-.1-9 .8-13.4 3.7-18.1-5.1-35.7-5.1-35.7s1.8 17.7-5.2 33.1c-1.9 4.2-2.8 9.6-3.2 14.8-1.1-3.8-1.9-7.8-2.2-11.8-1-18.5-14-33.3-14-33.3s6.2 16.7 3.3 33.4c-.8 4.9-.2 10.8.9 16.4-2.3-3.6-4.4-7.7-5.8-11.8-5.8-17.6-22.2-28.5-22.2-28.5s10.4 14.5 11.9 31.4c.5 5 2.7 10.7 5.3 15.8-3.3-3-6.5-6.4-9-10.1-10.2-15.4-28.9-21.6-28.9-21.6s13.8 11.3 19.8 27.1c1.6 4.3 4.9 8.8 8.4 12.8-3.5-1.9-7-4.2-10-6.9-13.8-12.3-33.4-13.6-33.4-13.6s16.2 7.4 26 21.3c2.8 4 7.5 7.8 12.2 10.9-4.2-1-8.6-2.3-12.5-4.3-16.5-8.3-35.8-4.4-35.8-4.4s17.6 2.9 30.6 13.7c3.8 3.2 9.4 5.6 14.9 7.4-4.4.2-9 .1-13.4-.8-18.1-3.7-35.7 5.1-35.7 5.1s17.7-1.8 33.1 5.2c4.2 1.9 9.6 2.8 14.8 3.2-3.8 1.1-7.8 1.9-11.8 2.2-18.5 1-33.3 14-33.3 14s16.7-6.2 33.4-3.3c4.9.8 10.8.2 16.4-.9-3.6 2.3-7.7 4.4-11.8 5.8-17.6 5.8-28.5 22.2-28.5 22.2s14.5-10.4 31.4-11.9c5-.5 10.7-2.7 15.8-5.3-3 3.3-6.4 6.5-10.1 9-15.4 10.2-21.6 28.9-21.6 28.9s11.3-13.8 27.1-19.8c4.3-1.6 8.8-4.9 12.8-8.4-1.9 3.5-4.2 7-6.9 10-12.3 13.8-13.6 33.4-13.6 33.4s7.4-16.2 21.3-26c4-2.8 7.8-7.5 10.9-12.2-1 4.2-2.3 8.6-4.3 12.5-8.3 16.5-4.4 35.8-4.4 35.8s2.9-17.6 13.7-30.6c3.2-3.8 5.6-9.4 7.4-14.9.2 4.4.1 9-.8 13.4-3.7 18.1 5.1 35.7 5.1 35.7s-1.8-17.7 5.2-33.1c1.9-4.2 2.8-9.6 3.2-14.8 1.1 3.8 1.9 7.8 2.2 11.8 1 18.5 14 33.3 14 33.3s-6.2-16.7-3.3-33.4c.8-4.9.2-10.8-.9-16.4 2.3 3.6 4.4 7.7 5.8 11.8 5.8 17.6 22.2 28.5 22.2 28.5s-10.4-14.5-11.9-31.4c-.5-5-2.7-10.7-5.3-15.8 3.3 3 6.5 6.4 9 10.1 10.2 15.4 28.9 21.6 28.9 21.6s-13.8-11.3-19.8-27.1c-1.6-4.3-4.9-8.8-8.4-12.8 3.5 1.9 7 4.2 10 6.9 13.8 12.3 33.4 13.6 33.4 13.6s-16.2-7.4-26-21.3c-2.8-4-7.5-7.8-12.2-10.9 4.2 1 8.6 2.3 12.5 4.3 16.5 8.3 35.8 4.4 35.8 4.4zM256 300.8c-24.8 0-44.8-20.1-44.8-44.8s20.1-44.8 44.8-44.8 44.8 20.1 44.8 44.8-20.1 44.8-44.8 44.8z"/><path class="st1" d="M241.8 237.9c1-.7 1.9-1.5 2.9-2.2-6.4-2.9-12.1-4.3-16.1-4.9-.6.7-1.2 1.4-1.8 2.2 3.9.8 9.2 2.2 15 4.9zM230.5 228.8c4.3.5 10.5 1.8 17.5 4.7 1.2-.7 2.3-1.3 3.5-1.9-7.5-3.1-14.2-4.2-18.9-4.6-.7.7-1.5 1.2-2.1 1.8zM252.9 249.6l-2.7-2.4c-8.4 8-15.7 19.6-19 36.5 1.2 1.1 2.4 2.2 3.7 3.1 2.4-17.2 9.6-29 18-37.2zM249.7 242.2c1-.8 1.9-1.5 2.9-2.2-1.2-.7-2.3-1.4-3.5-2-1 .7-2 1.3-3 2.1 1.2.6 2.4 1.3 3.6 2.1zM272.9 240c7.2 6.3 13.8 15.2 18.4 27.6 1.2-3.7 2-7.5 2-11.6 0-7.7-2.3-14.9-6.4-20.8-3.6.7-8.6 2.2-14 4.8zM253.2 244.6c.9.7 1.9 1.5 2.8 2.3.9-.8 1.8-1.6 2.8-2.3-.9-.8-1.8-1.5-2.8-2.2-1 .7-1.9 1.4-2.8 2.2zM256 233.8c-1.2.6-2.3 1.3-3.5 2 1.2.6 2.3 1.3 3.5 2 1.2-.7 2.4-1.4 3.5-2-1.2-.8-2.3-1.4-3.5-2zM227.1 279.4c4-16.1 11.4-27.2 19.7-34.8-1.2-.8-2.3-1.6-3.5-2.3-8 7.1-15.3 17.2-19.8 31.9 1.1 1.9 2.3 3.6 3.6 5.2zM239.1 240c-5.4-2.7-10.4-4.1-14.1-4.9-4 6-6.4 13.1-6.4 20.8 0 4.1.8 7.9 2 11.6 4.7-12.3 11.3-21.2 18.5-27.5zM256 229.6c7.9-3.3 15.3-4.4 20.5-4.8-5.9-3.9-12.9-6.2-20.5-6.2s-14.6 2.3-20.5 6.2c5.2.3 12.5 1.5 20.5 4.8zM256 252.8c-7.4 8.3-13.6 20.1-15.6 37.1 4.8 2.2 10 3.5 15.6 3.5s10.8-1.3 15.6-3.5c-2-17-8.2-28.9-15.6-37.1zM268.6 242.4c-1.2.7-2.3 1.5-3.5 2.3 8.3 7.6 15.8 18.7 19.7 34.8 1.3-1.6 2.5-3.3 3.5-5.1-4.4-14.8-11.7-25-19.7-32zM280.8 283.7c-3.3-16.9-10.7-28.5-19-36.5l-2.7 2.4c8.4 8.2 15.6 20 18 37.2 1.3-.9 2.5-2 3.7-3.1zM260.5 231.7c1.2.6 2.3 1.2 3.5 1.9 6.9-3 13.2-4.3 17.5-4.7-.7-.6-1.4-1.1-2.1-1.7-4.7.3-11.4 1.4-18.9 4.5zM262.3 242.2c1.2-.8 2.4-1.5 3.6-2.1-1-.8-2-1.4-3-2.1-1.2.6-2.3 1.3-3.5 2 1 .7 1.9 1.4 2.9 2.2zM270.2 237.9c5.8-2.7 11.1-4.1 15-4.9-.6-.7-1.2-1.5-1.8-2.2-4 .6-9.7 2-16.1 4.9 1 .7 1.9 1.4 2.9 2.2z"/></svg>