<?xml version="1.0" encoding="utf-8"?>
<!-- Generator: Adobe Illustrator 25.0.0, SVG Export Plug-In . SVG Version: 6.00 Build 0)  -->
<svg version="1.1" id="Layer_1" xmlns="http://www.w3.org/2000/svg" xmlns:xlink="http://www.w3.org/1999/xlink" x="0px" y="0px"
	 viewBox="0 0 512 512" style="enable-background:new 0 0 512 512;" xml:space="preserve">
<style type="text/css">
	.st0{fill:#032EA1;}
	.st1{fill:#E00025;}
	.st2{fill:#FFFFFF;}
</style>
<rect y="88.3" class="st0" width="512" height="79.4"/>
<rect y="167.7" class="st1" width="512" height="176.6"/>
<rect y="344.3" class="st0" width="512" height="79.4"/>
<polygon class="st2" points="372.8,322.9 372.8,310.4 368.6,310.4 368.6,302.1 364.5,302.1 364.5,293.7 360.3,293.7 360.3,285.4 
	347.8,285.4 347.8,260.4 347.8,260.4 352,256.2 352,243.7 347.8,243.7 347.8,235.3 343.6,235.3 343.6,222.8 339.4,222.8 
	339.4,214.5 335.3,214.5 335.3,206.1 331.1,206.1 331.1,201.9 322.8,201.9 322.8,206.1 318.6,206.1 318.6,214.5 314.4,214.5 
	314.4,222.8 310.2,222.8 310.2,235.3 306.1,235.3 306.1,243.7 281,243.7 281,231.1 276.9,231.1 276.9,218.6 272.7,218.6 
	272.7,206.1 268.5,206.1 268.5,197.8 264.3,197.8 264.3,189.4 260.2,189.4 260.2,185.3 258.1,185.3 258.1,181.1 253.9,181.1 
	253.9,185.3 251.8,185.3 251.8,189.4 247.7,189.4 247.7,197.8 243.5,197.8 243.5,206.1 239.3,206.1 239.3,218.6 235.1,218.6 
	235.1,231.1 231,231.1 231,243.7 205.9,243.7 205.9,235.3 201.8,235.3 201.8,222.8 197.6,222.8 197.6,214.5 193.4,214.5 
	193.4,206.1 189.2,206.1 189.2,201.9 180.9,201.9 180.9,206.1 176.7,206.1 176.7,214.5 172.6,214.5 172.6,222.8 168.4,222.8 
	168.4,235.3 164.2,235.3 164.2,243.7 160,243.7 160,256.2 164.2,260.4 164.2,260.4 164.2,285.4 151.7,285.4 151.7,293.7 
	147.5,293.7 147.5,302.1 143.4,302.1 143.4,310.4 139.2,310.4 139.2,322.9 135,322.9 135,335.4 377,335.4 377,322.9 "/>
</svg>
