<svg version="1.1" id="Layer_1" xmlns="http://www.w3.org/2000/svg" x="0" y="0" viewBox="0 0 512 512" xml:space="preserve"><style>.st0{fill:#032ea1}</style><path class="st0" d="M0 88.3h512v79.4H0z"/><path fill="#e00025" d="M0 167.7h512v176.6H0z"/><path class="st0" d="M0 344.3h512v79.4H0z"/><path fill="#fff" d="M372.8 322.9v-12.5h-4.2v-8.3h-4.1v-8.4h-4.2v-8.3h-12.5v-25l4.2-4.2v-12.5h-4.2v-8.4h-4.2v-12.5h-4.2v-8.3h-4.1v-8.4h-4.2v-4.2h-8.3v4.2h-4.2v8.4h-4.2v8.3h-4.2v12.5h-4.1v8.4H281v-12.6h-4.1v-12.5h-4.2v-12.5h-4.2v-8.3h-4.2v-8.4h-4.1v-4.1h-2.1v-4.2h-4.2v4.2h-2.1v4.1h-4.1v8.4h-4.2v8.3h-4.2v12.5h-4.2v12.5H231v12.6h-25.1v-8.4h-4.1v-12.5h-4.2v-8.3h-4.2v-8.4h-4.2v-4.2h-8.3v4.2h-4.2v8.4h-4.1v8.3h-4.2v12.5h-4.2v8.4H160v12.5l4.2 4.2v25h-12.5v8.3h-4.2v8.4h-4.1v8.3h-4.2v12.5H135v12.5h242v-12.5z"/></svg>