<svg version="1.1" id="Layer_1" xmlns="http://www.w3.org/2000/svg" x="0" y="0" viewBox="0 0 512 512" xml:space="preserve"><style>.st1{fill:#003f87}.st2{fill:#fff}.st3{fill:#fcd116}</style><path d="M0 88.3V256c25.5 0 25.5 8.8 51.1 8.8s25.6-8.8 51.2-8.8 25.6 8.8 51.2 8.8 25.6-8.8 51.3-8.8c25.6 0 25.6 8.8 51.3 8.8 25.6 0 25.6-8.8 51.1-8.8 25.6 0 25.6 8.8 51.2 8.8s25.6-8.8 51.2-8.8 25.6 8.8 51.2 8.8 25.6-8.8 51.2-8.8h.1v21V88.3H0z" fill="#ce1126"/><path class="st1" d="M102.3 361.9c25.6 0 25.6 8.8 51.2 8.8s25.6-8.8 51.3-8.8 25.6 8.8 51.3 8.8c25.6 0 25.6-8.8 51.1-8.8 25.6 0 25.6 8.8 51.2 8.8s25.6-8.8 51.2-8.8 25.6 8.8 51.2 8.8 25.6-8.8 51.2-8.8h.1v-26.5h-.1c-25.6 0-25.6 8.8-51.2 8.8s-25.6-8.8-51.2-8.8-25.6 8.8-51.2 8.8-25.6-8.8-51.2-8.8-25.6 8.8-51.1 8.8c-25.6 0-25.6-8.8-51.3-8.8s-25.6 8.8-51.3 8.8c-25.6 0-25.6-8.8-51.2-8.8s-25.6 8.8-51.2 8.8-25.6-8.8-51.1-8.8v26.5c25.5 0 25.5 8.8 51.1 8.8 25.6.1 25.6-8.8 51.2-8.8zM0 309c25.5 0 25.5 8.8 51.1 8.8s25.6-8.8 51.2-8.8 25.6 8.8 51.2 8.8 25.6-8.8 51.3-8.8 25.6 8.8 51.3 8.8c25.6 0 25.6-8.8 51.1-8.8 25.6 0 25.6 8.8 51.2 8.8s25.6-8.8 51.2-8.8 25.6 8.8 51.2 8.8 25.6-8.8 51.2-8.8h.1v-26.5h-.1c-25.6 0-25.6 8.8-51.2 8.8s-25.6-8.8-51.2-8.8-25.6 8.8-51.2 8.8-25.6-8.8-51.2-8.8-25.6 8.8-51.1 8.8c-25.6 0-25.6-8.8-51.3-8.8s-25.6 8.8-51.3 8.8c-25.6 0-25.6-8.8-51.2-8.8s-25.6 8.8-51.2 8.8-25.6-8.8-51.1-8.8V309z"/><path class="st2" d="M0 388.4c25.5 0 25.5 8.8 51.1 8.8s25.6-8.8 51.2-8.8 25.6 8.8 51.2 8.8 25.6-8.8 51.3-8.8 25.6 8.8 51.3 8.8c25.6 0 25.6-8.8 51.1-8.8 25.6 0 25.6 8.8 51.2 8.8s25.6-8.8 51.2-8.8 25.6 8.8 51.2 8.8 25.6-8.8 51.2-8.8h.1v-26.5h-.1c-25.6 0-25.6 8.8-51.2 8.8s-25.6-8.8-51.2-8.8-25.6 8.8-51.2 8.8-25.6-8.8-51.2-8.8-25.6 8.8-51.1 8.8c-25.6 0-25.6-8.8-51.3-8.8s-25.6 8.8-51.3 8.8c-25.6 0-25.6-8.8-51.2-8.8s-25.6 8.8-51.2 8.8-25.6-8.8-51.1-8.8v26.5zM0 335.5c25.5 0 25.5 8.8 51.1 8.8s25.6-8.8 51.2-8.8 25.6 8.8 51.2 8.8 25.6-8.8 51.3-8.8 25.6 8.8 51.3 8.8c25.6 0 25.6-8.8 51.1-8.8 25.6 0 25.6 8.8 51.2 8.8s25.6-8.8 51.2-8.8 25.6 8.8 51.2 8.8 25.6-8.8 51.2-8.8h.1V309h-.1c-25.6 0-25.6 8.8-51.2 8.8s-25.6-8.8-51.2-8.8-25.6 8.8-51.2 8.8-25.6-8.8-51.2-8.8-25.6 8.8-51.1 8.8c-25.6 0-25.6-8.8-51.3-8.8s-25.6 8.8-51.3 8.8c-25.6 0-25.6-8.8-51.2-8.8s-25.6 8.8-51.2 8.8S25.5 309 0 309v26.5zM0 282.5c25.5 0 25.5 8.8 51.1 8.8s25.6-8.8 51.2-8.8 25.6 8.8 51.2 8.8 25.6-8.8 51.3-8.8 25.6 8.8 51.3 8.8c25.6 0 25.6-8.8 51.1-8.8 25.6 0 25.6 8.8 51.2 8.8s25.6-8.8 51.2-8.8 25.6 8.8 51.2 8.8 25.6-8.8 51.2-8.8h.1V256h-.1c-25.6 0-25.6 8.8-51.2 8.8s-25.6-8.8-51.2-8.8-25.6 8.8-51.2 8.8-25.6-8.8-51.2-8.8-25.6 8.8-51.1 8.8c-25.6 0-25.6-8.8-51.3-8.8s-25.6 8.8-51.3 8.8c-25.6 0-25.6-8.8-51.2-8.8s-25.6 8.8-51.2 8.8S25.5 256 0 256v26.5z"/><path class="st3" d="M185.7 245.1c7.6-.2 10.9.5 19.8 8.2 1.3 1.2 2.8 2.1 4.3 2.9 20.7 1.1 22.4 8.7 46.2 8.7 23.6 0 25.4-7.5 45.7-8.7-1.2-.7-2.4-1.2-3.6-1.7 14.4-2.8 26-15 26-15-7 3.1-10.3 3.7-21.4 0-2.8-.9-5.7-1.2-8.4-1.2 12.2-8.1 18.3-23.8 18.3-23.8-5.3 5.5-8.1 7.3-19.8 8.2-2.9.2-5.7 1-8.3 2.1 8.2-12.2 7.8-29 7.8-29-2.8 7.1-4.6 9.9-15.1 15.2-2.6 1.3-4.9 3.1-6.8 5.1 2.9-14.4-3.9-29.8-3.9-29.8.2 7.6-.5 10.9-8.2 19.8-1.9 2.2-3.3 4.8-4.4 7.3-2.8-14.4-15-26-15-26 3.1 7 3.7 10.3 0 21.4-.9 2.8-1.2 5.7-1.2 8.4-8.1-12.2-23.8-18.3-23.8-18.3 5.5 5.3 7.3 8.1 8.2 19.8.2 2.9 1 5.7 2.1 8.3-12.2-8.2-29-7.8-29-7.8 7.1 2.8 9.9 4.6 15.2 15.1 1.3 2.6 3.1 4.9 5.1 6.8-14.4-2.9-29.8 4-29.8 4z"/><path d="M190.9 257.1c3.7-.7 8.1-1.1 13.8-1.1 25.6 0 25.6 8.8 51.3 8.8 25.6 0 25.6-8.8 51.1-8.8 5.7 0 10.1.4 13.9 1.1l5.6-1.1-35.2-7 29.8-20-35.2 7 19.9-29.9-29.8 19.9 7-35.2-20 29.8-7-35.2-7 35.2-20-29.8 7 35.2-29.9-19.9 19.9 29.9-35.2-7 29.8 20-35.2 7 5.4 1.1z" fill="#fc9316"/><path class="st3" d="M256 264.8c18.8 0 23.8-4.8 35.3-7.3V256c0-19.5-15.8-35.3-35.3-35.3s-35.3 15.8-35.3 35.3v1.5c11.5 2.6 16.5 7.3 35.3 7.3z"/><path class="st1" d="M512 388.4h-.1c-25.6 0-25.6 8.8-51.2 8.8s-25.6-8.8-51.2-8.8-25.6 8.8-51.2 8.8-25.6-8.8-51.2-8.8-25.6 8.8-51.1 8.8c-25.6 0-25.6-8.8-51.3-8.8-25.6 0-25.6 8.8-51.3 8.8-25.6 0-25.6-8.8-51.2-8.8s-25.6 8.8-51.2 8.8-25.6-8.8-51.1-8.8v35.4H511.8v-17.7c.2-10.7.2-17.7.2-17.7z"/><path class="st3" d="M274.4 135.2c42.9-1.7 64.7-20.4 64.7-20.4-3.1 1.2-51.2 5.2-65 6.4-8.7.7-19.5 10.7-26.3 17.9-1.8-5-5.4-10.2-12.5-11.2-14.5-2.1-52.9-4.5-62.4-9 0 0 6.1 9.5 37.8 13.8 15.2 2.1 23.5 7.3 27.5 10.8l-3.6-.1-6.2-3.1c-6.2-3.1-12.3 2.1-12.3 2.1h-9.8c-1.2 0-1.9 1.4-1.2 2.4l.9 1.3c1 1.3 2.5 2 4.1 2h10c3.6 6.2 17.1 12.6 28.2 12.6 11.1 0 45.3-15.2 48.6-15.2l-30.9-1.1 8.4-9.2z"/></svg>