<?xml version="1.0" encoding="utf-8"?>
<!-- Generator: Adobe Illustrator 25.0.0, SVG Export Plug-In . SVG Version: 6.00 Build 0)  -->
<svg version="1.1" id="Layer_1" xmlns="http://www.w3.org/2000/svg" xmlns:xlink="http://www.w3.org/1999/xlink" x="0px" y="0px"
	 viewBox="0 0 512 512" style="enable-background:new 0 0 512 512;" xml:space="preserve">
<style type="text/css">
	.st0{fill:#3A75C4;}
	.st1{fill:#CE1126;}
	.st2{fill:#FFFFFF;}
	.st3{fill:#FFC61E;}
	.st4{fill:#3D8E33;}
</style>
<rect y="339.7" class="st0" width="512" height="84"/>
<rect y="255.9" class="st1" width="512" height="84"/>
<rect y="172.1" class="st2" width="512" height="84"/>
<rect y="88.3" class="st3" width="512" height="84"/>
<polygon class="st4" points="0,88.3 0,424.3 250.6,256.3 "/>
<g>
	<path class="st2" d="M48.8,256c0-31.9,20.9-58.9,49.7-68.2c1.5-0.5,1.3-2.7-0.3-2.9c-3-0.4-6-0.6-9.1-0.6
		c-39.6,0-71.7,32.1-71.7,71.7s32.1,71.7,71.7,71.7c3.1,0,6.1-0.2,9.1-0.6c1.6-0.2,1.8-2.4,0.3-2.9C69.7,314.9,48.8,287.9,48.8,256z
		"/>
	<path class="st2" d="M98.9,201.2l2,5.9l6.2,0c0.8,0,1.1,1,0.5,1.5l-5,3.7l1.9,6c0.2,0.8-0.6,1.4-1.3,0.9l-5.1-3.6l-5.1,3.6
		c-0.7,0.5-1.5-0.2-1.3-0.9l1.9-6l-5-3.7c-0.7-0.5-0.3-1.5,0.5-1.5l6.2,0l2-5.9C97.5,200.4,98.6,200.4,98.9,201.2z"/>
	<path class="st2" d="M98.9,231.2l2,5.9l6.2,0c0.8,0,1.1,1,0.5,1.5l-5,3.7l1.9,6c0.2,0.8-0.6,1.4-1.3,0.9l-5.1-3.6l-5.1,3.6
		c-0.7,0.5-1.5-0.2-1.3-0.9l1.9-6l-5-3.7c-0.7-0.5-0.3-1.5,0.5-1.5l6.2,0l2-5.9C97.5,230.4,98.6,230.4,98.9,231.2z"/>
	<path class="st2" d="M98.9,261.2l2,5.9l6.2,0c0.8,0,1.1,1,0.5,1.5l-5,3.7l1.9,6c0.2,0.8-0.6,1.4-1.3,0.9l-5.1-3.6l-5.1,3.6
		c-0.7,0.5-1.5-0.2-1.3-0.9l1.9-6l-5-3.7c-0.7-0.5-0.3-1.5,0.5-1.5l6.2,0l2-5.9C97.5,260.5,98.6,260.5,98.9,261.2z"/>
	<path class="st2" d="M98.9,291.2l2,5.9l6.2,0c0.8,0,1.1,1,0.5,1.5l-5,3.7l1.9,6c0.2,0.8-0.6,1.4-1.3,0.9l-5.1-3.6l-5.1,3.6
		c-0.7,0.5-1.5-0.2-1.3-0.9l1.9-6l-5-3.7c-0.7-0.5-0.3-1.5,0.5-1.5l6.2,0l2-5.9C97.5,290.5,98.6,290.5,98.9,291.2z"/>
</g>
</svg>
