<svg version="1.1" id="Layer_1" xmlns="http://www.w3.org/2000/svg" x="0" y="0" viewBox="0 0 512 512" xml:space="preserve"><style>.st2{fill:#fff}</style><path fill="#3a75c4" d="M0 339.7h512v84H0z"/><path fill="#ce1126" d="M0 255.9h512v84H0z"/><path class="st2" d="M0 172.1h512v84H0z"/><path fill="#ffc61e" d="M0 88.3h512v84H0z"/><path fill="#3d8e33" d="M0 88.3v336l250.6-168z"/><path class="st2" d="M48.8 256c0-31.9 20.9-58.9 49.7-68.2 1.5-.5 1.3-2.7-.3-2.9-3-.4-6-.6-9.1-.6-39.6 0-71.7 32.1-71.7 71.7s32.1 71.7 71.7 71.7c3.1 0 6.1-.2 9.1-.6 1.6-.2 1.8-2.4.3-2.9-28.8-9.3-49.7-36.3-49.7-68.2z"/><path class="st2" d="M98.9 201.2l2 5.9h6.2c.8 0 1.1 1 .5 1.5l-5 3.7 1.9 6c.2.8-.6 1.4-1.3.9l-5.1-3.6-5.1 3.6c-.7.5-1.5-.2-1.3-.9l1.9-6-5-3.7c-.7-.5-.3-1.5.5-1.5h6.2l2-5.9c.2-.8 1.3-.8 1.6 0zM98.9 231.2l2 5.9h6.2c.8 0 1.1 1 .5 1.5l-5 3.7 1.9 6c.2.8-.6 1.4-1.3.9l-5.1-3.6-5.1 3.6c-.7.5-1.5-.2-1.3-.9l1.9-6-5-3.7c-.7-.5-.3-1.5.5-1.5h6.2l2-5.9c.2-.8 1.3-.8 1.6 0zM98.9 261.2l2 5.9h6.2c.8 0 1.1 1 .5 1.5l-5 3.7 1.9 6c.2.8-.6 1.4-1.3.9l-5.1-3.6-5.1 3.6c-.7.5-1.5-.2-1.3-.9l1.9-6-5-3.7c-.7-.5-.3-1.5.5-1.5h6.2l2-5.9c.2-.7 1.3-.7 1.6 0zM98.9 291.2l2 5.9h6.2c.8 0 1.1 1 .5 1.5l-5 3.7 1.9 6c.2.8-.6 1.4-1.3.9l-5.1-3.6-5.1 3.6c-.7.5-1.5-.2-1.3-.9l1.9-6-5-3.7c-.7-.5-.3-1.5.5-1.5h6.2l2-5.9c.2-.7 1.3-.7 1.6 0z"/></svg>