<?xml version="1.0" encoding="utf-8"?>
<!-- Generator: Adobe Illustrator 25.0.0, SVG Export Plug-In . SVG Version: 6.00 Build 0)  -->
<svg version="1.1" id="Layer_1" xmlns="http://www.w3.org/2000/svg" xmlns:xlink="http://www.w3.org/1999/xlink" x="0px" y="0px"
	 viewBox="0 0 512 512" style="enable-background:new 0 0 512 512;" xml:space="preserve">
<style type="text/css">
	.st0{fill:#009E49;}
	.st1{fill:#CE1126;}
	.st2{fill:#FCD116;}
	.st3{fill:#FFFFFF;}
</style>
<polygon class="st0" points="0,87.7 0,333.4 374.4,87.7 "/>
<polygon class="st1" points="512,423.7 512,178 137.6,423.7 "/>
<polygon points="415.4,87.7 0,360.3 0,423.7 0,423.7 96.6,423.7 512,151.1 512,87.7 512,87.7 "/>
<polygon class="st2" points="374.4,87.7 0,333.4 0,360.3 415.4,87.7 "/>
<polygon class="st2" points="137.6,423.7 512,178 512,151.1 96.6,423.7 "/>
<g>
	<path class="st3" d="M156,275.9l18.1,14.6l19.7-12.4c2.5-1.6,5.7,1,4.6,3.8l-8.3,21.7l17.9,14.9c2.3,1.9,0.8,5.7-2.2,5.5l-23.2-1.2
		l-8.6,21.6c-1.1,2.8-5.1,2.6-5.9-0.3l-6.1-22.5l-23.2-1.5c-3-0.2-4-4.1-1.5-5.8l19.5-12.7l-5.7-22.5
		C150.3,276.2,153.7,274,156,275.9z"/>
	<path class="st3" d="M323,166.3l18.1,14.6l19.7-12.4c2.5-1.6,5.7,1,4.6,3.8l-8.3,21.7l17.9,14.9c2.3,1.9,0.8,5.7-2.2,5.5l-23.2-1.2
		l-8.6,21.6c-1.1,2.8-5.1,2.6-5.9-0.3L329,212l-23.2-1.5c-3-0.2-4-4.1-1.5-5.8l19.5-12.7l-5.7-22.5
		C317.3,166.6,320.7,164.4,323,166.3z"/>
</g>
<polygon class="st0" points="0,423.7 0,423.7 0,423.7 "/>
<polygon class="st0" points="512,87.7 512,87.7 512,87.7 "/>
</svg>
