<svg version="1.1" id="Layer_1" xmlns="http://www.w3.org/2000/svg" x="0" y="0" viewBox="0 0 512 512" xml:space="preserve"><style>.st0{fill:#009e49}.st2{fill:#fcd116}.st3{fill:#fff}</style><path class="st0" d="M0 87.7v245.7L374.4 87.7z"/><path fill="#ce1126" d="M512 423.7V178L137.6 423.7z"/><path d="M415.4 87.7L0 360.3v63.4h96.6L512 151.1V87.7z"/><path class="st2" d="M374.4 87.7L0 333.4v26.9L415.4 87.7zM137.6 423.7L512 178v-26.9L96.6 423.7z"/><path class="st3" d="M156 275.9l18.1 14.6 19.7-12.4c2.5-1.6 5.7 1 4.6 3.8l-8.3 21.7 17.9 14.9c2.3 1.9.8 5.7-2.2 5.5l-23.2-1.2-8.6 21.6c-1.1 2.8-5.1 2.6-5.9-.3l-6.1-22.5-23.2-1.5c-3-.2-4-4.1-1.5-5.8l19.5-12.7-5.7-22.5c-.8-2.9 2.6-5.1 4.9-3.2zM323 166.3l18.1 14.6 19.7-12.4c2.5-1.6 5.7 1 4.6 3.8l-8.3 21.7 17.9 14.9c2.3 1.9.8 5.7-2.2 5.5l-23.2-1.2-8.6 21.6c-1.1 2.8-5.1 2.6-5.9-.3L329 212l-23.2-1.5c-3-.2-4-4.1-1.5-5.8l19.5-12.7-5.7-22.5c-.8-2.9 2.6-5.1 4.9-3.2z"/><path class="st0" d="M0 423.7zM512 87.7z"/></svg>