<svg version="1.1" id="Layer_1" xmlns="http://www.w3.org/2000/svg" x="0" y="0" viewBox="0 0 512 512" xml:space="preserve"><style>.st0{fill:#024fa2}.st1{fill:#fff}.st2{fill:#ed1c27}</style><path class="st0" d="M0 88.3h512v44.1H0z"/><path class="st1" d="M0 132.4h512v17.7H0zM0 361.9h512v17.7H0z"/><path class="st2" d="M0 150.1h512V362H0z"/><path class="st0" d="M0 379.6h512v44.1H0z"/><circle class="st1" cx="141.2" cy="256" r="70.6"/><path class="st2" d="M143.1 191.7l14.2 42.5 44.8.3c1.9 0 2.7 2.4 1.2 3.6l-36 26.6 13.5 42.7c.6 1.8-1.5 3.3-3 2.2l-36.4-26-36.4 26c-1.5 1.1-3.6-.4-3-2.2l13.5-42.7-36-26.6c-1.5-1.1-.7-3.6 1.2-3.6l44.8-.3 14.2-42.5c.3-1.8 2.8-1.8 3.4 0z"/></svg>