<?xml version="1.0" encoding="utf-8"?>
<!-- Generator: Adobe Illustrator 25.0.0, SVG Export Plug-In . SVG Version: 6.00 Build 0)  -->
<svg version="1.1" id="Layer_1" xmlns="http://www.w3.org/2000/svg" xmlns:xlink="http://www.w3.org/1999/xlink" x="0px" y="0px"
	 viewBox="0 0 512 512" style="enable-background:new 0 0 512 512;" xml:space="preserve">
<style type="text/css">
	.st0{fill:#024FA2;}
	.st1{fill:#FFFFFF;}
	.st2{fill:#ED1C27;}
</style>
<rect y="88.3" class="st0" width="512" height="44.1"/>
<rect y="132.4" class="st1" width="512" height="17.7"/>
<rect y="361.9" class="st1" width="512" height="17.7"/>
<rect y="150.1" class="st2" width="512" height="211.9"/>
<rect y="379.6" class="st0" width="512" height="44.1"/>
<circle class="st1" cx="141.2" cy="256" r="70.6"/>
<path class="st2" d="M143.1,191.7l14.2,42.5l44.8,0.3c1.9,0,2.7,2.4,1.2,3.6l-36,26.6l13.5,42.7c0.6,1.8-1.5,3.3-3,2.2l-36.4-26
	l-36.4,26c-1.5,1.1-3.6-0.4-3-2.2l13.5-42.7l-36-26.6c-1.5-1.1-0.7-3.6,1.2-3.6l44.8-0.3l14.2-42.5
	C140,189.9,142.5,189.9,143.1,191.7z"/>
</svg>
