<svg xmlns="http://www.w3.org/2000/svg" viewBox="0 0 512 512"><path fill="#fff" d="M0 88.3h512v336H0z"/><path d="M305 182.5c-40.6-27-95.4-16-122.4 24.5-13.6 20.2-8 47.7 12.2 61.2 20.3 13.5 47.6 8 61.2-12.3 13.5-20.3 40.9-25.7 61.2-12.3 20.3 13.5 25.8 41 12.2 61.2 27.1-40.4 16.1-95.2-24.4-122.3" fill="#c60c30"/><path d="M182.6 207c-13.6 20.2-8 47.7 12.2 61.2 20.3 13.5 47.6 8 61.2-12.3 13.5-20.3 40.9-25.7 61.2-12.3 20.3 13.5 25.8 41 12.2 61.2-27 40.6-81.8 51.5-122.3 24.5-40.5-26.9-51.5-81.7-24.5-122.3" fill="#00347b"/><path d="M349.9 149.2l16 24.1c1.3 2 .8 4.8-1.2 6.1l-4.1 2.7c-2 1.4-4.8.8-6.1-1.2l-16.1-24.1c-1.4-2-.8-4.8 1.2-6.1l4.1-2.7c2.1-1.4 4.9-.8 6.2 1.2zM374.7 186.4l16.1 24.1c1.4 2 .8 4.8-1.2 6.1l-4.1 2.7c-2 1.3-4.8.8-6.1-1.2L363.2 194c-1.4-2-.8-4.8 1.2-6.1l4.1-2.7c2.1-1.4 4.8-.9 6.2 1.2zM367.1 137.7l40.8 61.3c1.4 2 .8 4.8-1.2 6.1l-4.1 2.7c-2 1.4-4.8.8-6.1-1.2l-40.8-61.3c-1.4-2-.8-4.8 1.2-6.1l4.1-2.7c2-1.3 4.7-.8 6.1 1.2zM384.2 126.3l16.1 24.1c1.4 2 .8 4.8-1.2 6.1l-4.1 2.7c-2 1.3-4.8.8-6.1-1.2l-16.1-24.1c-1.4-2-.8-4.8 1.2-6.1l4.1-2.7c2-1.4 4.8-.8 6.1 1.2zM409 163.5l16 24.1c1.4 2 .8 4.8-1.2 6.1l-4.1 2.7c-2 1.4-4.8.8-6.1-1.2l-16-24.1c-1.3-2-.8-4.8 1.2-6.1l4.1-2.7c2-1.3 4.7-.8 6.1 1.2zM132.7 294l40.8 61.2c1.4 2 .8 4.8-1.2 6.1l-4.1 2.7c-2 1.4-4.8.8-6.1-1.2l-40.8-61.2c-1.4-2-.8-4.8 1.2-6.1l4.1-2.7c2-1.4 4.8-.8 6.1 1.2zM115.6 305.4l16 24c1.4 2 .8 4.8-1.2 6.1l-4.1 2.7c-2 1.4-4.8.8-6.1-1.2l-16-24c-1.4-2-.8-4.8 1.2-6.1l4.1-2.7c2-1.3 4.7-.8 6.1 1.2zM140.4 342.6l16 24.1c1.4 2 .8 4.8-1.2 6.1l-4.1 2.7c-2 1.4-4.8.8-6.1-1.2l-16.1-24.1c-1.4-2-.8-4.8 1.2-6.1l4.1-2.7c2.1-1.4 4.8-.8 6.2 1.2zM98.4 316.9l40.8 61.2c1.4 2 .8 4.8-1.2 6.1l-4.1 2.7c-2 1.4-4.8.8-6.1-1.2L87 324.5c-1.4-2-.8-4.8 1.2-6.1l4.1-2.7c2-1.4 4.8-.9 6.1 1.2zM121.3 210.4l40.8-61.3c1.4-2 4.1-2.6 6.1-1.2l4.1 2.7c2 1.4 2.6 4.1 1.2 6.1L132.7 218c-1.4 2-4.1 2.6-6.1 1.2l-4.1-2.7c-2-1.3-2.6-4-1.2-6.1zM104.1 199l40.8-61.3c1.4-2 4.1-2.6 6.1-1.2l4.1 2.7c2 1.4 2.6 4.1 1.2 6.1l-40.8 61.3c-1.4 2-4.1 2.6-6.1 1.2l-4.1-2.7c-2-1.3-2.5-4.1-1.2-6.1zM87 187.6l40.8-61.3c1.4-2 4.1-2.6 6.1-1.2l4.1 2.7c2 1.4 2.6 4.1 1.2 6.1l-40.8 61.3c-1.4 2-4.1 2.6-6.1 1.2l-4.1-2.7c-2-1.3-2.6-4-1.2-6.1zM338.5 355.2l16-24c1.4-2 4.1-2.6 6.1-1.2l4.1 2.7c2 1.4 2.6 4.1 1.2 6.1l-16 24c-1.4 2-4.1 2.6-6.1 1.2l-4.1-2.7c-2-1.3-2.6-4.1-1.2-6.1zM363.2 318.1l16.1-24.2c1.4-2 4.1-2.6 6.1-1.2l4.1 2.7c2 1.4 2.6 4.1 1.2 6.1l-16.1 24.1c-1.4 2-4.1 2.6-6.1 1.2l-4.1-2.7c-2-1.2-2.5-3.9-1.2-6zM355.6 366.7l16.1-24.1c1.4-2 4.1-2.6 6.1-1.2l4.1 2.7c2 1.4 2.6 4.1 1.2 6.1l-16 24.1c-1.4 2-4.1 2.6-6.1 1.2l-4.1-2.7c-2.1-1.3-2.6-4.1-1.3-6.1zM380.4 329.5l16.1-24c1.4-2 4.1-2.6 6.1-1.2l4.1 2.7c2 1.4 2.6 4.1 1.2 6.1l-16.1 24c-1.4 2-4.1 2.6-6.1 1.2l-4.1-2.7c-2-1.4-2.6-4.1-1.2-6.1zM372.8 378.1l16.1-24.1c1.4-2 4.1-2.6 6.1-1.2l4.1 2.7c2 1.3 2.6 4.1 1.2 6.1l-16.1 24.1c-1.4 2-4.1 2.6-6.1 1.2l-4.1-2.7c-2-1.3-2.6-4.1-1.2-6.1zM397.6 341l16-24.1c1.4-2 4.1-2.6 6.1-1.2l4.1 2.7c2 1.4 2.6 4.1 1.2 6.1l-16 24.1c-1.3 2-4.1 2.6-6.1 1.2l-4.1-2.7c-2-1.4-2.6-4.1-1.2-6.1z"/></svg>