<svg version="1.1" id="Layer_1" xmlns="http://www.w3.org/2000/svg" x="0" y="0" viewBox="0 0 512 512" xml:space="preserve"><style>.st0{fill:#012169}.st1{fill:#fff}.st2{fill:#c8102e}.st3{fill:#fdec9a}.st4{fill:#fbd66a}.st5{fill:#06a046}.st6{fill:#00571b}</style><path class="st0" d="M256.1 88v168.2H0V424h512V88z"/><g id="Union_flag"><path class="st0" d="M0 88h256.1v168.2H0z"/><path class="st1" d="M106 150.1v-7.9L22.7 88H0v17l69.3 45.1zM106 194.1H70.8L0 240.1v16.1h24.2l81.8-53.3zM233.9 88L150 142.5v7.6h37.3l68.8-44.8V88zM150 194.1v8.5l82.5 53.6h23.6v-16.4l-70.2-45.7z"/><path class="st1" d="M256.1 150.1H150V88h-44v62.1H0v44h106v62.1h44v-62.1h106.1z"/><path class="st2" d="M256.1 158.8H141.3V88h-26.5v70.8H0v26.5h114.8v70.9h26.5v-70.9h114.8z"/><path class="st2" d="M97.2 150.1L1.7 88H0v9.6l80.7 52.5zM106 194.1H89.6L0 252.4v3.8h10.6zM157.3 194.1l95.5 62.1h3.3v-8.6l-82.3-53.5zM245.4 88L150 150v.1h16.4l89.7-58.3V88z"/></g><g id="shield"><path class="st3" d="M383.8 172.2s-3.7-14.8-14.8-22.1c0 0 11.1 18.5 11.1 33.2l3.7-11.1z"/><path class="st3" d="M366.8 156.2s7.7 4.7 11.9 12.5l-3.3 7.7c-.1 0-2.9-11-8.6-20.2z"/><path class="st3" d="M358.2 157.9s13.4 4.2 19.7 12.8l-3.8 5.8s-5-9.8-15.9-18.6z"/><path class="st3" d="M356.3 164.6s14.1 2.2 20.4 8.9l-1.6 6.3s-7.8-9.2-18.8-15.2z"/><path class="st3" d="M356.7 169.2s13.6 1.4 19.8 8.5c6.2 7.2-2.3 5-2.3 5s-7.1-8.2-17.5-13.5zM383.8 172.2s3.7-14.8 14.8-22.1c0 0-11.1 18.5-11.1 33.2l-3.7-11.1z"/><path class="st3" d="M400.9 156.2s-7.7 4.7-11.9 12.5l3.3 7.7c.1 0 2.8-11 8.6-20.2z"/><path class="st3" d="M409.4 157.9s-13.4 4.2-19.7 12.8l3.8 5.8s5.1-9.8 15.9-18.6z"/><path class="st3" d="M411.4 164.6s-14.1 2.2-20.4 8.9l1.6 6.3s7.7-9.2 18.8-15.2z"/><path class="st3" d="M410.9 169.2s-13.6 1.4-19.8 8.5c-6.2 7.2 2.3 5 2.3 5s7.2-8.2 17.5-13.5zM383.8 150.1s-3.7 7.8 0 11.7c3.7-4 0-11.7 0-11.7z"/><path class="st3" d="M380.1 152s-.5 8.6 4.4 10.8c2-5-4.4-10.8-4.4-10.8z"/><path class="st3" d="M387.5 152s.5 8.6-4.4 10.8c-1.9-5 4.4-10.8 4.4-10.8z"/><path class="st3" d="M388.7 156.9s-3.2 8-8.6 7.9c.4-5.3 8.6-7.9 8.6-7.9z"/><path class="st3" d="M378.9 156.9s3.2 8 8.6 7.9c-.3-5.3-8.6-7.9-8.6-7.9z"/><ellipse class="st4" cx="383.8" cy="175.9" rx="11.1" ry="14.8"/><path class="st5" d="M358.5 191l-2.5-3.9s-7.4 1.8-9.2-3.8l-2.8-.2s.4-3.8 3.7-4.3c0 0 2-2.5 5.5-2s5.4 3.5 7.4 4.2c2 .8 2.3 3.3 2.3 3.3l15.5 15.9s-4.5 5.7-8.5 7.5c-3.9 1.9-18.6-7.1-11.4-16.7zM409 193.9s6.5 4.4 6.7 16.5H405s.1-8.2-2-12.6l6-3.9z"/><path class="st5" d="M407.6 194.4s8.1 2.7 13-3.7l-8.4-1.2-4.6 4.9z"/><path class="st5" d="M405.2 185.5l8.2 2.8c1 .3 1.4 1.6.7 2.4-3.1 3.5-12.4 11.9-27.4 11.9-19.5 0-24.5-12.3-24.8-13.2-.2-.9-1.3-8.4-1.3-8.4l8.3-.9 36.3 5.4z"/><path class="st2" d="M325.4 298.4h21.5l-11.1 21.5-11-14.8zM442.2 298.4h-21.5l11.1 21.5 11.1-14.8z"/><path class="st4" d="M325.4 334.6c-10.6 0-18.7-5.7-19.1-6l8.5-12.1c.1 0 7.2 4.9 14.5 2.7 7.4-2.2 12.2-10.9 15-17.9l13.7 5.5c-5.8 14.5-14.1 23.5-24.7 26.6-2.7.9-5.4 1.2-7.9 1.2zM442.3 334.6c10.6 0 18.7-5.7 19.1-6l-8.5-12.1c-.1 0-7.2 4.9-14.5 2.7-7.4-2.2-12.2-10.9-15-17.9l-13.7 5.5c5.8 14.5 14.1 23.5 24.7 26.6 2.7.9 5.4 1.2 7.9 1.2z"/><path class="st2" d="M431.8 257.1h-96v-35.5c0-4.9 4-8.8 8.8-8.8H423c4.9 0 8.8 4 8.8 8.8v35.5z"/><path class="st3" d="M362 238.7l-1.2-7.4c-5.4-.2-8.5-6.6-8.5-6.6l-4.4 2.4c4.7 11.1 14.1 11.6 14.1 11.6z"/><path class="st3" d="M419.8 231.1c1.6-1.2 5.2-1.7 5.2-1.7-2.5-2.6-5.3-.8-5.3-.8 2.3-2.2 1-5.2 1-5.2 0 1-1.6 1.7-1.6 1.7.1-2-2-3.9-2-3.9L416 223c-.7-1.7-3.2-3-3.2-3l-1 4.2c-2.3-2-6.4-1.8-6.4-1.8l.8 1.9c-2.5.1-9.2 1.5-13.1 1.9s-7.1-.6-7.1-2.4c0-1.5 3.4-1.7 4.9-1.7 1 .2 2.4.6 4.2 1.2 3.5 1 5.5-.5 5.5-.5-1.2-.5-1.3-1-1.3-1 2.6-1.5 5-1.1 5-1.1-.9-1.9-4.6-1.8-4.6-1.8 1-.5 1.7-2.1 1.7-2.1-.2.2-2.4.8-5.3 1.1-2.2.3-4.2 2-5.1 2.7-2.3-.2-8.3-.2-7.3 3.9 1.3 5.2 11.7 3.3 18.1 2.3s9.7-.2 11.1.7c1.4.8-.6 3.7-7.1 2.5-5.6-1-8.7-1-10.4-.9-1.9.1-3.5.6-4.6.9-2.5.5-12.3 4-14.2-1-1.8-5-10.8 8.2-10.8 8.2l.7.8-2.4-.6c-3.2 4.3-12.9 5.7-12.9 5.7s-1.4-2.6-2.7-2.9c-1.2-.3-1.7 1.6-1.7 1.6s-1.4.1-1.6 1.4c-.1 1.3 1 1.4 1 1.4s-1.4 2 .9 2.6c0 0-.2 2.8 3.2.9 10.1 1.3 17.5-3.9 20.7-6.7 2.1.1 5.3.1 7.8-1.2 4-2.1 8.6-4.7 11.3-3.7 0 0 2.2 6.6-6.3 6.8 0 0-1.3-1.6-2.5-1.6-.5 0-1.1.7-.9 1.2 0 0-1.5-.1-1.7.8-.2.7.3 1.5 1.4 1.4 0 0-.7 1.1 0 1.7s1.7 0 1.7 0-.4 1.3.5 1.5c.8.1 1.8-1.2 2.1-1.6 1.4.2 10.6 1.3 12.6-8.4 0 0 4.6 2 9.2 1.6 4.5-.4 9 .3 8.6 2.5-.5 1.6-1.5 1.5-1.5 1.5-1.1-.4-2.9-.4-3.2 1.2-.3 1.6 1.9 1.6 1.9 1.6.6 1.4 2.3.8 2.3.8 1.5 1.1 2.5-.1 2.5-.1.7.6 1.3.7 2 .1.6-.5.3-4 .2-5.2-.1-2.1-.4-7.5-3.4-7.5-3-.1-6.8 1.7-12.2-2.8-.3-.2-.5-.4-.8-.6 2.5.2 4.3.9 6.1 1.2 2.5.3 9.5-.3 11.1-1.5zM348 227.1s-1.5 0-2.2-.2c-1.2-.4-1.4-2.3-.1-2.7 0 0-1.6-1.1-.9-2.3.6-1 2.1-1 2.6-.4 0 0-.5-1.6.9-2.1 1.1-.4 2 .9 2 2.5 0 0 1.7-1.4 2.5-.5.6.6.4 1.5-.6 3.2-.9 1.9-4.2 2.5-4.2 2.5z"/><g><path class="st0" d="M346.1 226.4s-.8 1.3-3 .5c0 0 2-.9 2.2-1.7l.8 1.2zM345.3 222.5s-1.2-.8-2.6-.7c0 0 2-1.5 3.7-.2l-1.1.9zM348.1 220.4s.4-1.4-.4-2.2c0 0 1.6.7 1.8 2l-1.4.2zM351.7 221.9s.8-1.7.1-2.6c0 0 2.1 1.2 1.2 3.2l-1.3-.6zM347.6 241.2s-.8-1.7-1.9-1.7c0 0 2.3-.8 3.2 1.1l-1.3.6zM345.8 243.3s-1.5-1.2-2.5-.7c0 0 1.7-1.7 3.4-.4l-.9 1.1zM346.8 246.4s-1.9 0-2.4.9c0 0 .3-2.4 2.5-2.4l-.1 1.5zM348.6 248.4s-.8 1.3-3 .5c0 0 2-.9 2.2-1.7l.8 1.2zM382.9 247.7s-.6 1.1-2.5.4c0 0 1.5-.5 1.7-1.2l.8.8z"/></g><path class="st4" d="M363.4 223.9s-4.2 7.1-3.2 17.3c0 0 12.2-1.8 17.6-14 0 0 1.3-.5 1.8-1.8.4-1.1.4-2.8-1.7-2.8 0 0 .6-1.2 1.4-1.5 0 0-1.3-.5-2.9-.2 0 0 1.2-1.2 1.2-2.8 0 0-1.8 1.2-3 1.3 0 0-.1-1.9.3-2.1 0 0-2.4.2-3.6 1.5 0 0-.8-1.1-.8-2.2 0 0-2.2 1-3.1 2.4 0 0-.7-.8-.6-1.5 0 0-1.6 2-2 3 0 0-1.5-.4-2.2.8-.4.9-.3 1.9.8 2.6z"/><g><path class="st0" d="M381.1 242.6s-.5-.9-2-1.1c0 0 1.9-.9 3.1.4l-1.1.7zM411.6 246.1s-1.1.3-1.6 1.9c0 0-.6-2.2 1-3.2l.6 1.3zM413.9 246.9s-1 1-1 2.6c0 0-1.3-1.8-.1-3.3l1.1.7zM418.7 246.8s-.3 1.1.6 2.2c0 0-1.9-.6-2-2.3l1.4.1zM416.4 247.2s-.8.8-.6 2.4c0 0-1.5-1.3-.6-2.9l1.2.5zM379.5 244.5s-1-.4-2.2.5c0 0 .8-1.9 2.5-1.8l-.3 1.3zM380.8 246.6s-1-.3-2.2.7c0 0 .2-1.8 1.9-1.9l.3 1.2z"/></g><path class="st1" d="M431.8 263.1c-8 0-8 7.2-16 7.2s-8-7.2-16-7.2-8 7.2-16 7.2-8-7.2-16-7.2-8 7.2-16 7.2-8-7.2-16-7.2v-13.3c8 0 8 7.2 16 7.2s8-7.2 16-7.2 8 7.2 16 7.2 8-7.2 16-7.2 8 7.2 16 7.2 8-7.2 16-7.2v13.3z"/><path class="st0" d="M415.8 270.3c-8 0-8-7.2-16-7.2s-8 7.2-16 7.2-8-7.2-16-7.2-8 7.2-16 7.2-8-7.2-15.9-7.2c.1 3.2.5 7.9 1.4 13.5 6.5.9 7.1 7.1 14.5 7.1 8 0 8-7.2 16-7.2s8 7.2 16 7.2 8-7.2 16-7.2 8 7.2 16 7.2c7.5 0 8-6.2 14.6-7.1.9-5.6 1.3-10.3 1.4-13.5-8 0-8 7.2-16 7.2z"/><path class="st1" d="M415.8 283.6c-8 0-8-7.2-16-7.2s-8 7.2-16 7.2-8-7.2-16-7.2-8 7.2-16 7.2c-7.4 0-8-6.2-14.5-7.1.7 4.4 1.8 9.3 3.5 14.4 3.6 2.1 5.2 6 11.1 6 8 0 8-7.2 16-7.2s8 7.2 16 7.2 8-7.2 16-7.2 8 7.2 16 7.2c5.9 0 7.5-3.9 11.1-6 1.6-5.1 2.7-10 3.5-14.4-6.6.9-7.2 7.1-14.7 7.1z"/><path class="st0" d="M415.8 297c-8 0-8-7.2-16-7.2s-8 7.2-16 7.2-8-7.2-16-7.2-8 7.2-16 7.2c-5.9 0-7.5-3.9-11.1-6 2 6.3 4.9 12.9 8.9 19 .7.1 1.4.3 2.2.3 8 0 8-7.2 16-7.2s8 7.2 16 7.2 8-7.2 16-7.2 8 7.2 16 7.2c.8 0 1.5-.1 2.2-.3 4-6.1 6.8-12.7 8.9-19-3.6 2-5.2 6-11.1 6z"/><path class="st1" d="M415.8 310.3c-8 0-8-7.2-16-7.2s-8 7.2-16 7.2-8-7.2-16-7.2-8 7.2-16 7.2c-.8 0-1.5-.1-2.2-.3 2.5 3.9 5.5 7.6 9.1 11 2.4-2.1 4.4-4.6 9.1-4.6 8 0 8 7.2 16 7.2s8-7.2 16-7.2c4.7 0 6.7 2.5 9.1 4.6 3.5-3.4 6.5-7.1 9.1-11-.7.2-1.4.3-2.2.3z"/><path class="st0" d="M408.9 321c-2.5-2.1-4.4-4.6-9.1-4.6-8 0-8 7.2-16 7.2s-8-7.2-16-7.2c-4.7 0-6.7 2.5-9.1 4.6 6.4 6.1 14.6 11 25.1 13.7 10.5-2.7 18.7-7.6 25.1-13.7z"/><g><path class="st1" d="M399.8 249.7c-8 0-8 7.2-16 7.2s-8-7.2-16-7.2-8 7.2-16 7.2-8-7.2-16-7.2V263.1c7.9 0 8 7.2 15.9 7.2 8 0 8-7.2 16-7.2s8 7.2 16 7.2 8-7.2 16-7.2 8 7.2 16 7.2 8-7.2 16-7.2v-2.3-11.1c-8 0-8 7.2-16 7.2-7.9.1-7.9-7.2-15.9-7.2z"/><path class="st1" d="M428.1 212.8c2 0 3.7 1.7 3.7 3.7v46.6c-.1 3.2-.5 7.9-1.4 13.5-.7 4.4-1.8 9.3-3.5 14.4-2 6.3-4.9 12.9-8.9 19-2.5 3.9-5.5 7.6-9.1 11-6.4 6.1-14.6 11-25.1 13.6-10.5-2.6-18.7-7.6-25.1-13.7-3.5-3.4-6.5-7.1-9.1-11-4-6.1-6.8-12.7-8.9-19-1.6-5.1-2.7-10-3.5-14.4-.9-5.6-1.3-10.3-1.4-13.5v-2.3V216.4c0-2 1.7-3.7 3.7-3.7l88.6.1m0-2.7h-88.6c-3.6 0-6.5 2.9-6.5 6.5v46.7c.1 3 .4 7.9 1.4 13.9.9 5.1 2.1 10.1 3.6 14.8 2.3 7.3 5.4 13.9 9.2 19.7 2.8 4.3 5.9 8.1 9.5 11.5 7.3 7 16.2 11.8 26.4 14.3l.7.2.7-.2c10.1-2.5 19-7.4 26.4-14.3 3.5-3.3 6.7-7.2 9.5-11.5 3.8-5.8 6.8-12.4 9.2-19.7 1.5-4.7 2.7-9.7 3.6-14.8 1-6 1.3-10.8 1.4-13.9v-46.7c0-3.6-2.9-6.5-6.5-6.5z"/></g><path class="st6" d="M383.8 312.3l-10.1 7.1 3.6-11.8-9.9-7.5 12.4-.2 4-11.7 4.1 11.7 12.3.2-9.8 7.5 3.6 11.8z"/><path class="st3" d="M383.8 290.5l3.5 10.1 10.7.2-8.5 6.5 3.1 10.3-8.8-6.1-8.8 6.1 3.1-10.3-8.5-6.5 10.7-.2 3.5-10.1m0-4.6l-1.4 4.1-3.2 9.1-9.7.2-4.3.1 3.4 2.6 7.7 5.8-2.8 9.3-1.2 4.1 3.5-2.5 7.9-5.5 7.9 5.5 3.5 2.5-1.2-4.1-2.8-9.3 7.7-5.8 3.4-2.6-4.3-.1-9.7-.2-3.2-9.1-1.2-4.1z"/><path class="st6" d="M361.6 283.5l-10.1 7.1 3.5-11.8-9.8-7.5 12.3-.2 4.1-11.7 4 11.7 12.4.2-9.9 7.5 3.6 11.8z"/><path class="st3" d="M361.6 261.7l3.5 10.1 10.7.2-8.5 6.5 3.1 10.3-8.8-6.1-8.8 6.1 3.1-10.3-8.5-6.5 10.7-.2 3.5-10.1m0-4.6l-1.4 4.1-3.2 9.1-9.7.2-4.3.1 3.4 2.6 7.7 5.8-2.8 9.3-1.2 4.1 3.5-2.5 7.9-5.5 7.9 5.5 3.5 2.5-1.2-4.1-2.7-9.3 7.7-5.8 3.4-2.6-4.3-.1-9.7-.2-3.2-9.1-1.3-4.1z"/><path class="st6" d="M405.9 283.5l-10.2 7.1 3.6-11.8-9.8-7.5 12.3-.2 4.1-11.7 4 11.7 12.4.2-9.9 7.5 3.6 11.8z"/><path class="st3" d="M405.9 261.7l3.5 10.1 10.7.2-8.5 6.5 3.1 10.3-8.8-6.1-8.8 6.1 3.1-10.3-8.5-6.5 10.7-.2 3.5-10.1m0-4.6l-1.4 4.1-3.2 9.1-9.7.2-4.3.1 3.4 2.6 7.7 5.8-2.8 9.3-1.2 4.1 3.5-2.5 7.9-5.5 7.9 5.5 3.5 2.5-1.2-4.1-2.8-9.3 7.7-5.8 3.4-2.6-4.3-.1-9.7-.2-3.2-9.1-1.2-4.1zM442.2 298.4c-9.2 23.3-31.9 39.9-58.4 39.9s-49.2-16.6-58.4-39.9l-13.7 5.4c11.3 28.8 39.3 49.3 72.1 49.3s60.8-20.5 72.1-49.3l-13.7-5.4z"/><g><path class="st1" d="M391.2 212.8h-11.1l-3.7-11h11.1zM409.7 212.8h-7.4l-2.5-7.4h3.4c2.4 0 4.5 1.5 5.3 3.8l1.2 3.6zM369.1 212.8h-7.4l-.8-2.5c-.8-2.4 1-4.9 3.5-4.9h2.3l2.4 7.4z"/></g><g><path class="st0" d="M402.3 212.8h-11.1l-3.7-11.1h8.4c1.6 0 3 1 3.5 2.5l2.9 8.6zM380.1 212.8H369l-2.5-7.5c-.6-1.8.7-3.6 2.6-3.6h7.3l3.7 11.1z"/></g><path d="M410.9 187.2c-2.9 4.2-11 9.1-24.1 9.1-10.8 0-17.8-6.5-20.1-9.1-.6-.6-.9-1.4-.9-2.3v-2.5c0-1.1.6-2.1 1.5-2.6 2.3-1.4 7.8-3.5 18.5-3.5 13.3 0 25.1 10.9 25.1 10.9z" fill="#00584c"/></g></svg>