<svg version="1.1" id="Layer_1" xmlns="http://www.w3.org/2000/svg" x="0" y="0" viewBox="0 0 512 512" xml:space="preserve"><style>.st1{fill:#fec50c}</style><path fill="#00afca" d="M0 87.7h512v336H0z"/><path class="st1" d="M59.5 128.4c-.8-3.4-1-4.6.5-6.1.7-.7.7-1.9 0-2.7s-1.9-.7-2.7 0c-3.1 3.1-2.3 6.3-1.5 9.6-2.4-.8-4.9-.2-6.3 1.5-.7.8-2 3.2.5 7 .6.9 1.7 1.1 2.6.6.9-.6 1.1-1.7.6-2.6-.9-1.4-.9-2.3-.7-2.6.3-.4 1.2-.6 2.2-.2.6.2 2.1 1 2.1 3.3 0 1.8-.8 3.5-2.3 4.6-1.5 1.1-3.4 1.4-5.2.8-2.3-.7-3.8-3.1-3.8-5.8 0-2 .4-3.9 1.2-5.7.1-.3 3-6.3 3.8-8.5 1.5-4.4 0-6.6-1-7.6-1.4-1.2-3.4-1.6-5.1-.8-.3.1-.5.3-.7.4-.2-.2-.4-.3-.7-.4-1.7-.8-3.7-.4-5.1.8-1 .9-2.5 3.2-1 7.6.7 2.2 3.6 8.2 3.7 8.4.8 1.8 1.2 3.8 1.2 5.7 0 2.7-1.6 5.1-3.8 5.8-1.8.6-3.7.3-5.2-.8s-2.3-2.8-2.3-4.6c0-2.3 1.5-3 2.1-3.3 1-.3 1.9-.1 2.2.2.3.3.2 1.2-.7 2.6-.6.9-.3 2.1.6 2.6.9.6 2.1.3 2.6-.6 2.4-3.8 1.1-6.2.5-7-1.3-1.7-3.9-2.3-6.3-1.5.8-3.4 1.5-6.6-1.5-9.6-.7-.7-1.9-.7-2.7 0s-.7 1.9 0 2.7c1.5 1.5 1.3 2.8.5 6.1-.5 2-1.1 4.6-1.1 7.7 0 2.1.7 4.1 2 5.7h-.1c-1 0-1.9.8-1.9 1.9 0 1 .8 1.9 1.9 1.9h.1c-1.2 1.6-2 3.6-2 5.7 0 3.1.6 5.6 1.1 7.7.8 3.4 1 4.6-.5 6.1-.7.7-.7 1.9 0 2.7.4.4.9.6 1.3.6.5 0 1-.2 1.3-.6 3.1-3.1 2.3-6.3 1.5-9.6 2.4.8 4.9.2 6.3-1.5.7-.8 2-3.2-.5-7-.6-.9-1.7-1.1-2.6-.6-.9.6-1.1 1.7-.6 2.6.9 1.4.9 2.3.7 2.6-.3.4-1.2.6-2.2.2-.6-.2-2.1-1-2.1-3.3 0-1.8.8-3.5 2.3-4.6 1.5-1.1 3.4-1.4 5.2-.8 2.3.7 3.8 3.1 3.8 5.8 0 2-.4 3.9-1.2 5.7L28 185.3c-1 2.3-1.5 4.7-1.5 7.2 0 3.2 1.5 6.2 3.8 8-2.3 1.8-3.8 4.8-3.8 8 0 2.5.5 5 1.5 7.2l12.4 27.9c.8 1.8 1.2 3.8 1.2 5.7 0 2.7-1.6 5.1-3.8 5.8-1.8.6-3.7.3-5.2-.8s-2.3-2.8-2.3-4.6c0-2.3 1.5-3 2.1-3.3 1-.3 1.9-.1 2.2.2.3.3.2 1.2-.7 2.6-.6.9-.3 2.1.6 2.6.9.6 2.1.3 2.6-.6 2.4-3.8 1.1-6.2.5-7-1.3-1.7-3.9-2.3-6.3-1.5.8-3.4 1.5-6.6-1.5-9.6-.7-.7-1.9-.7-2.7 0-.7.7-.7 1.9 0 2.7 1.5 1.5 1.3 2.8.5 6.1-.5 2-1.1 4.6-1.1 7.7 0 2.1.7 4.1 2 5.7h-.1c-1 0-1.9.8-1.9 1.9s.8 1.9 1.9 1.9h.1c-1.2 1.6-2 3.6-2 5.7 0 3.1.6 5.6 1.1 7.7.8 3.4 1 4.6-.5 6.1-.7.7-.7 1.9 0 2.7.4.4.9.6 1.3.6.5 0 1-.2 1.3-.6 3.1-3.1 2.3-6.3 1.5-9.6 2.4.8 4.9.2 6.3-1.5.7-.8 2-3.2-.5-7-.6-.9-1.7-1.1-2.6-.6-.9.6-1.1 1.7-.6 2.6.9 1.4.9 2.3.7 2.6-.3.4-1.2.6-2.2.2-.6-.2-2.1-1-2.1-3.3 0-1.8.8-3.5 2.3-4.6 1.5-1.1 3.4-1.4 5.2-.8 2.3.7 3.8 3.1 3.8 5.8 0 2-.4 3.9-1.2 5.7L28 299c-1 2.3-1.5 4.7-1.5 7.2 0 3.2 1.5 6.2 3.8 8-2.3 1.8-3.8 4.8-3.8 8 0 2.5.5 5 1.5 7.2l12.4 27.9c.8 1.8 1.2 3.8 1.2 5.7 0 2.7-1.6 5.1-3.8 5.8-1.8.6-3.7.3-5.2-.8s-2.3-2.8-2.3-4.6c0-2.3 1.5-3 2.1-3.3 1-.3 1.9-.1 2.2.2.3.3.2 1.2-.7 2.6-.6.9-.3 2.1.6 2.6.9.6 2.1.3 2.6-.6 2.4-3.8 1.1-6.2.5-7-1.3-1.7-3.9-2.3-6.3-1.5.8-3.4 1.5-6.6-1.5-9.6-.7-.7-1.9-.7-2.7 0-.7.7-.7 1.9 0 2.7 1.5 1.5 1.3 2.8.5 6.1-.5 2-1.1 4.6-1.1 7.7 0 3 1.4 5.8 3.8 7.6-2.4 1.8-3.8 4.6-3.8 7.6 0 3.1.6 5.6 1.1 7.7.8 3.4 1 4.6-.5 6.1-.7.7-.7 1.9 0 2.7.4.4.9.6 1.3.6.5 0 1-.2 1.3-.6 3.1-3.1 2.3-6.3 1.5-9.6 2.4.8 4.9.2 6.3-1.5.7-.8 2-3.2-.5-7-.6-.9-1.7-1.1-2.6-.6-.9.6-1.1 1.7-.6 2.6.9 1.4.9 2.3.7 2.6-.3.4-1.2.6-2.2.2-.6-.2-2.1-1-2.1-3.3 0-1.8.8-3.5 2.3-4.6 1.5-1.1 3.4-1.4 5.2-.8 2.3.7 3.8 3.1 3.8 5.8 0 2-.4 3.9-1.2 5.7-.1.3-3 6.3-3.8 8.5-1.5 4.4 0 6.6 1 7.6.9.8 2 1.2 3.2 1.2.7 0 1.3-.1 1.9-.4.3-.1.5-.3.7-.4.2.2.4.3.7.4.6.3 1.3.4 1.9.4 1.1 0 2.3-.4 3.2-1.2 1-.9 2.5-3.2 1-7.6-.7-2.2-3.6-8.2-3.7-8.4-.8-1.8-1.2-3.8-1.2-5.7 0-2.7 1.6-5.1 3.8-5.8 1.8-.6 3.7-.3 5.2.8s2.3 2.8 2.3 4.6c0 2.3-1.5 3-2.1 3.3-1 .3-1.9.1-2.2-.2-.3-.3-.2-1.2.7-2.6.6-.9.3-2.1-.6-2.6-.9-.6-2.1-.3-2.6.6-2.4 3.8-1.1 6.2-.5 7 1.3 1.7 3.9 2.3 6.3 1.5-.8 3.4-1.5 6.6 1.5 9.6.4.4.9.6 1.3.6s1-.2 1.3-.6c.7-.7.7-1.9 0-2.7-1.5-1.5-1.3-2.8-.5-6.1.5-2 1.1-4.6 1.1-7.7 0-3-1.4-5.8-3.8-7.6 2.4-1.8 3.8-4.6 3.8-7.6 0-3.1-.6-5.6-1.1-7.7-.8-3.4-1-4.6.5-6.1.7-.7.7-1.9 0-2.7s-1.9-.7-2.7 0c-3.1 3.1-2.3 6.3-1.5 9.6-2.4-.8-4.9-.2-6.3 1.5-.7.8-2 3.2.5 7 .6.9 1.7 1.1 2.6.6.9-.6 1.1-1.7.6-2.6-.9-1.4-.9-2.3-.7-2.6.3-.4 1.2-.6 2.2-.2.6.2 2.1 1 2.1 3.3 0 1.8-.8 3.5-2.3 4.6-1.5 1.1-3.4 1.4-5.2.8-2.3-.7-3.8-3.1-3.8-5.8 0-2 .4-3.9 1.2-5.7l12.4-27.9c1-2.3 1.5-4.7 1.5-7.2 0-3.2-1.5-6.2-3.8-8 2.3-1.8 3.8-4.8 3.8-8 0-2.5-.5-5-1.5-7.2l-12.4-27.9c-.8-1.8-1.2-3.8-1.2-5.7 0-2.7 1.6-5.1 3.8-5.8 1.8-.6 3.7-.3 5.2.8s2.3 2.8 2.3 4.6c0 2.3-1.5 3-2.1 3.3-1 .3-1.9.1-2.2-.2-.3-.3-.2-1.2.7-2.6.6-.9.3-2.1-.6-2.6-.9-.6-2.1-.3-2.6.6-2.4 3.8-1.1 6.2-.5 7 1.3 1.7 3.9 2.3 6.3 1.5-.8 3.4-1.5 6.6 1.5 9.6.4.4.9.6 1.3.6s1-.2 1.3-.6c.7-.7.7-1.9 0-2.7-1.5-1.5-1.3-2.8-.5-6.1.5-2 1.1-4.6 1.1-7.7 0-2.1-.7-4.1-2-5.7h.1c1 0 1.9-.8 1.9-1.9 0-1-.8-1.9-1.9-1.9h-.1c1.2-1.6 2-3.6 2-5.7 0-3.1-.6-5.6-1.1-7.7-.8-3.4-1-4.6.5-6.1.7-.7.7-1.9 0-2.7s-1.9-.7-2.7 0c-3.1 3.1-2.3 6.3-1.5 9.6-2.4-.8-4.9-.2-6.3 1.5-.7.8-2 3.2.5 7 .6.9 1.7 1.1 2.6.6.9-.6 1.1-1.7.6-2.6-.9-1.4-.9-2.3-.7-2.6.3-.4 1.2-.6 2.2-.2.6.2 2.1 1 2.1 3.3 0 1.8-.8 3.5-2.3 4.6-1.5 1.1-3.4 1.4-5.2.8-2.3-.7-3.8-3.1-3.8-5.8 0-2 .4-3.9 1.2-5.7l12.4-27.9c1-2.3 1.5-4.7 1.5-7.2 0-3.2-1.5-6.2-3.8-8 2.3-1.8 3.8-4.8 3.8-8 0-2.5-.5-5-1.5-7.2l-12.4-27.9c-.8-1.8-1.2-3.8-1.2-5.7 0-2.7 1.6-5.1 3.8-5.8 1.8-.6 3.7-.3 5.2.8s2.3 2.8 2.3 4.6c0 2.3-1.5 3-2.1 3.3-1 .3-1.9.1-2.2-.2-.3-.3-.2-1.2.7-2.6.6-.9.3-2.1-.6-2.6-.9-.6-2.1-.3-2.6.6-2.4 3.8-1.1 6.2-.5 7 1.3 1.7 3.9 2.3 6.3 1.5-.8 3.4-1.5 6.6 1.5 9.6.4.4.9.6 1.3.6s1-.2 1.3-.6c.7-.7.7-1.9 0-2.7-1.5-1.5-1.3-2.8-.5-6.1.5-2 1.1-4.6 1.1-7.7 0-2.1-.7-4.1-2-5.7h.1c1 0 1.9-.8 1.9-1.9 0-1-.8-1.9-1.9-1.9H58c1.2-1.6 2-3.6 2-5.7.6-3.6 0-6.1-.5-8.2zm-19.2-8c-.7-2-.4-3.2 0-3.6.3-.3.7-.3 1-.1.3.2.3.4.3.5 0 1 .8 1.9 1.9 1.9 1 0 1.9-.8 1.9-1.9 0-.1 0-.4.3-.5.3-.1.7-.1 1 .1.4.4.7 1.6 0 3.6-.5 1.5-2.3 5.3-3.3 7.3-.8-2-2.6-5.9-3.1-7.3zm3.2 78.2c.5.7 1.2 1.4 1.9 2-.7.6-1.4 1.2-1.9 2-.5-.7-1.2-1.4-1.9-2 .8-.6 1.4-1.3 1.9-2zm0 113.6c.5.7 1.2 1.4 1.9 2-.7.6-1.4 1.2-1.9 2-.5-.7-1.2-1.4-1.9-2 .8-.5 1.4-1.2 1.9-2zm3.3 82.2c.7 2 .4 3.2 0 3.6-.3.3-.7.3-1 .1-.3-.2-.3-.4-.3-.5 0-1-.8-1.9-1.9-1.9s-1.9.8-1.9 1.9c0 .1 0 .4-.3.5-.3.1-.7.1-1-.1-.4-.4-.7-1.6 0-3.6.5-1.5 2.3-5.3 3.3-7.3.8 2 2.6 5.8 3.1 7.3zm-1.4-23.3c-.7.6-1.4 1.2-1.9 2-.5-.8-1.2-1.4-1.9-2 .7-.6 1.4-1.2 1.9-2 .6.8 1.2 1.4 1.9 2zm10.2-43.2L43.5 355l-12.1-27.1c-.8-1.8-1.2-3.8-1.2-5.7 0-2.7 1.6-5.1 3.8-5.8 1.8-.6 3.7-.3 5.2.8s2.3 2.8 2.3 4.6c0 2.3-1.5 3-2.1 3.3-1 .3-1.9.1-2.2-.2-.3-.3-.2-1.2.7-2.6.6-.9.3-2.1-.6-2.6-.9-.6-2.1-.3-2.6.6-2.4 3.8-1.1 6.2-.5 7 1.4 1.7 4 2.3 6.4 1.5.3-.1.6-.2.8-.4v4.8c-.1-1-.9-1.8-1.9-1.8-1 0-1.9.8-1.9 1.9 0 1.2.9 3.4 3.8 4v3.5c0 1 .8 1.9 1.9 1.9s1.9-.8 1.9-1.9v-3.5c2.9-.7 3.8-2.8 3.8-4 0-1-.8-2-1.9-2-1 0-1.9.8-1.9 1.8v-4.8c.3.1.6.3.8.4 2.5.9 5 .3 6.4-1.5.7-.8 2-3.2-.5-7-.6-.9-1.7-1.1-2.6-.6-.9.6-1.1 1.7-.6 2.6.9 1.4.9 2.3.7 2.6-.3.4-1.2.6-2.2.2-.6-.2-2.1-1-2.1-3.3 0-1.8.8-3.5 2.3-4.6 1.5-1.1 3.4-1.4 5.2-.8 2.3.7 3.8 3.1 3.8 5.8.4 2.1 0 4-.8 5.8zm0-27.4c.8 1.8 1.2 3.8 1.2 5.7 0 2.7-1.6 5.1-3.8 5.8-1.8.6-3.7.3-5.2-.8s-2.3-2.8-2.3-4.6c0-2.3 1.5-3 2.1-3.3 1-.3 1.9-.1 2.2.2.3.3.2 1.2-.7 2.6-.6.9-.3 2.1.6 2.6.9.6 2.1.3 2.6-.6 2.4-3.8 1.1-6.2.5-7-1.4-1.7-4-2.3-6.4-1.5-.3.1-.6.2-.8.4v-4.8c.1 1 .9 1.8 1.9 1.8 1 0 1.9-.8 1.9-1.9 0-1.2-.9-3.4-3.8-4v-3.5c0-1-.8-1.9-1.9-1.9s-1.9.8-1.9 1.9v3.5c-2.9.7-3.8 2.8-3.8 4 0 1 .8 2 1.9 2 1 0 1.9-.8 1.9-1.8v4.8c-.3-.1-.6-.3-.8-.4-2.5-.9-5-.3-6.4 1.5-.7.8-2 3.2.5 7 .6.9 1.7 1.1 2.6.6.9-.6 1.1-1.7.6-2.6-.9-1.4-.9-2.3-.7-2.6.3-.4 1.2-.6 2.2-.2.6.2 2.1 1 2.1 3.3 0 1.8-.8 3.5-2.3 4.6-1.5 1.1-3.4 1.4-5.2.8-2.3-.7-3.8-3.1-3.8-5.8 0-2 .4-3.9 1.2-5.7l12.1-27.1 11.7 27zm-10.2-43.1c-.7.6-1.4 1.2-1.9 2-.5-.8-1.2-1.4-1.9-2 .7-.6 1.4-1.2 1.9-2 .6.8 1.2 1.4 1.9 2zm10.2-43.2l-12.1 27.1-12.1-27.1c-.8-1.8-1.2-3.8-1.2-5.7 0-2.7 1.6-5.1 3.8-5.8 1.8-.6 3.7-.3 5.2.8s2.3 2.8 2.3 4.6c0 2.3-1.5 3-2.1 3.3-1 .3-1.9.1-2.2-.2-.3-.3-.2-1.2.7-2.6.6-.9.3-2.1-.6-2.6-.9-.6-2.1-.3-2.6.6-2.4 3.8-1.1 6.2-.5 7 1.4 1.7 4 2.3 6.4 1.5.3-.1.6-.2.8-.4v4.8c-.1-1-.9-1.8-1.9-1.8-1 0-1.9.8-1.9 1.9 0 1.2.9 3.4 3.8 4v3.5c0 1 .8 1.9 1.9 1.9s1.9-.8 1.9-1.9v-3.5c2.9-.7 3.8-2.8 3.8-4 0-1-.8-2-1.9-2-1 0-1.9.8-1.9 1.8v-4.8c.3.1.6.3.8.4 2.5.9 5 .3 6.4-1.5.7-.8 2-3.2-.5-7-.6-.9-1.7-1.1-2.6-.6-.9.6-1.1 1.7-.6 2.6.9 1.4.9 2.3.7 2.6-.3.4-1.2.6-2.2.2-.6-.2-2.1-1-2.1-3.3 0-1.8.8-3.5 2.3-4.6 1.5-1.1 3.4-1.4 5.2-.8 2.3.7 3.8 3.1 3.8 5.8.4 2.1 0 4.1-.8 5.8zm0-27.3c.8 1.8 1.2 3.8 1.2 5.7 0 2.7-1.6 5.1-3.8 5.8-1.8.6-3.7.3-5.2-.8s-2.3-2.8-2.3-4.6c0-2.3 1.5-3 2.1-3.3 1-.3 1.9-.1 2.2.2.3.3.2 1.2-.7 2.6-.6.9-.3 2.1.6 2.6.9.6 2.1.3 2.6-.6 2.4-3.8 1.1-6.2.5-7-1.4-1.7-4-2.3-6.4-1.5-.3.1-.6.2-.8.4v-4.8c.1 1 .9 1.8 1.9 1.8 1 0 1.9-.8 1.9-1.9 0-1.2-.9-3.4-3.8-4V174c0-1-.8-1.9-1.9-1.9s-1.9.8-1.9 1.9v3.5c-2.9.7-3.8 2.8-3.8 4 0 1 .8 2 1.9 2 1 0 1.9-.8 1.9-1.8v4.8c-.3-.1-.6-.3-.8-.4-2.5-.9-5-.3-6.4 1.5-.7.8-2 3.2.5 7 .6.9 1.7 1.1 2.6.6.9-.6 1.1-1.7.6-2.6-.9-1.4-.9-2.3-.7-2.6.3-.4 1.2-.6 2.2-.2.6.2 2.1 1 2.1 3.3 0 1.8-.8 3.5-2.3 4.6-1.5 1.1-3.4 1.4-5.2.8-2.3-.7-3.8-3.1-3.8-5.8 0-2 .4-3.9 1.2-5.7l12.1-27.1 11.7 27zm-14-43.2c.7-.6 1.4-1.2 1.9-2 .5.8 1.2 1.4 1.9 2-.7.6-1.4 1.2-1.9 2-.5-.8-1.1-1.4-1.9-2z"/><circle class="st1" cx="270.7" cy="235" r="45.6"/><path class="st1" d="M274.2 176.9c0 1.9-1.5 3.4-3.4 3.4s-3.4-1.5-3.4-3.4 3.4-10.3 3.4-10.3 3.4 8.4 3.4 10.3zM267.3 293.2c0-1.9 1.5-3.4 3.4-3.4s3.4 1.5 3.4 3.4-3.4 10.3-3.4 10.3-3.4-8.4-3.4-10.3zM328.9 238.5c-1.9 0-3.4-1.5-3.4-3.4s1.5-3.4 3.4-3.4 10.3 3.4 10.3 3.4-8.4 3.4-10.3 3.4zM212.6 231.6c1.9 0 3.4 1.5 3.4 3.4s-1.5 3.4-3.4 3.4-10.3-3.4-10.3-3.4 8.4-3.4 10.3-3.4zM314.3 196.3c-1.3 1.3-3.5 1.3-4.8 0s-1.3-3.5 0-4.8 9.7-4.8 9.7-4.8-3.6 8.3-4.9 9.6zM227.2 273.7c1.3-1.3 3.5-1.3 4.8 0s1.3 3.5 0 4.8-9.7 4.8-9.7 4.8 3.6-8.2 4.9-9.6zM309.4 278.6c-1.3-1.3-1.3-3.5 0-4.8s3.5-1.3 4.8 0 4.8 9.7 4.8 9.7-8.2-3.6-9.6-4.9zM232 191.5c1.3 1.3 1.3 3.5 0 4.8s-3.5 1.3-4.8 0-4.8-9.7-4.8-9.7 8.3 3.6 9.6 4.9zM251.7 180c.7 1.7-.1 3.7-1.9 4.5-1.7.7-3.7-.1-4.5-1.9-.7-1.7-.8-10.8-.8-10.8s6.4 6.5 7.2 8.2zM289.8 290.1c-.7-1.7.1-3.7 1.9-4.5s3.7.1 4.5 1.9.8 10.8.8 10.8-6.4-6.5-7.2-8.2zM325.8 215.9c-1.7.7-3.7-.1-4.5-1.9s.1-3.7 1.9-4.5c1.7-.7 10.8-.8 10.8-.8s-6.5 6.5-8.2 7.2zM215.7 254.1c1.7-.7 3.7.1 4.5 1.9.7 1.7-.1 3.7-1.9 4.5s-10.8.8-10.8.8 6.5-6.4 8.2-7.2zM296.2 182.6c-.7 1.7-2.7 2.6-4.5 1.9-1.7-.7-2.6-2.7-1.9-4.5.7-1.7 7.1-8.2 7.1-8.2s0 9.1-.7 10.8zM245.3 287.5c.7-1.7 2.7-2.6 4.5-1.9 1.7.7 2.6 2.7 1.9 4.5-.7 1.7-7.1 8.2-7.1 8.2s0-9.1.7-10.8zM323.2 260.4c-1.7-.7-2.6-2.7-1.9-4.5.7-1.7 2.7-2.6 4.5-1.9s8.2 7.1 8.2 7.1-9.1.1-10.8-.7zM218.3 209.6c1.7.7 2.6 2.7 1.9 4.5-.7 1.7-2.7 2.6-4.5 1.9-1.7-.7-8.2-7.1-8.2-7.1s9.1 0 10.8.7zM262.8 177.3c.4 1.9-.8 3.7-2.7 4-1.9.4-3.7-.8-4-2.7-.4-1.9 1.4-10.7 1.4-10.7s4.9 7.6 5.3 9.4zM278.7 292.7c-.4-1.9.8-3.7 2.7-4 1.9-.4 3.7.8 4 2.7.4 1.9-1.4 10.7-1.4 10.7s-4.9-7.5-5.3-9.4zM328.4 227c-1.9.4-3.7-.8-4-2.7-.4-1.9.8-3.7 2.7-4 1.9-.4 10.7 1.4 10.7 1.4s-7.5 5-9.4 5.3zM213 243c1.9-.4 3.7.8 4 2.7.4 1.9-.8 3.7-2.7 4-1.9.4-10.7-1.4-10.7-1.4s7.6-4.9 9.4-5.3zM305.9 188.6c-1 1.6-3.2 2-4.7.9s-2-3.2-.9-4.7c1-1.6 8.5-6.6 8.5-6.6s-1.9 8.8-2.9 10.4zM235.6 281.5c1-1.6 3.2-2 4.7-.9 1.6 1 2 3.2.9 4.7-1 1.6-8.5 6.6-8.5 6.6s1.8-8.8 2.9-10.4zM317.2 270.2c-1.6-1-2-3.2-.9-4.7s3.2-2 4.7-.9c1.6 1 6.6 8.5 6.6 8.5s-8.8-1.9-10.4-2.9zM224.3 199.9c1.6 1 2 3.2.9 4.7-1 1.6-3.2 2-4.7.9s-6.6-8.5-6.6-8.5 8.8 1.8 10.4 2.9zM241.3 184.8c1 1.6.6 3.7-.9 4.7s-3.7.6-4.7-.9c-1-1.6-2.9-10.4-2.9-10.4s7.4 5 8.5 6.6zM300.2 285.3c-1-1.6-.6-3.7.9-4.7 1.6-1 3.7-.6 4.7.9 1 1.6 2.9 10.4 2.9 10.4s-7.4-5-8.5-6.6zM321 205.6c-1.6 1-3.7.6-4.7-.9-1-1.6-.6-3.7.9-4.7 1.6-1 10.4-2.9 10.4-2.9s-5 7.4-6.6 8.5zM220.5 264.5c1.6-1 3.7-.6 4.7.9 1 1.6.6 3.7-.9 4.7-1.6 1-10.4 2.9-10.4 2.9s5-7.5 6.6-8.5zM285.4 178.7c-.4 1.9-2.2 3.1-4 2.7s-3.1-2.2-2.7-4 5.4-9.4 5.4-9.4 1.7 8.8 1.3 10.7zM256 291.4c.4-1.9 2.2-3.1 4-2.7s3.1 2.2 2.7 4c-.4 1.9-5.4 9.4-5.4 9.4s-1.6-8.8-1.3-10.7zM327.1 249.7c-1.9-.4-3.1-2.2-2.7-4 .4-1.9 2.2-3.1 4-2.7s9.4 5.4 9.4 5.4-8.8 1.7-10.7 1.3zM214.4 220.3c1.9.4 3.1 2.2 2.7 4s-2.2 3.1-4 2.7-9.4-5.4-9.4-5.4 8.8-1.6 10.7-1.3z"/><path class="st1" d="M378 247c-1.3-.6-2.9.1-3.4 1.4 0 0-.1.1-.2.4-2 4.6-6.1 11.4-10.2 17.7 3.8-12.4 7.4-25.6 7.6-26.5.4-1.4-.5-2.8-1.8-3.2-1.4-.4-2.8.4-3.2 1.8-1.8 6.4-5.5 14.9-8.9 22.1.6-8 .7-15.4.7-15.9 0-1.4-1.1-2.6-2.5-2.7-1.3 0-2.6 1-2.7 2.4-3.3 46.1-47.7 66.7-52 68.6-2.3.2-12.8 1.4-22.3 4.7-1.1.4-2 .8-2.9 1.1-.3-.1-.7-.2-1.1-.2-29.3 2.1-52.7-9.9-69.5-35.7-12.6-19.3-16.6-39.8-16.6-40-.3-1.4-1.6-2.3-3.1-2.1-1.4.3-2.4 1.6-2.1 3.1.1.6 1.9 9.5 6.7 21.2-6.4-10.2-10.9-22.5-12.5-28.9 0-.1-.1-.2-.2-.3-.1-.2-.1-.4-.2-.5l-.3-.3c-.1-.2-.3-.3-.5-.4-.1-.1-.2-.1-.3-.1-.2-.1-.4-.2-.6-.2h-1-.1-.1c-.1 0-.2.1-.4.2s-.3.1-.5.2c-.1.1-.2.2-.4.3-.1.1-.2.2-.3.4-.1.1-.1.3-.2.5s-.1.3-.2.5v1.1c1.6 9.5 5.5 19.4 9 27-5.5-6.3-10.2-13.5-11.8-17.8 0-.1-.1-.2-.2-.3-.1-.2-.2-.4-.3-.5l-.3-.3c-.2-.1-.3-.3-.5-.3-.1-.1-.2-.1-.4-.1-.2-.1-.4-.1-.6-.1-.2 0-.3 0-.5.1h-.4-.1-.1c-.1.1-.2.2-.4.2-.1.1-.3.2-.4.3-.1.1-.2.3-.3.4-.1.1-.2.2-.3.4-.1.2-.1.3-.1.5s-.1.3-.1.5 0 .3.1.5v.4c2.8 9.2 9.7 20.1 15.1 27.8-4.5-3.4-7.8-7.2-8.7-8.3-.1-.1-.2-.2-.3-.4-.9-1.1-2.6-1.3-3.7-.4s-1.3 2.5-.4 3.7c0 .1.2.3.6.7 3.9 4.7 8.2 9 12.1 12.7l-5.3-2.3c-1.2-.5-2.6-.1-3.3 1.1-.7 1.1-.4 2.6.7 3.4.5.4 9.9 7.4 18 11.5-.8 0-1.7 0-2.7-.1-1.2-.1-2.4.8-2.7 2-.3 1.3.4 2.5 1.5 3 .2.1 2.7 1.1 5.7 2.2-.7.3-1.3.9-1.5 1.7-.4 1.2.1 2.4 1.2 3 .3.2 4 2.3 8.5 4.2l-.3.6c-.4 1.1.1 2.3 1 3 .8.5 18.6 12.6 39.3 12.6 1.4 0 2.7-.1 4.1-.2 1.4-.1 2.5-1.4 2.4-2.8s-1.4-2.5-2.8-2.4c-13 1.1-25.6-3.8-33.1-7.6 1-.2 1.6-.5 1.7-.5 1.2-.5 1.8-1.7 1.6-2.9-.2-1.2-1.3-2.1-2.5-2.1-3-.1-7.2-1.5-10.8-3.1 1.4-.7 2.2-1.3 2.2-1.4.8-.7 1.1-1.7.9-2.7-.3-1-1.1-1.7-2.1-1.9-1.1-.2-2.5-.5-3.9-1 1.4-.8 2-1.7 2.2-2.2.4-.7.4-1.6 0-2.3-.4-.7-1-1.3-1.8-1.4-.7-.1-1.5-.4-2.3-.7.2-.2.3-.3.4-.5.7-1.1.4-2.6-.6-3.4-.1 0-2.1-1.6-5.2-4.3.5-.2.9-.5 1.2-1 .7-1 .6-2.2-.1-3.1-.1-.1-2.1-2.6-4.9-6.5.9.7 1.8 1.5 2.8 2 .4.3.9.4 1.4.4.7 0 1.3-.2 1.8-.7.2-.2.4-.4.5-.7 1.6 1.7 3.3 3.2 5 4.5.2.2.5.2.8.3.7 1.2 1.5 2.5 2.3 3.7 15.9 24.4 38.3 37.5 65.1 38.3-2.5 1.5-5.2 3.1-9.4 4.7-.9.4-1.7.7-2.6 1.1-.4.1-.8.2-1.1.5-7.4 3.4-10.5 6.8-11.7 9.2-1.2 2.4-.2 4.8 1.3 6 .5.4 1.1.6 1.7.6.4 0 .8-.1 1.2-.3.9-.5 1.5-1.4 1.5-2.5.1-.1.6-.5 2-.5 1-.1 3.2.1 5.8.4 2.4.2 5.3.4 8.4.6-1.9 2.3-4.2 4.9-4.2 4.9-.7.8-.8 1.9-.4 2.8.5.9 1.4 1.5 2.4 1.5 2.1-.1 3.5-.1 4.4-.1.8 1.1 1.8 1.5 2.4 1.6 1.8.5 3.6-.3 4.9-1.1 1 .7 2 1 2.9 1.2 1.8.2 3.5-.3 4.7-.9 1.3.8 2.5 1 3.5 1 2 0 3.8-1 5.1-2 1.1.7 2.2.9 3 .9 1.9.1 3.4-.7 4.5-1.3 3.7.7 6.9-1 9-2.9 1 .6 1.9.7 2.6.7 1.9-.1 3.3-1.2 4.2-2.2 4.2.5 7.2-.3 8.9-2.3.9-1.1 1.3-2.4 1.4-3.5 11.6-.1 12.6-6.4 12.7-7.2.1-.7-.1-1.4-.6-2-.5-.5-1.1-.9-1.8-.9l-30.4-1.8c-1.3-.1-2.4.8-2.7 2 0 0-.5 2-2.1 3.5-2.2 2.1-5.7 3.2-9.5 3.8 0-.4 0-.7-.2-1.1-.5-1.3-2-2-3.4-1.5-6.3 2.4-16.4 2.1-24.4 1.6 1.2-1 2.7-2 3.9-2.6 1-.5 1.5-1.7 1.3-2.8-.2-.8-.7-1.4-1.4-1.7 2.2-1.1 4-2.2 5.7-3.2 3-1.8 5.8-3.6 10.9-5.3 9.9-3.4 21.4-4.5 21.5-4.5.3 0 .5-.1.8-.2.4-.2 32.8-13.7 48-45-.2.9-.4 1.8-.6 2.6-.4 1.3.2 2.7 1.5 3.2 1 .4 2.1.2 2.8-.5-1 2.5-1.8 4.5-2.5 5.7-.7 1.2-.4 2.8.8 3.5.3.2.6.3.9.4-1.2 1.7-2.4 3.4-3.6 4.9-.8 1-.7 2.4.1 3.4-2 2.1-3.9 3.9-5.2 5-.9.7-1.2 2-.8 3-1.3.8-2.4 1.3-3.2 1.5-1.3.4-2.1 1.7-1.8 3 .1.7.5 1.3 1 1.7-1.6.4-3.3.8-5.2 1.2-1.1.2-1.9 1.1-2.1 2.1-.2 1.1.3 2.2 1.3 2.7.1 0 1 .6 2.3 1.1-5.1 2-14.1 4.7-28.9 6.2-1.4.1-2.5 1.4-2.3 2.9.1 1.4 1.4 2.4 2.9 2.4 28.1-2.8 36.8-9.8 37.2-10.1.8-.7 1.1-1.8.8-2.8-.2-.7-.7-1.2-1.3-1.5 9-2.8 12.9-6 13.1-6.1 1-.8 1.2-2.2.6-3.3-.7-1.1-2-1.6-3.2-1.1-.3.1-.9.3-1.5.4 6-4.1 12.4-9.1 15.3-11.2.5-.4.9-.7 1.3-1.1 1.1-.9 1.2-2.5.3-3.7-.9-1.1-2.5-1.3-3.6-.4-.4.3-.8.7-1.3 1-1.3 1-3 2.1-4.8 3.2 6.8-7.8 13.7-16.2 15.7-18.6.2-.2.4-.4.5-.7.9-1.1.7-2.8-.4-3.7-1.1-.9-2.8-.7-3.7.4 0 .1-.3.3-.6.8-2.1 2.5-4.2 5-6.4 7.2 7-12.6 12.3-25.1 13-26.9 0-.1.1-.1.1-.2.7-1.8.1-3.3-1.3-3.9zm-122.6 88.2l.7.1c-.9.8-1.6 1.7-2.2 2.7-1.2-.1-2.4-.2-3.3-.2 1.4-.8 2.9-1.7 4.8-2.6z"/></svg>