<?xml version="1.0" encoding="utf-8"?>
<!-- Generator: Adobe Illustrator 25.0.0, SVG Export Plug-In . SVG Version: 6.00 Build 0)  -->
<svg version="1.1" id="Layer_1" xmlns="http://www.w3.org/2000/svg" xmlns:xlink="http://www.w3.org/1999/xlink" x="0px" y="0px"
	 viewBox="0 0 512 512" style="enable-background:new 0 0 512 512;" xml:space="preserve">
<style type="text/css">
	.st0{fill:#ED1C24;}
	.st1{fill:#FFFFFF;}
	.st2{fill:#00A651;}
</style>
<rect y="88.3" class="st0" width="512" height="69.7"/>
<rect y="354" class="st0" width="512" height="69.7"/>
<rect y="158" class="st1" width="512" height="196"/>
<path class="st2" d="M274.9,315.4l81.6-16.3c5.9-1.2,8.5-8.1,4.9-12.9l0,0c-1.3-1.7-3.1-2.8-5.2-3.1l-86.9-13.6
	c-2.4-0.4-4.1-2.6-3.7-5.1c0.4-2.4,2.8-4,5.3-3.6l60.3,7.9c4.9,0.6,7.9-5.2,4.5-8.8l-4.8-5.2c-1.8-1.9-4.2-3.2-6.8-3.7l-50.3-9.7
	l42.9,3.1c3.3,0.2,5.2-3.7,3-6.1l-2.2-2.5c-1.3-1.5-3.1-2.5-5-2.9l-42.6-8.9l30.3-0.9c2.7-0.1,4-3.3,2.2-5.2l-1.4-1.5
	c-1.1-1.2-2.4-2-4-2.5l-27-7.8H291c2.1,0,3.5-2.2,2.7-4.1l-0.7-1.7c-0.9-2-2.5-3.5-4.6-4.2l-19.6-6.7l9.7,0c2.9,0,4.8-3,3.7-5.6l0,0
	c-0.9-2.1-2.5-3.9-4.6-4.9L256,167.7l-21.5,11.2c-2.1,1.1-3.7,2.8-4.6,4.9l0,0c-1.1,2.6,0.8,5.6,3.7,5.6l9.7,0l-19.6,6.7
	c-2,0.7-3.7,2.2-4.6,4.2l-0.7,1.7c-0.8,1.9,0.6,4.1,2.7,4.1h21.2l-27,7.8c-1.5,0.4-2.9,1.3-4,2.5l-1.4,1.5c-1.8,2-0.4,5.2,2.2,5.2
	l30.3,0.9l-42.6,8.9c-1.9,0.4-3.7,1.4-5,2.9l-2.2,2.5c-2.2,2.5-0.3,6.3,3,6.1l42.9-3.1l-50.3,9.7c-2.6,0.5-5,1.8-6.8,3.7l-4.8,5.2
	c-3.4,3.6-0.4,9.5,4.5,8.8l60.3-7.9c2.4-0.3,4.9,1.2,5.3,3.6c0.4,2.5-1.3,4.8-3.7,5.1L155.9,283c-2.1,0.3-4,1.4-5.2,3.1l0,0
	c-3.6,4.8-1,11.7,4.9,12.9l81.6,16.3v10.2c0,5.6-2.2,10.9-6.1,14.8l-12.7,12.7H256h37.7L281,340.4c-3.9-3.9-6.1-9.3-6.1-14.8
	L274.9,315.4L274.9,315.4z"/>
</svg>
