<svg version="1.1" id="Layer_1" xmlns="http://www.w3.org/2000/svg" x="0" y="0" viewBox="0 0 512 512" xml:space="preserve"><style>.st0{fill:#ed1c24}</style><path class="st0" d="M0 88.3h512V158H0zM0 354h512v69.7H0z"/><path fill="#fff" d="M0 158h512v196H0z"/><path d="M274.9 315.4l81.6-16.3c5.9-1.2 8.5-8.1 4.9-12.9-1.3-1.7-3.1-2.8-5.2-3.1l-86.9-13.6c-2.4-.4-4.1-2.6-3.7-5.1.4-2.4 2.8-4 5.3-3.6l60.3 7.9c4.9.6 7.9-5.2 4.5-8.8l-4.8-5.2c-1.8-1.9-4.2-3.2-6.8-3.7l-50.3-9.7 42.9 3.1c3.3.2 5.2-3.7 3-6.1l-2.2-2.5c-1.3-1.5-3.1-2.5-5-2.9l-42.6-8.9 30.3-.9c2.7-.1 4-3.3 2.2-5.2l-1.4-1.5c-1.1-1.2-2.4-2-4-2.5l-27-7.8h21c2.1 0 3.5-2.2 2.7-4.1l-.7-1.7c-.9-2-2.5-3.5-4.6-4.2l-19.6-6.7h9.7c2.9 0 4.8-3 3.7-5.6-.9-2.1-2.5-3.9-4.6-4.9L256 167.7l-21.5 11.2c-2.1 1.1-3.7 2.8-4.6 4.9-1.1 2.6.8 5.6 3.7 5.6h9.7l-19.6 6.7c-2 .7-3.7 2.2-4.6 4.2l-.7 1.7c-.8 1.9.6 4.1 2.7 4.1h21.2l-27 7.8c-1.5.4-2.9 1.3-4 2.5l-1.4 1.5c-1.8 2-.4 5.2 2.2 5.2l30.3.9-42.6 8.9c-1.9.4-3.7 1.4-5 2.9l-2.2 2.5c-2.2 2.5-.3 6.3 3 6.1l42.9-3.1-50.3 9.7c-2.6.5-5 1.8-6.8 3.7l-4.8 5.2c-3.4 3.6-.4 9.5 4.5 8.8l60.3-7.9c2.4-.3 4.9 1.2 5.3 3.6.4 2.5-1.3 4.8-3.7 5.1L155.9 283c-2.1.3-4 1.4-5.2 3.1-3.6 4.8-1 11.7 4.9 12.9l81.6 16.3v10.2c0 5.6-2.2 10.9-6.1 14.8L218.4 353H293.7L281 340.4c-3.9-3.9-6.1-9.3-6.1-14.8v-10.2z" fill="#00a651"/></svg>