<?xml version="1.0" encoding="utf-8"?>
<!-- Generator: Adobe Illustrator 25.0.0, SVG Export Plug-In . SVG Version: 6.00 Build 0)  -->
<svg version="1.1" id="Layer_1" xmlns="http://www.w3.org/2000/svg" xmlns:xlink="http://www.w3.org/1999/xlink" x="0px" y="0px"
	 viewBox="0 0 512 512" style="enable-background:new 0 0 512 512;" xml:space="preserve">
<style type="text/css">
	.st0{fill:#002B7F;}
	.st1{fill:#CE1126;}
	.st2{fill:#FFD83D;}
</style>
<rect y="88.3" class="st0" width="512" height="168"/>
<rect y="255.9" class="st1" width="512" height="168"/>
<path class="st2" d="M164,188.7c-0.1-0.3-0.4-0.6-0.7-0.7c0,0-0.7-0.3-1.8-0.6c0.5-0.7,0.8-1.4,0.8-2.3c0-0.8-0.3-1.4-0.6-2
	c1.2-0.7,2.1-1.9,2.1-3.4c0-1.2-0.5-2.2-1.4-3c1-0.7,1.7-1.8,1.7-3.2c0-1.5-0.8-2.7-2-3.4c0.6-0.7,1-1.6,1-2.6
	c0-1.8-1.2-3.2-2.8-3.7c0.4-0.6,0.6-1.3,0.6-2c0-2.2-1.7-3.9-3.9-4c0.1-0.3,0.2-0.7,0.2-1c0-2.2-1.8-4-4-4c-0.4,0-0.7,0.1-1,0.2
	c0-0.1,0.1-0.2,0.1-0.3c0-2.2-1.8-4-4-4c-0.8,0-1.4,0.3-2,0.6c-0.5-1.7-1.9-3-3.8-3c-1.1,0-2.1,0.4-2.8,1.2
	c-0.7-1.2-1.9-2.1-3.5-2.1c-1.4,0-2.5,0.7-3.3,1.8c-0.7-0.8-1.7-1.3-2.9-1.3c-1.5,0-2.7,0.8-3.4,2c-0.7-0.8-1.8-1.4-2.9-1.4
	c-1.5,0-2.7,0.8-3.4,2c-0.7-0.5-1.5-0.9-2.4-0.9c-1.7,0-3.1,1-3.7,2.5c-0.7-0.7-1.7-1.1-2.8-1.1c-1.5,0-2.8,0.9-3.5,2.1
	c-0.3-0.2-0.6-0.3-0.9-0.4c0.8-1.2,1.3-2.7,1.3-4.4c0-3.1-1.9-5.8-4.5-7l1.1-2.2c0.2-0.3,0.2-0.8,0-1.1l-1.3-2.7
	c0.1-0.1,0.2-0.2,0.3-0.3l2.7,1.3c0.2,0.1,0.4,0.1,0.5,0.1s0.4,0,0.5-0.1l6.6-3.3c0.4-0.2,0.7-0.6,0.7-1.1c0-0.5-0.3-0.9-0.7-1.1
	l-6.6-3.3c-0.3-0.2-0.8-0.2-1.1,0l-2.7,1.3c-0.1-0.1-0.2-0.2-0.3-0.3l1.3-2.7c0.2-0.3,0.2-0.8,0-1.1l-3.3-6.6
	c-0.4-0.8-1.8-0.8-2.2,0l-3.3,6.6c-0.2,0.3-0.2,0.8,0,1.1l1.3,2.7c-0.1,0.1-0.2,0.2-0.3,0.3l-2.7-1.3c-0.3-0.2-0.8-0.2-1.1,0
	l-6.6,3.3c-0.4,0.2-0.7,0.6-0.7,1.1c0,0.5,0.3,0.9,0.7,1.1l6.6,3.3c0.2,0.1,0.4,0.1,0.5,0.1c0.2,0,0.4,0,0.5-0.1l2.7-1.3
	c0.1,0.1,0.2,0.2,0.3,0.3l-1.3,2.7c-0.2,0.3-0.2,0.8,0,1.1l1.1,2.2c-2.7,1.2-4.5,3.9-4.5,7c0,1.6,0.5,3,1.3,4.3
	c-0.5,0.1-0.9,0.3-1.3,0.5c-0.7-1.3-2-2.1-3.5-2.1c-1.1,0-2,0.4-2.8,1.1c-0.6-1.5-2-2.5-3.7-2.5c-0.9,0-1.7,0.4-2.4,0.9
	c-0.7-1.2-1.9-2-3.4-2c-1.2,0-2.2,0.5-2.9,1.4c-0.7-1.2-1.9-2-3.4-2c-1.1,0-2.2,0.5-2.9,1.3c-0.7-1.1-1.9-1.8-3.3-1.8
	c-1.5,0-2.8,0.9-3.5,2.1c-0.7-0.7-1.7-1.2-2.8-1.2c-1.8,0-3.3,1.3-3.8,3c-0.6-0.4-1.3-0.6-2-0.6c-2.2,0-4,1.8-4,4
	c0,0.1,0,0.2,0.1,0.3c-0.3-0.1-0.7-0.2-1-0.2c-2.2,0-4,1.8-4,4c0,0.4,0.1,0.7,0.2,1c-2.2,0.1-3.9,1.8-3.9,4c0,0.8,0.3,1.4,0.6,2
	c-1.6,0.5-2.8,2-2.8,3.7c0,1,0.4,1.9,1,2.6c-1.2,0.7-2,1.9-2,3.4c0,1.3,0.7,2.4,1.7,3.2c-0.8,0.7-1.4,1.8-1.4,3
	c0,1.5,0.9,2.8,2.1,3.4c-0.4,0.6-0.6,1.3-0.6,2c0,0.9,0.4,1.8,0.9,2.4c-0.9,0.3-1.4,0.5-1.5,0.5c-0.3,0.1-0.6,0.4-0.7,0.7
	c-0.1,0.3-0.1,0.7,0.1,1c0.1,0.2,9.8,16.4,13,32.4c0.1,0.4,0.4,0.7,0.7,0.8c2.5,3.3,23.7,5.9,49.7,5.9s47.2-2.6,49.7-5.9
	c0.3-0.2,0.6-0.4,0.7-0.8c3.2-16,12.9-32.2,13-32.4C164.1,189.4,164.1,189,164,188.7z"/>
<g>
	<path d="M164,188.7c-0.1-0.3-0.4-0.6-0.7-0.7c0,0-0.7-0.3-1.8-0.6c0.5-0.7,0.8-1.4,0.8-2.3c0-0.8-0.3-1.4-0.6-2
		c1.2-0.7,2.1-1.9,2.1-3.4c0-1.2-0.5-2.2-1.4-3c1-0.7,1.7-1.8,1.7-3.2c0-1.5-0.8-2.7-2-3.4c0.6-0.7,1-1.6,1-2.6
		c0-1.8-1.2-3.2-2.8-3.7c0.4-0.6,0.6-1.3,0.6-2c0-2.2-1.7-3.9-3.9-4c0.1-0.3,0.2-0.7,0.2-1c0-2.2-1.8-4-4-4c-0.4,0-0.7,0.1-1,0.2
		c0-0.1,0.1-0.2,0.1-0.3c0-2.2-1.8-4-4-4c-0.8,0-1.4,0.3-2,0.6c-0.5-1.7-1.9-3-3.8-3c-1.1,0-2.1,0.4-2.8,1.2
		c-0.7-1.2-1.9-2.1-3.5-2.1c-1.4,0-2.5,0.7-3.3,1.8c-0.7-0.8-1.7-1.3-2.9-1.3c-1.5,0-2.7,0.8-3.4,2c-0.7-0.8-1.8-1.4-2.9-1.4
		c-1.5,0-2.7,0.8-3.4,2c-0.7-0.5-1.5-0.9-2.4-0.9c-1.7,0-3.1,1-3.7,2.5c-0.7-0.7-1.7-1.1-2.8-1.1c-1.5,0-2.8,0.9-3.5,2.1
		c-0.3-0.2-0.6-0.3-0.9-0.4c0.8-1.2,1.3-2.7,1.3-4.4c0-3.1-1.9-5.8-4.5-7l1.1-2.2c0.2-0.3,0.2-0.8,0-1.1l-1.3-2.7
		c0.1-0.1,0.2-0.2,0.3-0.3l2.7,1.3c0.2,0.1,0.4,0.1,0.5,0.1s0.4,0,0.5-0.1l6.6-3.3c0.4-0.2,0.7-0.6,0.7-1.1c0-0.5-0.3-0.9-0.7-1.1
		l-6.6-3.3c-0.3-0.2-0.8-0.2-1.1,0l-2.7,1.3c-0.1-0.1-0.2-0.2-0.3-0.3l1.3-2.7c0.2-0.3,0.2-0.8,0-1.1l-3.3-6.6
		c-0.4-0.8-1.8-0.8-2.2,0l-3.3,6.6c-0.2,0.3-0.2,0.8,0,1.1l1.3,2.7c-0.1,0.1-0.2,0.2-0.3,0.3l-2.7-1.3c-0.3-0.2-0.8-0.2-1.1,0
		l-6.6,3.3c-0.4,0.2-0.7,0.6-0.7,1.1c0,0.5,0.3,0.9,0.7,1.1l6.6,3.3c0.2,0.1,0.4,0.1,0.5,0.1c0.2,0,0.4,0,0.5-0.1l2.7-1.3
		c0.1,0.1,0.2,0.2,0.3,0.3l-1.3,2.7c-0.2,0.3-0.2,0.8,0,1.1l1.1,2.2c-2.7,1.2-4.5,3.9-4.5,7c0,1.6,0.5,3,1.3,4.3
		c-0.5,0.1-0.9,0.3-1.3,0.5c-0.7-1.3-2-2.1-3.5-2.1c-1.1,0-2,0.4-2.8,1.1c-0.6-1.5-2-2.5-3.7-2.5c-0.9,0-1.7,0.4-2.4,0.9
		c-0.7-1.2-1.9-2-3.4-2c-1.2,0-2.2,0.5-2.9,1.4c-0.7-1.2-1.9-2-3.4-2c-1.1,0-2.2,0.5-2.9,1.3c-0.7-1.1-1.9-1.8-3.3-1.8
		c-1.5,0-2.8,0.9-3.5,2.1c-0.7-0.7-1.7-1.2-2.8-1.2c-1.8,0-3.3,1.3-3.8,3c-0.6-0.4-1.3-0.6-2-0.6c-2.2,0-4,1.8-4,4
		c0,0.1,0,0.2,0.1,0.3c-0.3-0.1-0.7-0.2-1-0.2c-2.2,0-4,1.8-4,4c0,0.4,0.1,0.7,0.2,1c-2.2,0.1-3.9,1.8-3.9,4c0,0.8,0.3,1.4,0.6,2
		c-1.6,0.5-2.8,2-2.8,3.7c0,1,0.4,1.9,1,2.6c-1.2,0.7-2,1.9-2,3.4c0,1.3,0.7,2.4,1.7,3.2c-0.8,0.7-1.4,1.8-1.4,3
		c0,1.5,0.9,2.8,2.1,3.4c-0.4,0.6-0.6,1.3-0.6,2c0,0.9,0.4,1.8,0.9,2.4c-0.9,0.3-1.4,0.5-1.5,0.5c-0.3,0.1-0.6,0.4-0.7,0.7
		c-0.1,0.3-0.1,0.7,0.1,1c0.1,0.2,9.8,16.4,13,32.4c0.1,0.4,0.4,0.7,0.7,0.8c2.5,3.3,23.7,5.9,49.7,5.9s47.2-2.6,49.7-5.9
		c0.3-0.2,0.6-0.4,0.7-0.8c3.2-16,12.9-32.2,13-32.4C164.1,189.4,164.1,189,164,188.7z M129.3,180.8v-19.2c1.6-0.1,3.1-0.2,4.5-0.1
		v20C132.5,180.7,130.9,180.5,129.3,180.8z M115.1,154.6c0,0,0.1,0,0.1,0.1c-0.1,0-0.1,0-0.2,0C115.1,154.6,115.1,154.6,115.1,154.6
		z M158.3,183.5c0.8,0,1.5,0.7,1.5,1.5c0,0.8-0.7,1.5-1.5,1.5s-1.5-0.7-1.5-1.5S157.5,183.5,158.3,183.5z M159.8,181.1
		c-0.8,0-1.5-0.7-1.5-1.5c0-0.8,0.7-1.5,1.5-1.5c0.8,0,1.5,0.7,1.5,1.5C161.3,180.4,160.6,181.1,159.8,181.1z M158.5,173.4
		c0-0.8,0.7-1.5,1.5-1.5s1.5,0.7,1.5,1.5c0,0.8-0.7,1.5-1.5,1.5S158.5,174.3,158.5,173.4z M112.8,188.7c-1.5-5.6-3.4-14-4.2-22.4
		c0.8-0.3,2.3-0.8,4.2-1.4V188.7z M92.4,166.4c-0.9,8.9-3,17.9-4.5,23.4V165C90,165.6,91.6,166.1,92.4,166.4z M102.1,156.3
		c0,0.8-0.7,1.5-1.5,1.5s-1.5-0.7-1.5-1.5c0-0.8,0.7-1.5,1.5-1.5C101.4,154.8,102.1,155.5,102.1,156.3z M85.6,154.6L85.6,154.6
		C85.6,154.6,85.6,154.6,85.6,154.6C85.6,154.6,85.6,154.6,85.6,154.6z M40.7,171.9c0.8,0,1.5,0.7,1.5,1.5c0,0.8-0.7,1.5-1.5,1.5
		s-1.5-0.7-1.5-1.5C39.1,172.6,39.8,171.9,40.7,171.9z M42.5,179.6c0,0.8-0.7,1.5-1.5,1.5c-0.8,0-1.5-0.7-1.5-1.5
		c0-0.8,0.7-1.5,1.5-1.5C41.8,178,42.5,178.7,42.5,179.6z M42.4,183.5c0.8,0,1.5,0.7,1.5,1.5c0,0.8-0.7,1.5-1.5,1.5
		s-1.5-0.7-1.5-1.5C40.9,184.2,41.6,183.5,42.4,183.5z M48.7,162.8c2.4-3.9,7.1-8.5,15.8-8.5c8.5,0,20.5,2.6,28.2,4.5
		c0,1.7-0.1,3.4-0.2,5.1c-5.2-1.8-26.1-8.5-35-2.4c-10,6.9-6.9,20-5,25.5c-1.6-0.4-3.2-0.6-4.8-0.7C44.2,179,44.5,169.5,48.7,162.8z
		 M55.6,188.1c-0.9-2-6.4-15.9,1.8-23.4v24.5C56.9,188.8,56.3,188.4,55.6,188.1z M59.9,163c1.3-0.7,2.8-1.1,4.5-1.3v21.9
		c-2.5,2.5-3.6,5.9-4,8.5c-0.2-0.2-0.3-0.4-0.5-0.5L59.9,163L59.9,163L59.9,163z M66.9,161.4c1.5-0.1,3,0,4.5,0.1v19.2
		c-0.3,0-0.5-0.1-0.8-0.1c-1.2,0-2.3,0.3-3.4,0.8c-0.1,0.1-0.2,0.1-0.4,0.2L66.9,161.4L66.9,161.4L66.9,161.4z M73.9,161.8
		c1.5,0.2,3,0.5,4.5,0.8v21c-1.6-1.1-3.1-1.9-4.5-2.3V161.8z M80.9,163.1c1.6,0.4,3.1,0.8,4.5,1.2v26c-1.4-1.7-2.9-3.3-4.5-4.7
		V163.1z M95.2,159.4c1.8,0.5,3.3,0.9,4.2,1.1v20.8c-3.3,0.3-5.9,2-7.8,4.1C93.3,178.3,95.1,168.4,95.2,159.4z M101.8,160.5
		c0.8-0.2,2.2-0.6,4-1.1c0.1,9,1.9,18.7,3.6,25.9c-1.9-2-4.4-3.6-7.6-3.9L101.8,160.5L101.8,160.5
		C101.8,160.5,101.8,160.5,101.8,160.5z M115.3,164.2c1.4-0.4,2.9-0.8,4.5-1.2v22.6c0,0.1,0,0.1,0,0.2c-1.7,1.5-3.2,3.2-4.6,5
		C115.3,190.9,115.3,164.2,115.3,164.2z M122.3,162.6c1.5-0.3,3-0.6,4.5-0.8v19.6c-1.5,0.5-3,1.4-4.5,2.5V162.6z M136.3,161.6
		c1.7,0.2,3.2,0.7,4.5,1.3v28.8c0,0.1,0,0.1,0,0.2c0,0-0.1,0.1-0.1,0.1c-0.5-2.7-1.7-6.4-4.5-8.9V161.6z M143.3,164.7
		c8.8,8.1,1.8,23.5,1.7,23.7c0,0,0,0,0,0.1c-0.6,0.3-1.1,0.7-1.7,1.2L143.3,164.7L143.3,164.7z M143.2,161.4c-8.7-6-29,0.4-34.7,2.3
		c-0.1-1.7-0.2-3.3-0.2-5c7.7-1.9,19.8-4.6,28.4-4.6c8.7,0,13.4,4.6,15.8,8.5c4.2,6.8,4.5,16.2,0.9,23.5c-1.7,0-3.5,0.3-5.3,0.8
		C150,181.7,153.3,168.4,143.2,161.4z M159.1,169c-0.8,0-1.5-0.7-1.5-1.5c0-0.8,0.7-1.5,1.5-1.5c0.8,0,1.5,0.7,1.5,1.5
		S159.9,169,159.1,169z M158.5,161.7c0,0.8-0.7,1.5-1.5,1.5c-0.8,0-1.5-0.7-1.5-1.5c0-0.8,0.7-1.5,1.5-1.5
		C157.8,160.2,158.5,160.8,158.5,161.7z M154.8,156.7c0,0.8-0.7,1.5-1.5,1.5c-0.8,0-1.5-0.7-1.5-1.5c0-0.8,0.7-1.5,1.5-1.5
		C154.1,155.2,154.8,155.9,154.8,156.7z M148.3,151.1c0.8,0,1.5,0.7,1.5,1.5c0,0.8-0.7,1.5-1.5,1.5c-0.8,0-1.5-0.7-1.5-1.5
		S147.4,151.1,148.3,151.1z M142.5,148.8c0.8,0,1.5,0.7,1.5,1.5c0,0.8-0.7,1.5-1.5,1.5s-1.5-0.7-1.5-1.5
		C141,149.5,141.6,148.8,142.5,148.8z M136.2,147.9c0.8,0,1.5,0.7,1.5,1.5c0,0.8-0.7,1.5-1.5,1.5c-0.8,0-1.5-0.7-1.5-1.5
		C134.7,148.6,135.4,147.9,136.2,147.9z M130.1,148.4c0.8,0,1.5,0.7,1.5,1.5s-0.7,1.5-1.5,1.5c-0.8,0-1.5-0.7-1.5-1.5
		S129.2,148.4,130.1,148.4z M123.7,149.1c0.8,0,1.5,0.7,1.5,1.5c0,0.8-0.7,1.5-1.5,1.5c-0.8,0-1.5-0.7-1.5-1.5
		S122.9,149.1,123.7,149.1z M117.9,150.2c0.8,0,1.5,0.7,1.5,1.5c0,0.8-0.7,1.5-1.5,1.5s-1.5-0.7-1.5-1.5S117.1,150.2,117.9,150.2z
		 M111.5,151.6c0.8,0,1.5,0.7,1.5,1.5s-0.7,1.5-1.5,1.5s-1.5-0.7-1.5-1.5S110.6,151.6,111.5,151.6z M105.9,156.1
		c-0.8,0-1.5-0.7-1.5-1.5c0-0.8,0.7-1.5,1.5-1.5s1.5,0.7,1.5,1.5C107.4,155.4,106.8,156.1,105.9,156.1z M98.5,130.1c0-1.1,0.9-2,2-2
		s2,0.9,2,2s-0.9,2-2,2C99.5,132.1,98.5,131.2,98.5,130.1z M107.1,128.2l3.8,1.9l-3.8,1.9l-2.1-1.1c0.1-0.3,0.1-0.6,0.1-0.8
		s0-0.6-0.1-0.8L107.1,128.2z M98.7,123.5l1.9-3.8l1.9,3.8l-1.1,2.1c-0.3-0.1-0.6-0.1-0.8-0.1c-0.3,0-0.6,0-0.8,0.1L98.7,123.5z
		 M94,132l-3.8-1.9l3.8-1.9l2.1,1.1c-0.1,0.3-0.1,0.6-0.1,0.8s0,0.6,0.1,0.8L94,132z M98.7,136.6l1.1-2.1c0.3,0.1,0.6,0.1,0.8,0.1
		s0.6,0,0.8-0.1l1.1,2.1l-1.1,2.1c-0.3,0-0.6-0.1-0.8-0.1c-0.3,0-0.6,0.1-0.8,0.1L98.7,136.6z M100.6,141.2c2.9,0,5.3,2.4,5.3,5.3
		c0,2.9-2.4,5.3-5.3,5.3s-5.3-2.4-5.3-5.3C95.3,143.5,97.7,141.2,100.6,141.2z M94.8,153.1c0.8,0,1.5,0.7,1.5,1.5
		c0,0.8-0.7,1.5-1.5,1.5s-1.5-0.7-1.5-1.5C93.3,153.7,94,153.1,94.8,153.1z M89.3,151.6c0.8,0,1.5,0.7,1.5,1.5s-0.7,1.5-1.5,1.5
		s-1.5-0.7-1.5-1.5S88.4,151.6,89.3,151.6z M82.8,150.2c0.8,0,1.5,0.7,1.5,1.5c0,0.8-0.7,1.5-1.5,1.5s-1.5-0.7-1.5-1.5
		S82,150.2,82.8,150.2z M77,149.1c0.8,0,1.5,0.7,1.5,1.5c0,0.8-0.7,1.5-1.5,1.5c-0.8,0-1.5-0.7-1.5-1.5
		C75.5,149.8,76.2,149.1,77,149.1z M70.7,148.4c0.8,0,1.5,0.7,1.5,1.5s-0.7,1.5-1.5,1.5c-0.8,0-1.5-0.7-1.5-1.5
		S69.8,148.4,70.7,148.4z M64.5,147.9c0.8,0,1.5,0.7,1.5,1.5c0,0.8-0.7,1.5-1.5,1.5c-0.8,0-1.5-0.7-1.5-1.5
		C63,148.6,63.7,147.9,64.5,147.9z M58.3,148.8c0.8,0,1.5,0.7,1.5,1.5c0,0.8-0.7,1.5-1.5,1.5s-1.5-0.7-1.5-1.5
		C56.7,149.5,57.4,148.8,58.3,148.8z M52.5,151.1c0.8,0,1.5,0.7,1.5,1.5c0,0.8-0.7,1.5-1.5,1.5c-0.8,0-1.5-0.7-1.5-1.5
		C50.9,151.8,51.6,151.1,52.5,151.1z M47.5,155.2c0.8,0,1.5,0.7,1.5,1.5c0,0.8-0.7,1.5-1.5,1.5c-0.8,0-1.5-0.7-1.5-1.5
		C45.9,155.9,46.6,155.2,47.5,155.2z M43.8,160.2c0.8,0,1.5,0.7,1.5,1.5c0,0.8-0.7,1.5-1.5,1.5c-0.8,0-1.5-0.7-1.5-1.5
		C42.3,160.8,42.9,160.2,43.8,160.2z M41.7,165.9c0.8,0,1.5,0.7,1.5,1.5c0,0.8-0.7,1.5-1.5,1.5c-0.8,0-1.5-0.7-1.5-1.5
		C40.1,166.6,40.8,165.9,41.7,165.9z M148.8,220.6c-5.7-2.8-25.1-4.9-48.2-4.9s-42.5,2.1-48.2,4.9c-2.9-13.6-9.9-26.7-12.3-30.8
		c3.9-1.2,15-3.6,20,6.4c0.3,0.5,0.8,0.8,1.4,0.6c0.6-0.1,0.9-0.6,0.9-1.2c0-0.1,0.1-9.1,5.9-12c5.8-2.9,15.1,6.6,18,12.6
		c0,0,0,0,0,0c0.1,0.2,0.3,0.3,0.4,0.5c0,0,0.1,0,0.1,0.1c0.1,0,0.1,0.1,0.2,0.1c0.1,0,0.3,0.1,0.4,0.1c0,0,0,0,0.1,0c0,0,0,0,0.1,0
		c0.1,0,0.2-0.1,0.3-0.1c0.1,0,0.2-0.1,0.3-0.1c0.1-0.1,0.2-0.2,0.3-0.3c0.1-0.1,0.1-0.1,0.2-0.2c0-0.1,0.2-0.6,0.4-1.3
		c1.1-3.1,4.5-10.9,11.5-10.9c6,0,9.3,5.6,10.9,9.2c0.5,1.7,0.9,2.8,0.9,3c0.2,0.5,0.7,0.9,1.2,0.9c0.1,0,0.3,0,0.4-0.1
		c0,0,0,0,0.1,0c0.3-0.1,0.7-0.3,0.8-0.6c3-5.9,12.3-15.4,18-12.6c0.4,0.2,0.7,0.4,1.1,0.7c0.3,0.3,0.6,0.5,0.9,0.8
		c3.8,3.7,3.9,10.5,3.9,10.6c0,0.6,0.4,1.1,0.9,1.2c0.6,0.1,1.1-0.1,1.4-0.6c5-10,16.1-7.6,20-6.4
		C158.7,193.9,151.7,207,148.8,220.6z"/>
	<path d="M105.4,193.6c-0.2,0.1-0.3,0.3-0.5,0.4c-1.2,1.1-3.2,0.2-3.2-1.4v-0.2c0-0.7-0.6-1.2-1.2-1.2s-1.2,0.6-1.2,1.2v0.2
		c0,1.6-2,2.5-3.2,1.4c-0.2-0.1-0.3-0.3-0.5-0.4c-0.5-0.4-1.3-0.4-1.7,0.2c-0.4,0.5-0.4,1.3,0.2,1.7c3.4,2.8,5.2,9.4,5.2,12v1.3
		c0,0.7,0.6,1.2,1.2,1.2s1.2-0.6,1.2-1.2v-1.3c0-2.6,1.8-9.2,5.2-12c0.5-0.4,0.6-1.2,0.2-1.7C106.7,193.2,106,193.1,105.4,193.6z"/>
	<path d="M133.3,198.7c-0.1,0-0.3,0-0.4,0c-1.2,0.1-2.3-1.6-1.7-2.8c0-0.1,0-0.1,0.1-0.2c0.2-0.5,0.1-1.3-0.4-1.8
		c-0.4-0.5-0.9-0.5-1.2,0.1c0,0.1-0.1,0.1-0.1,0.2c-0.6,1.3-2.3,0.9-2.5-1c0-0.2-0.1-0.5-0.1-0.8c-0.1-0.8-0.6-1.4-1.1-1.2
		c-0.5,0.2-0.8,1.1-0.7,2c0.7,5.5-0.1,11.3-1,13.4c-0.2,0.4-0.3,0.7-0.5,1.1c-0.3,0.6,0.1,1,0.7,1c0.7-0.1,1.4-0.5,1.6-1
		c0.1-0.3,0.3-0.6,0.4-1c0.9-2,4.6-6.5,7.6-6.2c0.5,0,0.7-0.3,0.5-0.8C134.3,199.2,133.8,198.8,133.3,198.7z"/>
	<path d="M151.5,202.5c-0.1,0-0.2,0-0.4,0c-1,0.2-1.8-1.3-1.2-2.6c0-0.1,0-0.1,0.1-0.2c0.2-0.5,0.1-1.3-0.2-1.7
		c-0.3-0.5-0.7-0.4-1,0.2c0,0.1-0.1,0.1-0.1,0.2c-0.6,1.3-1.9,1.1-2-0.8c0-0.2,0-0.5,0-0.7c0-0.8-0.4-1.3-0.8-1
		c-0.4,0.2-0.8,1.2-0.7,2c0.2,5.3-0.9,10.9-1.8,13c-0.2,0.4-0.3,0.7-0.5,1.1c-0.3,0.6,0,1,0.5,0.9c0.6-0.1,1.2-0.6,1.4-1.1
		c0.1-0.3,0.3-0.6,0.4-1c0.9-2,4.3-6.6,6.8-6.6c0.4,0,0.6-0.4,0.5-0.8C152.3,203,151.9,202.6,151.5,202.5z"/>
	<path d="M77,206.6c-0.9-2.1-1.7-7.9-1-13.4c0.1-0.8-0.2-1.7-0.7-2c-0.5-0.2-1,0.3-1.1,1.2c0,0.3-0.1,0.5-0.1,0.8
		c-0.3,1.9-1.9,2.3-2.5,1c0-0.1-0.1-0.1-0.1-0.2c-0.3-0.6-0.8-0.6-1.2-0.1c-0.4,0.5-0.6,1.3-0.4,1.8c0,0.1,0,0.1,0.1,0.2
		c0.6,1.3-0.6,2.9-1.7,2.8c-0.1,0-0.3,0-0.4,0c-0.5,0-1,0.5-1.2,1c-0.2,0.5,0,0.8,0.5,0.8c3-0.2,6.7,4.2,7.6,6.2
		c0.1,0.3,0.3,0.6,0.4,1c0.2,0.5,0.9,0.9,1.6,1c0.7,0,1-0.4,0.7-1C77.4,207.4,77.2,207,77,206.6z"/>
	<path d="M57.9,210.9c-0.9-2.1-2-7.8-1.8-13c0-0.8-0.3-1.7-0.7-2c-0.4-0.3-0.8,0.3-0.8,1c0,0.2,0,0.5,0,0.7c-0.1,1.9-1.4,2.1-2,0.8
		c0-0.1-0.1-0.1-0.1-0.2c-0.3-0.6-0.7-0.6-1-0.2c-0.3,0.5-0.4,1.2-0.2,1.7c0,0.1,0,0.1,0.1,0.2c0.6,1.3-0.3,2.8-1.2,2.6
		c-0.1,0-0.2,0-0.4,0c-0.4,0-0.8,0.4-0.9,0.9c-0.1,0.4,0.1,0.8,0.5,0.8c2.5,0,5.9,4.6,6.8,6.6c0.1,0.3,0.3,0.6,0.4,1
		c0.2,0.5,0.8,1,1.4,1.1c0.6,0.1,0.8-0.3,0.5-0.9C58.2,211.6,58,211.2,57.9,210.9z"/>
</g>
</svg>
