<svg xmlns="http://www.w3.org/2000/svg" viewBox="0 0 512 512"><path fill="#002b7f" d="M0 88.3h512v168H0z"/><path fill="#ce1126" d="M0 255.9h512v168H0z"/><path d="M164 188.7c-.1-.3-.4-.6-.7-.7 0 0-.7-.3-1.8-.6.5-.7.8-1.4.8-2.3 0-.8-.3-1.4-.6-2 1.2-.7 2.1-1.9 2.1-3.4 0-1.2-.5-2.2-1.4-3 1-.7 1.7-1.8 1.7-3.2 0-1.5-.8-2.7-2-3.4.6-.7 1-1.6 1-2.6 0-1.8-1.2-3.2-2.8-3.7.4-.6.6-1.3.6-2 0-2.2-1.7-3.9-3.9-4 .1-.3.2-.7.2-1 0-2.2-1.8-4-4-4-.4 0-.7.1-1 .2 0-.1.1-.2.1-.3 0-2.2-1.8-4-4-4-.8 0-1.4.3-2 .6-.5-1.7-1.9-3-3.8-3-1.1 0-2.1.4-2.8 1.2-.7-1.2-1.9-2.1-3.5-2.1-1.4 0-2.5.7-3.3 1.8-.7-.8-1.7-1.3-2.9-1.3-1.5 0-2.7.8-3.4 2-.7-.8-1.8-1.4-2.9-1.4-1.5 0-2.7.8-3.4 2-.7-.5-1.5-.9-2.4-.9-1.7 0-3.1 1-3.7 2.5-.7-.7-1.7-1.1-2.8-1.1-1.5 0-2.8.9-3.5 2.1-.3-.2-.6-.3-.9-.4.8-1.2 1.3-2.7 1.3-4.4 0-3.1-1.9-5.8-4.5-7l1.1-2.2c.2-.3.2-.8 0-1.1l-1.3-2.7.3-.3 2.7 1.3c.2.1.4.1.5.1s.4 0 .5-.1l6.6-3.3c.4-.2.7-.6.7-1.1 0-.5-.3-.9-.7-1.1l-6.6-3.3c-.3-.2-.8-.2-1.1 0l-2.7 1.3-.3-.3 1.3-2.7c.2-.3.2-.8 0-1.1l-3.3-6.6c-.4-.8-1.8-.8-2.2 0l-3.3 6.6c-.2.3-.2.8 0 1.1l1.3 2.7-.3.3-2.7-1.3c-.3-.2-.8-.2-1.1 0l-6.6 3.3c-.4.2-.7.6-.7 1.1 0 .5.3.9.7 1.1l6.6 3.3c.2.1.4.1.5.1.2 0 .4 0 .5-.1l2.7-1.3.3.3-1.3 2.7c-.2.3-.2.8 0 1.1l1.1 2.2c-2.7 1.2-4.5 3.9-4.5 7 0 1.6.5 3 1.3 4.3-.5.1-.9.3-1.3.5-.7-1.3-2-2.1-3.5-2.1-1.1 0-2 .4-2.8 1.1-.6-1.5-2-2.5-3.7-2.5-.9 0-1.7.4-2.4.9-.7-1.2-1.9-2-3.4-2-1.2 0-2.2.5-2.9 1.4-.7-1.2-1.9-2-3.4-2-1.1 0-2.2.5-2.9 1.3-.7-1.1-1.9-1.8-3.3-1.8-1.5 0-2.8.9-3.5 2.1-.7-.7-1.7-1.2-2.8-1.2-1.8 0-3.3 1.3-3.8 3-.6-.4-1.3-.6-2-.6-2.2 0-4 1.8-4 4 0 .1 0 .2.1.3-.3-.1-.7-.2-1-.2-2.2 0-4 1.8-4 4 0 .4.1.7.2 1-2.2.1-3.9 1.8-3.9 4 0 .8.3 1.4.6 2-1.6.5-2.8 2-2.8 3.7 0 1 .4 1.9 1 2.6-1.2.7-2 1.9-2 3.4 0 1.3.7 2.4 1.7 3.2-.8.7-1.4 1.8-1.4 3 0 1.5.9 2.8 2.1 3.4-.4.6-.6 1.3-.6 2 0 .9.4 1.8.9 2.4-.9.3-1.4.5-1.5.5-.3.1-.6.4-.7.7-.1.3-.1.7.1 1 .1.2 9.8 16.4 13 32.4.1.4.4.7.7.8 2.5 3.3 23.7 5.9 49.7 5.9s47.2-2.6 49.7-5.9c.3-.2.6-.4.7-.8 3.2-16 12.9-32.2 13-32.4.4-.3.4-.7.3-1z" fill="#ffd83d"/><path d="M164 188.7c-.1-.3-.4-.6-.7-.7 0 0-.7-.3-1.8-.6.5-.7.8-1.4.8-2.3 0-.8-.3-1.4-.6-2 1.2-.7 2.1-1.9 2.1-3.4 0-1.2-.5-2.2-1.4-3 1-.7 1.7-1.8 1.7-3.2 0-1.5-.8-2.7-2-3.4.6-.7 1-1.6 1-2.6 0-1.8-1.2-3.2-2.8-3.7.4-.6.6-1.3.6-2 0-2.2-1.7-3.9-3.9-4 .1-.3.2-.7.2-1 0-2.2-1.8-4-4-4-.4 0-.7.1-1 .2 0-.1.1-.2.1-.3 0-2.2-1.8-4-4-4-.8 0-1.4.3-2 .6-.5-1.7-1.9-3-3.8-3-1.1 0-2.1.4-2.8 1.2-.7-1.2-1.9-2.1-3.5-2.1-1.4 0-2.5.7-3.3 1.8-.7-.8-1.7-1.3-2.9-1.3-1.5 0-2.7.8-3.4 2-.7-.8-1.8-1.4-2.9-1.4-1.5 0-2.7.8-3.4 2-.7-.5-1.5-.9-2.4-.9-1.7 0-3.1 1-3.7 2.5-.7-.7-1.7-1.1-2.8-1.1-1.5 0-2.8.9-3.5 2.1-.3-.2-.6-.3-.9-.4.8-1.2 1.3-2.7 1.3-4.4 0-3.1-1.9-5.8-4.5-7l1.1-2.2c.2-.3.2-.8 0-1.1l-1.3-2.7.3-.3 2.7 1.3c.2.1.4.1.5.1s.4 0 .5-.1l6.6-3.3c.4-.2.7-.6.7-1.1 0-.5-.3-.9-.7-1.1l-6.6-3.3c-.3-.2-.8-.2-1.1 0l-2.7 1.3-.3-.3 1.3-2.7c.2-.3.2-.8 0-1.1l-3.3-6.6c-.4-.8-1.8-.8-2.2 0l-3.3 6.6c-.2.3-.2.8 0 1.1l1.3 2.7-.3.3-2.7-1.3c-.3-.2-.8-.2-1.1 0l-6.6 3.3c-.4.2-.7.6-.7 1.1 0 .5.3.9.7 1.1l6.6 3.3c.2.1.4.1.5.1.2 0 .4 0 .5-.1l2.7-1.3.3.3-1.3 2.7c-.2.3-.2.8 0 1.1l1.1 2.2c-2.7 1.2-4.5 3.9-4.5 7 0 1.6.5 3 1.3 4.3-.5.1-.9.3-1.3.5-.7-1.3-2-2.1-3.5-2.1-1.1 0-2 .4-2.8 1.1-.6-1.5-2-2.5-3.7-2.5-.9 0-1.7.4-2.4.9-.7-1.2-1.9-2-3.4-2-1.2 0-2.2.5-2.9 1.4-.7-1.2-1.9-2-3.4-2-1.1 0-2.2.5-2.9 1.3-.7-1.1-1.9-1.8-3.3-1.8-1.5 0-2.8.9-3.5 2.1-.7-.7-1.7-1.2-2.8-1.2-1.8 0-3.3 1.3-3.8 3-.6-.4-1.3-.6-2-.6-2.2 0-4 1.8-4 4 0 .1 0 .2.1.3-.3-.1-.7-.2-1-.2-2.2 0-4 1.8-4 4 0 .4.1.7.2 1-2.2.1-3.9 1.8-3.9 4 0 .8.3 1.4.6 2-1.6.5-2.8 2-2.8 3.7 0 1 .4 1.9 1 2.6-1.2.7-2 1.9-2 3.4 0 1.3.7 2.4 1.7 3.2-.8.7-1.4 1.8-1.4 3 0 1.5.9 2.8 2.1 3.4-.4.6-.6 1.3-.6 2 0 .9.4 1.8.9 2.4-.9.3-1.4.5-1.5.5-.3.1-.6.4-.7.7-.1.3-.1.7.1 1 .1.2 9.8 16.4 13 32.4.1.4.4.7.7.8 2.5 3.3 23.7 5.9 49.7 5.9s47.2-2.6 49.7-5.9c.3-.2.6-.4.7-.8 3.2-16 12.9-32.2 13-32.4.4-.3.4-.7.3-1zm-34.7-7.9v-19.2c1.6-.1 3.1-.2 4.5-.1v20c-1.3-.8-2.9-1-4.5-.7zm-14.2-26.2s.1 0 .1.1h-.2l.1-.1zm43.2 28.9c.8 0 1.5.7 1.5 1.5s-.7 1.5-1.5 1.5-1.5-.7-1.5-1.5.7-1.5 1.5-1.5zm1.5-2.4c-.8 0-1.5-.7-1.5-1.5s.7-1.5 1.5-1.5 1.5.7 1.5 1.5-.7 1.5-1.5 1.5zm-1.3-7.7c0-.8.7-1.5 1.5-1.5s1.5.7 1.5 1.5-.7 1.5-1.5 1.5-1.5-.6-1.5-1.5zm-45.7 15.3c-1.5-5.6-3.4-14-4.2-22.4.8-.3 2.3-.8 4.2-1.4v23.8zm-20.4-22.3c-.9 8.9-3 17.9-4.5 23.4V165c2.1.6 3.7 1.1 4.5 1.4zm9.7-10.1c0 .8-.7 1.5-1.5 1.5s-1.5-.7-1.5-1.5.7-1.5 1.5-1.5 1.5.7 1.5 1.5zm-16.5-1.7zm-44.9 17.3c.8 0 1.5.7 1.5 1.5s-.7 1.5-1.5 1.5-1.5-.7-1.5-1.5c-.1-.8.6-1.5 1.5-1.5zm1.8 7.7c0 .8-.7 1.5-1.5 1.5s-1.5-.7-1.5-1.5.7-1.5 1.5-1.5c.8-.1 1.5.6 1.5 1.5zm-.1 3.9c.8 0 1.5.7 1.5 1.5s-.7 1.5-1.5 1.5-1.5-.7-1.5-1.5.7-1.5 1.5-1.5zm6.3-20.7c2.4-3.9 7.1-8.5 15.8-8.5 8.5 0 20.5 2.6 28.2 4.5 0 1.7-.1 3.4-.2 5.1-5.2-1.8-26.1-8.5-35-2.4-10 6.9-6.9 20-5 25.5-1.6-.4-3.2-.6-4.8-.7-3.5-7.3-3.2-16.8 1-23.5zm6.9 25.3c-.9-2-6.4-15.9 1.8-23.4v24.5c-.5-.4-1.1-.8-1.8-1.1zm4.3-25.1c1.3-.7 2.8-1.1 4.5-1.3v21.9c-2.5 2.5-3.6 5.9-4 8.5-.2-.2-.3-.4-.5-.5V163zm7-1.6c1.5-.1 3 0 4.5.1v19.2c-.3 0-.5-.1-.8-.1-1.2 0-2.3.3-3.4.8-.1.1-.2.1-.4.2l.1-20.2zm7 .4c1.5.2 3 .5 4.5.8v21c-1.6-1.1-3.1-1.9-4.5-2.3v-19.5zm7 1.3c1.6.4 3.1.8 4.5 1.2v26c-1.4-1.7-2.9-3.3-4.5-4.7v-22.5zm14.3-3.7c1.8.5 3.3.9 4.2 1.1v20.8c-3.3.3-5.9 2-7.8 4.1 1.7-7.1 3.5-17 3.6-26zm6.6 1.1c.8-.2 2.2-.6 4-1.1.1 9 1.9 18.7 3.6 25.9-1.9-2-4.4-3.6-7.6-3.9v-20.9zm13.5 3.7c1.4-.4 2.9-.8 4.5-1.2v22.8c-1.7 1.5-3.2 3.2-4.6 5 .1.1.1-26.6.1-26.6zm7-1.6c1.5-.3 3-.6 4.5-.8v19.6c-1.5.5-3 1.4-4.5 2.5v-21.3zm14-1c1.7.2 3.2.7 4.5 1.3v29l-.1.1c-.5-2.7-1.7-6.4-4.5-8.9v-21.5zm7 3.1c8.8 8.1 1.8 23.5 1.7 23.7v.1c-.6.3-1.1.7-1.7 1.2v-25zm-.1-3.3c-8.7-6-29 .4-34.7 2.3-.1-1.7-.2-3.3-.2-5 7.7-1.9 19.8-4.6 28.4-4.6 8.7 0 13.4 4.6 15.8 8.5 4.2 6.8 4.5 16.2.9 23.5-1.7 0-3.5.3-5.3.8 1.9-5.2 5.2-18.5-4.9-25.5zm15.9 7.6c-.8 0-1.5-.7-1.5-1.5s.7-1.5 1.5-1.5 1.5.7 1.5 1.5-.7 1.5-1.5 1.5zm-.6-7.3c0 .8-.7 1.5-1.5 1.5s-1.5-.7-1.5-1.5.7-1.5 1.5-1.5 1.5.6 1.5 1.5zm-3.7-5c0 .8-.7 1.5-1.5 1.5s-1.5-.7-1.5-1.5.7-1.5 1.5-1.5 1.5.7 1.5 1.5zm-6.5-5.6c.8 0 1.5.7 1.5 1.5s-.7 1.5-1.5 1.5-1.5-.7-1.5-1.5.6-1.5 1.5-1.5zm-5.8-2.3c.8 0 1.5.7 1.5 1.5s-.7 1.5-1.5 1.5-1.5-.7-1.5-1.5.6-1.5 1.5-1.5zm-6.3-.9c.8 0 1.5.7 1.5 1.5s-.7 1.5-1.5 1.5-1.5-.7-1.5-1.5.7-1.5 1.5-1.5zm-6.1.5c.8 0 1.5.7 1.5 1.5s-.7 1.5-1.5 1.5-1.5-.7-1.5-1.5.6-1.5 1.5-1.5zm-6.4.7c.8 0 1.5.7 1.5 1.5s-.7 1.5-1.5 1.5-1.5-.7-1.5-1.5.7-1.5 1.5-1.5zm-5.8 1.1c.8 0 1.5.7 1.5 1.5s-.7 1.5-1.5 1.5-1.5-.7-1.5-1.5.7-1.5 1.5-1.5zm-6.4 1.4c.8 0 1.5.7 1.5 1.5s-.7 1.5-1.5 1.5-1.5-.7-1.5-1.5.6-1.5 1.5-1.5zm-5.6 4.5c-.8 0-1.5-.7-1.5-1.5s.7-1.5 1.5-1.5 1.5.7 1.5 1.5-.6 1.5-1.5 1.5zm-7.4-26c0-1.1.9-2 2-2s2 .9 2 2-.9 2-2 2c-1 0-2-.9-2-2zm8.6-1.9l3.8 1.9-3.8 1.9-2.1-1.1c.1-.3.1-.6.1-.8s0-.6-.1-.8l2.1-1.1zm-8.4-4.7l1.9-3.8 1.9 3.8-1.1 2.1c-.3-.1-.6-.1-.8-.1-.3 0-.6 0-.8.1l-1.1-2.1zM94 132l-3.8-1.9 3.8-1.9 2.1 1.1c-.1.3-.1.6-.1.8s0 .6.1.8L94 132zm4.7 4.6l1.1-2.1c.3.1.6.1.8.1s.6 0 .8-.1l1.1 2.1-1.1 2.1c-.3 0-.6-.1-.8-.1-.3 0-.6.1-.8.1l-1.1-2.1zm1.9 4.6c2.9 0 5.3 2.4 5.3 5.3s-2.4 5.3-5.3 5.3-5.3-2.4-5.3-5.3c0-3 2.4-5.3 5.3-5.3zm-5.8 11.9c.8 0 1.5.7 1.5 1.5s-.7 1.5-1.5 1.5-1.5-.7-1.5-1.5c0-.9.7-1.5 1.5-1.5zm-5.5-1.5c.8 0 1.5.7 1.5 1.5s-.7 1.5-1.5 1.5-1.5-.7-1.5-1.5.6-1.5 1.5-1.5zm-6.5-1.4c.8 0 1.5.7 1.5 1.5s-.7 1.5-1.5 1.5-1.5-.7-1.5-1.5.7-1.5 1.5-1.5zm-5.8-1.1c.8 0 1.5.7 1.5 1.5s-.7 1.5-1.5 1.5-1.5-.7-1.5-1.5.7-1.5 1.5-1.5zm-6.3-.7c.8 0 1.5.7 1.5 1.5s-.7 1.5-1.5 1.5-1.5-.7-1.5-1.5.6-1.5 1.5-1.5zm-6.2-.5c.8 0 1.5.7 1.5 1.5s-.7 1.5-1.5 1.5-1.5-.7-1.5-1.5.7-1.5 1.5-1.5zm-6.2.9c.8 0 1.5.7 1.5 1.5s-.7 1.5-1.5 1.5-1.5-.7-1.5-1.5c-.1-.8.6-1.5 1.5-1.5zm-5.8 2.3c.8 0 1.5.7 1.5 1.5s-.7 1.5-1.5 1.5-1.5-.7-1.5-1.5c-.1-.8.6-1.5 1.5-1.5zm-5 4.1c.8 0 1.5.7 1.5 1.5s-.7 1.5-1.5 1.5-1.5-.7-1.5-1.5c-.1-.8.6-1.5 1.5-1.5zm-3.7 5c.8 0 1.5.7 1.5 1.5s-.7 1.5-1.5 1.5-1.5-.7-1.5-1.5c0-.9.6-1.5 1.5-1.5zm-2.1 5.7c.8 0 1.5.7 1.5 1.5s-.7 1.5-1.5 1.5-1.5-.7-1.5-1.5c-.1-.8.6-1.5 1.5-1.5zm107.1 54.7c-5.7-2.8-25.1-4.9-48.2-4.9s-42.5 2.1-48.2 4.9c-2.9-13.6-9.9-26.7-12.3-30.8 3.9-1.2 15-3.6 20 6.4.3.5.8.8 1.4.6.6-.1.9-.6.9-1.2 0-.1.1-9.1 5.9-12 5.8-2.9 15.1 6.6 18 12.6.1.2.3.3.4.5 0 0 .1 0 .1.1.1 0 .1.1.2.1s.3.1.4.1h.2c.1 0 .2-.1.3-.1.1 0 .2-.1.3-.1l.3-.3.2-.2c0-.1.2-.6.4-1.3 1.1-3.1 4.5-10.9 11.5-10.9 6 0 9.3 5.6 10.9 9.2.5 1.7.9 2.8.9 3 .2.5.7.9 1.2.9.1 0 .3 0 .4-.1h.1c.3-.1.7-.3.8-.6 3-5.9 12.3-15.4 18-12.6.4.2.7.4 1.1.7.3.3.6.5.9.8 3.8 3.7 3.9 10.5 3.9 10.6 0 .6.4 1.1.9 1.2.6.1 1.1-.1 1.4-.6 5-10 16.1-7.6 20-6.4-2.4 3.7-9.4 16.8-12.3 30.4z"/><path d="M105.4 193.6c-.2.1-.3.3-.5.4-1.2 1.1-3.2.2-3.2-1.4v-.2c0-.7-.6-1.2-1.2-1.2s-1.2.6-1.2 1.2v.2c0 1.6-2 2.5-3.2 1.4-.2-.1-.3-.3-.5-.4-.5-.4-1.3-.4-1.7.2-.4.5-.4 1.3.2 1.7 3.4 2.8 5.2 9.4 5.2 12v1.3c0 .7.6 1.2 1.2 1.2s1.2-.6 1.2-1.2v-1.3c0-2.6 1.8-9.2 5.2-12 .5-.4.6-1.2.2-1.7-.4-.6-1.1-.7-1.7-.2zM133.3 198.7h-.4c-1.2.1-2.3-1.6-1.7-2.8 0-.1 0-.1.1-.2.2-.5.1-1.3-.4-1.8-.4-.5-.9-.5-1.2.1 0 .1-.1.1-.1.2-.6 1.3-2.3.9-2.5-1 0-.2-.1-.5-.1-.8-.1-.8-.6-1.4-1.1-1.2-.5.2-.8 1.1-.7 2 .7 5.5-.1 11.3-1 13.4-.2.4-.3.7-.5 1.1-.3.6.1 1 .7 1 .7-.1 1.4-.5 1.6-1 .1-.3.3-.6.4-1 .9-2 4.6-6.5 7.6-6.2.5 0 .7-.3.5-.8-.2-.5-.7-.9-1.2-1zM151.5 202.5h-.4c-1 .2-1.8-1.3-1.2-2.6 0-.1 0-.1.1-.2.2-.5.1-1.3-.2-1.7-.3-.5-.7-.4-1 .2 0 .1-.1.1-.1.2-.6 1.3-1.9 1.1-2-.8v-.7c0-.8-.4-1.3-.8-1-.4.2-.8 1.2-.7 2 .2 5.3-.9 10.9-1.8 13-.2.4-.3.7-.5 1.1-.3.6 0 1 .5.9.6-.1 1.2-.6 1.4-1.1.1-.3.3-.6.4-1 .9-2 4.3-6.6 6.8-6.6.4 0 .6-.4.5-.8-.2-.4-.6-.8-1-.9zM77 206.6c-.9-2.1-1.7-7.9-1-13.4.1-.8-.2-1.7-.7-2-.5-.2-1 .3-1.1 1.2 0 .3-.1.5-.1.8-.3 1.9-1.9 2.3-2.5 1 0-.1-.1-.1-.1-.2-.3-.6-.8-.6-1.2-.1-.4.5-.6 1.3-.4 1.8 0 .1 0 .1.1.2.6 1.3-.6 2.9-1.7 2.8h-.4c-.5 0-1 .5-1.2 1-.2.5 0 .8.5.8 3-.2 6.7 4.2 7.6 6.2.1.3.3.6.4 1 .2.5.9.9 1.6 1 .7 0 1-.4.7-1-.1-.3-.3-.7-.5-1.1zM57.9 210.9c-.9-2.1-2-7.8-1.8-13 0-.8-.3-1.7-.7-2-.4-.3-.8.3-.8 1v.7c-.1 1.9-1.4 2.1-2 .8 0-.1-.1-.1-.1-.2-.3-.6-.7-.6-1-.2-.3.5-.4 1.2-.2 1.7 0 .1 0 .1.1.2.6 1.3-.3 2.8-1.2 2.6h-.4c-.4 0-.8.4-.9.9-.1.4.1.8.5.8 2.5 0 5.9 4.6 6.8 6.6.1.3.3.6.4 1 .2.5.8 1 1.4 1.1.6.1.8-.3.5-.9-.3-.4-.5-.8-.6-1.1z"/></svg>