<?xml version="1.0" encoding="utf-8"?>
<!-- Generator: Adobe Illustrator 25.0.0, SVG Export Plug-In . SVG Version: 6.00 Build 0)  -->
<svg version="1.1" id="Layer_1" xmlns="http://www.w3.org/2000/svg" xmlns:xlink="http://www.w3.org/1999/xlink" x="0px" y="0px"
	 viewBox="0 0 512 512" style="enable-background:new 0 0 512 512;" xml:space="preserve">
<style type="text/css">
	.st0{fill:#8D2029;}
	.st1{fill:#005641;}
	.st2{fill:#FF5800;}
	.st3{fill:#FFB700;}
</style>
<rect x="185.4" y="115" class="st0" width="299.6" height="282"/>
<rect x="27" y="115" class="st1" width="65.7" height="282"/>
<rect x="92.7" y="115" class="st2" width="65.7" height="282"/>
<path class="st3" d="M0,88v336h512V88H0z M27,397V115h131.4v282H27z M485,397H185.4V115H485V397z"/>
<g id="crest">
	<g>
		<path class="st3" d="M393.6,326.7c-0.3-2,1.4-4.5,4.1-8.2c1-1.3,2.4-3.2,2.8-4.2c-0.2,0-0.6,0-0.9,0c-1.5,0.1-3.7,0.2-5.7-2
			c-0.8-0.9-1.1-1.9-1.1-3.1c0.1-2.4,2.1-4.7,3.3-5.9c-3.1-2.2-6.1-4.4-8.8-7.2c-5.2-5.2-11.2-7.7-17.7-7.6
			c-0.6,6.5,2.8,10.8,6.4,15.3c1.1,1.3,2.1,2.7,3.1,4c4.7,6.8,3.7,20,3.1,21.4c-0.7,1.6-4.4,5.1-9.5,4.4c-2.4-0.3-5.1,0.5-6.8,2
			c-0.7,0.6-1.6,1.7-1.6,3.1c0,0.1,0,0.4,0.1,0.5c0.7,0.4,3.3-0.4,5.1-1.4c0.5-0.3,1.1-0.2,1.6,0.2c3.6,3.4,7.3,0.5,7.7,0.1
			c0.5-0.4,1.2-0.4,1.7,0c3.7,3,7.6-0.3,7.7-0.4c0.5-0.4,1.1-0.4,1.6-0.1c1.6,1.1,3.1,1.4,4.4,0.9c1.1-0.4,1.8-1.3,1.8-1.5
			c0-0.5-0.7-3.4-1.2-5.2C394.3,330.1,393.8,328.1,393.6,326.7z"/>
		<path class="st3" d="M433.7,201.7c-1.1-0.1-1.9,0.2-2.5,0.7c-1,1-0.9,2.8-0.9,2.8c0,0.4-0.1,0.8-0.4,1.1c-0.3,0.3-0.7,0.4-1.1,0.4
			c-2-0.3-5-2.4-10.5-6.4c-8.8-6.4-22-16.1-34.6-17.7c-14.7-1.9-27.7,2.8-31,11.1c-3.7,9.2,4.2,17.7,4.2,17.7
			c0.4,0.4,0.5,1.1,0.2,1.6c-2.1,3.9-0.5,6.8,0.9,8.4c0.4-1.3,1.1-2.2,2-2.7c2.2-1.3,5.1-0.2,9.1,1.3c2.4,0.9,5,1.9,8.1,2.7
			c8,2,17.7,0.2,26.2-1.3c3-0.5,6-1.1,8.7-1.4c6.8-0.9,13.7,2.2,15.6,6.9c0.9,2.3,1.4,6.9-5.6,12c-12.6,9.1-69.8,4.9-73.2,4.7
			c-0.1,0-0.1,0-0.3,0c1.3,1.4,2.7,2.8,3.4,2.9c0.7,0.2,1.1,0.8,1,1.5c-0.1,0.7-0.6,1.2-1.3,1.2l-5.9,0.1l0.5,5.6
			c0,0.4-0.1,0.8-0.4,1.1c-0.3,0.3-0.7,0.4-1.1,0.4c-0.2,0-5.3-0.8-8.8-2.8l-6.6,4.2c-0.2,0.1-0.5,0.2-0.7,0.2c-0.1,0-0.3,0-0.4-0.1
			c-0.4-0.1-0.7-0.4-0.8-0.8l-2.5-6.9l-3,6c-0.2,0.4-0.7,0.7-1.1,0.7c-0.5,0.1-1-0.2-1.2-0.6l-2.6-4.1c-1.2,1.5-3.1,3.6-5,4.9
			c-0.4,0.2-0.8,0.3-1.2,0.2c-0.4-0.1-0.7-0.5-0.9-0.9l-1.3-4.2c-1.2,1.5-2.9,3.5-4.7,5c-0.4,0.3-0.9,0.4-1.4,0.2
			c-0.5-0.2-0.8-0.6-0.8-1.2l-0.4-6.8c-1.5,0.8-3.6,1.8-4.8,2.2c-0.5,0.2-1.1,0-1.5-0.4c-0.3-0.4-0.4-1-0.1-1.5
			c2.1-3.6,4-8.1,4.1-10.4c-1.4,1.7-3.3,3.2-5.5,5c-4.6,3.8-10.3,8.4-14.6,16.6c-2.9,5.7-5.1,15.7-1.3,24.9
			c3.2,7.9,10,13.8,20.3,17.6c-0.3-1.5-0.6-3-0.6-4.4c-0.1-7,1.3-13.4,1.4-13.7c0.2-0.7,0.9-1.2,1.6-1c0.7,0.2,1.2,0.9,1,1.6
			c0,0.1-1.4,6.4-1.3,13.1c0.1,3.3,1.5,7.3,2.8,11.2c1.8,5.2,3.7,10.6,2.9,15.1c-1.1,6.1-8.7,7.7-15.8,6.5c-2-0.3-3.9,0.2-5.2,1.4
			c-1.3,1.2-2,3.2-1.8,5.1c0.1,0.9,0.4,1.1,0.5,1.2c0.9,0.5,2.9-0.2,3.9-0.7c0.5-0.3,1.2-0.2,1.6,0.3c2.8,3.2,6.7,0,6.8-0.1
			c0.5-0.5,1.4-0.4,1.9,0.1c1.1,1.1,2.2,1.7,3.5,1.7c2.3,0.1,4.5-1.9,4.5-1.9c0.4-0.4,1-0.5,1.5-0.3c4.5,2,6.8,0.9,6.9,0.8
			c3.9-3.3,1.6-11.1,1.6-11.2c-0.1-0.4-0.1-0.7,0.1-1.1c0.2-0.3,0.5-0.6,0.9-0.6c5.4-1.2,8.5-4.7,9.9-7c-2.7,0-4.8-1-6.1-2.9
			c-2-3.2-1-7.9,2.5-12.1c6-7.2,9.7-21.8,9.2-27.7c-0.1-0.7,0.5-1.4,1.2-1.5c0.7-0.1,1.4,0.5,1.5,1.2c0.5,5.2-1.9,16-6.1,24.1
			c5.4-1.5,10.4-3.7,15.5-6.1c5.1-2.3,10.4-4.8,16.8-6.8c10.8-3.4,20.3-1,28.3,7c3.9,3.9,8.1,6.7,13,10c2.1,1.4,4.4,2.9,6.7,4.6
			c6.3,4.5,6.2,8.3,6.1,12.3c0,1.2-0.1,2.5,0.1,3.8c0.6,6.5-4.5,7.5-7,8c-0.3,0.1-0.7,0.1-0.9,0.2c-0.4,0.1-0.8,0.2-1.2,0.3
			c-2.5,0.5-6.3,1.3-7.3,4.5c-0.2,0.6-0.1,0.8-0.1,0.8c0.4,0.2,2.5-0.3,4.1-1c0.3-0.2,0.7-0.2,1.1,0s0.6,0.4,0.7,0.8
			c0.5,1.4,1.2,1.6,1.5,1.7c1.7,0.5,4.5-1,5.3-1.6c0.5-0.4,1.2-0.3,1.7,0.1c1.4,1.3,2.7,1.8,3.9,1.7c1.6-0.2,2.5-1.7,2.5-1.7
			c0.2-0.4,0.6-0.6,1-0.6c0.4,0,0.8,0.1,1.1,0.4c0,0,1.2,1.3,3.6,2c1.6,0.5,2-0.1,2.1-0.3c0.7-1,0.4-3.5-0.9-5.1
			c-1.7-2.1-2.5-5.4-2-8.3c0.4-2.7,1.9-4.9,4.2-6.3c4.2-2.7,5.1-5.5,4.9-6.1c-0.1,0-0.5-0.1-0.9-0.1c-1.9-0.2-5-0.7-8.2-6.6
			c-2.8-5.2-0.1-13.5,3.1-23.1c1.6-4.9,3.3-9.9,4.3-14.8c2.8-13.6-6.1-24.5-6.2-24.6c-0.5-0.6-0.4-1.4,0.1-1.9
			c6.3-5.9,9-11.3,8-16.2c-1-5.1-5.9-8.6-9.8-10.1c-4.9-1.9-13.8-0.8-22.3,0.2c-7.2,0.9-14,1.7-18.3,0.7c-2.3-0.5-3.9-1.5-4.9-3.2
			c-0.8-1.3-1-2.8-1-4c-2.2,0.8-3.6,2.8-3.7,2.9c-0.2,0.3-0.6,0.6-1.1,0.6c-0.5,0-0.8-0.2-1.1-0.5c-1.1-1.4-1.6-3-1.3-4.7
			c0.3-2.2,1.7-4.1,2.9-5.3c-5-1.8-8.9,2.5-9.1,2.7c-0.4,0.5-1.2,0.6-1.7,0.3c-2.4-1.5-3.9-4.4-3.8-7.5c0.1-2.9,1.6-5.3,4.1-6.6
			c1.7-0.9,3.3-1.1,4.9-0.5c1.4,0.5,2.5,1.7,3.1,2.6c1.8-2.1,2-5.7,2-5.8c0-0.4,0.2-0.7,0.4-1c0.3-0.2,0.6-0.4,1-0.4
			c3.2,0.1,5.7,1.3,7.4,3.4c2.3,2.9,2.5,7,2.4,9.6c5.1-2.6,4.5-8.6,4.4-8.9c-0.1-0.5,0.1-0.9,0.5-1.2c0.4-0.3,0.9-0.4,1.3-0.2
			c5.4,1.9,7.4,6.8,7.9,10.4c1.5-1.5,1.6-3.4,1.6-3.4c0-0.6,0.4-1.2,1-1.3c0.6-0.2,1.2,0.1,1.5,0.7c2.1,3.8,5.3,6.2,7.6,7.5
			l-1.6-3.9c-0.2-0.5-0.1-1.1,0.3-1.5c0.4-0.4,1-0.5,1.5-0.2c2.7,1.4,4.8,3.1,7,4.8c2.7,2.1,5.5,4.2,9.5,6.1c3.9,1.8,6.5,1.5,8,0.9
			c1.5-0.6,2.4-1.7,2.7-2.5c0.5-1.4,0.7-3.5-0.2-4.8C436,202.2,435,201.8,433.7,201.7z"/>
		<path class="st3" d="M274,221.1C274,221.1,274,221.1,274,221.1C274,221.1,274,221.1,274,221.1c0.1,0,10.2,3.2,19.4,3.8
			c0.5,0,1,0.3,1.2,0.8c0.2,0.5,0.1,1-0.2,1.4l-0.3,0.4c1.8-0.3,4.1-0.5,6.4-0.5c-0.9-1.1-2.1-2.5-3.2-4c-2.5,0-11.4-0.4-18.8-4
			c-1.8-0.9-4.8-2.4-6.3-1.6c-0.3,0.1-0.7,0.7-0.6,1.5C271.6,219.9,272.4,220.7,274,221.1z"/>
		<path class="st3" d="M304.4,201.6c-0.1,0-0.3,0-0.4,0.1c-0.6,0.2-0.9,0.8-1,1.4c-0.1,0.7,0.1,1.6,0.8,2.1c1,0.7,2.1,0.2,2.7-0.4
			c0.2-0.2,1.1-1.2,0.4-2.3l0,0C306,201.9,305.1,201.6,304.4,201.6z"/>
		<path class="st3" d="M291.2,234.2c0.7,1.6,1.7,2.8,2.5,3.6c0.3-0.7,0.8-1.4,1.5-1.9c0.7-0.5,2-1,3.8-0.7c0,0,0.1,0,0.1,0
			c0.1,0,0.1,0,0.1,0c0,0,0.1,0,0.1,0.1c0.1,0,0.1,0,0.2,0.1c0,0,0.1,0.1,0.1,0.1c0.7,0.3,1.3,0.8,1.6,1.5c1,2.4-0.8,7-2.4,10.3
			c1.1-0.6,2.2-1.1,2.8-1.4c0.4-0.2,0.9-0.2,1.3,0c0.4,0.2,0.7,0.6,0.7,1.1l0.4,6c2.1-2.2,3.8-4.7,3.8-4.7c0.3-0.4,0.8-0.6,1.3-0.6
			c0.5,0.1,0.9,0.4,1.1,0.9l1.5,4.9c2.2-2,4-4.6,4.1-4.7c0.3-0.4,0.7-0.6,1.1-0.6c0.5,0,0.9,0.2,1.1,0.6l2.3,3.7l3.3-6.6
			c0.2-0.5,0.7-0.8,1.3-0.7c0.5,0,1,0.4,1.2,0.9l3,8.2l5.9-3.7c0.4-0.3,1-0.3,1.5,0c1.9,1.3,4.9,2.1,6.8,2.5l-0.5-5.3
			c0-0.4,0.1-0.8,0.3-1c0.3-0.3,0.6-0.4,1-0.5l3.4-0.1c-0.8-0.8-1.5-1.6-1.8-2c-0.2-0.3-0.3-0.6-0.3-0.9c-2.5-0.1-6-0.6-9.4-2.1
			l-2.1,3.2c-0.2,0.3-0.5,0.5-0.9,0.6c-0.1,0-0.2,0-0.3,0c-0.3,0-0.5-0.1-0.8-0.2l-7.8-5.2l-1.4,3.9c-0.2,0.4-0.6,0.8-1,0.9
			c-0.5,0.1-1-0.1-1.3-0.4c-1.3-1.5-3.5-3.9-4.7-5.2c-1.1,1.1-3.1,2.8-5.2,4c-0.3,0.2-0.8,0.2-1.1,0.1c-0.4-0.1-0.7-0.4-0.8-0.8
			l-2.1-5.8c-0.3-0.7,0.1-1.5,0.8-1.7c0.7-0.3,1.5,0.1,1.7,0.8l1.6,4.2c2.3-1.6,4.2-3.6,4.2-3.6c0.5-0.5,1.3-0.6,1.8-0.1
			c0.8,0.6,2.9,3,4.4,4.7l1.2-3.4c0.1-0.4,0.5-0.7,0.9-0.8c0.4-0.1,0.8-0.1,1.2,0.2l8.1,5.4l2-3c0.4-0.6,1.1-0.8,1.7-0.5
			c3.6,1.8,7.5,2.2,10,2.3c-1.5-2.8-1.6-6.4-1.7-7.3c-2-0.9-4.5-2.2-7-4.3l-1,2.4c-0.2,0.4-0.5,0.7-0.9,0.8c-0.4,0.1-0.8,0-1.2-0.2
			l-3.9-2.8l-0.4,2.9c-0.1,0.5-0.3,0.8-0.8,1c-0.4,0.2-0.9,0.2-1.3-0.1c-0.1-0.1-3.4-2-5.3-4.2c-0.5-0.6-0.4-1.4,0.1-1.9
			c0.6-0.5,1.4-0.4,1.9,0.1c0.8,0.9,1.9,1.8,2.9,2.5l0.4-3c0.1-0.5,0.4-0.9,0.8-1.1c0.4-0.2,0.9-0.1,1.3,0.1l4.4,3.2l1-2.6
			c0.2-0.4,0.5-0.7,1-0.8c0.4-0.1,0.9,0,1.2,0.3c3.4,3.2,7,4.9,9.3,5.7c-0.8-3.6-1.1-8.1-1.1-8.4c0,0,0-0.1,0-0.1
			c-2.1-1.2-5.1-3.2-7.7-6.3c0,1.7-0.1,3.4-0.6,4.4c-0.1,0.4-0.4,0.7-0.8,0.8c-0.4,0.1-0.8,0.1-1.1-0.1c-0.2-0.1-3.1-1.8-5.3-4.3
			c-0.4,1.4-0.8,2.8-1.2,3.4c-0.4,0.6-1.1,0.8-1.8,0.5c-0.1-0.1-2.2-1.1-4.1-2.7c-0.2,1.8-0.5,3.8-0.9,4.8c-0.1,0.4-0.4,0.6-0.8,0.8
			c-0.4,0.1-0.8,0.1-1.1-0.1c-0.1-0.1-2.5-1.4-4.7-3l-0.6,2.3c-0.1,0.4-0.4,0.7-0.7,0.9c-0.4,0.2-0.8,0.2-1.1,0
			c-0.2-0.1-4-1.9-6.2-4.5c-0.5-0.6-0.4-1.4,0.2-1.9c0.6-0.5,1.4-0.4,1.9,0.2c1.1,1.3,2.7,2.4,3.8,3l0.7-2.6c0.1-0.5,0.5-0.8,0.9-1
			c0.5-0.1,0.9,0,1.3,0.3c1.3,1.2,3,2.3,4.3,3.1c0.3-1.7,0.5-4.1,0.6-5.7c0-0.6,0.5-1.1,1.1-1.2c0.6-0.1,1.2,0.1,1.5,0.7
			c0.7,1.4,2.5,2.7,3.9,3.5c0.4-1.2,0.8-2.9,1.2-4.3c0.1-0.6,0.6-1,1.2-1c0.6-0.1,1.1,0.3,1.4,0.8c0.8,1.9,2.9,3.6,4.4,4.6
			c0.2-2,0-4.8-0.2-6.5c-0.1-0.7,0.3-1.3,1-1.4c0.6-0.2,1.3,0.1,1.6,0.7c2.7,5.5,7.5,8.6,10,9.9c1.4-14.9-3-20.6-3.1-20.7
			c-0.2-0.3-0.3-0.7-0.3-1.1c0.1-0.4,0.3-0.7,0.6-0.9c2.4-1.4,3.9-4,4.8-6.5c-5.5,5.3-14.2,7.4-18.5,8.1l2.1,2.5
			c0.3,0.4,0.4,0.9,0.2,1.4c-0.2,0.5-0.6,0.8-1.1,0.8c-5.2,0.5-9-0.2-11.6-1l0.9,1.6c0.2,0.4,0.2,0.9,0,1.4
			c-0.3,0.4-0.7,0.7-1.2,0.6c-4.2-0.2-7.9-1.9-11-3.5c-0.1,1-0.6,2-1.5,2.8c-1,1-2.3,1.5-3.5,1.5c-0.9,0-1.8-0.3-2.6-0.8
			c-1.5-1-2.3-2.8-2-4.7c0.3-1.7,1.4-3.1,2.9-3.6c2-0.6,4.3,0.6,7.2,2.1c2.3,1.2,5.1,2.6,8.1,3.2l-1.7-3.1c-0.3-0.6-0.2-1.3,0.3-1.7
			c0.5-0.4,1.2-0.4,1.7,0c0,0,3.4,2.8,11,2.6l-1.9-2.4c-0.3-0.4-0.4-0.9-0.2-1.4c0.2-0.5,0.6-0.8,1.1-0.8c0.1,0,11.3-1.1,18.1-6.6
			c-2.2,0.7-3.9,0.5-4.1,0.5c-0.4,0-0.7-0.2-1-0.5c-3.1-3.9-6.3-5.1-7.9-5.5c-0.9,2.9-3.1,5.2-3.2,5.3c-0.3,0.3-0.7,0.4-1.1,0.4
			c-0.4,0-0.8-0.3-1-0.6c-2.4-3.9-5.9-4.9-7.9-5.2c0.2,2.9-1.8,5.2-3.1,6.2c-0.5,0.4-1.2,0.3-1.7-0.1c-5.8-5.2-10.3-3.7-12.1-2.6
			c0.6,1.4,0.3,2.6-0.1,3.4c-2.8,5.6-19.9,6.7-23.3,6.9c-0.4,0-0.8-0.2-1.1-0.5c-0.3-0.3-0.4-0.8-0.3-1.2c0.2-0.9,0.1-1.9-0.5-2.8
			c-0.6-0.9-1.5-1.6-2.4-1.8c-0.9-0.2-2.6-0.1-3.6,1c-1.2,1.3-1.2,3.6-0.2,6.8c1.8,5.7,7.4,11.4,10.9,14.5c0-0.7,0-1.2,0-1.4
			c0-0.6,0.4-1.1,1-1.2c0.6-0.2,1.2,0.1,1.5,0.5c1.2,1.7,2.5,2.8,3.6,3.5l0.7-4.3c0.1-0.6,0.6-1.1,1.2-1.1c0.6-0.1,1.2,0.3,1.4,0.8
			c1.2,3,9,12.3,11.9,15.6c0.4,0.4,0.4,1,0.2,1.5c-0.3,0.5-0.8,0.8-1.4,0.7c-4.9-0.7-12.2,0.9-12.3,1c-0.6,0.1-1.1-0.1-1.5-0.6
			c-0.3-0.5-0.3-1.1,0.1-1.6l1-1.2c-6.9-0.7-13.6-2.5-16.3-3.3l-2.3,6.2l6.1-0.6c0.5-0.1,0.9,0.2,1.2,0.5c0.3,0.4,0.3,0.9,0.2,1.3
			l-1.2,2.8l5-1.3c0.7-0.2,1.4,0.2,1.6,0.8c0.7,1.7,1.5,2.8,2.1,3.5l1.4-3.1c0.2-0.5,0.7-0.8,1.3-0.8
			C290.5,233.4,290.9,233.7,291.2,234.2z"/>
		<path class="st3" d="M273.6,303.4c5.3,3.6,9.7-0.5,12-3.6c-4.9-3.6-8.5-8-10.6-13.3c-0.7-1.7-1.1-3.5-1.5-5.2
			c-0.5-0.4-7.9-6.3-14.1-13.1c-0.3,0.8-0.7,1.5-1.1,1.9c0.4,1.8,0,3.2-0.5,4.2c0.4,1.3,0.1,2.5-0.4,3.4c0.9,1.4,1.1,2.8,0.5,4.1
			c-0.1,0.3-0.3,0.6-0.5,0.9c0.8,0.9,2,3.1,2,7.4c0,2.9,1.1,4.6,1.9,5.5c0.5-0.4,1-0.6,1.5-0.7c1.7-0.2,3.1,1.3,5,3.3
			C269.3,299.8,271.2,301.7,273.6,303.4z"/>
		<path class="st3" d="M247.1,266.7c-0.1,0-0.2,0-0.3,0c-1.9,0-3.7-0.2-5.4-0.5c-0.2,0.5,0.2,1.8,0.5,2c0.3,0.3,0.6,0.7,0.6,1.1
			c0,0.4-0.2,0.9-0.6,1.1c-0.2,0.2-0.9,0.8-0.9,1.4c0,0.6,0.7,1.2,1.1,1.5c0.3,0.2,0.5,0.6,0.5,0.9c0,0.4-0.1,0.7-0.3,1
			c-0.2,0.2-0.7,1-0.6,1.6c0,0.1,0.1,0.5,0.8,1c0.3,0.2,0.5,0.5,0.6,0.9c0.1,0.4,0,0.7-0.3,1c0,0-0.4,0.6-0.2,1.1
			c0.2,0.6,0.9,1.1,1.5,1.4c1.1,0.5,2.8,0.9,4.5,0.9c0.1,0,0.1,0,0.2,0c1.4,0,2.9-0.1,4.2-0.6c1.2-0.5,2.1-1.1,2.4-2
			c0.1-0.3,0.4-0.8-0.7-2.1c-0.4-0.5-0.4-1.2,0-1.7c0,0,0.9-1.2,0.3-2.2c-0.3-0.5-0.2-1.2,0.2-1.6c0.1-0.1,0.9-1.1,0.3-2.9
			c-0.2-0.5-0.1-1.1,0.3-1.5c0,0,1.3-1.3,1.2-3.3c-0.2-0.2-0.3-0.4-0.5-0.6C254,266,250.8,266.7,247.1,266.7z"/>
		<path class="st3" d="M259.5,172.4c-5.5,2.9-17.1,12.2-17.5,37.4l0.3,42.6c0,0.1,0.1,0.1,0.1,0.2c0.7,1.3,0.4,3.1,0,4.3
			c3.4,1.2,7.6,0.7,9.4,0.3c-0.4-1.1-0.6-2.8,0.6-4.7C252.2,201.6,257,180,259.5,172.4z"/>
		<path class="st3" d="M260,257.7c0-2.2-1.6-3.8-3.2-4.4c-0.3-0.1-1.5-0.4-2,0.3c-1,1.3-0.6,2.2-0.3,3.1c0.2,0.5,0.4,1,0.2,1.6
			c-0.2,0.7-0.9,1-1.1,1.1c-1.8,0.8-8.8,1.9-13.6-0.6c-0.7-0.3-0.9-1.1-0.6-1.8c0.5-1,0.9-2.6,0.6-3.1c0,0-0.1-0.2-0.5-0.2
			c-0.4-0.1-0.7-0.1-1.1-0.1c-1.6,0-3.2,0.5-4,1.4c-0.7,0.7-0.9,1.6-0.6,2.8c0.8,3.9,5.7,6.2,13,6.3c5.2,0,9.6-1.2,11.9-3.4
			C259.6,259.6,260,258.7,260,257.7z"/>
		<path class="st3" d="M248.4,289.8c0.3-0.4,0.8-0.6,1.3-0.5c0.9,0.2,3.3,0.7,4.6-0.3c0.5-0.4,0.6-1.3,0.2-2
			c-0.1-0.2-0.5-0.9-1.9-0.3c-1.3,0.5-3.2,1.1-4.5,0c-0.2-0.2-0.4-0.5-0.5-0.7c-0.4,0-0.7-0.1-1.1-0.1c-0.1,0.3-0.3,0.6-0.5,0.8
			c-1.2,1.1-3.1,0.5-4.4,0c-1.4-0.5-1.8,0.1-1.9,0.3c-0.4,0.6-0.3,1.6,0.2,2c1.3,1,3.7,0.5,4.5,0.4c0.5-0.1,1.1,0.1,1.4,0.5
			c0.3,0.4,0.5,1,0.2,1.4c-0.3,0.6-1.6,3.2-2.9,4.8c1.7,2.5,3.2,6.9-0.3,10.8c-0.3,0.3-0.7,0.5-1.1,0.5c-0.4,0-0.8-0.3-1-0.6
			c-0.2-0.3-0.9-1.1-1.6-1.3c-0.2,0-0.6-0.1-1.1,0.3c-0.4,0.2-0.6,1.1-0.3,1.9c0.5,1.6,2.2,2.5,4.5,2.4c0.5-0.1,1.1,0.3,1.3,0.9
			c0.2,0.5,0.1,1.2-0.4,1.5l-2.2,1.9l3.6,0.9c0.5,0.1,0.9,0.5,1,1c0,0,0.5,1.9,1.6,3.6c1.1-1.6,1.6-3.5,1.6-3.6c0.1-0.5,0.5-0.8,1-1
			l3.6-0.9l-2.2-1.9c-0.4-0.4-0.6-1-0.4-1.5c0.2-0.5,0.8-0.9,1.3-0.9c2.3,0.1,4-0.8,4.5-2.4c0.3-0.9,0.1-1.7-0.3-1.9
			c-0.5-0.4-0.9-0.3-1.1-0.3c-0.8,0.2-1.5,1-1.6,1.3c-0.2,0.4-0.6,0.6-1,0.6c-0.4,0-0.8-0.1-1.1-0.5c-3.4-3.9-2-8.3-0.3-10.8
			c-1.3-1.6-2.6-4.2-2.9-4.8C248,290.7,248.1,290.2,248.4,289.8z"/>
	</g>
	<path d="M438.8,201.6c-0.7-1.1-2.2-2.5-4.9-2.7c-1.9-0.1-3.5,0.4-4.6,1.5c-0.9,0.9-1.3,2-1.5,2.9c-1.8-1-4.8-3.1-7.9-5.4
		c-9-6.6-22.6-16.5-35.9-18.2c-10.8-1.4-23.1,0.8-29.9,7.1c0.1-0.8,0.1-1.4,0.1-1.5c0,0,0,0,0-0.1c0-0.3-0.1-0.5-0.2-0.7
		c0,0-0.1-0.1-0.1-0.1c-0.1-0.2-0.3-0.4-0.6-0.5c0,0,0,0,0,0h0c-0.3-0.1-0.5-0.1-0.8,0c0,0-0.1,0-0.1,0c-0.2,0.1-0.4,0.2-0.6,0.4
		c0,0,0,0,0,0c-2.8,3.8-6.7,4.3-8.1,4.3c-5.1-6-10.4-6.2-10.7-6.2c-0.8,0.1-1.3,0.5-1.4,1.2c-0.2,1.4-1,2.8-1.7,3.8
		c-4.5-5.6-10.8-5-11-5c-0.4,0-0.8,0.3-1,0.7c-0.2,0.4-0.2,0.8-0.1,1.2c0.8,1.8-0.2,3.3-1,4.2c-8.8-7-15.6-1.3-15.6-1.2
		c-0.5,0.5-0.6,1.2-0.2,1.8c0.7,0.9,0.5,1.5,0.4,1.8c-1.4,2.9-11.7,4.8-19.5,5.3c0-1.1-0.4-2.2-1-3.2c-1-1.6-2.5-2.7-4.2-3
		c-1.9-0.4-4.5,0-6.2,1.9c-1.9,2.1-2.1,5.2-0.8,9.5c2.1,6.6,8.4,12.8,12,16c-0.9-0.3-1.8-0.7-2.6-1.1c-2.2-1.1-5.8-2.8-8.4-1.4
		c-1.3,0.7-2.2,2.4-2.1,4.1c0.1,0.9,0.6,2.8,3.1,4l-3,8.2c-0.2,0.4-0.1,0.9,0.2,1.3c0.3,0.4,0.7,0.6,1.2,0.5l6-0.6l-1.3,3.3
		c-0.2,0.5-0.1,1,0.2,1.4c0.3,0.4,0.9,0.6,1.4,0.4l6.5-1.7c1.7,3.5,3.9,4.7,4.1,4.7c0.3,0.2,0.7,0.2,1.1,0.1
		c0.4-0.1,0.6-0.4,0.8-0.7l1-2.3c1.1,1.5,2.3,2.5,3,3.1c-0.4,0.4-0.9,0.7-1.4,1.1c-4.5,3.7-10.8,8.8-15.2,17.4c-2.2,4.4-4,11-3.5,18
		c-3.3-2.7-9.4-8.2-13.9-13.7c0.5-0.4,1.1-0.7,1.6-1.2c1.4-1.4,2.2-3.1,2.2-4.8c0-3.6-2.6-6.1-5.1-7c-0.9-0.3-1.8-0.4-2.6-0.2
		c-0.1-59,6.6-77,8-80.1c0.2-0.5,0.1-1-0.2-1.4c-0.3-0.4-0.9-0.6-1.4-0.4c-0.9,0.3-21.7,6.8-22.2,41.2l0.3,41.1
		c-2.8-0.3-5.5,0.5-7.1,2.2c-0.9,0.9-1.8,2.6-1.3,5.2c0.7,3.4,3.4,5.9,7.6,7.3c-0.1,0.4-0.2,0.9-0.1,1.5c0.1,0.7,0.3,1.5,0.7,2.2
		c-0.5,0.6-1,1.5-1,2.6c0,1,0.4,2,1.2,2.9c-0.3,0.7-0.6,1.6-0.5,2.6c0.1,0.6,0.3,1.4,1,2.2c-0.2,0.6-0.3,1.4-0.1,2.2
		c0.2,0.9,0.8,1.6,1.6,2.3c-2.1-0.4-3.5,0.6-4.2,1.8c-1,1.8-0.6,4.3,0.9,5.5c1.2,1,2.7,1.3,4.1,1.2c-0.7,1.2-1.4,2.2-1.9,2.6
		c-0.3,0.2-0.5,0.6-0.5,1c0,0.4,0.1,0.7,0.3,1c0.1,0.2,3.1,3.5,1.3,6.9c-0.5-0.4-1.2-0.9-2.1-1c-1.1-0.2-2.2,0-3.2,0.7
		c-1.4,1-2,3-1.3,5c0.5,1.5,1.8,3.1,4,3.8l-1.9,1.6c-0.4,0.3-0.6,0.9-0.4,1.3c0.1,0.5,0.5,0.9,1,1l5.4,1.3c0.4,1.2,1.4,3.5,3,5.1
		c0.3,0.3,0.7,0.4,1.1,0.4s0.7-0.1,1-0.4c1.6-1.6,2.5-3.9,3-5.1l5.4-1.3c0.5-0.1,0.9-0.5,1-1c0.1-0.5-0.1-1-0.4-1.3l-1.9-1.6
		c2.2-0.7,3.5-2.3,4-3.8c0.7-2,0.1-4.1-1.3-5c-1-0.7-2.1-0.9-3.2-0.7c-0.8,0.2-1.5,0.6-2.1,1c-1.7-3.4,1.2-6.8,1.3-6.9
		c0.2-0.3,0.4-0.7,0.3-1c0-0.4-0.2-0.7-0.5-0.9c-0.5-0.4-1.2-1.4-1.9-2.6c1.4,0,2.8-0.2,4.1-1.2c0.3-0.2,0.5-0.5,0.7-0.8
		c0.1,5.9,3.9,8.3,4,8.4c0.6,0.4,1.5,0.2,1.9-0.5c0.3-0.5,0.5-0.6,0.5-0.6c0.5,0,1.8,1.4,2.8,2.5c1.6,1.7,3.6,3.8,6.3,5.6
		c2,1.3,3.9,1.9,5.6,1.9c4.9,0,8.5-4.1,10.1-6.2c3,1.9,6.5,3.6,10.4,4.9c0.1,0,0.3,0.1,0.4,0.1c0.5,1.5,1,3,1.5,4.6
		c1.7,4.9,3.4,9.9,2.8,13.7c-0.9,4.9-8.7,5-12.7,4.3c-2.9-0.5-5.5,0.3-7.5,2.1c-1.9,1.8-3,4.6-2.7,7.4c0.2,1.9,1.2,2.9,2,3.3
		c1.8,1,4.2,0.2,5.6-0.3c3,2.7,6.7,1.5,8.9,0.1c1.4,1.1,2.9,1.7,4.5,1.8c0.1,0,0.1,0,0.2,0c2.5,0,4.6-1.3,5.6-2.1
		c5.2,2.1,8.2,0.5,8.8,0.2c4.3-3.6,3.6-10,3-12.8c8.7-2.6,11.6-10.2,11.7-10.6c0.2-0.5,0.1-1-0.3-1.4c-0.3-0.4-0.9-0.5-1.3-0.4
		c-2.7,0.7-4.8,0.2-5.8-1.4c-1.4-2.1-0.5-5.7,2.3-8.9c0.6-0.7,1.1-1.5,1.7-2.2c6.8-1.5,12.5-4.1,18.6-6.9c5.1-2.3,10.3-4.7,16.5-6.6
		c1.7-0.5,3.4-0.9,5.1-1.1c-0.5,7.3,3.3,12.2,6.9,16.8c1,1.3,2,2.6,3,3.9c4,5.7,3.2,17.8,2.9,18.8c-0.3,0.6-2.9,3.3-6.7,2.8
		c-3.1-0.4-6.6,0.6-8.9,2.6c-1.6,1.4-2.5,3.3-2.5,5.2c0,1.6,0.8,2.4,1.4,2.8c2,1.2,5.2-0.1,6.9-0.9c1.6,1.3,3.3,1.7,4.8,1.7
		c1.9,0,3.6-0.7,4.8-1.5c3.6,2.3,7.4,1,9.5-0.5c2.7,1.4,4.8,1.2,6.2,0.6c0.4-0.2,0.9-0.4,1.2-0.6c0.1,0.1,0.1,0.1,0.2,0.2
		c1.4,1.2,4.1,0.6,5.8,0c0.8,1.3,1.8,1.9,2.6,2.1c2.5,0.8,5.4-0.6,6.8-1.4c1.8,1.4,3.5,1.9,5.2,1.7c1.5-0.2,2.7-1,3.4-1.8
		c0.8,0.6,2,1.3,3.6,1.8c0.7,0.2,1.4,0.3,1.9,0.3c1.9,0,2.9-1.1,3.3-1.6c1.6-2.3,0.7-6.2-1-8.3c-1-1.3-1.9-3.7-1.5-6.2
		c0.2-1.3,0.9-3.2,2.9-4.5c3.7-2.3,6.1-5.5,6.1-8.1c0-1.1-0.4-1.9-1.1-2.5c-0.7-0.5-1.4-0.6-2.1-0.7c-1.6-0.2-3.6-0.5-6.2-5.2
		c-2.3-4.2,0.4-12.3,3.3-21c1.6-4.9,3.3-10,4.4-15.1c2.6-12.6-3.7-22.7-6-25.8c6.4-6.3,9-12.2,7.9-17.8c-1.2-6.2-7-10.4-11.5-12.1
		c-5.5-2.1-14.7-1-23.6,0.1c-7,0.8-13.5,1.6-17.5,0.8c-1.5-0.3-2.6-1-3.2-1.9c-1-1.7-0.5-3.9-0.5-3.9c0.1-0.4,0-0.9-0.3-1.2
		c-0.3-0.3-0.7-0.5-1.1-0.5c-2.6,0.1-4.7,1.5-5.9,2.7c-0.1-0.4-0.1-0.7,0-1.1c0.4-2.6,3.3-4.9,3.4-4.9c0.4-0.3,0.6-0.7,0.5-1.1
		c0-0.4-0.3-0.9-0.6-1.1c-5.5-3.4-10.7-0.9-13.3,1.5c-1.1-1.1-1.8-2.8-1.7-4.4c0-1.1,0.4-3.1,2.6-4.3c1-0.5,1.9-0.6,2.6-0.4
		c1.3,0.5,2.2,2.1,2.4,2.7c0.1,0.4,0.4,0.7,0.8,0.8c0.4,0.1,0.8,0.1,1.1-0.1c3-1.8,4-5.5,4.3-7.5c1.8,0.3,3.1,1,4.1,2.3
		c2.8,3.5,1.6,9.6,1.6,9.7c-0.1,0.5,0.1,0.9,0.4,1.2c0.3,0.3,0.8,0.4,1.3,0.3c6.1-1.6,8.1-6.6,8.4-10.3c4.7,2.9,4.4,8.9,4.3,9.2
		c0,0.5,0.2,0.9,0.6,1.2c0.4,0.3,0.9,0.3,1.3,0.2c2.2-0.9,3.5-2.4,4.2-3.8c4.3,5.6,10.2,7.5,10.5,7.6c0.5,0.2,1,0,1.4-0.4
		c0.4-0.4,0.5-0.9,0.3-1.4l-1.3-3.2c1.1,0.8,2.1,1.6,3.2,2.4c2.8,2.2,5.7,4.4,10,6.4c4.7,2.2,8.1,1.7,10.1,0.9c2-0.8,3.6-2.3,4.2-4
		C440,206.9,440.3,203.9,438.8,201.6z M436.7,208c-0.3,0.8-1.2,1.9-2.7,2.5c-1.5,0.6-4.1,1-8-0.9c-3.9-1.9-6.8-4-9.5-6.1
		c-2.2-1.7-4.4-3.4-7-4.8c-0.5-0.3-1.1-0.2-1.5,0.2c-0.4,0.4-0.6,1-0.3,1.5l1.6,3.9c-2.3-1.3-5.5-3.7-7.6-7.5
		c-0.3-0.5-0.9-0.8-1.5-0.7c-0.6,0.2-1,0.7-1,1.3c0,0,0,1.9-1.6,3.4c-0.5-3.6-2.4-8.4-7.9-10.4c-0.4-0.2-0.9-0.1-1.3,0.2
		c-0.4,0.3-0.6,0.8-0.5,1.2c0,0.3,0.7,6.3-4.4,8.9c0.1-2.5-0.1-6.6-2.4-9.6c-1.7-2.1-4.2-3.3-7.4-3.4c-0.3,0-0.7,0.1-1,0.4
		c-0.3,0.2-0.4,0.6-0.4,1c0,0-0.2,3.7-2,5.8c-0.6-1-1.7-2.1-3.1-2.6c-1.5-0.6-3.2-0.4-4.9,0.5c-2.5,1.3-4,3.7-4.1,6.6
		c-0.1,3,1.4,6,3.8,7.5c0.6,0.3,1.3,0.2,1.7-0.3c0.2-0.2,4-4.4,9.1-2.7c-1.2,1.2-2.6,3.1-2.9,5.3c-0.2,1.7,0.2,3.3,1.3,4.7
		c0.3,0.3,0.6,0.5,1.1,0.5c0.4,0,0.8-0.2,1.1-0.6c0,0,1.5-2,3.7-2.9c0,1.2,0.2,2.6,1,4c1,1.6,2.7,2.7,4.9,3.2
		c4.4,0.9,11.2,0.1,18.3-0.7c8.6-1,17.5-2.1,22.3-0.2c3.9,1.5,8.8,5,9.8,10.1c1,4.9-1.7,10.3-8,16.2c-0.5,0.5-0.6,1.3-0.1,1.9
		c0.1,0.1,9,10.9,6.2,24.6c-1,4.9-2.7,10-4.3,14.8c-3.2,9.6-5.9,17.9-3.1,23.1c3.2,5.9,6.3,6.3,8.2,6.6c0.4,0,0.8,0.1,0.9,0.1
		c0.3,0.5-0.7,3.4-4.9,6.1c-2.3,1.5-3.7,3.6-4.2,6.3c-0.5,2.9,0.3,6.2,2,8.3c1.3,1.6,1.5,4.1,0.9,5.1c-0.1,0.2-0.5,0.8-2.1,0.3
		c-2.4-0.8-3.6-2-3.6-2c-0.3-0.3-0.7-0.5-1.1-0.4c-0.4,0-0.8,0.3-1,0.6c0,0-1,1.5-2.5,1.7c-1.2,0.2-2.5-0.4-3.9-1.7
		c-0.5-0.4-1.2-0.5-1.7-0.1c-0.8,0.6-3.6,2.2-5.3,1.6c-0.2-0.1-1-0.3-1.5-1.7c-0.1-0.4-0.4-0.7-0.7-0.8s-0.7-0.1-1.1,0
		c-1.6,0.7-3.7,1.2-4.1,1c0,0-0.1-0.2,0.1-0.8c0.9-3.2,4.7-4,7.3-4.5c0.5-0.1,0.9-0.2,1.2-0.3c0.3-0.1,0.6-0.1,0.9-0.2
		c2.5-0.5,7.6-1.5,7-8c-0.1-1.4-0.1-2.6-0.1-3.8c0.1-4,0.2-7.8-6.1-12.3c-2.3-1.7-4.6-3.2-6.7-4.6c-4.9-3.3-9.1-6.1-13-10
		c-8-8-17.5-10.3-28.3-7c-6.4,2-11.7,4.4-16.8,6.8c-5.2,2.4-10.1,4.6-15.5,6.1c4.3-8.1,6.6-18.9,6.1-24.1c-0.1-0.7-0.7-1.3-1.5-1.2
		c-0.7,0.1-1.3,0.7-1.2,1.5c0.6,5.9-3.1,20.5-9.2,27.7c-3.5,4.2-4.5,9-2.5,12.1c1.3,2,3.4,2.9,6.1,2.9c-1.5,2.3-4.5,5.8-9.9,7
		c-0.4,0.1-0.7,0.3-0.9,0.6c-0.2,0.3-0.2,0.7-0.1,1.1c0,0.1,2.3,7.9-1.6,11.2c-0.1,0.1-2.4,1.2-6.9-0.8c-0.5-0.2-1.1-0.1-1.5,0.3
		c0,0-2.2,2.1-4.5,1.9c-1.3,0-2.4-0.6-3.5-1.7c-0.5-0.5-1.3-0.6-1.9-0.1c-0.2,0.1-4,3.3-6.8,0.1c-0.4-0.5-1.1-0.6-1.6-0.3
		c-1.1,0.6-3.1,1.2-3.9,0.7c-0.1-0.1-0.5-0.2-0.5-1.2c-0.2-2,0.5-3.9,1.8-5.1c1.3-1.2,3.2-1.7,5.2-1.4c7.1,1.2,14.7-0.4,15.8-6.5
		c0.8-4.5-1.1-9.9-2.9-15.1c-1.4-3.9-2.8-7.9-2.8-11.2c-0.1-6.7,1.3-13,1.3-13.1c0.2-0.7-0.3-1.5-1-1.6c-0.7-0.2-1.5,0.3-1.6,1
		c-0.1,0.3-1.5,6.7-1.4,13.7c0,1.4,0.3,2.9,0.6,4.4c-10.3-3.8-17.1-9.7-20.3-17.6c-3.7-9.3-1.6-19.2,1.3-24.9
		c4.2-8.2,10-12.8,14.6-16.6c2.2-1.8,4.1-3.3,5.5-5c-0.1,2.2-2.1,6.8-4.1,10.4c-0.3,0.5-0.2,1.1,0.1,1.5c0.3,0.4,0.9,0.6,1.5,0.4
		c1.2-0.4,3.3-1.4,4.8-2.2l0.4,6.8c0,0.5,0.3,1,0.8,1.2c0.5,0.2,1,0.1,1.4-0.2c1.8-1.5,3.5-3.5,4.7-5l1.3,4.2
		c0.1,0.4,0.4,0.7,0.9,0.9c0.4,0.1,0.9,0.1,1.2-0.2c1.9-1.3,3.8-3.5,5-4.9l2.6,4.1c0.3,0.4,0.7,0.7,1.2,0.6c0.5,0,0.9-0.3,1.1-0.7
		l3-6l2.5,6.9c0.1,0.4,0.4,0.7,0.8,0.8c0.1,0,0.3,0.1,0.4,0.1c0.3,0,0.5-0.1,0.7-0.2l6.6-4.2c3.5,1.9,8.6,2.8,8.8,2.8
		c0.4,0.1,0.8-0.1,1.1-0.4c0.3-0.3,0.5-0.7,0.4-1.1l-0.5-5.6l5.9-0.1c0.7,0,1.2-0.5,1.3-1.2c0.1-0.7-0.3-1.3-1-1.5
		c-0.6-0.2-2.1-1.5-3.4-2.9c0.2,0,0.2,0,0.3,0c3.4,0.3,60.6,4.5,73.2-4.7c7-5.1,6.5-9.7,5.6-12c-1.9-4.7-8.7-7.8-15.6-6.9
		c-2.7,0.3-5.6,0.9-8.7,1.4c-8.6,1.5-18.3,3.3-26.2,1.3c-3.1-0.8-5.8-1.8-8.1-2.7c-4-1.5-6.9-2.6-9.1-1.3c-0.9,0.5-1.6,1.4-2,2.7
		c-1.4-1.6-3-4.5-0.9-8.4c0.3-0.5,0.2-1.1-0.2-1.6c-0.1-0.1-7.9-8.5-4.2-17.7c3.3-8.3,16.4-13,31-11.1c12.6,1.6,25.9,11.3,34.6,17.7
		c5.5,4,8.5,6.2,10.5,6.4c0.4,0.1,0.8-0.1,1.1-0.4c0.3-0.3,0.5-0.7,0.4-1.1c0,0-0.1-1.8,0.9-2.8c0.6-0.5,1.4-0.8,2.5-0.7
		c1.3,0.1,2.3,0.6,2.8,1.4C437.4,204.5,437.2,206.5,436.7,208z M394.2,338.8c-1.3,0.5-2.8,0.1-4.4-0.9c-0.5-0.3-1.2-0.3-1.6,0.1
		c-0.2,0.1-4,3.4-7.7,0.4c-0.5-0.4-1.2-0.4-1.7,0c-0.4,0.3-4,3.3-7.7-0.1c-0.4-0.4-1.1-0.5-1.6-0.2c-1.8,1-4.4,1.8-5.1,1.4
		c-0.1-0.1-0.1-0.4-0.1-0.5c0-1.4,0.9-2.5,1.6-3.1c1.7-1.5,4.4-2.3,6.8-2c5.1,0.7,8.9-2.8,9.5-4.4c0.6-1.4,1.6-14.6-3.1-21.4
		c-1-1.4-2-2.7-3.1-4c-3.6-4.5-7-8.8-6.4-15.3c6.6-0.1,12.5,2.4,17.7,7.6c2.7,2.7,5.7,5,8.8,7.2c-1.2,1.2-3.1,3.6-3.3,5.9
		c-0.1,1.2,0.3,2.2,1.1,3.1c2,2.2,4.2,2.1,5.7,2c0.3,0,0.6,0,0.9,0c-0.4,0.9-1.8,2.8-2.8,4.2c-2.7,3.7-4.4,6.2-4.1,8.2
		c0.2,1.3,0.7,3.4,1.2,5.3c0.5,1.9,1.2,4.7,1.2,5.2C395.9,337.5,395.3,338.4,394.2,338.8z M399.9,320.2c2.6-3.5,3.9-5.5,3.2-7
		c-0.8-1.6-2.4-1.5-3.6-1.4c-1.3,0.1-2.5,0.1-3.6-1.1c-0.3-0.3-0.4-0.7-0.4-1.1c0.1-1.5,1.8-3.6,2.8-4.5c0.8,0.5,1.5,1.1,2.3,1.6
		c2.1,1.4,4.3,2.9,6.6,4.6c5.1,3.7,5,6.2,4.9,10c0,1.2-0.1,2.7,0.1,4.2c0.4,3.8-1.8,4.5-4.8,5.1c-0.4,0.1-0.7,0.1-1.1,0.2
		c-0.3,0.1-0.7,0.2-1.1,0.2c-2,0.4-5.1,1.1-7.3,3.1c-0.2-0.7-0.4-1.6-0.7-2.6c-0.5-1.9-1-3.9-1.2-5.1
		C396.1,325.3,398.5,322,399.9,320.2z M262.8,294.9c-0.6,0.1-1.1,0.3-1.5,0.7c-0.8-0.9-1.9-2.6-1.9-5.5c0-4.3-1.2-6.4-2-7.4
		c0.2-0.3,0.4-0.6,0.5-0.9c0.6-1.3,0.4-2.7-0.5-4.1c0.4-0.9,0.7-2.2,0.4-3.4c0.5-0.9,1-2.4,0.5-4.2c0.3-0.4,0.8-1.1,1.1-1.9
		c6.2,6.9,13.6,12.8,14.1,13.1c0.4,1.7,0.8,3.5,1.5,5.2c2.1,5.3,5.7,9.7,10.6,13.3c-2.3,3.1-6.6,7.2-12,3.6
		c-2.5-1.7-4.3-3.6-5.8-5.2C265.9,296.2,264.5,294.7,262.8,294.9z M251.4,306.8c0.3,0.3,0.7,0.5,1.1,0.5c0.4,0,0.8-0.3,1-0.6
		c0.1-0.2,0.9-1.1,1.6-1.3c0.2,0,0.6-0.1,1.1,0.3c0.4,0.2,0.6,1.1,0.3,1.9c-0.5,1.6-2.2,2.5-4.5,2.4c-0.6,0-1.1,0.3-1.3,0.9
		c-0.2,0.5-0.1,1.2,0.4,1.5l2.2,1.9l-3.6,0.9c-0.5,0.1-0.9,0.5-1,1c0,0-0.5,1.9-1.6,3.6c-1.1-1.6-1.6-3.5-1.6-3.6
		c-0.1-0.5-0.5-0.8-1-1l-3.6-0.9l2.2-1.9c0.4-0.4,0.6-1,0.4-1.5c-0.2-0.5-0.8-0.9-1.3-0.9c-2.3,0.1-4-0.8-4.5-2.4
		c-0.3-0.9-0.1-1.7,0.3-1.9c0.5-0.4,0.9-0.3,1.1-0.3c0.8,0.1,1.4,1,1.6,1.3c0.2,0.4,0.6,0.6,1,0.6c0.4,0,0.8-0.1,1.1-0.5
		c3.4-3.9,2-8.3,0.3-10.8c1.3-1.6,2.6-4.2,2.9-4.8c0.2-0.5,0.1-1-0.2-1.4c-0.3-0.4-0.9-0.6-1.4-0.5c-0.8,0.2-3.1,0.7-4.5-0.4
		c-0.5-0.4-0.6-1.3-0.2-2c0.1-0.2,0.5-0.9,1.9-0.3c1.3,0.5,3.3,1.1,4.4,0c0.3-0.2,0.4-0.5,0.5-0.8c0.4,0.1,0.7,0.1,1.1,0.1
		c0.1,0.3,0.3,0.5,0.5,0.7c1.2,1.1,3.1,0.5,4.5,0c1.4-0.5,1.8,0.1,1.9,0.3c0.4,0.6,0.3,1.6-0.2,2c-1.3,1-3.7,0.5-4.6,0.3
		c-0.5-0.1-1,0.1-1.3,0.5c-0.3,0.4-0.4,1-0.1,1.4c0.3,0.6,1.6,3.2,2.9,4.8C249.5,298.5,248,302.9,251.4,306.8z M255.8,268.8
		c-0.4,0.4-0.5,1-0.3,1.5c0.7,1.8-0.2,2.8-0.3,2.9c-0.4,0.4-0.5,1.1-0.2,1.6c0.6,1-0.3,2.2-0.3,2.2c-0.4,0.5-0.4,1.2,0,1.7
		c1.1,1.2,0.8,1.8,0.7,2.1c-0.4,0.9-1.2,1.5-2.4,2c-1.3,0.5-2.7,0.6-4.2,0.6c-0.1,0-0.1,0-0.2,0c-1.7-0.1-3.3-0.4-4.5-0.9
		c-0.6-0.3-1.4-0.8-1.5-1.4c-0.1-0.6,0.2-1.1,0.2-1.1c0.2-0.3,0.3-0.7,0.3-1c-0.1-0.4-0.3-0.7-0.6-0.9c-0.7-0.5-0.8-0.9-0.8-1
		c-0.1-0.6,0.4-1.4,0.6-1.6c0.2-0.3,0.4-0.7,0.3-1c0-0.4-0.2-0.7-0.5-0.9c-0.4-0.3-1.1-0.9-1.1-1.5c0-0.6,0.7-1.2,0.9-1.4
		c0.4-0.2,0.5-0.7,0.6-1.1c0-0.4-0.2-0.9-0.6-1.1c-0.4-0.3-0.7-1.6-0.5-2c1.6,0.3,3.4,0.5,5.4,0.5c0.1,0,0.2,0,0.3,0
		c3.7,0,6.9-0.7,9.5-1.8c0.2,0.2,0.3,0.4,0.5,0.6C257.1,267.5,255.9,268.7,255.8,268.8z M246.8,264c-7.3-0.1-12.2-2.4-13-6.3
		c-0.2-1.2,0-2.1,0.6-2.8c0.8-0.9,2.4-1.4,4-1.4c0.4,0,0.7,0,1.1,0.1c0.4,0.1,0.4,0.2,0.5,0.2c0.3,0.5-0.1,2.1-0.6,3.1
		c-0.3,0.7-0.1,1.5,0.6,1.8c4.8,2.5,11.8,1.4,13.6,0.6c0.2-0.1,0.9-0.4,1.1-1.1c0.1-0.6,0-1.1-0.2-1.6c-0.3-0.9-0.7-1.8,0.3-3.1
		c0.5-0.7,1.7-0.4,2-0.3c1.6,0.5,3.2,2.2,3.2,4.4c0,1-0.5,2-1.4,2.9C256.4,262.8,252,264,246.8,264z M251.8,257.1
		c-1.8,0.4-6,0.9-9.4-0.3c0.4-1.2,0.7-2.9,0-4.3c0-0.1-0.1-0.1-0.1-0.2l-0.3-42.6c0.3-25.3,12-34.5,17.5-37.4
		c-2.5,7.6-7.3,29.2-7.1,80C251.1,254.3,251.4,256,251.8,257.1z M288.7,234.2l-1.4,3.1c-0.7-0.7-1.5-1.8-2.1-3.5
		c-0.3-0.6-0.9-1-1.6-0.8l-5,1.3l1.2-2.8c0.2-0.4,0.1-0.9-0.2-1.3c-0.3-0.4-0.8-0.6-1.2-0.5l-6.1,0.6l2.3-6.2
		c2.7,0.8,9.4,2.6,16.3,3.3l-1,1.2c-0.4,0.5-0.4,1.1-0.1,1.6c0.3,0.5,0.9,0.7,1.5,0.6c0.1,0,7.3-1.7,12.3-1c0.6,0.1,1.1-0.2,1.4-0.7
		c0.3-0.5,0.2-1.1-0.2-1.5c-2.9-3.3-10.6-12.7-11.9-15.6c-0.2-0.6-0.8-0.9-1.4-0.8c-0.6,0.1-1.1,0.5-1.2,1.1l-0.7,4.3
		c-1-0.7-2.4-1.8-3.6-3.5c-0.3-0.5-0.9-0.7-1.5-0.5c-0.6,0.2-1,0.7-1,1.2c0,0.1,0,0.7,0,1.4c-3.5-3.1-9.1-8.8-10.9-14.5
		c-1-3.2-0.9-5.6,0.2-6.8c1-1.1,2.7-1.2,3.6-1c0.9,0.2,1.9,0.9,2.4,1.8c0.6,0.9,0.7,1.9,0.5,2.8c-0.1,0.4,0,0.9,0.3,1.2
		c0.3,0.3,0.7,0.5,1.1,0.5c3.4-0.2,20.6-1.3,23.3-6.9c0.4-0.8,0.7-1.9,0.1-3.4c1.8-1,6.3-2.6,12.1,2.6c0.5,0.4,1.2,0.5,1.7,0.1
		c1.3-1,3.3-3.3,3.1-6.2c2,0.3,5.5,1.3,7.9,5.2c0.2,0.4,0.6,0.6,1,0.6c0.4,0,0.8-0.1,1.1-0.4c0.1-0.1,2.3-2.4,3.2-5.3
		c1.6,0.4,4.8,1.6,7.9,5.5c0.2,0.3,0.6,0.5,1,0.5c0.1,0,1.9,0.1,4.1-0.5c-6.8,5.5-17.9,6.6-18.1,6.6c-0.5,0-0.9,0.4-1.1,0.8
		c-0.2,0.5-0.1,1,0.2,1.4l1.9,2.4c-7.6,0.1-11-2.6-11-2.6c-0.5-0.4-1.2-0.4-1.7,0c-0.5,0.4-0.7,1.1-0.3,1.7l1.7,3.1
		c-3-0.6-5.8-2-8.1-3.2c-2.9-1.5-5.2-2.6-7.2-2.1c-1.5,0.5-2.6,1.8-2.9,3.6c-0.3,1.9,0.5,3.7,2,4.7c0.8,0.5,1.7,0.8,2.6,0.8
		c1.3,0,2.5-0.5,3.5-1.5c0.8-0.8,1.3-1.8,1.5-2.8c3,1.5,6.8,3.3,11,3.5c0.5,0.1,0.9-0.2,1.2-0.6c0.3-0.4,0.3-0.9,0-1.4l-0.9-1.6
		c2.6,0.9,6.4,1.6,11.6,1c0.5-0.1,0.9-0.4,1.1-0.8c0.2-0.5,0.1-1-0.2-1.4l-2.1-2.5c4.2-0.7,13-2.8,18.5-8.1
		c-0.9,2.5-2.4,5.1-4.8,6.5c-0.3,0.2-0.6,0.5-0.6,0.9c-0.1,0.4,0,0.8,0.3,1.1c0,0.1,4.4,5.8,3.1,20.7c-2.5-1.3-7.3-4.3-10-9.9
		c-0.3-0.6-0.9-0.9-1.6-0.7c-0.6,0.2-1,0.8-1,1.4c0.2,1.8,0.3,4.6,0.2,6.5c-1.5-1-3.5-2.8-4.4-4.6c-0.2-0.5-0.8-0.9-1.4-0.8
		c-0.6,0.1-1.1,0.5-1.2,1c-0.3,1.5-0.8,3.2-1.2,4.3c-1.3-0.8-3.1-2.2-3.9-3.5c-0.3-0.5-0.9-0.8-1.5-0.7c-0.6,0.1-1,0.6-1.1,1.2
		c-0.1,1.6-0.3,4-0.6,5.7c-1.2-0.8-3-1.9-4.3-3.1c-0.4-0.3-0.8-0.4-1.3-0.3c-0.5,0.1-0.8,0.5-0.9,1l-0.7,2.6c-1.2-0.7-2.8-1.8-3.8-3
		c-0.5-0.6-1.3-0.7-1.9-0.2c-0.6,0.5-0.7,1.3-0.2,1.9c2.2,2.7,6.1,4.5,6.2,4.5c0.4,0.2,0.8,0.2,1.1,0c0.4-0.2,0.6-0.5,0.7-0.9
		l0.6-2.3c2.2,1.6,4.5,2.9,4.7,3c0.3,0.2,0.7,0.2,1.1,0.1c0.4-0.1,0.7-0.4,0.8-0.8c0.4-1,0.7-3,0.9-4.8c1.8,1.6,3.9,2.7,4.1,2.7
		c0.6,0.3,1.4,0.1,1.8-0.5c0.4-0.6,0.8-2.1,1.2-3.4c2.2,2.5,5.1,4.2,5.3,4.3c0.3,0.2,0.8,0.2,1.1,0.1c0.4-0.1,0.7-0.4,0.8-0.8
		c0.4-1.1,0.5-2.8,0.6-4.4c2.6,3.1,5.6,5.2,7.7,6.3c0,0,0,0.1,0,0.1c0,0.2,0.3,4.8,1.1,8.4c-2.3-0.8-5.9-2.6-9.3-5.7
		c-0.3-0.3-0.8-0.4-1.2-0.3c-0.4,0.1-0.8,0.4-1,0.8l-1,2.6l-4.4-3.2c-0.4-0.3-0.9-0.3-1.3-0.1c-0.4,0.2-0.7,0.6-0.8,1.1l-0.4,3
		c-0.9-0.7-2.1-1.6-2.9-2.5c-0.5-0.6-1.4-0.6-1.9-0.1c-0.6,0.5-0.6,1.4-0.1,1.9c1.9,2.2,5.1,4.1,5.3,4.2c0.4,0.2,0.9,0.3,1.3,0.1
		c0.4-0.2,0.7-0.6,0.8-1l0.4-2.9l3.9,2.8c0.3,0.2,0.8,0.3,1.2,0.2c0.4-0.1,0.7-0.4,0.9-0.8l1-2.4c2.5,2.1,5,3.4,7,4.3
		c0,0.8,0.1,4.4,1.7,7.3c-2.5-0.1-6.4-0.5-10-2.3c-0.6-0.3-1.4-0.1-1.7,0.5l-2,3l-8.1-5.4c-0.3-0.2-0.8-0.3-1.2-0.2
		c-0.4,0.1-0.7,0.4-0.9,0.8l-1.2,3.4c-1.5-1.7-3.6-4-4.4-4.7c-0.6-0.4-1.4-0.4-1.8,0.1c0,0-1.9,2.1-4.2,3.6l-1.6-4.2
		c-0.3-0.7-1-1.1-1.7-0.8c-0.7,0.3-1.1,1-0.8,1.7l2.1,5.8c0.1,0.4,0.4,0.7,0.8,0.8c0.4,0.1,0.8,0.1,1.1-0.1c2.1-1.2,4.1-2.9,5.2-4
		c1.3,1.3,3.4,3.7,4.7,5.2c0.3,0.4,0.8,0.5,1.3,0.4c0.5-0.1,0.9-0.4,1-0.9l1.4-3.9l7.8,5.2c0.2,0.1,0.5,0.2,0.8,0.2
		c0.1,0,0.2,0,0.3,0c0.4-0.1,0.7-0.3,0.9-0.6l2.1-3.2c3.5,1.5,6.9,1.9,9.4,2.1c0,0.3,0.1,0.6,0.3,0.9c0.3,0.4,1,1.2,1.8,2l-3.4,0.1
		c-0.4,0-0.7,0.2-1,0.5c-0.3,0.3-0.4,0.7-0.3,1l0.5,5.3c-1.9-0.4-4.8-1.2-6.8-2.5c-0.4-0.3-1-0.3-1.5,0l-5.9,3.7l-3-8.2
		c-0.2-0.5-0.7-0.9-1.2-0.9c-0.6,0-1,0.3-1.3,0.7l-3.3,6.6l-2.3-3.7c-0.2-0.4-0.7-0.6-1.1-0.6c-0.5,0-0.9,0.2-1.1,0.6
		c0,0-1.9,2.7-4.1,4.7l-1.5-4.9c-0.2-0.5-0.6-0.9-1.1-0.9c-0.5-0.1-1,0.1-1.3,0.6c0,0-1.7,2.5-3.8,4.7l-0.4-6c0-0.5-0.3-0.9-0.7-1.1
		c-0.4-0.2-0.9-0.2-1.3,0c-0.6,0.3-1.7,0.9-2.8,1.4c1.6-3.3,3.4-7.9,2.4-10.3c-0.3-0.7-0.9-1.2-1.6-1.5c0,0-0.1-0.1-0.1-0.1
		c-0.1,0-0.1,0-0.2-0.1c0,0-0.1-0.1-0.1-0.1c-0.1,0-0.1,0-0.1,0c0,0-0.1,0-0.1,0c-1.8-0.4-3.1,0.1-3.8,0.7c-0.7,0.5-1.2,1.3-1.5,1.9
		c-0.8-0.8-1.9-2-2.5-3.6c-0.2-0.5-0.7-0.8-1.2-0.8C289.4,233.3,288.9,233.7,288.7,234.2z M278.4,219.1c7.3,3.5,16.3,3.9,18.8,4
		c1.2,1.5,2.3,2.9,3.2,4c-2.2,0-4.5,0.3-6.4,0.5l0.3-0.4c0.3-0.4,0.4-0.9,0.2-1.4c-0.2-0.5-0.7-0.8-1.2-0.8
		c-9.2-0.5-19.3-3.7-19.4-3.8c0,0,0,0,0,0c0,0,0,0,0,0c-1.5-0.5-2.4-1.2-2.5-2.2c-0.1-0.7,0.3-1.4,0.6-1.5
		C273.5,216.7,276.6,218.2,278.4,219.1z M291.2,219.8c0.3-0.2,0.5-0.5,0.6-0.9l0.4-2.5c0.8,1.2,1.8,2.5,2.8,3.8
		C293.9,220.1,292.6,220,291.2,219.8z M288.8,219.4c-0.7-0.1-1.3-0.3-2-0.4c0.1-0.3,0-0.6-0.1-0.9c0-0.1-0.1-0.2-0.1-0.2
		C287.4,218.6,288.2,219.1,288.8,219.4z M306.6,204.7c-0.6,0.6-1.7,1.1-2.7,0.4c-0.8-0.5-0.9-1.4-0.8-2.1c0.1-0.5,0.4-1.2,1-1.4
		c0.1,0,0.2-0.1,0.4-0.1c0.6,0,1.6,0.3,2.6,0.8l0,0C307.8,203.5,306.8,204.5,306.6,204.7z M358.1,224.9c0.4,0.2,0.9,0.3,1.3,0.1
		c0.4-0.2,0.7-0.6,0.8-1.1c0.2-1.7,0.6-2.7,1.2-3.1c1.1-0.6,3.7,0.3,6.7,1.5c2.3,0.9,5.2,2,8.4,2.8c8.5,2.1,18.5,0.3,27.4-1.3
		c3-0.5,5.9-1,8.5-1.4c5.6-0.7,11.3,1.6,12.7,5.2c1.1,2.7-0.6,5.8-4.7,8.8c-11.3,8.2-65.5,4.6-71,4.2c-1.5-1.4-2-4.3-2.2-6.1
		c0.9,0.3,1.5,0.4,1.6,0.4c0.1,0,0.2,0,0.3,0c0.4,0,0.8-0.2,1-0.5c0.3-0.4,0.4-0.9,0.2-1.4c-0.8-2.3-1.3-6.6-1.5-8.7
		c0.4,0.1,0.7,0.1,1.1-0.1c0.4-0.2,0.6-0.6,0.6-1c1.6-13.6-1.2-20.7-2.7-23.3c0.4-0.3,0.7-0.6,1-0.9c0.1,6.4,3.8,11.6,5.3,13.4
		C351.5,218.6,355.5,223.3,358.1,224.9z"/>
	<path class="st3" d="M222.4,155.2c-0.5-10.9-3.1-28.5-11.4-28.9c-4.7-0.2-7,2.7-7.1,2.8c-0.3,0.4-0.7,0.6-1.2,0.5l-3.2-0.2l0.6,2.1
		c0.1,0.5,0,1-0.4,1.4c-0.2,0.2-4.7,4-1.9,9c2.1,3.8,8.8,5.6,13.7,6.9c2.2,0.6,4.1,1.1,5.3,1.7C218.9,151.5,220.8,153.3,222.4,155.2
		z"/>
	<path d="M211.1,123.6c-4.8-0.2-7.7,2.1-8.8,3.3l-4.4-0.3c-0.4,0-0.9,0.2-1.1,0.5c-0.3,0.3-0.4,0.8-0.3,1.2l0.8,3.1
		c-2.1,2.2-4.7,6.8-1.9,11.8c2.6,4.8,10,6.7,15.3,8.2c2,0.5,3.8,1,4.8,1.5c3.2,1.6,5.7,5.1,7,7.9c0.2,0.5,0.7,0.8,1.2,0.8
		c0.1,0,0.2,0,0.3,0c0.6-0.1,1.1-0.7,1.1-1.3C225.2,158.7,225.4,124.3,211.1,123.6z M211.4,148.7c-4.9-1.3-11.6-3.1-13.7-6.9
		c-2.7-4.9,1.8-8.8,1.9-9c0.4-0.3,0.6-0.9,0.4-1.4l-0.6-2.1l3.2,0.2c0.4,0,0.9-0.2,1.2-0.5c0.1-0.1,2.4-3,7.1-2.8
		c8.3,0.4,10.9,18,11.4,28.9c-1.5-1.9-3.4-3.7-5.6-4.8C215.5,149.8,213.6,149.3,211.4,148.7z"/>
	<path class="st3" d="M448.5,155.2c0.5-10.9,3.1-28.5,11.4-28.9c4.7-0.2,7,2.7,7.1,2.8c0.3,0.4,0.7,0.6,1.2,0.5l3.2-0.2l-0.6,2.1
		c-0.1,0.5,0,1,0.4,1.4c0.2,0.2,4.7,4,1.9,9c-2.1,3.8-8.8,5.6-13.7,6.9c-2.2,0.6-4.1,1.1-5.3,1.7C452,151.5,450.1,153.3,448.5,155.2
		z"/>
	<path d="M445.7,160.1c0,0.6,0.4,1.2,1.1,1.3c0.1,0,0.2,0,0.3,0c0.5,0,1-0.3,1.2-0.8c1.3-2.8,3.9-6.3,7-7.9c1-0.5,2.8-1,4.8-1.5
		c5.4-1.4,12.7-3.4,15.3-8.2c2.8-5,0.2-9.6-1.9-11.8l0.8-3.1c0.1-0.4,0-0.9-0.3-1.2c-0.3-0.3-0.7-0.5-1.1-0.5l-4.4,0.3
		c-1.1-1.1-4.1-3.5-8.8-3.3C445.5,124.3,445.7,158.7,445.7,160.1z M454.2,150.4c-2.2,1.1-4.1,2.9-5.6,4.8
		c0.5-10.9,3.1-28.5,11.4-28.9c4.7-0.2,7,2.7,7.1,2.8c0.3,0.4,0.7,0.6,1.2,0.5l3.2-0.2l-0.6,2.1c-0.1,0.5,0,1,0.4,1.4
		c0.2,0.2,4.7,4,1.9,9c-2.1,3.8-8.8,5.6-13.7,6.9C457.3,149.3,455.4,149.8,454.2,150.4z"/>
	<path class="st3" d="M448.5,356.8c0.5,10.9,3.1,28.5,11.4,28.9c4.7,0.2,7-2.7,7.1-2.8c0.3-0.4,0.7-0.6,1.2-0.5l3.2,0.2l-0.6-2.1
		c-0.1-0.5,0-1,0.4-1.4c0.2-0.2,4.7-4,1.9-9c-2.1-3.8-8.8-5.5-13.7-6.9c-2.2-0.6-4.1-1.1-5.3-1.7C452,360.5,450.1,358.7,448.5,356.8
		z"/>
	<path d="M459.8,388.4c4.8,0.2,7.7-2.1,8.8-3.3l4.4,0.3c0.4,0,0.9-0.2,1.1-0.5c0.3-0.3,0.4-0.8,0.3-1.2l-0.8-3.1
		c2.1-2.2,4.7-6.8,1.9-11.8c-2.6-4.8-10-6.7-15.3-8.2c-2-0.5-3.8-1-4.8-1.5c-3.2-1.5-5.7-5.1-7-7.9c-0.2-0.5-0.7-0.8-1.2-0.8
		c-0.1,0-0.2,0-0.3,0c-0.6,0.1-1.1,0.7-1.1,1.3C445.7,353.3,445.5,387.7,459.8,388.4z M459.5,363.3c4.9,1.3,11.6,3.1,13.7,6.9
		c2.7,4.9-1.8,8.8-1.9,9c-0.4,0.3-0.6,0.9-0.4,1.4l0.6,2.1l-3.2-0.2c-0.4,0-0.9,0.2-1.2,0.5c-0.1,0.1-2.4,3-7.1,2.8
		c-8.3-0.4-10.9-18-11.4-28.9c1.5,1.9,3.4,3.7,5.6,4.8C455.4,362.2,457.3,362.7,459.5,363.3z"/>
	<path class="st3" d="M222.4,356.8c-0.5,10.9-3.1,28.5-11.4,28.9c-4.7,0.2-7-2.7-7.1-2.8c-0.3-0.4-0.7-0.6-1.2-0.5l-3.2,0.2l0.6-2.1
		c0.1-0.5,0-1-0.4-1.4c-0.2-0.2-4.7-4-1.9-9c2.1-3.8,8.8-5.5,13.7-6.9c2.2-0.6,4.1-1.1,5.3-1.7C218.9,360.5,220.8,358.7,222.4,356.8
		z"/>
	<path d="M225.2,351.9c0-0.6-0.4-1.2-1.1-1.3c-0.1,0-0.2,0-0.3,0c-0.5,0-1,0.3-1.2,0.8c-1.3,2.8-3.9,6.3-7,7.9c-1,0.5-2.8,1-4.8,1.5
		c-5.4,1.4-12.7,3.4-15.3,8.2c-2.8,5-0.2,9.6,1.9,11.8l-0.8,3.1c-0.1,0.4,0,0.9,0.3,1.2c0.3,0.3,0.7,0.5,1.1,0.5l4.4-0.3
		c1.1,1.1,4.1,3.5,8.8,3.3C225.4,387.7,225.2,353.3,225.2,351.9z M216.7,361.6c2.2-1.1,4.1-2.9,5.6-4.8
		c-0.5,10.9-3.1,28.5-11.4,28.9c-4.7,0.2-7-2.7-7.1-2.8c-0.3-0.4-0.7-0.6-1.2-0.5l-3.2,0.2l0.6-2.1c0.1-0.5,0-1-0.4-1.4
		c-0.2-0.2-4.7-4-1.9-9c2.1-3.8,8.8-5.5,13.7-6.9C213.6,362.7,215.5,362.2,216.7,361.6z"/>
</g>
</svg>
