<svg version="1.1" id="Layer_1" xmlns="http://www.w3.org/2000/svg" x="0" y="0" viewBox="0 0 512 512" xml:space="preserve"><style>.st3{fill:#ffb700}</style><path fill="#8d2029" d="M185.4 115H485v282H185.4z"/><path fill="#005641" d="M27 115h65.7v282H27z"/><path fill="#ff5800" d="M92.7 115h65.7v282H92.7z"/><path class="st3" d="M0 88v336h512V88H0zm27 309V115h131.4v282H27zm458 0H185.4V115H485v282z"/><g id="crest"><path class="st3" d="M393.6 326.7c-.3-2 1.4-4.5 4.1-8.2 1-1.3 2.4-3.2 2.8-4.2h-.9c-1.5.1-3.7.2-5.7-2-.8-.9-1.1-1.9-1.1-3.1.1-2.4 2.1-4.7 3.3-5.9-3.1-2.2-6.1-4.4-8.8-7.2-5.2-5.2-11.2-7.7-17.7-7.6-.6 6.5 2.8 10.8 6.4 15.3 1.1 1.3 2.1 2.7 3.1 4 4.7 6.8 3.7 20 3.1 21.4-.7 1.6-4.4 5.1-9.5 4.4-2.4-.3-5.1.5-6.8 2-.7.6-1.6 1.7-1.6 3.1 0 .1 0 .4.1.5.7.4 3.3-.4 5.1-1.4.5-.3 1.1-.2 1.6.2 3.6 3.4 7.3.5 7.7.1.5-.4 1.2-.4 1.7 0 3.7 3 7.6-.3 7.7-.4.5-.4 1.1-.4 1.6-.1 1.6 1.1 3.1 1.4 4.4.9 1.1-.4 1.8-1.3 1.8-1.5 0-.5-.7-3.4-1.2-5.2-.5-1.7-1-3.7-1.2-5.1z"/><path class="st3" d="M433.7 201.7c-1.1-.1-1.9.2-2.5.7-1 1-.9 2.8-.9 2.8 0 .4-.1.8-.4 1.1-.3.3-.7.4-1.1.4-2-.3-5-2.4-10.5-6.4-8.8-6.4-22-16.1-34.6-17.7-14.7-1.9-27.7 2.8-31 11.1-3.7 9.2 4.2 17.7 4.2 17.7.4.4.5 1.1.2 1.6-2.1 3.9-.5 6.8.9 8.4.4-1.3 1.1-2.2 2-2.7 2.2-1.3 5.1-.2 9.1 1.3 2.4.9 5 1.9 8.1 2.7 8 2 17.7.2 26.2-1.3 3-.5 6-1.1 8.7-1.4 6.8-.9 13.7 2.2 15.6 6.9.9 2.3 1.4 6.9-5.6 12-12.6 9.1-69.8 4.9-73.2 4.7h-.3c1.3 1.4 2.7 2.8 3.4 2.9.7.2 1.1.8 1 1.5-.1.7-.6 1.2-1.3 1.2l-5.9.1.5 5.6c0 .4-.1.8-.4 1.1-.3.3-.7.4-1.1.4-.2 0-5.3-.8-8.8-2.8l-6.6 4.2c-.2.1-.5.2-.7.2-.1 0-.3 0-.4-.1-.4-.1-.7-.4-.8-.8l-2.5-6.9-3 6c-.2.4-.7.7-1.1.7-.5.1-1-.2-1.2-.6l-2.6-4.1c-1.2 1.5-3.1 3.6-5 4.9-.4.2-.8.3-1.2.2-.4-.1-.7-.5-.9-.9l-1.3-4.2c-1.2 1.5-2.9 3.5-4.7 5-.4.3-.9.4-1.4.2-.5-.2-.8-.6-.8-1.2l-.4-6.8c-1.5.8-3.6 1.8-4.8 2.2-.5.2-1.1 0-1.5-.4-.3-.4-.4-1-.1-1.5 2.1-3.6 4-8.1 4.1-10.4-1.4 1.7-3.3 3.2-5.5 5-4.6 3.8-10.3 8.4-14.6 16.6-2.9 5.7-5.1 15.7-1.3 24.9 3.2 7.9 10 13.8 20.3 17.6-.3-1.5-.6-3-.6-4.4-.1-7 1.3-13.4 1.4-13.7.2-.7.9-1.2 1.6-1 .7.2 1.2.9 1 1.6 0 .1-1.4 6.4-1.3 13.1.1 3.3 1.5 7.3 2.8 11.2 1.8 5.2 3.7 10.6 2.9 15.1-1.1 6.1-8.7 7.7-15.8 6.5-2-.3-3.9.2-5.2 1.4-1.3 1.2-2 3.2-1.8 5.1.1.9.4 1.1.5 1.2.9.5 2.9-.2 3.9-.7.5-.3 1.2-.2 1.6.3 2.8 3.2 6.7 0 6.8-.1.5-.5 1.4-.4 1.9.1 1.1 1.1 2.2 1.7 3.5 1.7 2.3.1 4.5-1.9 4.5-1.9.4-.4 1-.5 1.5-.3 4.5 2 6.8.9 6.9.8 3.9-3.3 1.6-11.1 1.6-11.2-.1-.4-.1-.7.1-1.1.2-.3.5-.6.9-.6 5.4-1.2 8.5-4.7 9.9-7-2.7 0-4.8-1-6.1-2.9-2-3.2-1-7.9 2.5-12.1 6-7.2 9.7-21.8 9.2-27.7-.1-.7.5-1.4 1.2-1.5.7-.1 1.4.5 1.5 1.2.5 5.2-1.9 16-6.1 24.1 5.4-1.5 10.4-3.7 15.5-6.1 5.1-2.3 10.4-4.8 16.8-6.8 10.8-3.4 20.3-1 28.3 7 3.9 3.9 8.1 6.7 13 10 2.1 1.4 4.4 2.9 6.7 4.6 6.3 4.5 6.2 8.3 6.1 12.3 0 1.2-.1 2.5.1 3.8.6 6.5-4.5 7.5-7 8-.3.1-.7.1-.9.2l-1.2.3c-2.5.5-6.3 1.3-7.3 4.5-.2.6-.1.8-.1.8.4.2 2.5-.3 4.1-1 .3-.2.7-.2 1.1 0s.6.4.7.8c.5 1.4 1.2 1.6 1.5 1.7 1.7.5 4.5-1 5.3-1.6.5-.4 1.2-.3 1.7.1 1.4 1.3 2.7 1.8 3.9 1.7 1.6-.2 2.5-1.7 2.5-1.7.2-.4.6-.6 1-.6s.8.1 1.1.4c0 0 1.2 1.3 3.6 2 1.6.5 2-.1 2.1-.3.7-1 .4-3.5-.9-5.1-1.7-2.1-2.5-5.4-2-8.3.4-2.7 1.9-4.9 4.2-6.3 4.2-2.7 5.1-5.5 4.9-6.1-.1 0-.5-.1-.9-.1-1.9-.2-5-.7-8.2-6.6-2.8-5.2-.1-13.5 3.1-23.1 1.6-4.9 3.3-9.9 4.3-14.8 2.8-13.6-6.1-24.5-6.2-24.6-.5-.6-.4-1.4.1-1.9 6.3-5.9 9-11.3 8-16.2-1-5.1-5.9-8.6-9.8-10.1-4.9-1.9-13.8-.8-22.3.2-7.2.9-14 1.7-18.3.7-2.3-.5-3.9-1.5-4.9-3.2-.8-1.3-1-2.8-1-4-2.2.8-3.6 2.8-3.7 2.9-.2.3-.6.6-1.1.6-.5 0-.8-.2-1.1-.5-1.1-1.4-1.6-3-1.3-4.7.3-2.2 1.7-4.1 2.9-5.3-5-1.8-8.9 2.5-9.1 2.7-.4.5-1.2.6-1.7.3-2.4-1.5-3.9-4.4-3.8-7.5.1-2.9 1.6-5.3 4.1-6.6 1.7-.9 3.3-1.1 4.9-.5 1.4.5 2.5 1.7 3.1 2.6 1.8-2.1 2-5.7 2-5.8 0-.4.2-.7.4-1 .3-.2.6-.4 1-.4 3.2.1 5.7 1.3 7.4 3.4 2.3 2.9 2.5 7 2.4 9.6 5.1-2.6 4.5-8.6 4.4-8.9-.1-.5.1-.9.5-1.2.4-.3.9-.4 1.3-.2 5.4 1.9 7.4 6.8 7.9 10.4 1.5-1.5 1.6-3.4 1.6-3.4 0-.6.4-1.2 1-1.3.6-.2 1.2.1 1.5.7 2.1 3.8 5.3 6.2 7.6 7.5l-1.6-3.9c-.2-.5-.1-1.1.3-1.5.4-.4 1-.5 1.5-.2 2.7 1.4 4.8 3.1 7 4.8 2.7 2.1 5.5 4.2 9.5 6.1 3.9 1.8 6.5 1.5 8 .9s2.4-1.7 2.7-2.5c.5-1.4.7-3.5-.2-4.8-.9-1.3-1.9-1.7-3.2-1.8zM274 221.1c.1 0 10.2 3.2 19.4 3.8.5 0 1 .3 1.2.8.2.5.1 1-.2 1.4l-.3.4c1.8-.3 4.1-.5 6.4-.5-.9-1.1-2.1-2.5-3.2-4-2.5 0-11.4-.4-18.8-4-1.8-.9-4.8-2.4-6.3-1.6-.3.1-.7.7-.6 1.5 0 1 .8 1.8 2.4 2.2zM304.4 201.6c-.1 0-.3 0-.4.1-.6.2-.9.8-1 1.4-.1.7.1 1.6.8 2.1 1 .7 2.1.2 2.7-.4.2-.2 1.1-1.2.4-2.3-.9-.6-1.8-.9-2.5-.9z"/><path class="st3" d="M291.2 234.2c.7 1.6 1.7 2.8 2.5 3.6.3-.7.8-1.4 1.5-1.9s2-1 3.8-.7h.2s.1 0 .1.1c.1 0 .1 0 .2.1l.1.1c.7.3 1.3.8 1.6 1.5 1 2.4-.8 7-2.4 10.3 1.1-.6 2.2-1.1 2.8-1.4.4-.2.9-.2 1.3 0s.7.6.7 1.1l.4 6c2.1-2.2 3.8-4.7 3.8-4.7.3-.4.8-.6 1.3-.6.5.1.9.4 1.1.9l1.5 4.9c2.2-2 4-4.6 4.1-4.7.3-.4.7-.6 1.1-.6.5 0 .9.2 1.1.6l2.3 3.7 3.3-6.6c.2-.5.7-.8 1.3-.7.5 0 1 .4 1.2.9l3 8.2 5.9-3.7c.4-.3 1-.3 1.5 0 1.9 1.3 4.9 2.1 6.8 2.5l-.5-5.3c0-.4.1-.8.3-1 .3-.3.6-.4 1-.5l3.4-.1c-.8-.8-1.5-1.6-1.8-2-.2-.3-.3-.6-.3-.9-2.5-.1-6-.6-9.4-2.1l-2.1 3.2c-.2.3-.5.5-.9.6h-.3c-.3 0-.5-.1-.8-.2l-7.8-5.2-1.4 3.9c-.2.4-.6.8-1 .9-.5.1-1-.1-1.3-.4-1.3-1.5-3.5-3.9-4.7-5.2-1.1 1.1-3.1 2.8-5.2 4-.3.2-.8.2-1.1.1-.4-.1-.7-.4-.8-.8l-2.1-5.8c-.3-.7.1-1.5.8-1.7.7-.3 1.5.1 1.7.8l1.6 4.2c2.3-1.6 4.2-3.6 4.2-3.6.5-.5 1.3-.6 1.8-.1.8.6 2.9 3 4.4 4.7l1.2-3.4c.1-.4.5-.7.9-.8.4-.1.8-.1 1.2.2l8.1 5.4 2-3c.4-.6 1.1-.8 1.7-.5 3.6 1.8 7.5 2.2 10 2.3-1.5-2.8-1.6-6.4-1.7-7.3-2-.9-4.5-2.2-7-4.3l-1 2.4c-.2.4-.5.7-.9.8-.4.1-.8 0-1.2-.2l-3.9-2.8-.4 2.9c-.1.5-.3.8-.8 1-.4.2-.9.2-1.3-.1-.1-.1-3.4-2-5.3-4.2-.5-.6-.4-1.4.1-1.9.6-.5 1.4-.4 1.9.1.8.9 1.9 1.8 2.9 2.5l.4-3c.1-.5.4-.9.8-1.1.4-.2.9-.1 1.3.1l4.4 3.2 1-2.6c.2-.4.5-.7 1-.8.4-.1.9 0 1.2.3 3.4 3.2 7 4.9 9.3 5.7-.8-3.6-1.1-8.1-1.1-8.4v-.1c-2.1-1.2-5.1-3.2-7.7-6.3 0 1.7-.1 3.4-.6 4.4-.1.4-.4.7-.8.8-.4.1-.8.1-1.1-.1-.2-.1-3.1-1.8-5.3-4.3-.4 1.4-.8 2.8-1.2 3.4-.4.6-1.1.8-1.8.5-.1-.1-2.2-1.1-4.1-2.7-.2 1.8-.5 3.8-.9 4.8-.1.4-.4.6-.8.8-.4.1-.8.1-1.1-.1-.1-.1-2.5-1.4-4.7-3l-.6 2.3c-.1.4-.4.7-.7.9-.4.2-.8.2-1.1 0-.2-.1-4-1.9-6.2-4.5-.5-.6-.4-1.4.2-1.9.6-.5 1.4-.4 1.9.2 1.1 1.3 2.7 2.4 3.8 3l.7-2.6c.1-.5.5-.8.9-1 .5-.1.9 0 1.3.3 1.3 1.2 3 2.3 4.3 3.1.3-1.7.5-4.1.6-5.7 0-.6.5-1.1 1.1-1.2.6-.1 1.2.1 1.5.7.7 1.4 2.5 2.7 3.9 3.5.4-1.2.8-2.9 1.2-4.3.1-.6.6-1 1.2-1 .6-.1 1.1.3 1.4.8.8 1.9 2.9 3.6 4.4 4.6.2-2 0-4.8-.2-6.5-.1-.7.3-1.3 1-1.4.6-.2 1.3.1 1.6.7 2.7 5.5 7.5 8.6 10 9.9 1.4-14.9-3-20.6-3.1-20.7-.2-.3-.3-.7-.3-1.1.1-.4.3-.7.6-.9 2.4-1.4 3.9-4 4.8-6.5-5.5 5.3-14.2 7.4-18.5 8.1l2.1 2.5c.3.4.4.9.2 1.4-.2.5-.6.8-1.1.8-5.2.5-9-.2-11.6-1l.9 1.6c.2.4.2.9 0 1.4-.3.4-.7.7-1.2.6-4.2-.2-7.9-1.9-11-3.5-.1 1-.6 2-1.5 2.8-1 1-2.3 1.5-3.5 1.5-.9 0-1.8-.3-2.6-.8-1.5-1-2.3-2.8-2-4.7.3-1.7 1.4-3.1 2.9-3.6 2-.6 4.3.6 7.2 2.1 2.3 1.2 5.1 2.6 8.1 3.2l-1.7-3.1c-.3-.6-.2-1.3.3-1.7.5-.4 1.2-.4 1.7 0 0 0 3.4 2.8 11 2.6l-1.9-2.4c-.3-.4-.4-.9-.2-1.4.2-.5.6-.8 1.1-.8.1 0 11.3-1.1 18.1-6.6-2.2.7-3.9.5-4.1.5-.4 0-.7-.2-1-.5-3.1-3.9-6.3-5.1-7.9-5.5-.9 2.9-3.1 5.2-3.2 5.3-.3.3-.7.4-1.1.4-.4 0-.8-.3-1-.6-2.4-3.9-5.9-4.9-7.9-5.2.2 2.9-1.8 5.2-3.1 6.2-.5.4-1.2.3-1.7-.1-5.8-5.2-10.3-3.7-12.1-2.6.6 1.4.3 2.6-.1 3.4-2.8 5.6-19.9 6.7-23.3 6.9-.4 0-.8-.2-1.1-.5-.3-.3-.4-.8-.3-1.2.2-.9.1-1.9-.5-2.8-.6-.9-1.5-1.6-2.4-1.8-.9-.2-2.6-.1-3.6 1-1.2 1.3-1.2 3.6-.2 6.8 1.8 5.7 7.4 11.4 10.9 14.5v-1.4c0-.6.4-1.1 1-1.2.6-.2 1.2.1 1.5.5 1.2 1.7 2.5 2.8 3.6 3.5l.7-4.3c.1-.6.6-1.1 1.2-1.1.6-.1 1.2.3 1.4.8 1.2 3 9 12.3 11.9 15.6.4.4.4 1 .2 1.5-.3.5-.8.8-1.4.7-4.9-.7-12.2.9-12.3 1-.6.1-1.1-.1-1.5-.6-.3-.5-.3-1.1.1-1.6l1-1.2c-6.9-.7-13.6-2.5-16.3-3.3l-2.3 6.2 6.1-.6c.5-.1.9.2 1.2.5.3.4.3.9.2 1.3l-1.2 2.8 5-1.3c.7-.2 1.4.2 1.6.8.7 1.7 1.5 2.8 2.1 3.5l1.4-3.1c.2-.5.7-.8 1.3-.8 1 .1 1.4.4 1.7.9zM273.6 303.4c5.3 3.6 9.7-.5 12-3.6-4.9-3.6-8.5-8-10.6-13.3-.7-1.7-1.1-3.5-1.5-5.2-.5-.4-7.9-6.3-14.1-13.1-.3.8-.7 1.5-1.1 1.9.4 1.8 0 3.2-.5 4.2.4 1.3.1 2.5-.4 3.4.9 1.4 1.1 2.8.5 4.1-.1.3-.3.6-.5.9.8.9 2 3.1 2 7.4 0 2.9 1.1 4.6 1.9 5.5.5-.4 1-.6 1.5-.7 1.7-.2 3.1 1.3 5 3.3 1.5 1.6 3.4 3.5 5.8 5.2zM247.1 266.7h-.3c-1.9 0-3.7-.2-5.4-.5-.2.5.2 1.8.5 2 .3.3.6.7.6 1.1 0 .4-.2.9-.6 1.1-.2.2-.9.8-.9 1.4 0 .6.7 1.2 1.1 1.5.3.2.5.6.5.9 0 .4-.1.7-.3 1-.2.2-.7 1-.6 1.6 0 .1.1.5.8 1 .3.2.5.5.6.9.1.4 0 .7-.3 1 0 0-.4.6-.2 1.1.2.6.9 1.1 1.5 1.4 1.1.5 2.8.9 4.5.9h.2c1.4 0 2.9-.1 4.2-.6 1.2-.5 2.1-1.1 2.4-2 .1-.3.4-.8-.7-2.1-.4-.5-.4-1.2 0-1.7 0 0 .9-1.2.3-2.2-.3-.5-.2-1.2.2-1.6.1-.1.9-1.1.3-2.9-.2-.5-.1-1.1.3-1.5 0 0 1.3-1.3 1.2-3.3-.2-.2-.3-.4-.5-.6-2.5 1.4-5.7 2.1-9.4 2.1zM259.5 172.4c-5.5 2.9-17.1 12.2-17.5 37.4l.3 42.6c0 .1.1.1.1.2.7 1.3.4 3.1 0 4.3 3.4 1.2 7.6.7 9.4.3-.4-1.1-.6-2.8.6-4.7-.2-50.9 4.6-72.5 7.1-80.1z"/><path class="st3" d="M260 257.7c0-2.2-1.6-3.8-3.2-4.4-.3-.1-1.5-.4-2 .3-1 1.3-.6 2.2-.3 3.1.2.5.4 1 .2 1.6-.2.7-.9 1-1.1 1.1-1.8.8-8.8 1.9-13.6-.6-.7-.3-.9-1.1-.6-1.8.5-1 .9-2.6.6-3.1 0 0-.1-.2-.5-.2-.4-.1-.7-.1-1.1-.1-1.6 0-3.2.5-4 1.4-.7.7-.9 1.6-.6 2.8.8 3.9 5.7 6.2 13 6.3 5.2 0 9.6-1.2 11.9-3.4.9-1.1 1.3-2 1.3-3zM248.4 289.8c.3-.4.8-.6 1.3-.5.9.2 3.3.7 4.6-.3.5-.4.6-1.3.2-2-.1-.2-.5-.9-1.9-.3-1.3.5-3.2 1.1-4.5 0-.2-.2-.4-.5-.5-.7-.4 0-.7-.1-1.1-.1-.1.3-.3.6-.5.8-1.2 1.1-3.1.5-4.4 0-1.4-.5-1.8.1-1.9.3-.4.6-.3 1.6.2 2 1.3 1 3.7.5 4.5.4.5-.1 1.1.1 1.4.5.3.4.5 1 .2 1.4-.3.6-1.6 3.2-2.9 4.8 1.7 2.5 3.2 6.9-.3 10.8-.3.3-.7.5-1.1.5-.4 0-.8-.3-1-.6-.2-.3-.9-1.1-1.6-1.3-.2 0-.6-.1-1.1.3-.4.2-.6 1.1-.3 1.9.5 1.6 2.2 2.5 4.5 2.4.5-.1 1.1.3 1.3.9.2.5.1 1.2-.4 1.5l-2.2 1.9 3.6.9c.5.1.9.5 1 1 0 0 .5 1.9 1.6 3.6 1.1-1.6 1.6-3.5 1.6-3.6.1-.5.5-.8 1-1l3.6-.9-2.2-1.9c-.4-.4-.6-1-.4-1.5.2-.5.8-.9 1.3-.9 2.3.1 4-.8 4.5-2.4.3-.9.1-1.7-.3-1.9-.5-.4-.9-.3-1.1-.3-.8.2-1.5 1-1.6 1.3-.2.4-.6.6-1 .6s-.8-.1-1.1-.5c-3.4-3.9-2-8.3-.3-10.8-1.3-1.6-2.6-4.2-2.9-4.8-.2-.6-.1-1.1.2-1.5z"/><path d="M438.8 201.6c-.7-1.1-2.2-2.5-4.9-2.7-1.9-.1-3.5.4-4.6 1.5-.9.9-1.3 2-1.5 2.9-1.8-1-4.8-3.1-7.9-5.4-9-6.6-22.6-16.5-35.9-18.2-10.8-1.4-23.1.8-29.9 7.1.1-.8.1-1.4.1-1.5v-.1c0-.3-.1-.5-.2-.7l-.1-.1c-.1-.2-.3-.4-.6-.5-.3-.1-.5-.1-.8 0h-.1c-.2.1-.4.2-.6.4-2.8 3.8-6.7 4.3-8.1 4.3-5.1-6-10.4-6.2-10.7-6.2-.8.1-1.3.5-1.4 1.2-.2 1.4-1 2.8-1.7 3.8-4.5-5.6-10.8-5-11-5-.4 0-.8.3-1 .7-.2.4-.2.8-.1 1.2.8 1.8-.2 3.3-1 4.2-8.8-7-15.6-1.3-15.6-1.2-.5.5-.6 1.2-.2 1.8.7.9.5 1.5.4 1.8-1.4 2.9-11.7 4.8-19.5 5.3 0-1.1-.4-2.2-1-3.2-1-1.6-2.5-2.7-4.2-3-1.9-.4-4.5 0-6.2 1.9-1.9 2.1-2.1 5.2-.8 9.5 2.1 6.6 8.4 12.8 12 16-.9-.3-1.8-.7-2.6-1.1-2.2-1.1-5.8-2.8-8.4-1.4-1.3.7-2.2 2.4-2.1 4.1.1.9.6 2.8 3.1 4l-3 8.2c-.2.4-.1.9.2 1.3.3.4.7.6 1.2.5l6-.6-1.3 3.3c-.2.5-.1 1 .2 1.4.3.4.9.6 1.4.4l6.5-1.7c1.7 3.5 3.9 4.7 4.1 4.7.3.2.7.2 1.1.1.4-.1.6-.4.8-.7l1-2.3c1.1 1.5 2.3 2.5 3 3.1-.4.4-.9.7-1.4 1.1-4.5 3.7-10.8 8.8-15.2 17.4-2.2 4.4-4 11-3.5 18-3.3-2.7-9.4-8.2-13.9-13.7.5-.4 1.1-.7 1.6-1.2 1.4-1.4 2.2-3.1 2.2-4.8 0-3.6-2.6-6.1-5.1-7-.9-.3-1.8-.4-2.6-.2-.1-59 6.6-77 8-80.1.2-.5.1-1-.2-1.4-.3-.4-.9-.6-1.4-.4-.9.3-21.7 6.8-22.2 41.2l.3 41.1c-2.8-.3-5.5.5-7.1 2.2-.9.9-1.8 2.6-1.3 5.2.7 3.4 3.4 5.9 7.6 7.3-.1.4-.2.9-.1 1.5.1.7.3 1.5.7 2.2-.5.6-1 1.5-1 2.6 0 1 .4 2 1.2 2.9-.3.7-.6 1.6-.5 2.6.1.6.3 1.4 1 2.2-.2.6-.3 1.4-.1 2.2.2.9.8 1.6 1.6 2.3-2.1-.4-3.5.6-4.2 1.8-1 1.8-.6 4.3.9 5.5 1.2 1 2.7 1.3 4.1 1.2-.7 1.2-1.4 2.2-1.9 2.6-.3.2-.5.6-.5 1s.1.7.3 1c.1.2 3.1 3.5 1.3 6.9-.5-.4-1.2-.9-2.1-1-1.1-.2-2.2 0-3.2.7-1.4 1-2 3-1.3 5 .5 1.5 1.8 3.1 4 3.8L237 314c-.4.3-.6.9-.4 1.3.1.5.5.9 1 1l5.4 1.3c.4 1.2 1.4 3.5 3 5.1.3.3.7.4 1.1.4s.7-.1 1-.4c1.6-1.6 2.5-3.9 3-5.1l5.4-1.3c.5-.1.9-.5 1-1 .1-.5-.1-1-.4-1.3l-1.9-1.6c2.2-.7 3.5-2.3 4-3.8.7-2 .1-4.1-1.3-5-1-.7-2.1-.9-3.2-.7-.8.2-1.5.6-2.1 1-1.7-3.4 1.2-6.8 1.3-6.9.2-.3.4-.7.3-1 0-.4-.2-.7-.5-.9-.5-.4-1.2-1.4-1.9-2.6 1.4 0 2.8-.2 4.1-1.2.3-.2.5-.5.7-.8.1 5.9 3.9 8.3 4 8.4.6.4 1.5.2 1.9-.5.3-.5.5-.6.5-.6.5 0 1.8 1.4 2.8 2.5 1.6 1.7 3.6 3.8 6.3 5.6 2 1.3 3.9 1.9 5.6 1.9 4.9 0 8.5-4.1 10.1-6.2 3 1.9 6.5 3.6 10.4 4.9.1 0 .3.1.4.1.5 1.5 1 3 1.5 4.6 1.7 4.9 3.4 9.9 2.8 13.7-.9 4.9-8.7 5-12.7 4.3-2.9-.5-5.5.3-7.5 2.1-1.9 1.8-3 4.6-2.7 7.4.2 1.9 1.2 2.9 2 3.3 1.8 1 4.2.2 5.6-.3 3 2.7 6.7 1.5 8.9.1 1.4 1.1 2.9 1.7 4.5 1.8h.2c2.5 0 4.6-1.3 5.6-2.1 5.2 2.1 8.2.5 8.8.2 4.3-3.6 3.6-10 3-12.8 8.7-2.6 11.6-10.2 11.7-10.6.2-.5.1-1-.3-1.4-.3-.4-.9-.5-1.3-.4-2.7.7-4.8.2-5.8-1.4-1.4-2.1-.5-5.7 2.3-8.9.6-.7 1.1-1.5 1.7-2.2 6.8-1.5 12.5-4.1 18.6-6.9 5.1-2.3 10.3-4.7 16.5-6.6 1.7-.5 3.4-.9 5.1-1.1-.5 7.3 3.3 12.2 6.9 16.8l3 3.9c4 5.7 3.2 17.8 2.9 18.8-.3.6-2.9 3.3-6.7 2.8-3.1-.4-6.6.6-8.9 2.6-1.6 1.4-2.5 3.3-2.5 5.2 0 1.6.8 2.4 1.4 2.8 2 1.2 5.2-.1 6.9-.9 1.6 1.3 3.3 1.7 4.8 1.7 1.9 0 3.6-.7 4.8-1.5 3.6 2.3 7.4 1 9.5-.5 2.7 1.4 4.8 1.2 6.2.6.4-.2.9-.4 1.2-.6l.2.2c1.4 1.2 4.1.6 5.8 0 .8 1.3 1.8 1.9 2.6 2.1 2.5.8 5.4-.6 6.8-1.4 1.8 1.4 3.5 1.9 5.2 1.7 1.5-.2 2.7-1 3.4-1.8.8.6 2 1.3 3.6 1.8.7.2 1.4.3 1.9.3 1.9 0 2.9-1.1 3.3-1.6 1.6-2.3.7-6.2-1-8.3-1-1.3-1.9-3.7-1.5-6.2.2-1.3.9-3.2 2.9-4.5 3.7-2.3 6.1-5.5 6.1-8.1 0-1.1-.4-1.9-1.1-2.5-.7-.5-1.4-.6-2.1-.7-1.6-.2-3.6-.5-6.2-5.2-2.3-4.2.4-12.3 3.3-21 1.6-4.9 3.3-10 4.4-15.1 2.6-12.6-3.7-22.7-6-25.8 6.4-6.3 9-12.2 7.9-17.8-1.2-6.2-7-10.4-11.5-12.1-5.5-2.1-14.7-1-23.6.1-7 .8-13.5 1.6-17.5.8-1.5-.3-2.6-1-3.2-1.9-1-1.7-.5-3.9-.5-3.9.1-.4 0-.9-.3-1.2-.3-.3-.7-.5-1.1-.5-2.6.1-4.7 1.5-5.9 2.7-.1-.4-.1-.7 0-1.1.4-2.6 3.3-4.9 3.4-4.9.4-.3.6-.7.5-1.1 0-.4-.3-.9-.6-1.1-5.5-3.4-10.7-.9-13.3 1.5-1.1-1.1-1.8-2.8-1.7-4.4 0-1.1.4-3.1 2.6-4.3 1-.5 1.9-.6 2.6-.4 1.3.5 2.2 2.1 2.4 2.7.1.4.4.7.8.8.4.1.8.1 1.1-.1 3-1.8 4-5.5 4.3-7.5 1.8.3 3.1 1 4.1 2.3 2.8 3.5 1.6 9.6 1.6 9.7-.1.5.1.9.4 1.2.3.3.8.4 1.3.3 6.1-1.6 8.1-6.6 8.4-10.3 4.7 2.9 4.4 8.9 4.3 9.2 0 .5.2.9.6 1.2.4.3.9.3 1.3.2 2.2-.9 3.5-2.4 4.2-3.8 4.3 5.6 10.2 7.5 10.5 7.6.5.2 1 0 1.4-.4.4-.4.5-.9.3-1.4l-1.3-3.2c1.1.8 2.1 1.6 3.2 2.4 2.8 2.2 5.7 4.4 10 6.4 4.7 2.2 8.1 1.7 10.1.9 2-.8 3.6-2.3 4.2-4 .8-2.7 1.1-5.7-.4-8zm-2.1 6.4c-.3.8-1.2 1.9-2.7 2.5-1.5.6-4.1 1-8-.9-3.9-1.9-6.8-4-9.5-6.1-2.2-1.7-4.4-3.4-7-4.8-.5-.3-1.1-.2-1.5.2-.4.4-.6 1-.3 1.5l1.6 3.9c-2.3-1.3-5.5-3.7-7.6-7.5-.3-.5-.9-.8-1.5-.7-.6.2-1 .7-1 1.3 0 0 0 1.9-1.6 3.4-.5-3.6-2.4-8.4-7.9-10.4-.4-.2-.9-.1-1.3.2-.4.3-.6.8-.5 1.2 0 .3.7 6.3-4.4 8.9.1-2.5-.1-6.6-2.4-9.6-1.7-2.1-4.2-3.3-7.4-3.4-.3 0-.7.1-1 .4-.3.2-.4.6-.4 1 0 0-.2 3.7-2 5.8-.6-1-1.7-2.1-3.1-2.6-1.5-.6-3.2-.4-4.9.5-2.5 1.3-4 3.7-4.1 6.6-.1 3 1.4 6 3.8 7.5.6.3 1.3.2 1.7-.3.2-.2 4-4.4 9.1-2.7-1.2 1.2-2.6 3.1-2.9 5.3-.2 1.7.2 3.3 1.3 4.7.3.3.6.5 1.1.5.4 0 .8-.2 1.1-.6 0 0 1.5-2 3.7-2.9 0 1.2.2 2.6 1 4 1 1.6 2.7 2.7 4.9 3.2 4.4.9 11.2.1 18.3-.7 8.6-1 17.5-2.1 22.3-.2 3.9 1.5 8.8 5 9.8 10.1 1 4.9-1.7 10.3-8 16.2-.5.5-.6 1.3-.1 1.9.1.1 9 10.9 6.2 24.6-1 4.9-2.7 10-4.3 14.8-3.2 9.6-5.9 17.9-3.1 23.1 3.2 5.9 6.3 6.3 8.2 6.6.4 0 .8.1.9.1.3.5-.7 3.4-4.9 6.1-2.3 1.5-3.7 3.6-4.2 6.3-.5 2.9.3 6.2 2 8.3 1.3 1.6 1.5 4.1.9 5.1-.1.2-.5.8-2.1.3-2.4-.8-3.6-2-3.6-2-.3-.3-.7-.5-1.1-.4-.4 0-.8.3-1 .6 0 0-1 1.5-2.5 1.7-1.2.2-2.5-.4-3.9-1.7-.5-.4-1.2-.5-1.7-.1-.8.6-3.6 2.2-5.3 1.6-.2-.1-1-.3-1.5-1.7-.1-.4-.4-.7-.7-.8s-.7-.1-1.1 0c-1.6.7-3.7 1.2-4.1 1 0 0-.1-.2.1-.8.9-3.2 4.7-4 7.3-4.5.5-.1.9-.2 1.2-.3.3-.1.6-.1.9-.2 2.5-.5 7.6-1.5 7-8-.1-1.4-.1-2.6-.1-3.8.1-4 .2-7.8-6.1-12.3-2.3-1.7-4.6-3.2-6.7-4.6-4.9-3.3-9.1-6.1-13-10-8-8-17.5-10.3-28.3-7-6.4 2-11.7 4.4-16.8 6.8-5.2 2.4-10.1 4.6-15.5 6.1 4.3-8.1 6.6-18.9 6.1-24.1-.1-.7-.7-1.3-1.5-1.2-.7.1-1.3.7-1.2 1.5.6 5.9-3.1 20.5-9.2 27.7-3.5 4.2-4.5 9-2.5 12.1 1.3 2 3.4 2.9 6.1 2.9-1.5 2.3-4.5 5.8-9.9 7-.4.1-.7.3-.9.6-.2.3-.2.7-.1 1.1 0 .1 2.3 7.9-1.6 11.2-.1.1-2.4 1.2-6.9-.8-.5-.2-1.1-.1-1.5.3 0 0-2.2 2.1-4.5 1.9-1.3 0-2.4-.6-3.5-1.7-.5-.5-1.3-.6-1.9-.1-.2.1-4 3.3-6.8.1-.4-.5-1.1-.6-1.6-.3-1.1.6-3.1 1.2-3.9.7-.1-.1-.5-.2-.5-1.2-.2-2 .5-3.9 1.8-5.1 1.3-1.2 3.2-1.7 5.2-1.4 7.1 1.2 14.7-.4 15.8-6.5.8-4.5-1.1-9.9-2.9-15.1-1.4-3.9-2.8-7.9-2.8-11.2-.1-6.7 1.3-13 1.3-13.1.2-.7-.3-1.5-1-1.6-.7-.2-1.5.3-1.6 1-.1.3-1.5 6.7-1.4 13.7 0 1.4.3 2.9.6 4.4-10.3-3.8-17.1-9.7-20.3-17.6-3.7-9.3-1.6-19.2 1.3-24.9 4.2-8.2 10-12.8 14.6-16.6 2.2-1.8 4.1-3.3 5.5-5-.1 2.2-2.1 6.8-4.1 10.4-.3.5-.2 1.1.1 1.5.3.4.9.6 1.5.4 1.2-.4 3.3-1.4 4.8-2.2l.4 6.8c0 .5.3 1 .8 1.2.5.2 1 .1 1.4-.2 1.8-1.5 3.5-3.5 4.7-5l1.3 4.2c.1.4.4.7.9.9.4.1.9.1 1.2-.2 1.9-1.3 3.8-3.5 5-4.9l2.6 4.1c.3.4.7.7 1.2.6.5 0 .9-.3 1.1-.7l3-6 2.5 6.9c.1.4.4.7.8.8.1 0 .3.1.4.1.3 0 .5-.1.7-.2l6.6-4.2c3.5 1.9 8.6 2.8 8.8 2.8.4.1.8-.1 1.1-.4.3-.3.5-.7.4-1.1l-.5-5.6 5.9-.1c.7 0 1.2-.5 1.3-1.2.1-.7-.3-1.3-1-1.5-.6-.2-2.1-1.5-3.4-2.9h.3c3.4.3 60.6 4.5 73.2-4.7 7-5.1 6.5-9.7 5.6-12-1.9-4.7-8.7-7.8-15.6-6.9-2.7.3-5.6.9-8.7 1.4-8.6 1.5-18.3 3.3-26.2 1.3-3.1-.8-5.8-1.8-8.1-2.7-4-1.5-6.9-2.6-9.1-1.3-.9.5-1.6 1.4-2 2.7-1.4-1.6-3-4.5-.9-8.4.3-.5.2-1.1-.2-1.6-.1-.1-7.9-8.5-4.2-17.7 3.3-8.3 16.4-13 31-11.1 12.6 1.6 25.9 11.3 34.6 17.7 5.5 4 8.5 6.2 10.5 6.4.4.1.8-.1 1.1-.4.3-.3.5-.7.4-1.1 0 0-.1-1.8.9-2.8.6-.5 1.4-.8 2.5-.7 1.3.1 2.3.6 2.8 1.4 1.3 1.7 1.1 3.7.6 5.2zm-42.5 130.8c-1.3.5-2.8.1-4.4-.9-.5-.3-1.2-.3-1.6.1-.2.1-4 3.4-7.7.4-.5-.4-1.2-.4-1.7 0-.4.3-4 3.3-7.7-.1-.4-.4-1.1-.5-1.6-.2-1.8 1-4.4 1.8-5.1 1.4-.1-.1-.1-.4-.1-.5 0-1.4.9-2.5 1.6-3.1 1.7-1.5 4.4-2.3 6.8-2 5.1.7 8.9-2.8 9.5-4.4.6-1.4 1.6-14.6-3.1-21.4-1-1.4-2-2.7-3.1-4-3.6-4.5-7-8.8-6.4-15.3 6.6-.1 12.5 2.4 17.7 7.6 2.7 2.7 5.7 5 8.8 7.2-1.2 1.2-3.1 3.6-3.3 5.9-.1 1.2.3 2.2 1.1 3.1 2 2.2 4.2 2.1 5.7 2h.9c-.4.9-1.8 2.8-2.8 4.2-2.7 3.7-4.4 6.2-4.1 8.2.2 1.3.7 3.4 1.2 5.3s1.2 4.7 1.2 5.2c-.1 0-.7.9-1.8 1.3zm5.7-18.6c2.6-3.5 3.9-5.5 3.2-7-.8-1.6-2.4-1.5-3.6-1.4-1.3.1-2.5.1-3.6-1.1-.3-.3-.4-.7-.4-1.1.1-1.5 1.8-3.6 2.8-4.5.8.5 1.5 1.1 2.3 1.6 2.1 1.4 4.3 2.9 6.6 4.6 5.1 3.7 5 6.2 4.9 10 0 1.2-.1 2.7.1 4.2.4 3.8-1.8 4.5-4.8 5.1-.4.1-.7.1-1.1.2-.3.1-.7.2-1.1.2-2 .4-5.1 1.1-7.3 3.1-.2-.7-.4-1.6-.7-2.6-.5-1.9-1-3.9-1.2-5.1.1-1.1 2.5-4.4 3.9-6.2zm-137.1-25.3c-.6.1-1.1.3-1.5.7-.8-.9-1.9-2.6-1.9-5.5 0-4.3-1.2-6.4-2-7.4.2-.3.4-.6.5-.9.6-1.3.4-2.7-.5-4.1.4-.9.7-2.2.4-3.4.5-.9 1-2.4.5-4.2.3-.4.8-1.1 1.1-1.9 6.2 6.9 13.6 12.8 14.1 13.1.4 1.7.8 3.5 1.5 5.2 2.1 5.3 5.7 9.7 10.6 13.3-2.3 3.1-6.6 7.2-12 3.6-2.5-1.7-4.3-3.6-5.8-5.2-1.9-2-3.3-3.5-5-3.3zm-11.4 11.9c.3.3.7.5 1.1.5.4 0 .8-.3 1-.6.1-.2.9-1.1 1.6-1.3.2 0 .6-.1 1.1.3.4.2.6 1.1.3 1.9-.5 1.6-2.2 2.5-4.5 2.4-.6 0-1.1.3-1.3.9-.2.5-.1 1.2.4 1.5l2.2 1.9-3.6.9c-.5.1-.9.5-1 1 0 0-.5 1.9-1.6 3.6-1.1-1.6-1.6-3.5-1.6-3.6-.1-.5-.5-.8-1-1l-3.6-.9 2.2-1.9c.4-.4.6-1 .4-1.5-.2-.5-.8-.9-1.3-.9-2.3.1-4-.8-4.5-2.4-.3-.9-.1-1.7.3-1.9.5-.4.9-.3 1.1-.3.8.1 1.4 1 1.6 1.3.2.4.6.6 1 .6s.8-.1 1.1-.5c3.4-3.9 2-8.3.3-10.8 1.3-1.6 2.6-4.2 2.9-4.8.2-.5.1-1-.2-1.4-.3-.4-.9-.6-1.4-.5-.8.2-3.1.7-4.5-.4-.5-.4-.6-1.3-.2-2 .1-.2.5-.9 1.9-.3 1.3.5 3.3 1.1 4.4 0 .3-.2.4-.5.5-.8.4.1.7.1 1.1.1.1.3.3.5.5.7 1.2 1.1 3.1.5 4.5 0s1.8.1 1.9.3c.4.6.3 1.6-.2 2-1.3 1-3.7.5-4.6.3-.5-.1-1 .1-1.3.5-.3.4-.4 1-.1 1.4.3.6 1.6 3.2 2.9 4.8-1.7 2.6-3.2 7 .2 10.9zm4.4-38c-.4.4-.5 1-.3 1.5.7 1.8-.2 2.8-.3 2.9-.4.4-.5 1.1-.2 1.6.6 1-.3 2.2-.3 2.2-.4.5-.4 1.2 0 1.7 1.1 1.2.8 1.8.7 2.1-.4.9-1.2 1.5-2.4 2-1.3.5-2.7.6-4.2.6h-.2c-1.7-.1-3.3-.4-4.5-.9-.6-.3-1.4-.8-1.5-1.4-.1-.6.2-1.1.2-1.1.2-.3.3-.7.3-1-.1-.4-.3-.7-.6-.9-.7-.5-.8-.9-.8-1-.1-.6.4-1.4.6-1.6.2-.3.4-.7.3-1 0-.4-.2-.7-.5-.9-.4-.3-1.1-.9-1.1-1.5s.7-1.2.9-1.4c.4-.2.5-.7.6-1.1 0-.4-.2-.9-.6-1.1-.4-.3-.7-1.6-.5-2 1.6.3 3.4.5 5.4.5h.3c3.7 0 6.9-.7 9.5-1.8.2.2.3.4.5.6 0 1.7-1.2 2.9-1.3 3zm-9-4.8c-7.3-.1-12.2-2.4-13-6.3-.2-1.2 0-2.1.6-2.8.8-.9 2.4-1.4 4-1.4.4 0 .7 0 1.1.1.4.1.4.2.5.2.3.5-.1 2.1-.6 3.1-.3.7-.1 1.5.6 1.8 4.8 2.5 11.8 1.4 13.6.6.2-.1.9-.4 1.1-1.1.1-.6 0-1.1-.2-1.6-.3-.9-.7-1.8.3-3.1.5-.7 1.7-.4 2-.3 1.6.5 3.2 2.2 3.2 4.4 0 1-.5 2-1.4 2.9-2.2 2.3-6.6 3.5-11.8 3.5zm5-6.9c-1.8.4-6 .9-9.4-.3.4-1.2.7-2.9 0-4.3 0-.1-.1-.1-.1-.2l-.3-42.6c.3-25.3 12-34.5 17.5-37.4-2.5 7.6-7.3 29.2-7.1 80-1.3 2-1 3.7-.6 4.8zm36.9-22.9l-1.4 3.1c-.7-.7-1.5-1.8-2.1-3.5-.3-.6-.9-1-1.6-.8l-5 1.3 1.2-2.8c.2-.4.1-.9-.2-1.3-.3-.4-.8-.6-1.2-.5l-6.1.6 2.3-6.2c2.7.8 9.4 2.6 16.3 3.3l-1 1.2c-.4.5-.4 1.1-.1 1.6.3.5.9.7 1.5.6.1 0 7.3-1.7 12.3-1 .6.1 1.1-.2 1.4-.7.3-.5.2-1.1-.2-1.5-2.9-3.3-10.6-12.7-11.9-15.6-.2-.6-.8-.9-1.4-.8-.6.1-1.1.5-1.2 1.1l-.7 4.3c-1-.7-2.4-1.8-3.6-3.5-.3-.5-.9-.7-1.5-.5-.6.2-1 .7-1 1.2v1.4c-3.5-3.1-9.1-8.8-10.9-14.5-1-3.2-.9-5.6.2-6.8 1-1.1 2.7-1.2 3.6-1 .9.2 1.9.9 2.4 1.8.6.9.7 1.9.5 2.8-.1.4 0 .9.3 1.2.3.3.7.5 1.1.5 3.4-.2 20.6-1.3 23.3-6.9.4-.8.7-1.9.1-3.4 1.8-1 6.3-2.6 12.1 2.6.5.4 1.2.5 1.7.1 1.3-1 3.3-3.3 3.1-6.2 2 .3 5.5 1.3 7.9 5.2.2.4.6.6 1 .6s.8-.1 1.1-.4c.1-.1 2.3-2.4 3.2-5.3 1.6.4 4.8 1.6 7.9 5.5.2.3.6.5 1 .5.1 0 1.9.1 4.1-.5-6.8 5.5-17.9 6.6-18.1 6.6-.5 0-.9.4-1.1.8-.2.5-.1 1 .2 1.4l1.9 2.4c-7.6.1-11-2.6-11-2.6-.5-.4-1.2-.4-1.7 0s-.7 1.1-.3 1.7l1.7 3.1c-3-.6-5.8-2-8.1-3.2-2.9-1.5-5.2-2.6-7.2-2.1-1.5.5-2.6 1.8-2.9 3.6-.3 1.9.5 3.7 2 4.7.8.5 1.7.8 2.6.8 1.3 0 2.5-.5 3.5-1.5.8-.8 1.3-1.8 1.5-2.8 3 1.5 6.8 3.3 11 3.5.5.1.9-.2 1.2-.6.3-.4.3-.9 0-1.4l-.9-1.6c2.6.9 6.4 1.6 11.6 1 .5-.1.9-.4 1.1-.8.2-.5.1-1-.2-1.4l-2.1-2.5c4.2-.7 13-2.8 18.5-8.1-.9 2.5-2.4 5.1-4.8 6.5-.3.2-.6.5-.6.9-.1.4 0 .8.3 1.1 0 .1 4.4 5.8 3.1 20.7-2.5-1.3-7.3-4.3-10-9.9-.3-.6-.9-.9-1.6-.7-.6.2-1 .8-1 1.4.2 1.8.3 4.6.2 6.5-1.5-1-3.5-2.8-4.4-4.6-.2-.5-.8-.9-1.4-.8-.6.1-1.1.5-1.2 1-.3 1.5-.8 3.2-1.2 4.3-1.3-.8-3.1-2.2-3.9-3.5-.3-.5-.9-.8-1.5-.7-.6.1-1 .6-1.1 1.2-.1 1.6-.3 4-.6 5.7-1.2-.8-3-1.9-4.3-3.1-.4-.3-.8-.4-1.3-.3-.5.1-.8.5-.9 1l-.7 2.6c-1.2-.7-2.8-1.8-3.8-3-.5-.6-1.3-.7-1.9-.2-.6.5-.7 1.3-.2 1.9 2.2 2.7 6.1 4.5 6.2 4.5.4.2.8.2 1.1 0 .4-.2.6-.5.7-.9l.6-2.3c2.2 1.6 4.5 2.9 4.7 3 .3.2.7.2 1.1.1.4-.1.7-.4.8-.8.4-1 .7-3 .9-4.8 1.8 1.6 3.9 2.7 4.1 2.7.6.3 1.4.1 1.8-.5.4-.6.8-2.1 1.2-3.4 2.2 2.5 5.1 4.2 5.3 4.3.3.2.8.2 1.1.1.4-.1.7-.4.8-.8.4-1.1.5-2.8.6-4.4 2.6 3.1 5.6 5.2 7.7 6.3v.1c0 .2.3 4.8 1.1 8.4-2.3-.8-5.9-2.6-9.3-5.7-.3-.3-.8-.4-1.2-.3-.4.1-.8.4-1 .8l-1 2.6-4.4-3.2c-.4-.3-.9-.3-1.3-.1-.4.2-.7.6-.8 1.1l-.4 3c-.9-.7-2.1-1.6-2.9-2.5-.5-.6-1.4-.6-1.9-.1-.6.5-.6 1.4-.1 1.9 1.9 2.2 5.1 4.1 5.3 4.2.4.2.9.3 1.3.1.4-.2.7-.6.8-1l.4-2.9 3.9 2.8c.3.2.8.3 1.2.2.4-.1.7-.4.9-.8l1-2.4c2.5 2.1 5 3.4 7 4.3 0 .8.1 4.4 1.7 7.3-2.5-.1-6.4-.5-10-2.3-.6-.3-1.4-.1-1.7.5l-2 3-8.1-5.4c-.3-.2-.8-.3-1.2-.2-.4.1-.7.4-.9.8l-1.2 3.4c-1.5-1.7-3.6-4-4.4-4.7-.6-.4-1.4-.4-1.8.1 0 0-1.9 2.1-4.2 3.6l-1.6-4.2c-.3-.7-1-1.1-1.7-.8-.7.3-1.1 1-.8 1.7l2.1 5.8c.1.4.4.7.8.8.4.1.8.1 1.1-.1 2.1-1.2 4.1-2.9 5.2-4 1.3 1.3 3.4 3.7 4.7 5.2.3.4.8.5 1.3.4.5-.1.9-.4 1-.9l1.4-3.9 7.8 5.2c.2.1.5.2.8.2h.3c.4-.1.7-.3.9-.6l2.1-3.2c3.5 1.5 6.9 1.9 9.4 2.1 0 .3.1.6.3.9.3.4 1 1.2 1.8 2l-3.4.1c-.4 0-.7.2-1 .5-.3.3-.4.7-.3 1l.5 5.3c-1.9-.4-4.8-1.2-6.8-2.5-.4-.3-1-.3-1.5 0l-5.9 3.7-3-8.2c-.2-.5-.7-.9-1.2-.9-.6 0-1 .3-1.3.7l-3.3 6.6-2.3-3.7c-.2-.4-.7-.6-1.1-.6-.5 0-.9.2-1.1.6 0 0-1.9 2.7-4.1 4.7l-1.5-4.9c-.2-.5-.6-.9-1.1-.9-.5-.1-1 .1-1.3.6 0 0-1.7 2.5-3.8 4.7l-.4-6c0-.5-.3-.9-.7-1.1-.4-.2-.9-.2-1.3 0-.6.3-1.7.9-2.8 1.4 1.6-3.3 3.4-7.9 2.4-10.3-.3-.7-.9-1.2-1.6-1.5l-.1-.1c-.1 0-.1 0-.2-.1l-.1-.1h-.1-.1c-1.8-.4-3.1.1-3.8.7-.7.5-1.2 1.3-1.5 1.9-.8-.8-1.9-2-2.5-3.6-.2-.5-.7-.8-1.2-.8-1.1-.2-1.6.2-1.8.7zm-10.3-15.1c7.3 3.5 16.3 3.9 18.8 4 1.2 1.5 2.3 2.9 3.2 4-2.2 0-4.5.3-6.4.5l.3-.4c.3-.4.4-.9.2-1.4-.2-.5-.7-.8-1.2-.8-9.2-.5-19.3-3.7-19.4-3.8-1.5-.5-2.4-1.2-2.5-2.2-.1-.7.3-1.4.6-1.5 1.5-.8 4.6.7 6.4 1.6zm12.8.7c.3-.2.5-.5.6-.9l.4-2.5c.8 1.2 1.8 2.5 2.8 3.8-1.1-.1-2.4-.2-3.8-.4zm-2.4-.4c-.7-.1-1.3-.3-2-.4.1-.3 0-.6-.1-.9 0-.1-.1-.2-.1-.2.8.7 1.6 1.2 2.2 1.5zm17.8-14.7c-.6.6-1.7 1.1-2.7.4-.8-.5-.9-1.4-.8-2.1.1-.5.4-1.2 1-1.4.1 0 .2-.1.4-.1.6 0 1.6.3 2.6.8.7 1.2-.3 2.2-.5 2.4zm51.5 20.2c.4.2.9.3 1.3.1.4-.2.7-.6.8-1.1.2-1.7.6-2.7 1.2-3.1 1.1-.6 3.7.3 6.7 1.5 2.3.9 5.2 2 8.4 2.8 8.5 2.1 18.5.3 27.4-1.3 3-.5 5.9-1 8.5-1.4 5.6-.7 11.3 1.6 12.7 5.2 1.1 2.7-.6 5.8-4.7 8.8-11.3 8.2-65.5 4.6-71 4.2-1.5-1.4-2-4.3-2.2-6.1.9.3 1.5.4 1.6.4h.3c.4 0 .8-.2 1-.5.3-.4.4-.9.2-1.4-.8-2.3-1.3-6.6-1.5-8.7.4.1.7.1 1.1-.1.4-.2.6-.6.6-1 1.6-13.6-1.2-20.7-2.7-23.3.4-.3.7-.6 1-.9.1 6.4 3.8 11.6 5.3 13.4-2.6 6.2 1.4 10.9 4 12.5z"/><path class="st3" d="M222.4 155.2c-.5-10.9-3.1-28.5-11.4-28.9-4.7-.2-7 2.7-7.1 2.8-.3.4-.7.6-1.2.5l-3.2-.2.6 2.1c.1.5 0 1-.4 1.4-.2.2-4.7 4-1.9 9 2.1 3.8 8.8 5.6 13.7 6.9 2.2.6 4.1 1.1 5.3 1.7 2.1 1 4 2.8 5.6 4.7z"/><path d="M211.1 123.6c-4.8-.2-7.7 2.1-8.8 3.3l-4.4-.3c-.4 0-.9.2-1.1.5-.3.3-.4.8-.3 1.2l.8 3.1c-2.1 2.2-4.7 6.8-1.9 11.8 2.6 4.8 10 6.7 15.3 8.2 2 .5 3.8 1 4.8 1.5 3.2 1.6 5.7 5.1 7 7.9.2.5.7.8 1.2.8h.3c.6-.1 1.1-.7 1.1-1.3.1-1.6.3-36-14-36.7zm.3 25.1c-4.9-1.3-11.6-3.1-13.7-6.9-2.7-4.9 1.8-8.8 1.9-9 .4-.3.6-.9.4-1.4l-.6-2.1 3.2.2c.4 0 .9-.2 1.2-.5.1-.1 2.4-3 7.1-2.8 8.3.4 10.9 18 11.4 28.9-1.5-1.9-3.4-3.7-5.6-4.8-1.2-.5-3.1-1-5.3-1.6z"/><path class="st3" d="M448.5 155.2c.5-10.9 3.1-28.5 11.4-28.9 4.7-.2 7 2.7 7.1 2.8.3.4.7.6 1.2.5l3.2-.2-.6 2.1c-.1.5 0 1 .4 1.4.2.2 4.7 4 1.9 9-2.1 3.8-8.8 5.6-13.7 6.9-2.2.6-4.1 1.1-5.3 1.7-2.1 1-4 2.8-5.6 4.7z"/><path d="M445.7 160.1c0 .6.4 1.2 1.1 1.3h.3c.5 0 1-.3 1.2-.8 1.3-2.8 3.9-6.3 7-7.9 1-.5 2.8-1 4.8-1.5 5.4-1.4 12.7-3.4 15.3-8.2 2.8-5 .2-9.6-1.9-11.8l.8-3.1c.1-.4 0-.9-.3-1.2-.3-.3-.7-.5-1.1-.5l-4.4.3c-1.1-1.1-4.1-3.5-8.8-3.3-14.2.9-14 35.3-14 36.7zm8.5-9.7c-2.2 1.1-4.1 2.9-5.6 4.8.5-10.9 3.1-28.5 11.4-28.9 4.7-.2 7 2.7 7.1 2.8.3.4.7.6 1.2.5l3.2-.2-.6 2.1c-.1.5 0 1 .4 1.4.2.2 4.7 4 1.9 9-2.1 3.8-8.8 5.6-13.7 6.9-2.2.5-4.1 1-5.3 1.6z"/><path class="st3" d="M448.5 356.8c.5 10.9 3.1 28.5 11.4 28.9 4.7.2 7-2.7 7.1-2.8.3-.4.7-.6 1.2-.5l3.2.2-.6-2.1c-.1-.5 0-1 .4-1.4.2-.2 4.7-4 1.9-9-2.1-3.8-8.8-5.5-13.7-6.9-2.2-.6-4.1-1.1-5.3-1.7-2.1-1-4-2.8-5.6-4.7z"/><path d="M459.8 388.4c4.8.2 7.7-2.1 8.8-3.3l4.4.3c.4 0 .9-.2 1.1-.5.3-.3.4-.8.3-1.2l-.8-3.1c2.1-2.2 4.7-6.8 1.9-11.8-2.6-4.8-10-6.7-15.3-8.2-2-.5-3.8-1-4.8-1.5-3.2-1.5-5.7-5.1-7-7.9-.2-.5-.7-.8-1.2-.8h-.3c-.6.1-1.1.7-1.1 1.3-.1 1.6-.3 36 14 36.7zm-.3-25.1c4.9 1.3 11.6 3.1 13.7 6.9 2.7 4.9-1.8 8.8-1.9 9-.4.3-.6.9-.4 1.4l.6 2.1-3.2-.2c-.4 0-.9.2-1.2.5-.1.1-2.4 3-7.1 2.8-8.3-.4-10.9-18-11.4-28.9 1.5 1.9 3.4 3.7 5.6 4.8 1.2.5 3.1 1 5.3 1.6z"/><path class="st3" d="M222.4 356.8c-.5 10.9-3.1 28.5-11.4 28.9-4.7.2-7-2.7-7.1-2.8-.3-.4-.7-.6-1.2-.5l-3.2.2.6-2.1c.1-.5 0-1-.4-1.4-.2-.2-4.7-4-1.9-9 2.1-3.8 8.8-5.5 13.7-6.9 2.2-.6 4.1-1.1 5.3-1.7 2.1-1 4-2.8 5.6-4.7z"/><path d="M225.2 351.9c0-.6-.4-1.2-1.1-1.3h-.3c-.5 0-1 .3-1.2.8-1.3 2.8-3.9 6.3-7 7.9-1 .5-2.8 1-4.8 1.5-5.4 1.4-12.7 3.4-15.3 8.2-2.8 5-.2 9.6 1.9 11.8l-.8 3.1c-.1.4 0 .9.3 1.2.3.3.7.5 1.1.5l4.4-.3c1.1 1.1 4.1 3.5 8.8 3.3 14.2-.9 14-35.3 14-36.7zm-8.5 9.7c2.2-1.1 4.1-2.9 5.6-4.8-.5 10.9-3.1 28.5-11.4 28.9-4.7.2-7-2.7-7.1-2.8-.3-.4-.7-.6-1.2-.5l-3.2.2.6-2.1c.1-.5 0-1-.4-1.4-.2-.2-4.7-4-1.9-9 2.1-3.8 8.8-5.5 13.7-6.9 2.2-.5 4.1-1 5.3-1.6z"/></g></svg>