<svg version="1.1" id="Layer_1" xmlns="http://www.w3.org/2000/svg" x="0" y="0" viewBox="0 0 512 512" xml:space="preserve"><style>.st0{fill:#fff}.st1{fill:#bf0a30}</style><path class="st0" d="M0 118.8h512v30.5H0zM0 179.7h512v30.5H0zM0 240.7h512v30.5H0zM0 301.6h512v30.5H0zM0 362.6h512v30.5H0z"/><path class="st1" d="M0 88.3h512v30.5H0zM0 149.2h512v30.5H0zM0 210.2h512v30.5H0z"/><path fill="#002868" d="M0 88.3v152.4h150.1V88.3z"/><path class="st1" d="M0 271.2h512v30.5H0zM0 332.1h512v30.5H0zM0 393.1h512v30.5H0z"/><path class="st0" d="M72.5 127.7L64.1 153l-26.6.2c-2.6 0-3.6 3.3-1.6 4.8l21.4 15.8-8 25.4c-.8 2.4 2 4.4 4.1 3L75 186.7l21.7 15.5c2.1 1.5 4.9-.5 4.1-3l-8-25.4 21.4-15.8c2.1-1.5 1-4.8-1.6-4.8L86 153l-8.4-25.3c-.9-2.4-4.3-2.4-5.1 0z"/></svg>