<?xml version="1.0" encoding="utf-8"?>
<!-- Generator: Adobe Illustrator 25.0.0, SVG Export Plug-In . SVG Version: 6.00 Build 0)  -->
<svg version="1.1" id="Layer_1" xmlns="http://www.w3.org/2000/svg" xmlns:xlink="http://www.w3.org/1999/xlink" x="0px" y="0px"
	 viewBox="0 0 512 512" style="enable-background:new 0 0 512 512;" xml:space="preserve">
<style type="text/css">
	.st0{fill:#FFFFFF;}
	.st1{fill:#BF0A30;}
	.st2{fill:#002868;}
</style>
<rect y="118.8" class="st0" width="512" height="30.5"/>
<rect y="179.7" class="st0" width="512" height="30.5"/>
<rect y="240.7" class="st0" width="512" height="30.5"/>
<rect y="301.6" class="st0" width="512" height="30.5"/>
<rect y="362.6" class="st0" width="512" height="30.5"/>
<rect y="88.3" class="st1" width="512" height="30.5"/>
<rect y="149.2" class="st1" width="512" height="30.5"/>
<rect y="210.2" class="st1" width="512" height="30.5"/>
<polygon class="st2" points="0,88.3 0,112.5 0,118.8 0,240.7 150.1,240.7 150.1,118.8 150.1,112.5 150.1,88.3 "/>
<rect y="271.2" class="st1" width="512" height="30.5"/>
<rect y="332.1" class="st1" width="512" height="30.5"/>
<rect y="393.1" class="st1" width="512" height="30.5"/>
<path class="st0" d="M72.5,127.7L64.1,153l-26.6,0.2c-2.6,0-3.6,3.3-1.6,4.8l21.4,15.8l-8,25.4c-0.8,2.4,2,4.4,4.1,3L75,186.7
	l21.7,15.5c2.1,1.5,4.9-0.5,4.1-3l-8-25.4l21.4-15.8c2.1-1.5,1-4.8-1.6-4.8L86,153l-8.4-25.3C76.7,125.3,73.3,125.3,72.5,127.7z"/>
</svg>
