<svg xmlns="http://www.w3.org/2000/svg" viewBox="0 0 512 512"><path fill="#00209f" d="M0 88.3h512v112H0z"/><path fill="#fff" d="M0 200h512v112H0z"/><path fill="#009543" d="M0 311.7h512v112H0z"/><path d="M286.5 275.9l-2.1 1c-.3.1-.6.3-.9.4l-18.1-22.9c3.7-8.1 5.9-19.2 5.9-24.2 0-8.3-5.4-15.1-12.5-16.6-.5-1.1-1.6-1.8-2.8-1.8s-2.3.8-2.8 1.8c-7.1 1.5-12.5 8.3-12.5 16.6 0 5 2.2 16.1 5.9 24.2l-18.1 22.9c-.3-.1-.6-.3-.9-.4l-2.1-1-7.7 15.1 2.1 1c10.5 5.3 22.9 8.1 36.1 8.1 13.1 0 25.6-2.8 36.1-8.1l2.1-1-7.7-15.1zm-18.2-45.6c0 3.7-1.4 11.6-4 18.8-.3.9-.7 1.8-1 2.7l-2.7-3.4v-12h4.6l-6.1-6.1v-13.4c5.3 1.6 9.2 7 9.2 13.4zm-20.6 18.8c-2.6-7.2-4-15-4-18.8 0-6.4 3.9-11.8 9.2-13.4v13.4l-6.1 6.1h4.6v12l-2.7 3.4c-.3-.9-.7-1.8-1-2.7zM227 283.2l.6 2.6-2.3.6 1.7-3.2zm-2.6 5.8l3.9-1 .7 2.9c-1.6-.6-3.2-1.2-4.6-1.9zm5.8-5.8c1.8.7 3.6 1.3 5.4 1.8l.6 1.7-4.8 1.2-1.2-4.7zm2.2 8.9l-.5-1.9 5-1.2 1.6 4.8c-2.1-.6-4.1-1.1-6.1-1.7zm6.8-6.2c1.9.4 3.9.8 5.9 1.1l.8 1.5-5.3 1.7-1.4-4.3zm2.7 8.4l-.6-1.9 5.8-1.8 2.6 4.7c-2.7-.2-5.2-.5-7.8-1zm6.9-6.8c2.4.2 4.8.3 7.2.3h1.5l.6 1-7.1 2.7-2.2-4zm7.2 8c-.9 0-1.8 0-2.7-.1l-1.1-1.9 7.2-2.8 2.9 4.5c-2 .2-4.1.3-6.3.3zm5.1-7.8c2.4-.2 4.8-.4 7.2-.8l.7.9-5.6 3.4-2.3-3.5zm4.8 7.2l-1.2-1.9 5.8-3.5 3.2 4.1c-2.6.6-5.2 1-7.8 1.3zm5.8-8.7c2-.4 4-.9 5.9-1.5l.7.9-4.1 3.8-2.5-3.2zm5.2 6.7l-1.3-1.6 4.1-3.8 2.8 3.7c-1.8.5-3.7 1.1-5.6 1.7zm3.8-9.3c1.3-.5 2.6-1 3.8-1.5l.6 1.2-2 3.5-2.4-3.2zm4.8 6.3l-.9-1.2 1.7-3 1.6 3.2c-.8.4-1.6.7-2.4 1z"/></svg>