<?xml version="1.0" encoding="utf-8"?>
<!-- Generator: Adobe Illustrator 25.0.0, SVG Export Plug-In . SVG Version: 6.00 Build 0)  -->
<svg version="1.1" id="Layer_1" xmlns="http://www.w3.org/2000/svg" xmlns:xlink="http://www.w3.org/1999/xlink" x="0px" y="0px"
	 viewBox="0 0 512 512" style="enable-background:new 0 0 512 512;" xml:space="preserve">
<style type="text/css">
	.st0{fill:#E70013;}
	.st1{fill:#239E46;}
	.st2{fill:#FFFFFF;}
</style>
<rect y="88.3" class="st0" width="512" height="88.3"/>
<rect y="335.5" class="st1" width="512" height="88.3"/>
<rect y="176.5" width="512" height="158.9"/>
<g>
	<path class="st2" d="M306.1,227.4l13.3,17.4l20.7-6.9c1.2-0.4,2.1,0.9,1.5,1.9l-12.4,18l13,17.6c0.7,1-0.2,2.3-1.4,2l-21-6.3
		l-12.7,17.8c-0.7,1-2.3,0.5-2.3-0.7l-0.5-21.9l-20.9-6.6c-1.2-0.4-1.2-2,0-2.4l20.6-7.3l-0.2-21.9
		C303.8,227,305.3,226.5,306.1,227.4z"/>
	<path class="st2" d="M270,298.9c-23.7,0-42.9-19.2-42.9-42.9c0-23.6,19.2-42.9,42.9-42.9c8.8,0,16.9,2.7,23.7,7.3
		c1,0.7,2.2-0.7,1.4-1.6c-10.1-10.5-24.4-16.9-40.3-16.4c-27.3,0.9-49.9,22.8-51.6,50c-2,31.2,22.7,57.1,53.5,57.1
		c15.1,0,28.8-6.3,38.5-16.5c0.9-0.9-0.3-2.2-1.4-1.5C287,296.2,278.8,298.9,270,298.9z"/>
</g>
</svg>
