<svg version="1.1" id="Layer_1" xmlns="http://www.w3.org/2000/svg" x="0" y="0" viewBox="0 0 512 512" xml:space="preserve"><style>.st2{fill:#fff}</style><path fill="#e70013" d="M0 88.3h512v88.3H0z"/><path fill="#239e46" d="M0 335.5h512v88.3H0z"/><path d="M0 176.5h512v158.9H0z"/><path class="st2" d="M306.1 227.4l13.3 17.4 20.7-6.9c1.2-.4 2.1.9 1.5 1.9l-12.4 18 13 17.6c.7 1-.2 2.3-1.4 2l-21-6.3-12.7 17.8c-.7 1-2.3.5-2.3-.7l-.5-21.9-20.9-6.6c-1.2-.4-1.2-2 0-2.4L304 250l-.2-21.9c0-1.1 1.5-1.6 2.3-.7z"/><path class="st2" d="M270 298.9c-23.7 0-42.9-19.2-42.9-42.9 0-23.6 19.2-42.9 42.9-42.9 8.8 0 16.9 2.7 23.7 7.3 1 .7 2.2-.7 1.4-1.6-10.1-10.5-24.4-16.9-40.3-16.4-27.3.9-49.9 22.8-51.6 50-2 31.2 22.7 57.1 53.5 57.1 15.1 0 28.8-6.3 38.5-16.5.9-.9-.3-2.2-1.4-1.5-6.8 4.7-15 7.4-23.8 7.4z"/></svg>