<svg version="1.1" id="Layer_1" xmlns="http://www.w3.org/2000/svg" x="0" y="0" viewBox="0 0 512 512" xml:space="preserve"><style>.st0{fill:#0046ae}.st1{fill:#ffd200}.st2{fill:#cc092f}.st3{fill:#ffcd5a}.st4{fill:#ffbe5a}.st5{fill:#b07f55}.st6{fill:#097754}</style><path class="st0" d="M0 88.3h170.7v336H0z"/><path class="st1" d="M170.7 88.3h170.7v336H170.7z"/><path class="st2" d="M341.3 88.3H512v336H341.3z"/><g id="crest"><path transform="rotate(-39.192 279.483 302.446)" class="st3" d="M276.6 286.6h5.7v31.7h-5.7z"/><path transform="rotate(-39.168 273.857 295.57)" class="st4" d="M268.2 288.6h11.3v13.9h-11.3z"/><path transform="rotate(-50.808 234.994 302.448)" class="st3" d="M219.2 299.6h31.7v5.7h-31.7z"/><path transform="rotate(-50.832 240.583 295.572)" class="st4" d="M233.6 289.9h13.9v11.3h-13.9z"/><path class="st1" d="M250.1 297.6L236 325.9l19.8 14.2v-39.7z"/><path class="st3" d="M261.5 297.6l14.1 28.3-19.8 14.2v-39.7z"/><path class="st4" d="M216.1 297.6V224h8.5v56.7c0 8.4-8.5 16.9-8.5 16.9z"/><path class="st3" d="M210.5 311.7v-87.8h8.5v70.8c0 8.5-8.5 17-8.5 17z"/><path class="st1" d="M204.8 323.1V224h8.5v82.1c0 8.5-8.5 17-8.5 17z"/><path class="st2" d="M224.6 226.8v53.8c0 14.2 20.5 12.3 31.2 22.7 10.6-10.4 31.2-8.5 31.2-22.7v-53.8h-62.4z"/><path class="st0" d="M224.6 257.9v22.7c0 14.2 20.5 12.3 31.2 22.7 10.6-10.4 31.2-8.5 31.2-22.7v-22.7h-62.4z"/><path class="st1" d="M255.8 294.8l-8.5-5.7v-2.8l2.8-2.9v-17l-8.5-5.6 8.5-11.4h2.9l2.8 2.9 2.8-2.9h2.9l8.5 11.4-8.5 5.6v17l2.8 2.9v2.8z"/><path class="st1" d="M244.5 229.6s-11.3 2.8-11.3 14.2c0 11.3 11.3 17 11.3 17l5.7-8.5c-17.1-5.7-5.7-22.7-5.7-22.7zM267.1 229.6s11.3 2.8 11.3 14.2c0 11.3-11.3 17-11.3 17l-5.7-8.5c17.1-5.7 5.7-22.7 5.7-22.7zM227.5 257.9l5.6 2.9 5.7-2.9-5.7-2.8zM272.8 257.9l5.7 2.9 5.6-2.9-5.6-2.8zM255.8 231l2.1 2.1h2.9v2.9l2.1 2.1-2.1 2.1v2.9h-2.9l-2.1 2.1-2.1-2.1h-2.9v-2.9l-2.1-2.1 2.1-2.1v-2.9h2.9zM236.6 270.3l2 2.3 2.8-1.1c1.5-.6 2.9 1 2.1 2.4l-1.5 2.6 1.9 2.4c1 1.2-.1 3-1.6 2.7l-3-.6-1.6 2.6c-.8 1.3-2.9.9-3.1-.7l-.3-3-3-.8c-1.5-.4-1.7-2.5-.3-3.1l2.8-1.2-.2-3c0-1.9 1.9-2.7 3-1.5zM274.3 276.8c.6-3.2 3.3-5.5 6.4-5.8-.6-.3-1.3-.6-2.1-.8-4-.8-7.8 1.8-8.6 5.8-.8 4 1.8 7.8 5.8 8.6.7.1 1.5.1 2.2.1-2.7-1.6-4.3-4.7-3.7-7.9zM244.5 226.8l5.7-28.3-11.3-8.5 2.8-2.8h5.7s2.8-2.8 8.5-2.8 11.3 2.8 11.3 11.3 2.8 31.2 2.8 31.2l-25.5-.1z"/><path class="st5" d="M224.6 215.4c-6.3 0-11.3 5.1-11.3 11.3H236c0-6.2-5.1-11.3-11.4-11.3z"/><path class="st4" d="M221.8 226.8h-17v-18.9c0-3.7 3-6.6 6.6-6.6h3.7c3.7 0 6.6 3 6.6 6.6l.1 18.9zM295.5 297.6V224H287v56.7c0 8.4 8.5 16.9 8.5 16.9z"/><path class="st3" d="M301.1 311.7v-87.8h-8.5v70.8c0 8.5 8.5 17 8.5 17z"/><path class="st1" d="M306.8 323.1V224h-8.5v82.1c0 8.5 8.5 17 8.5 17z"/><path class="st5" d="M287 215.4c6.3 0 11.3 5.1 11.3 11.3h-22.7c0-6.2 5.1-11.3 11.4-11.3z"/><path class="st4" d="M289.8 226.8h17v-18.9c0-3.7-3-6.6-6.6-6.6h-3.7c-3.7 0-6.6 3-6.6 6.6l-.1 18.9z"/><path transform="rotate(-58.661 300.95 290.5)" class="st5" d="M262.8 288.4h76.3v4.2h-76.3z"/><path transform="rotate(-51.362 288.08 313.234)" class="st1" d="M282.4 308.8h11.3v8.9h-11.3z"/><path transform="rotate(-58.674 316.491 264.915)" class="st3" d="M308.3 261.4h16.3v7.1h-16.3z"/><g><path transform="rotate(-32.881 213.057 291.746)" class="st6" d="M211.6 254.9h2.8v73.7h-2.8z"/><path class="st6" d="M219.4 289.4c-1 1.2-1.7 2.9-1.9 4.9-1.4-1.4-3-2.3-4.5-2.5-.4 1.5-.2 3.3.5 5.1-1.9-.7-3.8-.8-5.2-.3.4 2.1 2.1 4.4 4.7 5.9 2.6 1.6 5.4 2 7.4 1.3l.6-.4c1.4-1.6 2.2-4.3 1.8-7.3-.3-3-1.7-5.5-3.4-6.7z"/></g><circle class="st2" cx="220.8" cy="303.6" r="2.8"/><path class="st6" d="M208.6 272.7c-1 1.2-1.7 2.9-1.9 4.9-1.4-1.4-3-2.3-4.5-2.5-.4 1.5-.2 3.3.5 5.1-1.9-.7-3.8-.8-5.2-.3.4 2.1 2.1 4.4 4.7 5.9 2.6 1.6 5.4 2 7.4 1.3l.6-.4c1.4-1.6 2.2-4.3 1.8-7.3-.2-3-1.6-5.4-3.4-6.7z"/><circle class="st2" cx="210" cy="287" r="2.8"/><path class="st6" d="M197.9 256.1c-1 1.2-1.7 2.9-1.9 4.9-1.4-1.4-3-2.3-4.5-2.5-.4 1.5-.2 3.3.5 5.1-1.9-.7-3.8-.8-5.2-.3.4 2.1 2.1 4.4 4.7 5.9 2.6 1.6 5.4 2 7.4 1.3l.6-.4c1.4-1.6 2.2-4.3 1.8-7.3-.3-3-1.7-5.5-3.4-6.7z"/><circle class="st2" cx="199.2" cy="270.3" r="2.8"/><g><path transform="rotate(-38.639 226.369 313.246)" class="st1" d="M221.9 307.6h8.9v11.3h-8.9z"/><path class="st1" d="M238.8 178.6h2.8v19.8h-2.8z"/><path class="st1" d="M236 181.4h8.5v2.8H236z"/></g><path fill="#ff875a" d="M238.8 189.9l8.5 6.4v-9.2h-5.7z"/><path class="st5" d="M241.6 178.6v2.8h2.8v2.8h-2.8v2.8h5.7s2.8-2.8 8.5-2.8 11.3 2.8 11.3 11.3 2.8 31.2 2.8 31.2h5.7c0-6.3 5.1-11.3 11.3-11.3 1 0 1.9.2 2.8.4v-6.1c0-4.7 3.8-8.5 8.5-8.5s8.5 3.8 8.5 8.5v67l3.7-6-1.2-.7 8.5-14 1.2.7 1.8 1.1 3 1.8-8.5 14-1.2-.7-7.3 12V323s-6.8-6.8-8.2-14.3c-1-1.3-2.2-3-3.3-5L292 309l3 2.4-7.1 8.9-1.9-1.5-3.2 5.3-3.6-2.2 3.5-5.7-1.7-1.4 2.4-3-7.4-9.1-2.2 1.8-6.6-8.1c-1.8.7-3.5 1.5-5.2 2.4l13.5 27.1-19.8 14.2-19.7-14.2 13.5-27.1c-1-.5-2-1-3.1-1.5l-5.9 7.2-2.2-1.8-7.4 9.1 2.4 3-2.4 1.9 3.3 5.1-2.4 1.5-3.1-4.8-2.3 1.8-7.1-8.9 3.2-2.5-1.7-2.6h-.1c-.9 0-1.8-.4-2.4-1.2-.2-.4-.4-.7-.4-1.1-.5 0-1.1-.1-1.6-.2-1.1 1.9-2.3 3.6-3.3 5-1.4 7.5-8.2 14.3-8.2 14.3V287c-.9-.3-1.7-.6-2.6-1.1-2.6-1.6-4.3-3.8-4.7-5.9.6-.2 1.3-.3 2-.3 1 0 2.1.2 3.3.6-.4-1-.6-1.9-.7-2.8l-2.8-4.3h-.1c-.9 0-1.8-.4-2.4-1.2-.2-.4-.4-.7-.4-1.1-1.6-.1-3.3-.6-4.9-1.6-2.6-1.6-4.3-3.8-4.7-5.9.6-.2 1.3-.3 2-.3 1 0 2.1.2 3.3.6-.7-1.9-.9-3.7-.5-5.1 1.5.2 3.1 1.1 4.5 2.5.2-2 .8-3.8 1.9-4.9 1.7 1.2 3.1 3.7 3.4 6.7.2 1.9 0 3.7-.6 5.1.3.2.6.5.9.8.6.9.5 1.9.1 2.8l2.8 4.3c.1.1.2.1.3.2v-66.3c0-4.7 3.8-8.5 8.5-8.5s8.5 3.8 8.5 8.5v6.1c.9-.2 1.8-.4 2.8-.4 6.3 0 11.3 5.1 11.3 11.3h8.5l5.7-28.3-2.8-2.1-5.7-4.2v6.4h-2.8v-14.2H236v-2.8h2.8v-2.8l2.8-.2m45.5 128.8l1-1.3.6.4 4.6-7.5c-.4-1.4-.7-2.8-.7-4.2v-.5c-2.5-3.3-5.7-8.5-5.7-13.7 0 6-3.7 9.1-8.7 11.5l4.4 5.4-2.2 1.8 6.7 8.1m-62.3-.1l1.5-1.2 1 1.3 6.7-8.2-2.2-1.8 3.6-4.4c-6.1-2.5-10.8-5.6-10.8-12.4 0 3.8-1.7 7.6-3.6 10.6.9 1.3 1.6 3 1.8 4.9.2 1.9 0 3.7-.6 5.1.3.2.6.5.9.8.6.9.5 1.9.1 2.8l1.6 2.5m16.8-130.8h-2.8c-1.2 0-2.1 1-2.1 2.1v.7h-.7c-1.2 0-2.1 1-2.1 2.1v2.8c0 1.2 1 2.1 2.1 2.1h.7v12c0 1.2 1 2.1 2.1 2.1h2.8c1.2 0 2.1-1 2.1-2.1v-2.1l2.3 1.7 1.8 1.3-5.1 25.3h-4.8c-1-6.4-6.6-11.3-13.3-11.3h-.7v-3.6c0-5.9-4.8-10.6-10.6-10.6s-10.6 4.8-10.6 10.6v49.6c-.8-2.1-2-3.9-3.6-5-.4-.3-.8-.4-1.2-.4-.6 0-1.2.2-1.6.7-.7.7-1.2 1.6-1.6 2.7-.9-.5-1.9-.8-2.8-1h-.3c-.9 0-1.8.6-2 1.6-.2.9-.3 1.9-.3 3h-.5c-.9 0-1.8.1-2.6.4-1 .3-1.7 1.4-1.5 2.4.6 2.8 2.7 5.5 5.7 7.3 1.4.8 2.9 1.4 4.5 1.7.1.1.1.2.2.3.7 1.1 1.8 1.8 3 2.1l1.5 2.4h-.2c-.9 0-1.8.1-2.6.4-1 .3-1.7 1.4-1.5 2.4.6 2.8 2.7 5.5 5.7 7.3.5.3 1 .5 1.5.8v34.6c0 .9.5 1.6 1.3 2 .3.1.5.2.8.2.6 0 1.1-.2 1.5-.6.3-.3 7-7 8.7-14.9.7-.9 1.4-1.9 2-2.8.7.8 1.6 1.3 2.6 1.6l.1.1-1.7 1.3c-.4.4-.7.9-.8 1.4-.1.6.1 1.1.5 1.6l7.1 8.9c.4.4.9.7 1.4.8h.2c.5 0 .9-.2 1.3-.5l.5-.4 1.9 2.9c.3.5.8.8 1.3.9h.4c.4 0 .8-.1 1.2-.3l1.4-.9-.3.6c-.5.9-.2 2.1.7 2.7l19.8 14.2c.4.3.8.4 1.2.4s.9-.1 1.2-.4l19.8-14.2c.9-.6 1.1-1.7.7-2.7l-12.6-25.2c.5-.3 1.1-.5 1.7-.8l5.6 6.9c.4.5 1 .8 1.6.8.5 0 .9-.2 1.3-.5l.6-.4 5 6.1-1.3 1.7c-.4.4-.5 1-.5 1.6.1.6.3 1.1.8 1.4l.2.2-2.5 4.1c-.6 1-.3 2.3.7 2.9l3.6 2.2c.3.2.7.3 1.1.3.2 0 .3 0 .5-.1.5-.1 1-.5 1.3-1l1.9-3.2c.4.3.9.5 1.3.5.6 0 1.2-.3 1.7-.8l7.1-8.9c.3-.3.4-.7.5-1.1 2.3 6.9 7.8 12.5 8.1 12.8.4.4 1 .6 1.5.6.3 0 .5-.1.8-.2.8-.3 1.3-1.1 1.3-2v-37.5l5.9-9.8h.4c.7 0 1.4-.4 1.8-1l8.5-14c.3-.5.4-1.1.2-1.6-.1-.5-.5-1-1-1.3l-3-1.8-1.8-1.1-1.2-.7c-.3-.2-.7-.3-1.1-.3-.7 0-1.4.4-1.8 1l-7 11.5v-56.7c0-5.9-4.8-10.6-10.6-10.6s-10.6 4.8-10.6 10.6v3.6h-.7c-6.7 0-12.3 4.9-13.3 11.3h-1.8c-.7-5.6-2.6-22.2-2.6-29 0-9.9-7-13.5-13.5-13.5-4.8 0-7.9 1.8-9.3 2.8h-.1c.1-.2.1-.5.1-.7v-2.8c0-1.2-1-2.1-2.1-2.1h-.7v-.7c.5-.9-.5-1.8-1.7-1.8zm-18 114.7c.5-1 1-1.9 1.4-2.8 1.8 2.4 4.3 4.1 7 5.4l-1.9 2.3c-.4.4-.5 1-.5 1.6s.3 1.1.8 1.4l.5.4-3.8 4.6c-.2-.1-.5-.2-.7-.2h-.2c-.2 0-.4 0-.6.1.1-1.1-.2-2.1-.8-3.1-.1-.1-.1-.2-.2-.3.4-1.5.5-3.1.3-4.8-.1-1.6-.6-3.2-1.3-4.6zm58 1.5c1.9-1.1 3.7-2.5 5.1-4.3 1.1 2.5 2.5 4.7 3.9 6.6 0 1.2.2 2.4.5 3.7l-3.2 5.3c-.2 0-.4.1-.5.2l-3.8-4.6.5-.4c.4-.4.7-.9.8-1.4s-.1-1.1-.5-1.6l-2.8-3.5zm-41 14c.6 0 1.2-.3 1.6-.8l3.6-4.4-9.7 19.4-.1-.1-2.2-3.5.9-.7c.4-.4.7-.9.8-1.4.1-.6-.1-1.1-.5-1.6l-1.3-1.7 5-6.1.6.4c.3.3.8.5 1.3.5zm54.3 2l.5-.8c.4.6.8 1.2 1.3 1.8 0 .2.1.4.1.5l-.3-.3-1.6-1.2z"/></g></svg>