<svg version="1.1" id="Layer_1" xmlns="http://www.w3.org/2000/svg" x="0" y="0" viewBox="0 0 512 512" xml:space="preserve"><style>.st1{fill:#d3ae3b}.st2{fill:#1d5e91}</style><path fill="#c40308" d="M17.7 105.9h476.7V406H17.7z"/><path class="st1" d="M0 88.3v336h512v-336H0zm494.3 317.8H17.7V105.9h476.7v300.2z"/><g id="crest"><circle class="st2" cx="328.4" cy="311.4" r="13.4"/><path class="st1" d="M352 234.2c-9.9 8.3-16.5 8.7-16.5 8.7 17.6-7.2 15.7-20.8 15.7-20.8-8.3 10.9-16.8 14-16.8 14 17.7-12 14.9-28.1 14.9-28.1-5.8 12.8-13.1 17.8-13.1 17.8 14.7-19.6 7.5-32.2 7.5-32.2-5.8 18.1-10.6 23.4-10.6 23.4 11.3-30.2 1.6-38.9 1.6-38.9 0 16.2-6 25.5-6 25.5 6.3-21.3-3.6-33.6-3.6-33.6s-.1 17.4-3.4 26.5c-.8-1.2-1.3-1.1-1.3-1.1-1.7 11.2-7.7 19-10.3 22-.6-2.8-2.3-3.6-2.3-3.6s-.3 2.7-2.8 6.8c-1.6 2.6-9.2 8.8-10.4 14.2-1 4.3 3.3 8 4.7 8.8 1.4.9 2.9 2.4 2.3 5-.6 2.5-5.2 2.3-8.4 2.2s-3.7 5.2-7.3 5.1l-.6 4-1.4.3s-14.7 29.3-15.9 39.3l-10.8 1.4-10.8-1.4c-1.3-10-15.9-39.3-15.9-39.3l-1.4-.3-.6-4c-3.6.2-4-5.2-7.3-5.1-3.2.1-7.8.4-8.4-2.2s.9-4.1 2.3-5c1.4-.9 5.7-4.5 4.7-8.8-1.2-5.4-8.8-11.6-10.4-14.2-2.5-4-2.8-6.8-2.8-6.8s-1.7.9-2.3 3.6c-2.6-3-8.6-10.8-10.3-22 0 0-.5-.2-1.3 1.1-3.4-9.1-3.4-26.5-3.4-26.5s-9.9 12.2-3.6 33.6c0 0-6-9.3-6-25.5 0 0-9.7 8.7 1.6 38.9 0 0-4.9-5.2-10.6-23.4 0 0-7.2 12.6 7.5 32.2 0 0-7.3-5-13.1-17.8 0 0-2.8 16.1 14.9 28.1 0 0-8.5-3.1-16.8-14 0 0-1.8 13.6 15.7 20.8 0 0-6.6-.4-16.5-8.7 0 0-1.8 12.1 21.2 18.3 0 0-9.4-.2-18.9-6.6 0 0-.3 11.9 19.3 14.3 0 0-6.5 1-13.7-1.7 0 0 .3 9.6 17.3 10.8 0 0-6.7.5-11.1-.5 0 0 .4 9.9 13.9 8.2 0 0-4.6 1.5-6 1.9 0 0 .3 8.1 14.3 5.2 0 0-2.5 1.6-5.9 2.1 0 0 2.9 6.7 14.6 3.8l-2.4 2.6s9.1 5.2 16-2l-2.5 4.5s5.9 2.2 9.6-3.5c0 0-1 8.7-13.3 10.2 0 0 .4 1.8 1 2.5 0 0-.8 1.5-7.9 2.7 0 0 1.5 2.3 3.1 3 0 0-3.1 2.6-4.7 3.1 0 0 2.6 1.3 4.3 1.6 0 0-3.7 3.6-8.2 3.7s-12.7-.4-12.7-.4-.1-4.4-2.2-8.1c-2.1-3.8-2.8-4-2.8-4s.5-3-.9-4.3-2-1.8-2-1.8.7-6-1.2-9.8c-1.9-3.8-8.7-12-9.1-18.1s-.1-8.4-.1-8.4l-2.4.5-1.4-2.9 2.4-.3-1-4.4-3.2 1.2-.4-3.8-3.8 1.6 1.9 3.4-3.4 1 2 4 2.6-1.7.7 3.5s-1.6.4-2.4 1.8c0 0 4.3 2.9 5.6 6.3 2 5.4 1.4 17.7 4.3 21.3 2.9 3.7 5.2 6.2 5.2 6.2s-.8 2.5.1 3.9 2.2 1.8 2.2 1.8-.8 5.6 1.2 9.3c2 3.7 3.2 4.6 3.2 4.6s-7.4 4.5-2.2 9.8c0 0-.7 4.8 4.3 5.9 0 0 .3 3.8 4.6 3.3 0 0 2.1-.6 2.6.4s0 7.1 0 7.1 1.9-.2 3.1-1l3.8 1.9.1-4.3 4.8-1.9s-2.1.4-6.4-3.7c0 0 .7-.4 1.2-3.9 0 0 3.4-2.7 4.1-4.9.7-2.2 5.5-7 11.1-8.6l.8 3.4s8-7.1 11.4-7.5l2.8 3.6s10.3-15.3 14.9-18c-.4 1.2 2.2 1.4-3.5 7.7-5.6 6.3-2.1 11.3-2.1 11.3-3.5 2.9-2.8 5.5-3.2 8.5-.4 3-12.1 10.7-12.1 10.7 3.7 4.6 7.8 3.6 7.8 3.6-2.3 1.5-1.6 6.5-1.6 6.5 3.3.9 6.6-.6 6.6-.6-1.1 3.1.6 5.3.6 5.3 2.1-1.3 6.9-2.1 6.9-2.1-.6 5.4 2.9 8.3 2.9 8.3l3.1-3.3c.5 6.1 6 9.6 6 9.6s5.4-3.5 6-9.6l3.1 3.3s3.5-2.9 2.9-8.3c0 0 4.8.8 6.9 2.1 0 0 1.8-2.2.6-5.3 0 0 3.3 1.5 6.6.6 0 0 .7-5-1.6-6.5 0 0 4.1 1 7.8-3.6 0 0-11.6-7.7-12.1-10.7-.4-3 .3-5.6-3.2-8.5 0 0 3.5-5-2.1-11.3-5.6-6.3-3.1-6.5-3.5-7.7 4.5 2.7 14.9 18 14.9 18l2.8-3.6c3.3.4 11.4 7.5 11.4 7.5l.8-3.4.1-.2c4.2 2.2 11.1 5.3 13.9 7.4 3 2.3 5.4 2.5 12.6 0 7.2-2.5 20.5-6.2 18.5-10.7l-.3-.6c.3-1.2.4-3.2-1.7-4.9v1.1l-6.8-2.5c-.2-.6-.6-1.2-1.2-1.7 0 0 0 .5-.1 1.2l-1.8-.7 3.5-9.8c-.3-.1-.6-.2-.8-.4.1-.9.2-2.1.5-3.4.9.3 1.6.7 2.2 1.1l1-3.6s-1.1-.1-2.5-.3c.4-1.1.8-2.1 1.3-2.7L332 289s.1 1.4 0 3.2c-.9-.4-1.7-.8-2.4-1.4l-1.1 4c.4 0 1.6.1 3.1.4-.3 1.2-.7 2.2-1.4 3-.2 0-.3-.1-.5-.1l-3.4 9.6-9.2-3.4c-.4.6-.7 1.3-1 2 0-.1.1-.3.1-.3s-3.6 1.9-3.5 4.6c-.7.2-1.2.7-1.6 1.6-1 2.8 5.4 8.9 3.8 9.7-1.5.8-9.6-5.9-10.9-7 1.7-.3 4.1-1.5 4.1-1.5-1.7-.5-4.7-3.1-4.7-3.1 1.6-.7 3.1-3 3.1-3-7.1-1.2-7.9-2.7-7.9-2.7.5-.7 1-2.5 1-2.5-12.2-1.6-13.3-10.2-13.3-10.2 3.7 5.8 9.6 3.5 9.6 3.5l-2.5-4.5c7 7.2 16 2 16 2l-2.4-2.6c11.7 3 14.6-3.8 14.6-3.8-3.4-.5-5.9-2.1-5.9-2.1 14 2.9 14.3-5.2 14.3-5.2-1.5-.4-6-1.9-6-1.9 13.5 1.7 13.9-8.2 13.9-8.2-4.4 1-11.1.5-11.1.5 17.1-1.2 17.3-10.8 17.3-10.8-7.3 2.6-13.7 1.7-13.7 1.7 19.6-2.4 19.3-14.3 19.3-14.3-9.5 6.4-18.9 6.6-18.9 6.6 23-6.5 21.2-18.6 21.2-18.6zm-19.9 86.6c-.9-1.5 1.3-2.9 2.3-4.3l3.9 1.4c-1.3 1.6-5.2 4.5-6.2 2.9zm-2.6-6.2c-1.3 1.9-2.1 4.1-6 4.2-4.9.1-5.6-4.2-6.7-6.6-.3-.7-.8-1.2-1.4-1.6 0-.4 0-.9.1-1.4l14 5.4z"/><path class="st1" d="M255.6 222.2s-6.2-5.3-8.1-8.2c0 0 2.1-.9 3.1-2.2 0 0-5.6-3-8.7-6.1 0 0 2-.3 3.5-1.6 0 0-5.1-.9-7.6-5.1 5.9-2 3.9-7.5 3.9-7.5-1.2 1.6-6 3.5-11.3 1.3s-11-.7-11 2.2c0 0-11.8-3.4-8.9 8 0 0 1.9-4.3 6.1-2.7 4.2 1.6 8.5 7 8.5 7s-2.6 1.4-7.5-.1c0 0 2 7.5 10.8 3.7 0 0 3.5 1.9 3.7 7.4 0 0 1.5-.8 2.4-2.5 0 0 1.4 5.3-.4 9.7 0 0 2.4-.4 3.2-1.2 0 0 .7 4.6-2.4 8.4 0 0 13.5 6.4 22-.6 0 0-3.2-3.7-4.3-7.1.2.1 2-.6 3-2.8zM294.7 195.2c0-2.9-5.8-4.5-11-2.2-5.2 2.2-10.1.3-11.3-1.3 0 0-2 5.5 3.9 7.5-2.6 4.1-7.6 5.1-7.6 5.1 1.5 1.2 3.5 1.6 3.5 1.6-3 3.1-8.7 6.1-8.7 6.1 1 1.3 3.1 2.2 3.1 2.2-1.8 2.9-8.1 8.2-8.1 8.2 1 2.2 2.8 2.9 2.8 2.9-1 3.4-4.3 7.1-4.3 7.1 8.5 7 22 .6 22 .6-3.1-3.8-2.4-8.4-2.4-8.4.8.8 3.2 1.2 3.2 1.2-1.8-4.4-.4-9.7-.4-9.7 1 1.8 2.5 2.5 2.5 2.5.2-5.5 3.7-7.4 3.7-7.4 8.9 3.8 10.8-3.7 10.8-3.7-4.9 1.6-7.5.1-7.5.1s4.3-5.4 8.5-7c4.2-1.6 6.1 2.7 6.1 2.7 3-11.5-8.8-8.1-8.8-8.1z"/><path class="st1" d="M289.3 264.9c-1.2-6.7-2.1-12.5.7-19.1l.5-1.2-11.5-13.2-1.4.5c-.1 0-12.1 4-19.8.1l-1-.5-1 .5c-7.6 3.8-19.6-.1-19.8-.1l-1.4-.4-11.5 13.2.5 1.2c2.9 6.6 1.9 12.4.7 19.1-1.1 6.3-2.3 13.5-.1 22.3 2.4 9.5 10.3 12.9 17.2 15.9 5.4 2.3 10.5 4.5 13.3 9l1.8 2.9 1.8-2.9c2.9-4.6 8-6.7 13.3-9 7-3 14.9-6.4 17.2-15.9 2.8-8.9 1.6-16.1.5-22.4zm-60.8-19.6l7.9-9c3.6 1 13.2 3.1 20.7-.1 7.5 3.2 17.1 1.1 20.7.1l7.9 9c-2.8 7.3-1.7 13.6-.5 20.3.9 5 1.7 10.2 1 16.1h-58.1c-.7-5.9.1-11.1 1-16.1 1.1-6.7 2.2-13-.6-20.3zm42 53.8c-4.9 2.1-9.9 4.2-13.5 8.3-3.6-4.1-8.6-6.2-13.5-8.3-6.8-2.9-12.7-5.5-14.7-12.6h56.3c-1.8 7.1-7.7 9.7-14.6 12.6z"/><path class="st2" d="M228.5 245.3l7.9-9c3.6 1 13.2 3.1 20.7-.1 7.5 3.2 17.1 1.1 20.7.1l7.9 9c-2.8 7.3-1.7 13.6-.5 20.3.9 5 1.7 10.2 1 16.1h-58.1c-.7-5.9.1-11.1 1-16.1 1.1-6.7 2.2-13-.6-20.3z"/><path d="M228.6 285.2c.1.3.1.6.2.9 1.8 7.4 7.8 10 14.8 13 4.9 2.1 9.9 4.2 13.5 8.3 3.6-4.1 8.6-6.2 13.5-8.3 6.9-3 12.9-5.5 14.8-13 .1-.3.1-.6.2-.9h-57z" fill="#6d8c3e"/><g><path class="st1" d="M282.8 260.4c0-3.9-3.7-4.5-7-4.4-3.3.1-8.2-.5-8.4-3.1-.1-1.6 2.6-1.8 4.4-1.2 1 .3 7.4 1.5 9.4-2.8 0 0-2.3.1-4.8-.5-1.9-.4-9.7.5-11.1 3.6s3.1 6 8.3 6 5.9 1 5.9 2.3c-.1 1.7-4.2 2.1-6.6 2.1-3.7-1.4-12.5-.3-12.5-.5s-2-3.6-2-3.6 3.6-.3 4-.9c.5-.7-2.7-3.2-2.7-3.2s2.7-1.1 2.8-1.8c.1-.8-2.2-2.8-2.2-2.8s.9-.9 1.5-2.3c.5-1.1-3.3-1.3-3.3-1.3.2-.8.1-1.6-.9-1.9-.8-.3-3.6.8-5.6.8s-2.7 1.4-2.7 1.4-3.4.4-3.9.8.1 3 .1 3c-1.7-.3-2.5-1.8-2.5-1.8-.9 3.9 3.2 4.3 3.2 4.3l.7 2.1 1.7.2c1.7.2.9 1.8-1.7 1.8s-3.7 3.1-3.7 3.1c-1.8.1-2.8-1.4-3.2-3.3-.4-2.1-.2-5.2.2-7.2.4-2.4-.8-3.1-.8-3.1l-.8 2c-.1-2.1-1.9-2.3-1.9-2.3l-.3 2.5c-.9-1.7-2.5-.9-2.5-.9s1.5 5.4 1.5 5.7c-.1.3-.6.6-1.3-.2s-1.2-.3-1.2-.3c.8 5.4 3.7 4.6 3.7 4.6s.1 1.7 1 5.2c.9 3.7 4.8 3 4.8 3 0 1.2.9 2.9 1.2 7s-3.4 6.8-3.4 6.8c-3.3-.1-3 3.2-3 3.2h9.2c0-8.5 3.7-10 3.7-10 5.4.3 10.7-2 10.7-2-.8 3.3.6 4.6.6 4.6 2.2-.3 1.1 4.1.5 4.1h-2.8c-.8 0-3.1 2.5-3.1 2.5h9.6s1.5-2.1 2-3.2-1.1-2.5-1.2-3.6 1.7-1.8 1.7-1.8c1.9 2.6 6.1 2.8 6.1 2.8l-.1-2s2.2.8 2.7 1.4c.5.7.4 3.7-2.3 4s-2.9 2.3-2.9 2.3h7.3c1.2 0 2.2-2.3 2.2-3.1v-7.7c0-1.2-1-1.1-3.4-1.3-2.1-.2-1.9-2.6-2.8-5.3 3.1.1 7.9-.6 7.9-3.8zM282.2 168.9c-.6-5.3-4.8-12-20.8-15.2-.1-1.7-1.1-3.1-2.6-3.8V147h2.6v-3.1h-2.6v-2.6h-3.1v2.6H253v3.1h2.6v2.9c-1.5.6-2.5 2.1-2.6 3.8-16 3.2-20.2 9.9-20.8 15.2-.7 6.6 4 12.8 8.2 15.2v3.3H274v-3.3c4.2-2.4 8.9-8.6 8.2-15.2zM264.6 179h-4.7v-19.4c3.9 1.8 6.3 4.4 7 8.1.8 4.7-1 9.4-2.3 11.3zm-17.1-11.2c.7-3.7 3.1-6.4 7-8.1V179h-4.7c-1.4-1.9-3.2-6.6-2.3-11.2zm-3.9-5.3c-.8 1.5-1.3 3.1-1.5 4.5-.8 4.3.1 8.7 1.6 12.1h-1.1c-2.4-1.6-5.4-5.6-4.9-9.5.2-2.9 2.3-5.2 5.9-7.1zm28.2 16.5h-1.1c1.4-3.4 2.3-7.7 1.6-12-.3-1.4-.7-3-1.5-4.5 3.6 1.9 5.7 4.3 6 7 .4 3.9-2.6 7.9-5 9.5z"/></g></g></svg>