<svg version="1.1" id="Layer_1" xmlns="http://www.w3.org/2000/svg" x="0" y="0" viewBox="0 0 512 512" xml:space="preserve"><style>.st1{fill:#003893}.st2{fill:#fff}</style><path fill="#dd7500" d="M512 150V88.3L0 406v9.1z"/><path class="st1" d="M0 406L512 88.3H0z"/><path class="st2" d="M512 150v61.8L0 424.3v-9.2z"/><path class="st1" d="M512 88.3v123.5L0 424.3h512v-336z"/><path class="st2" d="M145.9 210.2L203 203l-57.1-7.1 29-17.8-36.1 8.9 22-30-30 22 8.9-36.1-17.8 29-7.1-57.1-7.2 57.1-17.7-29 8.8 36.1-29.9-22 21.9 30-36-8.9 28.9 17.8-57.1 7.1 57.1 7.2-28.9 17.7 36-8.8L68.8 249l29.9-21.9-8.8 36 17.7-28.9 7.2 57.1 7.1-57.1 17.8 28.9-8.9-36 30 21.9-22-29.9 36.1 8.8z"/></svg>