<svg version="1.1" id="Layer_1" xmlns="http://www.w3.org/2000/svg" x="0" y="0" viewBox="0 0 512 512" xml:space="preserve"><style>.st0{fill:#ffe600}</style><circle transform="rotate(-45.001 256.357 256.363)" class="st0" cx="256.4" cy="256.4" r="44.5"/><path class="st0" d="M264.5 197.6L281.7 88h-51.4l17.2 109.7c2.9-.4 5.9-.7 8.9-.7 2.7 0 5.5.2 8.1.6zM210.2 219c3.6-4.4 7.8-8.3 12.5-11.6L133.6 88H28.3l181.9 131zM315.7 256.4c0 1.6-.1 3.1-.2 4.7L512 290.7v-77.4l-197.8 29.9c1 4.3 1.5 8.6 1.5 13.2zM483.7 88H378.4l-88.9 119.1c4.8 3.2 9.1 7.1 12.7 11.6L483.7 88zM306.4 288.3c-3.4 5.4-7.7 10.2-12.7 14.2l90.2 120.8h-101l-17-108.4c-3.1.5-6.3.8-9.5.8-3.5 0-6.9-.3-10.2-.9l-17 108.5h-101l90.5-121.2c-4.9-4-9.1-8.8-12.5-14.2l-188 135.4H0h512-18.2l-187.4-135zM197 256.4c0-4.5.5-8.8 1.5-13L0 213.3v77.4l197.2-29.8c-.1-1.5-.2-3-.2-4.5z"/><path d="M512 88h-28.3L302.2 218.7c-3.7-4.4-7.9-8.4-12.7-11.6L378.4 88h-96.7l-17.2 109.6c-2.7-.4-5.4-.6-8.2-.6-3 0-6 .2-8.9.7L230.3 88h-96.7l89.2 119.5c-4.7 3.2-8.9 7.2-12.5 11.6L28.3 88H0v125.3l198.5 30c-.9 4.2-1.5 8.6-1.5 13 0 1.5.1 3.1.2 4.6L0 290.7v132.6h18.2L206.1 288c3.4 5.4 7.6 10.2 12.5 14.2l-90.5 121.2h101l17-108.5c3.3.6 6.7.9 10.2.9 3.2 0 6.4-.3 9.5-.8l17 108.4h101l-90.2-120.8c5-4 9.2-8.8 12.7-14.2l187.4 135H512V290.7L315.5 261c.1-1.5.2-3.1.2-4.7 0-4.5-.5-8.9-1.5-13.1L512 213.3V88zM256.4 300.9c-24.6 0-44.5-19.9-44.5-44.5s19.9-44.5 44.5-44.5 44.5 19.9 44.5 44.5c0 24.5-20 44.5-44.5 44.5z" fill="#d20000"/></svg>