<?xml version="1.0" encoding="utf-8"?>
<!-- Generator: Adobe Illustrator 25.0.0, SVG Export Plug-In . SVG Version: 6.00 Build 0)  -->
<svg version="1.1" id="Layer_1" xmlns="http://www.w3.org/2000/svg" xmlns:xlink="http://www.w3.org/1999/xlink" x="0px" y="0px"
	 viewBox="0 0 512 512" style="enable-background:new 0 0 512 512;" xml:space="preserve">
<style type="text/css">
	.st0{fill:#FFE600;}
	.st1{fill:#D20000;}
</style>
<ellipse transform="matrix(0.7071 -0.7071 0.7071 0.7071 -106.1874 256.359)" class="st0" cx="256.4" cy="256.4" rx="44.5" ry="44.5"/>
<path class="st0" d="M264.5,197.6L281.7,88h-51.4l17.2,109.7c2.9-0.4,5.9-0.7,8.9-0.7C259.1,197,261.9,197.2,264.5,197.6z"/>
<path class="st0" d="M210.2,219c3.6-4.4,7.8-8.3,12.5-11.6L133.6,88H28.3L210.2,219z"/>
<path class="st0" d="M315.7,256.4c0,1.6-0.1,3.1-0.2,4.7L512,290.7v-77.4l-197.8,29.9C315.2,247.5,315.7,251.8,315.7,256.4z"/>
<path class="st0" d="M483.7,88H378.4l-88.9,119.1c4.8,3.2,9.1,7.1,12.7,11.6L483.7,88z"/>
<path class="st0" d="M306.4,288.3c-3.4,5.4-7.7,10.2-12.7,14.2l90.2,120.8h-101l-17-108.4c-3.1,0.5-6.3,0.8-9.5,0.8
	c-3.5,0-6.9-0.3-10.2-0.9l-17,108.5h-101l90.5-121.2c-4.9-4-9.1-8.8-12.5-14.2L18.2,423.3H0v0h512v0h-18.2L306.4,288.3z"/>
<path class="st0" d="M197,256.4c0-4.5,0.5-8.8,1.5-13L0,213.3v77.4l197.2-29.8C197.1,259.4,197,257.9,197,256.4z"/>
<path class="st1" d="M512,88h-28.3L302.2,218.7c-3.7-4.4-7.9-8.4-12.7-11.6L378.4,88h-96.7l-17.2,109.6c-2.7-0.4-5.4-0.6-8.2-0.6
	c-3,0-6,0.2-8.9,0.7L230.3,88h-96.7l89.2,119.5c-4.7,3.2-8.9,7.2-12.5,11.6L28.3,88H0v125.3l198.5,30c-0.9,4.2-1.5,8.6-1.5,13
	c0,1.5,0.1,3.1,0.2,4.6L0,290.7v132.6h18.2L206.1,288c3.4,5.4,7.6,10.2,12.5,14.2l-90.5,121.2h101l17-108.5
	c3.3,0.6,6.7,0.9,10.2,0.9c3.2,0,6.4-0.3,9.5-0.8l17,108.4h101l-90.2-120.8c5-4,9.2-8.8,12.7-14.2l187.4,135H512V290.7L315.5,261
	c0.1-1.5,0.2-3.1,0.2-4.7c0-4.5-0.5-8.9-1.5-13.1L512,213.3V88z M256.4,300.9c-24.6,0-44.5-19.9-44.5-44.5
	c0-24.6,19.9-44.5,44.5-44.5s44.5,19.9,44.5,44.5C300.9,280.9,280.9,300.9,256.4,300.9z"/>
</svg>
