<svg version="1.1" id="Layer_1" xmlns="http://www.w3.org/2000/svg" x="0" y="0" viewBox="0 0 512 512" xml:space="preserve"><style>.st0{fill:#c4272f}.st2{fill:#f9cf02}</style><path class="st0" d="M0 88.3h170.7v336H0z"/><path fill="#015197" d="M170.7 88.3h170.7v336H170.7z"/><path class="st0" d="M341.3 88.3H512v336H341.3z"/><path class="st2" d="M85.7 227c-13.3 0-24.8-8-29.8-19.5 0 .2-.1.3-.1.5 0 16.5 13.4 29.9 29.9 29.9s29.9-13.4 29.9-29.9c0-.2 0-.3-.1-.5C110.5 219 99 227 85.7 227z"/><circle class="st2" cx="85.7" cy="199.9" r="21.7"/><path class="st2" d="M72.1 159.1c0 7.5 6.1 13.6 13.6 13.6s13.6-6.1 13.6-13.6c0-5.4-3.4-6.1-3.4-8.1s2-4.8-2-8.1c2 3.4-1.4 4.1-1.4 7.5s1.4 3.4 1.4 6.1c0 1.5-1.2 2.7-2.7 2.7-1.5 0-2.7-1.2-2.7-2.7 0-2.7 2.7-5.4 2.7-9.5s-.7-5.4-2.7-8.8c-2-3.4-5.4-6.1-2.7-8.8-4.1 1.4-2 6.8-2 10.2 0 3.4-2.7 5.4-2.7 9.5s2 4.8 2 7.5c0 1.5-1.2 2.7-2.7 2.7s-2.7-1.2-2.7-2.7c0-2.7 1.4-2.7 1.4-6.1s-3.4-4.1-1.4-7.5c-4.1 3.4-2 6.1-2 8.1-.2 1.9-3.6 2.6-3.6 8zM26 245.6v125.8c0 1.2 1 2.2 2.2 2.2h22.7c1.2 0 2.2-1 2.2-2.2V245.6c0-1.2-1-2.2-2.2-2.2H28.2c-1.2-.1-2.2.9-2.2 2.2zM118.3 245.6v125.8c0 1.2 1 2.2 2.2 2.2h22.7c1.2 0 2.2-1 2.2-2.2V245.6c0-1.2-1-2.2-2.2-2.2h-22.7c-1.2-.1-2.2.9-2.2 2.2zM58.5 267.3v6.4c0 1.2 1 2.2 2.2 2.2h49.8c1.2 0 2.2-1 2.2-2.2v-6.4c0-1.2-1-2.2-2.2-2.2H60.8c-1.3-.1-2.3.9-2.3 2.2zM58.5 343.3v6.4c0 1.2 1 2.2 2.2 2.2h49.8c1.2 0 2.2-1 2.2-2.2v-6.4c0-1.2-1-2.2-2.2-2.2H60.8c-1.3 0-2.3 1-2.3 2.2zM62.6 243.3h46.2c1.1 0 1.6 1.5.6 2.1l-22 13.2c-1.1.6-2.4.6-3.5 0l-22-13.2c-.9-.6-.5-2.1.7-2.1zM62.6 357.3h46.2c1.1 0 1.6 1.5.6 2.1l-22 13.2c-1.1.6-2.4.6-3.5 0l-22-13.2c-.9-.6-.5-2.1.7-2.1zM88.3 281.5c-.9-.1-1.7-.3-2.6-.3-14.9 0-27.1 12.1-27.1 27.1 0 8.9 4.3 16.7 10.9 21.6.8.6 1.8-.3 1.4-1.1-.8-1.9-1.2-3.9-1.2-6.1 0-8.8 7.2-16 16-16 4.6 0 9.1-2.3 11.1-6.4 4.4-8.6-.8-17.2-8.5-18.8zm-2.5 17.9c-3 0-5.4-2.4-5.4-5.4 0-3 2.4-5.4 5.4-5.4 3 0 5.4 2.4 5.4 5.4 0 3-2.4 5.4-5.4 5.4z"/><path class="st2" d="M101.9 286.8c-.8-.6-1.8.3-1.4 1.1.8 1.9 1.2 3.9 1.2 6.1 0 8.8-7.2 16-16 16-4.6 0-9.1 2.3-11.1 6.4-4.2 8.6.9 17.2 8.6 18.8.9.1 1.7.3 2.6.3 14.9 0 27.1-12.1 27.1-27.1 0-8.9-4.4-16.7-11-21.6zm-16.1 41.3c-3 0-5.4-2.4-5.4-5.4 0-3 2.4-5.4 5.4-5.4 3 0 5.4 2.4 5.4 5.4 0 3-2.4 5.4-5.4 5.4z"/></svg>