<?xml version="1.0" encoding="utf-8"?>
<!-- Generator: Adobe Illustrator 25.0.0, SVG Export Plug-In . SVG Version: 6.00 Build 0)  -->
<svg version="1.1" id="Layer_1" xmlns="http://www.w3.org/2000/svg" xmlns:xlink="http://www.w3.org/1999/xlink" x="0px" y="0px"
	 viewBox="0 0 512 512" style="enable-background:new 0 0 512 512;" xml:space="preserve">
<style type="text/css">
	.st0{fill:#C4272F;}
	.st1{fill:#015197;}
	.st2{fill:#F9CF02;}
</style>
<rect y="88.3" class="st0" width="170.7" height="336"/>
<rect x="170.7" y="88.3" class="st1" width="170.7" height="336"/>
<rect x="341.3" y="88.3" class="st0" width="170.7" height="336"/>
<g>
	<path class="st2" d="M85.7,227c-13.3,0-24.8-8-29.8-19.5c0,0.2-0.1,0.3-0.1,0.5c0,16.5,13.4,29.9,29.9,29.9s29.9-13.4,29.9-29.9
		c0-0.2,0-0.3-0.1-0.5C110.5,219,99,227,85.7,227z"/>
	<circle class="st2" cx="85.7" cy="199.9" r="21.7"/>
	<path class="st2" d="M72.1,159.1c0,7.5,6.1,13.6,13.6,13.6s13.6-6.1,13.6-13.6c0-5.4-3.4-6.1-3.4-8.1s2-4.8-2-8.1
		c2,3.4-1.4,4.1-1.4,7.5s1.4,3.4,1.4,6.1c0,1.5-1.2,2.7-2.7,2.7c-1.5,0-2.7-1.2-2.7-2.7c0-2.7,2.7-5.4,2.7-9.5
		c0-4.1-0.7-5.4-2.7-8.8c-2-3.4-5.4-6.1-2.7-8.8c-4.1,1.4-2,6.8-2,10.2c0,3.4-2.7,5.4-2.7,9.5c0,4.1,2,4.8,2,7.5
		c0,1.5-1.2,2.7-2.7,2.7s-2.7-1.2-2.7-2.7c0-2.7,1.4-2.7,1.4-6.1s-3.4-4.1-1.4-7.5c-4.1,3.4-2,6.1-2,8.1
		C75.5,153,72.1,153.7,72.1,159.1z"/>
	<path class="st2" d="M26,245.6v125.8c0,1.2,1,2.2,2.2,2.2h22.7c1.2,0,2.2-1,2.2-2.2V245.6c0-1.2-1-2.2-2.2-2.2H28.2
		C27,243.3,26,244.3,26,245.6z"/>
	<path class="st2" d="M118.3,245.6v125.8c0,1.2,1,2.2,2.2,2.2h22.7c1.2,0,2.2-1,2.2-2.2V245.6c0-1.2-1-2.2-2.2-2.2h-22.7
		C119.3,243.3,118.3,244.3,118.3,245.6z"/>
	<path class="st2" d="M58.5,267.3v6.4c0,1.2,1,2.2,2.2,2.2h49.8c1.2,0,2.2-1,2.2-2.2v-6.4c0-1.2-1-2.2-2.2-2.2H60.8
		C59.5,265,58.5,266,58.5,267.3z"/>
	<path class="st2" d="M58.5,343.3v6.4c0,1.2,1,2.2,2.2,2.2h49.8c1.2,0,2.2-1,2.2-2.2v-6.4c0-1.2-1-2.2-2.2-2.2H60.8
		C59.5,341.1,58.5,342.1,58.5,343.3z"/>
	<path class="st2" d="M62.6,243.3h46.2c1.1,0,1.6,1.5,0.6,2.1l-22,13.2c-1.1,0.6-2.4,0.6-3.5,0l-22-13.2
		C61,244.8,61.4,243.3,62.6,243.3z"/>
	<path class="st2" d="M62.6,357.3h46.2c1.1,0,1.6,1.5,0.6,2.1l-22,13.2c-1.1,0.6-2.4,0.6-3.5,0l-22-13.2
		C61,358.8,61.4,357.3,62.6,357.3z"/>
	<path class="st2" d="M88.3,281.5c-0.9-0.1-1.7-0.3-2.6-0.3c-14.9,0-27.1,12.1-27.1,27.1c0,8.9,4.3,16.7,10.9,21.6
		c0.8,0.6,1.8-0.3,1.4-1.1c-0.8-1.9-1.2-3.9-1.2-6.1c0-8.8,7.2-16,16-16c4.6,0,9.1-2.3,11.1-6.4C101.2,291.7,96,283.1,88.3,281.5z
		 M85.8,299.4c-3,0-5.4-2.4-5.4-5.4c0-3,2.4-5.4,5.4-5.4c3,0,5.4,2.4,5.4,5.4C91.2,297,88.8,299.4,85.8,299.4z"/>
	<path class="st2" d="M101.9,286.8c-0.8-0.6-1.8,0.3-1.4,1.1c0.8,1.9,1.2,3.9,1.2,6.1c0,8.8-7.2,16-16,16c-4.6,0-9.1,2.3-11.1,6.4
		c-4.2,8.6,0.9,17.2,8.6,18.8c0.9,0.1,1.7,0.3,2.6,0.3c14.9,0,27.1-12.1,27.1-27.1C112.9,299.5,108.5,291.7,101.9,286.8z
		 M85.8,328.1c-3,0-5.4-2.4-5.4-5.4c0-3,2.4-5.4,5.4-5.4c3,0,5.4,2.4,5.4,5.4C91.2,325.7,88.8,328.1,85.8,328.1z"/>
</g>
</svg>
