<svg version="1.1" id="Layer_1" xmlns="http://www.w3.org/2000/svg" x="0" y="0" viewBox="0 0 512 512" xml:space="preserve"><style>.st1{fill:#fff}.st2{fill:#fbd20e}</style><path fill="#00795e" d="M0 88h512v336H0z"/><path class="st1" d="M277.1 301.6c9.9 2.4 20.5 2.5 31-.1 18.6-4.6 33.3-16.8 41.9-32.3-14.9-9.8-33.5-13.6-52.1-9-10 2.5-18.8 7.2-26.2 13.5.1-.1.1-.2.2-.3 27.4-24.7 58-16.7 58-16.7l7.2-6.2s-30.9-10.7-58.5 12.2c17.1-33.1-1.4-61.5-1.4-61.5l-4.3 8.5s15.4 28.2-2.6 61l-.1.1c4.4-8.8 6.9-18.6 6.9-29.1 0-19.2-8.2-36.4-21.3-48.4-13.1 12.1-21.3 29.3-21.3 48.4 0 10.5 2.6 20.4 6.9 29.1 0 0 0-.1-.1-.1-18-32.8-2.6-61-2.6-61l-4.3-8.5s-18.5 28.4-1.4 61.5c-27.6-22.9-58.5-12.2-58.5-12.2l7.2 6.2s30.6-8 58 16.7c.1.1.1.2.2.3-7.4-6.2-16.2-11-26.2-13.5-18.6-4.6-37.3-.8-52.2 9 8.6 15.6 23.3 27.7 41.9 32.3 10.6 2.6 21.1 2.4 31 .1-36.9 10.3-61-11.9-61-11.9l-9.3 2.1s37.3 40 91.4.8c54.1 39.2 91.4-.8 91.4-.8l-9.3-2.1c.5 0-23.6 22.2-60.5 11.9zM202.2 347.6c3.8 2.4 7.9 4.5 12 6.4h83.5c4.2-1.9 8.2-4 12-6.4H202.2zM221.7 357c10.7 3.8 22.3 5.9 34.3 5.9s23.6-2.1 34.3-5.9h-68.6zM179.5 328.5c1.3 1.5 2.6 2.9 4 4.3h145c1.4-1.4 2.7-2.8 4-4.3h-153zM188.9 337.8c2.1 1.9 4.3 3.6 6.6 5.3h121c2.3-1.7 4.5-3.5 6.6-5.3H188.9z"/><path class="st1" d="M298.6 317.2c-23.8 0-40.2-15.9-40.3-16.1l-2.3-2.2-2.3 2.2c-.2.2-16.4 16.1-40.3 16.1h-42.6c1.5 2.2 3 4.3 4.6 6.4h38c21.4 0 37-11.2 42.6-15.9 5.6 4.7 21.2 15.9 42.6 15.9h38c1.6-2.1 3.2-4.2 4.6-6.4h-42.6z"/><g><path class="st2" d="M254.9 149.9l-3.7 11.2-11.8.1c-1.1 0-1.6 1.5-.7 2.1l9.5 7-3.6 11.3c-.3 1.1.9 2 1.8 1.3l9.6-6.9 9.6 6.9c.9.7 2.2-.2 1.8-1.3l-3.6-11.3 9.5-7c.9-.7.4-2.1-.7-2.1l-11.8-.1-3.7-11.2c-.3-1.1-1.9-1.1-2.2 0zM199 172.8l2.2 7.9-6.7 4.6c-.6.4-.4 1.4.4 1.5l8.1.4 2.3 7.8c.2.8 1.3.8 1.5.1l2.9-7.6 8.1.2c.8 0 1.1-1 .5-1.4l-6.4-5.1 2.7-7.7c.3-.7-.6-1.4-1.2-1l-6.8 4.5-6.4-5c-.5-.5-1.4.1-1.2.8zM166.4 212.4l5.9 5.6-3.4 7.4c-.3.7.4 1.4 1.1 1.1l7.2-3.9 6 5.5c.6.5 1.5 0 1.4-.7l-1.5-8 7.1-4c.7-.4.5-1.4-.3-1.5l-8.1-1.1-1.6-8c-.2-.8-1.2-.9-1.5-.2l-3.5 7.3-8.1-1c-.8 0-1.3.9-.7 1.5zM314.9 172.8l-2.2 7.9 6.7 4.6c.6.4.4 1.4-.4 1.5l-8.1.4-2.3 7.8c-.2.8-1.3.8-1.5.1l-2.9-7.6-8.1.2c-.8 0-1.1-1-.5-1.4l6.4-5.1-2.7-7.7c-.3-.7.6-1.4 1.2-1l6.8 4.5 6.4-5c.5-.5 1.4.1 1.2.8zM347.4 212.4l-5.9 5.6 3.4 7.4c.3.7-.4 1.4-1.1 1.1l-7.2-3.9-6 5.5c-.6.5-1.5 0-1.4-.7l1.5-8-7.1-4c-.7-.4-.5-1.4.3-1.5l8.1-1.1 1.6-8c.2-.8 1.2-.9 1.5-.2l3.5 7.3 8.1-1c.9 0 1.3.9.7 1.5z"/></g></svg>