<svg version="1.1" id="Layer_1" xmlns="http://www.w3.org/2000/svg" x="0" y="0" viewBox="0 0 512 512" xml:space="preserve"><style>.st1{fill:#fff}.st3{fill:#dbdad8}.st5{fill:#c0c2c2}</style><path fill="#004db0" d="M0 88h512v336H0z"/><g id="crest"><path class="st1" d="M256 384c-70.6 0-128-57.4-128-128s57.4-128 128-128 128 57.4 128 128-57.4 128-128 128zm0-229.5c-56 0-101.5 45.5-101.5 101.5S200 357.5 256 357.5 357.5 312 357.5 256 312 154.5 256 154.5z"/><path d="M256 375.2c-65.7 0-119.2-53.5-119.2-119.2S190.3 136.8 256 136.8 375.2 190.3 375.2 256 321.7 375.2 256 375.2zm0-229.5c-60.8 0-110.3 49.5-110.3 110.3S195.2 366.3 256 366.3 366.3 316.8 366.3 256 316.8 145.7 256 145.7z" fill="#cf7e1f"/><circle class="st1" cx="141.2" cy="256" r="8.8"/><circle class="st1" cx="370.8" cy="256" r="8.8"/><circle class="st3" cx="256" cy="141.2" r="8.8"/><circle class="st3" cx="174.9" cy="174.9" r="8.8"/><circle class="st3" cx="337.1" cy="174.9" r="8.8"/><circle class="st3" cx="362" cy="212.1" r="8.8"/><circle class="st3" cx="212.1" cy="150" r="8.8"/><circle class="st3" cx="150" cy="212.1" r="8.8"/><circle class="st3" cx="299.9" cy="150" r="8.8"/><circle class="st3" cx="368.5" cy="233.6" r="8.8"/><circle class="st3" cx="233.6" cy="143.4" r="8.8"/><circle class="st3" cx="160.6" cy="192.2" r="8.8"/><circle class="st3" cx="319.8" cy="160.6" r="8.8"/><circle class="st3" cx="351.4" cy="192.2" r="8.8"/><circle class="st3" cx="192.2" cy="160.6" r="8.8"/><circle class="st3" cx="143.4" cy="233.6" r="8.8"/><circle class="st3" cx="278.4" cy="143.4" r="8.8"/><path d="M370.8 260.4c-2.4 0-4.4-2-4.4-4.4 0-60.8-49.5-110.3-110.3-110.3S145.7 195.2 145.7 256c0 2.4-2 4.4-4.4 4.4s-4.4-2-4.4-4.4c0-65.7 53.5-119.2 119.2-119.2S375.2 190.3 375.2 256c0 2.4-2 4.4-4.4 4.4z" fill="#e93625"/><path class="st5" d="M280.5 388.4h-49.1c-10.5 0-18.7-9.1-17.6-19.5l15.6-148.2h53L298 368.9c1.2 10.4-7 19.5-17.5 19.5zM282.2 220.7h-52.7c-2.3 0-4.3-1.7-4.5-4.1l-3.3-30.3c-.6-5.2 3.5-9.8 8.8-9.8h50.9c5.3 0 9.3 4.6 8.8 9.8l-3.3 30.1c-.2 2.5-2.2 4.3-4.7 4.3z"/><path class="st1" d="M258 186.8l16.4 47.1 49.8 1c2.1 0 2.9 2.6 1.3 3.9l-39.7 30.1 14.4 47.7c.6 2-1.6 3.6-3.3 2.4L256 290.6 215.1 319c-1.7 1.2-3.9-.4-3.3-2.4l14.4-47.7-39.7-30.1c-1.6-1.2-.8-3.8 1.3-3.9l49.8-1 16.4-47.1c.6-1.9 3.4-1.9 4 0z"/></g></svg>