<svg version="1.1" id="Layer_1" xmlns="http://www.w3.org/2000/svg" x="0" y="0" viewBox="0 0 512 512" xml:space="preserve"><style>.st1{fill:#ffc400}</style><path fill="#006233" d="M0 88.3h512v336H0z"/><path class="st1" d="M351 225c-.2-1.5-2.4-1.4-2.6.1-5.3 46.4-44.6 82.5-92.5 82.5-47.8 0-87.2-36.1-92.5-82.5-.2-1.5-2.4-1.6-2.6-.1-.7 4.7-1.1 9.4-1.1 14.3 0 53.1 43.1 96.2 96.2 96.2s96.2-43.1 96.2-96.2c.1-4.9-.3-9.7-1.1-14.3z"/><path class="st1" d="M254.8 185.3l-7 20.9-22 .2c-1.2 0-1.7 1.5-.7 2.3l17.7 13.1-6.6 21c-.4 1.1.9 2.1 1.9 1.4l17.9-12.8 17.9 12.8c1 .7 2.3-.2 1.9-1.4l-6.6-21 17.7-13.1c1-.7.5-2.3-.7-2.3l-22-.2-7-20.9c-.4-1.2-2-1.2-2.4 0z"/></svg>