<svg version="1.1" id="Layer_1" xmlns="http://www.w3.org/2000/svg" x="0" y="0" viewBox="0 0 512 512" xml:space="preserve"><style>.st0{fill:#012169}.st1{fill:#fff}.st2{fill:#c8102e}.st6{fill:#ffe7da}</style><path class="st0" d="M256.1 88v168.2H0V424h512V88z"/><g id="Union_flag"><path class="st0" d="M0 88h256.1v168.2H0z"/><path class="st1" d="M106 150.1v-7.9L22.7 88H0v17l69.3 45.1zM106 194.1H70.8L0 240.1v16.1h24.2l81.8-53.3zM233.9 88L150 142.5v7.6h37.3l68.8-44.8V88zM150 194.1v8.5l82.5 53.6h23.6v-16.4l-70.2-45.7z"/><path class="st1" d="M256.1 150.1H150V88h-44v62.1H0v44h106v62.1h44v-62.1h106.1z"/><path class="st2" d="M256.1 158.8H141.3V88h-26.5v70.8H0v26.5h114.8v70.9h26.5v-70.9h114.8z"/><path class="st2" d="M97.2 150.1L1.7 88H0v9.6l80.7 52.5zM106 194.1H89.6L0 252.4v3.8h10.6zM157.3 194.1l95.5 62.1h3.3v-8.6l-82.3-53.5zM245.4 88L150 150v.1h16.4l89.7-58.3V88z"/></g><g id="shield"><path fill="#00b2c9" d="M325.4 187.2h117.3v90.6H325.4z"/><path d="M325.4 277.9c0 30.9 34.6 56 58.6 56 21.3 0 58.6-25.1 58.6-56H325.4z" fill="#b74c0a"/><path d="M399.7 220.3c1.9.3 5.1.8 5.4 5.3s-1.3 20.8-3 22.8c0 0 5.4 12.3 5.7 19.7.2 7.3-.8 29.3-.1 32.8.7 3.5 3.2 10.7 3.2 10.7s-7.7-4.5-10.7-1.7c-3 2.8-14 6.7-18.3 2.2 0 0 5.2-14.7 5.2-31.3V223s2.2-1.7 5-1.8c2.7-.1 7.6-.9 7.6-.9z" fill="#008f2d"/><path class="st6" d="M400.8 308.4c.3 2.1 1.2 3.7.8 4.4-.4.8-3.3 7.9-1.7 7.9s4.6-.9 5.3-2.4c.8-1.6 1.1-3.9 1.6-4.6s-.8-4-1.8-4.6c-1-.5-4.2-.7-4.2-.7zM381.6 225l-6.1.8s.8-4 .9-6.8c.1-2.8.3-7.9.3-7.9s4.3-2.7 4.4-3.1c.1-.2.6-1.6.2-2.3s-1.7-.8-1.7-.8-5.1 2.7-5.1 3.1 0 3.1-.6 4.1c-.6 1-3.7 9.3-3.9 11.6-.2 2.2-.6 6.9.3 7.1s10.1 1.2 11.1.8c1-.5.2-6.6.2-6.6z"/><path d="M409.2 203.1H387v-10.5h-7.7v10.5h-22.2v7.6h22.2v100.8h7.7V210.7h22.2z"/><path d="M396.1 216.7s7.4 2.1 8.4-.3c1.2-2.9-2.7-3.3-3.4-6.3-.1-.3-.8-4.4-3.8-5.2-3-.8-5.8 0-5.9 2-.1 1.9 4.7 9.8 4.7 9.8z" fill="#963c3c"/><path class="st6" d="M392.1 226.1c-.2 0-.6-2.2-.1-5 .4-2.8 0-3.7 0-3.7s-3.1.3-3.1-.9.7-6.9 2.6-9.8c0 0 1.3 1.7 3.8 1.7 0 0-.1 2 1.2 3.3 0 0-1.7 1.4-.9 2.4s2.2 2.2 2.2 2.2.1 2.3 1.9 3.9c0 .1-2.3 5-7.6 5.9z"/><path d="M361.7 274.3h.7v13.2h-.7zM364.4 271.8h.7v18.3h-.7zM367 269.4h.7v23h-.7zM369.7 266.1h.7v29.7h-.7zM372.4 261.7h.7v38.4h-.7zM375.1 261.7h.7v40.2h-.7z"/><path d="M387.1 282.8c-2.9-15.3-11.1-24.2-14-24.7-2.9-.4-5 1.9-5.2 3.6s-1.8 6.7-5 9-9.2 3.7-10.5 8c-1.3 4.3 2.2 6.2 4.3 5.8.2 0 .3-.1.5-.1l22.7 27.9c.8 1 2.4.8 3-.3 2.3-4.9 6.7-16.2 4.2-29.2zm-28 .3c.9-1 1.3-2.3.3-3.6-1.7-2.3-3.6 1-3.6 1s-.6-2.9 3.8-4.3 9.2-3.9 11.4-9.1c2.2-5.2 2.1-4.2 2.1-4.2s8.9 5 10.1 20.7c1.2 15.7-3.1 22-3.1 22l-21-22.5z" fill="#ffa927"/><g><path class="st6" d="M379.3 249.2c-1 .7-1.9 1.2-2.6 1.5-2.1 1.1-4.6 2.2-4.8 3.2-.2 1-1.7 1.8-1.6 3 .1 1.2 0 4.7 0 4.7 1.2-.2 3.7-.7 4.6-2.2.8-1.5 1.6-4.4 4.2-5.7 0 0 .1 0 .2-.1l7.7-2.4c1.5-.4 2.7-.8 3.5-1.2 2.2-1.2 5.2-3.3 6.8-3.7 1.6-.4 2.9-3.1 3.5-4.7.6-1.6 2.4-6.2 2.7-9.4.3-3.2-.8-4.9-2.1-4.3-1.2.6-5 5.1-5.6 7.2-.6 2.1-2.4 7-2.4 7s-3.8.5-6.4 2l-7.7 5.1z"/></g><path d="M384 335.7h-.3c-59.5-9.4-60.2-61-60.2-63.1v-87.2h121v87.2c0 2.2-.7 53.7-60.2 63.1h-.3zm-56.8-146.6v83.4c0 2.1.6 50.4 56.8 59.4 56.1-9 56.8-57.4 56.8-59.4v-83.4H327.2z" fill="#f5f5f5"/></g></svg>