<svg version="1.1" id="Layer_1" xmlns="http://www.w3.org/2000/svg" x="0" y="0" viewBox="0 0 512 512" xml:space="preserve"><style>.st1{fill:#cf142b}.st3{fill:#96877d}</style><path fill="#fff" d="M0 88h256v336H0z"/><path class="st1" d="M256 88h256v336H256z"/><g id="cross"><path class="st1" d="M73.6 108.9v23.6c1.3.1 2.8.6 4 1.8s1.8 2.7 1.8 4H103v23.5H79.4c-.1 1.3-.6 2.8-1.8 4s-2.7 1.8-4 1.8v23.6H50v-23.6c-1.3-.1-2.8-.6-4-1.8s-1.8-2.7-1.8-4H20.6v-23.5h23.6c.1-1.3.6-2.8 1.8-4s2.7-1.8 4-1.8v-23.6h23.6m2.9-3H47.1v24.2c-1.1.5-2.2 1.2-3.1 2.1-.9.9-1.6 2-2.1 3.1H17.7V164.6h24.2c.5 1.1 1.2 2.2 2.1 3.1.9.9 2 1.6 3.1 2.1V194H76.4v-24c1.1-.5 2.2-1.2 3.1-2.1.9-.9 1.6-2 2.1-3.1H105.9V135.5H81.7c-.5-1.1-1.2-2.2-2.1-3.1-.9-.9-2-1.6-3.1-2.1V105.9z"/><path fill="#ccc" d="M103 138.3H73.6v-29.4H50v29.4H20.6v23.5H50v29.5h23.6v-29.5H103z"/><circle class="st3" cx="61.8" cy="150.1" r="11.8"/><ellipse transform="rotate(-45.001 48.654 163.209)" class="st3" cx="48.7" cy="163.2" rx="3.7" ry="5.2"/><ellipse transform="rotate(-45.001 74.931 163.2)" class="st3" cx="74.9" cy="163.2" rx="5.2" ry="3.7"/><ellipse transform="rotate(-45.001 74.921 136.937)" class="st3" cx="74.9" cy="136.9" rx="3.7" ry="5.2"/><ellipse transform="rotate(-45.001 48.65 136.932)" class="st3" cx="48.7" cy="136.9" rx="5.2" ry="3.7"/><path class="st3" d="M61.8 166.2c-8.9 0-16.1-7.2-16.1-16.1S52.9 134 61.8 134s16.1 7.2 16.1 16.1c0 8.9-7.2 16.1-16.1 16.1zm0-30.8c-8.1 0-14.6 6.6-14.6 14.6s6.6 14.6 14.6 14.6S76.4 158 76.4 150s-6.5-14.6-14.6-14.6z"/></g></svg>