<?xml version="1.0" encoding="utf-8"?>
<!-- Generator: Adobe Illustrator 25.0.0, SVG Export Plug-In . SVG Version: 6.00 Build 0)  -->
<svg version="1.1" id="Layer_1" xmlns="http://www.w3.org/2000/svg" xmlns:xlink="http://www.w3.org/1999/xlink" x="0px" y="0px"
	 viewBox="0 0 512 512" style="enable-background:new 0 0 512 512;" xml:space="preserve">
<style type="text/css">
	.st0{fill:#007E3A;}
	.st1{fill:#D21034;}
	.st2{fill:#FFFFFF;}
</style>
<path class="st0" d="M441.4,158.9v194.2H70.6V158.9H441.4"/>
<path class="st1" d="M0,88.3v336h512v-336H0z M441.4,353.1H70.6V158.9h370.8V353.1z"/>
<path class="st2" d="M238.4,256c0-33.4,22.8-61.4,53.6-69.5c1-0.3,1-1.8-0.1-1.9c-2.8-0.4-5.6-0.6-8.5-0.6c-39.8,0-72,32.2-72,72
	c0,39.6,32.2,71.9,72,71.9c2.9,0,5.7-0.2,8.5-0.6c1.1-0.1,1.1-1.6,0.1-1.9C261.1,317.3,238.4,289.3,238.4,256z"/>
</svg>
