<?xml version="1.0" encoding="utf-8"?>
<!-- Generator: Adobe Illustrator 25.0.0, SVG Export Plug-In . SVG Version: 6.00 Build 0)  -->
<svg version="1.1" id="Layer_1" xmlns="http://www.w3.org/2000/svg" xmlns:xlink="http://www.w3.org/1999/xlink" x="0px" y="0px"
	 viewBox="0 0 512 512" style="enable-background:new 0 0 512 512;" xml:space="preserve">
<style type="text/css">
	.st0{fill:#CE1126;}
	.st1{fill:#339E35;}
</style>
<rect y="88.3" width="512" height="112"/>
<rect y="200" class="st0" width="512" height="112"/>
<rect y="311.7" class="st1" width="512" height="112"/>
<g>
	<path class="st0" d="M324.6,189.5c-13.8-23.6-39.3-39.5-68.6-39.5s-54.8,15.9-68.6,39.5H324.6z"/>
	<path class="st0" d="M260.6,112.6c0,4-4.6,28.7-4.6,28.7s-4.6-24.7-4.6-28.7c0-4,2-7.2,4.6-7.2
		C258.5,105.4,260.6,108.6,260.6,112.6z"/>
	<path class="st0" d="M341.7,150c-2.8,2.8-23.5,17.1-23.5,17.1s14.3-20.7,17.1-23.5c2.8-2.8,6.5-3.6,8.3-1.8
		C345.4,143.4,344.5,147.2,341.7,150z"/>
	<path class="st0" d="M176.7,143.5c2.8,2.8,17.1,23.5,17.1,23.5s-20.7-14.3-23.5-17.1c-2.8-2.8-3.6-6.5-1.8-8.3
		C170.2,139.9,173.9,140.7,176.7,143.5z"/>
	<path class="st0" d="M215.6,119.7c1.5,3.7,6.8,28.3,6.8,28.3s-13.7-21.1-15.2-24.8c-1.5-3.7-0.9-7.4,1.5-8.4
		C210.9,113.8,214,116,215.6,119.7z"/>
	<path class="st0" d="M304.9,123.2c-1.5,3.7-15.2,24.8-15.2,24.8s5.2-24.6,6.8-28.3c1.5-3.7,4.6-5.8,7-4.9S306.4,119.5,304.9,123.2z
		"/>
	<path class="st0" d="M237.3,114c0.8,3.9,1.2,29,1.2,29s-9.4-23.3-10.2-27.2c-0.8-3.9,0.6-7.4,3-7.9
		C233.8,107.3,236.5,110.1,237.3,114z"/>
	<path class="st0" d="M324.3,134.5c-2.2,3.3-19.7,21.4-19.7,21.4s9.9-23.1,12-26.4s5.7-4.9,7.8-3.5S326.5,131.2,324.3,134.5z"/>
	<path class="st0" d="M161.3,161c3.3,2.2,21.4,19.7,21.4,19.7s-23.1-9.9-26.4-12s-4.9-5.7-3.5-7.8C154.1,158.7,158,158.8,161.3,161z
		"/>
	<path class="st0" d="M194.6,129.9c2.2,3.3,12.2,26.3,12.2,26.3s-17.6-18-19.8-21.2c-2.2-3.3-2.3-7.1-0.2-8.5
		C188.9,125.1,192.4,126.6,194.6,129.9z"/>
	<path class="st0" d="M355.3,167.8C352,170,329,180.1,329,180.1s18-17.6,21.2-19.8c3.3-2.2,7.1-2.3,8.5-0.2
		C360.1,162.1,358.6,165.6,355.3,167.8z"/>
	<path class="st0" d="M282.8,115.6c-0.8,3.9-10,27.3-10,27.3s0.3-25.1,1-29c0.8-3.9,3.4-6.6,5.8-6.2
		C282.2,108.2,283.6,111.7,282.8,115.6z"/>
	<path class="st0" d="M285.5,116.3c-1.2,3.8-4,28.8-4,28.8s11.5-22.3,12.7-26.1c1.2-3.8,0.1-7.5-2.3-8.2
		C289.6,110,286.7,112.5,285.5,116.3z"/>
	<path class="st0" d="M197,128.5c1.9,3.5,17.5,23.2,17.5,23.2s-7.6-24-9.5-27.5c-1.9-3.5-5.2-5.4-7.4-4.2
		C195.4,121.2,195.1,125,197,128.5z"/>
	<path class="st0" d="M356.8,170.2c-3.5,1.9-23.2,17.5-23.2,17.5s24-7.6,27.5-9.5c3.5-1.9,5.4-5.2,4.2-7.4
		C364.1,168.7,360.3,168.4,356.8,170.2z"/>
	<path class="st0" d="M326.5,136.2c-2.5,3.1-14.7,25.1-14.7,25.1s19.2-16.2,21.7-19.3c2.5-3.1,3-6.8,1-8.4
		C332.6,131.9,329,133.1,326.5,136.2z"/>
	<path class="st0" d="M162.9,158.7c3.1,2.5,25.1,14.7,25.1,14.7s-16.2-19.2-19.3-21.7s-6.8-3-8.4-1
		C158.7,152.6,159.9,156.2,162.9,158.7z"/>
	<path class="st0" d="M240,113.6c0.4,3.9,7.3,28.1,7.3,28.1s2.1-25.1,1.7-29c-0.4-3.9-2.7-6.9-5.2-6.7
		C241.4,106.2,239.7,109.6,240,113.6z"/>
	<path class="st0" d="M263.1,112.7c-0.4,3.9,1.7,29,1.7,29s7-24.2,7.4-28.1s-1.3-7.3-3.8-7.6C265.8,105.7,263.5,108.7,263.1,112.7z"
		/>
	<path class="st0" d="M178.6,141.8c2.5,3.1,21.7,19.3,21.7,19.3s-12.1-22-14.6-25.1c-2.5-3.1-6.1-4.3-8.1-2.7
		C175.6,135,176.1,138.8,178.6,141.8z"/>
	<path class="st0" d="M343.4,151.8c-3.1,2.5-19.3,21.7-19.3,21.7s22-12.1,25.1-14.6s4.3-6.1,2.7-8.1
		C350.3,148.8,346.5,149.3,343.4,151.8z"/>
	<path class="st0" d="M307.1,124.3c-1.9,3.5-9.5,27.4-9.5,27.4s15.7-19.6,17.6-23.1c1.9-3.5,1.6-7.3-0.6-8.5
		C312.3,118.9,309,120.8,307.1,124.3z"/>
	<path class="st0" d="M151,178.1c3.5,1.9,27.4,9.5,27.4,9.5s-19.6-15.7-23.1-17.6c-3.5-1.9-7.3-1.6-8.5,0.6
		C145.7,172.9,147.5,176.2,151,178.1z"/>
	<path class="st0" d="M217.9,118.8c1.1,3.8,12.7,26.1,12.7,26.1s-2.8-25-3.9-28.8c-1.1-3.8-4-6.3-6.4-5.5
		C217.8,111.4,216.8,115.1,217.9,118.8z"/>
</g>
</svg>
