<svg version="1.1" id="Layer_1" xmlns="http://www.w3.org/2000/svg" x="0" y="0" viewBox="0 0 512 512" xml:space="preserve"><style>.st0{fill:#ce1126}</style><path d="M0 88.3h512v112H0z"/><path class="st0" d="M0 200h512v112H0z"/><path fill="#339e35" d="M0 311.7h512v112H0z"/><path class="st0" d="M324.6 189.5C310.8 165.9 285.3 150 256 150s-54.8 15.9-68.6 39.5h137.2zM260.6 112.6c0 4-4.6 28.7-4.6 28.7s-4.6-24.7-4.6-28.7 2-7.2 4.6-7.2c2.5 0 4.6 3.2 4.6 7.2zM341.7 150c-2.8 2.8-23.5 17.1-23.5 17.1s14.3-20.7 17.1-23.5c2.8-2.8 6.5-3.6 8.3-1.8 1.8 1.6.9 5.4-1.9 8.2zM176.7 143.5c2.8 2.8 17.1 23.5 17.1 23.5s-20.7-14.3-23.5-17.1c-2.8-2.8-3.6-6.5-1.8-8.3 1.7-1.7 5.4-.9 8.2 1.9zM215.6 119.7c1.5 3.7 6.8 28.3 6.8 28.3s-13.7-21.1-15.2-24.8c-1.5-3.7-.9-7.4 1.5-8.4 2.2-1 5.3 1.2 6.9 4.9zM304.9 123.2c-1.5 3.7-15.2 24.8-15.2 24.8s5.2-24.6 6.8-28.3c1.5-3.7 4.6-5.8 7-4.9s2.9 4.7 1.4 8.4zM237.3 114c.8 3.9 1.2 29 1.2 29s-9.4-23.3-10.2-27.2c-.8-3.9.6-7.4 3-7.9 2.5-.6 5.2 2.2 6 6.1zM324.3 134.5c-2.2 3.3-19.7 21.4-19.7 21.4s9.9-23.1 12-26.4 5.7-4.9 7.8-3.5 2.1 5.2-.1 8.5zM161.3 161c3.3 2.2 21.4 19.7 21.4 19.7s-23.1-9.9-26.4-12-4.9-5.7-3.5-7.8c1.3-2.2 5.2-2.1 8.5.1zM194.6 129.9c2.2 3.3 12.2 26.3 12.2 26.3s-17.6-18-19.8-21.2c-2.2-3.3-2.3-7.1-.2-8.5 2.1-1.4 5.6.1 7.8 3.4zM355.3 167.8C352 170 329 180.1 329 180.1s18-17.6 21.2-19.8c3.3-2.2 7.1-2.3 8.5-.2 1.4 2-.1 5.5-3.4 7.7zM282.8 115.6c-.8 3.9-10 27.3-10 27.3s.3-25.1 1-29c.8-3.9 3.4-6.6 5.8-6.2 2.6.5 4 4 3.2 7.9zM285.5 116.3c-1.2 3.8-4 28.8-4 28.8s11.5-22.3 12.7-26.1c1.2-3.8.1-7.5-2.3-8.2-2.3-.8-5.2 1.7-6.4 5.5zM197 128.5c1.9 3.5 17.5 23.2 17.5 23.2s-7.6-24-9.5-27.5c-1.9-3.5-5.2-5.4-7.4-4.2-2.2 1.2-2.5 5-.6 8.5zM356.8 170.2c-3.5 1.9-23.2 17.5-23.2 17.5s24-7.6 27.5-9.5c3.5-1.9 5.4-5.2 4.2-7.4-1.2-2.1-5-2.4-8.5-.6zM326.5 136.2c-2.5 3.1-14.7 25.1-14.7 25.1s19.2-16.2 21.7-19.3c2.5-3.1 3-6.8 1-8.4-1.9-1.7-5.5-.5-8 2.6zM162.9 158.7c3.1 2.5 25.1 14.7 25.1 14.7s-16.2-19.2-19.3-21.7-6.8-3-8.4-1c-1.6 1.9-.4 5.5 2.6 8zM240 113.6c.4 3.9 7.3 28.1 7.3 28.1s2.1-25.1 1.7-29c-.4-3.9-2.7-6.9-5.2-6.7-2.4.2-4.1 3.6-3.8 7.6zM263.1 112.7c-.4 3.9 1.7 29 1.7 29s7-24.2 7.4-28.1-1.3-7.3-3.8-7.6c-2.6-.3-4.9 2.7-5.3 6.7zM178.6 141.8c2.5 3.1 21.7 19.3 21.7 19.3s-12.1-22-14.6-25.1c-2.5-3.1-6.1-4.3-8.1-2.7-2 1.7-1.5 5.5 1 8.5zM343.4 151.8c-3.1 2.5-19.3 21.7-19.3 21.7s22-12.1 25.1-14.6 4.3-6.1 2.7-8.1c-1.6-2-5.4-1.5-8.5 1zM307.1 124.3c-1.9 3.5-9.5 27.4-9.5 27.4s15.7-19.6 17.6-23.1c1.9-3.5 1.6-7.3-.6-8.5-2.3-1.2-5.6.7-7.5 4.2zM151 178.1c3.5 1.9 27.4 9.5 27.4 9.5s-19.6-15.7-23.1-17.6c-3.5-1.9-7.3-1.6-8.5.6-1.1 2.3.7 5.6 4.2 7.5zM217.9 118.8c1.1 3.8 12.7 26.1 12.7 26.1s-2.8-25-3.9-28.8c-1.1-3.8-4-6.3-6.4-5.5-2.5.8-3.5 4.5-2.4 8.2z"/></svg>