<svg version="1.1" id="Layer_1" xmlns="http://www.w3.org/2000/svg" x="0" y="0" viewBox="0 0 512 512" xml:space="preserve"><style>.st3{fill:#fdd158}.st4{fill:#00969c}.st6{fill:#5e3212}</style><path fill="#006847" d="M0 88.3h170.7v336H0z"/><path fill="#fff" d="M170.7 88.3h170.7v336H170.7z"/><path fill="#ce1126" d="M341.3 88.3H512v336H341.3z"/><g id="Crest"><path class="st3" d="M271.2 263.9l-15.2 7.6v7.6h7.6z"/><path class="st4" d="M256 298.2c-2.1 0-3.8-1.7-3.8-3.8v-15.2c0-2.1 1.7-3.8 3.8-3.8s3.8 1.7 3.8 3.8v15.2c0 2-1.7 3.8-3.8 3.8z"/><path class="st4" d="M256 282.9c-15 0-29.4-5.8-40.7-16.2-1.5-1.4-1.6-3.8-.2-5.4 1.4-1.5 3.8-1.6 5.4-.2 9.9 9.2 22.5 14.2 35.5 14.2s25.6-5 35.5-14.2c1.5-1.4 3.9-1.3 5.4.2 1.4 1.5 1.3 3.9-.2 5.4-11.3 10.5-25.7 16.2-40.7 16.2z"/><path d="M256 298.2c-9.8 0-19.2-2.9-27.3-8.2l4.2-6.3c13.7 9.1 32.5 9.1 46.2 0l4.2 6.3c-8.1 5.3-17.5 8.2-27.3 8.2z" fill="#30c2dc"/><path class="st6" d="M250 246.8l-8.4 13-1.5 4.3L262 259z"/><path d="M232.7 268.2c-10.1 0-22.1-8.5-25.3-27.3l7.5-1.3c2.7 15.7 12.3 21 18.1 21 1.8 0 3.6-.7 3.8-1.9.2-1.5.2-1.9-3.8-3.2-2.2-.7-4.6-1.6-6.3-3.5-7-8 2.5-16.4 7-20.4.8-.7 1.1-1.3 1-1.6-.2-.7-1.7-1.6-3.4-1.6-4.8 0-8.5-2.7-9.6-7.1-1.1-4.6 1-9.3 5-11.4l3.5 6.8c-.9.5-1.3 1.9-1.1 2.8.1.4.3 1.3 2.2 1.3 4.7 0 9.1 2.8 10.5 6.5.6 1.6 1.5 5.8-3.1 9.9-5 4.5-8 7.8-6.3 9.7.4.4 2 1 3 1.3 3.4 1.2 9.8 3.3 8.9 11.3-.6 5-5 8.5-11.1 8.7h-.5z" fill="#b8b987"/><path class="st6" d="M263.6 225.8s7.6-15.2-7.6-22.8c0 0 53.3-7.6 45.7 60.9-5-4-12.4-11.3-15.1-17.1l-23-13.3v-7.7zM256 241.1l38.1 22.8-15.2 7.6-22.9-22.8v-7.6z"/><path class="st6" d="M240.8 218.2c4.2 0 7.6 3.4 7.6 7.6-4.5 4.5-5.7 11.5-2.8 17.2l1.7 3.4c.7 1.4 1.7 2.7 2.8 3.9l21.1 21.1V261c0-13.1-3.1-26-8.9-37.8-3.9-7.7-11.8-12.6-20.4-12.6h-1.1v7.6z"/><path class="st3" d="M240.8 210.6l-7.6 7.6v7.6s9.1-4.6 12.1-6.1c2.1-1 1.7-3.4.5-4.6-1-.8-5-4.5-5-4.5z"/><path d="M256 313.4c-35.7 0-64.7-29-64.7-64.7h7.6c0 31.5 25.6 57.1 57.1 57.1s57.1-25.6 57.1-57.1h7.6c0 35.6-29 64.7-64.7 64.7z" fill="#aeaf7e"/><circle class="st3" cx="199.3" cy="271.3" r="5.2"/><circle class="st3" cx="210.7" cy="289.5" r="5.2"/><circle class="st3" cx="229.3" cy="303.3" r="5.2"/><circle class="st3" cx="313.2" cy="271.3" r="5.2"/><circle class="st3" cx="301.8" cy="289.5" r="5.2"/><circle class="st3" cx="283.2" cy="303.3" r="5.2"/><path d="M259.8 302h-7.6c-4.2 0-7.6-3.4-7.6-7.6 0-4.2 3.4-7.6 7.6-7.6h7.6c4.2 0 7.6 3.4 7.6 7.6 0 4.1-3.4 7.6-7.6 7.6z" fill="#ffb478"/><path d="M286.6 246.8c2.5 7.5 7.9 14.3 15.1 17.1C309.3 195.4 256 203 256 203c38.1 0 30.6 43.8 30.6 43.8z" fill="#a35627"/></g></svg>