<svg version="1.1" id="Layer_1" xmlns="http://www.w3.org/2000/svg" x="0" y="0" viewBox="0 0 512 512" xml:space="preserve"><style>.st2{fill:#fff}.st3{fill:#cc0001}.st4{fill:#fc0}</style><path d="M309 280H8.8C4 280 0 276 0 271.1v-174c0-4.9 4-8.8 8.8-8.8H309c4.9 0 8.8 4 8.8 8.8v174c0 4.9-4 8.9-8.8 8.9z" fill="#41479b"/><path fill="#010066" d="M0 88.3v191.5h317.8V88.3z"/><path class="st2" d="M317.8 255.8H512v24H317.8z"/><path class="st3" d="M317.8 231.9H512v24H317.8z"/><path class="st2" d="M317.8 208H512v24H317.8z"/><path class="st3" d="M317.8 184H512v24H317.8z"/><path class="st2" d="M317.8 160.1H512v24H317.8z"/><path class="st3" d="M317.8 136.1H512v24H317.8z"/><path class="st2" d="M317.8 112.2v24H512v-24z"/><path class="st3" d="M317.8 88.3v24H512v-24zM0 279.8h512v24H0z"/><path class="st2" d="M0 303.7h512v24H0z"/><path class="st3" d="M0 327.6h512v24H0z"/><path class="st2" d="M0 351.6h512v24H0z"/><path class="st3" d="M0 375.5h512v24H0z"/><path class="st2" d="M0 399.4h512v24H0z"/><path class="st4" d="M83.9 184c0-33.4 27.1-60.5 60.5-60.5 8.4 0 16.4 1.7 23.6 4.8.9.4 1.7-.9.8-1.5-12-8.2-26.7-12.7-42.5-11.9-34.7 1.8-63 29.7-65.3 64.4-2.6 40.3 29.3 73.7 69 73.7 14.3 0 27.7-4.4 38.7-11.9.9-.6.1-1.9-.8-1.5-7.2 3.1-15.2 4.8-23.6 4.8-33.3.1-60.4-27-60.4-60.4"/><path class="st4" d="M222.1 184l25.6-9.9c1.3-.5.8-2.4-.5-2.3l-27.3 2.2 18.8-20.1c.9-1-.3-2.5-1.4-1.8L213.4 166l8.2-26.2c.4-1.3-1.3-2.1-2.1-1l-15.4 22.7-3.9-27.1c-.2-1.3-2.1-1.3-2.3 0l-2.5 17.2-1 7.3-.4 2.7-15.4-22.7c-.8-1.1-2.5-.3-2.1 1l8.2 26.2-23.7-13.9c-1.2-.7-2.4.8-1.4 1.8l18.8 20.1-27.3-2.2c-1.4-.1-1.8 1.8-.5 2.3L176 184l-25.6 9.9c-1.3.5-.8 2.4.5 2.3l27.3-2.2-18.8 20.1c-.9 1 .3 2.5 1.5 1.8l23.7-13.9-8.2 26.2c-.4 1.3 1.3 2.1 2.1 1l15.4-22.7.4 2.8 1 7.2 2.5 17.2c.2 1.3 2.1 1.3 2.3 0l3.9-27.2 15.4 22.7c.8 1.1 2.5.3 2.1-1l-8.2-26.2 23.7 13.9c1.2.7 2.4-.8 1.5-1.8L219.8 194l27.3 2.2c1.4.1 1.8-1.8.5-2.3l-25.5-9.9z"/></svg>