<svg version="1.1" id="Layer_1" xmlns="http://www.w3.org/2000/svg" x="0" y="0" viewBox="0 0 512 512" xml:space="preserve"><style>.st1{fill:#fce100}.st2{fill:#fff}</style><path fill="#d21034" d="M0 88.3v336l208.3-168z"/><path class="st1" d="M127 321.8L.7 423.7H512V321.8z"/><path class="st2" d="M512 286.5v20.4H145.5L127 321.8h385v35.4-70.7z"/><path d="M144.8 205.1l63.5 51.2-62.8 50.6H512V205.1z"/><path class="st2" d="M512 166.4v23.8H126.3l18.5 14.9H512V237v-70.6z"/><path fill="#007168" d="M0 88.3l126.3 101.9H512V88.3z"/><g id="shield"><path class="st1" d="M81.8 198.6l12.9 38.7 40.8.3c2.3 0 3.2 2.9 1.4 4.3l-32.8 24.2 12.3 38.9c.7 2.2-1.8 4-3.6 2.6l-33.2-23.7-33.2 23.7c-1.9 1.3-4.3-.5-3.6-2.6L55 266.1l-32.8-24.2c-1.8-1.4-.9-4.3 1.4-4.3l40.8-.3 12.9-38.7c.7-2.2 3.8-2.2 4.5 0z"/><path class="st2" d="M77.2 270.4l-3.2 3.2H47.3l7.3-26.7 3-1.5-4.8 23.8c0 .3 0 .6.2.8.2.2.5.4.7.4h23.5zM83.6 274.9c-1.2.9-2.6 1.4-4 1.4s-2.9-.5-4-1.4l4-4 4 4zM111.8 273.7H85.1l-3.2-3.2h23.4c.3 0 .6-.1.7-.4.2-.2.3-.5.2-.8l-4.8-23.8 3 1.5 7.4 26.7z"/><path class="st2" d="M104.2 268.5H80.5v-24.4c4-3.3 14.4-1.1 18.8.3l4.9 24.1zM78.6 244.1v24.4H55l4.8-24.1c4.4-1.3 14.8-3.6 18.8-.3z"/><g><path d="M114 274.4l-7.7-28.4c-.1-.3-.3-.5-.5-.6l-5.2-2.6h-.1c-.6-.2-14.9-4.9-20.9-.3-6-4.6-20.3.1-20.9.3h-.1l-5.2 2.6c-.3.1-.4.4-.5.6l-7.7 28.4c-.1.3 0 .6.2.8.2.2.5.4.8.4h27.4c1.6 1.6 3.8 2.6 6.1 2.6s4.5-1 6.1-2.6h27.4c.3 0 .6-.2.8-.4.1-.2.1-.5 0-.8zm-33.5-30.3c4-3.3 14.4-1.1 18.8.3l4.8 24.1H80.5v-24.4zm-20.7.3c4.4-1.4 14.9-3.7 18.8-.3v24.4H55l4.8-24.1zm-12.5 29.3l7.3-26.7 3-1.5-4.8 23.8c0 .3 0 .6.2.8.2.2.5.4.7.4h23.4l-3.2 3.2H47.3zm32.3 2.5c-1.5 0-2.9-.5-4-1.4l4-4 4 4c-1.2 1-2.6 1.4-4 1.4zm5.5-2.5l-3.2-3.2h23.4c.3 0 .6-.1.7-.4.2-.2.3-.5.2-.8l-4.8-23.8 3 1.5 7.3 26.7H85.1z"/><path d="M104 218.6c-1 .7-2.3.6-3.2-.3l-1.3-1.3v3.2l-8 8h-3.2l-12.7 12.7h-3.2l-24.5 24.5c-.6.6-.8 1.5-.5 2.3l1.2 3.5-4.8 4.8h-3.2l-9.7 9.7c-.8.8-.8 2 0 2.8l6.4 6.4c.9.9 2.5.9 3.3-.1L55 277.5l1.6-4.8 3.2-3.2 6.4 9.6 4.8-4.8-5.1-7.6 1.3-1.3c1.2-1.2 1.2-3.2 0-4.5l-1-1 .9-.9c6.8 5.8 15 7.3 22.7 4l-2.7-6.2c-6.4 2.8-11.7.5-15.3-2.5l13.5-13.5-.5-2.7 3.7-3.7h3.2l23.9-23.9-11.6 8.1z"/><path d="M56.5 215.4l-3.2 3.2c-.9.9-.9 2.3 0 3.2l.5.5-5.3 1.1-14.3 14.3 8 8 14.3-14.3 1.1-5.3 2.1 2.1 1.6-1.6 53 53 3.2-3.2-53-53 1.6-1.6-6.4-6.4c-.9-.9-2.3-.9-3.2 0z"/></g></g></svg>