<svg version="1.1" id="Layer_1" xmlns="http://www.w3.org/2000/svg" x="0" y="0" viewBox="0 0 512 512" xml:space="preserve"><style>.st3{fill:#fff}.st4{fill:#ffce00}</style><path fill="#003580" d="M0 88.3v251.1L382.6 88.3z"/><path fill="#009543" d="M512 424.3V173.2L129.4 424.3z"/><path fill="#d21034" d="M512 142.1V88.3h-82L0 370.5v53.8h82z"/><path class="st3" d="M382.6 88.3L0 339.4v31.1L430 88.3zM129.4 424.3L512 173.2v-31.1L82 424.3z"/><path class="st4" d="M90.2 145.9c8.7 0 16.6 3.5 22.3 9.2l3.1-21.7L98.4 147l-8.1-20.4-8.2 20.4-17.2-13.6 3.1 21.7c5.7-5.7 13.5-9.2 22.2-9.2zM67.9 199.6c-5.7-5.7-9.2-13.6-9.2-22.3 0-8.7 3.5-16.6 9.2-22.3l-21.7-3 13.6 17.2-20.4 8.1 20.4 8.1-13.6 17.2 21.7-3zM141 177.4l-20.4-8.1 13.6-17.2-21.7 3.1c5.7 5.7 9.2 13.6 9.2 22.3 0 8.7-3.5 16.6-9.2 22.3l21.7 3.1-13.6-17.2 20.4-8.3zM90.2 208.9c-8.7 0-16.6-3.5-22.3-9.2l-3.1 21.7L82 207.8l8.1 20.4 8.1-20.4 17.2 13.6-3.1-21.7c-5.5 5.6-13.4 9.2-22.1 9.2z"/><circle class="st4" cx="90.2" cy="177.4" r="25.7"/></svg>