<svg version="1.1" id="Layer_1" xmlns="http://www.w3.org/2000/svg" x="0" y="0" viewBox="0 0 512 512" xml:space="preserve"><style>.st2{fill:#ed2939}</style><path id="Path" fill="#02a257" d="M256 319h256v105H256z"/><path id="Path_2_" fill="#0051ba" d="M256 88h256v105H256z"/><path class="st2" d="M256 193h256v126H256z"/><g id="Group-2" transform="translate(66 42)"><circle id="Oval" cx="318" cy="213.8" r="100.4" fill="#fce738" stroke="#000" stroke-width="5.3"/><path id="Combined-Shape" d="M321.8 113.5l-.2 19.1 6.3-3.1 3.6 7.1-10 4.9-.1 15.1v.4c4.8 2 8.1 6.8 8.1 12.3s-3.4 10.3-8.1 12.3v9.2h9.7v6.4h-9.7v8.1c4.7 1.1 8.1 3.8 8.1 7v.2c0 3.3-3.4 6.1-8.1 7.2v7.4h9.7v6.4h-9.7v8.3c3.4 2.8 5.7 8.3 5.8 14.8v.3c0 6.5-2.4 12.2-5.8 15v7.1s9.7.8 14.1 2.6c3 1.3 7.8 5.3 12.5 9.6l.7.6c6.3 5.7 12.1 11.8 12.5 12.2l-20.3 7.7-23.1 2.7-24.1-1.5-22.9-9.9c.7-.7 18.3-18.7 25.9-21.4 5.5-1.9 14.3-2.4 14.3-2.4v-7.7c-3.2-3-5.3-8.4-5.3-14.7s2.2-11.7 5.3-14.7v-8.6h-10V227h10v-7.7c-4.1-1.3-6.9-3.7-6.9-6.7v-.2c0-3 2.8-5.6 6.9-6.9V197h-10v-6.4h10v-9.1c-4.8-2-8.1-6.6-8.2-12v-.2c0-5.6 3.4-10.3 8.2-12.4v-1.4l-.1-8.9-7 3.5-3.6-7.1 10.5-5.3-.1-24.3h11.1z"/></g><path fill="#002395" d="M0 88h85.3v336H0z"/><path fill="#fff" d="M85.3 88h85.3v336H85.3z"/><path class="st2" d="M170.6 88H256v336h-85.4z"/></svg>