<?xml version="1.0" encoding="utf-8"?>
<!-- Generator: Adobe Illustrator 25.0.0, SVG Export Plug-In . SVG Version: 6.00 Build 0)  -->
<svg version="1.1" id="Layer_1" xmlns="http://www.w3.org/2000/svg" xmlns:xlink="http://www.w3.org/1999/xlink" x="0px" y="0px"
	 viewBox="0 0 512 512" style="enable-background:new 0 0 512 512;" xml:space="preserve">
<style type="text/css">
	.st0{fill:#02A257;}
	.st1{fill:#0051BA;}
	.st2{fill:#ED2939;}
	.st3{fill:#FCE738;stroke:#000000;stroke-width:5.3;}
	.st4{fill:#002395;}
	.st5{fill:#FFFFFF;}
</style>
<polygon id="Path" class="st0" points="256,319 512,319 512,424 256,424 "/>
<polygon id="Path_2_" class="st1" points="256,88 512,88 512,193 256,193 "/>
<rect x="256" y="193" class="st2" width="256" height="126"/>
<g id="Group-2" transform="translate(66.000000, 42.000000)">
	<circle id="Oval" class="st3" cx="318" cy="213.8" r="100.4"/>
	<path id="Combined-Shape" d="M321.8,113.5l-0.2,19.1l6.3-3.1l3.6,7.1l-10,4.9l-0.1,15.1v0.4c4.8,2,8.1,6.8,8.1,12.3
		s-3.4,10.3-8.1,12.3v9.2h9.7v6.4h-9.7v8.1c4.7,1.1,8.1,3.8,8.1,7v0.2c0,3.3-3.4,6.1-8.1,7.2v7.4h9.7v6.4h-9.7v8.3
		c3.4,2.8,5.7,8.3,5.8,14.8v0.3c0,6.5-2.4,12.2-5.8,15v7.1c0,0,9.7,0.8,14.1,2.6c3,1.3,7.8,5.3,12.5,9.6l0.7,0.6
		c6.3,5.7,12.1,11.8,12.5,12.2l0,0l0,0l-20.3,7.7l-23.1,2.7l-24.1-1.5l-22.9-9.9l0,0c0.7-0.7,18.3-18.7,25.9-21.4
		c5.5-1.9,14.3-2.4,14.3-2.4v-7.7c-3.2-3-5.3-8.4-5.3-14.7s2.2-11.7,5.3-14.7v-8.6h-10V227h10v-7.7c-4.1-1.3-6.9-3.7-6.9-6.7v-0.2
		c0-3,2.8-5.6,6.9-6.9v-8.5h-10v-6.4h10v-9.1c-4.8-2-8.1-6.6-8.2-12v-0.2c0-5.6,3.4-10.3,8.2-12.4v-1.4l-0.1-8.9l-7,3.5l-3.6-7.1
		l10.5-5.3l-0.1-24.3H321.8z"/>
</g>
<rect y="88" class="st4" width="85.3" height="336"/>
<rect x="85.3" y="88" class="st5" width="85.3" height="336"/>
<rect x="170.6" y="88" class="st2" width="85.4" height="336"/>
</svg>
