<?xml version="1.0" encoding="utf-8"?>
<!-- Generator: Adobe Illustrator 25.0.0, SVG Export Plug-In . SVG Version: 6.00 Build 0)  -->
<svg version="1.1" id="Layer_1" xmlns="http://www.w3.org/2000/svg" xmlns:xlink="http://www.w3.org/1999/xlink" x="0px" y="0px"
	 viewBox="0 0 512 512" style="enable-background:new 0 0 512 512;" xml:space="preserve">
<style type="text/css">
	.st0{fill:#0067C6;}
	.st1{fill:#FFFFFF;}
	.st2{fill:#6FD8F3;}
	.st3{fill:#97C924;}
	.st4{fill:#FFE14E;}
	.st5{fill:#73AF00;}
	.st6{fill:#41479B;}
	.st7{fill:#5AA0E6;}
	.st8{fill:#9BC800;}
	.st9{fill:#FFB14E;}
	.st10{fill:#FF4B55;}
	.st11{fill:#FF0000;}
</style>
<rect y="88.3" class="st0" width="512" height="112"/>
<rect y="200.3" class="st1" width="512" height="112"/>
<rect y="312.3" class="st0" width="512" height="112"/>
<g id="crest">
	<polygon class="st2" points="256,223.7 229.1,263.3 282.9,263.3 	"/>
	<polygon class="st0" points="229.1,263.3 211.6,288.6 300.4,288.6 282.9,263.3 	"/>
	<g>
		<path class="st3" d="M262.9,261.1c0.1-0.2,0.2-0.4,0.3-0.7C263.1,260.6,263,260.8,262.9,261.1z"/>
		<path class="st3" d="M263.6,259.2c0.1-0.2,0.1-0.4,0.2-0.6C263.8,258.8,263.7,259,263.6,259.2z"/>
		<path class="st3" d="M262,262.7c0.1-0.2,0.3-0.4,0.4-0.7C262.2,262.3,262.1,262.5,262,262.7z"/>
		<path class="st3" d="M266.1,255.3c-0.2,0-0.5,0-0.7,0.1C265.6,255.4,265.9,255.3,266.1,255.3L266.1,255.3z"/>
		<path class="st3" d="M264.8,255.8c-0.3,0.3-0.6,0.6-0.6,1v0v0C264.3,256.4,264.5,256,264.8,255.8z"/>
		<path class="st3" d="M264,267.6c0.4,0.4,0.8,0.7,1.1,1c2-1.7,4.1-4,5.6-6.5c-0.1,0.2-0.2,0.4-0.3,0.5c-1.4-2.5-2.1-4.7-2.5-6
			c-0.2-0.7-1-1.3-1.8-1.3C266.4,258.3,267.2,263.7,264,267.6z"/>
		<path class="st3" d="M272,259.2c0.1-0.2,0.1-0.4,0.2-0.6C272.1,258.8,272,259,272,259.2z"/>
		<path class="st3" d="M273.2,255.8c-0.3,0.3-0.6,0.6-0.6,1v0v0C272.6,256.4,272.8,256,273.2,255.8z"/>
		<path class="st3" d="M271.2,261.1c0.1-0.2,0.2-0.4,0.3-0.7C271.5,260.6,271.3,260.8,271.2,261.1z"/>
		<path class="st3" d="M288.3,269.6c-3.1,0-5.9-1.5-7.7-4c-2.7-3.8-3.9-7.3-4.3-9c-0.2-0.7-1-1.3-1.8-1.3l0,0
			c0.4,3.5,1.4,10.6-4.4,14.3h-3.7c-0.2-0.1-0.3-0.2-0.5-0.4c0,0,0,0,0,0c-1,1.4-3.1,1.7-4.8,0.9c-6.8-3.5-5.7-11.1-5.3-14.8
			c-0.9,0-1.6,0.5-1.8,1.3c-0.4,1.3-1.1,3.5-2.5,6c-0.1-0.2-0.2-0.4-0.3-0.5c1.7,2.9,4.1,5.4,6.3,7.2c-1,1.4-3.1,1.7-4.8,0.9
			c-6.8-3.5-5.7-11.1-5.3-14.8c-0.9,0-1.6,0.5-1.8,1.3c-0.4,1.3-1.1,3.5-2.5,6c-0.1-0.2-0.2-0.4-0.3-0.5c1.7,2.9,4.1,5.4,6.3,7.2
			c-1,1.4-3.1,1.7-4.8,0.9c-6.8-3.5-5.7-11.1-5.3-14.8l0,0c-0.9,0-1.6,0.5-1.8,1.3c-0.5,1.8-1.7,5.3-4.3,9c-1.8,2.5-4.7,4-7.7,4
			h-2.5v3.2h64.9h1.6v-3.2L288.3,269.6L288.3,269.6z"/>
		<path class="st3" d="M258.7,260.4c0.1,0.2,0.2,0.4,0.3,0.7C258.9,260.8,258.8,260.6,258.7,260.4z"/>
		<path class="st3" d="M258.1,258.6c0.1,0.2,0.1,0.4,0.2,0.6C258.2,259,258.2,258.8,258.1,258.6z"/>
		<path class="st3" d="M257.7,256.8L257.7,256.8c-0.1-0.4-0.3-0.8-0.6-1C257.4,256,257.7,256.4,257.7,256.8L257.7,256.8z"/>
		<path class="st3" d="M259.6,262.1c0.1,0.2,0.3,0.4,0.4,0.7C259.8,262.5,259.7,262.3,259.6,262.1z"/>
		<path class="st3" d="M261,264.3C261,264.2,261,264.2,261,264.3c0.1-0.2,0.2-0.4,0.4-0.6C261.2,263.8,261.1,264,261,264.3
			c-0.2-0.2-0.3-0.4-0.4-0.6C260.7,263.9,260.9,264.1,261,264.3z"/>
		<path class="st3" d="M261.7,265.1c0.2,0.2,0.3,0.4,0.5,0.5C262,265.5,261.9,265.3,261.7,265.1z"/>
		<path class="st3" d="M263.4,267c-0.1-0.1-0.3-0.3-0.4-0.5C263.1,266.7,263.3,266.9,263.4,267z"/>
	</g>
	<path class="st4" d="M274.4,255.3L274.4,255.3c-0.5,0-0.9,0.2-1.3,0.4c-0.3,0.3-0.6,0.6-0.6,1v0c-0.1,0.6-0.2,1.2-0.4,1.8
		c-0.1,0.2-0.1,0.4-0.2,0.6c-0.1,0.4-0.3,0.8-0.4,1.2c-0.1,0.2-0.2,0.4-0.3,0.7c-0.2,0.3-0.3,0.7-0.5,1c-1.5,2.6-3.6,4.8-5.6,6.5
		c-0.4-0.3-0.7-0.7-1.1-1c3.1-3.9,2.4-9.3,2.1-12.2l0,0c-0.2,0-0.5,0-0.7,0.1c-0.2,0.1-0.4,0.2-0.6,0.3c-0.3,0.3-0.6,0.6-0.6,1v0
		c-0.1,0.6-0.2,1.2-0.4,1.8c-0.1,0.2-0.1,0.4-0.2,0.6c-0.1,0.4-0.3,0.8-0.4,1.2c-0.1,0.2-0.2,0.4-0.3,0.7c-0.2,0.3-0.3,0.7-0.5,1
		c-0.1,0.2-0.3,0.4-0.4,0.7c-0.2,0.3-0.4,0.6-0.6,0.9c-0.1,0.2-0.3,0.4-0.4,0.5c-0.1-0.2-0.3-0.4-0.4-0.5c-0.2-0.3-0.4-0.6-0.6-0.9
		c-0.1-0.2-0.3-0.4-0.4-0.7c-0.2-0.3-0.4-0.7-0.5-1c-0.1-0.2-0.2-0.4-0.3-0.7c-0.2-0.4-0.3-0.8-0.4-1.2c-0.1-0.2-0.1-0.4-0.2-0.6
		c-0.2-0.6-0.3-1.2-0.4-1.8v0c-0.1-0.4-0.3-0.8-0.6-1c-0.3-0.3-0.8-0.4-1.3-0.4l0,0c-0.4,3.7-1.5,11.3,5.3,14.8
		c1.1,0.6,2.5,0.6,3.6,0c0.7-0.3,1.4-0.6,2.2-0.6h3.1C275.8,265.9,274.8,258.9,274.4,255.3z"/>
	<g>
		<path class="st5" d="M249.7,258.6c0.1,0.2,0.1,0.4,0.2,0.6C249.9,259,249.8,258.8,249.7,258.6z"/>
		<path class="st5" d="M249.4,256.8L249.4,256.8c-0.1-0.4-0.3-0.8-0.6-1C249.1,256,249.3,256.4,249.4,256.8L249.4,256.8z"/>
		<path class="st5" d="M250.4,260.4c0.1,0.2,0.2,0.4,0.3,0.7C250.6,260.8,250.5,260.6,250.4,260.4z"/>
		<path class="st5" d="M247.5,255.3L247.5,255.3c0.2,0,0.5,0,0.7,0.1C248,255.4,247.7,255.3,247.5,255.3z"/>
	</g>
	<path class="st4" d="M252.8,270.2c1.6,0.8,3.7,0.5,4.8-0.9c-2.2-1.8-4.7-4.3-6.3-7.2c-0.2-0.3-0.4-0.7-0.5-1
		c-0.1-0.2-0.2-0.4-0.3-0.7c-0.2-0.4-0.3-0.8-0.4-1.2c-0.1-0.2-0.1-0.4-0.2-0.6c-0.2-0.6-0.3-1.2-0.4-1.8v0c-0.1-0.4-0.3-0.8-0.6-1
		c-0.2-0.1-0.4-0.2-0.6-0.3s-0.4-0.1-0.7-0.1l0,0l0,0l0,0C247.1,259.1,246,266.7,252.8,270.2z"/>
	<g>
		<path class="st5" d="M241.4,258.6c0.1,0.2,0.1,0.4,0.2,0.6C241.5,259,241.5,258.8,241.4,258.6z"/>
		<path class="st5" d="M242,260.4c0.1,0.2,0.2,0.4,0.3,0.7C242.2,260.8,242.1,260.6,242,260.4z"/>
		<path class="st5" d="M241,256.8L241,256.8c-0.1-0.4-0.3-0.8-0.6-1C240.7,256,241,256.4,241,256.8L241,256.8z"/>
	</g>
	<path class="st4" d="M244.4,270.2c1.6,0.8,3.7,0.5,4.8-0.9c-2.2-1.8-4.7-4.3-6.3-7.2c-0.2-0.3-0.4-0.7-0.5-1
		c-0.1-0.2-0.2-0.4-0.3-0.7c-0.2-0.4-0.3-0.8-0.4-1.2c-0.1-0.2-0.1-0.4-0.2-0.6c-0.2-0.6-0.3-1.2-0.4-1.8v0c-0.1-0.4-0.3-0.8-0.6-1
		c-0.3-0.3-0.8-0.4-1.3-0.4l0,0C238.7,259.1,237.7,266.7,244.4,270.2z"/>
	<path class="st6" d="M242.7,242.8c-0.1,0.5-0.3,1-0.4,1.5c4.3-1.3,9.1-2.1,14.3-2.1c5.2,0,10,0.8,14.3,2.1c-0.1-0.5-0.3-1-0.4-1.5
		c-4.3-1.1-8.9-1.7-13.9-1.7C251.6,241,247,241.6,242.7,242.8z"/>
	<path class="st7" d="M242.8,242.1c-0.1,0.5-0.3,1-0.4,1.5c4.3-1.3,9-2.1,14.1-2.1c5.1,0,9.8,0.8,14.1,2.1c-0.1-0.5-0.3-1-0.4-1.5
		c-4.3-1.1-8.8-1.8-13.7-1.8C251.6,240.3,247.1,241,242.8,242.1z"/>
	<path class="st8" d="M243,241.5c-0.1,0.5-0.3,1-0.4,1.5c4.2-1.3,8.9-2.1,13.9-2.1c5.1,0,9.7,0.8,13.9,2.1c-0.1-0.5-0.3-1-0.4-1.5
		c-4.2-1.1-8.7-1.8-13.5-1.8C251.7,239.7,247.2,240.4,243,241.5z"/>
	<path class="st4" d="M243.2,240.8c-0.1,0.5-0.3,1-0.4,1.5c4.2-1.3,8.8-2.1,13.8-2.1c5,0,9.6,0.8,13.8,2.1c-0.1-0.5-0.3-1-0.4-1.5
		c-4.2-1.1-8.6-1.8-13.4-1.8C251.8,239,247.3,239.7,243.2,240.8z"/>
	<path class="st9" d="M243.3,240.1c-0.1,0.5-0.3,1-0.4,1.5c4.1-1.3,8.7-2.1,13.6-2.1c4.9,0,9.4,0.8,13.6,2.1c-0.1-0.5-0.3-1-0.4-1.5
		c-4.1-1.1-8.5-1.8-13.2-1.8C251.8,238.3,247.5,239,243.3,240.1z"/>
	<path class="st10" d="M243.4,239.8c-0.1,0.4-0.2,0.7-0.3,1.1c4.1-1.3,8.6-2.1,13.4-2.1c4.8,0,9.3,0.8,13.4,2.1
		c-0.1-0.4-0.2-0.7-0.3-1.1c-4.1-1.1-8.5-1.8-13.1-1.8C251.9,238,247.5,238.7,243.4,239.8z"/>
	<path class="st4" d="M300.4,290.2h-88.7c-0.6,0-1.1-0.3-1.4-0.8c-0.3-0.5-0.2-1.1,0.1-1.6l44.4-66.5c0.6-0.9,2-0.9,2.6,0l44.4,66.5
		c0.3,0.5,0.4,1.1,0.1,1.6C301.5,289.8,300.9,290.2,300.4,290.2z M214.6,287h82.8L256,224.9L214.6,287z"/>
	<path class="st11" d="M259,248.9c0-1.4-1.4-3.5-3.7-3.5c-1.3,0-2.4,0.8-2.4,1.8c0,0.5,0.3,0.9,0.7,1.3c0,0,0,0,0,0.1
		c-0.5,0.3-0.9,0.8-0.9,1.4c0,0.9,1,1.7,2.2,1.8l1,2l0.9-1.8C258.1,251.6,259,250.4,259,248.9z"/>
</g>
</svg>
