<svg version="1.1" id="Layer_1" xmlns="http://www.w3.org/2000/svg" x="0" y="0" viewBox="0 0 512 512" xml:space="preserve"><style>.st0{fill:#0067c6}.st3{fill:#97c924}.st4{fill:#ffe14e}.st5{fill:#73af00}</style><path class="st0" d="M0 88.3h512v112H0z"/><path fill="#fff" d="M0 200.3h512v112H0z"/><path class="st0" d="M0 312.3h512v112H0z"/><g id="crest"><path fill="#6fd8f3" d="M256 223.7l-26.9 39.6h53.8z"/><path class="st0" d="M229.1 263.3l-17.5 25.3h88.8l-17.5-25.3z"/><path class="st3" d="M262.9 261.1c.1-.2.2-.4.3-.7-.1.2-.2.4-.3.7zM263.6 259.2c.1-.2.1-.4.2-.6 0 .2-.1.4-.2.6zM262 262.7c.1-.2.3-.4.4-.7-.2.3-.3.5-.4.7zM266.1 255.3c-.2 0-.5 0-.7.1.2 0 .5-.1.7-.1zM264.8 255.8c-.3.3-.6.6-.6 1 .1-.4.3-.8.6-1zM264 267.6c.4.4.8.7 1.1 1 2-1.7 4.1-4 5.6-6.5-.1.2-.2.4-.3.5-1.4-2.5-2.1-4.7-2.5-6-.2-.7-1-1.3-1.8-1.3.3 3 1.1 8.4-2.1 12.3zM272 259.2c.1-.2.1-.4.2-.6-.1.2-.2.4-.2.6zM273.2 255.8c-.3.3-.6.6-.6 1 0-.4.2-.8.6-1zM271.2 261.1c.1-.2.2-.4.3-.7 0 .2-.2.4-.3.7z"/><path class="st3" d="M288.3 269.6c-3.1 0-5.9-1.5-7.7-4-2.7-3.8-3.9-7.3-4.3-9-.2-.7-1-1.3-1.8-1.3.4 3.5 1.4 10.6-4.4 14.3h-3.7c-.2-.1-.3-.2-.5-.4-1 1.4-3.1 1.7-4.8.9-6.8-3.5-5.7-11.1-5.3-14.8-.9 0-1.6.5-1.8 1.3-.4 1.3-1.1 3.5-2.5 6-.1-.2-.2-.4-.3-.5 1.7 2.9 4.1 5.4 6.3 7.2-1 1.4-3.1 1.7-4.8.9-6.8-3.5-5.7-11.1-5.3-14.8-.9 0-1.6.5-1.8 1.3-.4 1.3-1.1 3.5-2.5 6-.1-.2-.2-.4-.3-.5 1.7 2.9 4.1 5.4 6.3 7.2-1 1.4-3.1 1.7-4.8.9-6.8-3.5-5.7-11.1-5.3-14.8-.9 0-1.6.5-1.8 1.3-.5 1.8-1.7 5.3-4.3 9-1.8 2.5-4.7 4-7.7 4h-2.5v3.2h66.5v-3.2l-.9-.2zM258.7 260.4z"/><path class="st3" d="M258.1 258.6c.1.2.1.4.2.6-.1-.2-.1-.4-.2-.6zM257.7 256.8c-.1-.4-.3-.8-.6-1 .3.2.6.6.6 1zM259.6 262.1c.1.2.3.4.4.7-.2-.3-.3-.5-.4-.7zM261 264.3c0-.1 0-.1 0 0 .1-.2.2-.4.4-.6-.2.1-.3.3-.4.6-.2-.2-.3-.4-.4-.6.1.2.3.4.4.6zM261.7 265.1c.2.2.3.4.5.5-.2-.1-.3-.3-.5-.5zM263.4 267c-.1-.1-.3-.3-.4-.5.1.2.3.4.4.5z"/><path class="st4" d="M274.4 255.3c-.5 0-.9.2-1.3.4-.3.3-.6.6-.6 1-.1.6-.2 1.2-.4 1.8-.1.2-.1.4-.2.6-.1.4-.3.8-.4 1.2-.1.2-.2.4-.3.7-.2.3-.3.7-.5 1-1.5 2.6-3.6 4.8-5.6 6.5-.4-.3-.7-.7-1.1-1 3.1-3.9 2.4-9.3 2.1-12.2-.2 0-.5 0-.7.1l-.6.3c-.3.3-.6.6-.6 1-.1.6-.2 1.2-.4 1.8-.1.2-.1.4-.2.6-.1.4-.3.8-.4 1.2-.1.2-.2.4-.3.7-.2.3-.3.7-.5 1-.1.2-.3.4-.4.7l-.6.9c-.1.2-.3.4-.4.5-.1-.2-.3-.4-.4-.5l-.6-.9c-.1-.2-.3-.4-.4-.7-.2-.3-.4-.7-.5-1-.1-.2-.2-.4-.3-.7-.2-.4-.3-.8-.4-1.2-.1-.2-.1-.4-.2-.6-.2-.6-.3-1.2-.4-1.8-.1-.4-.3-.8-.6-1-.3-.3-.8-.4-1.3-.4-.4 3.7-1.5 11.3 5.3 14.8 1.1.6 2.5.6 3.6 0 .7-.3 1.4-.6 2.2-.6h3.1c5.7-3.6 4.7-10.6 4.3-14.2z"/><g><path class="st5" d="M249.7 258.6c.1.2.1.4.2.6 0-.2-.1-.4-.2-.6zM249.4 256.8c-.1-.4-.3-.8-.6-1 .3.2.5.6.6 1zM250.4 260.4c.1.2.2.4.3.7-.1-.3-.2-.5-.3-.7zM247.5 255.3c.2 0 .5 0 .7.1-.2 0-.5-.1-.7-.1z"/></g><path class="st4" d="M252.8 270.2c1.6.8 3.7.5 4.8-.9-2.2-1.8-4.7-4.3-6.3-7.2-.2-.3-.4-.7-.5-1-.1-.2-.2-.4-.3-.7-.2-.4-.3-.8-.4-1.2-.1-.2-.1-.4-.2-.6-.2-.6-.3-1.2-.4-1.8-.1-.4-.3-.8-.6-1l-.6-.3c-.2-.1-.4-.1-.7-.1-.5 3.7-1.6 11.3 5.2 14.8z"/><g><path class="st5" d="M241.4 258.6c.1.2.1.4.2.6-.1-.2-.1-.4-.2-.6zM242 260.4c.1.2.2.4.3.7-.1-.3-.2-.5-.3-.7zM241 256.8c-.1-.4-.3-.8-.6-1 .3.2.6.6.6 1z"/></g><path class="st4" d="M244.4 270.2c1.6.8 3.7.5 4.8-.9-2.2-1.8-4.7-4.3-6.3-7.2-.2-.3-.4-.7-.5-1-.1-.2-.2-.4-.3-.7-.2-.4-.3-.8-.4-1.2-.1-.2-.1-.4-.2-.6-.2-.6-.3-1.2-.4-1.8-.1-.4-.3-.8-.6-1-.3-.3-.8-.4-1.3-.4-.5 3.7-1.5 11.3 5.2 14.8z"/><path d="M242.7 242.8c-.1.5-.3 1-.4 1.5 4.3-1.3 9.1-2.1 14.3-2.1 5.2 0 10 .8 14.3 2.1-.1-.5-.3-1-.4-1.5-4.3-1.1-8.9-1.7-13.9-1.7-5-.1-9.6.5-13.9 1.7z" fill="#41479b"/><path d="M242.8 242.1c-.1.5-.3 1-.4 1.5 4.3-1.3 9-2.1 14.1-2.1s9.8.8 14.1 2.1c-.1-.5-.3-1-.4-1.5-4.3-1.1-8.8-1.8-13.7-1.8-4.9 0-9.4.7-13.7 1.8z" fill="#5aa0e6"/><path d="M243 241.5c-.1.5-.3 1-.4 1.5 4.2-1.3 8.9-2.1 13.9-2.1 5.1 0 9.7.8 13.9 2.1-.1-.5-.3-1-.4-1.5-4.2-1.1-8.7-1.8-13.5-1.8-4.8 0-9.3.7-13.5 1.8z" fill="#9bc800"/><path class="st4" d="M243.2 240.8c-.1.5-.3 1-.4 1.5 4.2-1.3 8.8-2.1 13.8-2.1s9.6.8 13.8 2.1c-.1-.5-.3-1-.4-1.5-4.2-1.1-8.6-1.8-13.4-1.8-4.8 0-9.3.7-13.4 1.8z"/><path d="M243.3 240.1c-.1.5-.3 1-.4 1.5 4.1-1.3 8.7-2.1 13.6-2.1s9.4.8 13.6 2.1c-.1-.5-.3-1-.4-1.5-4.1-1.1-8.5-1.8-13.2-1.8-4.7 0-9 .7-13.2 1.8z" fill="#ffb14e"/><path d="M243.4 239.8c-.1.4-.2.7-.3 1.1 4.1-1.3 8.6-2.1 13.4-2.1 4.8 0 9.3.8 13.4 2.1-.1-.4-.2-.7-.3-1.1-4.1-1.1-8.5-1.8-13.1-1.8s-9 .7-13.1 1.8z" fill="#ff4b55"/><path class="st4" d="M300.4 290.2h-88.7c-.6 0-1.1-.3-1.4-.8-.3-.5-.2-1.1.1-1.6l44.4-66.5c.6-.9 2-.9 2.6 0l44.4 66.5c.3.5.4 1.1.1 1.6-.4.4-1 .8-1.5.8zm-85.8-3.2h82.8L256 224.9 214.6 287z"/><path d="M259 248.9c0-1.4-1.4-3.5-3.7-3.5-1.3 0-2.4.8-2.4 1.8 0 .5.3.9.7 1.3v.1c-.5.3-.9.8-.9 1.4 0 .9 1 1.7 2.2 1.8l1 2 .9-1.8c1.3-.4 2.2-1.6 2.2-3.1z" fill="red"/></g></svg>