<?xml version="1.0" encoding="utf-8"?>
<!-- Generator: Adobe Illustrator 25.0.0, SVG Export Plug-In . SVG Version: 6.00 Build 0)  -->
<svg version="1.1" id="Layer_1" xmlns="http://www.w3.org/2000/svg" xmlns:xlink="http://www.w3.org/1999/xlink" x="0px" y="0px"
	 viewBox="0 0 512 512" style="enable-background:new 0 0 512 512;" xml:space="preserve">
<style type="text/css">
	.st0{fill:#FFFFFF;}
	.st1{fill:#003893;}
	.st2{fill:#DC143C;}
</style>
<rect x="0" y="88.3" class="st0" width="512" height="336"/>
<path class="st1" d="M10,108l188.9,138.3H76.5H53.9L69.1,263l137.8,151.3H10v-158v-84V108 M0,88.3v84v84v168h229.5l-153-168h153
	L0,88.3L0,88.3z"/>
<polygon class="st2" points="53.9,246.3 76.5,246.3 198.9,246.3 10,108 10,172.3 10,256.3 10,414.3 206.9,414.3 69.1,263 "/>
<g>
	<path class="st0" d="M67.3,296.4l7.1,14.6l13.4-9.1c0.6-0.4,1.4,0.1,1.3,0.8L88,318.8l16.2-1.2c0.7-0.1,1.2,0.7,0.8,1.3l-9.1,13.4
		l14.6,7.1c0.6,0.3,0.6,1.2,0,1.5l-14.6,7.1l9.1,13.4c0.4,0.6-0.1,1.4-0.8,1.3L88,361.6l1.2,16.2c0.1,0.7-0.7,1.2-1.3,0.8l-13.4-9.1
		l-7.1,14.6c-0.3,0.6-1.2,0.6-1.5,0l-7.1-14.6l-13.4,9.1c-0.6,0.4-1.4-0.1-1.3-0.8l1.2-16.2L29,362.8c-0.7,0.1-1.2-0.7-0.8-1.3
		l9.1-13.4L22.7,341c-0.6-0.3-0.6-1.2,0-1.5l14.6-7.1L28.2,319c-0.4-0.6,0.1-1.4,0.8-1.3l16.2,1.2L44,302.7
		c-0.1-0.7,0.7-1.2,1.3-0.8l13.4,9.1l7.1-14.6C66.1,295.8,67,295.8,67.3,296.4z"/>
	<path class="st0" d="M85.7,212.1l-6.1-4.2l5.4-5.7l-7.7-1.4l2.6-7.4l-7.6,1.8l-0.6-7.8l-6.2,4.8l-3.7-6.9l-3.7,6.9l-6.2-4.8
		l-0.6,7.8l-7.6-1.8l2.6,7.4l-7.7,1.4l5.4,5.7l-6.1,4.2c-7.7-3.6-14.5-8.9-19.9-15.4c3.6,21,21.8,36.9,43.8,36.9s40.2-16,43.8-36.9
		C100.2,203.2,93.4,208.4,85.7,212.1z"/>
</g>
</svg>
