<svg version="1.1" id="Layer_1" xmlns="http://www.w3.org/2000/svg" x="0" y="0" viewBox="0 0 512 512" xml:space="preserve"><style>.st0{fill:#fff}</style><path class="st0" d="M0 88.3h512v336H0z"/><path d="M10 108l188.9 138.3h-145L69.1 263l137.8 151.3H10V108M0 88.3v336h229.5l-153-168h153L0 88.3z" fill="#003893"/><path fill="#dc143c" d="M53.9 246.3h145L10 108v306.3h196.9L69.1 263z"/><path class="st0" d="M67.3 296.4l7.1 14.6 13.4-9.1c.6-.4 1.4.1 1.3.8L88 318.8l16.2-1.2c.7-.1 1.2.7.8 1.3l-9.1 13.4 14.6 7.1c.6.3.6 1.2 0 1.5L95.9 348l9.1 13.4c.4.6-.1 1.4-.8 1.3L88 361.6l1.2 16.2c.1.7-.7 1.2-1.3.8l-13.4-9.1-7.1 14.6c-.3.6-1.2.6-1.5 0l-7.1-14.6-13.4 9.1c-.6.4-1.4-.1-1.3-.8l1.2-16.2-16.3 1.2c-.7.1-1.2-.7-.8-1.3l9.1-13.4-14.6-7.1c-.6-.3-.6-1.2 0-1.5l14.6-7.1-9.1-13.4c-.4-.6.1-1.4.8-1.3l16.2 1.2-1.2-16.2c-.1-.7.7-1.2 1.3-.8l13.4 9.1 7.1-14.6c.3-.6 1.2-.6 1.5 0zM85.7 212.1l-6.1-4.2 5.4-5.7-7.7-1.4 2.6-7.4-7.6 1.8-.6-7.8-6.2 4.8-3.7-6.9-3.7 6.9-6.2-4.8-.6 7.8-7.6-1.8 2.6 7.4-7.7 1.4 5.4 5.7-6.1 4.2c-7.7-3.6-14.5-8.9-19.9-15.4 3.6 21 21.8 36.9 43.8 36.9s40.2-16 43.8-36.9c-5.4 6.5-12.2 11.7-19.9 15.4z"/></svg>