<svg version="1.1" id="Layer_1" xmlns="http://www.w3.org/2000/svg" x="0" y="0" viewBox="0 0 512 512" xml:space="preserve"><style>.st0{fill:#002b7f}</style><path class="st0" d="M0 274.3h512v150H0z"/><path fill="#ffe15a" d="M0 238.3h512v35.3H0z"/><path fill="#fff" d="M119.2 309l5.1 20.5 14.7-15.2-5.8 20.3 20.4-5.8-15.2 14.7 20.5 5.2-20.5 5.1 15.2 14.8-20.4-5.9 5.8 20.4-14.7-15.2-5.1 20.5-5.2-20.5-14.7 15.2 5.8-20.4-20.3 5.9 15.2-14.8-20.6-5.1 20.6-5.2-15.2-14.7 20.3 5.8-5.8-20.3 14.7 15.2z"/><path fill="#ffc61e" d="M0 238.3h512v36H0z"/><path class="st0" d="M0 88.3h512v150H0z"/></svg>