<?xml version="1.0" encoding="utf-8"?>
<!-- Generator: Adobe Illustrator 25.0.0, SVG Export Plug-In . SVG Version: 6.00 Build 0)  -->
<svg version="1.1" id="Layer_1" xmlns="http://www.w3.org/2000/svg" xmlns:xlink="http://www.w3.org/1999/xlink" x="0px" y="0px"
	 viewBox="0 0 512 512" style="enable-background:new 0 0 512 512;" xml:space="preserve">
<style type="text/css">
	.st0{fill:#002B7F;}
	.st1{fill:#FFE15A;}
	.st2{fill:#FFFFFF;}
	.st3{fill:#FFC61E;}
</style>
<rect y="274.3" class="st0" width="512" height="150"/>
<rect y="238.3" class="st1" width="512" height="35.3"/>
<polygon class="st2" points="119.2,309 124.3,329.5 139,314.3 133.2,334.6 153.6,328.8 138.4,343.5 158.9,348.7 138.4,353.8 
	153.6,368.6 133.2,362.7 139,383.1 124.3,367.9 119.2,388.4 114,367.9 99.3,383.1 105.1,362.7 84.8,368.6 100,353.8 79.4,348.7 
	100,343.5 84.8,328.8 105.1,334.6 99.3,314.3 114,329.5 "/>
<rect y="238.3" class="st3" width="512" height="36"/>
<rect y="88.3" class="st0" width="512" height="150"/>
</svg>
