<svg version="1.1" id="Layer_1" xmlns="http://www.w3.org/2000/svg" x="0" y="0" viewBox="0 0 512 512" xml:space="preserve"><style>.st0{fill:#ffdf35}.st1{fill:#012169}.st2{fill:#fff}.st3{fill:#c8102e}</style><path class="st0" d="M256 88.2v168H0v168h512v-336z"/><g id="Union_flag"><path class="st1" d="M0 88h256v168.2H0z"/><path class="st2" d="M106 150.1v-7.9L22.7 88H0v17l69.3 45.1zM106 194.1H70.8L0 240.1v16.1h24.2l81.8-53.3zM233.8 88l-83.9 54.5v7.6h37.3l68.8-44.8V88zM149.9 194.1v8.5l82.5 53.6H256v-16.4l-70.2-45.7z"/><path class="st2" d="M256 150.1H149.9V88H106v62.1H0v44h106v62.1h43.9v-62.1H256z"/><path class="st3" d="M256 158.8H141.2V88h-26.4v70.8H0v26.5h114.8v70.9h26.4v-70.9H256z"/><path class="st3" d="M97.2 150.1L1.7 88H0v9.6l80.7 52.5zM106 194.1H89.6L0 252.4v3.8h10.6zM157.2 194.1l95.5 62.1h3.3v-8.6l-82.3-53.5zM245.3 88l-95.4 62v.1h16.4L256 91.8V88z"/></g><circle class="st1" cx="128" cy="172.1" r="26.5"/><path class="st0" d="M129.8 150.7l4.4 13.3 14 .1c1.8 0 2.6 2.3 1.1 3.4l-11.2 8.3 4.2 13.3c.5 1.7-1.4 3.2-2.9 2.1l-11.4-8.1-11.4 8.1c-1.5 1.1-3.4-.4-2.9-2.1l4.2-13.3-11.2-8.3c-1.5-1.1-.7-3.4 1.1-3.4l14-.1 4.4-13.3c.6-1.8 3-1.8 3.6 0zM56.5 161.5l2.4 7.1 7.5.1c1 0 1.4 1.2.6 1.8l-6 4.5 2.3 7.2c.3.9-.8 1.7-1.6 1.1l-6.1-4.4-6.1 4.4c-.8.6-1.8-.2-1.6-1.1l2.3-7.2-6-4.5c-.8-.6-.4-1.8.6-1.8l7.5-.1 2.4-7.1c.2-.9 1.5-.9 1.8 0zM202.1 161.5l2.4 7.1 7.5.1c1 0 1.4 1.2.6 1.8l-6 4.5 2.3 7.2c.3.9-.8 1.7-1.6 1.1l-6.1-4.4-6.1 4.4c-.8.6-1.8-.2-1.6-1.1l2.3-7.2-6-4.5c-.8-.6-.4-1.8.6-1.8l7.5-.1 2.4-7.1c.2-.9 1.5-.9 1.8 0zM129.1 107.9l2.4 7.1 7.5.1c1 0 1.4 1.2.6 1.8l-6 4.5 2.3 7.2c.3.9-.8 1.7-1.6 1.1l-6.1-4.4-6.1 4.4c-.8.6-1.8-.2-1.6-1.1l2.3-7.2-6-4.5c-.8-.6-.4-1.8.6-1.8l7.5-.1 2.4-7.1c.2-.9 1.5-.9 1.8 0zM129.1 216.3l2.4 7.1 7.5.1c1 0 1.4 1.2.6 1.8l-6 4.5 2.3 7.2c.3.9-.8 1.7-1.6 1.1l-6.1-4.4-6.1 4.4c-.8.6-1.8-.2-1.6-1.1l2.3-7.2-6-4.5c-.8-.6-.4-1.8.6-1.8l7.5-.1 2.4-7.1c.2-.9 1.5-.9 1.8 0z"/></svg>