<svg version="1.1" id="Layer_1" xmlns="http://www.w3.org/2000/svg" x="0" y="0" viewBox="0 0 512 512" xml:space="preserve"><style>.st0{fill:#012169}.st1{fill:#fff}.st2{fill:#c8102e}</style><path class="st0" d="M256.1 88v168.2H0V424h512V88z"/><g id="Union_flag"><path class="st0" d="M0 88h256.1v168.2H0z"/><path class="st1" d="M106 150.1v-7.9L22.7 88H0v17l69.3 45.1zM106 194.1H70.8L0 240.1v16.1h24.2l81.8-53.3zM233.9 88L150 142.5v7.6h37.3l68.8-44.8V88zM150 194.1v8.5l82.5 53.6h23.6v-16.4l-70.2-45.7z"/><path class="st1" d="M256.1 150.1H150V88h-44v62.1H0v44h106v62.1h44v-62.1h106.1z"/><path class="st2" d="M256.1 158.8H141.3V88h-26.5v70.8H0v26.5h114.8v70.9h26.5v-70.9h114.8z"/><path class="st2" d="M97.2 150.1L1.7 88H0v9.6l80.7 52.5zM106 194.1H89.6L0 252.4v3.8h10.6zM157.3 194.1l95.5 62.1h3.3v-8.6l-82.3-53.5zM245.4 88L150 150v.1h16.4l89.7-58.3V88z"/></g><path class="st2" d="M384 331l4.5 13.4 14.1.1-11.3 8.4 4.3 13.4-11.5-8.2-11.5 8.2 4.3-13.4-11.3-8.4 14.1-.1L384 331"/><path class="st1" d="M384 331l4.5 13.4 14.1.1-11.3 8.4 4.3 13.4-11.5-8.2-11.5 8.2 4.3-13.4-11.3-8.4 14.1-.1L384 331m0-3.5c-1.5 0-2.9 1-3.4 2.4l-3.7 11-11.6.1c-1.5 0-2.9 1-3.3 2.4s0 3 1.3 3.9l9.3 6.9-3.5 11c-.5 1.4.1 3 1.3 3.9.6.4 1.3.7 2.1.7.7 0 1.4-.2 2.1-.7l9.4-6.7 9.4 6.7c.6.4 1.3.7 2.1.7.7 0 1.5-.2 2.1-.7 1.2-.9 1.7-2.5 1.3-3.9l-3.5-11 9.3-6.9c1.2-.9 1.7-2.5 1.3-3.9-.5-1.4-1.8-2.4-3.3-2.4l-11.6-.1-3.7-11c-.5-1.4-1.9-2.4-3.4-2.4zM384 188.7l4.5 13.4 14.1.1-11.3 8.4 4.3 13.4-11.5-8.2-11.5 8.2 4.3-13.4-11.3-8.4 14.1-.1 4.3-13.4m0-3.5c-1.5 0-2.9 1-3.4 2.4l-3.7 11-11.6.1c-1.5 0-2.9 1-3.3 2.4s0 3 1.3 3.9l9.3 6.9-3.5 11c-.5 1.4.1 3 1.3 3.9.6.4 1.3.7 2.1.7.7 0 1.4-.2 2.1-.7l9.4-6.7 9.4 6.7c.6.4 1.3.7 2.1.7.7 0 1.5-.2 2.1-.7 1.2-.9 1.7-2.5 1.3-3.9l-3.5-11 9.3-6.9c1.2-.9 1.7-2.5 1.3-3.9s-1.8-2.4-3.3-2.4l-11.6-.1-3.7-11c-.5-1.4-1.9-2.4-3.4-2.4z"/><path class="st2" d="M395.5 224l-4.3-13.4 11.4-8.4-14.1-.1-4.5-13.4-4.5 13.4-14.1.1 11.4 8.4-4.3 13.4 11.5-8.2z"/><path class="st1" d="M445.8 232.9l4.5 13.4 14.1.1-11.3 8.4 4.3 13.4-11.5-8.2-11.5 8.2 4.3-13.4-11.3-8.4 14.1-.1 4.3-13.4m0-3.6c-1.5 0-2.9 1-3.4 2.4l-3.7 11-11.6.1c-1.5 0-2.9 1-3.3 2.4s0 3 1.3 3.9l9.3 6.9-3.5 11c-.5 1.4.1 3 1.3 3.9.6.4 1.3.7 2.1.7.7 0 1.4-.2 2.1-.7l9.4-6.7 9.4 6.7c.6.4 1.3.7 2.1.7.7 0 1.5-.2 2.1-.7 1.2-.9 1.7-2.5 1.3-3.9l-3.5-11 9.3-6.9c1.2-.9 1.7-2.5 1.3-3.9s-1.8-2.4-3.3-2.4l-11.6-.1-3.7-11c-.5-1.4-1.9-2.4-3.4-2.4z"/><path class="st2" d="M457.3 268.2l-4.3-13.5 11.4-8.4-14.1-.1-4.5-13.3-4.5 13.3-14.1.1 11.4 8.4-4.3 13.5 11.5-8.2z"/><path class="st1" d="M322.2 250.5l4.5 13.4 14.1.1-11.3 8.4 4.3 13.4-11.5-8.2-11.5 8.2 4.3-13.4-11.3-8.4 14.1-.1 4.3-13.4m0-3.5c-1.5 0-2.9 1-3.4 2.4l-3.7 11-11.6.1c-1.5 0-2.9 1-3.3 2.4s0 3 1.3 3.9l9.3 6.9-3.5 11c-.5 1.4.1 3 1.3 3.9.6.4 1.3.7 2.1.7.7 0 1.4-.2 2.1-.7l9.4-6.7 9.4 6.7c.6.4 1.3.7 2.1.7.7 0 1.5-.2 2.1-.7 1.2-.9 1.7-2.5 1.3-3.9l-3.5-11 9.3-6.9c1.2-.9 1.7-2.5 1.3-3.9s-1.8-2.4-3.3-2.4l-11.6-.1-3.7-11c-.5-1.5-1.9-2.4-3.4-2.4z"/><path class="st2" d="M333.7 285.8l-4.3-13.4 11.4-8.4-14.1-.1-4.5-13.4-4.5 13.4-14.1.1 11.4 8.4-4.3 13.4 11.5-8.2z"/></svg>