<?xml version="1.0" encoding="utf-8"?>
<!-- Generator: Adobe Illustrator 25.0.0, SVG Export Plug-In . SVG Version: 6.00 Build 0)  -->
<svg version="1.1" id="Layer_1" xmlns="http://www.w3.org/2000/svg" xmlns:xlink="http://www.w3.org/1999/xlink" x="0px" y="0px"
	 viewBox="0 0 512 512" style="enable-background:new 0 0 512 512;" xml:space="preserve">
<style type="text/css">
	.st0{fill:#DB161B;}
	.st1{fill:#008000;}
	.st2{fill:#FFFFFF;}
</style>
<polygon class="st0" points="512,200.3 132.4,200.3 132.4,88.3 0,88.3 0,424.3 132.4,424.3 132.4,312.3 512,312.3 "/>
<rect x="132.4" y="312.3" class="st1" width="379.6" height="112"/>
<rect x="132.4" y="88.3" class="st2" width="379.6" height="112"/>
<g>
	<path class="st2" d="M36.1,161.4c-0.5,0.1-1,0.1-1.4,0.2v6.3c0.5,0.1,0.9,0.2,1.4,0.4V161.4z"/>
	<path class="st2" d="M57.8,173.4c-1.3-0.1-3.3-0.3-5.7-0.6L37,186.2c2,0.3,4.3,0.7,5.3,1C46.1,183.9,51.3,179.2,57.8,173.4z"/>
	<polygon class="st2" points="80.5,152.1 80.5,151.4 80.5,150.8 53.7,150.8 53.7,151.4 53.7,152.1 53.7,152.7 80.5,152.7 	"/>
	<path class="st2" d="M60.7,113.8c0,1.9,2.8,3.5,6.2,3.5s6.2-1.6,6.2-3.5c0-1.9-2.8-3.5-6.2-3.5C63.5,110.4,60.7,112,60.7,113.8z"/>
	<path class="st2" d="M54.9,160.6c-6,0-12.1,0.2-17,0.7v7.4c5.8,1.2,12.5,2.2,17,2.7C54.9,171.3,54.9,160.6,54.9,160.6z"/>
	<path class="st2" d="M23.8,197.2c2.4-0.1,7.6-1,11.2-3.8c1.1-0.9,3-2.4,5.6-4.7c-1.8-0.4-4.8-0.8-6.4-1L23.8,197.2z"/>
	<path class="st2" d="M58.3,149v-3.4c-0.5-0.7-0.9-1.4-1.4-2.1l-4.1,3c0.8,1.4,1.3,2.3,1.4,2.5L58.3,149L58.3,149z"/>
	<path class="st2" d="M26.7,164.2c0,0.1,0,0.2,0.2,0.4c0.8,1,3,1.9,5.9,2.8v-5.5C29.3,162.5,27,163.2,26.7,164.2z"/>
	<path class="st2" d="M73.7,161.6v-7H60.2v17.1h3.4C69.2,171.7,73.7,167.1,73.7,161.6z"/>
	<path class="st2" d="M51.9,136.1c-7.3-10.7-15-21.9-16.9-24.2c0.3,1,0.9,2.9,2.5,6.4c2,4.5,6.8,13.2,10.7,20.1L51.9,136.1z"/>
	<path class="st2" d="M49.1,140.1c1,1.8,2,3.4,2.8,4.8l4-2.9c-1-1.4-1.9-2.9-2.9-4.3L49.1,140.1z"/>
	<path class="st2" d="M58.3,171.6v-11c-0.5,0-1.1,0-1.6,0v10.9C57.3,171.6,57.9,171.6,58.3,171.6z"/>
	<rect x="60.2" y="139.5" class="st2" width="13.5" height="1.9"/>
	<path class="st2" d="M92.5,148.9v0.1h0.7c0.5,0,0.9,0.4,0.9,0.9v3.8c0,0.5-0.4,0.9-0.9,0.9h-0.7v0.1c0,0.5,0.4,0.9,0.9,0.9H109
		c0.5,0,0.9-0.4,0.9-0.9v-5.8c0-0.5-0.4-0.9-0.9-0.9H93.5C93,147.9,92.5,148.3,92.5,148.9z"/>
	<path class="st2" d="M109.9,197.2l-10.3-9.5c-1.6,0.2-4.6,0.7-6.4,1c2.7,2.3,4.6,3.9,5.6,4.7C102.3,196.2,107.4,197.1,109.9,197.2z
		"/>
	<polygon class="st2" points="88.6,151.4 88.6,152.1 88.6,152.7 92.3,152.7 92.3,150.8 88.6,150.8 	"/>
	<path class="st2" d="M91.5,187.2c1-0.3,3.3-0.7,5.3-1l-22.2-19.8c-0.6,1.4-1.4,2.6-2.5,3.6l0.6,0.5C80.7,177.7,87,183.3,91.5,187.2
		z"/>
	<path class="st2" d="M41.7,154.7v-0.1H41c-0.5,0-0.9-0.4-0.9-0.9v-3.8c0-0.5,0.4-0.9,0.9-0.9h0.7v-0.1c0-0.5-0.4-0.9-0.9-0.9H25.3
		c-0.5,0-0.9,0.4-0.9,0.9v5.8c0,0.5,0.4,0.9,0.9,0.9h15.5C41.3,155.6,41.7,155.2,41.7,154.7z"/>
	<polygon class="st2" points="45.6,152.1 45.6,151.4 45.6,150.8 41.9,150.8 41.9,152.7 45.6,152.7 	"/>
	<path class="st2" d="M80.9,146.5l-4.1-3c-0.4,0.6-0.8,1.2-1.2,1.8v3.6h3.9C79.6,148.8,80.1,147.9,80.9,146.5z"/>
	<polygon class="st2" points="61.4,133.9 72.5,133.9 70.1,131.2 63.8,131.2 	"/>
	<rect x="60.2" y="135.8" class="st2" width="13.5" height="1.9"/>
	<path class="st2" d="M66.9,119.1c-0.9,0-1.7-0.1-2.5-0.3v10.4h5.1v-10.4C68.7,119,67.8,119.1,66.9,119.1z"/>
	<path class="st2" d="M60.2,145.2h13.5c0-0.1,0-0.2,0.1-0.3v-1.6H60.2C60.2,143.3,60.2,145.2,60.2,145.2z"/>
	<path class="st2" d="M77.8,142l4,2.9c0.8-1.4,1.7-3,2.8-4.8l-3.8-2.4C79.7,139.1,78.8,140.6,77.8,142z"/>
	<rect x="60.2" y="147.1" class="st2" width="13.5" height="1.9"/>
	<path class="st2" d="M85.5,138.5c4-7,8.7-15.6,10.7-20.1c1.5-3.5,2.2-5.4,2.5-6.4c-1.9,2.2-9.6,13.4-16.9,24.2L85.5,138.5z"/>
</g>
<path class="st0" d="M112.4,197l-12-11c-0.2-0.2-0.5-0.3-0.7-0.2c-0.1,0-0.3,0-0.6,0.1c0,0,0,0,0-0.1l-23.9-21.3
	c0.2-0.9,0.4-1.9,0.4-3v-7h5.8c0.7,1,1.9,1.6,3.2,1.6c1.3,0,2.5-0.6,3.2-1.6h2.9v0.1c0,1.5,1.2,2.8,2.8,2.8H109
	c1.5,0,2.8-1.2,2.8-2.8v-5.8c0-1.5-1.2-2.8-2.8-2.8H93.5c-1.5,0-2.8,1.2-2.8,2.8v0.1h-2.9c-0.7-1-1.9-1.6-3.2-1.6
	c-1,0-1.9,0.4-2.6,1c3.1-5.3,12.8-22.1,15.9-29.3c3.4-7.7,3.1-8.7,2.3-9.3c-0.8-0.7-1.9,0.1-2.3,0.4c-1.5,1.1-16.4,23.1-22.3,31.9
	v-7.2c0,0,0,0,0-0.1l0,0c0-0.3-0.2-0.6-0.4-0.7l-3.8-4.2v-11.5c2.2-0.9,3.6-2.6,3.6-4.5c0-3-3.5-5.3-8-5.3s-8,2.3-8,5.3
	c0,1.9,1.5,3.5,3.7,4.5v11.6l-3.7,4.1c-0.3,0.2-0.5,0.4-0.5,0.8v7.5c-5.8-8.6-21-31-22.5-32.1c-0.4-0.3-1.5-1.1-2.3-0.4
	c-0.8,0.6-1.1,1.6,2.3,9.3c3,6.9,12.2,22.9,15.6,28.7c-0.5-0.3-1.1-0.4-1.8-0.4c-1.3,0-2.5,0.6-3.2,1.6h-2.9v-0.1
	c0-1.5-1.2-2.8-2.8-2.8H25.3c-1.5,0-2.8,1.2-2.8,2.8v5.8c0,1.5,1.2,2.8,2.8,2.8h15.5c1.5,0,2.8-1.2,2.8-2.8v-0.1h2.9
	c0.7,1,1.9,1.6,3.2,1.6c1.3,0,2.5-0.6,3.2-1.6h5.4v4.2c-8.5-0.2-32.1-0.2-33.4,5c-0.1,0.5-0.1,1.2,0.5,2c2.5,3.2,15.1,5.5,24.2,6.7
	l-15,13.3c0,0,0,0,0,0.1c-0.3,0-0.5-0.1-0.6-0.1c-0.3,0-0.5,0-0.7,0.2l-12,11c-0.4,0.3-0.4,0.9-0.1,1.3c0.4,0.5,1.4,0.7,2.8,0.7
	c3.3,0,8.7-1.4,12.1-4.1c2.8-2.2,10.7-9.1,23.3-20.4c0.5-0.5,0.9-0.8,1.1-1h3.2c2.6,0,5-0.9,7-2.3l0.8,0.7
	c14.5,13,23.4,20.8,26.2,23c3.4,2.7,8.8,4.1,12.1,4.1c1.3,0,2.4-0.2,2.8-0.7C112.8,197.9,112.8,197.4,112.4,197z M60.2,171.7v-17.1
	h13.5v7c0,5.6-4.5,10.1-10.1,10.1H60.2z M32.8,167.4c-2.9-0.9-5.1-1.8-5.9-2.8c-0.2-0.3-0.2-0.4-0.2-0.4c0.2-1,2.5-1.7,6.1-2.3
	V167.4z M35,112c1.9,2.2,9.6,13.5,16.9,24.2l-3.7,2.4c-4-7-8.7-15.6-10.7-20.1C36,114.8,35.3,113,35,112z M56.9,143.5
	c0.5,0.7,0.9,1.4,1.4,2.1v3.4h-4.1c-0.1-0.2-0.6-1.1-1.4-2.5L56.9,143.5z M51.9,144.9c-0.8-1.4-1.7-3-2.8-4.8l3.8-2.4
	c1,1.5,2,2.9,2.9,4.3L51.9,144.9z M58.3,160.6v11c-0.4,0-1-0.1-1.6-0.1v-10.9C57.3,160.6,57.8,160.6,58.3,160.6z M37.9,161.3
	c4.9-0.5,11-0.7,17-0.7v10.7c-4.5-0.5-11.2-1.4-17-2.7V161.3z M34.6,161.6c0.5-0.1,0.9-0.1,1.4-0.2v6.8c-0.5-0.1-1-0.2-1.4-0.4
	V161.6z M52.1,172.8c2.4,0.3,4.4,0.5,5.7,0.6c-6.5,5.8-11.7,10.4-15.5,13.8c-1-0.3-3.3-0.7-5.3-1L52.1,172.8z M40.6,188.7
	c-2.6,2.3-4.5,3.9-5.6,4.7c-3.5,2.8-8.8,3.7-11.2,3.8l10.4-9.5C35.8,187.9,38.8,188.4,40.6,188.7z M53.7,152.7v-0.6v-0.7v-0.6h26.8
	v0.6v0.7v0.6H53.7z M73.1,113.8c0,1.9-2.8,3.5-6.2,3.5s-6.2-1.6-6.2-3.5c0-1.9,2.8-3.5,6.2-3.5S73.1,112,73.1,113.8z M60.2,141.4
	v-1.9h13.5v1.9H60.2z M73.7,143.3v1.6c0,0.1-0.1,0.2-0.1,0.3H60.2v-1.9H73.7L73.7,143.3z M60.2,137.7v-1.9h13.5v1.9H60.2z
	 M70.1,131.2l2.4,2.7H61.4l2.4-2.7H70.1z M64.4,129.2v-10.4c0.8,0.2,1.6,0.3,2.5,0.3c0.9,0,1.8-0.1,2.6-0.3v10.4H64.4z M60.2,147
	h13.5v1.9H60.2V147z M96.2,118.3c-2,4.5-6.8,13.2-10.7,20.1l-3.7-2.4c7.3-10.7,15-22,16.9-24.2C98.4,113,97.8,114.8,96.2,118.3z
	 M86.8,151.4v0.7c0,1.2-1,2.2-2.2,2.2s-2.2-1-2.2-2.2v-0.7c0-1.2,1-2.2,2.2-2.2S86.8,150.2,86.8,151.4z M81.8,144.9l-4-2.9
	c1-1.4,1.9-2.9,2.9-4.3l3.8,2.4C83.6,141.9,82.6,143.5,81.8,144.9z M75.6,145.4c0.4-0.6,0.8-1.2,1.2-1.8l4.1,3
	c-0.8,1.4-1.3,2.3-1.4,2.5h-3.9V145.4z M74.5,166.4l22.2,19.8c-2,0.3-4.3,0.7-5.3,1c-4.5-3.9-10.8-9.5-18.8-16.7L72,170
	C73.1,169,73.9,167.8,74.5,166.4z M99.5,187.7l10.3,9.5c-2.5,0-7.6-1-11.1-3.7c-1.1-0.8-2.9-2.4-5.6-4.7
	C94.9,188.4,97.9,187.9,99.5,187.7z M109.9,148.9v5.8c0,0.5-0.4,0.9-0.9,0.9H93.5c-0.5,0-0.9-0.4-0.9-0.9v-0.1h0.7
	c0.5,0,0.9-0.4,0.9-0.9v-3.8c0-0.5-0.4-0.9-0.9-0.9h-0.7v-0.1c0-0.5,0.4-0.9,0.9-0.9H109C109.5,147.9,109.9,148.3,109.9,148.9z
	 M92.3,152.7h-3.7v-0.6v-0.7v-0.6h3.7V152.7z M24.3,154.7v-5.8c0-0.5,0.4-0.9,0.9-0.9h15.5c0.5,0,0.9,0.4,0.9,0.9v0.1H41
	c-0.5,0-0.9,0.4-0.9,0.9v3.8c0,0.5,0.4,0.9,0.9,0.9h0.7v0.1c0,0.5-0.4,0.9-0.9,0.9H25.3C24.8,155.6,24.3,155.2,24.3,154.7z
	 M41.9,150.8h3.7v0.6v0.7v0.6h-3.7V150.8z M51.9,152.1c0,1.2-1,2.2-2.2,2.2c-1.2,0-2.2-1-2.2-2.2v-0.7c0-1.2,1-2.2,2.2-2.2
	c1.2,0,2.2,1,2.2,2.2V152.1z"/>
</svg>
