<svg version="1.1" id="Layer_1" xmlns="http://www.w3.org/2000/svg" x="0" y="0" viewBox="0 0 512 512" xml:space="preserve"><style>.st0{fill:#db161b}.st2{fill:#fff}</style><path class="st0" d="M512 200.3H132.4v-112H0v336h132.4v-112H512z"/><path fill="green" d="M132.4 312.3H512v112H132.4z"/><path class="st2" d="M132.4 88.3H512v112H132.4zM36.1 161.4c-.5.1-1 .1-1.4.2v6.3c.5.1.9.2 1.4.4v-6.9zM57.8 173.4c-1.3-.1-3.3-.3-5.7-.6L37 186.2c2 .3 4.3.7 5.3 1 3.8-3.3 9-8 15.5-13.8zM80.5 152.1V150.8H53.7v1.9h26.8zM60.7 113.8c0 1.9 2.8 3.5 6.2 3.5s6.2-1.6 6.2-3.5-2.8-3.5-6.2-3.5c-3.4.1-6.2 1.7-6.2 3.5zM54.9 160.6c-6 0-12.1.2-17 .7v7.4c5.8 1.2 12.5 2.2 17 2.7v-10.8zM23.8 197.2c2.4-.1 7.6-1 11.2-3.8 1.1-.9 3-2.4 5.6-4.7-1.8-.4-4.8-.8-6.4-1l-10.4 9.5zM58.3 149v-3.4c-.5-.7-.9-1.4-1.4-2.1l-4.1 3c.8 1.4 1.3 2.3 1.4 2.5h4.1zM26.7 164.2c0 .1 0 .2.2.4.8 1 3 1.9 5.9 2.8v-5.5c-3.5.6-5.8 1.3-6.1 2.3zM73.7 161.6v-7H60.2v17.1h3.4c5.6 0 10.1-4.6 10.1-10.1zM51.9 136.1c-7.3-10.7-15-21.9-16.9-24.2.3 1 .9 2.9 2.5 6.4 2 4.5 6.8 13.2 10.7 20.1l3.7-2.3zM49.1 140.1c1 1.8 2 3.4 2.8 4.8l4-2.9c-1-1.4-1.9-2.9-2.9-4.3l-3.9 2.4zM58.3 171.6v-11h-1.6v10.9c.6.1 1.2.1 1.6.1zM60.2 139.5h13.5v1.9H60.2zM92.5 148.9v.1h.7c.5 0 .9.4.9.9v3.8c0 .5-.4.9-.9.9h-.7v.1c0 .5.4.9.9.9H109c.5 0 .9-.4.9-.9v-5.8c0-.5-.4-.9-.9-.9H93.5c-.5-.1-1 .3-1 .9zM109.9 197.2l-10.3-9.5c-1.6.2-4.6.7-6.4 1 2.7 2.3 4.6 3.9 5.6 4.7 3.5 2.8 8.6 3.7 11.1 3.8zM88.6 151.4V152.7h3.7v-1.9h-3.7zM91.5 187.2c1-.3 3.3-.7 5.3-1l-22.2-19.8c-.6 1.4-1.4 2.6-2.5 3.6l.6.5c8 7.2 14.3 12.8 18.8 16.7zM41.7 154.7v-.1H41c-.5 0-.9-.4-.9-.9v-3.8c0-.5.4-.9.9-.9h.7v-.1c0-.5-.4-.9-.9-.9H25.3c-.5 0-.9.4-.9.9v5.8c0 .5.4.9.9.9h15.5c.5 0 .9-.4.9-.9zM45.6 152.1V150.8h-3.7v1.9h3.7zM80.9 146.5l-4.1-3-1.2 1.8v3.6h3.9c.1-.1.6-1 1.4-2.4zM61.4 133.9h11.1l-2.4-2.7h-6.3zM60.2 135.8h13.5v1.9H60.2zM66.9 119.1c-.9 0-1.7-.1-2.5-.3v10.4h5.1v-10.4c-.8.2-1.7.3-2.6.3zM60.2 145.2h13.5c0-.1 0-.2.1-.3v-1.6H60.2v1.9zM77.8 142l4 2.9c.8-1.4 1.7-3 2.8-4.8l-3.8-2.4c-1.1 1.4-2 2.9-3 4.3zM60.2 147.1h13.5v1.9H60.2zM85.5 138.5c4-7 8.7-15.6 10.7-20.1 1.5-3.5 2.2-5.4 2.5-6.4-1.9 2.2-9.6 13.4-16.9 24.2l3.7 2.3z"/><path class="st0" d="M112.4 197l-12-11c-.2-.2-.5-.3-.7-.2-.1 0-.3 0-.6.1v-.1l-23.9-21.3c.2-.9.4-1.9.4-3v-7h5.8c.7 1 1.9 1.6 3.2 1.6 1.3 0 2.5-.6 3.2-1.6h2.9v.1c0 1.5 1.2 2.8 2.8 2.8H109c1.5 0 2.8-1.2 2.8-2.8v-5.8c0-1.5-1.2-2.8-2.8-2.8H93.5c-1.5 0-2.8 1.2-2.8 2.8v.1h-2.9c-.7-1-1.9-1.6-3.2-1.6-1 0-1.9.4-2.6 1 3.1-5.3 12.8-22.1 15.9-29.3 3.4-7.7 3.1-8.7 2.3-9.3-.8-.7-1.9.1-2.3.4-1.5 1.1-16.4 23.1-22.3 31.9v-7.2-.1c0-.3-.2-.6-.4-.7l-3.8-4.2v-11.5c2.2-.9 3.6-2.6 3.6-4.5 0-3-3.5-5.3-8-5.3s-8 2.3-8 5.3c0 1.9 1.5 3.5 3.7 4.5v11.6L59 134c-.3.2-.5.4-.5.8v7.5c-5.8-8.6-21-31-22.5-32.1-.4-.3-1.5-1.1-2.3-.4-.8.6-1.1 1.6 2.3 9.3 3 6.9 12.2 22.9 15.6 28.7-.5-.3-1.1-.4-1.8-.4-1.3 0-2.5.6-3.2 1.6h-2.9v-.1c0-1.5-1.2-2.8-2.8-2.8H25.3c-1.5 0-2.8 1.2-2.8 2.8v5.8c0 1.5 1.2 2.8 2.8 2.8h15.5c1.5 0 2.8-1.2 2.8-2.8v-.1h2.9c.7 1 1.9 1.6 3.2 1.6 1.3 0 2.5-.6 3.2-1.6h5.4v4.2c-8.5-.2-32.1-.2-33.4 5-.1.5-.1 1.2.5 2 2.5 3.2 15.1 5.5 24.2 6.7l-15 13.3v.1c-.3 0-.5-.1-.6-.1-.3 0-.5 0-.7.2l-12 11c-.4.3-.4.9-.1 1.3.4.5 1.4.7 2.8.7 3.3 0 8.7-1.4 12.1-4.1 2.8-2.2 10.7-9.1 23.3-20.4.5-.5.9-.8 1.1-1h3.2c2.6 0 5-.9 7-2.3l.8.7c14.5 13 23.4 20.8 26.2 23 3.4 2.7 8.8 4.1 12.1 4.1 1.3 0 2.4-.2 2.8-.7.2-.4.2-.9-.2-1.3zm-52.2-25.3v-17.1h13.5v7c0 5.6-4.5 10.1-10.1 10.1h-3.4zm-27.4-4.3c-2.9-.9-5.1-1.8-5.9-2.8-.2-.3-.2-.4-.2-.4.2-1 2.5-1.7 6.1-2.3v5.5zM35 112c1.9 2.2 9.6 13.5 16.9 24.2l-3.7 2.4c-4-7-8.7-15.6-10.7-20.1-1.5-3.7-2.2-5.5-2.5-6.5zm21.9 31.5c.5.7.9 1.4 1.4 2.1v3.4h-4.1c-.1-.2-.6-1.1-1.4-2.5l4.1-3zm-5 1.4c-.8-1.4-1.7-3-2.8-4.8l3.8-2.4c1 1.5 2 2.9 2.9 4.3l-3.9 2.9zm6.4 15.7v11c-.4 0-1-.1-1.6-.1v-10.9h1.6zm-20.4.7c4.9-.5 11-.7 17-.7v10.7c-4.5-.5-11.2-1.4-17-2.7v-7.3zm-3.3.3c.5-.1.9-.1 1.4-.2v6.8c-.5-.1-1-.2-1.4-.4v-6.2zm17.5 11.2c2.4.3 4.4.5 5.7.6-6.5 5.8-11.7 10.4-15.5 13.8-1-.3-3.3-.7-5.3-1l15.1-13.4zm-11.5 15.9c-2.6 2.3-4.5 3.9-5.6 4.7-3.5 2.8-8.8 3.7-11.2 3.8l10.4-9.5c1.6.2 4.6.7 6.4 1zm13.1-36v-1.9h26.8v1.9H53.7zm19.4-38.9c0 1.9-2.8 3.5-6.2 3.5s-6.2-1.6-6.2-3.5 2.8-3.5 6.2-3.5 6.2 1.7 6.2 3.5zm-12.9 27.6v-1.9h13.5v1.9H60.2zm13.5 1.9v1.6c0 .1-.1.2-.1.3H60.2v-1.9h13.5zm-13.5-5.6v-1.9h13.5v1.9H60.2zm9.9-6.5l2.4 2.7H61.4l2.4-2.7h6.3zm-5.7-2v-10.4c.8.2 1.6.3 2.5.3.9 0 1.8-.1 2.6-.3v10.4h-5.1zM60.2 147h13.5v1.9H60.2V147zm36-28.7c-2 4.5-6.8 13.2-10.7 20.1l-3.7-2.4c7.3-10.7 15-22 16.9-24.2-.3 1.2-.9 3-2.5 6.5zm-9.4 33.1v.7c0 1.2-1 2.2-2.2 2.2s-2.2-1-2.2-2.2v-.7c0-1.2 1-2.2 2.2-2.2s2.2 1 2.2 2.2zm-5-6.5l-4-2.9c1-1.4 1.9-2.9 2.9-4.3l3.8 2.4c-.9 1.8-1.9 3.4-2.7 4.8zm-6.2.5l1.2-1.8 4.1 3c-.8 1.4-1.3 2.3-1.4 2.5h-3.9v-3.7zm-1.1 21l22.2 19.8c-2 .3-4.3.7-5.3 1-4.5-3.9-10.8-9.5-18.8-16.7l-.6-.5c1.1-1 1.9-2.2 2.5-3.6zm25 21.3l10.3 9.5c-2.5 0-7.6-1-11.1-3.7-1.1-.8-2.9-2.4-5.6-4.7 1.8-.4 4.8-.9 6.4-1.1zm10.4-38.8v5.8c0 .5-.4.9-.9.9H93.5c-.5 0-.9-.4-.9-.9v-.1h.7c.5 0 .9-.4.9-.9v-3.8c0-.5-.4-.9-.9-.9h-.7v-.1c0-.5.4-.9.9-.9H109c.5-.1.9.3.9.9zm-17.6 3.8h-3.7v-1.9h3.7v1.9zm-68 2v-5.8c0-.5.4-.9.9-.9h15.5c.5 0 .9.4.9.9v.1H41c-.5 0-.9.4-.9.9v3.8c0 .5.4.9.9.9h.7v.1c0 .5-.4.9-.9.9H25.3c-.5 0-1-.4-1-.9zm17.6-3.9h3.7v1.9h-3.7v-1.9zm10 1.3c0 1.2-1 2.2-2.2 2.2-1.2 0-2.2-1-2.2-2.2v-.7c0-1.2 1-2.2 2.2-2.2 1.2 0 2.2 1 2.2 2.2v.7z"/></svg>