<svg version="1.1" id="Layer_1" xmlns="http://www.w3.org/2000/svg" x="0" y="0" viewBox="0 0 512 512" xml:space="preserve"><style>.st0{fill:#fff}.st1{fill:#005293}.st2{fill:#d21034}</style><path class="st0" d="M0 88h256v168H0z"/><path class="st1" d="M0 256h256v168H0z"/><path transform="rotate(-180 384 172)" class="st2" d="M256 88h256v168H256z"/><path transform="rotate(-180 384 340)" class="st0" d="M256 256h256v168H256z"/><path class="st1" d="M131.4 134.5l8.4 25.2 26.6.2c3.4 0 4.9 4.4 2.1 6.5l-21.4 15.8 8 25.4c1 3.3-2.7 6-5.5 4L128 196.1l-21.6 15.5c-2.8 2-6.5-.7-5.5-4l8-25.4-21.4-15.8c-2.8-2-1.3-6.4 2.1-6.5l26.6-.2 8.4-25.2c1.1-3.3 5.7-3.3 6.8 0z"/><path class="st2" d="M387.4 302.2l8.4 25.2 26.6.2c3.4 0 4.9 4.4 2.1 6.5l-21.4 15.8 8 25.4c1 3.3-2.7 6-5.5 4L384 363.8l-21.6 15.5c-2.8 2-6.5-.7-5.5-4l8-25.4-21.4-15.8c-2.8-2-1.3-6.4 2.1-6.5l26.6-.2 8.4-25.2c1.1-3.3 5.7-3.3 6.8 0z"/></svg>