<svg version="1.1" id="Layer_1" xmlns="http://www.w3.org/2000/svg" x="0" y="0" viewBox="0 0 512 512" xml:space="preserve"><style>.st0{fill:#da2130}.st3{fill:#0056ac}.st4{fill:#770c09}</style><path class="st0" d="M0 88h512v84H0z"/><path fill="#fff" d="M0 172h512v168H0z"/><path class="st0" d="M0 340h512v84H0z"/><path d="M314.2 233.5l-56 22.9c0-.1 0-.1-.1-.2l54.1-27.1c-2.1-4.3-4.7-8.3-7.8-11.9l-46.7 38.6c0-.1-.1-.1-.1-.2l42.8-42.8c-3.1-3.1-6.4-5.8-10-8.2l-33.1 50.7-.2-.2 27.1-54.2c-4.3-2.2-9-3.9-13.8-5l-13.7 59c-.2 0-.3-.1-.5-.1s-.4.1-.5.1l-13.7-59c-4.8 1.1-9.5 2.8-13.8 5l27.1 54.2c-.1 0-.1.1-.2.2L222 204.6c-3.6 2.4-7 5.1-10 8.2l42.8 42.8c-.1.1-.1.1-.1.2L208 217.2c-3 3.6-5.6 7.6-7.8 11.9l54.1 27.1c0 .1-.1.1-.1.2l-56-22.9c-1.7 4.1-2.9 8.5-3.7 13l59.7 10.3v.2l-60.2-6.3c-.2 2.1-.3 4.3-.3 6.5 0 3.8.4 7.5 1 11.1l61.8-6.4 61.8 6.4c.6-3.6 1-7.3 1-11.1 0-2.2-.1-4.3-.3-6.5l-60.2 6.3v-.2l59.7-10.3c-1.4-4.5-2.6-8.9-4.3-13z" fill="#ffab2b"/><path class="st3" d="M195.3 273.3c.4 1.6.9 3.2 1.5 4.8h118.5c.6-1.6 1.1-3.2 1.5-4.8-5.8-.8-6.5-4.5-13.6-4.5-7.9 0-7.9 4.7-15.7 4.7-7.9 0-7.9-4.7-15.7-4.7-7.9 0-7.9 4.7-15.7 4.7-7.8 0-7.8-4.7-15.7-4.7-7.9 0-7.9 4.7-15.7 4.7-7.9 0-7.9-4.7-15.7-4.7-7.2 0-7.9 3.8-13.7 4.5zM301.3 285.1c-7.6 0-7.6-4.7-15.1-4.7-7.6 0-7.6 4.7-15.1 4.7s-7.6-4.7-15.1-4.7c-7.6 0-7.6 4.7-15.1 4.7-7.6 0-7.6-4.7-15.1-4.7-7.6 0-7.6 4.7-15.1 4.7-6.7 0-7.5-3.7-12.8-4.5 1.3 3.2 2.8 6.2 4.6 9.1H310c1.8-2.9 3.3-6 4.6-9.2-5.8.9-6.5 4.6-13.3 4.6zM307.3 293.4c-1.5-.8-3.2-1.4-5.9-1.4-7.6 0-7.6 4.7-15.1 4.7s-7.6-4.7-15.1-4.7c-7.6 0-7.6 4.7-15.1 4.7-7.6 0-7.6-4.7-15.1-4.7-7.6 0-7.6 4.7-15.1 4.7-7.6 0-7.6-4.7-15.1-4.7-2.7 0-4.5.6-5.9 1.4 2 2.8 4.2 5.5 6.7 7.9h89.3c2.2-2.4 4.4-5 6.4-7.9zM294.7 306.6c-2.3-1.3-4.1-2.9-8.6-2.9-7.6 0-7.6 4.7-15.1 4.7s-7.6-4.7-15.1-4.7c-7.6 0-7.6 4.7-15.1 4.7-7.6 0-7.6-4.7-15.1-4.7-4.4 0-6.2 1.6-8.5 2.9 3.1 2.4 6.5 4.6 10 6.4h57.6c3.5-1.8 6.8-3.9 9.9-6.4zM240.9 315.3c-2.5 0-4.1.5-5.5 1.2 6.5 2.2 13.4 3.5 20.6 3.5-7.5 0-7.5-4.7-15.1-4.7zM256.1 320c7.2 0 14.1-1.2 20.6-3.5-1.4-.7-3-1.2-5.5-1.2-7.6 0-7.6 4.7-15.1 4.7z"/><g><path class="st0" d="M264.3 249.2l-19.9-5.8c-1.1-.3-1.9-1.3-1.9-2.5-.1-7.4-.4-33.3-.4-37.3 0-4.7 4.7-11.6 14-11.6h7.3c.7 0 .9.9.3 1.2-3.4 1.4-7.6 4.4-7.6 10.4 0 7.1 6.8 10.1 10 11.2 1 .3 1.7 1.2 1.7 2.3v29.6c-.2 1.7-1.8 3-3.5 2.5zM246.7 275.3c.7-.4 1.6.3 1.3 1.1-1.9 4.7-6.7 13.4-15.2 13.4-11.6 0-14-9.3-14-16.3v-49.4c0-1 .8-1.8 1.8-1.8h3.3c1 0 1.8.8 1.8 1.8v47c0 6.3 13.3 8.8 21 4.2zM264.3 275.3c-.7-.4-1.6.3-1.3 1.1 1.9 4.7 6.7 13.4 15.2 13.4 11.6 0 14-9.3 14-16.3v-49.4c0-1-.8-1.8-1.8-1.8h-3.3c-1 0-1.8.8-1.8 1.8v47c0 6.3-13.3 8.8-21 4.2z"/></g><g><path class="st4" d="M280.5 267.6h-49c-.6 0-1.1-.5-1.1-1.1v-.1c0-.6.5-1.1 1.1-1.1h49c.6 0 1.1.5 1.1 1.1v.1c0 .6-.5 1.1-1.1 1.1zM235.3 258.9l2.5-3.4c.4-.5.3-1.2-.2-1.6-.5-.4-1.2-.3-1.6.2l-1 1.3v-.9c0-.6-.5-1.2-1.2-1.2s-1.2.5-1.2 1.2v.8l-.9-1.2c-.4-.5-1.1-.6-1.6-.2s-.6 1.1-.2 1.6l2.5 3.4-2.5 3.4c-.4.5-.3 1.2.2 1.6.2.2.5.2.7.2.4 0 .7-.2.9-.5l2.1-2.8 2.1 2.8c.2.3.6.5.9.5.2 0 .5-.1.7-.2.5-.4.6-1.1.2-1.6l-2.4-3.4zM257.1 258.9l2.5-3.4c.4-.5.3-1.2-.2-1.6-.5-.4-1.2-.3-1.6.2l-1 1.3v-.9c0-.6-.5-1.2-1.2-1.2s-1.2.5-1.2 1.2v.8l-.9-1.2c-.4-.5-1.1-.6-1.6-.2s-.6 1.1-.2 1.6l2.5 3.4-2.5 3.4c-.4.5-.3 1.2.2 1.6.2.2.5.2.7.2.4 0 .7-.2.9-.5l2.1-2.8 2.1 2.8c.2.3.6.5.9.5.2 0 .5-.1.7-.2.5-.4.6-1.1.2-1.6l-2.4-3.4zM246.2 258.9l2.5-3.4c.4-.5.3-1.2-.2-1.6-.5-.4-1.2-.3-1.6.2l-1 1.3v-.9c0-.6-.5-1.2-1.2-1.2s-1.2.5-1.2 1.2v.8l-.9-1.2c-.4-.5-1.1-.6-1.6-.2s-.6 1.1-.2 1.6l2.5 3.4-2.5 3.4c-.4.5-.3 1.2.2 1.6.2.2.5.2.7.2.4 0 .7-.2.9-.5l2.1-2.8 2.1 2.8c.2.3.6.5.9.5.2 0 .5-.1.7-.2.5-.4.6-1.1.2-1.6l-2.4-3.4zM267.9 258.9l2.5-3.4c.4-.5.3-1.2-.2-1.6-.5-.4-1.2-.3-1.6.2l-1 1.3v-.9c0-.6-.5-1.2-1.2-1.2s-1.2.5-1.2 1.2v.8l-.9-1.2c-.4-.5-1.1-.6-1.6-.2-.5.4-.6 1.1-.2 1.6l2.5 3.4-2.5 3.4c-.4.5-.3 1.2.2 1.6.2.2.5.2.7.2.4 0 .7-.2.9-.5l2.1-2.8 2.1 2.8c.2.3.6.5.9.5.2 0 .5-.1.7-.2.5-.4.6-1.1.2-1.6l-2.4-3.4zM278.8 258.9l2.5-3.4c.4-.5.3-1.2-.2-1.6-.5-.4-1.2-.3-1.6.2l-1 1.3v-.9c0-.6-.5-1.2-1.2-1.2s-1.2.5-1.2 1.2v.8l-.9-1.2c-.4-.5-1.1-.6-1.6-.2-.5.4-.6 1.1-.2 1.6l2.5 3.4-2.5 3.4c-.4.5-.3 1.2.2 1.6.2.2.5.2.7.2.4 0 .7-.2.9-.5l2.1-2.8 2.1 2.8c.2.3.6.5.9.5.2 0 .5-.1.7-.2.5-.4.6-1.1.2-1.6l-2.4-3.4zM233.2 274.8c1.7.8 11.8.9 14.4-1.8s2-3.9 2-3.9l-12.3.1-4.1 5.6zM278.3 274.8c-1.7.8-11.8.9-14.4-1.8s-2-3.9-2-3.9l12.3.1 4.1 5.6z"/></g></svg>