<?xml version="1.0" encoding="utf-8"?>
<!-- Generator: Adobe Illustrator 25.0.0, SVG Export Plug-In . SVG Version: 6.00 Build 0)  -->
<svg version="1.1" id="Layer_1" xmlns="http://www.w3.org/2000/svg" xmlns:xlink="http://www.w3.org/1999/xlink" x="0px" y="0px"
	 viewBox="0 0 512 512" style="enable-background:new 0 0 512 512;" xml:space="preserve">
<style type="text/css">
	.st0{fill:#CE1126;}
	.st1{fill:#FFFFFF;}
	.st2{fill:#FCD116;}
</style>
<polygon class="st0" points="512,423.7 0,87.7 512,87.7 "/>
<polygon points="512,423.7 0,423.7 0,87.7 "/>
<g>
	<path class="st1" d="M51.5,250.3l-5.1,15.1l-16,0.1c-1.5,0-2.2,2-0.9,2.9l12.8,9.5l-4.8,15.2c-0.5,1.5,1.2,2.7,2.4,1.8l13-9.3
		l13,9.3c1.2,0.9,2.9-0.3,2.4-1.8l-4.8-15.2l12.8-9.5c1.2-0.9,0.6-2.9-0.9-2.9l-16-0.1l-5.1-15.1C54,248.8,52,248.8,51.5,250.3z"/>
	<path class="st1" d="M160.3,250.3l-5.1,15.1l-16,0.1c-1.5,0-2.2,2-0.9,2.9l12.8,9.5l-4.8,15.2c-0.5,1.5,1.2,2.7,2.4,1.8l13-9.3
		l13,9.3c1.2,0.9,2.9-0.3,2.4-1.8l-4.8-15.2l12.8-9.5c1.2-0.9,0.6-2.9-0.9-2.9l-16-0.1l-5.1-15.1
		C162.8,248.8,160.8,248.8,160.3,250.3z"/>
	<path class="st1" d="M105.9,184.4l-5.1,15.1l-16,0.1c-1.5,0-2.2,2-0.9,2.9l12.8,9.5L92,227.2c-0.5,1.5,1.2,2.7,2.4,1.8l13-9.3
		l13,9.3c1.2,0.9,2.9-0.3,2.4-1.8L118,212l12.8-9.5c1.2-0.9,0.6-2.9-0.9-2.9l-16-0.1l-5.1-15.1C108.4,182.9,106.4,182.9,105.9,184.4
		z"/>
	<path class="st1" d="M105.9,346.5l-5.1,15.1l-16,0.1c-1.5,0-2.2,2-0.9,2.9l12.8,9.5L92,389.4c-0.5,1.5,1.2,2.7,2.4,1.8l13-9.3
		l13,9.3c1.2,0.9,2.9-0.3,2.4-1.8l-4.8-15.2l12.8-9.5c1.2-0.9,0.6-2.9-0.9-2.9l-16-0.1l-5.1-15.1C108.4,345,106.4,345,105.9,346.5z"
		/>
	<path class="st1" d="M131.2,307l-2.7,8.1l-8.5,0.1c-0.8,0-1.2,1-0.5,1.5l6.8,5l-2.6,8.1c-0.2,0.8,0.6,1.4,1.3,0.9l6.9-4.9l6.9,4.9
		c0.7,0.5,1.5-0.2,1.3-0.9l-2.6-8.1l6.8-5c0.7-0.5,0.3-1.5-0.5-1.5l-8.5-0.1l-2.7-8.1C132.6,306.2,131.5,306.2,131.2,307z"/>
</g>
<path class="st2" d="M437.6,248.3c-1.3-10-5.6-19.9-8.7-26c1.5,0.8,3.9,2.1,3.9,2.1l-2.1-7.6c5.3,2.1,9.2,6.2,9.2,6.2
	c-2.6-13.2-6.7-19.3-6.7-19.3l3.3,1.2c-6.2-15.3-15.4-19.6-15.4-19.6l5.3-1.3c-7.8-9.7-18.7-13-18.7-13l7.1-3.4
	c-18.8-10.7-37,0.5-37,0.5s6.3-6.6,8.7-9.3c2.4-2.8-3.3-3.7-3.3-3.7s5.5-3.8,5.3-6.1c-0.3-2.2-5.3-1.1-5.3-1.1s4.3-4.5,4.3-7
	c0-2.5-4.5-0.9-4.5-0.9s1.4-3,1.8-5.4c0.4-2.4-3.9-0.4-3.9-0.4s4.9-8.7,4.6-10.5c-0.3-1.8-12.8,5.9-21.7,14.5
	c-8.9,8.6-7.9,22.3-7.1,25.6s1.3,10.9-2.7,13.6c-4,2.7-11-3.9-14.5-7.9c-3.5-4-7.9-2.6-12.5-1.1c-4.6,1.6-13.2-0.5-15.8-0.9
	c-2.6-0.4,3,2.6,7.7,4.4s6.8,6,13.5,8.4c5.8,2.2,10.5,7.6,5.9,10.1c-3.6,2-3.6-1.2-19.3-5.3c-15.8-4.1-34.7,36-34.7,36
	c10.1-1.3,15.3-7.3,15.3-7.3l-2.7,7.9c7.5-1.4,11.2-6,11.2-6l-2,7.9c5.7-1.8,9.7-7.9,9.7-7.9l-1.7,7.8c5.6-2.7,8.6-7.8,8.6-7.8
	c0.6,2.9,1.1,8.7,1.1,8.7c8.7-4.7,10.8-11.3,10.8-11.3c10,30.2,24.5,35.2,24.5,35.2l0.8-7.9c4.5,6.3,10.8,9.5,10.8,9.5l-1.1-6.8
	c15.5,18.9,33.4,23.7,33.4,23.7l-4.6-10.5l5.6,1.1c-6-5.1-8.3-14.1-8.3-14.1l4.7,0.8c-7.6-7-11.4-15-11.4-15l4.6,0.8
	c-1.4-2.2-2.6-10.1-2.6-10.1c8.4,2.6,12.8,5.9,12.8,5.9l0.5-2.9c7.2,5.2,19.1,14.9,27.3,27.1c0,4-0.6,8-2.3,12
	c-7.5,18.4-27.4,17.2-36.1,13.3c0,0,27.2,21.2,42.1-8.9c0.9-1.9,1.5-4,2-6.1c1.9,4.4,3.1,9.1,3.4,13.9c1.6,30.8-30.5,27.9-30.5,27.9
	s35.5,14.2,37.1-26.8C447.6,266.1,443.8,257,437.6,248.3z M405.3,217.6l0.2-0.9c5.4,1.6,11,5.4,11,5.4l1.2-3.7
	c5.3,6.4,9.6,13.3,12,20.5C422.5,231.1,413.9,223.9,405.3,217.6z"/>
</svg>
