<svg version="1.1" id="Layer_1" xmlns="http://www.w3.org/2000/svg" x="0" y="0" viewBox="0 0 512 512" xml:space="preserve"><style>.st1{fill:#fff}</style><path fill="#ce1126" d="M512 423.7L0 87.7h512z"/><path d="M512 423.7H0v-336z"/><path class="st1" d="M51.5 250.3l-5.1 15.1-16 .1c-1.5 0-2.2 2-.9 2.9l12.8 9.5-4.8 15.2c-.5 1.5 1.2 2.7 2.4 1.8l13-9.3 13 9.3c1.2.9 2.9-.3 2.4-1.8l-4.8-15.2 12.8-9.5c1.2-.9.6-2.9-.9-2.9l-16-.1-5.1-15.1c-.3-1.5-2.3-1.5-2.8 0zM160.3 250.3l-5.1 15.1-16 .1c-1.5 0-2.2 2-.9 2.9l12.8 9.5-4.8 15.2c-.5 1.5 1.2 2.7 2.4 1.8l13-9.3 13 9.3c1.2.9 2.9-.3 2.4-1.8l-4.8-15.2 12.8-9.5c1.2-.9.6-2.9-.9-2.9l-16-.1-5.1-15.1c-.3-1.5-2.3-1.5-2.8 0zM105.9 184.4l-5.1 15.1-16 .1c-1.5 0-2.2 2-.9 2.9l12.8 9.5-4.7 15.2c-.5 1.5 1.2 2.7 2.4 1.8l13-9.3 13 9.3c1.2.9 2.9-.3 2.4-1.8L118 212l12.8-9.5c1.2-.9.6-2.9-.9-2.9l-16-.1-5.1-15.1c-.4-1.5-2.4-1.5-2.9 0zM105.9 346.5l-5.1 15.1-16 .1c-1.5 0-2.2 2-.9 2.9l12.8 9.5-4.7 15.3c-.5 1.5 1.2 2.7 2.4 1.8l13-9.3 13 9.3c1.2.9 2.9-.3 2.4-1.8l-4.8-15.2 12.8-9.5c1.2-.9.6-2.9-.9-2.9l-16-.1-5.1-15.1c-.4-1.6-2.4-1.6-2.9-.1zM131.2 307l-2.7 8.1-8.5.1c-.8 0-1.2 1-.5 1.5l6.8 5-2.6 8.1c-.2.8.6 1.4 1.3.9l6.9-4.9 6.9 4.9c.7.5 1.5-.2 1.3-.9l-2.6-8.1 6.8-5c.7-.5.3-1.5-.5-1.5l-8.5-.1-2.7-8.1c0-.8-1.1-.8-1.4 0z"/><path d="M437.6 248.3c-1.3-10-5.6-19.9-8.7-26 1.5.8 3.9 2.1 3.9 2.1l-2.1-7.6c5.3 2.1 9.2 6.2 9.2 6.2-2.6-13.2-6.7-19.3-6.7-19.3l3.3 1.2c-6.2-15.3-15.4-19.6-15.4-19.6l5.3-1.3c-7.8-9.7-18.7-13-18.7-13l7.1-3.4c-18.8-10.7-37 .5-37 .5s6.3-6.6 8.7-9.3c2.4-2.8-3.3-3.7-3.3-3.7s5.5-3.8 5.3-6.1c-.3-2.2-5.3-1.1-5.3-1.1s4.3-4.5 4.3-7-4.5-.9-4.5-.9 1.4-3 1.8-5.4c.4-2.4-3.9-.4-3.9-.4s4.9-8.7 4.6-10.5c-.3-1.8-12.8 5.9-21.7 14.5-8.9 8.6-7.9 22.3-7.1 25.6s1.3 10.9-2.7 13.6c-4 2.7-11-3.9-14.5-7.9s-7.9-2.6-12.5-1.1c-4.6 1.6-13.2-.5-15.8-.9-2.6-.4 3 2.6 7.7 4.4s6.8 6 13.5 8.4c5.8 2.2 10.5 7.6 5.9 10.1-3.6 2-3.6-1.2-19.3-5.3-15.8-4.1-34.7 36-34.7 36 10.1-1.3 15.3-7.3 15.3-7.3l-2.7 7.9c7.5-1.4 11.2-6 11.2-6l-2 7.9c5.7-1.8 9.7-7.9 9.7-7.9l-1.7 7.8c5.6-2.7 8.6-7.8 8.6-7.8.6 2.9 1.1 8.7 1.1 8.7 8.7-4.7 10.8-11.3 10.8-11.3 10 30.2 24.5 35.2 24.5 35.2l.8-7.9c4.5 6.3 10.8 9.5 10.8 9.5l-1.1-6.8c15.5 18.9 33.4 23.7 33.4 23.7l-4.6-10.5 5.6 1.1c-6-5.1-8.3-14.1-8.3-14.1l4.7.8c-7.6-7-11.4-15-11.4-15l4.6.8c-1.4-2.2-2.6-10.1-2.6-10.1 8.4 2.6 12.8 5.9 12.8 5.9l.5-2.9c7.2 5.2 19.1 14.9 27.3 27.1 0 4-.6 8-2.3 12-7.5 18.4-27.4 17.2-36.1 13.3 0 0 27.2 21.2 42.1-8.9.9-1.9 1.5-4 2-6.1 1.9 4.4 3.1 9.1 3.4 13.9 1.6 30.8-30.5 27.9-30.5 27.9s35.5 14.2 37.1-26.8c.3-9.1-3.5-18.2-9.7-26.9zm-32.3-30.7l.2-.9c5.4 1.6 11 5.4 11 5.4l1.2-3.7c5.3 6.4 9.6 13.3 12 20.5-7.2-7.8-15.8-15-24.4-21.3z" fill="#fcd116"/></svg>