<?xml version="1.0" encoding="utf-8"?>
<!-- Generator: Adobe Illustrator 25.0.0, SVG Export Plug-In . SVG Version: 6.00 Build 0)  -->
<svg version="1.1" id="Layer_1" xmlns="http://www.w3.org/2000/svg" xmlns:xlink="http://www.w3.org/1999/xlink" x="0px" y="0px"
	 viewBox="0 0 512 512" style="enable-background:new 0 0 512 512;" xml:space="preserve">
<style type="text/css">
	.st0{fill:#FFFFFF;}
	.st1{fill:#CE1126;}
	.st2{fill:#0038A8;}
	.st3{fill:#FCD116;}
</style>
<polygon class="st0" points="0,88.3 0,424.3 256,256.3 "/>
<polygon class="st1" points="255.4,255.9 256,256.3 0.6,423.9 512,423.9 512,255.9 "/>
<polygon class="st2" points="0,88.3 256,256.3 512,256.3 512,88.3 "/>
<g>
	<path class="st3" d="M135.7,266.8l14.3-10.8l-14.3-10.8l-15.2,3.8c-0.7-2.8-1.8-5.4-3.2-7.8l13.4-8.1l2.5-17.8l-17.8,2.5l-8.1,13.4
		c-2.4-1.4-5-2.5-7.8-3.2l3.8-15.2l-10.8-14.3L81.9,213l3.8,15.2c-2.8,0.7-5.4,1.8-7.8,3.2L69.9,218l-17.8-2.5l2.5,17.8l13.4,8.1
		c-1.4,2.4-2.5,5-3.2,7.8l-15.2-3.8L35.3,256l14.3,10.8l15.2-3.8c0.7,2.8,1.8,5.4,3.2,7.8l-13.4,8.1l-2.5,17.8l17.8-2.5l8.1-13.4
		c2.4,1.4,5,2.5,7.8,3.2L81.9,299l10.8,14.3l10.8-14.3l-3.8-15.2c2.8-0.7,5.4-1.8,7.8-3.2l8.1,13.4l17.8,2.5l-2.5-17.8l-13.4-8.1
		c1.4-2.4,2.5-5,3.2-7.8L135.7,266.8z"/>
	<path class="st3" d="M23.7,131.7l1.5,11.2l-10.1,5c-1.3,0.7-1,2.6,0.4,2.9l11.1,2l1.7,11.1c0.2,1.4,2.1,1.8,2.8,0.5l5.4-9.9
		l11.1,1.9c1.4,0.2,2.4-1.5,1.3-2.5l-7.8-8.1l5.2-10c0.7-1.3-0.7-2.7-2-2.1l-10.2,4.9l-7.9-8C25.2,129.4,23.5,130.2,23.7,131.7z"/>
	<path class="st3" d="M28.1,348.9L26.2,360l-11.1,1.8c-1.4,0.2-1.8,2.2-0.5,2.8l10,5.2L22.9,381c-0.2,1.4,1.5,2.3,2.6,1.3l8.1-7.9
		l10.1,5.1c1.3,0.7,2.7-0.7,2-2l-5-10.1l7.9-8c1-1,0.1-2.8-1.3-2.6l-11.1,1.6l-5.2-10C30.3,347.2,28.3,347.5,28.1,348.9z"/>
	<path class="st3" d="M202.7,239.6l-6.5,9.2l-10.8-3.1c-1.4-0.4-2.5,1.2-1.6,2.4l6.8,9l-6.3,9.3c-0.8,1.2,0.4,2.8,1.7,2.3l10.7-3.6
		l6.9,8.9c0.9,1.2,2.7,0.5,2.7-1l-0.2-11.3l10.6-3.8c1.4-0.5,1.3-2.4-0.1-2.9l-10.8-3.3l-0.3-11.3
		C205.4,238.9,203.6,238.4,202.7,239.6z"/>
</g>
</svg>
