<svg version="1.1" id="Layer_1" xmlns="http://www.w3.org/2000/svg" x="0" y="0" viewBox="0 0 512 512" xml:space="preserve"><style>.st3{fill:#fcd116}</style><path fill="#fff" d="M0 88.3v336l256-168z"/><path fill="#ce1126" d="M255.4 255.9l.6.4L.6 423.9H512v-168z"/><path fill="#0038a8" d="M0 88.3l256 168h256v-168z"/><path class="st3" d="M135.7 266.8L150 256l-14.3-10.8-15.2 3.8c-.7-2.8-1.8-5.4-3.2-7.8l13.4-8.1 2.5-17.8-17.8 2.5-8.1 13.4c-2.4-1.4-5-2.5-7.8-3.2l3.8-15.2-10.8-14.3L81.9 213l3.8 15.2c-2.8.7-5.4 1.8-7.8 3.2l-8-13.4-17.8-2.5 2.5 17.8 13.4 8.1c-1.4 2.4-2.5 5-3.2 7.8l-15.2-3.8L35.3 256l14.3 10.8 15.2-3.8c.7 2.8 1.8 5.4 3.2 7.8l-13.4 8.1-2.5 17.8 17.8-2.5 8.1-13.4c2.4 1.4 5 2.5 7.8 3.2l-3.9 15 10.8 14.3 10.8-14.3-3.8-15.2c2.8-.7 5.4-1.8 7.8-3.2l8.1 13.4 17.8 2.5-2.5-17.8-13.4-8.1c1.4-2.4 2.5-5 3.2-7.8l15 4zM23.7 131.7l1.5 11.2-10.1 5c-1.3.7-1 2.6.4 2.9l11.1 2 1.7 11.1c.2 1.4 2.1 1.8 2.8.5l5.4-9.9 11.1 1.9c1.4.2 2.4-1.5 1.3-2.5l-7.8-8.1 5.2-10c.7-1.3-.7-2.7-2-2.1l-10.2 4.9-7.9-8c-1-1.2-2.7-.4-2.5 1.1zM28.1 348.9L26.2 360l-11.1 1.8c-1.4.2-1.8 2.2-.5 2.8l10 5.2-1.7 11.2c-.2 1.4 1.5 2.3 2.6 1.3l8.1-7.9 10.1 5.1c1.3.7 2.7-.7 2-2l-5-10.1 7.9-8c1-1 .1-2.8-1.3-2.6l-11.1 1.6-5.2-10c-.7-1.2-2.7-.9-2.9.5zM202.7 239.6l-6.5 9.2-10.8-3.1c-1.4-.4-2.5 1.2-1.6 2.4l6.8 9-6.3 9.3c-.8 1.2.4 2.8 1.7 2.3l10.7-3.6 6.9 8.9c.9 1.2 2.7.5 2.7-1l-.2-11.3 10.6-3.8c1.4-.5 1.3-2.4-.1-2.9l-10.8-3.3-.3-11.3c-.1-1.5-1.9-2-2.8-.8z"/></svg>