<svg version="1.1" id="Layer_1" xmlns="http://www.w3.org/2000/svg" x="0" y="0" viewBox="0 0 512 512" xml:space="preserve"><style>.st0{fill:#fff}</style><path class="st0" d="M0 88.3h132.4v336H0z"/><path transform="rotate(-180 322.207 256.276)" fill="#01411c" d="M132.4 88.3H512v336H132.4z"/><path class="st0" d="M412.1 302.2c-40.6 36.2-102.8 32.5-139-8.2-36.1-40.6-32.4-103 8.2-139.2l.2-.2c1-.8 0-2.4-1.2-1.9-40.1 15.6-68.5 54.6-68.5 100.2 0 59.4 48.1 107.6 107.4 107.6 41 0 76.6-23.1 94.6-57 .7-1.1-.7-2.2-1.7-1.3zM359.8 172.6l14.1 15.8 19.6-8.2c2.5-1.1 5 1.7 3.6 4.1l-10.7 18.3 13.9 16.1c1.8 2.1-.1 5.2-2.8 4.7l-20.7-4.5-11 18.2c-1.4 2.4-5 1.5-5.3-1.2l-2.1-21.1-20.7-4.8c-2.7-.6-3-4.3-.5-5.4l19.4-8.5-1.8-21.1c-.2-3 3.2-4.5 5-2.4z"/></svg>