<svg version="1.1" id="Layer_1" xmlns="http://www.w3.org/2000/svg" x="0" y="0" viewBox="0 0 512 512" xml:space="preserve"><style>.st0{fill:#012169}.st1{fill:#fff}.st2{fill:#c8102e}.st3{fill:#3f832c}.st4{fill:#f9e31a}.st5{fill:#a7998f}.st6{fill:#9b8278}.st7{fill:#ffce5a}</style><path class="st0" d="M256.1 88v168.2H0V424h512V88z"/><g id="Union_flag"><path class="st0" d="M0 88h256.1v168.2H0z"/><path class="st1" d="M106 150.1v-7.9L22.7 88H0v17l69.3 45.1zM106 194.1H70.8L0 240.1v16.1h24.2l81.8-53.3zM233.9 88L150 142.5v7.6h37.3l68.8-44.8V88zM150 194.1v8.5l82.5 53.6h23.6v-16.4l-70.2-45.7z"/><path class="st1" d="M256.1 150.1H150V88h-44v62.1H0v44h106v62.1h44v-62.1h106.1z"/><path class="st2" d="M256.1 158.8H141.3V88h-26.5v70.8H0v26.5h114.8v70.9h26.5v-70.9h114.8z"/><path class="st2" d="M97.2 150.1L1.7 88H0v9.6l80.7 52.5zM106 194.1H89.6L0 252.4v3.8h10.6zM157.3 194.1l95.5 62.1h3.3v-8.6l-82.3-53.5zM245.4 88L150 150v.1h16.4l89.7-58.3V88z"/></g><path class="st3" d="M387.2 177.4c-.2 0-.4-.1-.6-.2-.1-.1-13.8-10.8-5.8-28.9.2-.5.8-.7 1.3-.5.5.2.7.8.5 1.3-7.4 16.7 4.7 26.2 5.2 26.6.4.3.5.9.2 1.3-.2.2-.5.4-.8.4z"/><path class="st3" d="M379.3 161.7h-.1c-.5-.1-.9-.5-.8-1.1.4-3.4 1.7-5.8 3.8-7.1 3.4-2.1 7.8-.4 7.9-.3.5.2.7.7.5 1.2-.2.5-.7.7-1.2.5 0 0-3.6-1.4-6.3.2-1.6 1-2.6 2.9-2.9 5.7 0 .6-.4.9-.9.9zM381.9 149.5c-.1-.2-2.1-5.1-11.4-3-10.5 2.4-10.7 16.3-10.7 16.4 0 .5.4.9.8.9h.1c.4 0 .8-.3.9-.7 3.9-15 18.6-12.4 19.2-12.3.4.1.7-.1.9-.3.3-.4.3-.7.2-1z"/><path class="st3" d="M379.7 157.2s-6.3-4-9 1.1c-2.6 5.2-.6 10.7.4 12.9 0 0 3.8-4.2 7.4-4.8 4.4-.7 5.6-6.3 2.5-9-3.7-3.3-1.3-.2-1.3-.2zM386.6 147.7c-.1 5.6 3 6.3 3 6.3 2-5.1-3-6.3-3-6.3z"/><path class="st3" d="M385.7 159.4c0-5.3 3.6-5.9 3.6-5.9 2.2 4.9-3.6 5.9-3.6 5.9z"/><path class="st2" d="M406.3 155.1s-5.1-.7-7-1.7c-1.6-.8-3.7-2.6-6.4-2.2-2.1 0-3.8 1.7-3.8 3.8s1.4 4.6 8.9 4c3.6-.3 6.7 1.4 6.7 1.4-.5-2 1.6-5.3 1.6-5.3z"/><path class="st4" d="M401 156.8s-7.8.5-9.5-.7c-1.6-1.2-1.2-3 .4-3.2 2.6-.3 9.1 3.9 9.1 3.9z"/><path class="st5" d="M416.1 165.6L399 176.3l-2-1.9 9.4-9.1 2.2.9 2.1-2.9-5.1-2.7s-13.6 12.8-25.1 13.9c-3.9.4-7.8.1-10.9-1.2l-6.9 10 14.5 12.4 21.3-.8 17.6-23.9 3.1 1.4 2.6-3.1-5.7-3.7z"/><path class="st6" d="M368.4 194.4c-4.8 0-8.6-3.9-8.6-8.6 0-4.8 3.9-8.6 8.6-8.6 4.8 0 8.6 3.9 8.6 8.6 0 4.7-3.9 8.6-8.6 8.6zm0-14.4c-3.2 0-5.8 2.6-5.8 5.8s2.6 5.8 5.8 5.8 5.8-2.6 5.8-5.8-2.6-5.8-5.8-5.8z"/><path class="st3" d="M404.4 202.4s1.6-1 3.2-5.9l-3.3.5s.6-2.7-.1-4.7l-3.6 2.9s-1.7-3.5-2.4-4c0 0-2.5 3.6-4 4 0 0-1.4-5.2-2.9-6.2l-2.5 3.5-3.6-2.9s0 2.5-.1 3c-.1.6-4.8-4.9-4.8-4.9s-2.1.9-4.8 5.3l-3.5-3.6-1.4 4.7-4.8-1.3.8 2.8-4.2-.3s.7 4.1 2.8 5.6l39.2 1.5zM362.3 220.1s-13.1 16.7-37.8 14.8l26.9 3.7 13.8-13.1-2.9-5.4z"/><path class="st4" d="M319.6 232.4c2.6 1.9 18.8 6.5 30.5 1 0 0 .2 2.7-1.1 4.3 0 0 8.6-3.5 13.2-9.9s-9.6 13.8-9.6 13.8l-21.9 4-8.9-7.4-2.2-5.8zM317.9 172.3c-2.9.2-6.1 2-7.7 4.1-.9-.4-2.8-.5-4.4.5-2.1 1.4-6.1 6.6-9.5 5.2 0 0-.3 4.9 4.9 4.7 0 0-1.3 2-1.1 5.2.2 3.2-2.1 5.4-2.1 5.4s10.5 1.5 10.9-6.7c.1-1 .1-1.9.1-2.7 5.5 3 7.6-1.2 7.6-1.2s-3.3-3.1.1-7.5c3.3-4.4 12.5 6 12.5 6 .3-4-.1-13.9-11.3-13z"/><path class="st3" d="M358.4 199.8s-3 2.1-12.4.2c0 0 2.1-4.6 1.1-7.3 0 0-2.5 2.4-8.7 4.8s-13.8 10-16 14.9c0 0 13.9-32.1 2.7-35.4-3.8-1.1-7.1.7-8.3 2.5.6.7 1.1 1.6 1.2 2.9.1 2.7-2.6 21.2-6.7 33.9 0 0-1.2-4.4-3.1-6.5-1.9-2.1-3.3-5.6-3.3-5.6s-3.2 2.1-2.7 6.1c0 0-1.8-1.4-5.2-.5s-4.8-1.3-4.8-1.3-2.9 7.6 5.6 11.5c0 0-2.3 1.1-3.3 1.9-1.1.8-2.7.8-2.7.8s3 5.5 9.3 6.1c6.3.6 9.2 2.4 11.2 5.6 6.4 10.5 18.7 18.5 38.8 6.2 0 0-28.6 8.9-29.8-9.4-1.1-16 16.3-19.2 18.1-15.7s-.4 6.5-.4 6.5 9.5-2.2 4.9-11c0 .1 9.4 1.5 14.5-11.2zM450.1 232.4c-2.6 1.9-19.2 9-30.6-2.4-11.4-11.4-15.9-28.6-15.2-26.7h-11.4l3.8 34.3 42.4 8 8.9-7.4 2.1-5.8zM451.8 172.3c2.9.2 6.1 2 7.7 4.1.9-.4 2.8-.5 4.4.5 2.1 1.4 6.1 6.6 9.5 5.2 0 0 .3 4.9-4.9 4.7 0 0 1.3 2 1.1 5.2-.2 3.2 2.1 5.4 2.1 5.4s-10.5 1.5-10.9-6.7c-.1-1-.1-1.9-.1-2.7-5.5 3-7.6-1.2-7.6-1.2s3.3-3.1-.1-7.5c-3.3-4.4-12.5 6-12.5 6-.3-4 0-13.9 11.3-13z"/><path class="st4" d="M411.3 199.8s3 2.1 12.4.2c0 0-2.1-4.6-1.1-7.3 0 0 2.5 2.4 8.7 4.8s13.8 10 16 14.9c0 0-13.9-32.1-2.7-35.4 3.8-1.1 7.1.7 8.3 2.5-.6.7-1.1 1.6-1.2 2.9-.1 2.7 2.6 21.2 6.7 33.9 0 0 1.2-4.4 3.1-6.5 1.9-2.1 3.3-5.6 3.3-5.6s3.2 2.1 2.7 6.1c0 0 1.8-1.4 5.2-.5s4.8-1.3 4.8-1.3 2.9 7.6-5.6 11.5c0 0 2.3 1.1 3.3 1.9 1.1.8 2.7.8 2.7.8s-3 5.5-9.3 6.1c-6.3.6-9.2 2.4-11.2 5.6-6.4 10.5-18.7 18.5-38.8 6.2 0 0 28.6 8.9 29.8-9.4 1.1-16-16.3-19.2-18.1-15.7s.2 6.5.2 6.5-9.5-2.2-4.9-11c.1.1-9.2 1.5-14.3-11.2z"/><path class="st3" d="M403.2 226.5c4.7 6.8 11.2 13 30.1 18.9s23.9 6.7 33.8 14.7c0 0 1.9 2 2.6 5.2.8 3.7-4.9 14.5-4.9 14.5s.6-2.5-2.9-7.5-24.1-13.8-34.9-16.5c-10.8-2.7-29.4-15.2-24.3-24.6l.5-4.7zM467.1 260.1z"/><path class="st4" d="M466.6 283.3s.5 3.5-2.4 6.4c-2.9 3-4.9 5.1-4.8 7.6 0 0-4.3-3.1-3.6-10 0 0-5.6 4.6-14 .1 0 0 .8-8.5 11.8-9.5 0 0-4.3-3.3 1.3-8.5 0 0 .6 2.3 5.7 3.5 4.4 1 12.2-4.5 6.4-12.8 10.1 11.3 5 19-.4 23.2zM399.1 220.2s2.4 3.9 8.7 7.8c7.5 4.6 8.2 6.7 8.2 6.7l-5.1-.1s6.5 3.6 8.3 8.1c0 0-2.7.5-5.8-.4 0 0 2.5 2.3 1.3 9.5H402l-2.9-31.6z"/><path class="st3" d="M373.8 252.8v-30.5s-10.3 17.7-19.3 30.5h19.3z"/><path class="st4" d="M364.9 221.7c-2.5 4.6-10.5 19.8-29.4 25.6-18.9 5.9-22.3 4.8-32.2 12.8 0 0-1.9 2-2.6 5.2-.8 3.7 4.9 14.5 4.9 14.5s-.6-2.5 2.9-7.5 24-14.3 34.9-16.5c15.1-3 28.7-19.2 26.5-29.7-2.2-10.4-5-4.4-5-4.4z"/><path class="st3" d="M303.3 260.1zM303.8 283.3s-.5 3.5 2.4 6.4c2.9 3 4.9 5.1 4.8 7.6 0 0 4.3-3.1 3.6-10 0 0 5.6 4.6 14 .1 0 0-.8-8.5-11.8-9.5 0 0 4.3-3.3-1.3-8.5 0 0-.6 2.3-5.7 3.5-4.4 1-12.2-4.5-6.4-12.8-10.1 11.3-5 19 .4 23.2z"/><path class="st4" d="M330.1 334.1s2.7 12.1 2.9 24.7c0 0 11.8.4 17.5-8.5 0 0-11.4-6-17.5-17.5l-2.9 1.3z"/><path class="st3" d="M327.6 307.3c-.5-5.7 2.1-20.2 13.6-30.6l.3-12.8s-3.5.4-6.5 3l-6.5 10.1-6.1 23 5.2 7.3z"/><path class="st4" d="M327.9 311.4s0 12.2 5.1 21.4l-2.9 1.3s-10.2-8.1-12.4-24.6c0 0-9.2 6.1-12.5-6.3 0 0 9.8 4 13-5.1 2.9-8.2 5.8-23 16.8-31.2-5.2 8.1-13.1 28.7-7 36 1.6 1.9 6.3 3.6 11.4 1.4-.4 4-2.3 10.2-11.5 7.1z"/><path class="st7" d="M329.4 336.2l-1.7-3.1c-.3-.5-.1-1.2.4-1.5l3.1-1.7c.5-.3 1.2-.1 1.5.4l1.7 3.1c.3.5.1 1.2-.4 1.5l-3.1 1.7c-.6.4-1.2.2-1.5-.4z"/><path class="st4" d="M432.6 334.1s-2.7 12.1-2.9 24.7c0 0-11.8.4-17.5-8.5 0 0 11.4-6 17.5-17.5l2.9 1.3zM435.2 307.3c.5-5.7-2.1-20.2-13.6-30.6l-.3-12.8s3.5.4 6.5 3l6.5 10.1 6.1 23-5.2 7.3z"/><path class="st3" d="M423.4 304.2c5.1 2.2 9.7.5 11.4-1.4 6.1-7.3-1.8-27.9-7-36 11 8.2 13.9 23 16.8 31.2 3.2 9 13 5.1 13 5.1-3.4 12.4-12.5 6.3-12.5 6.3-2.1 16.5-12.4 24.6-12.4 24.6l-2.9-1.3c5.1-9.2 5.1-21.4 5.1-21.4-9.2 3.2-11.1-3-11.5-7.1z"/><path class="st7" d="M433.4 336.2l1.7-3.1c.3-.5.1-1.2-.4-1.5l-3.1-1.7c-.5-.3-1.2-.1-1.5.4l-1.7 3.1c-.3.5-.1 1.2.4 1.5l3.1 1.7c.5.4 1.2.2 1.5-.4z"/><path d="M343.3 249c-2.1 0-3.8 1.7-3.8 3.8v41.9c0 11.4 3.8 53.3 41.9 68.6 38.1-15.2 41.9-57.1 41.9-68.6v-41.9c0-2.1-1.7-3.8-3.8-3.8h-76.2z" fill="#4173cd"/><path class="st4" d="M379.1 249L343 318.2c.9 3.2 2 6.5 3.4 9.9l35-67.1 35 67.1c1.4-3.3 2.5-6.7 3.4-9.9L383.7 249h-4.6z"/><path class="st3" d="M416.4 328.1l-35-67.1-35 67.1c5.8 13.6 16.2 27.6 35 35.2 18.8-7.5 29.2-21.5 35-35.2z"/><path class="st4" d="M395.5 332.5l2.3 1.1c-1 1.4-3 3.7-6.8 5.8-2.9 1.6-5.7 3.5-7.7 4.9v-31.4l9.5-1v-3.8l-9.5-1v-4.7c0-1.1-.9-1.9-1.9-1.9-.9 0-1.6.6-1.8 1.5-.6-.5-1.4-.8-2.2-.8-2.1 0-3.9 1.7-3.9 3.9 0 1 .4 1.9 1 2.6l-4.6.5v3.8l9.5 1v31.4c-2-1.4-4.8-3.3-7.7-4.9-3.8-2.1-5.9-4.4-6.8-5.8l2.3-1.1-8.7-11.1v15.2l2.9-1.4c1.2 1.9 3.6 4.9 8.5 7.5 4.1 2.2 8 5.1 9.6 6.3l1.9 1.5 1.9-1.5c1.6-1.2 5.5-4 9.6-6.3 4.9-2.6 7.3-5.7 8.5-7.5l2.9 1.4v-15.2l-8.8 11zM377.4 307c-1.1 0-2-.9-2-2s.9-2 2-2 2 .9 2 2-1 2-2 2z"/><path class="st1" d="M384.3 298.5h-5.9c-1.5 0-2.8-1.2-2.8-2.8V286c0-1.5 1.2-2.8 2.8-2.8h5.9c1.5 0 2.8 1.2 2.8 2.8v9.7c0 1.6-1.3 2.8-2.8 2.8z"/><path class="st5" d="M408 249c-7.6-11.4-7.6-34.3-7.6-34.3s0-15.2-19-15.2c-9.6 0-14.4 3.9-16.7 7.8-9.1 3.7-13.7 11.3-13.7 11.3 3.9 1.9 7.3 2.9 10.5 3.1 6.2 7.4 8.3 14.5 8.8 19.7-3.6 3.7-5.6 12.5-.2 19.1 0 0 11.3-2.6 20.8-11.4l17.1-.1z"/><g><path class="st6" d="M390.7 249h14.2c-.7-7-7.6-5.9-14.2 0z"/><path class="st6" d="M404.6 241.8c-4.2-11.8-4.2-27.1-4.2-27.1v-.7c-5-.7-10-.3-20 3.5-10.6 4.1-15.7 4.2-19.1 4.1 6.2 7.4 8.3 14.5 8.8 19.7l.2 8.1s6 .9 19-6.7c6.6-3.7 12.2-4 15.3-.9zM384.3 213.1c7.7-1.9 12.7-1.7 15.8-.6-.9-4.2-4.3-13-18.8-13-9.6 0-14.4 3.9-16.7 7.8l-5.8 8.1s7.3 2.2 25.5-2.3z"/></g><path class="st4" d="M368.8 197.8c.8.7 3 6.1 2.5 6.9-.3.5-6.3 2-7.2 1.2-.9-.7-1.9-6.5-1.3-7.2.5-.4 5.4-1.5 6-.9z"/><path class="st3" d="M376.5 197.5c.7.8 2.3 6.1 1.6 6.7-.4.4-7 1-8 .1-.8-.7-1-6.2-.3-6.8.7-.3 6.1-.6 6.7 0z"/><path class="st4" d="M383.7 197.3c.7.7 2.4 5.7 1.7 6.3-.4.4-7.3.9-8.2.1-.9-.7-1.1-5.9-.3-6.4.7-.3 6.2-.6 6.8 0z"/><g><path class="st3" d="M391.1 197.7c.6.8 1.8 6 1.2 6.6-.4.4-7.1.4-8-.5-.8-.8-.6-6.1.2-6.5.7-.4 6-.3 6.6.4zM406.3 200.8c.5.9.4 5.7-.3 6.2-.5.3-6.5-.8-7.2-1.8-.6-.9.4-6.1 1.3-6.4.7-.2 5.8 1.3 6.2 2z"/></g><path class="st4" d="M399.3 198.8c.6.8 1.1 5.7.3 6.2-.5.3-7.3-.2-8.2-1.1-.7-.8-.2-5.8.6-6.2.8-.4 6.8.4 7.3 1.1z"/><circle class="st6" cx="368.4" cy="185.8" r="2.6"/></svg>