<svg version="1.1" id="Layer_1" xmlns="http://www.w3.org/2000/svg" x="0" y="0" viewBox="0 0 512 512" xml:space="preserve"><style>.st1{fill:#ef0000}.st2{fill:#fff}</style><path fill="#004ef1" d="M0 88v336l250.6-168z"/><path class="st1" d="M0 88l100.2 67.2H512V88z"/><path class="st2" d="M100.2 155.2l100.3 67.2H512v-67.2z"/><path class="st1" d="M200.5 222.4l50.1 33.6-50.1 33.6H512v-67.2z"/><path class="st2" d="M200.5 289.6l-100.3 67.2H512v-67.2z"/><path class="st1" d="M100.2 356.8L0 424h512v-67.2z"/><path class="st2" d="M90.2 215l9.2 27.6 29.1.2c3.8 0 5.3 4.8 2.3 7.1l-23.4 17.3 8.8 27.8c1.1 3.6-3 6.6-6 4.4l-23.7-16.9-23.7 16.9c-3.1 2.2-7.2-.8-6-4.4l8.8-27.8L42.1 250c-3-2.2-1.5-7.1 2.3-7.1l29.1-.2 9.2-27.6c1.2-3.7 6.3-3.7 7.5-.1z"/></svg>