<?xml version="1.0" encoding="utf-8"?>
<!-- Generator: Adobe Illustrator 25.0.0, SVG Export Plug-In . SVG Version: 6.00 Build 0)  -->
<svg version="1.1" id="Layer_1" xmlns="http://www.w3.org/2000/svg" xmlns:xlink="http://www.w3.org/1999/xlink" x="0px" y="0px"
	 viewBox="0 0 512 512" style="enable-background:new 0 0 512 512;" xml:space="preserve">
<style type="text/css">
	.st0{fill:#004EF1;}
	.st1{fill:#EF0000;}
	.st2{fill:#FFFFFF;}
</style>
<polygon class="st0" points="0,88 0,424 250.6,256 "/>
<polygon class="st1" points="0,88 100.2,155.2 512,155.2 512,88 "/>
<polygon class="st2" points="100.2,155.2 200.5,222.4 512,222.4 512,155.2 "/>
<polygon class="st1" points="200.5,222.4 250.6,256 200.5,289.6 512,289.6 512,222.4 "/>
<polygon class="st2" points="200.5,289.6 100.2,356.8 512,356.8 512,289.6 "/>
<polygon class="st1" points="100.2,356.8 0,424 512,424 512,356.8 "/>
<path class="st2" d="M90.2,215l9.2,27.6l29.1,0.2c3.8,0,5.3,4.8,2.3,7.1l-23.4,17.3l8.8,27.8c1.1,3.6-3,6.6-6,4.4l-23.7-16.9
	l-23.7,16.9c-3.1,2.2-7.2-0.8-6-4.4l8.8-27.8L42.1,250c-3-2.2-1.5-7.1,2.3-7.1l29.1-0.2l9.2-27.6C83.9,211.4,89,211.4,90.2,215z"/>
</svg>
