<svg version="1.1" id="Layer_1" xmlns="http://www.w3.org/2000/svg" x="0" y="0" viewBox="0 0 512 512" xml:space="preserve"><style>.st1{fill:red}.st2{fill:#ff0}.st4{fill:#039}</style><path fill="#060" d="M0 87.7h185.4v336H0z"/><path transform="rotate(-180 348.69 255.725)" class="st1" d="M185.4 87.7H512v336H185.4z"/><g id="seal"><circle class="st2" cx="185.4" cy="256" r="79.4"/><path class="st1" d="M211.9 229.5v35.3c0 14.6-11.9 26.5-26.5 26.5S159 279.4 159 264.8v-35.3h52.9m8.9-17.6h-70.6c-4.9 0-8.8 4-8.8 8.8v44.1c0 24.4 19.8 44.1 44.1 44.1s44.1-19.8 44.1-44.1v-44.1c0-4.9-4-8.8-8.8-8.8z"/><path d="M211.9 229.5v35.3c0 14.6-11.9 26.5-26.5 26.5S159 279.4 159 264.8v-35.3h52.9" fill="#fff"/><circle class="st2" cx="150.1" cy="220.7" r="4.4"/><circle class="st2" cx="220.7" cy="220.7" r="4.4"/><circle class="st2" cx="150.1" cy="256" r="4.4"/><circle class="st2" cx="220.7" cy="256" r="4.4"/><circle class="st2" cx="185.4" cy="220.7" r="4.4"/><circle class="st2" cx="211.9" cy="288.6" r="4.4"/><circle class="st2" cx="159.4" cy="288.6" r="4.4"/><g><path class="st4" d="M191.1 253.8v7.6c0 3.1-2.6 5.7-5.7 5.7s-5.7-2.6-5.7-5.7v-7.6h11.4M191.1 235.7v7.6c0 3.1-2.6 5.7-5.7 5.7s-5.7-2.6-5.7-5.7v-7.6h11.4M191.1 272v7.6c0 3.1-2.6 5.7-5.7 5.7s-5.7-2.6-5.7-5.7V272h11.4M206.5 253.8v7.6c0 3.1-2.6 5.7-5.7 5.7s-5.7-2.6-5.7-5.7v-7.6h11.4M175.8 253.8v7.6c0 3.1-2.6 5.7-5.7 5.7s-5.7-2.6-5.7-5.7v-7.6h11.4"/></g></g></svg>