<svg version="1.1" id="Layer_1" xmlns="http://www.w3.org/2000/svg" x="0" y="0" viewBox="0 0 512 512" xml:space="preserve"><style>.st0{fill:#d52b1e}.st2{fill:#0038a8}</style><path class="st0" d="M0 88.3h512v112H0z"/><path fill="#fff" d="M0 200.3h512v112H0z"/><path class="st2" d="M0 312.3h512v112H0z"/><g id="seal"><path class="st0" d="M256 211.9c-24.4 0-44.1 19.8-44.1 44.1s19.8 44.1 44.1 44.1 44.1-19.8 44.1-44.1-19.7-44.1-44.1-44.1zm0 77.4c-18.4 0-33.3-14.9-33.3-33.3s14.9-33.3 33.3-33.3 33.3 14.9 33.3 33.3-14.9 33.3-33.3 33.3z"/><circle class="st2" cx="256" cy="256" r="15.3"/><path d="M257 244.4l2.5 7.4 7.8.1c1 0 1.4 1.3.6 1.9l-6.3 4.6 2.4 7.4c.3 1-.8 1.8-1.6 1.2l-6.3-4.5-6.3 4.5c-.8.6-1.9-.2-1.6-1.2l2.4-7.4-6.3-4.6c-.8-.6-.4-1.9.6-1.9l7.8-.1 2.5-7.4c.1-1 1.5-1 1.8 0z" fill="#fedf00"/><path d="M285 256.4s.9-4-3.4.8c0 0 .1-1.4-.1-2.5.9-1 2.1-3.3 1.8-8.1 0 0-.7-4.1-2.9 2 0 0-.6-1.8-1.2-2.8.5-1.1.9-3.1-.3-6.9 0 0-1.5-3.3-2 2.3 0 0-1.2-1.8-2-2.3.2-.9 0-2.5-1.8-5 0 0-1.8-2-.9 2.1 0 0-1.7-1.3-2.2-1.2-.3-.8-1.1-2.1-3.7-3.9 0 0-2.3-1.3.3 2 0 0-2.3-.9-2.3-.4s1.2 1.5 2.1 2c0 0-3.4.4-2 1.1 0 0 3.5 1.2 5.6 0 .2.6.5 1.3 1 1.8 0 0-4.1-.8-3 .4 0 0 3.1 2.3 6.1 1.9 0 .8.2 1.9.7 2.7 0 0-4.9-2.6-3.9-.6 0 0 2.9 3.9 6.8 4.7-.2.9-.2 1.9.1 2.8 0 0-4.6-4.4-4.2-1.9 0 0 1.9 5.1 5.8 7.3-.3.6-.6 1.4-.7 2.1 0 0-2.7-5.8-3.2-3.3 0 0-.1 5.8 3 9.2-.7.5-1.3 1.3-1.7 2.1 0 0-.6-6.3-1.9-4.2 0 0-1.8 4.8-.6 8.9-.8.2-1.7.7-2.4 1.2 0 0 2-6.1-.1-4.6 0 0-3.7 4-4 8.4-1 0-2.3.3-3.2.9 0 0 2.8-5.7.5-4.6 0 0-4 3.3-5 7.5-.9.5-2.6 1.5-4.2 2.4-.9-.5-1.8-1.1-2.6-1.5l-9.1-7.6.2 2.5-4.6-8.2-.6 2.8-1.5-9-1.3 1.3.5-8.4-1.7.9 3.1-6.3-1.5.4 3.9-3.7-2.1.2 4.9-2.2-1.8-.3 4.8-2.4-2.1-.1 6.2-2.2-1.1-1 5.4-1.6-6.4-.5 1.8-2.3-4.9 2.5.7-3.4-4.3 4.4.7-3.1-4 4 .3-3-4 6.7-.5-3-3.3 7.6-.9-3.3-1.5 9.4-1.2-1.4 1.6 9.1-2.1-1.5 3.8 8.1s-2.7-1.2-3.1-1.2 6.6 7 6.6 7l-3.6-.4 7 4.9-2.6.6 5.8 2.2-1.4 1.1 12 .9s1.2 1 2.7 2.1c-.8.5-1.6.9-2 1.1-.5.2-1 .3-1.5.1-1.1-.5-2.8-1.1-3.6-1.5 0 0 .1 3.4 3.6 3.5 1.5 0 3.4-.9 5.3-2 1.9 1.2 4 2.2 5.5 2.2 3.5-.1 3.5-3.5 3.5-3.5-.8.3-2.4 1-3.5 1.5-.5.2-1 .2-1.4-.1-.5-.3-1.3-.7-2.2-1.3.9-.6 1.7-1.2 2.3-1.7.9.7 3.4 1.9 8.9-.2 0 0 3.7-1.9-2.8-2.2 0 0 1.2-.9 2-1.7 1.1.5 3.7 1.2 8.7-1.5 0 0 3.4-2.4-3.1-1.7 0 0 .9-.8 1.5-1.7 1.1.1 3.9-.2 7.5-4.8 0 0 2.2-3.5-3.5-.4 0 0 .7-1.8.9-2.9 1.3-.4 3.3-2.1 4.8-6.6z" fill="#006c27"/></g></svg>