<?xml version="1.0" encoding="utf-8"?>
<!-- Generator: Adobe Illustrator 25.0.0, SVG Export Plug-In . SVG Version: 6.00 Build 0)  -->
<svg version="1.1" id="Layer_1" xmlns="http://www.w3.org/2000/svg" xmlns:xlink="http://www.w3.org/1999/xlink" x="0px" y="0px"
	 viewBox="0 0 512 512" style="enable-background:new 0 0 512 512;" xml:space="preserve">
<style type="text/css">
	.st0{fill:#8D1B3D;}
	.st1{fill:#F5F5F5;}
</style>
<path class="st0" d="M503.2,87.7h-22.8h-313c0.2,0,0.5,0,0.7,0.1l53.4,16.3c2.2,0.7,2.2,3.8,0,4.5l-46.3,14.1
	c-2.2,0.7-2.2,3.8,0,4.5l46.3,14.2c2.2,0.7,2.2,3.8,0,4.5l-46.3,14.1c-2.2,0.7-2.2,3.8,0,4.5l46.3,14.2c2.2,0.7,2.2,3.8,0,4.5
	l-46.3,14.1c-2.2,0.7-2.2,3.8,0,4.5l46.3,14.1c2.2,0.7,2.2,3.8,0,4.5l-46.3,14.2c-2.2,0.7-2.2,3.8,0,4.5l46.3,14.1
	c2.2,0.7,2.2,3.8,0,4.5l-46.3,14.2c-2.2,0.7-2.2,3.8,0,4.5l46.3,14.1c2.2,0.7,2.2,3.8,0,4.5l-46.3,14.2c-2.2,0.7-2.2,3.8,0,4.5
	l46.3,14.1c2.2,0.7,2.2,3.8,0,4.5l-46.3,14.2c-2.2,0.7-2.2,3.8,0,4.5l46.3,14.1c2.2,0.7,2.2,3.8,0,4.5l-46.3,14.1
	c-2.2,0.7-2.2,3.8,0,4.5l46.3,14.2c2.2,0.7,2.2,3.8,0,4.5l-53.4,16.3c-0.2,0.1-0.5,0.1-0.7,0.1h313h22.8h8.8v-8.8V96.6v-8.8H503.2z"
	/>
<path class="st1" d="M221.4,407.3c2.2-0.7,2.2-3.8,0-4.5l-46.3-14.2c-2.2-0.7-2.2-3.8,0-4.5l46.3-14.1c2.2-0.7,2.2-3.8,0-4.5
	l-46.3-14.1c-2.2-0.7-2.2-3.8,0-4.5l46.3-14.2c2.2-0.7,2.2-3.8,0-4.5L175.1,314c-2.2-0.7-2.2-3.8,0-4.5l46.3-14.2
	c2.2-0.7,2.2-3.8,0-4.5l-46.3-14.1c-2.2-0.7-2.2-3.8,0-4.5l46.3-14.2c2.2-0.7,2.2-3.8,0-4.5l-46.3-14.1c-2.2-0.7-2.2-3.8,0-4.5
	l46.3-14.2c2.2-0.7,2.2-3.8,0-4.5L175.1,202c-2.2-0.7-2.2-3.8,0-4.5l46.3-14.1c2.2-0.7,2.2-3.8,0-4.5l-46.3-14.2
	c-2.2-0.7-2.2-3.8,0-4.5l46.3-14.1c2.2-0.7,2.2-3.8,0-4.5l-46.3-14.2c-2.2-0.7-2.2-3.8,0-4.5l46.3-14.1c2.2-0.7,2.2-3.8,0-4.5
	l-53.4-16.3c-0.2-0.1-0.5-0.1-0.7-0.1H91H8.8H0v8.8v318.3v8.8h8.8H91h76.4c0.2,0,0.5,0,0.7-0.1L221.4,407.3z"/>
</svg>
