<svg xmlns="http://www.w3.org/2000/svg" viewBox="0 0 512 512"><path d="M503.2 87.7H167.4c.2 0 .5 0 .7.1l53.4 16.3c2.2.7 2.2 3.8 0 4.5l-46.3 14.1c-2.2.7-2.2 3.8 0 4.5l46.3 14.2c2.2.7 2.2 3.8 0 4.5L175.2 160c-2.2.7-2.2 3.8 0 4.5l46.3 14.2c2.2.7 2.2 3.8 0 4.5l-46.3 14.1c-2.2.7-2.2 3.8 0 4.5l46.3 14.1c2.2.7 2.2 3.8 0 4.5l-46.3 14.2c-2.2.7-2.2 3.8 0 4.5l46.3 14.1c2.2.7 2.2 3.8 0 4.5l-46.3 14.2c-2.2.7-2.2 3.8 0 4.5l46.3 14.1c2.2.7 2.2 3.8 0 4.5l-46.3 14.2c-2.2.7-2.2 3.8 0 4.5l46.3 14.1c2.2.7 2.2 3.8 0 4.5l-46.3 14.2c-2.2.7-2.2 3.8 0 4.5l46.3 14.1c2.2.7 2.2 3.8 0 4.5l-46.3 14.1c-2.2.7-2.2 3.8 0 4.5l46.3 14.2c2.2.7 2.2 3.8 0 4.5l-53.4 16.3c-.2.1-.5.1-.7.1H512V87.8h-8.8z" fill="#8d1b3d"/><path d="M221.4 407.3c2.2-.7 2.2-3.8 0-4.5l-46.3-14.2c-2.2-.7-2.2-3.8 0-4.5l46.3-14.1c2.2-.7 2.2-3.8 0-4.5l-46.3-14.1c-2.2-.7-2.2-3.8 0-4.5l46.3-14.2c2.2-.7 2.2-3.8 0-4.5L175.1 314c-2.2-.7-2.2-3.8 0-4.5l46.3-14.2c2.2-.7 2.2-3.8 0-4.5l-46.3-14.1c-2.2-.7-2.2-3.8 0-4.5l46.3-14.2c2.2-.7 2.2-3.8 0-4.5l-46.3-14.1c-2.2-.7-2.2-3.8 0-4.5l46.3-14.2c2.2-.7 2.2-3.8 0-4.5L175.1 202c-2.2-.7-2.2-3.8 0-4.5l46.3-14.1c2.2-.7 2.2-3.8 0-4.5l-46.3-14.2c-2.2-.7-2.2-3.8 0-4.5l46.3-14.1c2.2-.7 2.2-3.8 0-4.5l-46.3-14.2c-2.2-.7-2.2-3.8 0-4.5l46.3-14.1c2.2-.7 2.2-3.8 0-4.5L168 88c-.2-.1-.5-.1-.7-.1H0V423.8h167.4c.2 0 .5 0 .7-.1l53.3-16.4z" fill="#f5f5f5"/></svg>