<svg version="1.1" id="Layer_1" xmlns="http://www.w3.org/2000/svg" x="0" y="0" viewBox="0 0 512 512" xml:space="preserve"><style>.st0{fill:#c6363c}.st1{fill:#0c4076}.st2{fill:#fff}.st3{fill:#edb92e}.st4{fill:#ffd350}.st5{fill:#ffbe50}</style><path class="st0" d="M0 88.1h512v112H0z"/><path class="st1" d="M0 200h512v112H0z"/><path class="st2" d="M0 311.9h512v112H0z"/><g id="crest"><path class="st3" d="M173 200.1h-63.5l-2.7-15.9h68.9z"/><path class="st4" d="M108.8 196.1l.7 4H173l.7-4z"/><path class="st3" d="M139.9 147.1h2.6v10.6h-2.6z"/><path class="st3" d="M137.3 149.8h7.9v2.6h-7.9zM173.2 189.5c-.3 0-.6-.1-.9-.2-1.4-.5-2.1-2-1.6-3.4l5.6-15.5c.3-.8.2-1.6-.2-2.3-.2-.4-.7-1-1.6-1.2-6.8-1.5-20.1-3.9-32-3.9H140c-11.9 0-25.2 2.4-32 3.9-.9.2-1.4.9-1.6 1.2-.4.7-.5 1.6-.2 2.3l5.6 15.5c.5 1.4-.2 2.9-1.6 3.4-1.4.5-2.9-.2-3.4-1.6l-5.6-15.5c-.8-2.2-.6-4.6.5-6.7 1.1-2 3-3.4 5.1-3.8 7-1.5 20.7-4 33.1-4h2.6c12.4 0 26.1 2.5 33.1 4 2.2.5 4.1 1.9 5.2 3.8 1.1 2 1.3 4.5.5 6.7l-5.6 15.5c-.4 1.1-1.4 1.8-2.5 1.8z"/><path class="st3" d="M141.3 187.2c-1.5 0-2.6-1.2-2.6-2.6V163c0-1.5 1.2-2.6 2.6-2.6s2.6 1.2 2.6 2.6v21.5c0 1.5-1.2 2.7-2.6 2.7z"/><path class="st3" d="M159.6 189.5c-.2 0-.4 0-.5-.1-1.4-.3-2.4-1.7-2.1-3.1l3.2-15.5c.4-2-.2-3.8-.6-4.1-3.7-1.3-11-3.7-17.6-3.7h-1.5c-6.6 0-13.9 2.4-17.7 3.8-.2.2-.9 2-.5 4l3.2 15.5c.3 1.4-.6 2.8-2.1 3.1-1.4.3-2.8-.6-3.1-2.1l-3.2-15.5c-.8-3.9.4-8.8 3.8-10.1 5.1-1.9 12.6-4.1 19.6-4.1h1.5c7 0 14.5 2.2 19.6 4.1 3.4 1.3 4.6 6.2 3.8 10.1l-3.2 15.5c-.3 1.3-1.4 2.2-2.6 2.2z"/><path class="st4" d="M107.5 188.2H175l.7-4h-68.9z"/><path class="st0" d="M90.9 200.1c-1.5 0-2.6 1.2-2.6 2.6v92.5c0 29.4 23.7 53.2 53 53.2s53-23.8 53-53.2v-92.5c0-1.5-1.2-2.6-2.6-2.6H90.9z"/><path class="st2" d="M146.5 287.5l5.3-13.2-10.6 2.6-10.6-2.6 5.3 13.2-13.2 45s7.9 5.3 18.5 5.3 18.5-5.3 18.5-5.3l-13.2-45z"/><path class="st3" d="M122.1 298.1l-4.7 1.2 10.3-18.5-4.7-2.6-12.4 22.5H98.9v5.3h5.7l-7.4 5.9 3.3 4.1 6.3-5-2.5 7.4 5 1.7 4.9-14.5 9.1-2.3z"/><path class="st2" d="M122.7 226.6l-12.1-6c-2.2-1.1-3.4-3.6-2.8-6l.7-2.7c.5-1.9-1-3.7-2.9-3.7-.9 0-1.8.4-2.3 1.1-6.3 7.8-9.7 17.6-9.7 27.6v56s11.1-2.2 21-16.7c1.8-2.7 4.9-4.2 8.1-4.4l-5.3 15.9 10.6 2.6 9.3-11-14.6-52.7z"/><path class="st3" d="M160.4 298.1l4.7 1.2-10.3-18.5 4.6-2.6 12.5 22.5h11.7v5.3h-5.7l7.4 5.9-3.3 4.1-6.3-5 2.5 7.4-5 1.7-4.9-14.5-9.2-2.3z"/><path class="st2" d="M159.8 226.6l12.1-6c2.2-1.1 3.4-3.6 2.8-6l-.7-2.7c-.5-1.9 1-3.7 2.9-3.7.9 0 1.8.4 2.3 1.1 6.3 7.8 9.7 17.6 9.7 27.6v56s-11.1-2.2-21-16.7c-1.8-2.7-4.9-4.2-8.1-4.4l5.3 15.9-10.6 2.6-9.3-11 14.6-52.7z"/><path class="st3" d="M125.4 208h-13.3l4 5.3 9.3 2.7-5.3 2.6h7.9zM157.1 208h13.3l-4 5.3-9.3 2.7 5.3 2.6h-7.9z"/><path class="st2" d="M159 205.9l-12.5 2.1-5.3 10.6-5.3-10.6-12.5-2.1c-1.4-.2-2.5 1.2-1.9 2.5l6.4 12.8-5.3 5.3h37l-5.3-5.3 6.4-12.8c.8-1.2-.3-2.7-1.7-2.5z"/><circle class="st5" cx="141.2" cy="185.3" r="4"/><ellipse class="st1" cx="141.2" cy="194.8" rx="3.1" ry="2.2"/><ellipse class="st0" cx="125.5" cy="194.8" rx="3.1" ry="2.2"/><ellipse class="st1" cx="109.8" cy="194.8" rx="3.1" ry="2.2"/><ellipse class="st1" cx="172.5" cy="194.8" rx="3.1" ry="2.2"/><ellipse class="st0" cx="156.9" cy="194.8" rx="3.1" ry="2.2"/><g><circle class="st5" cx="159.6" cy="185.3" r="4"/><circle class="st5" cx="174.2" cy="185.3" r="4"/><circle class="st5" cx="122.9" cy="185.3" r="4"/><circle class="st5" cx="108.3" cy="185.3" r="4"/></g><path class="st1" d="M145.8 163c.5-.8.7-1.7.7-2.6 0-2.9-2.4-5.3-5.3-5.3s-5.3 2.4-5.3 5.3c0 1 .3 1.9.7 2.6h9.2z"/><path class="st0" d="M141.2 280.8c-11 0-19.9-8.9-19.9-19.9v-35.8H161V261c.1 10.9-8.8 19.8-19.8 19.8z"/><path d="M159.8 226.6V261c0 10.2-8.3 18.5-18.5 18.5s-18.5-8.3-18.5-18.5v-34.4h37m2.6-2.7H120.1V261c0 11.7 9.5 21.2 21.2 21.2s21.2-9.5 21.2-21.2v-37.1h-.1z" fill="#a54b50"/><g><path class="st2" d="M137.3 279.1c1.3.3 2.6.4 4 .4s2.7-.2 4-.4v-52.5h-7.9c-.1 0-.1 52.5-.1 52.5z"/><path class="st2" d="M122.7 248.4h37.1v7.9h-37.1z"/></g></g></svg>