<?xml version="1.0" encoding="utf-8"?>
<!-- Generator: Adobe Illustrator 25.0.0, SVG Export Plug-In . SVG Version: 6.00 Build 0)  -->
<svg version="1.1" id="Layer_1" xmlns="http://www.w3.org/2000/svg" xmlns:xlink="http://www.w3.org/1999/xlink" x="0px" y="0px"
	 viewBox="0 0 512 512" style="enable-background:new 0 0 512 512;" xml:space="preserve">
<style type="text/css">
	.st0{fill:#C6363C;}
	.st1{fill:#0C4076;}
	.st2{fill:#FFFFFF;}
	.st3{fill:#EDB92E;}
	.st4{fill:#FFD350;}
	.st5{fill:#FFBE50;}
	.st6{fill:#A54B50;}
</style>
<rect y="88.1" class="st0" width="512" height="112"/>
<rect y="200" class="st1" width="512" height="112"/>
<rect y="311.9" class="st2" width="512" height="112"/>
<g id="crest">
	<polygon class="st3" points="173,200.1 109.5,200.1 106.8,184.2 175.7,184.2 	"/>
	<polygon class="st4" points="108.8,196.1 109.5,200.1 173,200.1 173.7,196.1 	"/>
	<g>
		<rect x="139.9" y="147.1" class="st3" width="2.6" height="10.6"/>
		<rect x="137.3" y="149.8" class="st3" width="7.9" height="2.6"/>
		<path class="st3" d="M173.2,189.5c-0.3,0-0.6-0.1-0.9-0.2c-1.4-0.5-2.1-2-1.6-3.4l5.6-15.5c0.3-0.8,0.2-1.6-0.2-2.3
			c-0.2-0.4-0.7-1-1.6-1.2c-6.8-1.5-20.1-3.9-32-3.9H140c-11.9,0-25.2,2.4-32,3.9c-0.9,0.2-1.4,0.9-1.6,1.2
			c-0.4,0.7-0.5,1.6-0.2,2.3l5.6,15.5c0.5,1.4-0.2,2.9-1.6,3.4c-1.4,0.5-2.9-0.2-3.4-1.6l-5.6-15.5c-0.8-2.2-0.6-4.6,0.5-6.7
			c1.1-2,3-3.4,5.1-3.8c7-1.5,20.7-4,33.1-4h2.6c12.4,0,26.1,2.5,33.1,4c2.2,0.5,4.1,1.9,5.2,3.8c1.1,2,1.3,4.5,0.5,6.7l-5.6,15.5
			C175.3,188.8,174.3,189.5,173.2,189.5z"/>
		<path class="st3" d="M141.3,187.2c-1.5,0-2.6-1.2-2.6-2.6V163c0-1.5,1.2-2.6,2.6-2.6s2.6,1.2,2.6,2.6v21.5
			C143.9,186,142.7,187.2,141.3,187.2z"/>
		<path class="st3" d="M159.6,189.5c-0.2,0-0.4,0-0.5-0.1c-1.4-0.3-2.4-1.7-2.1-3.1l3.2-15.5c0.4-2-0.2-3.8-0.6-4.1
			c-3.7-1.3-11-3.7-17.6-3.7h-1.5c-6.6,0-13.9,2.4-17.7,3.8c-0.2,0.2-0.9,2-0.5,4l3.2,15.5c0.3,1.4-0.6,2.8-2.1,3.1
			c-1.4,0.3-2.8-0.6-3.1-2.1l-3.2-15.5c-0.8-3.9,0.4-8.8,3.8-10.1c5.1-1.9,12.6-4.1,19.6-4.1h1.5c7,0,14.5,2.2,19.6,4.1
			c3.4,1.3,4.6,6.2,3.8,10.1l-3.2,15.5C161.9,188.6,160.8,189.5,159.6,189.5z"/>
	</g>
	<polygon class="st4" points="107.5,188.2 175,188.2 175.7,184.2 106.8,184.2 	"/>
	<path class="st0" d="M90.9,200.1c-1.5,0-2.6,1.2-2.6,2.6v92.5c0,29.4,23.7,53.2,53,53.2s53-23.8,53-53.2v-92.5
		c0-1.5-1.2-2.6-2.6-2.6L90.9,200.1L90.9,200.1z"/>
	<path class="st2" d="M146.5,287.5l5.3-13.2l-10.6,2.6l-10.6-2.6l5.3,13.2l-13.2,45c0,0,7.9,5.3,18.5,5.3s18.5-5.3,18.5-5.3
		L146.5,287.5z"/>
	<polygon class="st3" points="122.1,298.1 117.4,299.3 127.7,280.8 123,278.2 110.6,300.7 98.9,300.7 98.9,306 104.6,306 
		97.2,311.9 100.5,316 106.8,311 104.3,318.4 109.3,320.1 114.2,305.6 123.3,303.3 	"/>
	<path class="st2" d="M122.7,226.6l-12.1-6c-2.2-1.1-3.4-3.6-2.8-6l0.7-2.7c0.5-1.9-1-3.7-2.9-3.7c-0.9,0-1.8,0.4-2.3,1.1
		c-6.3,7.8-9.7,17.6-9.7,27.6v56c0,0,11.1-2.2,21-16.7c1.8-2.7,4.9-4.2,8.1-4.4l-5.3,15.9l10.6,2.6l9.3-11L122.7,226.6z"/>
	<polygon class="st3" points="160.4,298.1 165.1,299.3 154.8,280.8 159.4,278.2 171.9,300.7 183.6,300.7 183.6,306 177.9,306 
		185.3,311.9 182,316 175.7,311 178.2,318.4 173.2,320.1 168.3,305.6 159.1,303.3 	"/>
	<path class="st2" d="M159.8,226.6l12.1-6c2.2-1.1,3.4-3.6,2.8-6l-0.7-2.7c-0.5-1.9,1-3.7,2.9-3.7c0.9,0,1.8,0.4,2.3,1.1
		c6.3,7.8,9.7,17.6,9.7,27.6v56c0,0-11.1-2.2-21-16.7c-1.8-2.7-4.9-4.2-8.1-4.4l5.3,15.9l-10.6,2.6l-9.3-11L159.8,226.6z"/>
	<g>
		<polygon class="st3" points="125.4,208 112.1,208 116.1,213.3 125.4,216 120.1,218.6 128,218.6 		"/>
		<polygon class="st3" points="157.1,208 170.4,208 166.4,213.3 157.1,216 162.4,218.6 154.5,218.6 		"/>
	</g>
	<path class="st2" d="M159,205.9l-12.5,2.1l-5.3,10.6l-5.3-10.6l-12.5-2.1c-1.4-0.2-2.5,1.2-1.9,2.5l6.4,12.8l-5.3,5.3h18.5h18.5
		l-5.3-5.3l6.4-12.8C161.5,207.2,160.4,205.7,159,205.9z"/>
	<circle class="st5" cx="141.2" cy="185.3" r="4"/>
	<ellipse class="st1" cx="141.2" cy="194.8" rx="3.1" ry="2.2"/>
	<ellipse class="st0" cx="125.5" cy="194.8" rx="3.1" ry="2.2"/>
	<g>
		<ellipse class="st1" cx="109.8" cy="194.8" rx="3.1" ry="2.2"/>
		<ellipse class="st1" cx="172.5" cy="194.8" rx="3.1" ry="2.2"/>
	</g>
	<ellipse class="st0" cx="156.9" cy="194.8" rx="3.1" ry="2.2"/>
	<g>
		<circle class="st5" cx="159.6" cy="185.3" r="4"/>
		<circle class="st5" cx="174.2" cy="185.3" r="4"/>
		<circle class="st5" cx="122.9" cy="185.3" r="4"/>
		<circle class="st5" cx="108.3" cy="185.3" r="4"/>
	</g>
	<path class="st1" d="M145.8,163c0.5-0.8,0.7-1.7,0.7-2.6c0-2.9-2.4-5.3-5.3-5.3s-5.3,2.4-5.3,5.3c0,1,0.3,1.9,0.7,2.6H145.8z"/>
	<path class="st0" d="M141.2,280.8c-11,0-19.9-8.9-19.9-19.9v-35.8h39.7V261C161.1,271.9,152.2,280.8,141.2,280.8z"/>
	<path class="st6" d="M159.8,226.6V261c0,10.2-8.3,18.5-18.5,18.5s-18.5-8.3-18.5-18.5v-34.4H159.8 M162.4,223.9h-2.6h-37.1h-2.6
		v2.6V261c0,11.7,9.5,21.2,21.2,21.2c11.7,0,21.2-9.5,21.2-21.2v-34.4V223.9L162.4,223.9z"/>
	<g>
		<path class="st2" d="M137.3,279.1c1.3,0.3,2.6,0.4,4,0.4s2.7-0.2,4-0.4v-52.5h-7.9C137.3,226.6,137.3,279.1,137.3,279.1z"/>
		<rect x="122.7" y="248.4" class="st2" width="37.1" height="7.9"/>
	</g>
</g>
</svg>
