<svg version="1.1" id="Layer_1" xmlns="http://www.w3.org/2000/svg" x="0" y="0" viewBox="0 0 512 512" xml:space="preserve"><style>.st1{fill:#fad201}</style><path fill="#00a1de" d="M0 88.3h512v168H0z"/><path class="st1" d="M0 256.3h512v84H0z"/><path fill="#20603d" d="M0 340.3h512v84H0z"/><path class="st1" d="M458.2 178.1l36.1-6-36.1-6 31.1-19.4-35.7 8.3 21.3-29.8-29.8 21.3 8.3-35.7-19.4 31.1-6-36.1-6 36.1-19.2-30.9 8.3 35.7-29.8-21.3 21.3 29.8-35.7-8.3 31.1 19.4-36.1 6 36.1 6-31 19.2 35.7-8.3-21.4 29.8 29.8-21.3-8.3 35.7 19.4-31.1 6 36.1 6-36.1 19.4 31.1-8.3-35.7L475 219l-21.3-29.8 35.7 8.3-31.2-19.4zm-30.1 16.1c-12.2 0-22.1-9.9-22.1-22.1s9.9-22.1 22.1-22.1 22.1 9.9 22.1 22.1-9.9 22.1-22.1 22.1z"/><circle class="st1" cx="428.1" cy="172.1" r="16.6"/></svg>