<svg version="1.1" id="Layer_1" xmlns="http://www.w3.org/2000/svg" x="0" y="0" viewBox="0 0 512 512" xml:space="preserve"><style>.st1{fill:#fff}</style><path fill="#006c35" d="M0 88.3h512v336H0z"/><path class="st1" d="M105.9 202.3c.9 5.6 4.2 7.3 7.2 7.1 3.5-.3 6.5-3.4 6.5-6.8v-19.1c0-1 .8-1.7 1.7-1.7s1.7.8 1.7 1.7v19.2c0 2.3 1.1 4.5 3.1 5.8 1.2.8 2.5 1.2 3.9 1.2.9 0 1.8-.2 2.6-.5l1.7-.7c.2 16.1-.8 30.2-.8 30.4-.1 1.9 1.3 3.6 3.2 3.7h.3c1.8 0 3.3-1.4 3.5-3.2.1-1.1 1.2-16.6.8-33.7l1.1-.4c.9-.4 2-.3 2.8.1 3.8 1.9 8.4 1.2 11.5-1.9l.6-.6c2.8-2.8 3.8-6.9 2.5-10.7l-3-8.9c1.6.5 3.4-.2 4.1-1.8.9-1.7.2-3.8-1.6-4.7l-7-3.5c-1.3-.6-2.8-.4-3.8.5-1.1.9-1.5 2.4-1 3.7l5.6 16.8c.4 1.3.1 2.6-.8 3.6l-.6.6c-.9.9-2.3 1.1-3.4.6-2.3-1.1-4.8-1.3-7.2-.7-.5-11.2-1.7-22.3-4.3-30-.6-1.8-2.6-2.8-4.4-2.2-1.8.6-2.8 2.6-2.2 4.4 2.5 7.5 3.6 19 4 30.4l-4.2 1.7v-19.2c0-4.8-3.9-8.7-8.7-8.7s-8.7 3.9-8.7 8.7v16.8l-3.6-17.5c-.4-1.9-2.2-3.1-4.1-2.7-1.9.4-3.1 2.2-2.7 4.1l3.7 18.1zM112.6 173c1.9 0 3.5-1.6 3.5-3.5V166c0-1.9-1.6-3.5-3.5-3.5s-3.5 1.6-3.5 3.5v3.5c.1 2 1.6 3.5 3.5 3.5zM147.4 169.6h3.5c1.9 0 3.5-1.6 3.5-3.5s-1.6-3.5-3.5-3.5h-3.5c-1.9 0-3.5 1.6-3.5 3.5s1.6 3.5 3.5 3.5z"/><path class="st1" d="M124.8 215.3l-17.4 10.4c-1.6 1-2.2 3.1-1.2 4.8.7 1.1 1.8 1.7 3 1.7.6 0 1.2-.2 1.8-.5l17.4-10.4c1.6-1 2.2-3.1 1.2-4.8-1-1.7-3.2-2.2-4.8-1.2z"/><path class="st1" d="M171.7 221.4c.4 1.1.9 2.3 1.7 3.2 1.4 1.7 3.5 2.5 5.9 2.3 3.4-.2 5.7-1.8 7.2-3.8.2.2.5.3.7.4 1.9.9 4.1.9 6.1-.2 5.3-2.7 6.4-9 6.2-12.2-.1-1.9-1.7-3.3-3.6-3.3-1.9.1-3.4 1.7-3.3 3.6 0 0 .1 4.2-2.4 5.7-.4-.6-.9-1.9-1.1-2.9-.3-1.8-1.9-3-3.7-2.9-1.8.1-3.2 1.7-3.2 3.5 0 .5-.1 5-3.6 5.3-.4-.5-.4-2.9 0-4.6.3-1.4-.2-2.9-1.4-3.7-1.2-.8-2.7-.8-3.9 0l-1.9 1.3c-.9-20.2-3-43.7-3.1-44-.2-1.9-1.9-3.3-3.8-3.1-1.9.2-3.3 1.9-3.2 3.8 0 .3 2.5 27.5 3.2 48.3l-.5.5c-1.4-3.5-4.1-5.7-7.6-6-5-.4-10.3 2.9-12.3 7.8-1.7 4.1-.6 8.2 2.7 10.4 2.4 1.6 5.9 2 10.4.5-1.1 3.8-3.1 7.7-5.7 10.7-2.3 2.7-6.2 5.8-11.1 5.7-2.9-.1-5.1-1.1-6.8-2.9-4-4.4-3.7-12.4-3.7-12.5.1-1.9-1.4-3.6-3.3-3.7-1.9-.2-3.6 1.4-3.7 3.3 0 .4-.5 10.9 5.5 17.5 2.9 3.2 6.9 5 11.6 5.2h.7c5.8 0 11.5-2.9 16-8.1 4.2-4.9 7.1-11.6 8-17.8 0 11.9-7.2 25.3-16.7 31.2-4 2.5-10.3 4.8-17.4 1.3-8.7-4.3-7.7-14.3-7.7-14.7.2-1.9-1.1-3.6-3-3.9-1.9-.2-3.6 1.1-3.9 3-.1.6-1.8 15.3 11.5 21.8 3.4 1.7 7 2.5 10.5 2.5 4.6 0 9.2-1.4 13.6-4.1 11.6-7.2 20-22.8 20-37.2.2-2.1.2-4.6.1-7.2zm-21 3.6c-.6-.4-.1-1.7 0-2 .7-1.8 3-3.4 4.9-3.4h.3c.4 0 1.6.2 2.1 2.8.1.3.1.6.1.9-3.9 2.2-6.5 2.3-7.4 1.7zM114.4 257c-1.6-1-3.8-.4-4.8 1.2-.2.3-.4.6-.6.8 0-.1-.1-.2-.1-.3-1.5-3.9-.4-9.8.1-11.8.5-1.9-.6-3.8-2.5-4.3s-3.8.6-4.3 2.5c-.3.9-2.4 9.4.1 16 1.6 4.3 4 5.3 5.8 5.5h.5c3.7 0 6.2-3.8 6.9-5 1.1-1.5.5-3.6-1.1-4.6z"/><path class="st1" d="M178.6 193.9c.8 0 1.5-.2 2.1-.7l17.5-13.8c.2-.2.4-.4.6-.7 2.5-1.5 4.2-4.3 4.2-7.4 0-4.8-3.9-8.7-8.7-8.7s-8.7 3.9-8.7 8.7c0 2.7 1.2 5.1 3.2 6.7l-12.4 9.7c-1.5 1.2-1.8 3.4-.6 4.9.8.9 1.8 1.3 2.8 1.3zm15.8-24.3c1 0 1.7.8 1.7 1.7s-.8 1.7-1.7 1.7-1.7-.8-1.7-1.7.8-1.7 1.7-1.7zM190.3 190.6c-1.8-.6-3.8.4-4.4 2.2-.4 1.1-2.1 6.9 1.4 10.3 1.3 1.3 3.1 2 5.2 2 1.4 0 3-.3 4.8-.9 1.8-.6 2.8-2.6 2.2-4.4-.6-1.8-2.6-2.8-4.4-2.2-1.9.6-2.8.5-2.8.6-.2-.5-.1-2.1.3-3.2.5-1.8-.5-3.8-2.3-4.4zM230.1 176.2c.3.1.7.1 1 .1 1.5 0 2.9-1 3.3-2.5l2-7c.5-1.8-.5-3.8-2.4-4.3s-3.8.5-4.3 2.4l-2 7c-.5 1.9.6 3.8 2.4 4.3zM209.8 175.8c.6.3 1.2.5 1.8.5 1.2 0 2.4-.6 3-1.7 1-1.7.4-3.8-1.2-4.8-.7-.4-.6-1.6-.6-1.8.1-.9.6-2 1.6-2.3 1.8-.6 2.9-2.5 2.3-4.4-.6-1.8-2.5-2.9-4.4-2.3-3.5 1.1-6 4.3-6.4 8.2-.5 3.7 1.1 6.9 3.9 8.6zM182.2 232.2c-1.9 0-3.5 1.6-3.5 3.5 0 1.7 1.2 3.1 2.8 3.4.2.3.7 1.2.7 3.5 0 1.9 1.6 3.5 3.5 3.5s3.5-1.6 3.5-3.5c0-10.3-6.7-10.4-7-10.4zM241.3 217.8c.4.1.9.1 1.3.1 2.7 0 5.5-1.4 8.2-4.1 1.4-1.4 1.4-3.6 0-4.9s-3.6-1.4-4.9 0c-2.1 2.1-3.2 2.1-3.5 2.1-.7-.1-1.3-1-1.4-1.2-.9-1.7-2.9-2.4-4.6-1.5-1.7.9-2.4 2.9-1.6 4.7.2.3 2.2 4.1 6.5 4.8zM300.4 193.3c0-.1 0-.1-.1-.2-.6-1.8-2.6-2.8-4.4-2.2-1.8.6-2.8 2.6-2.2 4.4.3.8 1.8 4.9 5.7 5.4.3 0 .5.1.8.1 2.4 0 4.7-1.6 6.7-4.6 1.1-1.6.6-3.8-1-4.8-1.6-1.1-3.8-.6-4.8 1-.2.4-.5.7-.7.9z"/><path class="st1" d="M293.6 256.5c0-14.8-.7-28.8-1.6-41 4.9 8.6 9.4 17.2 12.2 24.8.5 1.4 1.9 2.3 3.3 2.3.4 0 .8-.1 1.2-.2 1.8-.7 2.7-2.7 2-4.5-4.4-11.7-12.3-25.7-20.1-38.1-1.9-18.7-4-30.6-4.1-30.9-.3-1.9-2.2-3.2-4-2.8-1.9.3-3.1 2.2-2.8 4 0 .2 1.1 6.3 2.4 16.6-2.7-4-5.2-7.5-7.2-10.5l.2.1c1.8.6 3.8-.4 4.4-2.2.6-1.8-.4-3.8-2.2-4.4l-10.4-3.5c-1.4-.5-3 0-3.9 1.3-.2.3-.4.7-.5 1.1-2.1-1.5-4.8-2.8-7.3-1.7-1.5.6-3.3 2.2-3.3 6.2 0 3.1 1.2 6.4 2.4 9.9 2 5.8 3.3 10.1 1.2 12.1-1.2 1.1-2.4 1.5-3.6 1.3-2.1-.5-4.3-3.4-5.7-7.6-.1-.2-.2-.3-.3-.5.7-5.4.4-11.9-1.1-19.3-.4-1.9-2.2-3.1-4.1-2.7-1.9.4-3.1 2.2-2.7 4.1 2.3 11.4 1.6 20.6-1.8 24.8-1.3 1.6-3 2.4-5.2 2.4-.7 0-1.2-.2-1.7-.8-2.7-3.2-2.7-13.4-1.8-19.6.1-1-.2-2-.8-2.8-.7-.8-1.6-1.2-2.6-1.2-6 0-8.3 6.8-10.3 12.8-.9 2.6-2.5 7.6-3.7 8.1-2.1 0-3.5-6.2-3.5-10.4 0-1.9-1.6-3.5-3.5-3.5s-3.5 1.6-3.5 3.5c0 8 2.7 17.4 10.4 17.4 5.7 0 8.1-6.3 10-12.1.3 4.6 1.4 9.4 3.9 12.4 1.8 2.1 4.2 3.2 6.9 3.2 4.3 0 8-1.7 10.6-4.9.5-.6.9-1.2 1.3-1.9 2 2.9 4.5 4.8 7.3 5.5.8.2 1.6.3 2.5.3 2.7 0 5.3-1.1 7.6-3.2.5-.4.8-.9 1.2-1.4.9.2 1.7.4 2.6.4 2.8 0 5.5-1.1 7.2-2.2 1.6-1 2.1-3.2 1.1-4.8-1-1.6-3.2-2.1-4.8-1.1 0 0-2.4 1.4-3.9 1 0-3.8-1.4-7.9-2.6-11.4-.7-2-1.5-4.1-1.8-5.8.3.2.6.5.8.7 1.4 1.4 3.6 1.4 4.9 0 .2-.2.4-.5.5-.8 3.6 5 11 15.4 18.7 27.4 1.5 14.8 2.7 33.7 2.7 54.4 0 1.9 1.6 3.5 3.5 3.5 1.8-.3 3.4-1.8 3.4-3.8zM297.1 180c0 1.9 1.6 3.5 3.5 3.5s3.5-1.6 3.5-3.5c0-4.1-3.2-10.7-3.8-12-.9-1.7-2.9-2.4-4.7-1.6-1.7.9-2.4 2.9-1.6 4.7 1.2 2.5 3.1 7.1 3.1 8.9z"/><path class="st1" d="M281.2 256.9c-1.7-.9-3.8-.2-4.7 1.5-.4.7-1 1.5-1.4 2.1-.2-1.4.2-4.1.9-6.4.5-1.5-.2-3.2-1.5-4-1.4-.8-3.1-.6-4.3.5l-7 7c-1.4 1.4-1.4 3.6 0 4.9s3.6 1.4 4.9 0l.2-.2c.3 1.4.9 2.7 1.9 3.7 1.3 1.3 2.9 2 4.5 2 .3 0 .6 0 1-.1 3.9-.6 6.4-5 7.1-6.3.8-1.7.1-3.8-1.6-4.7z"/><path class="st1" d="M279.9 228.9h-24.5c.2-.9.4-1.7.7-2.5 9.8-2 15.6-5.2 17.3-9.4.6-1.5 1.2-4.4-1.3-7.8-2.3-3.1-5.5-4.4-8.8-3.8-4.9 1-9.4 6.3-12.5 14.9-9.8 1.7-16.1 5.2-20.1 8.7-1.4-14.3-6.9-22.7-7.2-23.1-1.1-1.6-3.2-2-4.8-1-1.6 1.1-2 3.2-1 4.8.1.1 6.4 9.7 6.4 25.9 0 15.9-12.7 27.8-20.9 27.8-3.9 0-5.6-4.6-6.4-8.6 8-5.6 15.1-12.2 16.7-18.4 2.1-8.5-.5-14.7-2.3-18.9l-.3-.6.2.2c1.4 1.4 3.6 1.4 4.9 0 1.4-1.4 1.4-3.6 0-4.9-2-2-6-5.2-9.6-3.7-1.5.6-3.3 2.2-3.3 6.2 0 1.8.8 3.6 1.6 5.6 1.6 3.7 3.5 8.2 2 14.4-.9 3.7-5.4 8.1-11.4 12.6-.6-.8-1.6-1.3-2.6-1.3-1.9 0-3.5 1.6-3.5 3.5 0 .6 0 1.3.1 2-7.4 4.8-15.9 9.3-22.4 12.2-1.7.8-2.5 2.9-1.7 4.6.6 1.3 1.8 2 3.2 2 .5 0 1-.1 1.4-.3 2-.9 11.2-5.2 20.8-11.1 1.8 6 5.5 11.4 12.6 11.4 8.3 0 17.8-6.8 23.3-17 .7 1.2 1.4 2.3 2.3 3.3 8.8 10.1 25.9 10.2 26.6 10.2 1.9 0 3.4-1.5 3.5-3.4.1-1.9-1.4-3.5-3.2-3.6 0 0-2.8-.3-4.3-2.1-.9-1.1-1.3-2.6-1.1-4.6.4-4.3 14.2-7.5 26.4-7.7 1.5 0 2.7-.9 3.2-2.3l3.5-9.8c.4-1.1.2-2.2-.4-3.2-.9-.6-2-1.2-3.1-1.2zm-15.3-16.6h.3c.3 0 .9.2 1.6 1.1.1.2.6.8.4 1-.4 1-2.8 2.6-7.8 4.1 2.2-4.3 4.3-6 5.5-6.2zm-21 45.8c-3.5-1.1-7.1-3-9.6-5.9-2.7-3.2-3.8-7.2-3.1-12.3.1-.3.3-.8.7-1.5 4.9-.4 18 1.5 18.9 5.2-4 2.1-7 5-7.4 9.1-.1 2.1.1 3.9.5 5.4zM317.8 178.9l-3.5-10.4c-.6-1.7-2.3-2.7-4-2.3-1.7.4-2.9 2-2.7 3.7 2.4 24 6.9 70.8 6.9 76.2 0 4.8-8.6 14.3-22.4 21.2-1.7.9-2.4 2.9-1.6 4.7.6 1.2 1.8 1.9 3.1 1.9.5 0 1.1-.1 1.6-.4 12.7-6.3 26.3-17.6 26.3-27.5 0-5.1-3.6-42.1-5.6-62.9 1.6-.6 2.4-2.5 1.9-4.2zM346.8 210.3c.7.7 1.6 1 2.5 1 .6 0 1.2-.1 1.7-.5 1.4-.8 2-2.4 1.7-3.9-.6-2.4-.8-5.5-.5-6.8 1.7.1 3.4-1.2 3.6-3 .3-1.9-1-3.7-3-3.9-2.3-.3-4.3.4-5.7 1.9-.9 1-1.5 2.3-1.8 3.7l-4-4c-1.4-1.4-3.6-1.4-4.9 0s-1.4 3.6 0 4.9l10.4 10.6zM354.6 213.9l-13 9.4c-1.6 1.1-1.9 3.3-.8 4.9.7.9 1.7 1.5 2.8 1.5.7 0 1.4-.2 2-.7l13-9.4c1.6-1.1 1.9-3.3.8-4.9-1-1.5-3.2-1.9-4.8-.8zM353.5 227c-1.1 1.4-.9 3.4.3 4.6.1.3.8 1.6.7 5-.1 1.9 1.4 3.5 3.4 3.6h.1c1.9 0 3.4-1.5 3.5-3.4.3-7.1-2.1-9.7-3.1-10.5-1.6-1.1-3.7-.8-4.9.7z"/><path class="st1" d="M383.8 252.6c1.9 0 3.5-1.6 3.5-3.5 0-5.1-.3-10.9-.7-16.8 3.5 5.7 6.3 10.9 8.2 15.2.6 1.3 1.8 2.1 3.2 2.1.5 0 .9-.1 1.4-.3 1.8-.8 2.6-2.8 1.8-4.6-3.2-7.4-9.1-17.3-15.9-27.4-1.4-12.8-3.1-25.3-4.5-34.3.7.1 1.5-.1 2.2-.5 1.1-.7 1.6-1.9 1.5-3.1.1.3.2.7.4 1 0 0 2.3 3.7 1.3 8.5-.4 1.9.8 3.7 2.7 4.1.2 0 .5.1.7.1 1.6 0 3.1-1.1 3.4-2.8 1.6-7.6-2.1-13.4-2.2-13.7-1-1.6-3.2-2.1-4.8-1.1-1.1.7-1.6 1.9-1.6 3.1-.1-.3-.2-.7-.4-1l-5.9-9.1c-.9-1.4-2.7-2-4.2-1.4-1.5.6-2.4 2.2-2.2 3.8 0 .3 2.7 15.5 5.1 33.9-2.7-3.8-5.3-7.4-7.9-11-.4-5.3-.8-10.1-1.2-14.2.2-.1.4-.1.6-.2 1.7-.9 2.4-2.9 1.6-4.7l-3.5-7c-.8-1.5-2.5-2.2-4.1-1.8-1.6.5-2.7 2-2.5 3.7.4 4.2.8 8.8 1.3 13.6-2.2-2.9-4.2-5.6-6-7.8.3-.3.6-.7.8-1.1.9-1.7.2-3.8-1.6-4.7l-7-3.5c-1.5-.7-3.2-.3-4.3.9-1 1.3-1 3.1 0 4.4.2.2 8.8 11 19 24.8 1.8 23 3 46.9 1.3 51.9-.3.9-.8 2-1.3 2-2.1.3-7.1-4.4-9.6-9.4-1.5-2.9-3.5-3.2-4.7-3.2-3.7.2-5.2 4.3-7.9 11.8-1.9 5.4-4.3 12-6.9 14.7-1.4-1.8-3.3-7.6-4.3-13.7.5 1.3 1.7 2.3 3.2 2.3 1.9 0 3.5-1.6 3.5-3.5 0-5.2-3.6-44.7-5.7-66.4 1.7-.7 2.6-2.6 2-4.3l-3.5-10.4c-.6-1.7-2.3-2.7-4-2.3-1.7.4-2.9 2-2.7 3.7 2.4 24.8 6.8 72.8 6.9 79.4v-.2c-.3-1.9-2-3.2-3.9-3-1.9.3-3.2 2-3 3.9 1 7.1 3.6 19.3 9.6 21.3.5.2 1.1.3 1.9.3 1.4 0 3.1-.5 4.9-2.3 3.8-3.8 6.4-11 8.6-17.4.5-1.4 1.1-3.1 1.7-4.6 3.2 4.7 8.8 10.5 14.4 10 2-.1 5.6-1.2 7.4-6.8 1.9-5.6 1.1-24.9-.1-43.4 2.9 4.1 5.9 8.3 8.7 12.5 1.1 10.4 1.9 20.9 1.9 29.4 0 2.6 1.5 4.1 3.4 4.1z"/><path class="st1" d="M410.3 234.3c-2.5-18.4-5.9-39.6-8.1-52.7 1 .2 2.1 0 2.9-.6 1.5-1.2 1.8-3.4.7-4.9l-6.3-8.3c-1-1.3-2.7-1.7-4.2-1.1-1.5.6-2.3 2.2-2 3.8.1.4 6.3 36.1 10.1 64.7 1.5 10.9-.7 20.7-5.7 26.1-3.2 3.5-7.6 5.1-12.8 4.8-1.9-.1-3.6 1.3-3.7 3.3s1.3 3.6 3.3 3.7c.6 0 1.2.1 1.7.1 6.6 0 12.3-2.4 16.6-7 6.5-7.1 9.2-18.7 7.5-31.9zM372 257.3c-1.3 1.4-1.2 3.6.2 4.9.2.2.4.5.4.7 0 .1-.1.4-.5.8-1.4 1.4-1.4 3.6 0 4.9.7.7 1.6 1 2.5 1 .9 0 1.8-.3 2.5-1 2.2-2.2 2.6-4.4 2.6-5.9-.1-3.2-2.3-5.3-2.7-5.7-1.6-1.3-3.8-1.1-5 .3zM359.7 333.6h-24.4v-3.5c0-1.9-1.6-3.5-3.5-3.5s-3.5 1.6-3.5 3.5v3.5H144c7 7 20.9 10.4 31.3 10.4h153.1v7c0 1.9 1.6 3.5 3.5 3.5h27.8c5.8 0 10.4-4.7 10.4-10.4 0-5.8-4.6-10.5-10.4-10.5zm0 13.9h-24.4V344h27.8l-.6-1.9c.4.5.6 1.2.6 1.9.1 1.9-1.5 3.5-3.4 3.5z"/></svg>