<svg version="1.1" id="Layer_1" xmlns="http://www.w3.org/2000/svg" x="0" y="0" viewBox="0 0 512 512" xml:space="preserve"><style>.st3{fill:#fff}</style><path fill="#fcd116" d="M512 104.7V88h-25.5L0 407.3V424h25.5z"/><path fill="#0051ba" d="M0 88v319.3L486.5 88z"/><path fill="#215b33" d="M512 424V104.7L25.5 424z"/><path class="st3" d="M44.4 115.8L39.7 130l-14.9.1c-1.4 0-2 1.8-.9 2.7l12 8.9-4.5 14.2c-.4 1.4 1.1 2.5 2.3 1.7l12.2-8.7 12.2 8.7c1.2.8 2.7-.3 2.3-1.7l-4.5-14.2 12-8.9c1.2-.9.6-2.7-.9-2.7l-15-.2-4.7-14.2c-.5-1.3-2.4-1.3-2.9.1zM158.2 115.8l-4.7 14.2-14.9.1c-1.4 0-2 1.8-.9 2.7l12 8.9-4.5 14.2c-.4 1.4 1.1 2.5 2.3 1.7l12.2-8.7 12.2 8.7c1.2.8 2.7-.3 2.3-1.7l-4.5-14.2 12-8.9c1.2-.9.6-2.7-.9-2.7l-14.9-.1-4.7-14.2c-.6-1.4-2.5-1.4-3 0zM101.3 166.5l-4.7 14.2-14.9.1c-1.4 0-2 1.8-.9 2.7l12 8.9-4.5 14.2c-.4 1.4 1.1 2.5 2.3 1.7l12.2-8.7 12.2 8.7c1.2.8 2.7-.3 2.3-1.7l-4.5-14.2 12-8.9c1.2-.9.6-2.7-.9-2.7l-14.9-.1-4.7-14.2c-.6-1.4-2.5-1.4-3 0zM44.4 217.2l-4.7 14.2-14.9.1c-1.4 0-2 1.8-.9 2.7l12 8.9-4.5 14.2c-.4 1.4 1.1 2.5 2.3 1.7l12.2-8.7 12.2 8.7c1.2.8 2.7-.3 2.3-1.7L55.8 243l12-8.9c1.2-.9.6-2.7-.9-2.7l-14.9-.1-4.7-14.2c-.5-1.3-2.4-1.3-2.9.1zM158.2 217.2l-4.7 14.2-14.9.1c-1.4 0-2 1.8-.9 2.7l12 8.9-4.5 14.2c-.4 1.4 1.1 2.5 2.3 1.7l12.2-8.7 12.2 8.7c1.2.8 2.7-.3 2.3-1.7l-4.5-14.2 12-8.9c1.2-.9.6-2.7-.9-2.7l-14.9-.1-4.7-14.2c-.6-1.4-2.5-1.4-3 0z"/></svg>