<svg version="1.1" id="Layer_1" xmlns="http://www.w3.org/2000/svg" x="0" y="0" viewBox="0 0 512 512" xml:space="preserve"><style>.st1{fill:#fff}</style><path fill="#ed2939" d="M0 88h512v168H0z"/><path class="st1" d="M0 256h512v168H0zM72.6 172.3c0-29 21.3-53.1 49.1-57.5 1.5-.2 1.6-2.3.1-2.7-6.9-1.6-14.2-2-21.8-1-30 4.1-53.2 30-53.6 60.3-.5 34.6 27.4 62.7 61.8 62.7 4.7 0 9.2-.5 13.6-1.6 1.5-.3 1.4-2.4-.1-2.7-27.8-4.4-49.1-28.4-49.1-57.5z"/><path class="st1" d="M122.1 187.8l-2.6 7.8-8.3.1c-1.1 0-1.5 1.4-.7 2l6.6 4.9-2.5 7.9c-.3 1 .8 1.9 1.7 1.2l6.7-4.8 6.7 4.8c.9.6 2-.2 1.7-1.2l-2.5-7.9 6.6-4.9c.9-.6.4-2-.7-2l-8.3-.1-2.6-7.8c0-1-1.4-1-1.8 0zM163 187.8l-2.6 7.8-8.3.1c-1.1 0-1.5 1.4-.7 2l6.6 4.9-2.5 7.9c-.3 1 .8 1.9 1.7 1.2l6.7-4.8 6.7 4.8c.9.6 2-.2 1.7-1.2l-2.5-7.9 6.6-4.9c.9-.6.4-2-.7-2l-8.3-.1-2.6-7.8c-.1-1-1.5-1-1.8 0zM142.7 124.8l-2.6 7.8-8.3.1c-1.1 0-1.5 1.4-.7 2l6.6 4.9-2.5 7.9c-.3 1 .8 1.9 1.7 1.2l6.7-4.8 6.7 4.8c.9.6 2-.2 1.7-1.2l-2.5-7.9 6.6-4.9c.9-.6.4-2-.7-2l-8.3-.1-2.6-7.8c0-1-1.4-1-1.8 0zM110.2 148.9l-2.6 7.8-8.3.1c-1.1 0-1.5 1.4-.7 2l6.6 4.9-2.5 7.9c-.3 1 .8 1.9 1.7 1.2l6.7-4.8 6.7 4.8c.9.6 2-.2 1.7-1.2l-2.5-7.9 6.6-4.9c.9-.6.4-2-.7-2l-8.3-.1-2.6-7.8c0-1-1.5-1-1.8 0zM175 148.9l-2.6 7.8-8.3.1c-1.1 0-1.5 1.4-.7 2l6.6 4.9-2.5 7.9c-.3 1 .8 1.9 1.7 1.2l6.7-4.8 6.7 4.8c.9.6 2-.2 1.7-1.2l-2.5-7.9 6.6-4.9c.9-.6.4-2-.7-2l-8.3-.1-2.6-7.8c0-1-1.4-1-1.8 0z"/></svg>