<svg version="1.1" id="Layer_1" xmlns="http://www.w3.org/2000/svg" x="0" y="0" viewBox="0 0 512 512" xml:space="preserve"><style>.st0{fill:#012169}.st1{fill:#fff}.st2{fill:#c8102e}</style><path class="st0" d="M256.1 88v168.2H0V424h512V88z"/><g id="Union_flag"><path class="st0" d="M0 88h256.1v168.2H0z"/><path class="st1" d="M106 150.1v-7.9L22.7 88H0v17l69.3 45.1zM106 194.1H70.8L0 240.1v16.1h24.2l81.8-53.3zM233.9 88L150 142.5v7.6h37.3l68.8-44.8V88zM150 194.1v8.5l82.5 53.6h23.6v-16.4l-70.2-45.7z"/><path class="st1" d="M256.1 150.1H150V88h-44v62.1H0v44h106v62.1h44v-62.1h106.1z"/><path class="st2" d="M256.1 158.8H141.3V88h-26.5v70.8H0v26.5h114.8v70.9h26.5v-70.9h114.8z"/><path class="st2" d="M97.2 150.1L1.7 88H0v9.6l80.7 52.5zM106 194.1H89.6L0 252.4v3.8h10.6zM157.3 194.1l95.5 62.1h3.3v-8.6l-82.3-53.5zM245.4 88L150 150v.1h16.4l89.7-58.3V88z"/></g><g id="shield" transform="translate(318 75)"><path id="Path_7_" d="M131 146.7c-.1 44.4-7.2 92.1-65 114.9C8.2 238.8 1.1 191.1 1 146.7h130z" fill="#00a0cb"/><path id="Path_8_" d="M131 146.7c0-16.7-.9-32.9-.5-47.1C108.9 90 80.4 88 65.9 88S23 90 1.3 99.6c.4 14.2-.5 30.4-.5 47.1H131z" fill="#cab581"/><path id="Path_9_" d="M51.5 211.5l.3 10.3-12.8.2 4.9 13.2H26.6C8.6 215 3.2 192.8 1.7 167.1l9.1-9.7 8.3 14.3 10.8-12.8 7 7.8.8 15.7 13.8 29.1z" fill="#dab57a"/><path id="Path_10_" fill="#464655" d="M118.6 199.5l-8.6 18.3H63l-29.2-19.5 25.7 10.5h25.1l3.7-6.5 7.2.2 2-3z"/></g></svg>