<svg version="1.1" id="Layer_1" xmlns="http://www.w3.org/2000/svg" x="0" y="0" viewBox="0 0 512 512" xml:space="preserve"><style>.st0{fill:#fff}.st1{fill:#005da4}.st2{fill:#ed1c24}.st3{fill:#fd0}</style><path class="st0" d="M0 88h512v112H0z"/><path class="st1" d="M0 200h512v112H0z"/><path class="st2" d="M0 312h512v112H0z"/><g id="shield"><path class="st1" d="M172 157.4s-1.8 56.6-9.7 72.5c-9.8 19.5-19.7 25.2-34.4 30.5-14.7-5.3-24.6-11-34.4-30.5-7.9-15.9-9.7-72.5-9.7-72.5 28-12.7 60.1-12.7 88.2 0z"/><path class="st0" d="M140.6 235.9c-1.1-.7-1.9-1.2-3.6-1.2-1.8 0-2.5.5-3.6 1.2-1.2.8-2.8 1.8-5.6 1.8s-4.4-1-5.6-1.8c-1.1-.7-1.8-1.2-3.6-1.2s-2.5.5-3.6 1.2c-1.2.7-2.6 1.6-5.2 1.7 5.4 6.5 11 9.6 18 12.3 7-2.7 12.6-5.8 18-12.3-2.5-.1-4-1-5.2-1.7zM105.8 225.4c1.1.7 1.8 1.2 3.6 1.2s2.5-.5 3.6-1.2c1.2-.8 2.8-1.8 5.6-1.8s4.4 1 5.6 1.8c1.1.7 1.8 1.2 3.6 1.2s2.5-.5 3.6-1.2c1.2-.8 2.8-1.8 5.6-1.8s4.4 1 5.6 1.8c1.1.7 1.8 1.2 3.6 1.2s2.5-.5 3.6-1.2c1-.7 2.3-1.4 4.4-1.7.5-1.4 1.1-3 1.5-4.9l-13.2-21.9-4.9 9.8-9.8-19.6-9.8 19.6-4.9-9.8-13.1 22c.5 1.9 1 3.5 1.5 4.9 2 .2 3.3 1 4.3 1.6zM151.8 228.5c-1.2.8-2.8 1.8-5.6 1.8s-4.4-1-5.6-1.8c-1.1-.7-1.9-1.2-3.6-1.2-1.8 0-2.5.5-3.6 1.2-1.2.8-2.8 1.8-5.6 1.8s-4.4-1-5.6-1.8c-1.1-.7-1.8-1.2-3.6-1.2s-2.5.5-3.6 1.2c-1.2.8-2.8 1.8-5.6 1.8s-4.4-1-5.6-1.8c1 1.7 1.9 3.3 2.9 4.8.7.4 1.5.7 2.7.7 1.8 0 2.5-.5 3.6-1.2 1.2-.8 2.8-1.8 5.6-1.8s4.4 1 5.6 1.8c1.1.7 1.8 1.2 3.6 1.2s2.5-.5 3.6-1.2c1.2-.8 2.8-1.8 5.6-1.8s4.4 1 5.6 1.8c1.1.7 1.8 1.2 3.6 1.2 1.3 0 2-.3 2.8-.7.9-1.4 1.9-3 2.8-4.8.1 0 0 0 0 0z"/><g><path class="st3" d="M128 170.2l.9 2.8 2.9-.7c.2 0 .3.2.2.3l-2 2.2 2 2.2c.1.1 0 .4-.2.3l-2.9-.7-.9 2.8c-.1.2-.3.2-.4 0l-.9-2.8-2.9.7c-.2 0-.3-.2-.2-.3l2-2.2-2-2.2c-.1-.1 0-.4.2-.3l2.9.7.9-2.8c.1-.2.4-.2.4 0zM113.9 156.7l.9 2.8 2.9-.7c.2 0 .3.2.2.3l-2 2.2 2 2.2c.1.1 0 .4-.2.3l-2.9-.7-.9 2.8c-.1.2-.3.2-.4 0l-.9-2.8-2.9.7c-.2 0-.3-.2-.2-.3l2-2.2-2-2.2c-.1-.1 0-.4.2-.3l2.9.7.9-2.8c.1-.2.4-.2.4 0zM142.3 156.7l.9 2.8 2.9-.7c.2 0 .3.2.2.3l-2 2.2 2 2.2c.1.1 0 .4-.2.3l-2.9-.7-.9 2.8c-.1.2-.3.2-.4 0l-.9-2.8-2.9.7c-.2 0-.3-.2-.2-.3l2-2.2-2-2.2c-.1-.1 0-.4.2-.3l2.9.7.9-2.8c0-.2.3-.2.4 0z"/></g><path class="st2" d="M166.9 155.2c0 1.6.1 3.1.1 4.8-.7 17.7-3.3 56.3-9.1 67.9-8.5 17-16.3 22.6-30.1 27.8-13.8-5.2-21.6-10.8-30-27.8-5.8-11.7-8.4-50.9-9.1-67.9 0-1.7 0-3.3.1-4.8l-5.1 2.1c.1 3.4 1 26 3.5 45.8 1.4 11.1 3.4 21.3 6.2 26.7 9.8 19.6 19.7 25.2 34.4 30.5 14.7-5.3 24.6-11 34.4-30.5 2.7-5.4 4.7-15.6 6.2-26.7 2.6-19.8 3.4-42.4 3.5-45.8-1.6-.7-3.3-1.4-5-2.1z"/></g></svg>