<svg version="1.1" id="Layer_1" xmlns="http://www.w3.org/2000/svg" x="0" y="0" viewBox="0 0 512 512" xml:space="preserve"><style>.st0{fill:#ef2b2d}.st1{fill:#fff}</style><path class="st0" d="M0 88h141.2v123.8H0zM0 300.2h141.2V424H0zM229.5 300.2H512V424H229.5zM229.5 88H512v123.8H229.5z"/><path class="st1" d="M229.5 211.8V88h-17.6v141.5H512v-17.7zM0 282.5v17.7h141.2V424h17.7V282.5zM158.9 88h-17.7v123.8H0v17.7h158.9zM211.9 424h17.6V300.2H512v-17.7H211.9z"/><path fill="#002868" d="M512 229.5H211.9V88h-53v141.5H0v53h158.9V424h53V282.5H512z"/></svg>