<svg version="1.1" id="Layer_1" xmlns="http://www.w3.org/2000/svg" x="0" y="0" viewBox="0 0 512 512" xml:space="preserve"><style>.st0{fill:#fff}.st1{fill:#0b4ea2}.st2{fill:#ee1c25}</style><path class="st0" d="M0 88h512v112H0z"/><path class="st1" d="M0 200h512v112H0z"/><path class="st2" d="M0 312h512v112H0z"/><g id="shield"><path class="st2" d="M130.2 339.3c-2.6-1.5-64-37.2-64-92.1v-75h132.4v75c0 54.9-61.4 90.6-64 92.1l-2.2 1.2-2.2-1.2z"/><path class="st0" d="M167.1 233.9l-20.8 2.8h-6.9v-12.4h4.1l16.7 2.7-2.3-9.7 2.3-9.7-16.7 2.8h-4.1v-4.2l2.7-20.8-9.7 2.8-9.7-2.8 2.8 20.8v4.2h-4.2l-16.6-2.8 2.2 9.7-2.2 9.7 16.6-2.7h4.2v12.4h-7l-20.8-2.8 2.9 9.7-2.9 9.7 20.8-2.8h7v32h13.9v-32h6.9l20.8 2.8-2.8-9.7z"/><path class="st1" d="M132.4 269.2c-9.1 0-16.9 5.5-20.3 13.4-.6 0-1.2-.2-1.8-.2-11.8 0-21.3 9.2-21.9 20.8 17.9 22 40.3 35.1 41.8 36l2.2 1.2 2.2-1.2c1.6-.9 23.9-14 41.8-36-.7-11.6-10.2-20.8-21.9-20.8-.6 0-1.2.1-1.8.2-3.3-7.8-11.2-13.4-20.3-13.4z"/><path class="st0" d="M194.2 176.6v70.6c0 53-61.8 88.3-61.8 88.3s-61.8-35.3-61.8-88.3v-70.6h123.6m8.8-8.9H61.8V247.1c0 57.4 63.5 94.4 66.2 95.9l4.4 2.5 4.4-2.5c2.7-1.5 66.2-38.5 66.2-95.9V167.7z"/></g></svg>