<?xml version="1.0" encoding="utf-8"?>
<!-- Generator: Adobe Illustrator 25.0.0, SVG Export Plug-In . SVG Version: 6.00 Build 0)  -->
<svg version="1.1" id="Layer_1" xmlns="http://www.w3.org/2000/svg" xmlns:xlink="http://www.w3.org/1999/xlink" x="0px" y="0px"
	 viewBox="0 0 512 512" style="enable-background:new 0 0 512 512;" xml:space="preserve">
<style type="text/css">
	.st0{fill:#FFFFFF;}
	.st1{fill:#5EB6E4;}
	.st2{fill:#B46446;}
	.st3{fill:#658D5C;}
	.st4{fill:#F1BF31;}
	.st5{fill:#94BB79;}
	.st6{fill:#FFF0E1;}
	.st7{fill:#F1A800;}
</style>
<rect y="88.3" class="st0" width="512" height="168"/>
<rect y="255.9" class="st1" width="512" height="168"/>
<g id="crest">
	<path class="st2" d="M256.8,328c-1.5-0.1-36.8-1.9-54.5-26.1c-10.3-14.1-12.4-33-6.1-55.9l2.5,0.7c-6,22.1-4.1,40.2,5.7,53.7
		c17,23.2,52.2,25.1,52.5,25.1L256.8,328z"/>
	<g>
		<path class="st3" d="M196.2,235.8c-1.7,4.5-1.3,9.3,0.7,12.9c3.9-1.3,7.4-4.6,9.1-9.1c1.7-4.5,1.3-9.3-0.7-12.9
			C201.4,228,197.9,231.2,196.2,235.8z"/>
		<path class="st3" d="M218.3,298.4c-1.9,3.2-2.4,7.5-1,11.6c1.3,3.9,4.1,6.7,7.3,8.2c-3.1-1.6-7.1-2-10.9-0.7
			c-4.1,1.4-7.2,4.5-8.5,7.9c3.2,1.9,7.5,2.4,11.6,1c4.1-1.4,7.2-4.5,8.5-7.9l0,0c1.9-3.2,2.4-7.4,1-11.6
			C224.8,302.8,221.8,299.7,218.3,298.4z"/>
		<path class="st3" d="M210.7,286.9c-3,2.2-5,6-5.3,10.4c-0.2,4.1,1.3,7.8,3.7,10.3c-2.3-2.7-5.8-4.5-9.9-4.7
			c-4.4-0.2-8.3,1.5-10.9,4.2c2.2,3,6,5,10.4,5.3c4.4,0.2,8.3-1.5,10.9-4.2c0,0,0,0,0,0c3-2.2,5-6,5.2-10.4
			C215.1,293.3,213.5,289.4,210.7,286.9z"/>
		<path class="st3" d="M207.4,273.8c-3.6,0.9-6.9,3.7-8.8,7.6c-1.7,3.7-1.7,7.7-0.4,10.9c-1.1-3.3-3.7-6.4-7.4-8.1
			c-4-1.9-8.3-1.8-11.6-0.2c0.9,3.6,3.7,6.9,7.6,8.8c4,1.9,8.3,1.8,11.6,0.2c0,0,0,0,0,0c3.6-1,6.9-3.7,8.8-7.6
			C209.1,281.5,209,277.2,207.4,273.8z"/>
		<path class="st3" d="M209.3,260.9c-3.7-0.4-7.8,1-10.9,4.1c-2.9,2.9-4.3,6.6-4.2,10.1c0.1-3.5-1.2-7.2-4.1-10.2
			c-3.1-3.1-7.1-4.6-10.8-4.3c-0.4,3.7,1,7.8,4.1,10.9s7.1,4.6,10.8,4.3c0,0,0,0,0,0c3.7,0.4,7.8-1,10.9-4.1
			C208.2,268.6,209.6,264.6,209.3,260.9z"/>
		<path class="st3" d="M211.9,248.6c-3.6-1-7.8-0.3-11.4,2.2c-3.4,2.4-5.3,5.8-5.8,9.3c0.7-3.4,0-7.3-2.3-10.7
			c-2.5-3.6-6.3-5.7-10-6c-1,3.6-0.3,7.8,2.2,11.4c2.5,3.6,6.3,5.7,10,6c0,0,0,0,0,0c3.6,1,7.8,0.3,11.4-2.2
			C209.5,256,211.6,252.3,211.9,248.6z"/>
	</g>
	<g>
		<circle class="st4" cx="213" cy="316.5" r="2.7"/>
		<circle class="st4" cx="225.5" cy="318" r="2.7"/>
		<circle class="st4" cx="205.8" cy="295.9" r="2.7"/>
		<circle class="st4" cx="188.4" cy="275.3" r="2.7"/>
		<circle class="st4" cx="200.5" cy="261.4" r="2.7"/>
		<circle class="st4" cx="195.9" cy="247.2" r="2.7"/>
	</g>
	<path class="st2" d="M256.9,328l-0.1-2.6c0.4,0,35.6-1.8,52.5-25.1c9.8-13.5,11.7-31.5,5.7-53.7l2.5-0.7c6.3,23,4.2,41.8-6.1,55.9
		C293.7,326.1,258.4,327.9,256.9,328z"/>
	<g>
		<path class="st3" d="M317.6,235.8c1.7,4.5,1.3,9.3-0.7,12.9c-3.9-1.3-7.4-4.6-9.1-9.1c-1.7-4.5-1.3-9.3,0.7-12.9
			C312.4,228,315.8,231.2,317.6,235.8z"/>
		<path class="st3" d="M295.5,298.4c1.9,3.2,2.4,7.5,1,11.6c-1.3,3.9-4.1,6.7-7.3,8.2c3.1-1.6,7.1-2,10.9-0.7
			c4.1,1.4,7.2,4.5,8.5,7.9c-3.2,1.9-7.5,2.4-11.6,1c-4.1-1.4-7.2-4.5-8.5-7.9c0,0,0,0,0,0c-1.9-3.2-2.4-7.4-1-11.6
			C289,302.8,292,299.7,295.5,298.4z"/>
		<path class="st3" d="M303,286.9c3,2.2,5,6,5.3,10.4c0.2,4.1-1.3,7.8-3.7,10.3c2.3-2.7,5.8-4.5,9.9-4.7c4.4-0.2,8.3,1.5,10.9,4.2
			c-2.2,3-6,5-10.4,5.3c-4.4,0.2-8.3-1.5-10.9-4.2c0,0,0,0,0,0c-3-2.2-5-6-5.2-10.4C298.6,293.3,300.3,289.4,303,286.9z"/>
		<path class="st3" d="M306.3,273.8c3.6,0.9,6.9,3.7,8.8,7.6c1.7,3.7,1.7,7.7,0.4,10.9c1.1-3.3,3.7-6.4,7.4-8.1
			c4-1.9,8.3-1.8,11.6-0.2c-0.9,3.6-3.7,6.9-7.6,8.8c-4,1.9-8.3,1.8-11.6,0.2c0,0,0,0,0,0c-3.6-1-6.9-3.7-8.8-7.6
			C304.7,281.5,304.7,277.2,306.3,273.8z"/>
		<path class="st3" d="M304.5,260.9c3.7-0.4,7.8,1,10.9,4.1c2.9,2.9,4.3,6.6,4.2,10.1c-0.1-3.5,1.2-7.2,4.1-10.2
			c3.1-3.1,7.1-4.6,10.8-4.3c0.4,3.7-1,7.8-4.1,10.9s-7.1,4.6-10.8,4.3c0,0,0,0,0,0c-3.7,0.4-7.8-1-10.9-4.1
			C305.6,268.6,304.1,264.6,304.5,260.9z"/>
		<path class="st3" d="M301.8,248.6c3.6-1,7.8-0.3,11.4,2.2c3.4,2.4,5.3,5.8,5.8,9.3c-0.7-3.4,0-7.3,2.3-10.7c2.5-3.6,6.3-5.7,10-6
			c1,3.6,0.3,7.8-2.2,11.4c-2.5,3.6-6.3,5.7-10,6c0,0,0,0,0,0c-3.6,1-7.8,0.3-11.4-2.2C304.2,256,302.1,252.3,301.8,248.6z"/>
	</g>
	<g>
		<circle class="st4" cx="300.8" cy="316.5" r="2.7"/>
		<circle class="st4" cx="288.2" cy="318" r="2.7"/>
		<circle class="st4" cx="308" cy="295.9" r="2.7"/>
		<circle class="st4" cx="325.4" cy="275.3" r="2.7"/>
		<circle class="st4" cx="313.2" cy="261.4" r="2.7"/>
		<circle class="st4" cx="317.8" cy="247.2" r="2.7"/>
	</g>
	<path class="st1" d="M272.2,236.2h-31.3c-9.8,0-17.7,7.9-17.7,17.7v27.6c0,9.8,7.9,17.7,17.7,17.7h31.3c9.8,0,17.7-7.9,17.7-17.7
		v-27.6C289.9,244.1,282,236.2,272.2,236.2z"/>
	<g>
		<polygon class="st0" points="261.8,260.3 261.8,263.8 258.3,263.8 258.3,260.3 255.6,260.3 255.6,263.8 252.1,263.8 252.1,260.3 
			249.9,260.3 249.9,267.2 251.6,269.5 251.6,295.2 262.1,295.2 262.1,269.5 263.9,267.2 263.9,260.3 		"/>
		<path class="st0" d="M257.4,249.2c1.7-0.8,2.2,2.7,2.2,2.7c3.6-1.8,2.7-4.8,1.8-6.2c-1.2-1.9-5.8-2.6-7.8,1.3s3.3,11.7,3.3,11.7
			C257.2,256.3,255.1,250.3,257.4,249.2z"/>
		<polygon class="st0" points="279.7,266.8 279.7,270.3 276.2,270.3 276.2,266.8 273.5,266.8 273.5,270.3 270,270.3 270,266.8 
			267.9,266.8 267.9,273.8 269.6,276 269.6,301.7 280.1,301.7 280.1,276 281.8,273.8 281.8,266.8 		"/>
		<path class="st0" d="M275.4,255.7c1.7-0.8,2.2,2.7,2.2,2.7c3.6-1.8,2.7-4.8,1.8-6.2c-1.2-1.9-5.8-2.6-7.8,1.3
			c-2,3.9,3.4,11.7,3.4,11.7C275.2,262.8,273.1,256.8,275.4,255.7z"/>
		<polygon class="st0" points="243.8,266.8 243.8,270.3 240.3,270.3 240.3,266.8 237.6,266.8 237.6,270.3 234.1,270.3 234.1,266.8 
			231.9,266.8 231.9,273.8 233.7,276 233.7,301.7 244.2,301.7 244.2,276 245.9,273.8 245.9,266.8 		"/>
		<path class="st0" d="M239.4,255.7c1.7-0.8,2.2,2.7,2.2,2.7c3.6-1.8,2.7-4.8,1.8-6.2c-1.2-1.9-5.8-2.6-7.8,1.3
			c-2,3.9,3.4,11.7,3.4,11.7C239.3,262.8,237.2,256.8,239.4,255.7z"/>
	</g>
	<path class="st5" d="M285.6,297.1c-2.3-1.2-4.9-1.9-7.7-1.9c-3,0-5.7,0.8-8.2,2.1c-3.2-3.4-7.7-5.6-12.8-5.6s-9.6,2.2-12.8,5.6
		c-2.5-1.3-5.2-2.1-8.2-2.1c-2.8,0-5.4,0.7-7.7,1.9c5,9.2,14.5,23.9,28.7,29.6C271,321,280.6,306.2,285.6,297.1z"/>
	<g>
		<path class="st4" d="M256.7,179.9l0.2-0.1C256.9,179.9,256.8,179.9,256.7,179.9z"/>
		<path class="st4" d="M256.9,179.9l0.2,0.1C256.9,179.9,256.9,179.9,256.9,179.9z"/>
		<path class="st4" d="M290.4,194.8c-1-5.7-8.3-6.7-16.7-7.2c-8.4-0.5-12-5.4-12-5.4h-9.6c0,0-3.6,4.8-12,5.4s-15.7,1.5-16.7,7.2
			c-1,5.7,6.2,14.6,6.2,14.6l6.3-5.1c0,0-7.8-7.4-3.9-10.2c3.8-2.7,14.8-0.8,19.7-7.3c-0.2,1.4-0.1,3,0.7,5.1c1.6,3.9,1,8.9,1,8.9
			h3.5h3.5c0,0-0.6-5,1-8.9c0.8-2.1,0.9-3.7,0.7-5.1c4.9,6.5,15.9,4.6,19.7,7.3c3.8,2.7-3.9,10.2-3.9,10.2l6.3,5.1
			C284.2,209.5,291.4,200.5,290.4,194.8z"/>
		<path class="st4" d="M260.4,162.6h-1.8v-2c0-1-0.8-1.7-1.7-1.7s-1.7,0.8-1.7,1.7v2h-1.9c-1,0-1.7,0.8-1.7,1.7s0.8,1.7,1.7,1.7h1.9
			v5c0,1,0.8,1.7,1.7,1.7s1.7-0.8,1.7-1.7v-5h1.8c1,0,1.7-0.8,1.7-1.7S261.4,162.6,260.4,162.6z"/>
	</g>
	<circle class="st6" cx="256.9" cy="172.9" r="3.5"/>
	<g>
		<path class="st7" d="M231.8,243.2c1.4,0.7,3.1,1.3,4.7,1.3c5.8,0,8.6-3.3,8.6-9.1s-3.5-10.2-9.3-10.2c0,0-0.7,0-1.7,0.2
			c-0.2,0-0.4,0.1-0.7,0.1c-5.6,1.1-19.3,6.2-22.1,31.2c-3.9,34.9,24.5,66.4,45.4,73.4v-3.5C256.9,326.7,207.4,288.8,231.8,243.2z"
			/>
		<polygon class="st7" points="235.9,228.8 256.9,235.8 235.9,242.8 		"/>
	</g>
	<g>
		<polygon class="st4" points="277.8,242.8 256.9,235.8 277.8,228.8 		"/>
		<path class="st4" d="M214.9,257.2c2.5-22.5,14.3-27.2,19.4-28.1c0.1,0,0.2,0,0.4-0.1c0.6-0.1,1.1-0.1,1.2-0.1
			c3.8,0,6.4,2.9,6.4,6.4c0,3.9-2.3,5.3-4.5,5.4c0,0,1.8-3.8-1.9-4.8c-2.5-0.7-5.7,1.3-5.4,5c0.2,2.6,2.6,5,5.4,5
			c5.8,0,10.5-4.2,10.5-10s-4.7-10.5-10.5-10.5c0,0-0.7,0-1.7,0.2c-0.2,0-0.4,0.1-0.7,0.1c-5.6,1.1-19.3,6.2-22.1,31.2
			c-3.9,34.9,24.5,66.4,45.4,73.4v-3.5c0,0-7.4-3.7-12.5-7.3C228.7,308.2,212.1,282.6,214.9,257.2z"/>
	</g>
	<g>
		<path class="st7" d="M281.9,243.2c-1.4,0.7-3.1,1.3-4.7,1.3c-5.8,0-8.6-3.3-8.6-9.1s3.5-10.2,9.3-10.2c0,0,0.7,0,1.7,0.2
			c0.2,0,0.4,0.1,0.7,0.1c5.6,1.1,19.3,6.2,22.1,31.2c3.9,34.9-24.5,66.4-45.4,73.4v-3.5C256.9,326.7,306.4,288.8,281.9,243.2z"/>
		<polygon class="st7" points="277.8,228.8 256.9,235.8 277.8,242.8 		"/>
	</g>
	<g>
		<path class="st4" d="M298.8,257.2c-2.5-22.5-14.3-27.2-19.4-28.1c-0.1,0-0.2,0-0.4-0.1c-0.6-0.1-1.1-0.1-1.2-0.1
			c-3.8,0-6.4,2.9-6.4,6.4c0,3.9,2.3,5.3,4.5,5.4c0,0-1.8-3.8,1.9-4.8c2.5-0.7,5.7,1.3,5.4,5c-0.2,2.6-2.6,5-5.4,5
			c-5.8,0-10.5-4.2-10.5-10s4.7-10.5,10.5-10.5c0,0,0.7,0,1.7,0.2c0.2,0,0.4,0.1,0.7,0.1c5.6,1.1,19.3,6.2,22.1,31.2
			c3.9,34.9-24.5,66.4-45.4,73.4v-3.5c0,0,7.4-3.7,12.5-7.3C285.1,308.2,301.7,282.6,298.8,257.2z"/>
		<circle class="st4" cx="256.9" cy="235.8" r="3.5"/>
	</g>
	<path class="st7" d="M281.8,207.7c0.9-2.4-0.3-5.6-0.3-5.6c-3.2-0.1-5.5,2.2-5.5,2.2c0.3-2.9-1-5.5-1-5.5c-4.2,0.5-5.5,2.9-5.5,2.9
		c-0.2-4.5-3-6.4-3-6.4c-3.6,1.1-4.7,5-4.7,5c-0.5-4.5-5-6.6-5-6.6s-4.5,2.1-5,6.6c0,0-1.1-3.9-4.7-5c0,0-2.7,1.9-2.9,6.4
		c0,0-1.4-2.5-5.5-2.9c0,0-1.3,2.6-1,5.5c0,0-2.2-2.3-5.5-2.2c0,0-1.3,3.2-0.3,5.6c0,0-3.7-1.1-6.7,0.6c0,0,5.5,2.1,7.3,4.8h48.6
		c1.8-2.6,7.3-4.8,7.3-4.8C285.5,206.6,281.8,207.7,281.8,207.7z"/>
	<path class="st4" d="M281.2,213.1c0,1.6-3.7,6.4-3.7,6.4s-11.9,1.7-20.6,1.7c-8.7,0-20.7-1.7-20.7-1.7s-3.6-4.8-3.6-6.4
		c0-4.5,10.9-8.1,24.3-8.1C270.3,205,281.2,208.6,281.2,213.1z"/>
	<g>
		<ellipse class="st7" cx="256.9" cy="218.3" rx="21" ry="7"/>
		<path class="st7" d="M262,179.5c0-2.3-1.7-5.2-5.1-3.2c-3.4-2-5.1,0.9-5.1,3.2s-2.6,2.6-2.9,2.4c0,0,2.2,2.8,4.7,1
			c0,0,1.3,2,3.4,2c2,0,3.4-2,3.4-2c2.5,1.9,4.7-1,4.7-1C264.6,182.2,262,181.8,262,179.5z"/>
	</g>
	<g>
		<path class="st2" d="M249.9,349c-0.2,0-0.4,0-0.6-0.1c-0.6-0.3-0.9-1.1-0.6-1.8l7-14c0.3-0.6,1.1-0.9,1.8-0.6
			c0.6,0.3,0.9,1.1,0.6,1.8l-7,14C250.8,348.7,250.4,349,249.9,349z"/>
		<path class="st2" d="M263.9,349c-0.5,0-0.9-0.3-1.2-0.7l-7-14c-0.3-0.6-0.1-1.4,0.6-1.8c0.6-0.3,1.4-0.1,1.8,0.6l7,14
			c0.3,0.6,0.1,1.4-0.6,1.8C264.3,348.9,264.1,349,263.9,349z"/>
	</g>
	<g>
		<path class="st0" d="M288.3,336.7c-20.7,4.6-42.2,4.6-62.9,0c0-3.5,0-10,0-13.5c20.7,4.6,42.2,4.6,62.9,0
			C288.3,326.7,288.3,333.2,288.3,336.7z"/>
		<path class="st0" d="M242.7,331.6c-13.4,2.6-27.1,3.3-40.7,2c0.2,1.8,11,7.2,11,7.2s-9.5,4.6-9.3,6.3c13.1,1.2,26.2,0.6,39-1.7
			V331.6L242.7,331.6z"/>
		<path class="st0" d="M271.1,331.6c13.4,2.6,27.1,3.3,40.7,2c-0.2,1.8-11,7.2-11,7.2s9.5,4.6,9.3,6.3c-13.1,1.2-26.2,0.6-39-1.7
			V331.6L271.1,331.6z"/>
	</g>
</g>
</svg>
