<svg version="1.1" id="Layer_1" xmlns="http://www.w3.org/2000/svg" x="0" y="0" viewBox="0 0 512 512" xml:space="preserve"><style>.st0{fill:#fff}.st1{fill:#5eb6e4}.st2{fill:#b46446}.st3{fill:#658d5c}.st4{fill:#f1bf31}.st7{fill:#f1a800}</style><path class="st0" d="M0 88.3h512v168H0z"/><path class="st1" d="M0 255.9h512v168H0z"/><g id="crest"><path class="st2" d="M256.8 328c-1.5-.1-36.8-1.9-54.5-26.1-10.3-14.1-12.4-33-6.1-55.9l2.5.7c-6 22.1-4.1 40.2 5.7 53.7 17 23.2 52.2 25.1 52.5 25.1l-.1 2.5z"/><path class="st3" d="M196.2 235.8c-1.7 4.5-1.3 9.3.7 12.9 3.9-1.3 7.4-4.6 9.1-9.1 1.7-4.5 1.3-9.3-.7-12.9-3.9 1.3-7.4 4.5-9.1 9.1zM218.3 298.4c-1.9 3.2-2.4 7.5-1 11.6 1.3 3.9 4.1 6.7 7.3 8.2-3.1-1.6-7.1-2-10.9-.7-4.1 1.4-7.2 4.5-8.5 7.9 3.2 1.9 7.5 2.4 11.6 1s7.2-4.5 8.5-7.9c1.9-3.2 2.4-7.4 1-11.6-1.5-4.1-4.5-7.2-8-8.5zM210.7 286.9c-3 2.2-5 6-5.3 10.4-.2 4.1 1.3 7.8 3.7 10.3-2.3-2.7-5.8-4.5-9.9-4.7-4.4-.2-8.3 1.5-10.9 4.2 2.2 3 6 5 10.4 5.3 4.4.2 8.3-1.5 10.9-4.2 3-2.2 5-6 5.2-10.4.3-4.5-1.3-8.4-4.1-10.9zM207.4 273.8c-3.6.9-6.9 3.7-8.8 7.6-1.7 3.7-1.7 7.7-.4 10.9-1.1-3.3-3.7-6.4-7.4-8.1-4-1.9-8.3-1.8-11.6-.2.9 3.6 3.7 6.9 7.6 8.8 4 1.9 8.3 1.8 11.6.2 3.6-1 6.9-3.7 8.8-7.6 1.9-3.9 1.8-8.2.2-11.6zM209.3 260.9c-3.7-.4-7.8 1-10.9 4.1-2.9 2.9-4.3 6.6-4.2 10.1.1-3.5-1.2-7.2-4.1-10.2-3.1-3.1-7.1-4.6-10.8-4.3-.4 3.7 1 7.8 4.1 10.9s7.1 4.6 10.8 4.3c3.7.4 7.8-1 10.9-4.1 3.1-3.1 4.5-7.1 4.2-10.8z"/><path class="st3" d="M211.9 248.6c-3.6-1-7.8-.3-11.4 2.2-3.4 2.4-5.3 5.8-5.8 9.3.7-3.4 0-7.3-2.3-10.7-2.5-3.6-6.3-5.7-10-6-1 3.6-.3 7.8 2.2 11.4 2.5 3.6 6.3 5.7 10 6 3.6 1 7.8.3 11.4-2.2 3.5-2.6 5.6-6.3 5.9-10z"/><circle class="st4" cx="213" cy="316.5" r="2.7"/><circle class="st4" cx="225.5" cy="318" r="2.7"/><circle class="st4" cx="205.8" cy="295.9" r="2.7"/><circle class="st4" cx="188.4" cy="275.3" r="2.7"/><circle class="st4" cx="200.5" cy="261.4" r="2.7"/><circle class="st4" cx="195.9" cy="247.2" r="2.7"/><path class="st2" d="M256.9 328l-.1-2.6c.4 0 35.6-1.8 52.5-25.1 9.8-13.5 11.7-31.5 5.7-53.7l2.5-.7c6.3 23 4.2 41.8-6.1 55.9-17.7 24.3-53 26.1-54.5 26.2z"/><path class="st3" d="M317.6 235.8c1.7 4.5 1.3 9.3-.7 12.9-3.9-1.3-7.4-4.6-9.1-9.1-1.7-4.5-1.3-9.3.7-12.9 3.9 1.3 7.3 4.5 9.1 9.1zM295.5 298.4c1.9 3.2 2.4 7.5 1 11.6-1.3 3.9-4.1 6.7-7.3 8.2 3.1-1.6 7.1-2 10.9-.7 4.1 1.4 7.2 4.5 8.5 7.9-3.2 1.9-7.5 2.4-11.6 1s-7.2-4.5-8.5-7.9c-1.9-3.2-2.4-7.4-1-11.6 1.5-4.1 4.5-7.2 8-8.5zM303 286.9c3 2.2 5 6 5.3 10.4.2 4.1-1.3 7.8-3.7 10.3 2.3-2.7 5.8-4.5 9.9-4.7 4.4-.2 8.3 1.5 10.9 4.2-2.2 3-6 5-10.4 5.3-4.4.2-8.3-1.5-10.9-4.2-3-2.2-5-6-5.2-10.4-.3-4.5 1.4-8.4 4.1-10.9zM306.3 273.8c3.6.9 6.9 3.7 8.8 7.6 1.7 3.7 1.7 7.7.4 10.9 1.1-3.3 3.7-6.4 7.4-8.1 4-1.9 8.3-1.8 11.6-.2-.9 3.6-3.7 6.9-7.6 8.8-4 1.9-8.3 1.8-11.6.2-3.6-1-6.9-3.7-8.8-7.6-1.8-3.9-1.8-8.2-.2-11.6zM304.5 260.9c3.7-.4 7.8 1 10.9 4.1 2.9 2.9 4.3 6.6 4.2 10.1-.1-3.5 1.2-7.2 4.1-10.2 3.1-3.1 7.1-4.6 10.8-4.3.4 3.7-1 7.8-4.1 10.9s-7.1 4.6-10.8 4.3c-3.7.4-7.8-1-10.9-4.1-3.1-3.1-4.6-7.1-4.2-10.8z"/><path class="st3" d="M301.8 248.6c3.6-1 7.8-.3 11.4 2.2 3.4 2.4 5.3 5.8 5.8 9.3-.7-3.4 0-7.3 2.3-10.7 2.5-3.6 6.3-5.7 10-6 1 3.6.3 7.8-2.2 11.4-2.5 3.6-6.3 5.7-10 6-3.6 1-7.8.3-11.4-2.2-3.5-2.6-5.6-6.3-5.9-10z"/><g><circle class="st4" cx="300.8" cy="316.5" r="2.7"/><circle class="st4" cx="288.2" cy="318" r="2.7"/><circle class="st4" cx="308" cy="295.9" r="2.7"/><circle class="st4" cx="325.4" cy="275.3" r="2.7"/><circle class="st4" cx="313.2" cy="261.4" r="2.7"/><circle class="st4" cx="317.8" cy="247.2" r="2.7"/></g><path class="st1" d="M272.2 236.2h-31.3c-9.8 0-17.7 7.9-17.7 17.7v27.6c0 9.8 7.9 17.7 17.7 17.7h31.3c9.8 0 17.7-7.9 17.7-17.7v-27.6c0-9.8-7.9-17.7-17.7-17.7z"/><g><path class="st0" d="M261.8 260.3v3.5h-3.5v-3.5h-2.7v3.5h-3.5v-3.5h-2.2v6.9l1.7 2.3v25.7h10.5v-25.7l1.8-2.3v-6.9zM257.4 249.2c1.7-.8 2.2 2.7 2.2 2.7 3.6-1.8 2.7-4.8 1.8-6.2-1.2-1.9-5.8-2.6-7.8 1.3s3.3 11.7 3.3 11.7c.3-2.4-1.8-8.4.5-9.5zM279.7 266.8v3.5h-3.5v-3.5h-2.7v3.5H270v-3.5h-2.1v7l1.7 2.2v25.7h10.5V276l1.7-2.2v-7zM275.4 255.7c1.7-.8 2.2 2.7 2.2 2.7 3.6-1.8 2.7-4.8 1.8-6.2-1.2-1.9-5.8-2.6-7.8 1.3-2 3.9 3.4 11.7 3.4 11.7.2-2.4-1.9-8.4.4-9.5zM243.8 266.8v3.5h-3.5v-3.5h-2.7v3.5h-3.5v-3.5h-2.2v7l1.8 2.2v25.7h10.5V276l1.7-2.2v-7zM239.4 255.7c1.7-.8 2.2 2.7 2.2 2.7 3.6-1.8 2.7-4.8 1.8-6.2-1.2-1.9-5.8-2.6-7.8 1.3-2 3.9 3.4 11.7 3.4 11.7.3-2.4-1.8-8.4.4-9.5z"/></g><path d="M285.6 297.1c-2.3-1.2-4.9-1.9-7.7-1.9-3 0-5.7.8-8.2 2.1-3.2-3.4-7.7-5.6-12.8-5.6s-9.6 2.2-12.8 5.6c-2.5-1.3-5.2-2.1-8.2-2.1-2.8 0-5.4.7-7.7 1.9 5 9.2 14.5 23.9 28.7 29.6 14.1-5.7 23.7-20.5 28.7-29.6z" fill="#94bb79"/><g><path class="st4" d="M256.7 179.9l.2-.1c0 .1-.1.1-.2.1zM256.9 179.9l.2.1-.2-.1zM290.4 194.8c-1-5.7-8.3-6.7-16.7-7.2-8.4-.5-12-5.4-12-5.4h-9.6s-3.6 4.8-12 5.4-15.7 1.5-16.7 7.2 6.2 14.6 6.2 14.6l6.3-5.1s-7.8-7.4-3.9-10.2c3.8-2.7 14.8-.8 19.7-7.3-.2 1.4-.1 3 .7 5.1 1.6 3.9 1 8.9 1 8.9h7s-.6-5 1-8.9c.8-2.1.9-3.7.7-5.1 4.9 6.5 15.9 4.6 19.7 7.3 3.8 2.7-3.9 10.2-3.9 10.2l6.3 5.1c0 .1 7.2-8.9 6.2-14.6zM260.4 162.6h-1.8v-2c0-1-.8-1.7-1.7-1.7s-1.7.8-1.7 1.7v2h-1.9c-1 0-1.7.8-1.7 1.7s.8 1.7 1.7 1.7h1.9v5c0 1 .8 1.7 1.7 1.7s1.7-.8 1.7-1.7v-5h1.8c1 0 1.7-.8 1.7-1.7s-.7-1.7-1.7-1.7z"/></g><circle cx="256.9" cy="172.9" r="3.5" fill="#fff0e1"/><g><path class="st7" d="M231.8 243.2c1.4.7 3.1 1.3 4.7 1.3 5.8 0 8.6-3.3 8.6-9.1s-3.5-10.2-9.3-10.2c0 0-.7 0-1.7.2-.2 0-.4.1-.7.1-5.6 1.1-19.3 6.2-22.1 31.2-3.9 34.9 24.5 66.4 45.4 73.4v-3.5c.2.1-49.3-37.8-24.9-83.4z"/><path class="st7" d="M235.9 228.8l21 7-21 7z"/></g><g><path class="st4" d="M277.8 242.8l-20.9-7 20.9-7zM214.9 257.2c2.5-22.5 14.3-27.2 19.4-28.1.1 0 .2 0 .4-.1.6-.1 1.1-.1 1.2-.1 3.8 0 6.4 2.9 6.4 6.4 0 3.9-2.3 5.3-4.5 5.4 0 0 1.8-3.8-1.9-4.8-2.5-.7-5.7 1.3-5.4 5 .2 2.6 2.6 5 5.4 5 5.8 0 10.5-4.2 10.5-10s-4.7-10.5-10.5-10.5c0 0-.7 0-1.7.2-.2 0-.4.1-.7.1-5.6 1.1-19.3 6.2-22.1 31.2-3.9 34.9 24.5 66.4 45.4 73.4v-3.5s-7.4-3.7-12.5-7.3c-15.6-11.3-32.2-36.9-29.4-62.3z"/></g><g><path class="st7" d="M281.9 243.2c-1.4.7-3.1 1.3-4.7 1.3-5.8 0-8.6-3.3-8.6-9.1s3.5-10.2 9.3-10.2c0 0 .7 0 1.7.2.2 0 .4.1.7.1 5.6 1.1 19.3 6.2 22.1 31.2 3.9 34.9-24.5 66.4-45.4 73.4v-3.5c-.1.1 49.4-37.8 24.9-83.4z"/><path class="st7" d="M277.8 228.8l-20.9 7 20.9 7z"/></g><g><path class="st4" d="M298.8 257.2c-2.5-22.5-14.3-27.2-19.4-28.1-.1 0-.2 0-.4-.1-.6-.1-1.1-.1-1.2-.1-3.8 0-6.4 2.9-6.4 6.4 0 3.9 2.3 5.3 4.5 5.4 0 0-1.8-3.8 1.9-4.8 2.5-.7 5.7 1.3 5.4 5-.2 2.6-2.6 5-5.4 5-5.8 0-10.5-4.2-10.5-10s4.7-10.5 10.5-10.5c0 0 .7 0 1.7.2.2 0 .4.1.7.1 5.6 1.1 19.3 6.2 22.1 31.2 3.9 34.9-24.5 66.4-45.4 73.4v-3.5s7.4-3.7 12.5-7.3c15.7-11.3 32.3-36.9 29.4-62.3z"/><circle class="st4" cx="256.9" cy="235.8" r="3.5"/></g><path class="st7" d="M281.8 207.7c.9-2.4-.3-5.6-.3-5.6-3.2-.1-5.5 2.2-5.5 2.2.3-2.9-1-5.5-1-5.5-4.2.5-5.5 2.9-5.5 2.9-.2-4.5-3-6.4-3-6.4-3.6 1.1-4.7 5-4.7 5-.5-4.5-5-6.6-5-6.6s-4.5 2.1-5 6.6c0 0-1.1-3.9-4.7-5 0 0-2.7 1.9-2.9 6.4 0 0-1.4-2.5-5.5-2.9 0 0-1.3 2.6-1 5.5 0 0-2.2-2.3-5.5-2.2 0 0-1.3 3.2-.3 5.6 0 0-3.7-1.1-6.7.6 0 0 5.5 2.1 7.3 4.8h48.6c1.8-2.6 7.3-4.8 7.3-4.8-2.9-1.7-6.6-.6-6.6-.6z"/><path class="st4" d="M281.2 213.1c0 1.6-3.7 6.4-3.7 6.4s-11.9 1.7-20.6 1.7c-8.7 0-20.7-1.7-20.7-1.7s-3.6-4.8-3.6-6.4c0-4.5 10.9-8.1 24.3-8.1s24.3 3.6 24.3 8.1z"/><g><ellipse class="st7" cx="256.9" cy="218.3" rx="21" ry="7"/><path class="st7" d="M262 179.5c0-2.3-1.7-5.2-5.1-3.2-3.4-2-5.1.9-5.1 3.2s-2.6 2.6-2.9 2.4c0 0 2.2 2.8 4.7 1 0 0 1.3 2 3.4 2 2 0 3.4-2 3.4-2 2.5 1.9 4.7-1 4.7-1-.5.3-3.1-.1-3.1-2.4z"/></g><g><path class="st2" d="M249.9 349c-.2 0-.4 0-.6-.1-.6-.3-.9-1.1-.6-1.8l7-14c.3-.6 1.1-.9 1.8-.6.6.3.9 1.1.6 1.8l-7 14c-.3.4-.7.7-1.2.7z"/><path class="st2" d="M263.9 349c-.5 0-.9-.3-1.2-.7l-7-14c-.3-.6-.1-1.4.6-1.8.6-.3 1.4-.1 1.8.6l7 14c.3.6.1 1.4-.6 1.8-.2 0-.4.1-.6.1z"/></g><g><path class="st0" d="M288.3 336.7c-20.7 4.6-42.2 4.6-62.9 0v-13.5c20.7 4.6 42.2 4.6 62.9 0v13.5z"/><path class="st0" d="M242.7 331.6c-13.4 2.6-27.1 3.3-40.7 2 .2 1.8 11 7.2 11 7.2s-9.5 4.6-9.3 6.3c13.1 1.2 26.2.6 39-1.7v-13.8zM271.1 331.6c13.4 2.6 27.1 3.3 40.7 2-.2 1.8-11 7.2-11 7.2s9.5 4.6 9.3 6.3c-13.1 1.2-26.2.6-39-1.7v-13.8z"/></g></g></svg>