<svg version="1.1" id="Layer_1" xmlns="http://www.w3.org/2000/svg" x="0" y="0" viewBox="0 0 512 512" xml:space="preserve"><style>.st0{fill:#00853f}</style><path class="st0" d="M0 87.7h170.7v336H0z"/><path fill="#fdef42" d="M170.7 87.7h170.7v336H170.7z"/><path fill="#e31b23" d="M341.3 87.7H512v336H341.3z"/><path class="st0" d="M258 205.8l11.7 35.1 37 .3c2.1 0 2.9 2.7 1.3 3.9l-29.7 22 11.1 35.2c.6 2-1.6 3.6-3.3 2.4L256 283.1l-30.1 21.5c-1.7 1.2-3.9-.4-3.3-2.4l11.1-35.2-29.7-22c-1.7-1.2-.8-3.9 1.3-3.9l37-.3 11.7-35.1c.6-1.9 3.4-1.9 4 .1z"/></svg>