<?xml version="1.0" encoding="utf-8"?>
<!-- Generator: Adobe Illustrator 25.0.0, SVG Export Plug-In . SVG Version: 6.00 Build 0)  -->
<svg version="1.1" id="Layer_1" xmlns="http://www.w3.org/2000/svg" xmlns:xlink="http://www.w3.org/1999/xlink" x="0px" y="0px"
	 viewBox="0 0 512 512" style="enable-background:new 0 0 512 512;" xml:space="preserve">
<style type="text/css">
	.st0{fill:#B40A2D;}
	.st1{fill:#FFFFFF;}
	.st2{fill:#377E3F;}
	.st3{fill:#ECC81D;}
</style>
<rect y="185" class="st0" width="512" height="142"/>
<rect y="327" class="st1" width="512" height="34.9"/>
<rect y="150.1" class="st1" width="512" height="34.9"/>
<rect y="88" class="st2" width="512" height="62.1"/>
<rect y="361.9" class="st2" width="512" height="62.1"/>
<path class="st3" d="M253.8,201.6l-12.9,38.5l-40.6,0.3c-2.2,0-3.1,2.9-1.4,4.2l32.7,24.1l-12.3,38.7c-0.7,2.1,1.7,3.9,3.6,2.6
	l33.1-23.6l33.1,23.6c1.8,1.3,4.2-0.5,3.6-2.6l-12.3-38.7l32.7-24.1c1.8-1.3,0.9-4.2-1.4-4.2l-40.6-0.3l-12.9-38.5
	C257.5,199.5,254.5,199.5,253.8,201.6z"/>
</svg>
