<svg version="1.1" id="Layer_1" xmlns="http://www.w3.org/2000/svg" x="0" y="0" viewBox="0 0 512 512" xml:space="preserve"><style>.st1{fill:#fff}.st2{fill:#377e3f}</style><path fill="#b40a2d" d="M0 185h512v142H0z"/><path class="st1" d="M0 327h512v34.9H0zM0 150.1h512V185H0z"/><path class="st2" d="M0 88h512v62.1H0zM0 361.9h512V424H0z"/><path d="M253.8 201.6l-12.9 38.5-40.6.3c-2.2 0-3.1 2.9-1.4 4.2l32.7 24.1-12.3 38.7c-.7 2.1 1.7 3.9 3.6 2.6l33.1-23.6 33.1 23.6c1.8 1.3 4.2-.5 3.6-2.6l-12.3-38.7 32.7-24.1c1.8-1.3.9-4.2-1.4-4.2l-40.6-.3-12.9-38.5c-.7-2.1-3.7-2.1-4.4 0z" fill="#ecc81d"/></svg>