<svg version="1.1" id="Layer_1" xmlns="http://www.w3.org/2000/svg" x="0" y="0" viewBox="0 0 512 512" xml:space="preserve"><style>.st3{fill:#fff}</style><path fill="#0f47af" d="M0 88v336l235.1-168z"/><path fill="#078930" d="M147.6 317.5L0 423v.7h512V317.5z"/><path fill="#da121a" d="M168.8 209.2l65.2 46.6-65.4 46.7H512v-93.3z"/><path class="st3" d="M149 317.5h363v-15H170zM148.6 194.2l21 15H512v-15z"/><path d="M73.6 214.8l19.8 20.3L119 223c3.3-1.6 6.7 2 5 5.2l-13.2 25.1 19.5 20.6c2.5 2.7.2 7-3.4 6.4l-28-4.8-13.6 24.9c-1.8 3.2-6.6 2.4-7.1-1.3L74.1 271l-27.9-5.2c-3.6-.7-4.3-5.6-1-7.2L70.6 246 67 218c-.4-3.6 4-5.8 6.6-3.2z" fill="#ffe15a"/><path d="M0 88v.6l147.8 105.6H512V88z"/></svg>