<svg version="1.1" id="Layer_1" xmlns="http://www.w3.org/2000/svg" x="0" y="0" viewBox="0 0 512 512" xml:space="preserve"><style>.st2{fill:#12ad2b}</style><path fill="#ffce00" d="M83.5 167.7l93.1 88.6-93.1 88.5H512V167.7z"/><path d="M278.3 215.8l9 27.1 28.6.2c3.7 0 5.2 4.8 2.3 7l-23 17 8.6 27.3c1.1 3.5-2.9 6.5-5.9 4.3L274.6 282l-23.3 16.6c-3 2.2-7-.8-5.9-4.3L254 267l-23-17c-3-2.2-1.4-6.9 2.3-7l28.6-.2 9-27.1c1.3-3.4 6.2-3.4 7.4.1zM410.3 215.8l9 27.1 28.6.2c3.7 0 5.2 4.8 2.3 7l-23 17 8.6 27.3c1.1 3.5-2.9 6.5-5.9 4.3L406.6 282l-23.3 16.6c-3 2.2-7-.8-5.9-4.3L386 267l-23-17c-3-2.2-1.4-6.9 2.3-7l28.6-.2 9-27.1c1.3-3.4 6.2-3.4 7.4.1z"/><path fill="#d21034" d="M0 88.3v336l176.6-168z"/><path class="st2" d="M83.5 344.8L0 424.3h512v-79.5zM0 88.3l83.5 79.4H512V88.3z"/></svg>