<?xml version="1.0" encoding="utf-8"?>
<!-- Generator: Adobe Illustrator 25.0.0, SVG Export Plug-In . SVG Version: 6.00 Build 0)  -->
<svg version="1.1" id="Layer_1" xmlns="http://www.w3.org/2000/svg" xmlns:xlink="http://www.w3.org/1999/xlink" x="0px" y="0px"
	 viewBox="0 0 512 512" style="enable-background:new 0 0 512 512;" xml:space="preserve">
<style type="text/css">
	.st0{fill:#0F47AF;}
	.st1{fill:#FFFFFF;}
	.st2{fill:#06A51C;}
	.st3{fill:#FFD332;}
	.st4{fill:#FFE6E6;}
	.st5{fill:#00A0EB;}
	.st6{fill:#21AB1E;}
	.st7{fill:#3CB121;}
	.st8{fill:#56B723;}
	.st9{fill:#71BD25;}
	.st10{fill:#ED220D;}
	.st11{fill:#5AA0E6;}
	.st12{fill:#9BC800;}
	.st13{fill:#FFE14E;}
	.st14{fill:#FFB14E;}
	.st15{fill:#FF4B55;}
</style>
<rect y="88" class="st0" width="512" height="112"/>
<rect y="200" class="st1" width="512" height="112"/>
<rect y="312" class="st0" width="512" height="112"/>
<g id="crest">
	<g>
		<path class="st2" d="M255.8,293.6c-21.3,0-38.6-17.3-38.6-38.6c0-9.1,3.2-17.9,9.1-24.9l1.7,1.4c-5.5,6.5-8.6,14.9-8.6,23.5
			c0,20.1,16.3,36.4,36.4,36.4L255.8,293.6L255.8,293.6z"/>
		<path class="st2" d="M241.7,282.2c-0.5,0.8-0.7,2-0.8,3.1c-0.4-0.3-0.9-0.6-1.4-0.9c0,0-0.8,2.7-0.2,4.6c0,0-2,0.2-3.9,2.1
			c0,0,0.6,0.5,1.7,0.9c-1.8,1.4-2.4,2.8-2.4,2.8c10.8,5.4,16-2.1,16.2-2.5C248.3,284.8,241.7,282.2,241.7,282.2z"/>
		<path class="st2" d="M251,292.4C251,292.4,251,292.4,251,292.4L251,292.4C251,292.4,251,292.4,251,292.4z"/>
		<path class="st2" d="M231.7,274.9c-0.7,0.5-1.3,1.4-1.8,2.3c-0.3-0.4-0.5-0.8-0.9-1.2c0,0-1.6,2-1.8,3.8c0,0-1.8-0.5-4,0.4
			c0,0,0.4,0.6,1.1,1.4c-2.1,0.5-3.1,1.5-3.1,1.5c7.1,8.5,14.3,4.1,14.6,3.9C236.3,279.6,231.7,274.9,231.7,274.9z"/>
		<path class="st2" d="M235.8,287C235.8,287,235.8,287,235.8,287L235.8,287C235.8,287,235.8,287,235.8,287z"/>
		<path class="st2" d="M225.5,265.5c-0.8,0.2-1.6,0.6-2.4,1.2c-0.1-0.4-0.1-0.9-0.3-1.3c0,0-2.1,1-2.9,2.5c0,0-1.3-1.1-3.4-1.2
			c0,0,0.1,0.6,0.4,1.6c-1.9-0.3-3.1,0.1-3.1,0.1c2.7,9.7,10.2,8.6,10.6,8.6C227.5,271.1,225.5,265.5,225.5,265.5z"/>
		<path class="st2" d="M224.4,276.9C224.4,276.9,224.4,277,224.4,276.9L224.4,276.9C224.4,276.9,224.4,276.9,224.4,276.9z"/>
		<path class="st2" d="M223,254.8c-0.7,0-1.6,0.4-2.4,0.8c0.1-0.4,0.1-0.8,0.1-1.2c0,0-2.1,0.6-3.2,1.8c0,0-0.9-1.1-2.8-1.5
			c0,0-0.1,0.6,0,1.4c-1.6-0.5-2.8-0.3-2.8-0.3c0.2,8.7,7.2,8.7,7.5,8.7C223.6,259.8,223,254.8,223,254.8z"/>
		<path class="st2" d="M219.4,264.5C219.4,264.5,219.4,264.5,219.4,264.5L219.4,264.5C219.4,264.5,219.4,264.5,219.4,264.5z"/>
		<path class="st2" d="M223.8,245.8c-0.6-0.1-1.4-0.1-2.2,0c0.1-0.3,0.3-0.6,0.4-1c0,0-1.9,0-3.1,0.7c0,0-0.5-1.2-2-1.9
			c0,0-0.2,0.5-0.4,1.2c-1.2-0.9-2.3-1-2.3-1c-2.1,7.4,3.8,9.2,4.1,9.3C223,250.3,223.8,245.8,223.8,245.8z"/>
		<path class="st2" d="M218.3,253.1C218.3,253.1,218.2,253.1,218.3,253.1L218.3,253.1C218.3,253.1,218.3,253.1,218.3,253.1z"/>
		<path class="st2" d="M219.2,235c0,0-2,5.2,1.1,8.3c0,0,4-1.2,6-5.4l-1.7-0.3l-0.9-2.6l-2.9,1.3L219.2,235z"/>
		<path class="st2" d="M224.8,226.6c0,0-3.1,4.7-0.8,8.3c0,0,4.2-0.2,7.1-3.9l-1.6-0.7l-0.3-2.8l-3.1,0.6L224.8,226.6z"/>
		<path class="st2" d="M256.2,293.6v-2.2c20.1,0,36.4-16.3,36.4-36.4c0-8.6-3-16.9-8.6-23.5l1.7-1.4c5.9,6.9,9.1,15.8,9.1,24.9
			C294.8,276.2,277.5,293.6,256.2,293.6z"/>
		<path class="st2" d="M270.3,282.2c0.5,0.8,0.7,2,0.8,3.1c0.4-0.3,0.9-0.6,1.4-0.9c0,0,0.8,2.7,0.2,4.6c0,0,2,0.2,3.9,2.1
			c0,0-0.6,0.5-1.7,0.9c1.8,1.4,2.4,2.8,2.4,2.8c-10.8,5.4-16-2.1-16.2-2.5C263.7,284.8,270.3,282.2,270.3,282.2z"/>
		<path class="st2" d="M261,292.4C261,292.4,261,292.4,261,292.4L261,292.4C261,292.4,261,292.4,261,292.4z"/>
		<path class="st2" d="M280.3,274.9c0.7,0.5,1.3,1.4,1.8,2.3c0.3-0.4,0.5-0.8,0.9-1.2c0,0,1.6,2,1.8,3.8c0,0,1.8-0.5,4,0.4
			c0,0-0.4,0.6-1.1,1.4c2.1,0.5,3.1,1.5,3.1,1.5c-7.1,8.5-14.3,4.1-14.6,3.9C275.7,279.6,280.3,274.9,280.3,274.9z"/>
		<path class="st2" d="M276.2,287C276.2,287,276.2,287,276.2,287L276.2,287C276.2,287,276.2,287,276.2,287z"/>
		<path class="st2" d="M286.5,265.5c0.8,0.2,1.6,0.6,2.4,1.2c0.1-0.4,0.1-0.9,0.3-1.3c0,0,2.1,1,2.9,2.5c0,0,1.3-1.1,3.4-1.2
			c0,0-0.1,0.6-0.4,1.6c1.9-0.3,3.1,0.1,3.1,0.1c-2.7,9.7-10.2,8.6-10.6,8.6C284.5,271.1,286.5,265.5,286.5,265.5z"/>
		<path class="st2" d="M287.6,276.9C287.6,276.9,287.6,277,287.6,276.9L287.6,276.9C287.6,276.9,287.6,276.9,287.6,276.9z"/>
		<path class="st2" d="M289,254.8c0.7,0,1.6,0.4,2.4,0.8c-0.1-0.4-0.1-0.8-0.1-1.2c0,0,2.1,0.6,3.2,1.8c0,0,0.9-1.1,2.8-1.5
			c0,0,0.1,0.6,0,1.4c1.6-0.5,2.8-0.3,2.8-0.3c-0.2,8.7-7.2,8.7-7.5,8.7C288.4,259.8,289,254.8,289,254.8z"/>
		<path class="st2" d="M292.6,264.5C292.6,264.5,292.6,264.5,292.6,264.5L292.6,264.5C292.6,264.5,292.6,264.5,292.6,264.5z"/>
		<path class="st2" d="M288.2,245.8c0.6-0.1,1.4-0.1,2.2,0c-0.1-0.3-0.3-0.6-0.4-1c0,0,1.9,0,3.1,0.7c0,0,0.5-1.2,2-1.9
			c0,0,0.2,0.5,0.4,1.2c1.2-0.9,2.3-1,2.3-1c2.1,7.4-3.8,9.2-4.1,9.3C289,250.3,288.2,245.8,288.2,245.8z"/>
		<path class="st2" d="M293.7,253.1C293.7,253.1,293.8,253.1,293.7,253.1L293.7,253.1C293.7,253.1,293.7,253.1,293.7,253.1z"/>
		<path class="st2" d="M292.8,235c0,0,2,5.2-1.1,8.3c0,0-4-1.2-6-5.4l1.7-0.3l0.9-2.6l2.9,1.3L292.8,235z"/>
		<path class="st2" d="M287.2,226.6c0,0,3.1,4.7,0.8,8.3c0,0-4.2-0.2-7.1-3.9l1.6-0.7l0.3-2.8l3.1,0.6L287.2,226.6z"/>
	</g>
	<path class="st0" d="M256,270.3l-3.4,5.1c-0.6,0.9-0.5,2,0.3,2.8l3.1,3.1l3.1-3.1c0.7-0.7,0.9-1.9,0.3-2.8L256,270.3z"/>
	<path class="st1" d="M257.5,275.5l-1.5-5.1l-1.5,5.1c-0.2,0.9-0.2,2,0.1,2.8l1.3,3.1l1.3-3.1C257.7,277.5,257.7,276.3,257.5,275.5z
		"/>
	<g>
		<path class="st0" d="M256,224.6v-13.8c0,0-5.2,7.5-4.4,18.6"/>
		<path class="st0" d="M232.5,224.6c-7.6,16.5,0.2,30,1.8,32.5c0,0.1,10.8-17.4,10.8-17.4L232.5,224.6"/>
	</g>
	<path class="st1" d="M240.5,247.3c-1.2-3.7-1.4-8.1,0.1-13.1l-4.7-5.6c-3.9,10.4-2.3,18.1,1.6,23.6
		C238.4,250.7,239.4,249,240.5,247.3z"/>
	<path class="st3" d="M245,240.7c-0.3,0-0.7-0.1-0.9-0.4l-13.8-17.8c-0.4-0.5-0.3-1.2,0.2-1.5c0.5-0.4,1.2-0.3,1.5,0.2l13.8,17.8
		c0.4,0.5,0.3,1.2-0.2,1.5C245.4,240.6,245.2,240.7,245,240.7z"/>
	<path class="st0" d="M222.9,241.7c-4.4,44.1,30.9,33.1,33.1,28.7l-22.1-11l4.4-8.8L222.9,241.7"/>
	<path class="st1" d="M233.6,246.8l-6.2-3.7c-1.4,26.2,12.6,30.6,23,29.3C242,271.3,233.6,265.1,233.6,246.8z"/>
	<path class="st3" d="M238.3,251.6c-0.2,0-0.4-0.1-0.6-0.2l-17.7-11c-0.5-0.3-0.7-1-0.4-1.5c0.3-0.5,1-0.7,1.5-0.4l17.7,11
		c0.5,0.3,0.7,1,0.4,1.5C239.1,251.4,238.7,251.6,238.3,251.6z"/>
	<path class="st0" d="M279.5,224.6c7.6,16.5-0.2,30-1.8,32.5c0,0.1-10.8-17.4-10.8-17.4L279.5,224.6"/>
	<path class="st1" d="M271.5,247.3c1.2-3.7,1.4-8.1-0.1-13.1l4.7-5.6c3.9,10.4,2.3,18.1-1.6,23.6
		C273.6,250.6,272.5,248.9,271.5,247.3z"/>
	<path class="st3" d="M267,240.6c-0.2,0-0.5-0.1-0.7-0.2c-0.5-0.4-0.6-1.1-0.2-1.5l13.8-17.8c0.4-0.5,1.1-0.6,1.5-0.2
		s0.6,1.1,0.2,1.5l-13.8,17.8C267.7,240.5,267.4,240.6,267,240.6z"/>
	<path class="st0" d="M289.1,241.7c4.4,44.1-30.9,33.1-33.1,28.7l22.1-11l-4.4-8.8L289.1,241.7"/>
	<path class="st1" d="M278.4,246.7l6.2-3.7c1.4,26.2-12.6,30.6-23,29.3C270,271.2,278.4,265,278.4,246.7z"/>
	<path class="st3" d="M273.7,251.6c-0.4,0-0.7-0.2-0.9-0.5c-0.3-0.5-0.2-1.2,0.4-1.5l17.7-11c0.5-0.3,1.2-0.2,1.5,0.4
		c0.3,0.5,0.2,1.2-0.4,1.5l-17.7,11C274.1,251.5,273.9,251.6,273.7,251.6z"/>
	<circle class="st4" cx="256" cy="243.9" r="8.8"/>
	<circle class="st1" cx="256" cy="243.9" r="4.4"/>
	<path class="st3" d="M256,258.2c-0.6,0-1.1-0.5-1.1-1.1v-13.2c0-0.6,0.5-1.1,1.1-1.1c0.6,0,1.1,0.5,1.1,1.1v13.2
		C257.1,257.7,256.6,258.2,256,258.2z"/>
	<polygon class="st5" points="286.2,270.2 227,270.2 233.9,257 278.3,257 	"/>
	<path class="st2" d="M257.8,259.5h15.4l-4.8-4.8c-0.2-0.2-0.5-0.4-0.8-0.5l-1.7-0.6c-0.6-0.2-1.3-0.1-1.8,0.2l-5.3,3.5L257.8,259.5
		z"/>
	<path class="st6" d="M252.6,260.3h18.4l-5.7-5.7c-0.3-0.3-0.6-0.5-1-0.6l-2-0.7c-0.7-0.2-1.5-0.1-2.1,0.3l-6.3,4.2L252.6,260.3z"/>
	<path class="st7" d="M246.2,261.2h22.2l-6.9-6.9c-0.3-0.3-0.7-0.6-1.2-0.7l-2.4-0.8c-0.9-0.3-1.8-0.2-2.6,0.3l-7.7,5.1L246.2,261.2
		z"/>
	<path class="st8" d="M239.9,262.1h25.4l-7.9-7.9c-0.4-0.4-0.8-0.7-1.3-0.8l-2.7-0.9c-1-0.3-2.1-0.2-2.9,0.4l-8.8,5.8L239.9,262.1z"
		/>
	<path class="st9" d="M229.5,263.7h33.1l-10.3-10.3c-0.5-0.5-1.1-0.9-1.7-1.1l-3.6-1.2c-1.3-0.4-2.7-0.2-3.8,0.5l-11.4,7.6
		L229.5,263.7z"/>
	<g>
		<path class="st10" d="M258.4,245.8h-4.8l1.1-4.6h1.7c0.5,0,1,0.4,1.1,0.9L258.4,245.8z"/>
		<path class="st10" d="M258.1,246.6h-4.3c-0.4,0-0.6-0.3-0.6-0.6v-0.2c0-0.4,0.3-0.6,0.6-0.6h4.3c0.4,0,0.6,0.3,0.6,0.6v0.2
			C258.7,246.3,258.5,246.6,258.1,246.6z"/>
		<path class="st10" d="M255.3,243.3l-1.1-0.3c-0.3-0.1-0.5-0.5-0.3-0.7l0.8-1.1L255.3,243.3z"/>
	</g>
	<path class="st0" d="M250.5,232.5c-0.1,0.4-0.1,0.8-0.2,1.2c1.7-1,3.6-1.7,5.7-1.7c2.1,0,3.9,0.6,5.7,1.7c-0.1-0.4-0.1-0.8-0.2-1.2
		c-1.7-0.9-3.5-1.4-5.5-1.4C254,231.1,252.2,231.6,250.5,232.5z"/>
	<path class="st11" d="M250.6,232c-0.1,0.4-0.1,0.8-0.2,1.2c1.7-1,3.6-1.7,5.6-1.7c2,0,3.9,0.6,5.6,1.7c-0.1-0.4-0.1-0.8-0.2-1.2
		c-1.7-0.9-3.5-1.4-5.4-1.4C254.1,230.6,252.2,231.1,250.6,232z"/>
	<path class="st12" d="M250.6,231.5c-0.1,0.4-0.1,0.8-0.2,1.2c1.7-1,3.5-1.7,5.5-1.7c2,0,3.9,0.6,5.5,1.7c-0.1-0.4-0.1-0.8-0.2-1.2
		c-1.7-0.9-3.5-1.4-5.4-1.4C254.1,230.1,252.3,230.6,250.6,231.5z"/>
	<path class="st13" d="M250.7,231c-0.1,0.4-0.1,0.8-0.2,1.2c1.7-1,3.5-1.7,5.5-1.7c2,0,3.8,0.6,5.5,1.7c-0.1-0.4-0.1-0.8-0.2-1.2
		c-1.6-0.9-3.4-1.4-5.3-1.4C254.1,229.5,252.3,230.1,250.7,231z"/>
	<path class="st14" d="M250.8,230.4c-0.1,0.4-0.1,0.8-0.2,1.2c1.6-1.1,3.4-1.7,5.4-1.7c2,0,3.7,0.6,5.4,1.7
		c-0.1-0.4-0.1-0.8-0.2-1.2c-1.6-0.9-3.4-1.4-5.2-1.4C254.1,229,252.4,229.5,250.8,230.4z"/>
	<path class="st15" d="M250.8,230.2c0,0.3-0.1,0.6-0.1,0.9c1.6-1.1,3.4-1.7,5.3-1.7c1.9,0,3.7,0.6,5.3,1.7c0-0.3-0.1-0.6-0.1-0.9
		c-1.6-0.9-3.4-1.4-5.2-1.4C254.2,228.7,252.4,229.3,250.8,230.2z"/>
	<g>
		<path class="st3" d="M286.9,271.4h-61.8c-0.4,0-0.8-0.2-1-0.6c-0.2-0.4-0.2-0.8,0.1-1.1l30.9-46.3c0.4-0.6,1.4-0.6,1.8,0
			l30.9,46.3c0.2,0.3,0.2,0.8,0.1,1.1C287.7,271.2,287.3,271.4,286.9,271.4z M227.2,269.2h57.7L256,226L227.2,269.2z"/>
		<path class="st3" d="M256,214.1c-0.6,0-1.1-0.5-1.1-1.1v-4.4c0-0.6,0.5-1.1,1.1-1.1c0.6,0,1.1,0.5,1.1,1.1v4.4
			C257.1,213.6,256.6,214.1,256,214.1z"/>
		<path class="st3" d="M258.2,214.1h-4.4c-0.6,0-1.1-0.5-1.1-1.1s0.5-1.1,1.1-1.1h4.4c0.6,0,1.1,0.5,1.1,1.1
			S258.8,214.1,258.2,214.1z"/>
	</g>
	<g>
		<path class="st0" d="M256,293.5c-0.1,0-0.2,0-0.2,0c-1.1-0.2-4.7-1.1-5.7-2.2c-1.4-1.3-1.4-3.5,0-4.9c0.6-0.7,1.5-1,2.4-1h0
			c0.9,0,1.8,0.4,2.4,1c1.1,1.1,2,4.7,2.2,5.7c0.1,0.4,0,0.8-0.3,1C256.6,293.4,256.3,293.5,256,293.5z M252.4,287.6
			c-0.3,0.1-0.6,0.1-0.9,0.4c-0.5,0.5-0.5,1.3,0,1.8c0.3,0.3,1.5,0.7,2.9,1.1c-0.4-1.4-0.9-2.6-1.1-2.9l0.8-0.8l-0.8,0.8
			C253.1,287.8,252.8,287.6,252.4,287.6z"/>
		<path class="st0" d="M256,293.5c-0.3,0-0.6-0.1-0.8-0.3c-0.3-0.3-0.4-0.7-0.3-1c0.2-1.1,1.1-4.7,2.2-5.7l0,0
			c0.7-0.6,1.4-0.9,2.4-1c0.9,0,1.8,0.4,2.4,1c1.3,1.4,1.3,3.5,0,4.9c-1.1,1.1-4.7,1.9-5.7,2.2C256.2,293.5,256.1,293.5,256,293.5z
			 M257.9,287.2l0.8,0.8c-0.3,0.3-0.7,1.5-1.1,2.9c1.4-0.4,2.6-0.9,2.9-1.1c0.5-0.5,0.5-1.3,0-1.8c-0.2-0.2-0.5-0.4-0.9-0.4h0
			c-0.3,0-0.6,0.1-0.9,0.4L257.9,287.2z M257.9,287.2L257.9,287.2L257.9,287.2z"/>
		<path class="st0" d="M251.6,300.1c-0.6,0-1.1-0.5-1.1-1.1c0-5,4.8-7.5,5-7.6c0.5-0.3,1.2,0,1.5,0.5c0.3,0.5,0.1,1.2-0.5,1.5
			c0,0-3.8,2-3.8,5.6C252.7,299.6,252.2,300.1,251.6,300.1z"/>
		<path class="st0" d="M260.4,300.1c-0.6,0-1.1-0.5-1.1-1.1c0-3.7-3.8-5.6-3.8-5.6c-0.5-0.3-0.8-0.9-0.5-1.5
			c0.3-0.5,0.9-0.8,1.5-0.5c0.2,0.1,5,2.6,5,7.6C261.5,299.6,261,300.1,260.4,300.1z"/>
	</g>
</g>
</svg>
