<svg version="1.1" id="Layer_1" xmlns="http://www.w3.org/2000/svg" x="0" y="0" viewBox="0 0 512 512" xml:space="preserve"><style>.st0{fill:#0f47af}.st1{fill:#fff}.st2{fill:#06a51c}.st3{fill:#ffd332}.st10{fill:#ed220d}</style><path class="st0" d="M0 88h512v112H0z"/><path class="st1" d="M0 200h512v112H0z"/><path class="st0" d="M0 312h512v112H0z"/><g id="crest"><path class="st2" d="M255.8 293.6c-21.3 0-38.6-17.3-38.6-38.6 0-9.1 3.2-17.9 9.1-24.9l1.7 1.4c-5.5 6.5-8.6 14.9-8.6 23.5 0 20.1 16.3 36.4 36.4 36.4v2.2z"/><path class="st2" d="M241.7 282.2c-.5.8-.7 2-.8 3.1-.4-.3-.9-.6-1.4-.9 0 0-.8 2.7-.2 4.6 0 0-2 .2-3.9 2.1 0 0 .6.5 1.7.9-1.8 1.4-2.4 2.8-2.4 2.8 10.8 5.4 16-2.1 16.2-2.5-2.6-7.5-9.2-10.1-9.2-10.1zM251 292.4zM231.7 274.9c-.7.5-1.3 1.4-1.8 2.3-.3-.4-.5-.8-.9-1.2 0 0-1.6 2-1.8 3.8 0 0-1.8-.5-4 .4 0 0 .4.6 1.1 1.4-2.1.5-3.1 1.5-3.1 1.5 7.1 8.5 14.3 4.1 14.6 3.9.5-7.4-4.1-12.1-4.1-12.1zM235.8 287zM225.5 265.5c-.8.2-1.6.6-2.4 1.2-.1-.4-.1-.9-.3-1.3 0 0-2.1 1-2.9 2.5 0 0-1.3-1.1-3.4-1.2 0 0 .1.6.4 1.6-1.9-.3-3.1.1-3.1.1 2.7 9.7 10.2 8.6 10.6 8.6 3.1-5.9 1.1-11.5 1.1-11.5zM224.4 276.9s0 .1 0 0zM223 254.8c-.7 0-1.6.4-2.4.8.1-.4.1-.8.1-1.2 0 0-2.1.6-3.2 1.8 0 0-.9-1.1-2.8-1.5 0 0-.1.6 0 1.4-1.6-.5-2.8-.3-2.8-.3.2 8.7 7.2 8.7 7.5 8.7 4.2-4.7 3.6-9.7 3.6-9.7zM219.4 264.5zM223.8 245.8c-.6-.1-1.4-.1-2.2 0 .1-.3.3-.6.4-1 0 0-1.9 0-3.1.7 0 0-.5-1.2-2-1.9 0 0-.2.5-.4 1.2-1.2-.9-2.3-1-2.3-1-2.1 7.4 3.8 9.2 4.1 9.3 4.7-2.8 5.5-7.3 5.5-7.3zM218.3 253.1s-.1 0 0 0zM219.2 235s-2 5.2 1.1 8.3c0 0 4-1.2 6-5.4l-1.7-.3-.9-2.6-2.9 1.3-1.6-1.3zM224.8 226.6s-3.1 4.7-.8 8.3c0 0 4.2-.2 7.1-3.9l-1.6-.7-.3-2.8-3.1.6-1.3-1.5zM256.2 293.6v-2.2c20.1 0 36.4-16.3 36.4-36.4 0-8.6-3-16.9-8.6-23.5l1.7-1.4c5.9 6.9 9.1 15.8 9.1 24.9 0 21.2-17.3 38.6-38.6 38.6z"/><path class="st2" d="M270.3 282.2c.5.8.7 2 .8 3.1.4-.3.9-.6 1.4-.9 0 0 .8 2.7.2 4.6 0 0 2 .2 3.9 2.1 0 0-.6.5-1.7.9 1.8 1.4 2.4 2.8 2.4 2.8-10.8 5.4-16-2.1-16.2-2.5 2.6-7.5 9.2-10.1 9.2-10.1zM261 292.4zM280.3 274.9c.7.5 1.3 1.4 1.8 2.3.3-.4.5-.8.9-1.2 0 0 1.6 2 1.8 3.8 0 0 1.8-.5 4 .4 0 0-.4.6-1.1 1.4 2.1.5 3.1 1.5 3.1 1.5-7.1 8.5-14.3 4.1-14.6 3.9-.5-7.4 4.1-12.1 4.1-12.1zM276.2 287zM286.5 265.5c.8.2 1.6.6 2.4 1.2.1-.4.1-.9.3-1.3 0 0 2.1 1 2.9 2.5 0 0 1.3-1.1 3.4-1.2 0 0-.1.6-.4 1.6 1.9-.3 3.1.1 3.1.1-2.7 9.7-10.2 8.6-10.6 8.6-3.1-5.9-1.1-11.5-1.1-11.5zM287.6 276.9s0 .1 0 0zM289 254.8c.7 0 1.6.4 2.4.8-.1-.4-.1-.8-.1-1.2 0 0 2.1.6 3.2 1.8 0 0 .9-1.1 2.8-1.5 0 0 .1.6 0 1.4 1.6-.5 2.8-.3 2.8-.3-.2 8.7-7.2 8.7-7.5 8.7-4.2-4.7-3.6-9.7-3.6-9.7zM292.6 264.5zM288.2 245.8c.6-.1 1.4-.1 2.2 0-.1-.3-.3-.6-.4-1 0 0 1.9 0 3.1.7 0 0 .5-1.2 2-1.9 0 0 .2.5.4 1.2 1.2-.9 2.3-1 2.3-1 2.1 7.4-3.8 9.2-4.1 9.3-4.7-2.8-5.5-7.3-5.5-7.3zM293.7 253.1s.1 0 0 0zM292.8 235s2 5.2-1.1 8.3c0 0-4-1.2-6-5.4l1.7-.3.9-2.6 2.9 1.3 1.6-1.3zM287.2 226.6s3.1 4.7.8 8.3c0 0-4.2-.2-7.1-3.9l1.6-.7.3-2.8 3.1.6 1.3-1.5z"/><path class="st0" d="M256 270.3l-3.4 5.1c-.6.9-.5 2 .3 2.8l3.1 3.1 3.1-3.1c.7-.7.9-1.9.3-2.8l-3.4-5.1z"/><path class="st1" d="M257.5 275.5l-1.5-5.1-1.5 5.1c-.2.9-.2 2 .1 2.8l1.3 3.1 1.3-3.1c.5-.8.5-2 .3-2.8z"/><path class="st0" d="M256 224.6v-13.8s-5.2 7.5-4.4 18.6M232.5 224.6c-7.6 16.5.2 30 1.8 32.5 0 .1 10.8-17.4 10.8-17.4l-12.6-15.1"/><path class="st1" d="M240.5 247.3c-1.2-3.7-1.4-8.1.1-13.1l-4.7-5.6c-3.9 10.4-2.3 18.1 1.6 23.6.9-1.5 1.9-3.2 3-4.9z"/><path class="st3" d="M245 240.7c-.3 0-.7-.1-.9-.4l-13.8-17.8c-.4-.5-.3-1.2.2-1.5.5-.4 1.2-.3 1.5.2l13.8 17.8c.4.5.3 1.2-.2 1.5-.2.1-.4.2-.6.2z"/><path class="st0" d="M222.9 241.7c-4.4 44.1 30.9 33.1 33.1 28.7l-22.1-11 4.4-8.8-15.4-8.9"/><path class="st1" d="M233.6 246.8l-6.2-3.7c-1.4 26.2 12.6 30.6 23 29.3-8.4-1.1-16.8-7.3-16.8-25.6z"/><path class="st3" d="M238.3 251.6c-.2 0-.4-.1-.6-.2l-17.7-11c-.5-.3-.7-1-.4-1.5.3-.5 1-.7 1.5-.4l17.7 11c.5.3.7 1 .4 1.5-.1.4-.5.6-.9.6z"/><path class="st0" d="M279.5 224.6c7.6 16.5-.2 30-1.8 32.5 0 .1-10.8-17.4-10.8-17.4l12.6-15.1"/><path class="st1" d="M271.5 247.3c1.2-3.7 1.4-8.1-.1-13.1l4.7-5.6c3.9 10.4 2.3 18.1-1.6 23.6-.9-1.6-2-3.3-3-4.9z"/><path class="st3" d="M267 240.6c-.2 0-.5-.1-.7-.2-.5-.4-.6-1.1-.2-1.5l13.8-17.8c.4-.5 1.1-.6 1.5-.2s.6 1.1.2 1.5l-13.8 17.8c-.1.3-.4.4-.8.4z"/><path class="st0" d="M289.1 241.7c4.4 44.1-30.9 33.1-33.1 28.7l22.1-11-4.4-8.8 15.4-8.9"/><path class="st1" d="M278.4 246.7l6.2-3.7c1.4 26.2-12.6 30.6-23 29.3 8.4-1.1 16.8-7.3 16.8-25.6z"/><path class="st3" d="M273.7 251.6c-.4 0-.7-.2-.9-.5-.3-.5-.2-1.2.4-1.5l17.7-11c.5-.3 1.2-.2 1.5.4.3.5.2 1.2-.4 1.5l-17.7 11c-.2 0-.4.1-.6.1z"/><circle cx="256" cy="243.9" r="8.8" fill="#ffe6e6"/><circle class="st1" cx="256" cy="243.9" r="4.4"/><path class="st3" d="M256 258.2c-.6 0-1.1-.5-1.1-1.1v-13.2c0-.6.5-1.1 1.1-1.1.6 0 1.1.5 1.1 1.1v13.2c0 .6-.5 1.1-1.1 1.1z"/><path fill="#00a0eb" d="M286.2 270.2H227l6.9-13.2h44.4z"/><path class="st2" d="M257.8 259.5h15.4l-4.8-4.8c-.2-.2-.5-.4-.8-.5l-1.7-.6c-.6-.2-1.3-.1-1.8.2l-5.3 3.5-1 2.2z"/><path d="M252.6 260.3H271l-5.7-5.7c-.3-.3-.6-.5-1-.6l-2-.7c-.7-.2-1.5-.1-2.1.3l-6.3 4.2-1.3 2.5z" fill="#21ab1e"/><path d="M246.2 261.2h22.2l-6.9-6.9c-.3-.3-.7-.6-1.2-.7l-2.4-.8c-.9-.3-1.8-.2-2.6.3l-7.7 5.1-1.4 3z" fill="#3cb121"/><path d="M239.9 262.1h25.4l-7.9-7.9c-.4-.4-.8-.7-1.3-.8l-2.7-.9c-1-.3-2.1-.2-2.9.4l-8.8 5.8-1.8 3.4z" fill="#56b723"/><path d="M229.5 263.7h33.1l-10.3-10.3c-.5-.5-1.1-.9-1.7-1.1l-3.6-1.2c-1.3-.4-2.7-.2-3.8.5l-11.4 7.6-2.3 4.5z" fill="#71bd25"/><g><path class="st10" d="M258.4 245.8h-4.8l1.1-4.6h1.7c.5 0 1 .4 1.1.9l.9 3.7z"/><path class="st10" d="M258.1 246.6h-4.3c-.4 0-.6-.3-.6-.6v-.2c0-.4.3-.6.6-.6h4.3c.4 0 .6.3.6.6v.2c0 .3-.2.6-.6.6zM255.3 243.3l-1.1-.3c-.3-.1-.5-.5-.3-.7l.8-1.1.6 2.1z"/></g><path class="st0" d="M250.5 232.5c-.1.4-.1.8-.2 1.2 1.7-1 3.6-1.7 5.7-1.7s3.9.6 5.7 1.7c-.1-.4-.1-.8-.2-1.2-1.7-.9-3.5-1.4-5.5-1.4s-3.8.5-5.5 1.4z"/><path d="M250.6 232c-.1.4-.1.8-.2 1.2 1.7-1 3.6-1.7 5.6-1.7 2 0 3.9.6 5.6 1.7-.1-.4-.1-.8-.2-1.2-1.7-.9-3.5-1.4-5.4-1.4-1.9 0-3.8.5-5.4 1.4z" fill="#5aa0e6"/><path d="M250.6 231.5c-.1.4-.1.8-.2 1.2 1.7-1 3.5-1.7 5.5-1.7s3.9.6 5.5 1.7c-.1-.4-.1-.8-.2-1.2-1.7-.9-3.5-1.4-5.4-1.4-1.7 0-3.5.5-5.2 1.4z" fill="#9bc800"/><path d="M250.7 231c-.1.4-.1.8-.2 1.2 1.7-1 3.5-1.7 5.5-1.7s3.8.6 5.5 1.7c-.1-.4-.1-.8-.2-1.2-1.6-.9-3.4-1.4-5.3-1.4-1.9-.1-3.7.5-5.3 1.4z" fill="#ffe14e"/><path d="M250.8 230.4c-.1.4-.1.8-.2 1.2 1.6-1.1 3.4-1.7 5.4-1.7 2 0 3.7.6 5.4 1.7-.1-.4-.1-.8-.2-1.2-1.6-.9-3.4-1.4-5.2-1.4-1.9 0-3.6.5-5.2 1.4z" fill="#ffb14e"/><path d="M250.8 230.2c0 .3-.1.6-.1.9 1.6-1.1 3.4-1.7 5.3-1.7s3.7.6 5.3 1.7c0-.3-.1-.6-.1-.9-1.6-.9-3.4-1.4-5.2-1.4-1.8-.1-3.6.5-5.2 1.4z" fill="#ff4b55"/><g><path class="st3" d="M286.9 271.4h-61.8c-.4 0-.8-.2-1-.6-.2-.4-.2-.8.1-1.1l30.9-46.3c.4-.6 1.4-.6 1.8 0l30.9 46.3c.2.3.2.8.1 1.1-.2.4-.6.6-1 .6zm-59.7-2.2h57.7L256 226l-28.8 43.2zM256 214.1c-.6 0-1.1-.5-1.1-1.1v-4.4c0-.6.5-1.1 1.1-1.1.6 0 1.1.5 1.1 1.1v4.4c0 .6-.5 1.1-1.1 1.1z"/><path class="st3" d="M258.2 214.1h-4.4c-.6 0-1.1-.5-1.1-1.1s.5-1.1 1.1-1.1h4.4c.6 0 1.1.5 1.1 1.1s-.5 1.1-1.1 1.1z"/></g><g><path class="st0" d="M256 293.5h-.2c-1.1-.2-4.7-1.1-5.7-2.2-1.4-1.3-1.4-3.5 0-4.9.6-.7 1.5-1 2.4-1 .9 0 1.8.4 2.4 1 1.1 1.1 2 4.7 2.2 5.7.1.4 0 .8-.3 1-.2.3-.5.4-.8.4zm-3.6-5.9c-.3.1-.6.1-.9.4-.5.5-.5 1.3 0 1.8.3.3 1.5.7 2.9 1.1-.4-1.4-.9-2.6-1.1-2.9l.8-.8-.8.8c-.2-.2-.5-.4-.9-.4z"/><path class="st0" d="M256 293.5c-.3 0-.6-.1-.8-.3-.3-.3-.4-.7-.3-1 .2-1.1 1.1-4.7 2.2-5.7.7-.6 1.4-.9 2.4-1 .9 0 1.8.4 2.4 1 1.3 1.4 1.3 3.5 0 4.9-1.1 1.1-4.7 1.9-5.7 2.2 0-.1-.1-.1-.2-.1zm1.9-6.3l.8.8c-.3.3-.7 1.5-1.1 2.9 1.4-.4 2.6-.9 2.9-1.1.5-.5.5-1.3 0-1.8-.2-.2-.5-.4-.9-.4-.3 0-.6.1-.9.4l-.8-.8zm0 0z"/><path class="st0" d="M251.6 300.1c-.6 0-1.1-.5-1.1-1.1 0-5 4.8-7.5 5-7.6.5-.3 1.2 0 1.5.5.3.5.1 1.2-.5 1.5 0 0-3.8 2-3.8 5.6 0 .6-.5 1.1-1.1 1.1z"/><path class="st0" d="M260.4 300.1c-.6 0-1.1-.5-1.1-1.1 0-3.7-3.8-5.6-3.8-5.6-.5-.3-.8-.9-.5-1.5.3-.5.9-.8 1.5-.5.2.1 5 2.6 5 7.6 0 .6-.5 1.1-1.1 1.1z"/></g></g></svg>