<?xml version="1.0" encoding="utf-8"?>
<!-- Generator: Adobe Illustrator 25.0.0, SVG Export Plug-In . SVG Version: 6.00 Build 0)  -->
<svg version="1.1" id="Layer_1" xmlns="http://www.w3.org/2000/svg" xmlns:xlink="http://www.w3.org/1999/xlink" x="0px" y="0px"
	 viewBox="0 0 512 512" style="enable-background:new 0 0 512 512;" xml:space="preserve">
<style type="text/css">
	.st0{fill:#DC1016;}
	.st1{fill:#002688;}
	.st2{fill:#FFFFFF;}
	.st3{fill:#F9DA06;}
	.st4{fill:#62B0E2;}
</style>
<rect y="88" class="st0" width="512" height="168"/>
<rect y="256" class="st1" width="512" height="168"/>
<polygon class="st2" points="0,88 0,424 256,256 "/>
<g id="Mask">
</g>
<g id="shield" transform="translate(59.428000, 107.001000)">
	<path id="Path_2_" class="st3" d="M0.2,152c-0.1,1.5-0.2,3-0.2,4.6C0,189.4,26.6,216,59.4,216s59.4-26.6,59.4-59.4
		c0-1.5-0.1-3.1-0.2-4.6H0.2L0.2,152z"/>
	<circle id="Oval" class="st3" cx="59.4" cy="106.3" r="18.3"/>
	<path id="Path_3_" class="st0" d="M18.3,101.7v59.4c0,31.5,41.1,41.1,41.1,41.1s41.1-9.6,41.1-41.1v-59.4L18.3,101.7L18.3,101.7z"
		/>
	<path id="Path_4_" class="st4" d="M59.4,183.1c-7.6-2.7-22.9-9.8-22.9-22V120h45.7v41.1C82.3,173.4,67,180.4,59.4,183.1z"/>
	<polygon id="Path_5_" class="st2" points="68.6,142.9 68.6,133.7 59.4,129.1 50.3,133.7 50.3,142.9 45.7,147.4 45.7,165.7 
		73.1,165.7 73.1,147.4 	"/>
</g>
</svg>
