<svg version="1.1" id="Layer_1" xmlns="http://www.w3.org/2000/svg" x="0" y="0" viewBox="0 0 512 512" xml:space="preserve"><style>.st0{fill:#dc1016}.st2{fill:#fff}.st3{fill:#f9da06}</style><path class="st0" d="M0 88h512v168H0z"/><path fill="#002688" d="M0 256h512v168H0z"/><path class="st2" d="M0 88v336l256-168z"/><g id="shield" transform="translate(59.428 107.001)"><path id="Path_2_" class="st3" d="M.2 152c-.1 1.5-.2 3-.2 4.6C0 189.4 26.6 216 59.4 216s59.4-26.6 59.4-59.4c0-1.5-.1-3.1-.2-4.6H.2z"/><circle id="Oval" class="st3" cx="59.4" cy="106.3" r="18.3"/><path id="Path_3_" class="st0" d="M18.3 101.7v59.4c0 31.5 41.1 41.1 41.1 41.1s41.1-9.6 41.1-41.1v-59.4H18.3z"/><path id="Path_4_" d="M59.4 183.1c-7.6-2.7-22.9-9.8-22.9-22V120h45.7v41.1c.1 12.3-15.2 19.3-22.8 22z" fill="#62b0e2"/><path id="Path_5_" class="st2" d="M68.6 142.9v-9.2l-9.2-4.6-9.1 4.6v9.2l-4.6 4.5v18.3h27.4v-18.3z"/></g></svg>