<svg version="1.1" id="Layer_1" xmlns="http://www.w3.org/2000/svg" x="0" y="0" viewBox="0 0 512 512" xml:space="preserve"><style>.st2{fill:#007a3d}</style><path fill="#ce1126" d="M0 88h512v112H0z"/><path fill="#fff" d="M0 200h512v112H0z"/><path d="M0 312h512v112H0z"/><path class="st2" d="M150 223.3l7.4 22.1 23.3.2c3 0 4.3 3.9 1.8 5.7L163.8 265l7 22.2c.9 2.9-2.4 5.2-4.8 3.5l-18.9-13.5-18.9 13.5c-2.5 1.8-5.7-.6-4.8-3.5l7-22.2-18.7-13.8c-2.4-1.8-1.2-5.6 1.8-5.7l23.3-.2 7.4-22.1c.8-2.7 4.9-2.7 5.8.1zM367.9 223.3l7.4 22.1 23.3.2c3 0 4.3 3.9 1.8 5.7L381.7 265l7 22.2c.9 2.9-2.4 5.2-4.8 3.5L365 277.2l-19 13.5c-2.5 1.8-5.7-.6-4.8-3.5l7-22.2-18.7-13.8c-2.4-1.8-1.2-5.6 1.8-5.7l23.3-.2 7.4-22.1c.9-2.7 5-2.7 5.9.1z"/></svg>