<svg version="1.1" id="Layer_1" xmlns="http://www.w3.org/2000/svg" x="0" y="0" viewBox="0 0 512 512" xml:space="preserve"><style>.st0{fill:#ffd900}.st1{fill:#3e5eb9}.st2{fill:#b10c0c}.st3{fill:#fff}</style><path class="st0" d="M0 353.1h512v17.7H0z"/><path class="st1" d="M0 370.8h512V424H0zM0 88h512v53.2H0z"/><path class="st2" d="M0 158.9h512v194.2H0z"/><path class="st0" d="M0 141.2h512v17.7H0zM448.9 264.5H62.7c-2.6 0-4.7-2.1-4.7-4.7v-1.5c0-2.6 2.1-4.7 4.7-4.7h386.2c2.6 0 4.7 2.1 4.7 4.7v1.5c0 2.6-2.1 4.7-4.7 4.7z"/><path class="st3" d="M374 242.5l19.2-8.2 19.2 8.2-19.2 8.3z"/><path class="st0" d="M378.7 239H96.5c-1.9 0-3.5 1.6-3.5 3.5s1.6 3.5 3.5 3.5h282.2c1.9 0 3.5-1.6 3.5-3.5s-1.6-3.5-3.5-3.5z"/><path class="st3" d="M394 223.3l19.2-8.2 19.2 8.2-19.2 8.2z"/><path class="st0" d="M398.7 219.8H116.5c-1.9 0-3.5 1.6-3.5 3.5s1.6 3.5 3.5 3.5h282.2c1.9 0 3.5-1.6 3.5-3.5s-1.6-3.5-3.5-3.5z"/><path class="st3" d="M255.8 187.6c-48.8 0-91.4 27.6-114.2 68.7 22.8 41 65.4 68.7 114.2 68.7s91.4-27.6 114.2-68.7c-22.8-41.1-65.4-68.7-114.2-68.7z"/><path d="M141.6 256.3c22.8 41 65.4 68.7 114.2 68.7 8.1 0 16.1-.8 23.8-2.3-5.9-13-26.7-12.9-28-17.8-1.4-5.3 16.9-4.1 20.1-8.5 3.2-4.4-17.4-6.2-18.3-10.5-.9-4.4 8.2-7.3 9.8-14.2s5.3-8.9 8-13-4.6-5.5-6.4-19.2-12.6-15.6-17.9-26.8c-5.3-11.2 3.2-19.5 8.7-25-48.6-.1-91.2 27.5-114 68.6z"/><path class="st3" d="M184.4 231.6h5.5v22h-5.5zM195.4 231.6h5.5v22h-5.5zM206.4 231.6h5.5v22h-5.5zM217.4 231.6h5.5v22h-5.5zM228.3 231.6h5.5v22h-5.5zM239.3 231.6h5.5v22h-5.5zM184.4 264.5h5.5v22h-5.5zM195.4 264.5h5.5v22h-5.5zM206.4 264.5h5.5v22h-5.5zM217.4 264.5h5.5v22h-5.5zM228.3 264.5h5.5v22h-5.5zM239.3 264.5h5.5v22h-5.5z"/><g><path d="M266.8 231.6h5.5v22h-5.5zM277.8 231.6h5.5v22h-5.5zM288.8 231.6h5.5v22h-5.5zM299.8 231.6h5.5v22h-5.5zM310.8 231.6h5.5v22h-5.5zM321.8 231.6h5.5v22h-5.5zM266.8 264.5h5.5v22h-5.5zM277.8 264.5h5.5v22h-5.5zM288.8 264.5h5.5v22h-5.5zM299.8 264.5h5.5v22h-5.5zM310.8 264.5h5.5v22h-5.5zM321.8 264.5h5.5v22h-5.5z"/></g><path class="st1" d="M425.4 252.7c-4.4 10.2-16.9 11.4-10 37.5l3.6-3.6s3.7 9.8 12.7 16.4c0 0 11-9.2 11.8-23.9l4.6 2s-2.2-26.6-22.7-28.4z"/><g><path class="st2" d="M441.6 273.6c-.4 0-.7-.2-1-.5-4.3-5.2-9.8-6.9-9.9-6.9-.7-.2-1.2-1.1-1-1.9.2-.9.9-1.4 1.6-1.2.3.1 6.3 1.9 11.1 7.8.5.6.5 1.6 0 2.3-.1.3-.4.4-.8.4zM438.5 285.7c-.4 0-.8-.2-1.1-.6-3.2-4.9-6.8-7.6-6.9-7.6-.6-.5-.8-1.5-.4-2.2.4-.8 1.2-1 1.9-.5.2.1 4.1 3 7.6 8.4.5.7.3 1.7-.2 2.2-.3.2-.6.3-.9.3zM431.4 299.2h-.2c-.7-.1-1.2-1-1.1-1.8.5-3.7.1-9.7-.6-12.8-.2-.9.2-1.7.9-2 .7-.2 1.5.3 1.7 1.1.8 3.5 1.3 10.1.7 14.2-.2.8-.7 1.3-1.4 1.3zM421.9 284.4c-.4 0-.8-.2-1-.6-.5-.7-.4-1.7.2-2.3 0 0 3.5-3.5 4.4-8.4.2-.9.9-1.4 1.6-1.2.7.2 1.2 1 1 1.9-1.1 5.9-5.1 10-5.3 10.2-.3.3-.6.4-.9.4zM418.1 274.2c-.5 0-.9-.3-1.2-.8-.4-.8-.2-1.7.4-2.2.1 0 5-3.7 6.5-7.6.3-.8 1.1-1.2 1.8-.8.7.4 1 1.3.7 2.1-1.9 4.8-7.3 8.8-7.5 9-.2.2-.4.3-.7.3z"/></g><path class="st1" d="M82.3 256.1c-3.7 8.5-14.2 9.6-8.3 31.3l3-3s3.1 8.2 10.6 13.7c0 0 9.2-7.7 9.9-19.9l3.8 1.7c-.1 0-1.9-22.3-19-23.8z"/><g><path class="st2" d="M95.9 273.6c-.3 0-.6-.1-.8-.4-3.6-4.3-8.2-5.7-8.2-5.8-.6-.2-1-.9-.8-1.6.2-.7.8-1.2 1.4-1 .2.1 5.2 1.6 9.3 6.5.4.5.4 1.4 0 1.9-.4.3-.6.4-.9.4zM93.3 283.8c-.3 0-.7-.2-.9-.5-2.7-4.1-5.7-6.4-5.7-6.4-.5-.4-.7-1.2-.4-1.8.3-.6 1-.8 1.6-.4.1.1 3.4 2.5 6.3 7 .4.6.3 1.4-.2 1.9-.2.1-.5.2-.7.2zM87.3 295.1h-.2c-.6-.1-1-.8-.9-1.5.4-3.1.1-8.1-.5-10.7-.2-.7.2-1.5.8-1.7.6-.2 1.2.2 1.4.9.7 2.9 1.1 8.4.6 11.9-.1.6-.6 1.1-1.2 1.1zM79.4 282.7c-.3 0-.6-.2-.9-.5-.4-.6-.3-1.4.1-1.9 0 0 2.9-3 3.7-7 .1-.7.7-1.2 1.3-1 .6.2 1 .9.9 1.6-.9 5-4.3 8.4-4.4 8.5-.2.2-.5.3-.7.3zM76.2 274.1c-.4 0-.8-.2-1-.6-.3-.6-.2-1.5.4-1.8 0 0 4.1-3.1 5.4-6.4.3-.7.9-1 1.5-.7.6.3.8 1.1.6 1.8-1.6 4-6.1 7.4-6.3 7.5-.2.1-.4.2-.6.2z"/></g></svg>