<?xml version="1.0" encoding="utf-8"?>
<!-- Generator: Adobe Illustrator 25.0.0, SVG Export Plug-In . SVG Version: 6.00 Build 0)  -->
<svg version="1.1" id="Layer_1" xmlns="http://www.w3.org/2000/svg" xmlns:xlink="http://www.w3.org/1999/xlink" x="0px" y="0px"
	 viewBox="0 0 512 512" style="enable-background:new 0 0 512 512;" xml:space="preserve">
<style type="text/css">
	.st0{fill:#FFD900;}
	.st1{fill:#3E5EB9;}
	.st2{fill:#B10C0C;}
	.st3{fill:#FFFFFF;}
</style>
<rect y="353.1" class="st0" width="512" height="17.7"/>
<rect y="370.8" class="st1" width="512" height="53.2"/>
<rect y="88" class="st1" width="512" height="53.2"/>
<rect y="158.9" class="st2" width="512" height="194.2"/>
<rect y="141.2" class="st0" width="512" height="17.7"/>
<path class="st0" d="M448.9,264.5H62.7c-2.6,0-4.7-2.1-4.7-4.7v-1.5c0-2.6,2.1-4.7,4.7-4.7h386.2c2.6,0,4.7,2.1,4.7,4.7v1.5
	C453.6,262.4,451.5,264.5,448.9,264.5z"/>
<polygon class="st3" points="374,242.5 393.2,234.3 412.4,242.5 393.2,250.8 "/>
<path class="st0" d="M378.7,239H96.5c-1.9,0-3.5,1.6-3.5,3.5c0,1.9,1.6,3.5,3.5,3.5h282.2c1.9,0,3.5-1.6,3.5-3.5
	S380.6,239,378.7,239z"/>
<polygon class="st3" points="394,223.3 413.2,215.1 432.4,223.3 413.2,231.5 "/>
<path class="st0" d="M398.7,219.8H116.5c-1.9,0-3.5,1.6-3.5,3.5c0,1.9,1.6,3.5,3.5,3.5h282.2c1.9,0,3.5-1.6,3.5-3.5
	S400.6,219.8,398.7,219.8z"/>
<path class="st3" d="M255.8,187.6c-48.8,0-91.4,27.6-114.2,68.7c22.8,41,65.4,68.7,114.2,68.7s91.4-27.6,114.2-68.7
	C347.2,215.2,304.6,187.6,255.8,187.6z"/>
<path d="M141.6,256.3c22.8,41,65.4,68.7,114.2,68.7c8.1,0,16.1-0.8,23.8-2.3c-5.9-13-26.7-12.9-28-17.8c-1.4-5.3,16.9-4.1,20.1-8.5
	c3.2-4.4-17.4-6.2-18.3-10.5c-0.9-4.4,8.2-7.3,9.8-14.2s5.3-8.9,8-13c2.7-4.1-4.6-5.5-6.4-19.2s-12.6-15.6-17.9-26.8
	c-5.3-11.2,3.2-19.5,8.7-25C207,187.6,164.4,215.2,141.6,256.3z"/>
<g>
	<rect x="184.4" y="231.6" class="st3" width="5.5" height="22"/>
	<rect x="195.4" y="231.6" class="st3" width="5.5" height="22"/>
	<rect x="206.4" y="231.6" class="st3" width="5.5" height="22"/>
	<rect x="217.4" y="231.6" class="st3" width="5.5" height="22"/>
	<rect x="228.3" y="231.6" class="st3" width="5.5" height="22"/>
	<rect x="239.3" y="231.6" class="st3" width="5.5" height="22"/>
	<rect x="184.4" y="264.5" class="st3" width="5.5" height="22"/>
	<rect x="195.4" y="264.5" class="st3" width="5.5" height="22"/>
	<rect x="206.4" y="264.5" class="st3" width="5.5" height="22"/>
	<rect x="217.4" y="264.5" class="st3" width="5.5" height="22"/>
	<rect x="228.3" y="264.5" class="st3" width="5.5" height="22"/>
	<rect x="239.3" y="264.5" class="st3" width="5.5" height="22"/>
</g>
<g>
	<rect x="266.8" y="231.6" width="5.5" height="22"/>
	<rect x="277.8" y="231.6" width="5.5" height="22"/>
	<rect x="288.8" y="231.6" width="5.5" height="22"/>
	<rect x="299.8" y="231.6" width="5.5" height="22"/>
	<rect x="310.8" y="231.6" width="5.5" height="22"/>
	<rect x="321.8" y="231.6" width="5.5" height="22"/>
	<rect x="266.8" y="264.5" width="5.5" height="22"/>
	<rect x="277.8" y="264.5" width="5.5" height="22"/>
	<rect x="288.8" y="264.5" width="5.5" height="22"/>
	<rect x="299.8" y="264.5" width="5.5" height="22"/>
	<rect x="310.8" y="264.5" width="5.5" height="22"/>
	<rect x="321.8" y="264.5" width="5.5" height="22"/>
</g>
<path class="st1" d="M425.4,252.7c-4.4,10.2-16.9,11.4-10,37.5l3.6-3.6c0,0,3.7,9.8,12.7,16.4c0,0,11-9.2,11.8-23.9l4.6,2
	C448.1,281.1,445.9,254.5,425.4,252.7z"/>
<g>
	<path class="st2" d="M441.6,273.6c-0.4,0-0.7-0.2-1-0.5c-4.3-5.2-9.8-6.9-9.9-6.9c-0.7-0.2-1.2-1.1-1-1.9c0.2-0.9,0.9-1.4,1.6-1.2
		c0.3,0.1,6.3,1.9,11.1,7.8c0.5,0.6,0.5,1.6,0,2.3C442.3,273.5,442,273.6,441.6,273.6z"/>
	<path class="st2" d="M438.5,285.7c-0.4,0-0.8-0.2-1.1-0.6c-3.2-4.9-6.8-7.6-6.9-7.6c-0.6-0.5-0.8-1.5-0.4-2.2
		c0.4-0.8,1.2-1,1.9-0.5c0.2,0.1,4.1,3,7.6,8.4c0.5,0.7,0.3,1.7-0.2,2.2C439.1,285.6,438.8,285.7,438.5,285.7z"/>
	<path class="st2" d="M431.4,299.2c-0.1,0-0.2,0-0.2,0c-0.7-0.1-1.2-1-1.1-1.8c0.5-3.7,0.1-9.7-0.6-12.8c-0.2-0.9,0.2-1.7,0.9-2
		c0.7-0.2,1.5,0.3,1.7,1.1c0.8,3.5,1.3,10.1,0.7,14.2C432.6,298.7,432.1,299.2,431.4,299.2z"/>
	<path class="st2" d="M421.9,284.4c-0.4,0-0.8-0.2-1-0.6c-0.5-0.7-0.4-1.7,0.2-2.3c0,0,3.5-3.5,4.4-8.4c0.2-0.9,0.9-1.4,1.6-1.2
		c0.7,0.2,1.2,1,1,1.9c-1.1,5.9-5.1,10-5.3,10.2C422.5,284.3,422.2,284.4,421.9,284.4z"/>
	<path class="st2" d="M418.1,274.2c-0.5,0-0.9-0.3-1.2-0.8c-0.4-0.8-0.2-1.7,0.4-2.2c0.1,0,5-3.7,6.5-7.6c0.3-0.8,1.1-1.2,1.8-0.8
		c0.7,0.4,1,1.3,0.7,2.1c-1.9,4.8-7.3,8.8-7.5,9C418.6,274.1,418.4,274.2,418.1,274.2z"/>
</g>
<path class="st1" d="M82.3,256.1c-3.7,8.5-14.2,9.6-8.3,31.3l3-3c0,0,3.1,8.2,10.6,13.7c0,0,9.2-7.7,9.9-19.9l3.8,1.7
	C101.2,279.9,99.4,257.6,82.3,256.1z"/>
<g>
	<path class="st2" d="M95.9,273.6c-0.3,0-0.6-0.1-0.8-0.4c-3.6-4.3-8.2-5.7-8.2-5.8c-0.6-0.2-1-0.9-0.8-1.6c0.2-0.7,0.8-1.2,1.4-1
		c0.2,0.1,5.2,1.6,9.3,6.5c0.4,0.5,0.4,1.4,0,1.9C96.4,273.5,96.2,273.6,95.9,273.6z"/>
	<path class="st2" d="M93.3,283.8c-0.3,0-0.7-0.2-0.9-0.5c-2.7-4.1-5.7-6.4-5.7-6.4c-0.5-0.4-0.7-1.2-0.4-1.8c0.3-0.6,1-0.8,1.6-0.4
		c0.1,0.1,3.4,2.5,6.3,7c0.4,0.6,0.3,1.4-0.2,1.9C93.8,283.7,93.5,283.8,93.3,283.8z"/>
	<path class="st2" d="M87.3,295.1c-0.1,0-0.1,0-0.2,0c-0.6-0.1-1-0.8-0.9-1.5c0.4-3.1,0.1-8.1-0.5-10.7c-0.2-0.7,0.2-1.5,0.8-1.7
		c0.6-0.2,1.2,0.2,1.4,0.9c0.7,2.9,1.1,8.4,0.6,11.9C88.4,294.6,87.9,295.1,87.3,295.1z"/>
	<path class="st2" d="M79.4,282.7c-0.3,0-0.6-0.2-0.9-0.5c-0.4-0.6-0.3-1.4,0.1-1.9c0,0,2.9-3,3.7-7c0.1-0.7,0.7-1.2,1.3-1
		c0.6,0.2,1,0.9,0.9,1.6c-0.9,5-4.3,8.4-4.4,8.5C79.9,282.6,79.6,282.7,79.4,282.7z"/>
	<path class="st2" d="M76.2,274.1c-0.4,0-0.8-0.2-1-0.6c-0.3-0.6-0.2-1.5,0.4-1.8c0,0,4.1-3.1,5.4-6.4c0.3-0.7,0.9-1,1.5-0.7
		c0.6,0.3,0.8,1.1,0.6,1.8c-1.6,4-6.1,7.4-6.3,7.5C76.6,274,76.4,274.1,76.2,274.1z"/>
</g>
</svg>
