<svg version="1.1" id="Layer_1" xmlns="http://www.w3.org/2000/svg" x="0" y="0" viewBox="0 0 512 512" xml:space="preserve"><style>.st0{fill:#012169}.st1{fill:#fff}.st2{fill:#c8102e}.st6{fill:#ff4b55}</style><path class="st0" d="M256.1 88v168.2H0V424h512V88z"/><g id="Union_flag"><path class="st0" d="M0 88h256.1v168.2H0z"/><path class="st1" d="M106 150.1v-7.9L22.7 88H0v17l69.3 45.1zM106 194.1H70.8L0 240.1v16.1h24.2l81.8-53.3zM233.9 88L150 142.5v7.6h37.3l68.8-44.8V88zM150 194.1v8.5l82.5 53.6h23.6v-16.4l-70.2-45.7z"/><path class="st1" d="M256.1 150.1H150V88h-44v62.1H0v44h106v62.1h44v-62.1h106.1z"/><path class="st2" d="M256.1 158.8H141.3V88h-26.5v70.8H0v26.5h114.8v70.9h26.5v-70.9h114.8z"/><path class="st2" d="M97.2 150.1L1.7 88H0v9.6l80.7 52.5zM106 194.1H89.6L0 252.4v3.8h10.6zM157.3 194.1l95.5 62.1h3.3v-8.6l-82.3-53.5zM245.4 88L150 150v.1h16.4l89.7-58.3V88z"/></g><path d="M344.1 206c-1.1 0-1.9.9-1.9 1.9v32.8c0 65.5 46.3 77.1 46.3 77.1s46.3-11.6 46.3-77.1v-32.8c0-1.1-.9-1.9-1.9-1.9h-88.8z" fill="#ffe15a"/><path d="M429.9 210.8v29.9c0 55.8-34.5 69.8-41.4 72.1-7-2.3-41.5-16.4-41.5-72.1v-29.9h82.9m2.9-4.8h-88.7c-1.1 0-1.9.9-1.9 1.9v32.8c0 65.5 46.3 77.1 46.3 77.1s46.3-11.6 46.3-77.1v-32.8c-.1-1.1-1-1.9-2-1.9z" fill="#f5f5f5"/><path d="M393.6 267h-9.9s-8 8-9.8 25.4c-.1.6.2 1.1.6 1.5 1.7 1.3 6.4 4.3 14.1 4.3s12.4-3 14.1-4.3c.4-.3.7-.9.6-1.5-1.8-17.4-9.7-25.4-9.7-25.4z" fill="#73af00"/><path class="st6" d="M393.6 265.4h-9.9v-8.2c0-2.7 2.2-4.9 4.9-4.9s4.9 2.2 4.9 4.9l.1 8.2zM393.6 268.7h-9.9c-.9 0-1.6-.7-1.6-1.6 0-.9.7-1.6 1.6-1.6h9.9c.9 0 1.6.7 1.6 1.6 0 .8-.7 1.6-1.6 1.6z"/><path d="M426.5 232.3c-.3 0-4.6 0-9 .8v-2.6c3.8-1.7 7.5-2.6 7.5-2.6.4-.1.7-.5.6-1-.1-.4-.5-.7-1-.6-.2.1-3.6.9-7.2 2.4-.1-1-.4-1.9-1-2.6 2.9-2.3 5.5-3.7 5.5-3.8.4-.2.5-.7.3-1.1-.2-.4-.7-.5-1.1-.3-.2.1-2.8 1.6-5.9 4-.8-.5-1.7-.8-2.7-.8-1.1 0-2 .3-2.8.9.8-4.2 2.6-6.1 2.6-6.1.3-.3.3-.8 0-1.2-.3-.3-.8-.3-1.2 0-.1.1-1.7 1.7-2.7 5.5-1-3.7-2.6-5.4-2.7-5.5-.3-.3-.8-.3-1.2 0-.3.3-.3.8 0 1.2 0 0 1.8 1.9 2.6 6.1-.8-.6-1.8-.9-2.8-.9-1 0-2 .3-2.7.8-3.1-2.4-5.7-3.9-5.9-4-.4-.2-.9-.1-1.1.3-.2.4-.1.9.3 1.1 0 0 2.6 1.5 5.5 3.8-.6.7-.9 1.7-1 2.6-3.6-1.6-6.9-2.4-7.2-2.4-.4-.1-.9.2-1 .6-.1.4.2.9.6 1 .1 0 3.8.9 7.5 2.6v2.6c-4.5-.8-8.7-.8-9-.8-.5 0-.8.4-.8.8 0 .5.4.8.8.8.1 0 4.6 0 9 .8v2.7c-2.5-.1-5.2.3-7.8 1.5-.4.2-.6.7-.4 1.1.1.3.4.5.7.5.1 0 .2 0 .4-.1 2.3-1.1 4.8-1.4 7-1.4v10.2c0 1.2-.1 2.5-.4 3.7l-1.3 6.3c-.1.4.2.9.6 1h.2c.4 0 .7-.3.8-.7l1.3-6.3c.3-1.3.4-2.7.4-4v-10c1.2.1 2.3.4 3.2.6l.6 8.1c.1 1 .6 1.9 1.3 2.5l-2.7 4c-1.4 2.1.1 5 2.7 5h4.4c2.6 0 4.1-2.9 2.7-5l-2.7-4c.7-.6 1.2-1.5 1.3-2.5l.6-8.1c.9-.2 2-.4 3.2-.6v10c0 1.4.1 2.7.4 4l1.3 6.3c.1.4.4.7.8.7h.2c.4-.1.7-.5.6-1l-1.3-6.3c-.2-1.2-.4-2.5-.4-3.7V239c2.3-.1 4.8.2 7 1.4.1.1.2.1.4.1.3 0 .6-.2.7-.5.2-.4 0-.9-.4-1.1-2.5-1.3-5.3-1.6-7.8-1.5v-2.7c4.5-.8 9-.8 9-.8.5 0 .8-.4.8-.8.6-.4.2-.8-.2-.8zm-10.7 1.1c-1 .2-1.9.5-2.9.8 0-.3-.1-.6-.1-.9.9-.7 1.9-1.3 3-1.9v2zm0-4.3v.5c-1.3.6-2.6 1.4-3.7 2.2-.2-.3-.5-.6-.8-.9 1.2-1.4 2.6-2.6 3.9-3.7.3.5.6 1.1.6 1.9zm-3.3-3.3c.5 0 1 .1 1.4.3-1.4 1.2-2.9 2.6-4.1 4-.2-.1-.3-.1-.5-.1v-.1-1.1c.1-1.7 1.5-3 3.2-3zm-8.2 0c1.7 0 3.1 1.3 3.3 3V230c-.2 0-.3.1-.5.1-1.3-1.5-2.7-2.8-4.1-4 .3-.2.8-.3 1.3-.3zm-3.3 3.3c0-.7.2-1.4.6-1.9 1.3 1.1 2.7 2.4 3.9 3.7-.3.3-.6.5-.8.9-1.1-.9-2.4-1.6-3.7-2.2v-.5zm0 2.3c1.1.6 2.1 1.2 3 1.9-.1.3-.1.6-.1.9-.9-.3-1.9-.6-2.9-.8v-2zm0 6.2v-2.4c1 .2 2 .5 2.9.9l.2 2.1c-.9-.3-2-.5-3.1-.6zm14.8 0c-1.2.1-2.2.3-3.1.5l.2-2.1c.9-.3 1.9-.6 2.9-.9v2.5z" fill="#d35a10"/><path d="M374.5 254.5h-3.7L356.7 242c-1.5-1.4-2.2-3.5-1.7-5.5l3.9-15.7c.3-1.4 2.1-1.9 3.1-.9l6.4 6.4c.3.3.8.5 1.3.5h4.8v27.7z" fill="#ffa033"/><path d="M371.9 223.1l-2.3 10.2c-.4 1.8-.3 3.8.2 5.6l4.7 15.7h3.7l4.7-15.7c.5-1.8.6-3.7.2-5.6l-2.3-10.2c-.5-2.1-2.3-3.6-4.5-3.6-2.1 0-3.9 1.4-4.4 3.6z" fill="#ff9480"/><path d="M376.4 223.1c-1 0-1.8.8-1.8 1.8v29.5h3.7V225c-.1-1-.9-1.9-1.9-1.9z" fill="#ffa0e4"/></svg>