<?xml version="1.0" encoding="utf-8"?>
<!-- Generator: Adobe Illustrator 25.0.0, SVG Export Plug-In . SVG Version: 6.00 Build 0)  -->
<svg version="1.1" id="Layer_1" xmlns="http://www.w3.org/2000/svg" xmlns:xlink="http://www.w3.org/1999/xlink" x="0px" y="0px"
	 viewBox="0 0 512 512" style="enable-background:new 0 0 512 512;" xml:space="preserve">
<style type="text/css">
	.st0{fill:#002395;}
	.st1{fill:#FFFFFF;}
	.st2{fill:#ED2939;}
</style>
<g>
	<polygon class="st0" points="254,88 254,246.8 254,258.8 242,258.8 0,258.8 0,424 512,424 512,88 	"/>
</g>
<g>
	<rect y="88" class="st0" width="80.7" height="158.8"/>
	<rect x="80.7" y="88" class="st1" width="80.7" height="158.8"/>
	<rect x="161.3" y="88" class="st2" width="80.7" height="158.8"/>
</g>
<g>
	<polygon class="st1" points="419.9,280.9 397.4,314.6 397.4,280.9 408.7,280.9 420,258.2 397.3,258.2 397.3,246.9 431.3,246.9 
		442.6,224.2 329.1,224.2 340.7,246.8 374.7,246.8 374.7,314.8 374.4,314.8 351.8,280.9 329.1,314.9 363.1,314.9 385.7,348.8 
		408.3,314.9 442.6,314.9 	"/>
	<path class="st1" d="M453.9,269.6c-6.8,0-11.3-4.5-11.3-11.3c0-6.8,4.5-11.3,11.3-11.3s11.3,4.5,11.3,11.3
		C465.3,265,460.8,269.6,453.9,269.6z"/>
	<circle class="st1" cx="317.8" cy="258.3" r="11.3"/>
	<circle class="st1" cx="340.5" cy="349.1" r="11.3"/>
	<path class="st1" d="M431.2,360.4c-6.8,0-11.3-4.5-11.3-11.3s4.5-11.3,11.3-11.3s11.3,4.5,11.3,11.3
		C442.6,355.8,438.1,360.4,431.2,360.4z"/>
	<circle class="st1" cx="385.9" cy="371.8" r="11.3"/>
</g>
</svg>
