<svg version="1.1" id="Layer_1" xmlns="http://www.w3.org/2000/svg" x="0" y="0" viewBox="0 0 512 512" xml:space="preserve"><style>.st0{fill:#002395}.st1{fill:#fff}</style><path class="st0" d="M254 88v170.8H0V424h512V88z"/><path class="st0" d="M0 88h80.7v158.8H0z"/><path class="st1" d="M80.7 88h80.7v158.8H80.7z"/><path fill="#ed2939" d="M161.3 88H242v158.8h-80.7z"/><g><path class="st1" d="M419.9 280.9l-22.5 33.7v-33.7h11.3l11.3-22.7h-22.7v-11.3h34l11.3-22.7H329.1l11.6 22.6h34v68h-.3l-22.6-33.9-22.7 34h34l22.6 33.9 22.6-33.9h34.3z"/><path class="st1" d="M453.9 269.6c-6.8 0-11.3-4.5-11.3-11.3 0-6.8 4.5-11.3 11.3-11.3s11.3 4.5 11.3 11.3c.1 6.7-4.4 11.3-11.3 11.3z"/><circle class="st1" cx="317.8" cy="258.3" r="11.3"/><circle class="st1" cx="340.5" cy="349.1" r="11.3"/><path class="st1" d="M431.2 360.4c-6.8 0-11.3-4.5-11.3-11.3s4.5-11.3 11.3-11.3 11.3 4.5 11.3 11.3c.1 6.7-4.4 11.3-11.3 11.3z"/><circle class="st1" cx="385.9" cy="371.8" r="11.3"/></g></svg>