<svg version="1.1" id="Layer_1" xmlns="http://www.w3.org/2000/svg" x="0" y="0" viewBox="0 0 512 512" xml:space="preserve"><style>.st1{fill:#ffce00}.st2{fill:#006a4e}</style><path fill="#d21034" d="M0 88v201.8h203V88z"/><path class="st1" d="M203 155.3h309v67.2H203z"/><path class="st2" d="M203 222.6h309v67.2H203zM203 88v67.2h309V88z"/><path class="st1" d="M0 289.9h512v67.2H0z"/><path class="st2" d="M0 357.3h512v67.2H0z"/><path d="M99.3 135.6l-12.8 38.3-40.3.3c-2.2 0-3.1 2.8-1.3 4.2l32.4 24-12.2 38.4c-.7 2.1 1.7 3.9 3.5 2.6l32.8-23.4 32.8 23.4c1.8 1.3 4.2-.5 3.5-2.6l-12.2-38.4 32.4-24c1.8-1.3.9-4.1-1.3-4.2l-40.3-.3-12.8-38.3c-.5-2.1-3.5-2.1-4.2 0z" fill="#fff"/></svg>