<svg version="1.1" id="Layer_1" xmlns="http://www.w3.org/2000/svg" x="0" y="0" viewBox="0 0 512 512" xml:space="preserve"><style>.st3{fill:#f8c300}</style><path fill="#c00" d="M0 88h512v112H0z"/><path fill="#fff" d="M0 200h512v112H0z"/><path fill="#060" d="M0 312h512v112H0z"/><path class="st3" d="M227.1 287.5c3.7-1.8 5.8-4.9 7-7.1 6.6 4.3 12.2 2.8 15.1 1.5 2.9-1.3 5.2-3.5 6.8-5.8 1.6 2.2 3.9 4.4 6.8 5.8 2.9 1.4 8.6 2.8 15.1-1.5 1.1 2.2 3.3 5.2 7 7.1 2.1 1.1 4.4 1.6 7 1.6 2.6 0 5.4-.6 8.4-1.7l-1.5-3.9c-4.8 1.8-8.8 1.9-12 .3-4.5-2.2-6-7.2-6-7.2l-.9-3.1-2.4 2c-4.3 3.6-8.8 4.5-12.9 2.5-4.2-2-6.5-6-6.5-7.2v-17.9c.9-2 2.9-3.4 5.2-3.4.8 0 1.6.2 2.3.5l2.6 1.2-.4-2.8c-.8-5.9-5.9-10.3-11.8-10.3s-11 4.4-11.8 10.3l-.4 2.8 2.6-1.2c.8-.3 1.5-.5 2.3-.5 2.3 0 4.3 1.4 5.2 3.4V271c0 1.2-2.3 5.2-6.5 7.2-4.1 1.9-8.6 1.1-12.9-2.5l-2.4-2-.9 3s-1.5 5-6 7.2c-3.2 1.6-7.3 1.5-12-.3l-1.5 3.9c3 1.1 5.8 1.7 8.4 1.7 2.5-.1 4.9-.6 7-1.7zm21.6-40.9h-.7c1.4-3.1 4.5-5.2 8-5.2s6.6 2.1 8 5.2c-3.2-.3-6.3 1.3-8 3.8-1.6-2.3-4.3-3.8-7.3-3.8zM220.1 300.7l1.3 3.9c8.8-2.9 21.4-4.6 34.6-4.6 13.2 0 25.8 1.7 34.6 4.6l1.3-3.9c-9.2-3.1-22.3-4.8-35.9-4.8-13.6 0-26.7 1.7-35.9 4.8z"/><path class="st3" d="M256 291.7c2.2 0 4.1-1.3 5.4-3-.9-.5-2-.8-3.3-1v-.1c0-1.8-.8-3.3-2.1-4.1-1.2.8-2.1 2.4-2.1 4.1v.1c-1.3.2-2.4.5-3.3 1 1.3 1.8 3.2 3 5.4 3zM236.9 293.7c2.1-.4 3.7-2.1 4.6-4-.9-.3-2.1-.4-3.4-.3v-.1c-.4-1.7-1.5-3.1-2.9-3.6-1 1.1-1.6 2.7-1.2 4.5v.1c-1.2.4-2.3.9-3 1.6 1.7 1.4 3.8 2.2 5.9 1.8zM276.7 285.6c-1.4.6-2.5 1.9-2.9 3.6v.1c-1.3-.1-2.5 0-3.4.3.9 2 2.5 3.6 4.6 4 2.1.4 4.2-.4 5.9-1.9-.7-.7-1.8-1.2-3-1.6v-.1c.3-1.7-.2-3.4-1.2-4.4zM255.4 209.1l-1.4 4.2h-4.4c-.6 0-.8.7-.3 1.1l3.6 2.6-1.3 4.2c-.2.5.4 1 .9.7l3.6-2.6 3.6 2.6c.5.3 1.1-.1.9-.7l-1.3-4.2 3.6-2.6c.5-.3.2-1.1-.3-1.1h-4.4l-1.4-4.2c-.4-.5-1.2-.5-1.4 0zM230.1 216.1l-1.4 4.2h-4.4c-.6 0-.8.7-.3 1.1l3.6 2.6-1.3 4.2c-.2.5.4 1 .9.7l3.6-2.6 3.6 2.6c.5.3 1.1-.1.9-.7L234 224l3.6-2.6c.5-.3.2-1.1-.3-1.1h-4.4l-1.4-4.2c-.4-.6-1.2-.6-1.4 0zM211.6 234.7l-1.4 4.2h-4.4c-.6 0-.8.7-.3 1.1l3.6 2.6-1.3 4.2c-.2.5.4 1 .9.7l3.6-2.6 3.6 2.6c.5.3 1.1-.1.9-.7l-1.3-4.2 3.6-2.6c.5-.3.2-1.1-.3-1.1h-4.4l-1.4-4.2c-.5-.5-1.3-.5-1.4 0zM204.7 260l-1.4 4.2h-4.4c-.6 0-.8.7-.3 1.1l3.6 2.6-1.3 4.2c-.2.5.4 1 .9.7l3.6-2.6 3.6 2.6c.5.3 1.1-.1.9-.7l-1.3-4.2 3.6-2.6c.5-.3.2-1.1-.3-1.1h-4.4l-1.4-4.2c-.4-.6-1.2-.6-1.4 0zM281.9 216.1l1.4 4.2h4.4c.6 0 .8.7.3 1.1l-3.6 2.6 1.3 4.2c.2.5-.4 1-.9.7l-3.6-2.6-3.6 2.6c-.5.3-1.1-.1-.9-.7l1.3-4.2-3.6-2.6c-.5-.3-.2-1.1.3-1.1h4.4l1.4-4.2c.4-.6 1.2-.6 1.4 0zM300.4 234.7l1.4 4.2h4.4c.6 0 .8.7.3 1.1l-3.6 2.6 1.3 4.2c.2.5-.4 1-.9.7l-3.6-2.6-3.6 2.6c-.5.3-1.1-.1-.9-.7l1.3-4.2-3.6-2.6c-.5-.3-.2-1.1.3-1.1h4.4l1.4-4.2c.5-.5 1.3-.5 1.4 0zM307.3 260l1.4 4.2h4.4c.6 0 .8.7.3 1.1l-3.6 2.6 1.3 4.2c.2.5-.4 1-.9.7l-3.6-2.6-3.6 2.6c-.5.3-1.1-.1-.9-.7l1.3-4.2-3.6-2.6c-.5-.3-.2-1.1.3-1.1h4.4l1.4-4.2c.4-.6 1.2-.6 1.4 0z"/></svg>