<?xml version="1.0" encoding="utf-8"?>
<!-- Generator: Adobe Illustrator 25.0.0, SVG Export Plug-In . SVG Version: 6.00 Build 0)  -->
<svg version="1.1" id="Layer_1" xmlns="http://www.w3.org/2000/svg" xmlns:xlink="http://www.w3.org/1999/xlink" x="0px" y="0px"
	 viewBox="0 0 512 512" style="enable-background:new 0 0 512 512;" xml:space="preserve">
<style type="text/css">
	.st0{fill:#CC0000;}
	.st1{fill:#FFFFFF;}
	.st2{fill:#006600;}
	.st3{fill:#F8C300;}
</style>
<rect y="88" class="st0" width="512" height="112"/>
<rect y="200" class="st1" width="512" height="112"/>
<rect y="312" class="st2" width="512" height="112"/>
<g>
	<path class="st3" d="M227.1,287.5c3.7-1.8,5.8-4.9,7-7.1c6.6,4.3,12.2,2.8,15.1,1.5c2.9-1.3,5.2-3.5,6.8-5.8
		c1.6,2.2,3.9,4.4,6.8,5.8c2.9,1.4,8.6,2.8,15.1-1.5c1.1,2.2,3.3,5.2,7,7.1c2.1,1.1,4.4,1.6,7,1.6c2.6,0,5.4-0.6,8.4-1.7l-1.5-3.9
		c-4.8,1.8-8.8,1.9-12,0.3c-4.5-2.2-6-7.2-6-7.2l-0.9-3.1l-2.4,2c-4.3,3.6-8.8,4.5-12.9,2.5c-4.2-2-6.5-6-6.5-7.2v-17.9
		c0.9-2,2.9-3.4,5.2-3.4c0.8,0,1.6,0.2,2.3,0.5l2.6,1.2l-0.4-2.8c-0.8-5.9-5.9-10.3-11.8-10.3c-5.9,0-11,4.4-11.8,10.3l-0.4,2.8
		l2.6-1.2c0.8-0.3,1.5-0.5,2.3-0.5c2.3,0,4.3,1.4,5.2,3.4V271c0,1.2-2.3,5.2-6.5,7.2c-4.1,1.9-8.6,1.1-12.9-2.5l-2.4-2l-0.9,3
		c0,0-1.5,5-6,7.2c-3.2,1.6-7.3,1.5-12-0.3l-1.5,3.9c3,1.1,5.8,1.7,8.4,1.7C222.6,289.1,225,288.6,227.1,287.5z M248.7,246.6
		c-0.2,0-0.5,0-0.7,0c1.4-3.1,4.5-5.2,8-5.2c3.5,0,6.6,2.1,8,5.2c-3.2-0.3-6.3,1.3-8,3.8C254.4,248.1,251.7,246.6,248.7,246.6z"/>
	<path class="st3" d="M220.1,300.7l1.3,3.9c8.8-2.9,21.4-4.6,34.6-4.6c13.2,0,25.8,1.7,34.6,4.6l1.3-3.9c-9.2-3.1-22.3-4.8-35.9-4.8
		C242.4,295.9,229.3,297.6,220.1,300.7z"/>
	<path class="st3" d="M256,291.7c2.2,0,4.1-1.3,5.4-3c-0.9-0.5-2-0.8-3.3-1c0,0,0-0.1,0-0.1c0-1.8-0.8-3.3-2.1-4.1
		c-1.2,0.8-2.1,2.4-2.1,4.1c0,0,0,0.1,0,0.1c-1.3,0.2-2.4,0.5-3.3,1C251.9,290.5,253.8,291.7,256,291.7z"/>
	<path class="st3" d="M236.9,293.7c2.1-0.4,3.7-2.1,4.6-4c-0.9-0.3-2.1-0.4-3.4-0.3c0,0,0-0.1,0-0.1c-0.4-1.7-1.5-3.1-2.9-3.6
		c-1,1.1-1.6,2.7-1.2,4.5c0,0,0,0.1,0,0.1c-1.2,0.4-2.3,0.9-3,1.6C232.7,293.3,234.8,294.1,236.9,293.7z"/>
	<path class="st3" d="M276.7,285.6c-1.4,0.6-2.5,1.9-2.9,3.6c0,0,0,0.1,0,0.1c-1.3-0.1-2.5,0-3.4,0.3c0.9,2,2.5,3.6,4.6,4
		c2.1,0.4,4.2-0.4,5.9-1.9c-0.7-0.7-1.8-1.2-3-1.6c0,0,0-0.1,0-0.1C278.2,288.3,277.7,286.6,276.7,285.6z"/>
	<path class="st3" d="M255.4,209.1l-1.4,4.2l-4.4,0c-0.6,0-0.8,0.7-0.3,1.1l3.6,2.6l-1.3,4.2c-0.2,0.5,0.4,1,0.9,0.7l3.6-2.6
		l3.6,2.6c0.5,0.3,1.1-0.1,0.9-0.7l-1.3-4.2l3.6-2.6c0.5-0.3,0.2-1.1-0.3-1.1l-4.4,0l-1.4-4.2C256.4,208.6,255.6,208.6,255.4,209.1z
		"/>
	<path class="st3" d="M230.1,216.1l-1.4,4.2l-4.4,0c-0.6,0-0.8,0.7-0.3,1.1l3.6,2.6l-1.3,4.2c-0.2,0.5,0.4,1,0.9,0.7l3.6-2.6
		l3.6,2.6c0.5,0.3,1.1-0.1,0.9-0.7l-1.3-4.2l3.6-2.6c0.5-0.3,0.2-1.1-0.3-1.1l-4.4,0l-1.4-4.2C231.1,215.5,230.3,215.5,230.1,216.1z
		"/>
	<path class="st3" d="M211.6,234.7l-1.4,4.2l-4.4,0c-0.6,0-0.8,0.7-0.3,1.1l3.6,2.6l-1.3,4.2c-0.2,0.5,0.4,1,0.9,0.7l3.6-2.6
		l3.6,2.6c0.5,0.3,1.1-0.1,0.9-0.7l-1.3-4.2l3.6-2.6c0.5-0.3,0.2-1.1-0.3-1.1l-4.4,0l-1.4-4.2C212.5,234.2,211.7,234.2,211.6,234.7z
		"/>
	<path class="st3" d="M204.7,260l-1.4,4.2l-4.4,0c-0.6,0-0.8,0.7-0.3,1.1l3.6,2.6l-1.3,4.2c-0.2,0.5,0.4,1,0.9,0.7l3.6-2.6l3.6,2.6
		c0.5,0.3,1.1-0.1,0.9-0.7l-1.3-4.2l3.6-2.6c0.5-0.3,0.2-1.1-0.3-1.1l-4.4,0l-1.4-4.2C205.7,259.4,204.9,259.4,204.7,260z"/>
	<path class="st3" d="M281.9,216.1l1.4,4.2l4.4,0c0.6,0,0.8,0.7,0.3,1.1l-3.6,2.6l1.3,4.2c0.2,0.5-0.4,1-0.9,0.7l-3.6-2.6l-3.6,2.6
		c-0.5,0.3-1.1-0.1-0.9-0.7l1.3-4.2l-3.6-2.6c-0.5-0.3-0.2-1.1,0.3-1.1l4.4,0l1.4-4.2C280.9,215.5,281.7,215.5,281.9,216.1z"/>
	<path class="st3" d="M300.4,234.7l1.4,4.2l4.4,0c0.6,0,0.8,0.7,0.3,1.1l-3.6,2.6l1.3,4.2c0.2,0.5-0.4,1-0.9,0.7l-3.6-2.6l-3.6,2.6
		c-0.5,0.3-1.1-0.1-0.9-0.7l1.3-4.2l-3.6-2.6c-0.5-0.3-0.2-1.1,0.3-1.1l4.4,0l1.4-4.2C299.5,234.2,300.3,234.2,300.4,234.7z"/>
	<path class="st3" d="M307.3,260l1.4,4.2l4.4,0c0.6,0,0.8,0.7,0.3,1.1l-3.6,2.6l1.3,4.2c0.2,0.5-0.4,1-0.9,0.7l-3.6-2.6l-3.6,2.6
		c-0.5,0.3-1.1-0.1-0.9-0.7l1.3-4.2l-3.6-2.6c-0.5-0.3-0.2-1.1,0.3-1.1l4.4,0l1.4-4.2C306.3,259.4,307.1,259.4,307.3,260z"/>
</g>
</svg>
