<svg version="1.1" id="Layer_1" xmlns="http://www.w3.org/2000/svg" x="0" y="0" viewBox="0 0 512 512" xml:space="preserve"><style>.st1{fill:#fff}.st2{fill:#fed100}</style><path fill="#00247d" d="M0 88h512v336H0z"/><g id="Group" transform="translate(50 34)"><path id="Path" class="st1" d="M160.7 142.9l3.7 11.3h11.9l-9.6 7 3.7 11.4-9.7-7-9.6 7 3.7-11.4-9.7-7H157z"/><path id="Path_1_" class="st1" d="M66.8 250.5l4.6 14.1h14.9l-12 8.8 4.6 14.2-12.1-8.8-12 8.8 4.6-14.2-12.1-8.8h14.9z"/><path id="Path_2_" class="st1" d="M94.7 88.2l4.6 14.2h14.9l-12.1 8.7 4.7 14.2-12.1-8.8-12.1 8.8 4.6-14.2-12-8.7h14.9z"/><path id="Path_3_" class="st1" d="M19.5 143.8l4.6 14.2H39l-12 8.8 4.6 14.1-12.1-8.7-12 8.7 4.6-14.1L0 158h14.9z"/></g><g id="Group_1_" transform="translate(109 48)"><path id="Path_4_" class="st2" d="M374.4 309H8.8S118 220.4 319.4 88.1c0 0-88.4 128.9 55 220.9z"/><path id="Path_5_" class="st2" d="M8.8 320.6c-11.2 0-11.2 17.4 0 17.4h365.6c11.2 0 11.2-17.4 0-17.4H8.8z"/></g></svg>