<?xml version="1.0" encoding="utf-8"?>
<!-- Generator: Adobe Illustrator 25.0.0, SVG Export Plug-In . SVG Version: 6.00 Build 0)  -->
<svg version="1.1" id="Layer_1" xmlns="http://www.w3.org/2000/svg" xmlns:xlink="http://www.w3.org/1999/xlink" x="0px" y="0px"
	 viewBox="0 0 512 512" style="enable-background:new 0 0 512 512;" xml:space="preserve">
<style type="text/css">
	.st0{fill:#28AE66;}
	.st1{fill:#CA3745;}
	.st2{fill:#FFFFFF;}
	.st3{fill:#FAAE29;}
</style>
<rect y="88" class="st0" width="70.6" height="336"/>
<rect x="158.9" y="88" class="st0" width="353.1" height="336"/>
<g id="banner">
	<rect x="70.6" y="88.3" class="st1" width="88.3" height="335.5"/>
	<polygon class="st2" points="150.1,126.5 132.4,141.2 97.1,141.2 79.4,126.5 79.4,111.8 97.1,97.1 132.4,97.1 150.1,111.8 	"/>
	<g>
		<polygon class="st0" points="150.1,250.1 132.4,264.8 97.1,264.8 79.4,250.1 79.4,235.4 97.1,220.7 132.4,220.7 150.1,235.4 		"/>
		<polygon class="st0" points="150.1,188.3 132.4,203 97.1,203 79.4,188.3 79.4,173.6 97.1,158.9 132.4,158.9 150.1,173.6 		"/>
		<polygon class="st0" points="150.1,311.9 132.4,326.6 97.1,326.6 79.4,311.9 79.4,297.2 97.1,282.5 132.4,282.5 150.1,297.2 		"/>
	</g>
	<g>
		<polygon class="st3" points="70.6,132.4 88.3,150.1 70.6,167.7 		"/>
		<polygon class="st3" points="158.9,167.7 141.2,150.1 158.9,132.4 		"/>
		<polygon class="st3" points="70.6,194.2 88.3,211.9 70.6,229.5 		"/>
		<polygon class="st3" points="158.9,229.5 141.2,211.9 158.9,194.2 		"/>
		<polygon class="st3" points="70.6,256 88.3,273.7 70.6,291.3 		"/>
		<polygon class="st3" points="158.9,291.3 141.2,273.7 158.9,256 		"/>
		<polygon class="st3" points="70.6,317.8 88.3,335.4 70.6,353.1 		"/>
		<polygon class="st3" points="158.9,353.1 141.2,335.4 158.9,317.8 		"/>
		<polygon class="st3" points="70.6,88.3 88.3,88.3 70.6,105.9 		"/>
		<polygon class="st3" points="158.9,105.9 141.2,88.3 158.9,88.3 		"/>
		<rect x="110.3" y="158.9" class="st3" width="8.8" height="44.1"/>
	</g>
	<rect x="97.1" y="176.5" class="st1" width="35.3" height="8.8"/>
	<g>
		<polygon class="st3" points="141.2,166.2 132.4,158.9 132.4,203 141.2,195.7 		"/>
		<polygon class="st3" points="88.3,195.7 97.1,203 97.1,158.9 88.3,166.2 		"/>
		<polygon class="st3" points="114.8,97.1 97.1,97.1 79.4,111.8 79.4,119.2 114.8,119.2 		"/>
		<polygon class="st3" points="114.8,141.2 132.4,141.2 150.1,126.5 150.1,119.2 114.8,119.2 		"/>
	</g>
	<polygon class="st1" points="114.8,132.4 97.1,119.2 114.8,105.9 132.4,119.2 	"/>
	<g>
		<polygon class="st0" points="114.8,132.4 132.4,119.2 132.3,119.2 114.8,119.2 		"/>
		<polygon class="st0" points="114.8,119.2 114.8,105.9 97.2,119.2 		"/>
	</g>
	<rect x="97.1" y="229.5" class="st1" width="35.3" height="26.5"/>
	<rect x="132.4" y="238.3" class="st3" width="8.8" height="8.8"/>
	<rect x="110.3" y="238.3" class="st2" width="8.8" height="8.8"/>
	<rect x="110.3" y="291.3" class="st1" width="8.8" height="8.8"/>
	<g>
		<rect x="123.6" y="300.1" class="st3" width="8.8" height="8.8"/>
		<rect x="97.1" y="300.1" class="st3" width="8.8" height="8.8"/>
	</g>
	<rect x="110.3" y="309" class="st1" width="8.8" height="8.8"/>
	<rect x="88.3" y="238.3" class="st3" width="8.8" height="8.8"/>
	<polygon class="st2" points="150.1,373.7 132.4,388.4 97.1,388.4 79.4,373.7 79.4,359 97.1,344.3 132.4,344.3 150.1,359 	"/>
	<g>
		<polygon class="st3" points="114.8,344.3 97.1,344.3 79.4,359 79.4,366.3 114.8,366.3 		"/>
		<polygon class="st3" points="114.8,388.4 132.4,388.4 150.1,373.7 150.1,366.3 114.8,366.3 		"/>
	</g>
	<polygon class="st1" points="132.4,370.8 114.8,379.6 97.1,370.8 97.1,361.9 114.8,353.1 132.4,361.9 	"/>
</g>
<g>
	<path class="st2" d="M280,136.3c-0.9-0.5-1.8,0.8-1,1.5c10,9.4,16.3,22.7,16.3,37.4c0,29-23.3,52.3-52,52.3
		c-5.3,0-10.4-0.8-15.2-2.3c-1-0.3-1.6,1-0.8,1.6c8.4,5.8,18.5,9.3,29.5,9.3c29,0,52.8-23.3,52.8-52.7
		C309.6,162.8,297.5,144.9,280,136.3z"/>
	<path class="st2" d="M208.2,170.4l-2.2,6.1l5.1,4c0.7,0.5,0.3,1.6-0.6,1.6l-6.5-0.2l-2.3,6.1c-0.3,0.8-1.4,0.7-1.7-0.1l-1.8-6.2
		l-6.5-0.3c-0.8,0-1.1-1.1-0.5-1.6l5.3-3.7L195,170c-0.2-0.8,0.7-1.4,1.4-0.9l5.1,3.9l5.4-3.6C207.6,168.9,208.5,169.6,208.2,170.4z
		"/>
	<path class="st2" d="M234.4,183.6l-2.2,6.1l5.1,4c0.7,0.5,0.3,1.6-0.6,1.6l-6.5-0.2l-2.3,6.1c-0.3,0.8-1.4,0.7-1.7-0.1l-1.8-6.2
		l-6.5-0.3c-0.8,0-1.1-1.1-0.5-1.6l5.3-3.7l-1.7-6.2c-0.2-0.8,0.7-1.4,1.4-0.9l5.1,3.9l5.4-3.6C233.8,182.2,234.7,182.9,234.4,183.6
		z"/>
	<path class="st2" d="M234.1,156.4l-2.2,6.1l5.1,4c0.7,0.5,0.3,1.6-0.6,1.6l-6.5-0.2l-2.3,6.1c-0.3,0.8-1.4,0.7-1.7-0.1l-1.8-6.2
		l-6.5-0.3c-0.8,0-1.1-1.1-0.5-1.6l5.3-3.7l-1.7-6.2c-0.2-0.8,0.7-1.4,1.4-0.9l5.1,3.9l5.4-3.6C233.5,154.9,234.4,155.6,234.1,156.4
		z"/>
	<path class="st2" d="M235,130l-2.2,6.1l5.1,4c0.7,0.5,0.3,1.6-0.6,1.6l-6.5-0.2l-2.3,6.1c-0.3,0.8-1.4,0.7-1.7-0.1l-1.8-6.2
		l-6.5-0.3c-0.8,0-1.1-1.1-0.5-1.6l5.3-3.7l-1.7-6.2c-0.2-0.8,0.7-1.4,1.4-0.9l5.1,3.9l5.4-3.6C234.4,128.5,235.3,129.2,235,130z"/>
	<path class="st2" d="M260.7,143.3l-2.2,6.1l5.1,4c0.7,0.5,0.3,1.6-0.6,1.6l-6.5-0.2l-2.3,6.1c-0.3,0.8-1.4,0.7-1.7-0.1l-1.8-6.2
		l-6.5-0.3c-0.8,0-1.1-1.1-0.5-1.6l5.3-3.7l-1.7-6.2c-0.2-0.8,0.7-1.4,1.4-0.9l5.1,3.9l5.4-3.6C260.1,141.8,261,142.5,260.7,143.3z"
		/>
</g>
</svg>
