<svg version="1.1" id="Layer_1" xmlns="http://www.w3.org/2000/svg" x="0" y="0" viewBox="0 0 512 512" xml:space="preserve"><style>.st0{fill:#28ae66}.st1{fill:#ca3745}.st2{fill:#fff}.st3{fill:#faae29}</style><path class="st0" d="M0 88h70.6v336H0zM158.9 88H512v336H158.9z"/><g id="banner"><path class="st1" d="M70.6 88.3h88.3v335.5H70.6z"/><path class="st2" d="M150.1 126.5l-17.7 14.7H97.1l-17.7-14.7v-14.7l17.7-14.7h35.3l17.7 14.7z"/><path class="st0" d="M150.1 250.1l-17.7 14.7H97.1l-17.7-14.7v-14.7l17.7-14.7h35.3l17.7 14.7zM150.1 188.3L132.4 203H97.1l-17.7-14.7v-14.7l17.7-14.7h35.3l17.7 14.7zM150.1 311.9l-17.7 14.7H97.1l-17.7-14.7v-14.7l17.7-14.7h35.3l17.7 14.7z"/><path class="st3" d="M70.6 132.4l17.7 17.7-17.7 17.6zM158.9 167.7l-17.7-17.6 17.7-17.7zM70.6 194.2l17.7 17.7-17.7 17.6zM158.9 229.5l-17.7-17.6 17.7-17.7zM70.6 256l17.7 17.7-17.7 17.6zM158.9 291.3l-17.7-17.6 17.7-17.7zM70.6 317.8l17.7 17.6-17.7 17.7zM158.9 353.1l-17.7-17.7 17.7-17.6zM70.6 88.3h17.7l-17.7 17.6zM158.9 105.9l-17.7-17.6h17.7zM110.3 158.9h8.8V203h-8.8z"/><path class="st1" d="M97.1 176.5h35.3v8.8H97.1z"/><path class="st3" d="M141.2 166.2l-8.8-7.3V203l8.8-7.3zM88.3 195.7l8.8 7.3v-44.1l-8.8 7.3zM114.8 97.1H97.1l-17.7 14.7v7.4h35.4zM114.8 141.2h17.6l17.7-14.7v-7.3h-35.3z"/><path class="st1" d="M114.8 132.4l-17.7-13.2 17.7-13.3 17.6 13.3z"/><g><path class="st0" d="M114.8 132.4l17.6-13.2h-17.6zM114.8 119.2v-13.3l-17.6 13.3z"/></g><path class="st1" d="M97.1 229.5h35.3V256H97.1z"/><path class="st3" d="M132.4 238.3h8.8v8.8h-8.8z"/><path class="st2" d="M110.3 238.3h8.8v8.8h-8.8z"/><path class="st1" d="M110.3 291.3h8.8v8.8h-8.8z"/><g><path class="st3" d="M123.6 300.1h8.8v8.8h-8.8zM97.1 300.1h8.8v8.8h-8.8z"/></g><path class="st1" d="M110.3 309h8.8v8.8h-8.8z"/><path class="st3" d="M88.3 238.3h8.8v8.8h-8.8z"/><path class="st2" d="M150.1 373.7l-17.7 14.7H97.1l-17.7-14.7V359l17.7-14.7h35.3l17.7 14.7z"/><g><path class="st3" d="M114.8 344.3H97.1L79.4 359v7.3h35.4zM114.8 388.4h17.6l17.7-14.7v-7.4h-35.3z"/></g><path class="st1" d="M132.4 370.8l-17.6 8.8-17.7-8.8v-8.9l17.7-8.8 17.6 8.8z"/></g><path class="st2" d="M280 136.3c-.9-.5-1.8.8-1 1.5 10 9.4 16.3 22.7 16.3 37.4 0 29-23.3 52.3-52 52.3-5.3 0-10.4-.8-15.2-2.3-1-.3-1.6 1-.8 1.6 8.4 5.8 18.5 9.3 29.5 9.3 29 0 52.8-23.3 52.8-52.7 0-20.6-12.1-38.5-29.6-47.1zM208.2 170.4l-2.2 6.1 5.1 4c.7.5.3 1.6-.6 1.6l-6.5-.2-2.3 6.1c-.3.8-1.4.7-1.7-.1l-1.8-6.2-6.5-.3c-.8 0-1.1-1.1-.5-1.6l5.3-3.7-1.5-6.1c-.2-.8.7-1.4 1.4-.9l5.1 3.9 5.4-3.6c.7-.5 1.6.2 1.3 1zM234.4 183.6l-2.2 6.1 5.1 4c.7.5.3 1.6-.6 1.6l-6.5-.2-2.3 6.1c-.3.8-1.4.7-1.7-.1l-1.8-6.2-6.5-.3c-.8 0-1.1-1.1-.5-1.6l5.3-3.7-1.7-6.2c-.2-.8.7-1.4 1.4-.9l5.1 3.9 5.4-3.6c.9-.3 1.8.4 1.5 1.1zM234.1 156.4l-2.2 6.1 5.1 4c.7.5.3 1.6-.6 1.6l-6.5-.2-2.3 6.1c-.3.8-1.4.7-1.7-.1l-1.8-6.2-6.5-.3c-.8 0-1.1-1.1-.5-1.6l5.3-3.7-1.7-6.2c-.2-.8.7-1.4 1.4-.9l5.1 3.9 5.4-3.6c.9-.4 1.8.3 1.5 1.1zM235 130l-2.2 6.1 5.1 4c.7.5.3 1.6-.6 1.6l-6.5-.2-2.3 6.1c-.3.8-1.4.7-1.7-.1l-1.8-6.2-6.5-.3c-.8 0-1.1-1.1-.5-1.6l5.3-3.7-1.7-6.2c-.2-.8.7-1.4 1.4-.9l5.1 3.9 5.4-3.6c.9-.4 1.8.3 1.5 1.1zM260.7 143.3l-2.2 6.1 5.1 4c.7.5.3 1.6-.6 1.6l-6.5-.2-2.3 6.1c-.3.8-1.4.7-1.7-.1l-1.8-6.2-6.5-.3c-.8 0-1.1-1.1-.5-1.6l5.3-3.7-1.7-6.2c-.2-.8.7-1.4 1.4-.9l5.1 3.9 5.4-3.6c.9-.4 1.8.3 1.5 1.1z"/></svg>