<svg version="1.1" id="Layer_1" xmlns="http://www.w3.org/2000/svg" x="0" y="0" viewBox="0 0 512 512" xml:space="preserve"><style>.st0{fill:#e30a17}</style><path class="st0" d="M0 88h512v336H0z"/><path d="M257 167.7c48.7 0 88.2 39.6 88.2 88.3 0 48.8-39.5 88.3-88.2 88.3-48.8 0-88.3-39.5-88.3-88.3 0-48.7 39.5-88.3 88.3-88.3" fill="#fff"/><path class="st0" d="M273 305.5c-27.3 0-49.5-22.2-49.5-49.5 0-27.2 22.2-49.4 49.5-49.4 9.3 0 18 2.6 25.4 7.1 1.1.7 2.3-.8 1.4-1.7-11.1-11-26.4-17.8-43.2-17.8-34.2 0-61.9 27.7-61.9 61.8 0 34.1 27.7 61.8 61.9 61.8 16.8 0 32.1-6.8 43.2-17.8.9-.9-.2-2.4-1.4-1.7-7.4 4.6-16.1 7.2-25.4 7.2z"/><path class="st0" d="M268.5 221.4l13.6 18.5L304 233c2.8-.9 5.2 2.3 3.5 4.8l-13.4 18.7 13.4 18.7c1.7 2.4-.6 5.7-3.5 4.8l-21.9-7-13.7 18.5c-1.8 2.4-5.6 1.2-5.6-1.8l-.1-23-21.8-7.3c-2.8-.9-2.8-4.9 0-5.9l21.8-7.3.2-23c.1-3 3.9-4.2 5.6-1.8z"/></svg>