<svg version="1.1" id="Layer_1" xmlns="http://www.w3.org/2000/svg" x="0" y="0" viewBox="0 0 512 512" xml:space="preserve"><style>.st1{fill:#fff}</style><path fill="#e30a17" d="M0 88h512v336H0z"/><path class="st1" d="M253.5 225.8l13.8 18.1 21.6-7.2c1.2-.4 2.2 1 1.5 2l-12.9 18.8 13.6 18.3c.8 1-.2 2.4-1.4 2.1l-21.8-6.5-13.2 18.5c-.7 1-2.4.5-2.4-.7l-.6-22.8-21.7-6.8c-1.2-.4-1.2-2.1 0-2.5l21.5-7.6-.2-22.8c-.2-1.4 1.4-2 2.2-.9zM177 326.7c-39 0-70.6-31.6-70.6-70.7 0-39 31.6-70.7 70.6-70.7 14.5 0 27.9 4.5 39 12 1.7 1.2 3.7-1.1 2.2-2.6-16.7-17.3-40.2-27.9-66.4-27-44.9 1.5-82.1 37.6-85 82.4-3.3 51.4 37.4 94.1 88.1 94.1 25 0 47.4-10.4 63.4-27.1 1.4-1.5-.5-3.7-2.2-2.5-11.2 7.6-24.6 12.1-39.1 12.1z"/></svg>