<svg version="1.1" id="Layer_1" xmlns="http://www.w3.org/2000/svg" x="0" y="0" viewBox="0 0 512 512" xml:space="preserve"><style>.st0{fill:#f5f5f5}.st1{fill:#fff}.st2{fill:#ce1126}</style><path class="st0" d="M8.8 88.3c-2.4 0-4.5 1-6.1 2.5l359.2 332.9h26.5L26.5 88.3H8.8zM150.1 88.3h-26.5l361.9 335.4h17.7c2.4 0 4.5-1 6.1-2.5L150.1 88.3z"/><path d="M26.5 88l361.9 336h97.1L123.6 88z"/><path class="st1" d="M26.5 88H0l14.2 13.2L362 424h26.4zM497.8 410.8L150 88h-26.4l361.9 336H512z"/><path class="st2" d="M0 88v336h362L14.2 101.2zM150 88l347.8 322.8L512 424V88z"/></svg>