<?xml version="1.0" encoding="utf-8"?>
<!-- Generator: Adobe Illustrator 25.0.0, SVG Export Plug-In . SVG Version: 6.00 Build 0)  -->
<svg version="1.1" id="Layer_1" xmlns="http://www.w3.org/2000/svg" xmlns:xlink="http://www.w3.org/1999/xlink" x="0px" y="0px"
	 viewBox="0 0 512 512" style="enable-background:new 0 0 512 512;" xml:space="preserve">
<style type="text/css">
	.st0{fill:#F5F5F5;}
	.st1{fill:#FFFFFF;}
	.st2{fill:#CE1126;}
</style>
<g>
	<path class="st0" d="M8.8,88.3c-2.4,0-4.5,1-6.1,2.5l359.2,332.9h26.5L26.5,88.3H8.8z"/>
	<path class="st0" d="M150.1,88.3h-26.5l361.9,335.4h17.7c2.4,0,4.5-1,6.1-2.5L150.1,88.3z"/>
</g>
<polygon points="26.5,88 388.4,424 485.5,424 123.6,88 "/>
<polygon class="st1" points="26.5,88 0,88 14.2,101.2 362,424 388.4,424 "/>
<polygon class="st1" points="497.8,410.8 150,88 123.6,88 485.5,424 512,424 "/>
<polygon class="st2" points="0,88 0,88 0,424 362,424 14.2,101.2 "/>
<polygon class="st2" points="150,88 497.8,410.8 512,424 512,424 512,88 "/>
</svg>
