<svg version="1.1" id="Layer_1" xmlns="http://www.w3.org/2000/svg" x="0" y="0" viewBox="0 0 512 512" xml:space="preserve"><style>.st3{fill:#ff4b55}.st4{fill:#ffce00}.st6{fill:#fff}.st7{fill:#c8102e}</style><path fill="#5b97b1" d="M256.1 88v168.2H0V424h512V88z"/><path d="M247.2 256H8.8C4 256 0 252 0 247.2V97.1c0-4.9 4-8.8 8.8-8.8h238.3c4.9 0 8.8 4 8.8 8.8v150.1c.1 4.8-3.9 8.8-8.7 8.8z" fill="#41479b"/><path d="M247.2 88.3h-15.3l-81.8 53.6V88.3H106v53.6L24.2 88.3H8.8c-4.9 0-8.8 4-8.8 8.8v7l70.2 46H0v44.1h70.2L0 240.2v7c0 4.9 4 8.8 8.8 8.8h15.3l81.8-53.6V256H150v-53.6l81.8 53.6h15.3c4.9 0 8.8-4 8.8-8.8v-7l-70.2-46H256v-44.1h-70.2l70.2-46v-7c0-4.9-4-8.8-8.8-8.8z" fill="#f5f5f5"/><path class="st3" d="M256 158.9H141.2V88.3h-26.4v70.6H0v26.5h114.8V256h26.4v-70.6H256z"/><path class="st3" d="M97.1 150.1L4.2 89.8C1.7 91.3 0 94 0 97.1v.5l80.9 52.5h16.2zM166.3 150.1l88.4-57.4c-1.5-2.6-4.2-4.4-7.5-4.4h-1.9l-95.2 61.8h16.2zM89.5 194.2L1.3 251.5c1.5 2.7 4.3 4.5 7.6 4.5h1.7l95.2-61.8H89.5zM255.9 247.9l-82.7-53.7H157l93.9 60.9c2.8-1.3 4.7-4 5-7.2z"/><g><path class="st4" d="M218.7 353.4l-4.7 14.2-14.9.1c-1.4 0-2 1.8-.9 2.7l12 8.9-4.5 14.2c-.4 1.4 1.1 2.5 2.3 1.7l12.2-8.7 12.2 8.7c1.2.8 2.7-.3 2.3-1.7l-4.5-14.2 12-8.9c1.2-.9.6-2.7-.9-2.7l-14.9-.1-4.7-14.2c-.7-1.4-2.6-1.4-3 0zM448.7 243l-4.7 14.2-14.9.1c-1.4 0-2 1.8-.9 2.7l12 8.9-4.5 14.2c-.4 1.4 1.1 2.5 2.3 1.7l12.2-8.7 12.2 8.7c1.2.8 2.7-.3 2.3-1.7l-4.5-14.2 12-8.9c1.2-.9.6-2.7-.9-2.7l-14.9-.1-4.7-14.2c-.6-1.3-2.5-1.3-3 0zM448.7 123.8L444 138l-14.9.1c-1.4 0-2 1.8-.9 2.7l12 8.9-4.5 14.2c-.4 1.4 1.1 2.5 2.3 1.7l12.2-8.7 12.2 8.7c1.2.8 2.7-.3 2.3-1.7l-4.5-14.2 12-8.9c1.2-.9.6-2.7-.9-2.7l-14.9-.1-4.7-14.2c-.6-1.3-2.5-1.3-3 0zM277.8 278.8l4.7 14.2-11.9 9c-1.1.9-.5 2.7.9 2.7l14.9-.1 4.9 14.1c.5 1.4 2.4 1.3 2.8 0l4.6-14.2 14.9-.3c1.4 0 2-1.9.8-2.7l-12.1-8.7 4.3-14.3c.4-1.4-1.2-2.5-2.3-1.6l-12.1 8.8-12.2-8.5c-1.1-.9-2.6.3-2.2 1.6zM276.7 340.1l4.7 14.2-11.9 9c-1.1.9-.5 2.7.9 2.7l14.9-.1 4.9 14.1c.5 1.4 2.4 1.3 2.8 0l4.6-14.2 14.9-.3c1.4 0 2-1.9.8-2.7l-12.1-8.7 4.3-14.3c.4-1.4-1.2-2.5-2.3-1.6l-12.1 8.8-12.2-8.5c-1.1-1-2.6.2-2.2 1.6zM341.3 324.6l4.7 14.2-11.9 9c-1.1.9-.5 2.7.9 2.7l14.9-.1 4.9 14.1c.5 1.4 2.4 1.3 2.8 0l4.6-14.2 14.9-.3c1.4 0 2-1.9.8-2.7l-12.1-8.7 4.3-14.3c.4-1.4-1.2-2.5-2.3-1.6l-12.1 8.8-12.2-8.5c-1.1-.9-2.7.2-2.2 1.6zM340.2 191.1l4.7 14.2-11.9 9c-1.1.9-.5 2.7.9 2.7l14.9-.1 4.9 14.1c.5 1.4 2.4 1.3 2.8 0l4.6-14.2 14.9-.3c1.4 0 2-1.9.8-2.7l-12.1-8.7 4.3-14.3c.4-1.4-1.2-2.5-2.3-1.6l-12.1 8.8-12.2-8.5c-1.1-.9-2.7.2-2.2 1.6zM394.8 172.9l4.7 14.2-11.9 9c-1.1.9-.5 2.7.9 2.7l14.9-.1 4.9 14.1c.5 1.4 2.4 1.3 2.8 0l4.6-14.2 14.9-.3c1.4 0 2-1.9.8-2.7l-12.1-8.7 4.3-14.3c.4-1.4-1.2-2.5-2.3-1.6l-12.1 8.8-12.2-8.5c-1.1-.9-2.7.2-2.2 1.6z"/></g><g id="Union_flag"><path fill="#012169" d="M0 88h256.1v168.2H0z"/><path class="st6" d="M106 150.1v-7.9L22.7 88H0v17l69.3 45.1zM106 194.1H70.8L0 240.1v16.1h24.2l81.8-53.3zM233.9 88L150 142.5v7.6h37.3l68.8-44.8V88zM150 194.1v8.5l82.5 53.6h23.6v-16.4l-70.2-45.7z"/><path class="st6" d="M256.1 150.1H150V88h-44v62.1H0v44h106v62.1h44v-62.1h106.1z"/><path class="st7" d="M256.1 158.8H141.3V88h-26.5v70.8H0v26.5h114.8v70.9h26.5v-70.9h114.8z"/><path class="st7" d="M97.2 150.1L1.7 88H0v9.6l80.7 52.5zM106 194.1H89.6L0 252.4v3.8h10.6zM157.3 194.1l95.5 62.1h3.3v-8.6l-82.3-53.5zM245.4 88L150 150v.1h16.4l89.7-58.3V88z"/></g></svg>