<?xml version="1.0" encoding="utf-8"?>
<!-- Generator: Adobe Illustrator 25.0.0, SVG Export Plug-In . SVG Version: 6.00 Build 0)  -->
<svg version="1.1" id="Layer_1" xmlns="http://www.w3.org/2000/svg" xmlns:xlink="http://www.w3.org/1999/xlink" x="0px" y="0px"
	 viewBox="0 0 512 512" style="enable-background:new 0 0 512 512;" xml:space="preserve">
<style type="text/css">
	.st0{fill:#5B97B1;}
	.st1{fill:#41479B;}
	.st2{fill:#F5F5F5;}
	.st3{fill:#FF4B55;}
	.st4{fill:#FFCE00;}
	.st5{fill:#012169;}
	.st6{fill:#FFFFFF;}
	.st7{fill:#C8102E;}
</style>
<polygon class="st0" points="256.1,88 256.1,256.2 0,256.2 0,424 512,424 512,88 "/>
<path class="st1" d="M247.2,256H8.8C4,256,0,252,0,247.2V97.1c0-4.9,4-8.8,8.8-8.8h238.3c4.9,0,8.8,4,8.8,8.8v150.1
	C256,252,252,256,247.2,256z"/>
<path class="st2" d="M247.2,88.3h-15.3l-81.8,53.6V88.3h-44.1v53.6L24.2,88.3H8.8c-4.9,0-8.8,4-8.8,8.8v7l70.2,46H0v44.1h70.2
	L0,240.2v7c0,4.9,4,8.8,8.8,8.8h15.3l81.8-53.6V256h44.1v-53.6l81.8,53.6h15.3c4.9,0,8.8-4,8.8-8.8v-7l-70.2-46H256v-44.1h-70.2
	l70.2-46v-7C256,92.2,252,88.3,247.2,88.3z"/>
<g>
	<polygon class="st3" points="256,158.9 141.2,158.9 141.2,88.3 114.8,88.3 114.8,158.9 0,158.9 0,185.4 114.8,185.4 114.8,256 
		141.2,256 141.2,185.4 256,185.4 	"/>
	<path class="st3" d="M97.1,150.1L4.2,89.8C1.7,91.3,0,94,0,97.1v0.5l80.9,52.5L97.1,150.1L97.1,150.1z"/>
	<path class="st3" d="M166.3,150.1l88.4-57.4c-1.5-2.6-4.2-4.4-7.5-4.4h-1.9l-95.2,61.8H166.3z"/>
	<path class="st3" d="M89.5,194.2L1.3,251.5c1.5,2.7,4.3,4.5,7.6,4.5h1.7l95.2-61.8L89.5,194.2L89.5,194.2z"/>
	<path class="st3" d="M255.9,247.9l-82.7-53.7H157l93.9,60.9C253.7,253.8,255.6,251.1,255.9,247.9z"/>
</g>
<g>
	<path class="st4" d="M218.7,353.4l-4.7,14.2l-14.9,0.1c-1.4,0-2,1.8-0.9,2.7l12,8.9l-4.5,14.2c-0.4,1.4,1.1,2.5,2.3,1.7l12.2-8.7
		l12.2,8.7c1.2,0.8,2.7-0.3,2.3-1.7l-4.5-14.2l12-8.9c1.2-0.9,0.6-2.7-0.9-2.7l-14.9-0.1l-4.7-14.2C221,352,219.1,352,218.7,353.4z"
		/>
	<path class="st4" d="M448.7,243l-4.7,14.2l-14.9,0.1c-1.4,0-2,1.8-0.9,2.7l12,8.9l-4.5,14.2c-0.4,1.4,1.1,2.5,2.3,1.7l12.2-8.7
		l12.2,8.7c1.2,0.8,2.7-0.3,2.3-1.7l-4.5-14.2l12-8.9c1.2-0.9,0.6-2.7-0.9-2.7l-14.9-0.1l-4.7-14.2
		C451.1,241.7,449.2,241.7,448.7,243z"/>
	<path class="st4" d="M448.7,123.8L444,138l-14.9,0.1c-1.4,0-2,1.8-0.9,2.7l12,8.9l-4.5,14.2c-0.4,1.4,1.1,2.5,2.3,1.7l12.2-8.7
		l12.2,8.7c1.2,0.8,2.7-0.3,2.3-1.7l-4.5-14.2l12-8.9c1.2-0.9,0.6-2.7-0.9-2.7l-14.9-0.1l-4.7-14.2
		C451.1,122.5,449.2,122.5,448.7,123.8z"/>
	<path class="st4" d="M277.8,278.8l4.7,14.2l-11.9,9c-1.1,0.9-0.5,2.7,0.9,2.7l14.9-0.1l4.9,14.1c0.5,1.4,2.4,1.3,2.8,0l4.6-14.2
		l14.9-0.3c1.4,0,2-1.9,0.8-2.7l-12.1-8.7l4.3-14.3c0.4-1.4-1.2-2.5-2.3-1.6l-12.1,8.8l-12.2-8.5
		C278.9,276.3,277.4,277.5,277.8,278.8z"/>
	<path class="st4" d="M276.7,340.1l4.7,14.2l-11.9,9c-1.1,0.9-0.5,2.7,0.9,2.7l14.9-0.1l4.9,14.1c0.5,1.4,2.4,1.3,2.8,0l4.6-14.2
		l14.9-0.3c1.4,0,2-1.9,0.8-2.7l-12.1-8.7l4.3-14.3c0.4-1.4-1.2-2.5-2.3-1.6l-12.1,8.8l-12.2-8.5
		C277.8,337.5,276.3,338.7,276.7,340.1z"/>
	<path class="st4" d="M341.3,324.6l4.7,14.2l-11.9,9c-1.1,0.9-0.5,2.7,0.9,2.7l14.9-0.1l4.9,14.1c0.5,1.4,2.4,1.3,2.8,0l4.6-14.2
		l14.9-0.3c1.4,0,2-1.9,0.8-2.7l-12.1-8.7l4.3-14.3c0.4-1.4-1.2-2.5-2.3-1.6l-12.1,8.8l-12.2-8.5
		C342.4,322.1,340.8,323.2,341.3,324.6z"/>
	<path class="st4" d="M340.2,191.1l4.7,14.2l-11.9,9c-1.1,0.9-0.5,2.7,0.9,2.7l14.9-0.1l4.9,14.1c0.5,1.4,2.4,1.3,2.8,0l4.6-14.2
		l14.9-0.3c1.4,0,2-1.9,0.8-2.7l-12.1-8.7l4.3-14.3c0.4-1.4-1.2-2.5-2.3-1.6l-12.1,8.8l-12.2-8.5
		C341.3,188.6,339.7,189.7,340.2,191.1z"/>
	<path class="st4" d="M394.8,172.9l4.7,14.2l-11.9,9c-1.1,0.9-0.5,2.7,0.9,2.7l14.9-0.1l4.9,14.1c0.5,1.4,2.4,1.3,2.8,0l4.6-14.2
		l14.9-0.3c1.4,0,2-1.9,0.8-2.7l-12.1-8.7l4.3-14.3c0.4-1.4-1.2-2.5-2.3-1.6l-12.1,8.8l-12.2-8.5
		C395.9,170.4,394.3,171.5,394.8,172.9z"/>
</g>
<g id="Union_flag">
	<rect y="88" class="st5" width="256.1" height="168.2"/>
	<g>
		<polygon class="st6" points="106,150.1 106,142.2 22.7,88 0,88 0,105 69.3,150.1 		"/>
		<polygon class="st6" points="106,194.1 70.8,194.1 0,240.1 0,256.2 24.2,256.2 106,202.9 		"/>
		<polygon class="st6" points="233.9,88 150,142.5 150,150.1 187.3,150.1 256.1,105.3 256.1,88 		"/>
		<polygon class="st6" points="150,194.1 150,202.6 232.5,256.2 256.1,256.2 256.1,239.8 185.9,194.1 		"/>
	</g>
	<polygon class="st6" points="256.1,150.1 150,150.1 150,88 106,88 106,150.1 0,150.1 0,194.1 106,194.1 106,256.2 150,256.2 
		150,194.1 256.1,194.1 	"/>
	<polygon class="st7" points="256.1,158.8 141.3,158.8 141.3,88 114.8,88 114.8,158.8 0,158.8 0,185.3 114.8,185.3 114.8,256.2 
		141.3,256.2 141.3,185.3 256.1,185.3 	"/>
	<polygon class="st7" points="97.2,150.1 1.7,88 0,88 0,97.6 80.7,150.1 	"/>
	<polygon class="st7" points="106,194.1 89.6,194.1 0,252.4 0,256.2 10.6,256.2 	"/>
	<polygon class="st7" points="157.3,194.1 252.8,256.2 256.1,256.2 256.1,247.6 173.8,194.1 	"/>
	<polygon class="st7" points="245.4,88 150,150 150,150.1 166.4,150.1 256.1,91.8 256.1,88 	"/>
</g>
</svg>
