<?xml version="1.0" encoding="utf-8"?>
<!-- Generator: Adobe Illustrator 25.0.0, SVG Export Plug-In . SVG Version: 6.00 Build 0)  -->
<svg version="1.1" id="Layer_1" xmlns="http://www.w3.org/2000/svg" xmlns:xlink="http://www.w3.org/1999/xlink" x="0px" y="0px"
	 viewBox="0 0 512 512" style="enable-background:new 0 0 512 512;" xml:space="preserve">
<style type="text/css">
	.st0{fill:#000097;}
	.st1{fill:#FE0000;}
	.st2{fill:#FFFFFF;}
</style>
<rect y="88" class="st0" width="256" height="168"/>
<polygon class="st1" points="256,88 256,256 0,256 0,424 512,424 512,88 "/>
<g>
	<path class="st2" d="M96.4,172.1c0-8.7,3.5-16.6,9.2-22.3l-26.5-7.6c-1.5-0.4-2.6,1.5-1.5,2.6L97.5,164l-26.7,6.7
		c-1.6,0.4-1.6,2.6,0,3l26.7,6.7l-19.8,19.2c-1.1,1.1,0,3,1.5,2.6l26.5-7.6C99.9,188.8,96.4,180.9,96.4,172.1z"/>
	<path class="st2" d="M105.7,149.8c5.7-5.7,13.6-9.2,22.3-9.2s16.6,3.5,22.3,9.2l7.6-26.5c0.4-1.5-1.5-2.6-2.6-1.5l-19.2,19.8
		l-6.7-26.7c-0.4-1.6-2.6-1.6-3,0l-6.7,26.7l-19.2-19.8c-1.1-1.1-3,0-2.6,1.5L105.7,149.8z"/>
	<path class="st2" d="M150.3,194.5c-5.7,5.7-13.6,9.2-22.3,9.2s-16.6-3.5-22.3-9.2L98.1,221c-0.4,1.5,1.5,2.6,2.6,1.5l19.2-19.8
		l6.7,26.7c0.4,1.6,2.6,1.6,3,0l6.7-26.7l19.2,19.8c1.1,1.1,3,0,2.6-1.5L150.3,194.5z"/>
	<path class="st2" d="M185.2,170.6l-26.7-6.7l19.8-19.2c1.1-1.1,0-3-1.5-2.6l-26.5,7.6c5.7,5.7,9.2,13.6,9.2,22.3
		s-3.5,16.6-9.2,22.3l26.5,7.6c1.5,0.4,2.6-1.5,1.5-2.6l-19.8-19.2l26.7-6.7C186.8,173.2,186.8,171,185.2,170.6z"/>
	<circle class="st2" cx="128" cy="172.1" r="25.2"/>
</g>
</svg>
