<svg version="1.1" id="Layer_1" xmlns="http://www.w3.org/2000/svg" x="0" y="0" viewBox="0 0 512 512" xml:space="preserve"><style>.st2{fill:#fff}</style><path fill="#000097" d="M0 88h256v168H0z"/><path fill="#fe0000" d="M256 88v168H0v168h512V88z"/><path class="st2" d="M96.4 172.1c0-8.7 3.5-16.6 9.2-22.3l-26.5-7.6c-1.5-.4-2.6 1.5-1.5 2.6L97.5 164l-26.7 6.7c-1.6.4-1.6 2.6 0 3l26.7 6.7-19.8 19.2c-1.1 1.1 0 3 1.5 2.6l26.5-7.6c-5.8-5.8-9.3-13.7-9.3-22.5zM105.7 149.8c5.7-5.7 13.6-9.2 22.3-9.2s16.6 3.5 22.3 9.2l7.6-26.5c.4-1.5-1.5-2.6-2.6-1.5l-19.2 19.8-6.7-26.7c-.4-1.6-2.6-1.6-3 0l-6.7 26.7-19.2-19.8c-1.1-1.1-3 0-2.6 1.5l7.8 26.5z"/><path class="st2" d="M150.3 194.5c-5.7 5.7-13.6 9.2-22.3 9.2s-16.6-3.5-22.3-9.2L98.1 221c-.4 1.5 1.5 2.6 2.6 1.5l19.2-19.8 6.7 26.7c.4 1.6 2.6 1.6 3 0l6.7-26.7 19.2 19.8c1.1 1.1 3 0 2.6-1.5l-7.8-26.5zM185.2 170.6l-26.7-6.7 19.8-19.2c1.1-1.1 0-3-1.5-2.6l-26.5 7.6c5.7 5.7 9.2 13.6 9.2 22.3s-3.5 16.6-9.2 22.3l26.5 7.6c1.5.4 2.6-1.5 1.5-2.6l-19.8-19.2 26.7-6.7c1.6-.2 1.6-2.4 0-2.8z"/><circle class="st2" cx="128" cy="172.1" r="25.2"/></svg>