<svg version="1.1" id="Layer_1" xmlns="http://www.w3.org/2000/svg" x="0" y="0" viewBox="0 0 512 512" xml:space="preserve"><style>.st0{fill:#fcdc04}.st1{fill:#d90000}.st2{fill:#fff}</style><path d="M0 88h512v56H0z"/><path class="st0" d="M0 144h512v56H0z"/><path class="st1" d="M0 200h512v56H0z"/><path d="M0 256h512v56H0z"/><path class="st0" d="M0 312h512v56H0z"/><path class="st1" d="M0 368h512v56H0z"/><g id="Crest"><circle class="st2" cx="256" cy="256" r="53"/><path class="st1" d="M259.2 223.8l5.2-2.1c.8-.3 1.1-1.2.8-1.9-1.2-2.6-4.3-8-10.3-8.1-3.8-.1-6.6.7-8.2 1.4-.8.3-1.1 1.3-.7 2.1l3.1 5.4 10.1 3.2z"/><path class="st0" d="M254.9 211.6h-1.2l-.6 8.3 3 1.7 6.6-5.9c-1.7-2.1-4.2-4-7.8-4.1z"/><path d="M277.4 272.7l-23.6-27.5c0-5.7 2.1-10.3 3.2-12.5 3.2-1.4 5.3-5 4.5-9-.6-2.9-2.9-5.2-5.8-5.9-5.1-1.2-9.7 2.7-9.7 7.6 0 .2 0 .4.1.5-5.1 1.3-6 3-6 3s3.3-.9 6.2-1.6c.1.2.1.5.2.7l-5.7 1.9 6.2-.8c.7 1.3 1.7 2.3 3 3-4.7 3.8-11.8 10.8-11.8 18.8 0 7.3 5.4 12.1 12.2 15.4 2.4 1.1 4.6 2.6 6.3 4.5l.1.1.6 9h-13.3c-4.9 0-6.3 3.2-6.3 8.5l2.3-3.3 2 3.7.2-4.2 2.1 2.7s0-3.5 2.6-4c1.4-.2 6.3-.6 10.5-.6l.9 13.5c-5.6 0-12 2.6-12 2.6 2-.4 6.8.4 6.8.4l-.8 2.3c5.5-3 15.7-3.1 15.7-3.1s-2.2-1.5-7.4-2.1l.1-13.6h8.1l1.2-3.2s-4.2-5.6-4.2-8.5c6.4 1.5 11.5 1.7 11.5 1.7zm-16.7 7.4v-4.7c2.4 2.6 4.4 4.7 4.4 4.7h-4.4z"/><path d="M277.4 276.7c-2-7.9-10.6-10.3-19.7-15.7-9.8-5.9-3.9-15.7-3.9-15.7s32.9 9.7 35.4 23.6c1.9 10.8-5.9 17.7-9.8 19.7l1.4-3.9h-7.3s7.7-6 7.9-11.8l-4 3.8z" fill="#9ca69c"/><path class="st2" d="M289.2 268.8c-1.6-9.3-16.9-16.7-26.8-20.6-3.2-.4-6 5 2.7 10.8 11.7 7.8 12.3 17.7 12.3 17.7l3.9-3.9c-.1 5.8-7.9 11.8-7.9 11.8h7.3l-1.4 3.9c4-2 11.8-8.9 9.9-19.7z"/><path class="st1" d="M289.2 268.8c-1.1-6.2-8.2-11.5-15.7-15.5-3.6-1.1-6.8-.9-6.8-.9 2.2 1.4 3.2 4.8 3.2 4.8-1.6-1-5.2-.5-5.2-.5 1 .9 1.9 2.6 2.6 3.9 9.6 7.5 10.1 16.1 10.1 16.1l3.9-3.9c-.1 5.8-7.9 11.8-7.9 11.8h7.3l-1.4 3.9c4-2 11.8-8.9 9.9-19.7z"/><circle class="st2" cx="250.6" cy="224.8" r="1.3"/><path class="st1" d="M247.2 229.8s-2.9 3.4-1 4.3 3.7-1.8 3.7-1.8l-2.7-2.5z"/></g></svg>