<?xml version="1.0" encoding="utf-8"?>
<!-- Generator: Adobe Illustrator 25.0.0, SVG Export Plug-In . SVG Version: 6.00 Build 0)  -->
<svg version="1.1" id="Layer_1" xmlns="http://www.w3.org/2000/svg" xmlns:xlink="http://www.w3.org/1999/xlink" x="0px" y="0px"
	 viewBox="0 0 512 512" style="enable-background:new 0 0 512 512;" xml:space="preserve">
<style type="text/css">
	.st0{fill:#B22234;}
	.st1{fill:#FFFFFF;}
	.st2{fill:#3C3B6E;}
</style>
<rect y="346.5" class="st0" width="512" height="25.8"/>
<polygon class="st0" points="238.3,88 238.3,100.9 238.3,113.8 512,113.8 512,88 "/>
<rect x="238.3" y="113.8" class="st1" width="273.7" height="25.8"/>
<rect x="238.3" y="139.7" class="st0" width="273.7" height="25.8"/>
<rect x="238.3" y="165.5" class="st1" width="273.7" height="25.8"/>
<rect x="238.3" y="191.4" class="st0" width="273.7" height="25.8"/>
<rect x="238.3" y="217.2" class="st1" width="273.7" height="25.8"/>
<rect x="238.3" y="243.1" class="st0" width="273.7" height="25.8"/>
<rect y="268.9" class="st1" width="512" height="25.8"/>
<rect y="294.8" class="st0" width="512" height="25.8"/>
<rect y="372.3" class="st1" width="512" height="25.8"/>
<rect y="398.2" class="st0" width="512" height="25.8"/>
<g>
	<polygon class="st2" points="0,88 0,100.9 0,113.8 0,268.9 238.3,268.9 238.3,113.8 238.3,100.9 238.3,88 	"/>
	<g>
		<path class="st1" d="M24.8,108.5l2,5.9l6.2,0c0.8,0,1.1,1,0.5,1.5l-5,3.7l1.9,5.9c0.2,0.8-0.6,1.4-1.3,0.9l-5-3.6l-5,3.6
			c-0.7,0.5-1.5-0.2-1.3-0.9l1.9-5.9l-5-3.7c-0.6-0.5-0.3-1.5,0.5-1.5l6.2,0l2-5.9C23.5,107.8,24.5,107.8,24.8,108.5z"/>
		<path class="st1" d="M24.8,139.2l2,5.9l6.2,0c0.8,0,1.1,1,0.5,1.5l-5,3.7l1.9,5.9c0.2,0.8-0.6,1.4-1.3,0.9l-5-3.6l-5,3.6
			c-0.7,0.5-1.5-0.2-1.3-0.9l1.9-5.9l-5-3.7c-0.6-0.5-0.3-1.5,0.5-1.5l6.2,0l2-5.9C23.5,138.4,24.5,138.4,24.8,139.2z"/>
		<path class="st1" d="M24.8,169.8l2,5.9l6.2,0c0.8,0,1.1,1,0.5,1.5l-5,3.7l1.9,5.9c0.2,0.8-0.6,1.4-1.3,0.9l-5-3.6l-5,3.6
			c-0.7,0.5-1.5-0.2-1.3-0.9l1.9-5.9l-5-3.7c-0.6-0.5-0.3-1.5,0.5-1.5l6.2,0l2-5.9C23.5,169.1,24.5,169.1,24.8,169.8z"/>
		<path class="st1" d="M24.8,200.5l2,5.9l6.2,0c0.8,0,1.1,1,0.5,1.5l-5,3.7l1.9,5.9c0.2,0.8-0.6,1.4-1.3,0.9l-5-3.6l-5,3.6
			c-0.7,0.5-1.5-0.2-1.3-0.9l1.9-5.9l-5-3.7c-0.6-0.5-0.3-1.5,0.5-1.5l6.2,0l2-5.9C23.5,199.7,24.5,199.7,24.8,200.5z"/>
		<path class="st1" d="M24.8,231.2l2,5.9l6.2,0c0.8,0,1.1,1,0.5,1.5l-5,3.7l1.9,5.9c0.2,0.8-0.6,1.4-1.3,0.9l-5-3.6l-5,3.6
			c-0.7,0.5-1.5-0.2-1.3-0.9l1.9-5.9l-5-3.7c-0.6-0.5-0.3-1.5,0.5-1.5l6.2,0l2-5.9C23.5,230.4,24.5,230.4,24.8,231.2z"/>
		<path class="st1" d="M48.6,123.6l2,5.9l6.2,0c0.8,0,1.1,1,0.5,1.5l-5,3.7l1.9,5.9c0.2,0.8-0.6,1.4-1.3,0.9l-5-3.6l-5,3.6
			c-0.7,0.5-1.5-0.2-1.3-0.9l1.9-5.9l-5-3.7c-0.6-0.5-0.3-1.5,0.5-1.5l6.2,0l2-5.9C47.3,122.8,48.3,122.8,48.6,123.6z"/>
		<path class="st1" d="M48.6,154.2l2,5.9l6.2,0c0.8,0,1.1,1,0.5,1.5l-5,3.7l1.9,5.9c0.2,0.8-0.6,1.4-1.3,0.9l-5-3.6l-5,3.6
			c-0.7,0.5-1.5-0.2-1.3-0.9l1.9-5.9l-5-3.7c-0.6-0.5-0.3-1.5,0.5-1.5l6.2,0l2-5.9C47.3,153.5,48.3,153.5,48.6,154.2z"/>
		<path class="st1" d="M48.6,184.9l2,5.9l6.2,0c0.8,0,1.1,1,0.5,1.5l-5,3.7l1.9,5.9c0.2,0.8-0.6,1.4-1.3,0.9l-5-3.6l-5,3.6
			c-0.7,0.5-1.5-0.2-1.3-0.9l1.9-5.9l-5-3.7c-0.6-0.5-0.3-1.5,0.5-1.5l6.2,0l2-5.9C47.3,184.1,48.3,184.1,48.6,184.9z"/>
		<path class="st1" d="M48.6,215.5l2,5.9l6.2,0c0.8,0,1.1,1,0.5,1.5l-5,3.7l1.9,5.9c0.2,0.8-0.6,1.4-1.3,0.9l-5-3.6l-5,3.6
			c-0.7,0.5-1.5-0.2-1.3-0.9l1.9-5.9l-5-3.7c-0.6-0.5-0.3-1.5,0.5-1.5l6.2,0l2-5.9C47.3,214.8,48.3,214.8,48.6,215.5z"/>
		<path class="st1" d="M72.4,108.5l2,5.9l6.2,0c0.8,0,1.1,1,0.5,1.5l-5,3.7l1.9,5.9c0.2,0.8-0.6,1.4-1.3,0.9l-5-3.6l-5,3.6
			c-0.7,0.5-1.5-0.2-1.3-0.9l1.9-5.9l-5-3.7c-0.6-0.5-0.3-1.5,0.5-1.5l6.2,0l2-5.9C71,107.8,72.1,107.8,72.4,108.5z"/>
		<path class="st1" d="M72.4,139.2l2,5.9l6.2,0c0.8,0,1.1,1,0.5,1.5l-5,3.7l1.9,5.9c0.2,0.8-0.6,1.4-1.3,0.9l-5-3.6l-5,3.6
			c-0.7,0.5-1.5-0.2-1.3-0.9l1.9-5.9l-5-3.7c-0.6-0.5-0.3-1.5,0.5-1.5l6.2,0l2-5.9C71,138.4,72.1,138.4,72.4,139.2z"/>
		<path class="st1" d="M72.4,169.8l2,5.9l6.2,0c0.8,0,1.1,1,0.5,1.5l-5,3.7l1.9,5.9c0.2,0.8-0.6,1.4-1.3,0.9l-5-3.6l-5,3.6
			c-0.7,0.5-1.5-0.2-1.3-0.9l1.9-5.9l-5-3.7c-0.6-0.5-0.3-1.5,0.5-1.5l6.2,0l2-5.9C71,169.1,72.1,169.1,72.4,169.8z"/>
		<path class="st1" d="M72.4,200.5l2,5.9l6.2,0c0.8,0,1.1,1,0.5,1.5l-5,3.7l1.9,5.9c0.2,0.8-0.6,1.4-1.3,0.9l-5-3.6l-5,3.6
			c-0.7,0.5-1.5-0.2-1.3-0.9l1.9-5.9l-5-3.7c-0.6-0.5-0.3-1.5,0.5-1.5l6.2,0l2-5.9C71,199.7,72.1,199.7,72.4,200.5z"/>
		<path class="st1" d="M72.4,231.2l2,5.9l6.2,0c0.8,0,1.1,1,0.5,1.5l-5,3.7l1.9,5.9c0.2,0.8-0.6,1.4-1.3,0.9l-5-3.6l-5,3.6
			c-0.7,0.5-1.5-0.2-1.3-0.9l1.9-5.9l-5-3.7c-0.6-0.5-0.3-1.5,0.5-1.5l6.2,0l2-5.9C71,230.4,72.1,230.4,72.4,231.2z"/>
		<path class="st1" d="M96.2,123.6l2,5.9l6.2,0c0.8,0,1.1,1,0.5,1.5l-5,3.7l1.9,5.9c0.2,0.8-0.6,1.4-1.3,0.9l-5-3.6l-5,3.6
			c-0.7,0.5-1.5-0.2-1.3-0.9l1.9-5.9l-5-3.7c-0.6-0.5-0.3-1.5,0.5-1.5l6.2,0l2-5.9C94.8,122.8,95.9,122.8,96.2,123.6z"/>
		<path class="st1" d="M96.2,154.2l2,5.9l6.2,0c0.8,0,1.1,1,0.5,1.5l-5,3.7l1.9,5.9c0.2,0.8-0.6,1.4-1.3,0.9l-5-3.6l-5,3.6
			c-0.7,0.5-1.5-0.2-1.3-0.9l1.9-5.9l-5-3.7c-0.6-0.5-0.3-1.5,0.5-1.5l6.2,0l2-5.9C94.8,153.5,95.9,153.5,96.2,154.2z"/>
		<path class="st1" d="M96.2,184.9l2,5.9l6.2,0c0.8,0,1.1,1,0.5,1.5l-5,3.7l1.9,5.9c0.2,0.8-0.6,1.4-1.3,0.9l-5-3.6l-5,3.6
			c-0.7,0.5-1.5-0.2-1.3-0.9l1.9-5.9l-5-3.7c-0.6-0.5-0.3-1.5,0.5-1.5l6.2,0l2-5.9C94.8,184.1,95.9,184.1,96.2,184.9z"/>
		<path class="st1" d="M96.2,215.5l2,5.9l6.2,0c0.8,0,1.1,1,0.5,1.5l-5,3.7l1.9,5.9c0.2,0.8-0.6,1.4-1.3,0.9l-5-3.6l-5,3.6
			c-0.7,0.5-1.5-0.2-1.3-0.9l1.9-5.9l-5-3.7c-0.6-0.5-0.3-1.5,0.5-1.5l6.2,0l2-5.9C94.8,214.8,95.9,214.8,96.2,215.5z"/>
		<path class="st1" d="M120,108.5l2,5.9l6.2,0c0.8,0,1.1,1,0.5,1.5l-5,3.7l1.9,5.9c0.2,0.8-0.6,1.4-1.3,0.9l-5-3.6l-5,3.6
			c-0.7,0.5-1.5-0.2-1.3-0.9l1.9-5.9l-5-3.7c-0.6-0.5-0.3-1.5,0.5-1.5l6.2,0l2-5.9C118.6,107.8,119.7,107.8,120,108.5z"/>
		<path class="st1" d="M120,139.2l2,5.9l6.2,0c0.8,0,1.1,1,0.5,1.5l-5,3.7l1.9,5.9c0.2,0.8-0.6,1.4-1.3,0.9l-5-3.6l-5,3.6
			c-0.7,0.5-1.5-0.2-1.3-0.9l1.9-5.9l-5-3.7c-0.6-0.5-0.3-1.5,0.5-1.5l6.2,0l2-5.9C118.6,138.4,119.7,138.4,120,139.2z"/>
		<path class="st1" d="M120,169.8l2,5.9l6.2,0c0.8,0,1.1,1,0.5,1.5l-5,3.7l1.9,5.9c0.2,0.8-0.6,1.4-1.3,0.9l-5-3.6l-5,3.6
			c-0.7,0.5-1.5-0.2-1.3-0.9l1.9-5.9l-5-3.7c-0.6-0.5-0.3-1.5,0.5-1.5l6.2,0l2-5.9C118.6,169.1,119.7,169.1,120,169.8z"/>
		<path class="st1" d="M120,200.5l2,5.9l6.2,0c0.8,0,1.1,1,0.5,1.5l-5,3.7l1.9,5.9c0.2,0.8-0.6,1.4-1.3,0.9l-5-3.6l-5,3.6
			c-0.7,0.5-1.5-0.2-1.3-0.9l1.9-5.9l-5-3.7c-0.6-0.5-0.3-1.5,0.5-1.5l6.2,0l2-5.9C118.6,199.7,119.7,199.7,120,200.5z"/>
		<path class="st1" d="M120,231.2l2,5.9l6.2,0c0.8,0,1.1,1,0.5,1.5l-5,3.7l1.9,5.9c0.2,0.8-0.6,1.4-1.3,0.9l-5-3.6l-5,3.6
			c-0.7,0.5-1.5-0.2-1.3-0.9l1.9-5.9l-5-3.7c-0.6-0.5-0.3-1.5,0.5-1.5l6.2,0l2-5.9C118.6,230.4,119.7,230.4,120,231.2z"/>
		<path class="st1" d="M143.8,123.6l2,5.9l6.2,0c0.8,0,1.1,1,0.5,1.5l-5,3.7l1.9,5.9c0.2,0.8-0.6,1.4-1.3,0.9l-5-3.6l-5,3.6
			c-0.7,0.5-1.5-0.2-1.3-0.9l1.9-5.9l-5-3.7c-0.6-0.5-0.3-1.5,0.5-1.5l6.2,0l2-5.9C142.4,122.8,143.5,122.8,143.8,123.6z"/>
		<path class="st1" d="M143.8,154.2l2,5.9l6.2,0c0.8,0,1.1,1,0.5,1.5l-5,3.7l1.9,5.9c0.2,0.8-0.6,1.4-1.3,0.9l-5-3.6l-5,3.6
			c-0.7,0.5-1.5-0.2-1.3-0.9l1.9-5.9l-5-3.7c-0.6-0.5-0.3-1.5,0.5-1.5l6.2,0l2-5.9C142.4,153.5,143.5,153.5,143.8,154.2z"/>
		<path class="st1" d="M143.8,184.9l2,5.9l6.2,0c0.8,0,1.1,1,0.5,1.5l-5,3.7l1.9,5.9c0.2,0.8-0.6,1.4-1.3,0.9l-5-3.6l-5,3.6
			c-0.7,0.5-1.5-0.2-1.3-0.9l1.9-5.9l-5-3.7c-0.6-0.5-0.3-1.5,0.5-1.5l6.2,0l2-5.9C142.4,184.1,143.5,184.1,143.8,184.9z"/>
		<path class="st1" d="M143.8,215.5l2,5.9l6.2,0c0.8,0,1.1,1,0.5,1.5l-5,3.7l1.9,5.9c0.2,0.8-0.6,1.4-1.3,0.9l-5-3.6l-5,3.6
			c-0.7,0.5-1.5-0.2-1.3-0.9l1.9-5.9l-5-3.7c-0.6-0.5-0.3-1.5,0.5-1.5l6.2,0l2-5.9C142.4,214.8,143.5,214.8,143.8,215.5z"/>
		<path class="st1" d="M167.5,108.5l2,5.9l6.2,0c0.8,0,1.1,1,0.5,1.5l-5,3.7l1.9,5.9c0.2,0.8-0.6,1.4-1.3,0.9l-5-3.6l-5,3.6
			c-0.7,0.5-1.5-0.2-1.3-0.9l1.9-5.9l-5-3.7c-0.6-0.5-0.3-1.5,0.5-1.5l6.2,0l2-5.9C166.2,107.8,167.3,107.8,167.5,108.5z"/>
		<path class="st1" d="M167.5,139.2l2,5.9l6.2,0c0.8,0,1.1,1,0.5,1.5l-5,3.7l1.9,5.9c0.2,0.8-0.6,1.4-1.3,0.9l-5-3.6l-5,3.6
			c-0.7,0.5-1.5-0.2-1.3-0.9l1.9-5.9l-5-3.7c-0.6-0.5-0.3-1.5,0.5-1.5l6.2,0l2-5.9C166.2,138.4,167.3,138.4,167.5,139.2z"/>
		<path class="st1" d="M167.5,169.8l2,5.9l6.2,0c0.8,0,1.1,1,0.5,1.5l-5,3.7l1.9,5.9c0.2,0.8-0.6,1.4-1.3,0.9l-5-3.6l-5,3.6
			c-0.7,0.5-1.5-0.2-1.3-0.9l1.9-5.9l-5-3.7c-0.6-0.5-0.3-1.5,0.5-1.5l6.2,0l2-5.9C166.2,169.1,167.3,169.1,167.5,169.8z"/>
		<path class="st1" d="M167.5,200.5l2,5.9l6.2,0c0.8,0,1.1,1,0.5,1.5l-5,3.7l1.9,5.9c0.2,0.8-0.6,1.4-1.3,0.9l-5-3.6l-5,3.6
			c-0.7,0.5-1.5-0.2-1.3-0.9l1.9-5.9l-5-3.7c-0.6-0.5-0.3-1.5,0.5-1.5l6.2,0l2-5.9C166.2,199.7,167.3,199.7,167.5,200.5z"/>
		<path class="st1" d="M167.5,231.2l2,5.9l6.2,0c0.8,0,1.1,1,0.5,1.5l-5,3.7l1.9,5.9c0.2,0.8-0.6,1.4-1.3,0.9l-5-3.6l-5,3.6
			c-0.7,0.5-1.5-0.2-1.3-0.9l1.9-5.9l-5-3.7c-0.6-0.5-0.3-1.5,0.5-1.5l6.2,0l2-5.9C166.2,230.4,167.3,230.4,167.5,231.2z"/>
		<path class="st1" d="M191.3,123.6l2,5.9l6.2,0c0.8,0,1.1,1,0.5,1.5l-5,3.7l1.9,5.9c0.2,0.8-0.6,1.4-1.3,0.9l-5-3.6l-5,3.6
			c-0.7,0.5-1.5-0.2-1.3-0.9l1.9-5.9l-5-3.7c-0.6-0.5-0.3-1.5,0.5-1.5l6.2,0l2-5.9C190,122.8,191.1,122.8,191.3,123.6z"/>
		<path class="st1" d="M191.3,154.2l2,5.9l6.2,0c0.8,0,1.1,1,0.5,1.5l-5,3.7l1.9,5.9c0.2,0.8-0.6,1.4-1.3,0.9l-5-3.6l-5,3.6
			c-0.7,0.5-1.5-0.2-1.3-0.9l1.9-5.9l-5-3.7c-0.6-0.5-0.3-1.5,0.5-1.5l6.2,0l2-5.9C190,153.5,191.1,153.5,191.3,154.2z"/>
		<path class="st1" d="M191.3,184.9l2,5.9l6.2,0c0.8,0,1.1,1,0.5,1.5l-5,3.7l1.9,5.9c0.2,0.8-0.6,1.4-1.3,0.9l-5-3.6l-5,3.6
			c-0.7,0.5-1.5-0.2-1.3-0.9l1.9-5.9l-5-3.7c-0.6-0.5-0.3-1.5,0.5-1.5l6.2,0l2-5.9C190,184.1,191.1,184.1,191.3,184.9z"/>
		<path class="st1" d="M191.3,215.5l2,5.9l6.2,0c0.8,0,1.1,1,0.5,1.5l-5,3.7l1.9,5.9c0.2,0.8-0.6,1.4-1.3,0.9l-5-3.6l-5,3.6
			c-0.7,0.5-1.5-0.2-1.3-0.9l1.9-5.9l-5-3.7c-0.6-0.5-0.3-1.5,0.5-1.5l6.2,0l2-5.9C190,214.8,191.1,214.8,191.3,215.5z"/>
		<path class="st1" d="M215.1,108.5l2,5.9l6.2,0c0.8,0,1.1,1,0.5,1.5l-5,3.7l1.9,5.9c0.2,0.8-0.6,1.4-1.3,0.9l-5-3.6l-5,3.6
			c-0.7,0.5-1.5-0.2-1.3-0.9l1.9-5.9l-5-3.7c-0.6-0.5-0.3-1.5,0.5-1.5l6.2,0l2-5.9C213.8,107.8,214.9,107.8,215.1,108.5z"/>
		<path class="st1" d="M215.1,139.2l2,5.9l6.2,0c0.8,0,1.1,1,0.5,1.5l-5,3.7l1.9,5.9c0.2,0.8-0.6,1.4-1.3,0.9l-5-3.6l-5,3.6
			c-0.7,0.5-1.5-0.2-1.3-0.9l1.9-5.9l-5-3.7c-0.6-0.5-0.3-1.5,0.5-1.5l6.2,0l2-5.9C213.8,138.4,214.9,138.4,215.1,139.2z"/>
		<path class="st1" d="M215.1,169.8l2,5.9l6.2,0c0.8,0,1.1,1,0.5,1.5l-5,3.7l1.9,5.9c0.2,0.8-0.6,1.4-1.3,0.9l-5-3.6l-5,3.6
			c-0.7,0.5-1.5-0.2-1.3-0.9l1.9-5.9l-5-3.7c-0.6-0.5-0.3-1.5,0.5-1.5l6.2,0l2-5.9C213.8,169.1,214.9,169.1,215.1,169.8z"/>
		<path class="st1" d="M215.1,200.5l2,5.9l6.2,0c0.8,0,1.1,1,0.5,1.5l-5,3.7l1.9,5.9c0.2,0.8-0.6,1.4-1.3,0.9l-5-3.6l-5,3.6
			c-0.7,0.5-1.5-0.2-1.3-0.9l1.9-5.9l-5-3.7c-0.6-0.5-0.3-1.5,0.5-1.5l6.2,0l2-5.9C213.8,199.7,214.9,199.7,215.1,200.5z"/>
		<path class="st1" d="M215.1,231.2l2,5.9l6.2,0c0.8,0,1.1,1,0.5,1.5l-5,3.7l1.9,5.9c0.2,0.8-0.6,1.4-1.3,0.9l-5-3.6l-5,3.6
			c-0.7,0.5-1.5-0.2-1.3-0.9l1.9-5.9l-5-3.7c-0.6-0.5-0.3-1.5,0.5-1.5l6.2,0l2-5.9C213.8,230.4,214.9,230.4,215.1,231.2z"/>
	</g>
</g>
<rect y="320.6" class="st1" width="512" height="25.8"/>
</svg>
