<svg version="1.1" id="Layer_1" xmlns="http://www.w3.org/2000/svg" x="0" y="0" viewBox="0 0 512 512" xml:space="preserve"><style>.st0{fill:#b22234}.st1{fill:#fff}</style><path class="st0" d="M0 346.5h512v25.8H0zM238.3 88v25.8H512V88z"/><path class="st1" d="M238.3 113.8H512v25.8H238.3z"/><path class="st0" d="M238.3 139.7H512v25.8H238.3z"/><path class="st1" d="M238.3 165.5H512v25.8H238.3z"/><path class="st0" d="M238.3 191.4H512v25.8H238.3z"/><path class="st1" d="M238.3 217.2H512V243H238.3z"/><path class="st0" d="M238.3 243.1H512v25.8H238.3z"/><path class="st1" d="M0 268.9h512v25.8H0z"/><path class="st0" d="M0 294.8h512v25.8H0z"/><path class="st1" d="M0 372.3h512v25.8H0z"/><path class="st0" d="M0 398.2h512V424H0z"/><path fill="#3c3b6e" d="M0 88v180.9h238.3V88z"/><path class="st1" d="M24.8 108.5l2 5.9H33c.8 0 1.1 1 .5 1.5l-5 3.7 1.9 5.9c.2.8-.6 1.4-1.3.9l-5-3.6-5 3.6c-.7.5-1.5-.2-1.3-.9l1.9-5.9-5-3.7c-.6-.5-.3-1.5.5-1.5h6.2l2-5.9c.1-.7 1.1-.7 1.4 0zM24.8 139.2l2 5.9H33c.8 0 1.1 1 .5 1.5l-5 3.7 1.9 5.9c.2.8-.6 1.4-1.3.9l-5-3.6-5 3.6c-.7.5-1.5-.2-1.3-.9l1.9-5.9-5-3.7c-.6-.5-.3-1.5.5-1.5h6.2l2-5.9c.1-.8 1.1-.8 1.4 0zM24.8 169.8l2 5.9H33c.8 0 1.1 1 .5 1.5l-5 3.7 1.9 5.9c.2.8-.6 1.4-1.3.9l-5-3.6-5 3.6c-.7.5-1.5-.2-1.3-.9l1.9-5.9-5-3.7c-.6-.5-.3-1.5.5-1.5h6.2l2-5.9c.1-.7 1.1-.7 1.4 0zM24.8 200.5l2 5.9H33c.8 0 1.1 1 .5 1.5l-5 3.7 1.9 5.9c.2.8-.6 1.4-1.3.9l-5-3.6-5 3.6c-.7.5-1.5-.2-1.3-.9l1.9-5.9-5-3.7c-.6-.5-.3-1.5.5-1.5h6.2l2-5.9c.1-.8 1.1-.8 1.4 0zM24.8 231.2l2 5.9H33c.8 0 1.1 1 .5 1.5l-5 3.7 1.9 5.9c.2.8-.6 1.4-1.3.9l-5-3.6-5 3.6c-.7.5-1.5-.2-1.3-.9l1.9-5.9-5-3.7c-.6-.5-.3-1.5.5-1.5h6.2l2-5.9c.1-.8 1.1-.8 1.4 0zM48.6 123.6l2 5.9h6.2c.8 0 1.1 1 .5 1.5l-5 3.7 1.9 5.9c.2.8-.6 1.4-1.3.9l-5-3.6-5 3.6c-.7.5-1.5-.2-1.3-.9l1.9-5.9-5-3.7c-.6-.5-.3-1.5.5-1.5h6.2l2-5.9c.1-.8 1.1-.8 1.4 0zM48.6 154.2l2 5.9h6.2c.8 0 1.1 1 .5 1.5l-5 3.7 1.9 5.9c.2.8-.6 1.4-1.3.9l-5-3.6-5 3.6c-.7.5-1.5-.2-1.3-.9l1.9-5.9-5-3.7c-.6-.5-.3-1.5.5-1.5h6.2l2-5.9c.1-.7 1.1-.7 1.4 0zM48.6 184.9l2 5.9h6.2c.8 0 1.1 1 .5 1.5l-5 3.7 1.9 5.9c.2.8-.6 1.4-1.3.9l-5-3.6-5 3.6c-.7.5-1.5-.2-1.3-.9l1.9-5.9-5-3.7c-.6-.5-.3-1.5.5-1.5h6.2l2-5.9c.1-.8 1.1-.8 1.4 0zM48.6 215.5l2 5.9h6.2c.8 0 1.1 1 .5 1.5l-5 3.7 1.9 5.9c.2.8-.6 1.4-1.3.9l-5-3.6-5 3.6c-.7.5-1.5-.2-1.3-.9l1.9-5.9-5-3.7c-.6-.5-.3-1.5.5-1.5h6.2l2-5.9c.1-.7 1.1-.7 1.4 0zM72.4 108.5l2 5.9h6.2c.8 0 1.1 1 .5 1.5l-5 3.7 1.9 5.9c.2.8-.6 1.4-1.3.9l-5-3.6-5 3.6c-.7.5-1.5-.2-1.3-.9l1.9-5.9-5-3.7c-.6-.5-.3-1.5.5-1.5H69l2-5.9c0-.7 1.1-.7 1.4 0zM72.4 139.2l2 5.9h6.2c.8 0 1.1 1 .5 1.5l-5 3.7 1.9 5.9c.2.8-.6 1.4-1.3.9l-5-3.6-5 3.6c-.7.5-1.5-.2-1.3-.9l1.9-5.9-5-3.7c-.6-.5-.3-1.5.5-1.5H69l2-5.9c0-.8 1.1-.8 1.4 0zM72.4 169.8l2 5.9h6.2c.8 0 1.1 1 .5 1.5l-5 3.7 1.9 5.9c.2.8-.6 1.4-1.3.9l-5-3.6-5 3.6c-.7.5-1.5-.2-1.3-.9l1.9-5.9-5-3.7c-.6-.5-.3-1.5.5-1.5H69l2-5.9c0-.7 1.1-.7 1.4 0zM72.4 200.5l2 5.9h6.2c.8 0 1.1 1 .5 1.5l-5 3.7 1.9 5.9c.2.8-.6 1.4-1.3.9l-5-3.6-5 3.6c-.7.5-1.5-.2-1.3-.9l1.9-5.9-5-3.7c-.6-.5-.3-1.5.5-1.5H69l2-5.9c0-.8 1.1-.8 1.4 0zM72.4 231.2l2 5.9h6.2c.8 0 1.1 1 .5 1.5l-5 3.7 1.9 5.9c.2.8-.6 1.4-1.3.9l-5-3.6-5 3.6c-.7.5-1.5-.2-1.3-.9l1.9-5.9-5-3.7c-.6-.5-.3-1.5.5-1.5H69l2-5.9c0-.8 1.1-.8 1.4 0zM96.2 123.6l2 5.9h6.2c.8 0 1.1 1 .5 1.5l-5 3.7 1.9 5.9c.2.8-.6 1.4-1.3.9l-5-3.6-5 3.6c-.7.5-1.5-.2-1.3-.9l1.9-5.9-5-3.7c-.6-.5-.3-1.5.5-1.5h6.2l2-5.9c0-.8 1.1-.8 1.4 0zM96.2 154.2l2 5.9h6.2c.8 0 1.1 1 .5 1.5l-5 3.7 1.9 5.9c.2.8-.6 1.4-1.3.9l-5-3.6-5 3.6c-.7.5-1.5-.2-1.3-.9l1.9-5.9-5-3.7c-.6-.5-.3-1.5.5-1.5h6.2l2-5.9c0-.7 1.1-.7 1.4 0zM96.2 184.9l2 5.9h6.2c.8 0 1.1 1 .5 1.5l-5 3.7 1.9 5.9c.2.8-.6 1.4-1.3.9l-5-3.6-5 3.6c-.7.5-1.5-.2-1.3-.9l1.9-5.9-5-3.7c-.6-.5-.3-1.5.5-1.5h6.2l2-5.9c0-.8 1.1-.8 1.4 0zM96.2 215.5l2 5.9h6.2c.8 0 1.1 1 .5 1.5l-5 3.7 1.9 5.9c.2.8-.6 1.4-1.3.9l-5-3.6-5 3.6c-.7.5-1.5-.2-1.3-.9l1.9-5.9-5-3.7c-.6-.5-.3-1.5.5-1.5h6.2l2-5.9c0-.7 1.1-.7 1.4 0zM120 108.5l2 5.9h6.2c.8 0 1.1 1 .5 1.5l-5 3.7 1.9 5.9c.2.8-.6 1.4-1.3.9l-5-3.6-5 3.6c-.7.5-1.5-.2-1.3-.9l1.9-5.9-5-3.7c-.6-.5-.3-1.5.5-1.5h6.2l2-5.9c0-.7 1.1-.7 1.4 0zM120 139.2l2 5.9h6.2c.8 0 1.1 1 .5 1.5l-5 3.7 1.9 5.9c.2.8-.6 1.4-1.3.9l-5-3.6-5 3.6c-.7.5-1.5-.2-1.3-.9l1.9-5.9-5-3.7c-.6-.5-.3-1.5.5-1.5h6.2l2-5.9c0-.8 1.1-.8 1.4 0zM120 169.8l2 5.9h6.2c.8 0 1.1 1 .5 1.5l-5 3.7 1.9 5.9c.2.8-.6 1.4-1.3.9l-5-3.6-5 3.6c-.7.5-1.5-.2-1.3-.9l1.9-5.9-5-3.7c-.6-.5-.3-1.5.5-1.5h6.2l2-5.9c0-.7 1.1-.7 1.4 0zM120 200.5l2 5.9h6.2c.8 0 1.1 1 .5 1.5l-5 3.7 1.9 5.9c.2.8-.6 1.4-1.3.9l-5-3.6-5 3.6c-.7.5-1.5-.2-1.3-.9l1.9-5.9-5-3.7c-.6-.5-.3-1.5.5-1.5h6.2l2-5.9c0-.8 1.1-.8 1.4 0zM120 231.2l2 5.9h6.2c.8 0 1.1 1 .5 1.5l-5 3.7 1.9 5.9c.2.8-.6 1.4-1.3.9l-5-3.6-5 3.6c-.7.5-1.5-.2-1.3-.9l1.9-5.9-5-3.7c-.6-.5-.3-1.5.5-1.5h6.2l2-5.9c0-.8 1.1-.8 1.4 0zM143.8 123.6l2 5.9h6.2c.8 0 1.1 1 .5 1.5l-5 3.7 1.9 5.9c.2.8-.6 1.4-1.3.9l-5-3.6-5 3.6c-.7.5-1.5-.2-1.3-.9l1.9-5.9-5-3.7c-.6-.5-.3-1.5.5-1.5h6.2l2-5.9c0-.8 1.1-.8 1.4 0zM143.8 154.2l2 5.9h6.2c.8 0 1.1 1 .5 1.5l-5 3.7 1.9 5.9c.2.8-.6 1.4-1.3.9l-5-3.6-5 3.6c-.7.5-1.5-.2-1.3-.9l1.9-5.9-5-3.7c-.6-.5-.3-1.5.5-1.5h6.2l2-5.9c0-.7 1.1-.7 1.4 0zM143.8 184.9l2 5.9h6.2c.8 0 1.1 1 .5 1.5l-5 3.7 1.9 5.9c.2.8-.6 1.4-1.3.9l-5-3.6-5 3.6c-.7.5-1.5-.2-1.3-.9l1.9-5.9-5-3.7c-.6-.5-.3-1.5.5-1.5h6.2l2-5.9c0-.8 1.1-.8 1.4 0zM143.8 215.5l2 5.9h6.2c.8 0 1.1 1 .5 1.5l-5 3.7 1.9 5.9c.2.8-.6 1.4-1.3.9l-5-3.6-5 3.6c-.7.5-1.5-.2-1.3-.9l1.9-5.9-5-3.7c-.6-.5-.3-1.5.5-1.5h6.2l2-5.9c0-.7 1.1-.7 1.4 0zM167.5 108.5l2 5.9h6.2c.8 0 1.1 1 .5 1.5l-5 3.7 1.9 5.9c.2.8-.6 1.4-1.3.9l-5-3.6-5 3.6c-.7.5-1.5-.2-1.3-.9l1.9-5.9-5-3.7c-.6-.5-.3-1.5.5-1.5h6.2l2-5.9c.1-.7 1.2-.7 1.4 0zM167.5 139.2l2 5.9h6.2c.8 0 1.1 1 .5 1.5l-5 3.7 1.9 5.9c.2.8-.6 1.4-1.3.9l-5-3.6-5 3.6c-.7.5-1.5-.2-1.3-.9l1.9-5.9-5-3.7c-.6-.5-.3-1.5.5-1.5h6.2l2-5.9c.1-.8 1.2-.8 1.4 0zM167.5 169.8l2 5.9h6.2c.8 0 1.1 1 .5 1.5l-5 3.7 1.9 5.9c.2.8-.6 1.4-1.3.9l-5-3.6-5 3.6c-.7.5-1.5-.2-1.3-.9l1.9-5.9-5-3.7c-.6-.5-.3-1.5.5-1.5h6.2l2-5.9c.1-.7 1.2-.7 1.4 0zM167.5 200.5l2 5.9h6.2c.8 0 1.1 1 .5 1.5l-5 3.7 1.9 5.9c.2.8-.6 1.4-1.3.9l-5-3.6-5 3.6c-.7.5-1.5-.2-1.3-.9l1.9-5.9-5-3.7c-.6-.5-.3-1.5.5-1.5h6.2l2-5.9c.1-.8 1.2-.8 1.4 0zM167.5 231.2l2 5.9h6.2c.8 0 1.1 1 .5 1.5l-5 3.7 1.9 5.9c.2.8-.6 1.4-1.3.9l-5-3.6-5 3.6c-.7.5-1.5-.2-1.3-.9l1.9-5.9-5-3.7c-.6-.5-.3-1.5.5-1.5h6.2l2-5.9c.1-.8 1.2-.8 1.4 0zM191.3 123.6l2 5.9h6.2c.8 0 1.1 1 .5 1.5l-5 3.7 1.9 5.9c.2.8-.6 1.4-1.3.9l-5-3.6-5 3.6c-.7.5-1.5-.2-1.3-.9l1.9-5.9-5-3.7c-.6-.5-.3-1.5.5-1.5h6.2l2-5.9c.1-.8 1.2-.8 1.4 0zM191.3 154.2l2 5.9h6.2c.8 0 1.1 1 .5 1.5l-5 3.7 1.9 5.9c.2.8-.6 1.4-1.3.9l-5-3.6-5 3.6c-.7.5-1.5-.2-1.3-.9l1.9-5.9-5-3.7c-.6-.5-.3-1.5.5-1.5h6.2l2-5.9c.1-.7 1.2-.7 1.4 0zM191.3 184.9l2 5.9h6.2c.8 0 1.1 1 .5 1.5l-5 3.7 1.9 5.9c.2.8-.6 1.4-1.3.9l-5-3.6-5 3.6c-.7.5-1.5-.2-1.3-.9l1.9-5.9-5-3.7c-.6-.5-.3-1.5.5-1.5h6.2l2-5.9c.1-.8 1.2-.8 1.4 0zM191.3 215.5l2 5.9h6.2c.8 0 1.1 1 .5 1.5l-5 3.7 1.9 5.9c.2.8-.6 1.4-1.3.9l-5-3.6-5 3.6c-.7.5-1.5-.2-1.3-.9l1.9-5.9-5-3.7c-.6-.5-.3-1.5.5-1.5h6.2l2-5.9c.1-.7 1.2-.7 1.4 0zM215.1 108.5l2 5.9h6.2c.8 0 1.1 1 .5 1.5l-5 3.7 1.9 5.9c.2.8-.6 1.4-1.3.9l-5-3.6-5 3.6c-.7.5-1.5-.2-1.3-.9l1.9-5.9-5-3.7c-.6-.5-.3-1.5.5-1.5h6.2l2-5.9c.1-.7 1.2-.7 1.4 0zM215.1 139.2l2 5.9h6.2c.8 0 1.1 1 .5 1.5l-5 3.7 1.9 5.9c.2.8-.6 1.4-1.3.9l-5-3.6-5 3.6c-.7.5-1.5-.2-1.3-.9l1.9-5.9-5-3.7c-.6-.5-.3-1.5.5-1.5h6.2l2-5.9c.1-.8 1.2-.8 1.4 0zM215.1 169.8l2 5.9h6.2c.8 0 1.1 1 .5 1.5l-5 3.7 1.9 5.9c.2.8-.6 1.4-1.3.9l-5-3.6-5 3.6c-.7.5-1.5-.2-1.3-.9l1.9-5.9-5-3.7c-.6-.5-.3-1.5.5-1.5h6.2l2-5.9c.1-.7 1.2-.7 1.4 0zM215.1 200.5l2 5.9h6.2c.8 0 1.1 1 .5 1.5l-5 3.7 1.9 5.9c.2.8-.6 1.4-1.3.9l-5-3.6-5 3.6c-.7.5-1.5-.2-1.3-.9l1.9-5.9-5-3.7c-.6-.5-.3-1.5.5-1.5h6.2l2-5.9c.1-.8 1.2-.8 1.4 0zM215.1 231.2l2 5.9h6.2c.8 0 1.1 1 .5 1.5l-5 3.7 1.9 5.9c.2.8-.6 1.4-1.3.9l-5-3.6-5 3.6c-.7.5-1.5-.2-1.3-.9l1.9-5.9-5-3.7c-.6-.5-.3-1.5.5-1.5h6.2l2-5.9c.1-.8 1.2-.8 1.4 0zM0 320.6h512v25.8H0z"/></svg>