<svg version="1.1" id="Layer_1" xmlns="http://www.w3.org/2000/svg" x="0" y="0" viewBox="0 0 512 512" xml:space="preserve"><style>.st0{fill:#0038a8}.st1{fill:#fff}.st3{fill:#a84809}</style><path class="st0" d="M0 274.7h512V312H0z"/><path class="st1" d="M0 312h512v37.3H0z"/><path class="st0" d="M0 349.3h512v37.3H0z"/><path class="st1" d="M0 386.7h512V424H0zM0 88h185.4v186.7H0z"/><path fill="#fcd116" d="M128.5 188.1l39.2-7.1-39.2-7.2 33.5-21.5-38.9 8.4 22.6-32.8-32.7 22.7 8.4-39-21.6 33.5-7.1-39.2-7.1 39.2L64 111.6l8.4 39-32.8-22.7 22.7 32.8-38.9-8.4 33.5 21.5-39.2 7.2 39.2 7.1-33.5 21.6 38.9-8.4L39.6 234l32.8-22.7-8.4 39 21.6-33.5 7.1 39.2 7.1-39.2 21.6 33.5-8.4-39 32.7 22.7-22.6-32.7 38.9 8.4z"/><path class="st3" d="M75 163.3l-35.4-35.4 30 43.3c1.3-2.9 3.1-5.6 5.4-7.9zM92.7 156v-50l-9.4 51.9c2.9-1.3 6.1-1.9 9.4-1.9zM69.6 171.4l-46.2-19.1 44.3 28.6c0-3.4.7-6.6 1.9-9.5zM83.1 157.9L64 111.6l11.1 51.5c2.3-2.2 5-4 8-5.2zM115.8 171.4l46.2-19.1-51.5 11.1c2.2 2.3 4 5 5.3 8zM115.9 171.5c1.2 2.9 1.8 6.1 1.8 9.4h50l-51.8-9.4zM110.4 163.3l35.4-35.4-43.3 30c2.9 1.3 5.6 3.1 7.9 5.4zM102.3 157.9l19.1-46.2L92.8 156c3.4 0 6.6.7 9.5 1.9zM67.7 181h-50l51.9 9.4c-1.3-2.9-1.9-6.1-1.9-9.4zM69.6 190.5l-46.2 19.1 51.5-11.1c-2.3-2.2-4.1-5-5.3-8zM110.4 198.7l35.4 35.4-30-43.3c-1.3 2.9-3.2 5.6-5.4 7.9zM115.8 190.5l46.2 19.1-44.3-28.6c0 3.5-.7 6.6-1.9 9.5zM102.3 204.1l19.1 46.2-11.1-51.5c-2.3 2.2-5 4-8 5.3zM92.7 206v50l9.4-51.9c-2.9 1.2-6.1 1.9-9.4 1.9zM75 198.7L39.6 234 83 204c-3-1.2-5.7-3.1-8-5.3zM83.1 204.1L64 250.3 92.5 206c-3.3 0-6.5-.7-9.4-1.9z"/><path class="st1" d="M185.4 88H512v37.3H185.4z"/><path class="st0" d="M185.4 125.3H512v37.3H185.4z"/><path class="st1" d="M185.4 162.7H512V200H185.4z"/><path class="st0" d="M185.4 200H512v37.3H185.4z"/><path class="st1" d="M185.4 237.3H512v37.3H185.4z"/></svg>