<?xml version="1.0" encoding="utf-8"?>
<!-- Generator: Adobe Illustrator 25.0.0, SVG Export Plug-In . SVG Version: 6.00 Build 0)  -->
<svg version="1.1" id="Layer_1" xmlns="http://www.w3.org/2000/svg" xmlns:xlink="http://www.w3.org/1999/xlink" x="0px" y="0px"
	 viewBox="0 0 512 512" style="enable-background:new 0 0 512 512;" xml:space="preserve">
<style type="text/css">
	.st0{fill:#0038A8;}
	.st1{fill:#FFFFFF;}
	.st2{fill:#FCD116;}
	.st3{fill:#A84809;}
</style>
<rect y="274.7" class="st0" width="512" height="37.3"/>
<rect y="312" class="st1" width="512" height="37.3"/>
<rect y="349.3" class="st0" width="512" height="37.3"/>
<rect y="386.7" class="st1" width="512" height="37.3"/>
<g>
	<rect y="88" class="st1" width="185.4" height="186.7"/>
	<g>
		<polygon class="st2" points="128.5,188.1 167.7,181 128.5,173.8 162,152.3 123.1,160.7 145.7,127.9 113,150.6 121.4,111.6 
			99.8,145.1 92.7,105.9 85.6,145.1 64,111.6 72.4,150.6 39.6,127.9 62.3,160.7 23.4,152.3 56.9,173.8 17.7,181 56.9,188.1 
			23.4,209.7 62.3,201.3 39.6,234 72.4,211.3 64,250.3 85.6,216.8 92.7,256 99.8,216.8 121.4,250.3 113,211.3 145.7,234 
			123.1,201.3 162,209.7 		"/>
		<g>
			<path class="st3" d="M75,163.3l-35.4-35.4l30,43.3C70.9,168.3,72.7,165.6,75,163.3z"/>
			<path class="st3" d="M92.7,156v-50l-9.4,51.9C86.2,156.6,89.4,156,92.7,156z"/>
			<path class="st3" d="M69.6,171.4l-46.2-19.1l44.3,28.6C67.7,177.5,68.4,174.3,69.6,171.4z"/>
			<path class="st3" d="M83.1,157.9L64,111.6l11.1,51.5C77.4,160.9,80.1,159.1,83.1,157.9z"/>
			<path class="st3" d="M115.8,171.4l46.2-19.1l-51.5,11.1C112.7,165.7,114.5,168.4,115.8,171.4z"/>
			<path class="st3" d="M115.9,171.5c1.2,2.9,1.8,6.1,1.8,9.4h50L115.9,171.5z"/>
			<path class="st3" d="M110.4,163.3l35.4-35.4l-43.3,30C105.4,159.2,108.1,161,110.4,163.3z"/>
			<path class="st3" d="M102.3,157.9l19.1-46.2L92.8,156C96.2,156,99.4,156.7,102.3,157.9z"/>
			<path class="st3" d="M67.7,181C67.7,181,67.7,181,67.7,181l-50,0l51.9,9.4C68.3,187.5,67.7,184.3,67.7,181z"/>
			<path class="st3" d="M69.6,190.5l-46.2,19.1l51.5-11.1C72.6,196.3,70.8,193.5,69.6,190.5z"/>
			<path class="st3" d="M110.4,198.7l35.4,35.4l-30-43.3C114.5,193.7,112.6,196.4,110.4,198.7z"/>
			<path class="st3" d="M115.8,190.5l46.2,19.1l-44.3-28.6C117.7,184.5,117,187.6,115.8,190.5z"/>
			<path class="st3" d="M102.3,204.1l19.1,46.2l-11.1-51.5C108,201,105.3,202.8,102.3,204.1z"/>
			<path class="st3" d="M92.7,206v50l9.4-51.9C99.2,205.3,96,206,92.7,206z"/>
			<path class="st3" d="M75,198.7L39.6,234L83,204C80,202.8,77.3,200.9,75,198.7z"/>
			<path class="st3" d="M83.1,204.1L64,250.3L92.5,206C89.2,206,86,205.3,83.1,204.1z"/>
		</g>
	</g>
</g>
<rect x="185.4" y="88" class="st1" width="326.6" height="37.3"/>
<rect x="185.4" y="125.3" class="st0" width="326.6" height="37.3"/>
<rect x="185.4" y="162.7" class="st1" width="326.6" height="37.3"/>
<rect x="185.4" y="200" class="st0" width="326.6" height="37.3"/>
<rect x="185.4" y="237.3" class="st1" width="326.6" height="37.3"/>
</svg>
