<?xml version="1.0" encoding="utf-8"?>
<!-- Generator: Adobe Illustrator 25.0.0, SVG Export Plug-In . SVG Version: 6.00 Build 0)  -->
<svg version="1.1" id="Layer_1" xmlns="http://www.w3.org/2000/svg" xmlns:xlink="http://www.w3.org/1999/xlink" x="0px" y="0px"
	 viewBox="0 0 512 512" style="enable-background:new 0 0 512 512;" xml:space="preserve">
<style type="text/css">
	.st0{fill:#0099B5;}
	.st1{fill:#1EB53A;}
	.st2{fill:#FFFFFF;}
	.st3{fill:#CE1126;}
</style>
<rect y="88" class="st0" width="512" height="102.7"/>
<rect y="321.3" class="st1" width="512" height="102.7"/>
<g>
	<path class="st2" d="M113.5,172.1c-18.1,0-32.7-14.6-32.7-32.6c0-18.1,14.6-32.8,32.7-32.8c0.1,0,0.1,0,0.2,0
		c1.1,0,1.4-1.4,0.5-1.9c-5.6-3-11.9-4.7-18.7-4.6c-21.6,0.2-39.2,18.1-39,39.7c0.2,21.4,17.7,38.7,39.2,38.7
		c6.7,0,12.9-1.7,18.4-4.6c0.9-0.5,0.6-1.9-0.5-1.9C113.6,172.1,113.6,172.1,113.5,172.1z"/>
	<path class="st2" d="M139.1,163.1l-1.5,4.4l-4.6,0c-0.6,0-0.8,0.8-0.4,1.1l3.7,2.7l-1.4,4.4c-0.2,0.6,0.5,1,1,0.7l3.8-2.7l3.8,2.7
		c0.5,0.3,1.1-0.1,1-0.7l-1.4-4.4l3.7-2.7c0.5-0.4,0.2-1.1-0.4-1.1l-4.6,0l-1.5-4.4C140.1,162.5,139.3,162.5,139.1,163.1z"/>
	<path class="st2" d="M171.7,163.1l-1.5,4.4l-4.6,0c-0.6,0-0.8,0.8-0.4,1.1l3.7,2.7l-1.4,4.4c-0.2,0.6,0.5,1,1,0.7l3.8-2.7l3.8,2.7
		c0.5,0.3,1.1-0.1,1-0.7l-1.4-4.4l3.7-2.7c0.5-0.4,0.2-1.1-0.4-1.1l-4.6,0l-1.5-4.4C172.6,162.5,171.8,162.5,171.7,163.1z"/>
	<path class="st2" d="M204.2,163.1l-1.5,4.4l-4.6,0c-0.6,0-0.8,0.8-0.4,1.1l3.7,2.7l-1.4,4.4c-0.2,0.6,0.5,1,1,0.7l3.8-2.7l3.8,2.7
		c0.5,0.3,1.1-0.1,1-0.7l-1.4-4.4l3.7-2.7c0.5-0.4,0.2-1.1-0.4-1.1l-4.6,0l-1.5-4.4C205.2,162.5,204.4,162.5,204.2,163.1z"/>
	<path class="st2" d="M236.7,163.1l-1.5,4.4l-4.6,0c-0.6,0-0.8,0.8-0.4,1.1l3.7,2.7l-1.4,4.4c-0.2,0.6,0.5,1,1,0.7l3.8-2.7l3.8,2.7
		c0.5,0.3,1.1-0.1,1-0.7l-1.4-4.4l3.7-2.7c0.5-0.4,0.2-1.1-0.4-1.1l-4.6,0l-1.5-4.4C237.7,162.5,236.9,162.5,236.7,163.1z"/>
	<path class="st2" d="M269.3,163.1l-1.5,4.4l-4.6,0c-0.6,0-0.8,0.8-0.4,1.1l3.7,2.7l-1.4,4.4c-0.2,0.6,0.5,1,1,0.7l3.8-2.7l3.8,2.7
		c0.5,0.3,1.1-0.1,1-0.7l-1.4-4.4l3.7-2.7c0.5-0.4,0.2-1.1-0.4-1.1l-4.6,0l-1.5-4.4C270.3,162.5,269.5,162.5,269.3,163.1z"/>
	<path class="st2" d="M171.7,132.7l-1.5,4.4l-4.6,0c-0.6,0-0.8,0.8-0.4,1.1l3.7,2.7l-1.4,4.4c-0.2,0.6,0.5,1,1,0.7l3.8-2.7l3.8,2.7
		c0.5,0.3,1.1-0.1,1-0.7l-1.4-4.4l3.7-2.7c0.5-0.4,0.2-1.1-0.4-1.1l-4.6,0l-1.5-4.4C172.6,132.1,171.8,132.1,171.7,132.7z"/>
	<path class="st2" d="M204.2,132.7l-1.5,4.4l-4.6,0c-0.6,0-0.8,0.8-0.4,1.1l3.7,2.7l-1.4,4.4c-0.2,0.6,0.5,1,1,0.7l3.8-2.7l3.8,2.7
		c0.5,0.3,1.1-0.1,1-0.7l-1.4-4.4l3.7-2.7c0.5-0.4,0.2-1.1-0.4-1.1l-4.6,0l-1.5-4.4C205.2,132.1,204.4,132.1,204.2,132.7z"/>
	<path class="st2" d="M236.7,132.7l-1.5,4.4l-4.6,0c-0.6,0-0.8,0.8-0.4,1.1l3.7,2.7l-1.4,4.4c-0.2,0.6,0.5,1,1,0.7l3.8-2.7l3.8,2.7
		c0.5,0.3,1.1-0.1,1-0.7l-1.4-4.4l3.7-2.7c0.5-0.4,0.2-1.1-0.4-1.1l-4.6,0l-1.5-4.4C237.7,132.1,236.9,132.1,236.7,132.7z"/>
	<path class="st2" d="M269.3,132.7l-1.5,4.4l-4.6,0c-0.6,0-0.8,0.8-0.4,1.1l3.7,2.7l-1.4,4.4c-0.2,0.6,0.5,1,1,0.7l3.8-2.7l3.8,2.7
		c0.5,0.3,1.1-0.1,1-0.7l-1.4-4.4l3.7-2.7c0.5-0.4,0.2-1.1-0.4-1.1l-4.6,0l-1.5-4.4C270.3,132.1,269.5,132.1,269.3,132.7z"/>
	<path class="st2" d="M204.2,163.1l-1.5,4.4l-4.6,0c-0.6,0-0.8,0.8-0.4,1.1l3.7,2.7l-1.4,4.4c-0.2,0.6,0.5,1,1,0.7l3.8-2.7l3.8,2.7
		c0.5,0.3,1.1-0.1,1-0.7l-1.4-4.4l3.7-2.7c0.5-0.4,0.2-1.1-0.4-1.1l-4.6,0l-1.5-4.4C205.2,162.5,204.4,162.5,204.2,163.1z"/>
	<path class="st2" d="M204.2,102.3l-1.5,4.4l-4.6,0c-0.6,0-0.8,0.8-0.4,1.1l3.7,2.7l-1.4,4.4c-0.2,0.6,0.5,1,1,0.7l3.8-2.7l3.8,2.7
		c0.5,0.3,1.1-0.1,1-0.7l-1.4-4.4l3.7-2.7c0.5-0.4,0.2-1.1-0.4-1.1l-4.6,0l-1.5-4.4C205.2,101.7,204.4,101.7,204.2,102.3z"/>
	<path class="st2" d="M236.7,163.1l-1.5,4.4l-4.6,0c-0.6,0-0.8,0.8-0.4,1.1l3.7,2.7l-1.4,4.4c-0.2,0.6,0.5,1,1,0.7l3.8-2.7l3.8,2.7
		c0.5,0.3,1.1-0.1,1-0.7l-1.4-4.4l3.7-2.7c0.5-0.4,0.2-1.1-0.4-1.1l-4.6,0l-1.5-4.4C237.7,162.5,236.9,162.5,236.7,163.1z"/>
	<path class="st2" d="M269.3,163.1l-1.5,4.4l-4.6,0c-0.6,0-0.8,0.8-0.4,1.1l3.7,2.7l-1.4,4.4c-0.2,0.6,0.5,1,1,0.7l3.8-2.7l3.8,2.7
		c0.5,0.3,1.1-0.1,1-0.7l-1.4-4.4l3.7-2.7c0.5-0.4,0.2-1.1-0.4-1.1l-4.6,0l-1.5-4.4C270.3,162.5,269.5,162.5,269.3,163.1z"/>
	<path class="st2" d="M236.7,102.3l-1.5,4.4l-4.6,0c-0.6,0-0.8,0.8-0.4,1.1l3.7,2.7l-1.4,4.4c-0.2,0.6,0.5,1,1,0.7l3.8-2.7l3.8,2.7
		c0.5,0.3,1.1-0.1,1-0.7l-1.4-4.4l3.7-2.7c0.5-0.4,0.2-1.1-0.4-1.1l-4.6,0l-1.5-4.4C237.7,101.7,236.9,101.7,236.7,102.3z"/>
	<path class="st2" d="M269.3,102.3l-1.5,4.4l-4.6,0c-0.6,0-0.8,0.8-0.4,1.1l3.7,2.7l-1.4,4.4c-0.2,0.6,0.5,1,1,0.7l3.8-2.7l3.8,2.7
		c0.5,0.3,1.1-0.1,1-0.7l-1.4-4.4l3.7-2.7c0.5-0.4,0.2-1.1-0.4-1.1l-4.6,0l-1.5-4.4C270.3,101.7,269.5,101.7,269.3,102.3z"/>
</g>
<rect x="350" y="205.1" width="85.9" height="101.9"/>
<rect y="204.6" class="st2" width="512" height="102.7"/>
<rect y="307.4" class="st3" width="512" height="13.9"/>
<rect y="190.7" class="st3" width="512" height="13.9"/>
</svg>
