<svg version="1.1" id="Layer_1" xmlns="http://www.w3.org/2000/svg" x="0" y="0" viewBox="0 0 512 512" xml:space="preserve"><style>.st2{fill:#fff}.st3{fill:#ce1126}</style><path fill="#0099b5" d="M0 88h512v102.7H0z"/><path fill="#1eb53a" d="M0 321.3h512V424H0z"/><path class="st2" d="M113.5 172.1c-18.1 0-32.7-14.6-32.7-32.6 0-18.1 14.6-32.8 32.7-32.8h.2c1.1 0 1.4-1.4.5-1.9-5.6-3-11.9-4.7-18.7-4.6-21.6.2-39.2 18.1-39 39.7.2 21.4 17.7 38.7 39.2 38.7 6.7 0 12.9-1.7 18.4-4.6.9-.5.6-1.9-.5-1.9h-.1zM139.1 163.1l-1.5 4.4H133c-.6 0-.8.8-.4 1.1l3.7 2.7-1.4 4.4c-.2.6.5 1 1 .7l3.8-2.7 3.8 2.7c.5.3 1.1-.1 1-.7l-1.4-4.4 3.7-2.7c.5-.4.2-1.1-.4-1.1h-4.6l-1.5-4.4c-.2-.6-1-.6-1.2 0zM171.7 163.1l-1.5 4.4h-4.6c-.6 0-.8.8-.4 1.1l3.7 2.7-1.4 4.4c-.2.6.5 1 1 .7l3.8-2.7 3.8 2.7c.5.3 1.1-.1 1-.7l-1.4-4.4 3.7-2.7c.5-.4.2-1.1-.4-1.1h-4.6l-1.5-4.4c-.3-.6-1.1-.6-1.2 0zM204.2 163.1l-1.5 4.4h-4.6c-.6 0-.8.8-.4 1.1l3.7 2.7-1.4 4.4c-.2.6.5 1 1 .7l3.8-2.7 3.8 2.7c.5.3 1.1-.1 1-.7l-1.4-4.4 3.7-2.7c.5-.4.2-1.1-.4-1.1h-4.6l-1.5-4.4c-.2-.6-1-.6-1.2 0zM236.7 163.1l-1.5 4.4h-4.6c-.6 0-.8.8-.4 1.1l3.7 2.7-1.4 4.4c-.2.6.5 1 1 .7l3.8-2.7 3.8 2.7c.5.3 1.1-.1 1-.7l-1.4-4.4 3.7-2.7c.5-.4.2-1.1-.4-1.1h-4.6l-1.5-4.4c-.2-.6-1-.6-1.2 0zM269.3 163.1l-1.5 4.4h-4.6c-.6 0-.8.8-.4 1.1l3.7 2.7-1.4 4.4c-.2.6.5 1 1 .7l3.8-2.7 3.8 2.7c.5.3 1.1-.1 1-.7l-1.4-4.4 3.7-2.7c.5-.4.2-1.1-.4-1.1H272l-1.5-4.4c-.2-.6-1-.6-1.2 0zM171.7 132.7l-1.5 4.4h-4.6c-.6 0-.8.8-.4 1.1l3.7 2.7-1.4 4.4c-.2.6.5 1 1 .7l3.8-2.7 3.8 2.7c.5.3 1.1-.1 1-.7l-1.4-4.4 3.7-2.7c.5-.4.2-1.1-.4-1.1h-4.6l-1.5-4.4c-.3-.6-1.1-.6-1.2 0zM204.2 132.7l-1.5 4.4h-4.6c-.6 0-.8.8-.4 1.1l3.7 2.7-1.4 4.4c-.2.6.5 1 1 .7l3.8-2.7 3.8 2.7c.5.3 1.1-.1 1-.7l-1.4-4.4 3.7-2.7c.5-.4.2-1.1-.4-1.1h-4.6l-1.5-4.4c-.2-.6-1-.6-1.2 0zM236.7 132.7l-1.5 4.4h-4.6c-.6 0-.8.8-.4 1.1l3.7 2.7-1.4 4.4c-.2.6.5 1 1 .7l3.8-2.7 3.8 2.7c.5.3 1.1-.1 1-.7l-1.4-4.4 3.7-2.7c.5-.4.2-1.1-.4-1.1h-4.6l-1.5-4.4c-.2-.6-1-.6-1.2 0zM269.3 132.7l-1.5 4.4h-4.6c-.6 0-.8.8-.4 1.1l3.7 2.7-1.4 4.4c-.2.6.5 1 1 .7l3.8-2.7 3.8 2.7c.5.3 1.1-.1 1-.7l-1.4-4.4 3.7-2.7c.5-.4.2-1.1-.4-1.1H272l-1.5-4.4c-.2-.6-1-.6-1.2 0z"/><path class="st2" d="M204.2 163.1l-1.5 4.4h-4.6c-.6 0-.8.8-.4 1.1l3.7 2.7-1.4 4.4c-.2.6.5 1 1 .7l3.8-2.7 3.8 2.7c.5.3 1.1-.1 1-.7l-1.4-4.4 3.7-2.7c.5-.4.2-1.1-.4-1.1h-4.6l-1.5-4.4c-.2-.6-1-.6-1.2 0zM204.2 102.3l-1.5 4.4h-4.6c-.6 0-.8.8-.4 1.1l3.7 2.7-1.4 4.4c-.2.6.5 1 1 .7l3.8-2.7 3.8 2.7c.5.3 1.1-.1 1-.7l-1.4-4.4 3.7-2.7c.5-.4.2-1.1-.4-1.1h-4.6l-1.5-4.4c-.2-.6-1-.6-1.2 0zM236.7 163.1l-1.5 4.4h-4.6c-.6 0-.8.8-.4 1.1l3.7 2.7-1.4 4.4c-.2.6.5 1 1 .7l3.8-2.7 3.8 2.7c.5.3 1.1-.1 1-.7l-1.4-4.4 3.7-2.7c.5-.4.2-1.1-.4-1.1h-4.6l-1.5-4.4c-.2-.6-1-.6-1.2 0zM269.3 163.1l-1.5 4.4h-4.6c-.6 0-.8.8-.4 1.1l3.7 2.7-1.4 4.4c-.2.6.5 1 1 .7l3.8-2.7 3.8 2.7c.5.3 1.1-.1 1-.7l-1.4-4.4 3.7-2.7c.5-.4.2-1.1-.4-1.1H272l-1.5-4.4c-.2-.6-1-.6-1.2 0zM236.7 102.3l-1.5 4.4h-4.6c-.6 0-.8.8-.4 1.1l3.7 2.7-1.4 4.4c-.2.6.5 1 1 .7l3.8-2.7 3.8 2.7c.5.3 1.1-.1 1-.7l-1.4-4.4 3.7-2.7c.5-.4.2-1.1-.4-1.1h-4.6l-1.5-4.4c-.2-.6-1-.6-1.2 0zM269.3 102.3l-1.5 4.4h-4.6c-.6 0-.8.8-.4 1.1l3.7 2.7-1.4 4.4c-.2.6.5 1 1 .7l3.8-2.7 3.8 2.7c.5.3 1.1-.1 1-.7l-1.4-4.4 3.7-2.7c.5-.4.2-1.1-.4-1.1H272l-1.5-4.4c-.2-.6-1-.6-1.2 0z"/><path d="M350 205.1h85.9V307H350z"/><path class="st2" d="M0 204.6h512v102.7H0z"/><path class="st3" d="M0 307.4h512v13.9H0zM0 190.7h512v13.9H0z"/></svg>