<svg version="1.1" id="Layer_1" xmlns="http://www.w3.org/2000/svg" x="0" y="0" viewBox="0 0 512 512" xml:space="preserve"><style>.st0{fill:#fff}.st1{fill:#ffe000}.st2{fill:#ee0204}.st3{fill:#ccc}</style><path class="st0" d="M256 88h256v336H256z"/><path class="st1" d="M0 88h256v336H0z"/><g id="seal"><path class="st0" d="M408.3 174.8l-.6 1.2c1.9 1 3 2.1 3 3.2l-.3-5.8c-.4.7-1.2 1.3-2.1 1.4zM362.4 175.9l-.6-1.2c-.9-.1-1.7-.6-2.1-1.4l-.3 5.8c.1-1.1 1.1-2.2 3-3.2zM362 169.7c1.4 0 2.6 1.1 2.6 2.6 0 .5-.2 1-.4 1.4l.7 1.3c1.9-.7 4.3-1.3 7-1.7l-.3-1.2c-1.1-.3-1.8-1.3-1.8-2.4 0-1.4 1.1-2.6 2.6-2.6s2.6 1.1 2.6 2.6c0 .7-.3 1.4-.8 1.8l.3 1.4c1.4-.2 2.9-.3 4.5-.4-.1-.5-.2-1-.2-1.5 0-3.5 2.9-6.4 6.4-6.4s6.4 2.9 6.4 6.4c0 .5-.1 1-.2 1.5 1.6.1 3 .2 4.5.4l.3-1.4c-.5-.5-.8-1.1-.8-1.8 0-1.4 1.1-2.6 2.6-2.6s2.6 1.1 2.6 2.6c0 1.2-.8 2.1-1.8 2.4l-.3 1.2c2.7.4 5.1 1 7 1.7l.7-1.3c-.3-.4-.4-.9-.4-1.4 0-1.4 1.1-2.6 2.6-2.6.9 0 1.7.5 2.1 1.2l-.5-3.9c-2.5-2.9-12.7-5-25-5s-22.5 2.1-25 5l-.2 3.9c.5-.7 1.3-1.2 2.2-1.2z"/><path class="st1" d="M389.1 139.6c.7-.9 1.1-2 1.1-3.2 0-2.4-1.6-4.4-3.8-4.9v-3.1c.8-.4 1.3-1.2 1.3-2.2 0-1.4-1.1-2.6-2.6-2.6s-2.6 1.1-2.6 2.6c0 .9.5 1.7 1.3 2.2v3.1c-2.2.6-3.8 2.6-3.8 4.9 0 1.2.4 2.3 1.1 3.2 1.3-.4 2.6-.6 4-.6s2.7.2 4 .6z"/><path class="st0" d="M374.3 152.5l-.2-.9c-1.1-.3-1.8-1.3-1.8-2.4 0-1.4 1.1-2.6 2.6-2.6s2.6 1.1 2.6 2.6c0 .7-.3 1.4-.8 1.8l.3 1.2c2.5-.3 5.3-.4 8.2-.4-2.1 0-3.8-1.7-3.8-3.8s1.7-3.8 3.8-3.8 3.8 1.7 3.8 3.8-1.7 3.8-3.8 3.8c2.9 0 5.7.2 8.2.4l.3-1.2c-.5-.5-.8-1.1-.8-1.8 0-1.4 1.1-2.6 2.6-2.6s2.6 1.1 2.6 2.6c0 1.2-.8 2.1-1.8 2.4l-.2.9c1.3.2 2.5.4 3.6.7l1.9-3.8c-3.3-5.1-7.5-8.6-12.2-9.9-1.3-.4-2.6-.6-4-.6s-2.7.2-4 .6c-4.7 1.3-9 4.8-12.2 9.9l1.9 3.8c.7-.3 1.9-.5 3.2-.7z"/><path class="st1" d="M382.5 362.1v-5.6c0-.6.1-1.2.2-1.7-.1 0-.1-.1-.2-.1-.8-.4-1.6-.7-2.6-.7s-1.8.3-2.6.7c-1.5.9-2.6 2.5-2.6 4.4 0 1.4.6 2.6 1.4 3.5 1.1-.6 2.3-1 3.7-1 1 .1 1.9.3 2.7.5zM387.6 341.9c-1.5.9-2.6 2.5-2.6 4.4 0 1.4.6 2.6 1.4 3.5 1.1-.6 2.3-1 3.7-1 1.3 0 2.6.4 3.7 1 .9-.9 1.4-2.2 1.4-3.5 0-1.9-1-3.5-2.6-4.4-.8-.4-1.6-.7-2.6-.7-.8 0-1.6.3-2.4.7z"/><path class="st2" d="M386.5 349.8c-1.9 1-3.3 2.8-3.8 5-.1.6-.2 1.1-.2 1.7v5.6c-.8-.3-1.7-.5-2.6-.5-1.3 0-2.6.4-3.7 1-2.4 1.3-4 3.8-4 6.7v10.2h15.4v-10.2c0-.9-.2-1.8-.5-2.6h10.7v-10.2c0-2.9-1.6-5.4-4-6.7-1.1-.6-2.3-1-3.7-1s-2.5.4-3.6 1z"/><path class="st1" d="M387.6 246.9l4.4 4.4 1.5-1.5c.4-.4.8-.5 1.3-.6l21.7-21.7 13.9 13.9 9-9.1-3.6-3.6-1.8 1.8-3.6-3.6 1.8-1.8-1.8-1.8 3.6-3.6 1.8 1.8 1.8-1.8 3.6 3.6-1.8 1.8 3.6 3.6 9-9.1-13.9-13.9 9.5-9.5c-.5-.2-.9-.5-1.3-.8l-5.1-5.1c-.4-.4-.7-.8-.8-1.3L387 242.4c.3.4.6 1 .6 1.6v2.9zM381.7 262.1l-7.2-7.2-22.5 22.5c-2 2-2 5.2 0 7.2 1 1 2.3 1.5 3.6 1.5s2.6-.5 3.6-1.5l17.6-17.6 4.9-4.9z"/><path class="st3" d="M311.9 288.7c.1-.4.2-.8.2-1.3 0-2.1-1.7-3.8-3.8-3.8s-3.8 1.7-3.8 3.8 1.7 3.8 3.8 3.8c.5 0 .9-.1 1.3-.2.7-.8 1.4-1.6 2.3-2.3zM309.5 324.8c-.4-.1-.8-.2-1.3-.2-2.1 0-3.8 1.7-3.8 3.8s1.7 3.8 3.8 3.8 3.8-1.7 3.8-3.8c0-.5-.1-.9-.2-1.3-.8-.7-1.5-1.5-2.3-2.3zM347.9 291c.4.1.8.2 1.3.2 2.1 0 3.8-1.7 3.8-3.8s-1.7-3.8-3.8-3.8-3.8 1.7-3.8 3.8c0 .5.1.9.2 1.3.8.7 1.6 1.5 2.3 2.3zM345.4 328.4c0 2.1 1.7 3.8 3.8 3.8 1.2 0 2.2-.5 2.9-1.4-2.4-.9-4.7-1.8-6.7-2.9v.5z"/><path class="st1" d="M340 324.7c-.5-.4-.9-1-1-1.6-.4.1-.9.1-1.3.1-3 0-5.6-2.1-6.2-5-.7.7-1.7 1.1-2.7 1.1-1.1 0-2-.4-2.7-1.1-.6 2.8-3.2 5-6.2 5-3.5 0-6.4-2.9-6.4-6.4 0-3 2.1-5.6 5-6.2-.7-.7-1.1-1.7-1.1-2.7 0-1.1.4-2 1.1-2.7-2.8-.6-5-3.2-5-6.2 0-3.5 2.9-6.4 6.4-6.4 3 0 5.6 2.1 6.2 5 .7-.7 1.7-1.1 2.7-1.1 1.1 0 2 .4 2.7 1.1.6-2.8 3.2-5 6.2-5 3.5 0 6.4 2.9 6.4 6.4 0 3-2.1 5.6-5 6.2.7.7 1.1 1.7 1.1 2.7 0 1.1-.4 2-1.1 2.7 2.8.6 5 3.2 5 6.2 0 1.4-.4 2.6-1.1 3.6h.1c1.7 1.2 3.6 2.3 5.7 3.3.6-.8 1.2-1.6 1.8-2.5 1.7-2.7 2.9-5.8 3.5-9 .3-1.4.4-2.9.4-4.4 0-6.5-2.4-12.4-6.4-16.9-.7-.8-1.5-1.6-2.3-2.3-4.5-4-10.4-6.4-16.9-6.4s-12.4 2.4-16.9 6.4c-.8.7-1.6 1.5-2.3 2.3-4 4.5-6.4 10.4-6.4 16.9s2.4 12.4 6.4 16.9c.7.8 1.5 1.6 2.3 2.3 4.5 4 10.4 6.4 16.9 6.4 6.2 0 11.8-2.2 16.2-5.8-1.9-.8-3.6-1.8-5.1-2.9zm8.5-22c.4 1.7.7 3.4.7 5.2s-.3 3.5-.7 5.2c-.7-2.1-2-3.8-3.7-5.2 1.7-1.3 3-3.1 3.7-5.2zm-14.6-14.6c-2.1.7-3.8 2-5.2 3.7-1.3-1.7-3.1-3-5.2-3.7 1.7-.4 3.4-.7 5.2-.7s3.6.3 5.2.7zm-25 14.6c.7 2.1 2 3.8 3.7 5.2-1.7 1.3-3 3.1-3.7 5.2-.4-1.7-.7-3.4-.7-5.2s.3-3.5.7-5.2zm14.7 25c2.1-.7 3.8-2 5.2-3.7 1.3 1.7 3.1 3 5.2 3.7-1.7.4-3.4.7-5.2.7s-3.6-.3-5.2-.7z"/><path class="st1" d="M324.9 307.9c0-2.1-1.7-3.8-3.8-3.8-1.1 0-2 .4-2.7 1.1-.7.7-1.1 1.7-1.1 2.7 0 1.1.4 2 1.1 2.7.7.7 1.6 1.1 2.7 1.1 2.1 0 3.8-1.7 3.8-3.8zM332.6 307.9c0 2.1 1.7 3.8 3.8 3.8 1.1 0 2-.4 2.7-1.1.7-.7 1.1-1.7 1.1-2.7 0-1.1-.4-2-1.1-2.7-.7-.7-1.6-1.1-2.7-1.1-2.1 0-3.8 1.7-3.8 3.8zM328.7 304.1c2.1 0 3.8-1.7 3.8-3.8 0-1.1-.4-2-1.1-2.7-.7-.7-1.7-1.1-2.7-1.1-1.1 0-2 .4-2.7 1.1-.7.7-1.1 1.6-1.1 2.7 0 2 1.7 3.8 3.8 3.8zM328.7 311.7c-2.1 0-3.8 1.7-3.8 3.8 0 1.1.4 2 1.1 2.7.7.7 1.7 1.1 2.7 1.1 1.1 0 2-.4 2.7-1.1.7-.7 1.1-1.6 1.1-2.7.1-2-1.6-3.8-3.8-3.8z"/><path class="st3" d="M446.3 195.4c.4.4.8.6 1.3.8.5.2 1 .3 1.5.3 1 0 2-.4 2.7-1.1 1.3-1.3 1.4-3.4.4-4.9l1.4-5.7c.2.1.4.1.6.1 1.4 0 2.6-1.1 2.6-2.6s-1.1-2.6-2.6-2.6-2.6 1.1-2.6 2.6c0 .2.1.4.1.6l-5.7 1.4c-1.5-1-3.5-.9-4.9.4-1.1 1.1-1.4 2.8-.8 4.1.2.5.5.9.8 1.3l5.2 5.3zM382.5 255.6v-11.7c0-.6.2-1.1.6-1.6L329.7 189c-.2.5-.5.9-.8 1.3l-5.1 5.1c-.4.4-.8.6-1.3.8l9.5 9.5-13.9 13.9 9 9.1 3.6-3.6-1.8-1.8 3.6-3.6 1.8 1.8 1.8-1.8 3.6 3.6-1.8 1.8 1.8 1.8-3.6 3.6-1.8-1.8-3.6 3.6 9 9.1 13.9-13.9 21.7 21.7c.5.1.9.3 1.3.6l5.9 5.8zM388.4 262.1l4.9 4.9 17.6 17.6c1 1 2.3 1.5 3.6 1.5 1.3 0 2.6-.5 3.6-1.5 2-2 2-5.2 0-7.2l-22.5-22.5-7.2 7.2zM387.6 254.1v1.5l4.4-4.3-4.4-4.4z"/><path class="st1" d="M460.6 291c.4.1.8.2 1.3.2 2.1 0 3.8-1.7 3.8-3.8s-1.7-3.8-3.8-3.8-3.8 1.7-3.8 3.8c0 .5.1.9.2 1.3.8.7 1.6 1.5 2.3 2.3zM461.9 324.5c-.5 0-.9.1-1.3.2-.7.8-1.5 1.6-2.3 2.3-.1.4-.2.8-.2 1.3 0 2.1 1.7 3.8 3.8 3.8s3.8-1.7 3.8-3.8c0-2-1.7-3.8-3.8-3.8zM424.5 288.7c.1-.4.2-.8.2-1.3 0-2.1-1.7-3.8-3.8-3.8s-3.8 1.7-3.8 3.8 1.7 3.8 3.8 3.8c.5 0 .9-.1 1.3-.2.7-.8 1.5-1.6 2.3-2.3zM420.9 332.2c2.1 0 3.8-1.7 3.8-3.8v-.5c-2.1 1.1-4.3 2-6.7 2.9.7.9 1.7 1.4 2.9 1.4z"/><path class="st3" d="M460.6 324.8c4-4.5 6.4-10.4 6.4-16.9s-2.4-12.4-6.4-16.9c-.7-.8-1.5-1.6-2.3-2.3-4.5-4-10.4-6.4-16.9-6.4s-12.4 2.4-16.9 6.4c-.8.7-1.6 1.5-2.3 2.3-4 4.5-6.4 10.4-6.4 16.9 0 1.5.2 3 .4 4.4.6 3.3 1.8 6.3 3.4 9 .5.9 1.1 1.7 1.8 2.5 2.1-1 4-2.1 5.7-3.3h.1c-.7-1-1.1-2.3-1.1-3.6 0-3 2.1-5.6 5-6.2-.7-.7-1.1-1.7-1.1-2.7 0-1.1.4-2 1.1-2.7-2.8-.6-5-3.2-5-6.2 0-3.5 2.9-6.4 6.4-6.4 3 0 5.6 2.1 6.2 5 .7-.7 1.7-1.1 2.7-1.1 1.1 0 2 .4 2.7 1.1.6-2.8 3.2-5 6.2-5 3.5 0 6.4 2.9 6.4 6.4 0 3-2.1 5.6-5 6.2.7.7 1.1 1.7 1.1 2.7 0 1.1-.4 2-1.1 2.7 2.8.6 5 3.2 5 6.2 0 3.5-2.9 6.4-6.4 6.4-3 0-5.6-2.1-6.2-5-.7.7-1.7 1.1-2.7 1.1-1.1 0-2-.4-2.7-1.1-.6 2.8-3.2 5-6.2 5-.5 0-.9-.1-1.4-.1-.1.6-.4 1.2-1 1.6-1.5 1.1-3.1 2.1-4.9 3 4.4 3.6 10.1 5.8 16.2 5.8 6.5 0 12.4-2.4 16.9-6.4.8-.8 1.6-1.6 2.3-2.4zm-39-11.7c-.4-1.7-.7-3.4-.7-5.2s.3-3.5.7-5.2c.7 2.1 2 3.8 3.7 5.2-1.7 1.3-3 3.1-3.7 5.2zm19.8-21.3c-1.3-1.7-3.1-3-5.2-3.7 1.7-.4 3.4-.7 5.2-.7s3.5.3 5.2.7c-2.1.7-3.9 2-5.2 3.7zm19.8 10.9c.4 1.7.7 3.4.7 5.2s-.3 3.5-.7 5.2c-.7-2.1-2-3.8-3.7-5.2 1.7-1.3 2.9-3.1 3.7-5.2zm-25 25c2.1-.7 3.8-2 5.2-3.7 1.3 1.7 3.1 3 5.2 3.7-1.7.4-3.4.7-5.2.7s-3.5-.3-5.2-.7z"/><g><path class="st3" d="M445.2 307.9c0 2.1 1.7 3.8 3.8 3.8 1.1 0 2-.4 2.7-1.1.7-.7 1.1-1.7 1.1-2.7 0-1.1-.4-2-1.1-2.7-.7-.7-1.6-1.1-2.7-1.1-2.1 0-3.8 1.7-3.8 3.8zM437.5 307.9c0-2.1-1.7-3.8-3.8-3.8-1.1 0-2 .4-2.7 1.1-.7.7-1.1 1.7-1.1 2.7 0 1.1.4 2 1.1 2.7.7.7 1.6 1.1 2.7 1.1 2.1 0 3.8-1.7 3.8-3.8zM441.4 304.1c2.1 0 3.8-1.7 3.8-3.8 0-1.1-.4-2-1.1-2.7-.7-.7-1.7-1.1-2.7-1.1s-2 .4-2.7 1.1c-.7.7-1.1 1.6-1.1 2.7-.1 2 1.7 3.8 3.8 3.8zM441.4 311.7c-2.1 0-3.8 1.7-3.8 3.8 0 1.1.4 2 1.1 2.7.7.7 1.7 1.1 2.7 1.1s2-.4 2.7-1.1c.7-.7 1.1-1.6 1.1-2.7 0-2-1.7-3.8-3.8-3.8z"/></g><path class="st1" d="M328.9 190.3c.4-.4.7-.8.8-1.3.5-1.4.3-3-.8-4.1-1.3-1.3-3.4-1.4-4.9-.4l-5.7-1.4c.1-.2.1-.4.1-.6 0-1.4-1.1-2.6-2.6-2.6s-2.6 1.1-2.6 2.6 1.1 2.6 2.6 2.6c.2 0 .4-.1.6-.1l1.4 5.7c-1 1.5-1 3.5.4 4.9.8.8 1.7 1.1 2.7 1.1.5 0 1-.1 1.5-.3.5-.2.9-.5 1.3-.8l5.2-5.3z"/><path class="st2" d="M430.1 324.7c.5-.4.9-1 1-1.6.1-.7 0-1.4-.4-2-.8-1.1-2.4-1.4-3.5-.6h-.1c-1.7 1.2-3.6 2.3-5.7 3.3-7.5 3.6-17.7 6-28.7 6.8v-36c11.2 15.3 22.1 23.5 26.9 26.7-1.7-2.7-2.9-5.7-3.4-9-6.2-5.1-15-13.7-23.5-26.7v-17.4c.2-.4.4-.8.5-1.2l-4.9-4.9 7.2-7.2 1.5-1.5c1-1 1-2.6 0-3.6-.6-.6-1.5-.8-2.4-.6-.5.1-.9.3-1.3.6l-1.5 1.5-4.4 4.4V244c0-.6-.2-1.1-.6-1.6-.5-.6-1.2-1-2-1s-1.5.4-2 1c-.3.4-.6 1-.6 1.6v11.7l-5.9-5.9c-.4-.4-.8-.5-1.3-.6-.8-.2-1.7 0-2.4.6-1 1-1 2.6 0 3.6l1.5 1.5 7.2 7.2-4.9 4.9c.2.4.4.8.5 1.2v17.4c-8.5 13-17.2 21.6-23.4 26.7-.6 3.3-1.8 6.3-3.5 9 4.8-3.2 15.7-11.4 26.9-26.7v36c-11-.8-21.2-3.2-28.7-6.8-2.1-1-4-2.1-5.7-3.3h-.1c-1.1-.8-2.7-.5-3.5.6-.4.6-.6 1.3-.4 2 .1.6.4 1.2 1 1.6 1.5 1.1 3.1 2.1 4.9 3 .2.1.3.2.5.2 2.1 1.1 4.3 2 6.7 2.9 7.3 2.6 15.9 4.4 25.2 5v18.9c.8-.4 1.6-.7 2.6-.7s1.8.3 2.6.7V336h5.2v5.9c.8-.4 1.6-.7 2.6-.7s1.8.3 2.6.7v-6.1c9.3-.6 18-2.3 25.2-5 2.4-.9 4.7-1.8 6.7-2.9.2-.1.3-.2.5-.2 2.1-.9 3.8-1.9 5.3-3zm-45 6.2h-2.6v-43.7c.9-1.3 1.7-2.7 2.6-4.2.8 1.4 1.7 2.8 2.6 4.2v43.7h-2.6z"/><g><path class="st1" d="M385.1 184.5c14.1 0 25.6 2.4 25.6 5.4v-10.7c0-1.2-1.1-2.3-3-3.2l.6-1.2c.9-.1 1.7-.6 2.1-1.4.2-.3.3-.7.3-1.1 0-.5-.2-.9-.4-1.3-.5-.7-1.2-1.2-2.1-1.2-1.4 0-2.6 1.1-2.6 2.6 0 .5.2 1 .4 1.4l-.7 1.3c-1.9-.7-4.3-1.3-7-1.7l.3-1.2c1.1-.3 1.8-1.3 1.8-2.4 0-1.4-1.1-2.6-2.6-2.6s-2.6 1.1-2.6 2.6c0 .7.3 1.4.8 1.8l-.3 1.4c-1.4-.2-2.9-.3-4.5-.4.1-.5.2-1 .2-1.5 0-3.5-2.9-6.4-6.4-6.4s-6.4 2.9-6.4 6.4c0 .5.1 1 .2 1.5-1.6.1-3 .2-4.5.4l-.3-1.4c.5-.5.8-1.1.8-1.8 0-1.4-1.1-2.6-2.6-2.6s-2.6 1.1-2.6 2.6c0 1.2.8 2.1 1.8 2.4l.3 1.2c-2.7.4-5.1 1-7 1.7l-.7-1.3c.3-.4.4-.9.4-1.4 0-1.4-1.1-2.6-2.6-2.6-.9 0-1.7.5-2.1 1.2-.2.4-.4.8-.4 1.3 0 .4.1.8.3 1.1.4.8 1.2 1.3 2.1 1.4l.6 1.2c-1.9 1-3 2.1-3 3.2v10.7c.2-3 11.6-5.4 25.8-5.4zM359.5 190.1v-.3.3z"/><path class="st1" d="M410.7 190.1v-.3c0 .1-.1.2 0 .3z"/></g><path class="st0" d="M364.6 195.3c0 .5-.2 1-.4 1.4l1 1.9c1.7-.8 4-1.6 6.8-2.1l-.3-1.3c-1.1-.3-1.8-1.3-1.8-2.4 0-1.4 1.1-2.6 2.6-2.6s2.6 1.1 2.6 2.6c0 .7-.3 1.4-.8 1.8l.4 1.5c2.5-.4 5.2-.6 8.1-.7V193c-.8-.7-1.3-1.7-1.3-2.8 0-2.1 1.7-3.8 3.8-3.8s3.8 1.7 3.8 3.8c0 1.1-.5 2.1-1.3 2.8v2.3c2.9.1 5.6.3 8.1.7l.4-1.5c-.5-.5-.8-1.1-.8-1.8 0-1.4 1.1-2.6 2.6-2.6s2.6 1.1 2.6 2.6c0 1.2-.8 2.1-1.8 2.4l-.3 1.3c2.8.6 5.1 1.3 6.8 2.1l1-1.9c-.3-.4-.4-.9-.4-1.4 0-1.4 1.1-2.6 2.6-2.6.6 0 1.2.2 1.6.6.6-1.4.9-2.5.9-3.2v-.3c0-3-11.5-5.4-25.6-5.4s-25.6 2.4-25.6 5.4v.3c.1.7.4 1.8.9 3.2.4-.4 1-.6 1.6-.6 1 .1 2.2 1.3 2.2 2.7z"/><path class="st1" d="M359.5 195.3c0 1.4 1.1 2.4 2.4 2.5l1.1 2.2c-.6.6-.9 1.2-.9 1.8 0 .7.4 1.4 1.2 2.1l3.9 6.7c0-2.8 8-5.1 17.9-5.1s17.9 2.3 17.9 5.1l3.9-6.7c.8-.7 1.2-1.4 1.2-2.1 0-.6-.3-1.3-.9-1.8l1.1-2.2c1.3-.1 2.4-1.2 2.4-2.5 0-.8-.4-1.5-1-2-.4-.4-1-.6-1.6-.6-1.4 0-2.6 1.1-2.6 2.6 0 .5.2 1 .4 1.4l-1 1.9c-1.7-.8-4-1.6-6.8-2.1l.3-1.3c1.1-.3 1.8-1.3 1.8-2.4 0-1.4-1.1-2.6-2.6-2.6s-2.6 1.1-2.6 2.6c0 .7.3 1.4.8 1.8l-.4 1.5c-2.5-.4-5.2-.6-8.1-.7V193c.8-.7 1.3-1.7 1.3-2.8 0-2.1-1.7-3.8-3.8-3.8s-3.8 1.7-3.8 3.8c0 1.1.5 2.1 1.3 2.8v2.3c-2.9.1-5.6.3-8.1.7l-.4-1.5c.5-.5.8-1.1.8-1.8 0-1.4-1.1-2.6-2.6-2.6s-2.6 1.1-2.6 2.6c0 1.2.8 2.1 1.8 2.4l.3 1.3c-2.8.6-5.1 1.3-6.8 2.1l-1-1.9c.3-.4.4-.9.4-1.4 0-1.4-1.1-2.6-2.6-2.6-.6 0-1.2.2-1.6.6 0 .6-.4 1.3-.4 2.1z"/><ellipse class="st2" cx="385.1" cy="210.6" rx="17.9" ry="5.1"/><g><path class="st1" d="M410 167l-4.5-10.1c0-.6-.5-1.2-1.4-1.8l3.6-7.3c.6-1.3.1-2.8-1.1-3.4-1.3-.6-2.8-.1-3.4 1.1l-2 4-1.9 3.8c-1.1-.3-2.3-.5-3.6-.7l.2-.9c1.1-.3 1.8-1.3 1.8-2.4 0-1.4-1.1-2.6-2.6-2.6s-2.6 1.1-2.6 2.6c0 .7.3 1.4.8 1.8l-.3 1.2c-2.5-.3-5.3-.4-8.2-.4-2.9 0-5.7.2-8.2.4l-.3-1.2c.5-.5.8-1.1.8-1.8 0-1.4-1.1-2.6-2.6-2.6s-2.6 1.1-2.6 2.6c0 1.2.8 2.1 1.8 2.4l.2.9c-1.3.2-2.5.4-3.6.7l-1.9-3.8-2-4c-.6-1.3-2.2-1.8-3.4-1.1-1.3.6-1.8 2.2-1.1 3.4l3.6 7.3c-.9.6-1.4 1.2-1.4 1.8l-4.5 10.1c2.5-2.9 12.7-5 25-5 12.7 0 22.9 2.1 25.4 5z"/><circle class="st1" cx="385.1" cy="147.9" r="3.8"/></g></g></svg>