<?xml version="1.0" encoding="utf-8"?>
<!-- Generator: Adobe Illustrator 25.0.0, SVG Export Plug-In . SVG Version: 6.00 Build 0)  -->
<svg version="1.1" id="Layer_1" xmlns="http://www.w3.org/2000/svg" xmlns:xlink="http://www.w3.org/1999/xlink" x="0px" y="0px"
	 viewBox="0 0 512 512" style="enable-background:new 0 0 512 512;" xml:space="preserve">
<style type="text/css">
	.st0{fill:#FFFFFF;}
	.st1{fill:#FFE000;}
	.st2{fill:#EE0204;}
	.st3{fill:#CCCCCC;}
</style>
<rect x="256" y="88" class="st0" width="256" height="336"/>
<rect y="88" class="st1" width="256" height="336"/>
<g id="seal">
	<g>
		<path class="st0" d="M408.3,174.8l-0.6,1.2c1.9,1,3,2.1,3,3.2l-0.3-5.8C410,174.1,409.2,174.7,408.3,174.8z"/>
		<path class="st0" d="M362.4,175.9l-0.6-1.2c-0.9-0.1-1.7-0.6-2.1-1.4l-0.3,5.8C359.5,178,360.5,176.9,362.4,175.9z"/>
		<path class="st0" d="M362,169.7c1.4,0,2.6,1.1,2.6,2.6c0,0.5-0.2,1-0.4,1.4l0.7,1.3c1.9-0.7,4.3-1.3,7-1.7l-0.3-1.2
			c-1.1-0.3-1.8-1.3-1.8-2.4c0-1.4,1.1-2.6,2.6-2.6s2.6,1.1,2.6,2.6c0,0.7-0.3,1.4-0.8,1.8l0.3,1.4c1.4-0.2,2.9-0.3,4.5-0.4
			c-0.1-0.5-0.2-1-0.2-1.5c0-3.5,2.9-6.4,6.4-6.4s6.4,2.9,6.4,6.4c0,0.5-0.1,1-0.2,1.5c1.6,0.1,3,0.2,4.5,0.4l0.3-1.4
			c-0.5-0.5-0.8-1.1-0.8-1.8c0-1.4,1.1-2.6,2.6-2.6s2.6,1.1,2.6,2.6c0,1.2-0.8,2.1-1.8,2.4l-0.3,1.2c2.7,0.4,5.1,1,7,1.7l0.7-1.3
			c-0.3-0.4-0.4-0.9-0.4-1.4c0-1.4,1.1-2.6,2.6-2.6c0.9,0,1.7,0.5,2.1,1.2L410,167c-2.5-2.9-12.7-5-25-5s-22.5,2.1-25,5l-0.2,3.9
			C360.3,170.2,361.1,169.7,362,169.7z"/>
	</g>
	<path class="st1" d="M389.1,139.6c0.7-0.9,1.1-2,1.1-3.2c0-2.4-1.6-4.4-3.8-4.9v-3.1c0.8-0.4,1.3-1.2,1.3-2.2
		c0-1.4-1.1-2.6-2.6-2.6s-2.6,1.1-2.6,2.6c0,0.9,0.5,1.7,1.3,2.2v3.1c-2.2,0.6-3.8,2.6-3.8,4.9c0,1.2,0.4,2.3,1.1,3.2
		c1.3-0.4,2.6-0.6,4-0.6S387.8,139.2,389.1,139.6z"/>
	<path class="st0" d="M374.3,152.5l-0.2-0.9c-1.1-0.3-1.8-1.3-1.8-2.4c0-1.4,1.1-2.6,2.6-2.6s2.6,1.1,2.6,2.6c0,0.7-0.3,1.4-0.8,1.8
		l0.3,1.2c2.5-0.3,5.3-0.4,8.2-0.4c-2.1,0-3.8-1.7-3.8-3.8s1.7-3.8,3.8-3.8s3.8,1.7,3.8,3.8s-1.7,3.8-3.8,3.8c2.9,0,5.7,0.2,8.2,0.4
		l0.3-1.2c-0.5-0.5-0.8-1.1-0.8-1.8c0-1.4,1.1-2.6,2.6-2.6s2.6,1.1,2.6,2.6c0,1.2-0.8,2.1-1.8,2.4l-0.2,0.9c1.3,0.2,2.5,0.4,3.6,0.7
		l1.9-3.8c-3.3-5.1-7.5-8.6-12.2-9.9c-1.3-0.4-2.6-0.6-4-0.6c-1.4,0-2.7,0.2-4,0.6c-4.7,1.3-9,4.8-12.2,9.9l1.9,3.8
		C371.8,152.9,373,152.7,374.3,152.5z"/>
	<g>
		<path class="st1" d="M382.5,362.1v-5.6c0-0.6,0.1-1.2,0.2-1.7c-0.1,0-0.1-0.1-0.2-0.1c-0.8-0.4-1.6-0.7-2.6-0.7s-1.8,0.3-2.6,0.7
			c-1.5,0.9-2.6,2.5-2.6,4.4c0,1.4,0.6,2.6,1.4,3.5c1.1-0.6,2.3-1,3.7-1C380.8,361.7,381.7,361.9,382.5,362.1z"/>
		<path class="st1" d="M387.6,341.9c-1.5,0.9-2.6,2.5-2.6,4.4c0,1.4,0.6,2.6,1.4,3.5c1.1-0.6,2.3-1,3.7-1c1.3,0,2.6,0.4,3.7,1
			c0.9-0.9,1.4-2.2,1.4-3.5c0-1.9-1-3.5-2.6-4.4c-0.8-0.4-1.6-0.7-2.6-0.7C389.2,341.2,388.4,341.5,387.6,341.9z"/>
	</g>
	<path class="st2" d="M386.5,349.8c-1.9,1-3.3,2.8-3.8,5c-0.1,0.6-0.2,1.1-0.2,1.7v5.6c-0.8-0.3-1.7-0.5-2.6-0.5
		c-1.3,0-2.6,0.4-3.7,1c-2.4,1.3-4,3.8-4,6.7v10.2h15.4v-10.2c0-0.9-0.2-1.8-0.5-2.6h10.7v-10.2c0-2.9-1.6-5.4-4-6.7
		c-1.1-0.6-2.3-1-3.7-1S387.6,349.2,386.5,349.8z"/>
	<g>
		<path class="st1" d="M387.6,246.9l4.4,4.4l1.5-1.5c0.4-0.4,0.8-0.5,1.3-0.6l21.7-21.7l13.9,13.9l9-9.1l-3.6-3.6l-1.8,1.8l-3.6-3.6
			l1.8-1.8l-1.8-1.8l3.6-3.6l1.8,1.8l1.8-1.8l3.6,3.6l-1.8,1.8l3.6,3.6l9-9.1l-13.9-13.9l9.5-9.5c-0.5-0.2-0.9-0.5-1.3-0.8l-5.1-5.1
			c-0.4-0.4-0.7-0.8-0.8-1.3L387,242.4c0.3,0.4,0.6,1,0.6,1.6L387.6,246.9L387.6,246.9z"/>
		<path class="st1" d="M381.7,262.1l-7.2-7.2L352,277.4c-2,2-2,5.2,0,7.2c1,1,2.3,1.5,3.6,1.5s2.6-0.5,3.6-1.5l17.6-17.6
			L381.7,262.1z"/>
	</g>
	<g>
		<path class="st3" d="M311.9,288.7c0.1-0.4,0.2-0.8,0.2-1.3c0-2.1-1.7-3.8-3.8-3.8s-3.8,1.7-3.8,3.8s1.7,3.8,3.8,3.8
			c0.5,0,0.9-0.1,1.3-0.2C310.3,290.2,311,289.4,311.9,288.7z"/>
		<path class="st3" d="M309.5,324.8c-0.4-0.1-0.8-0.2-1.3-0.2c-2.1,0-3.8,1.7-3.8,3.8s1.7,3.8,3.8,3.8s3.8-1.7,3.8-3.8
			c0-0.5-0.1-0.9-0.2-1.3C311,326.4,310.3,325.6,309.5,324.8z"/>
		<path class="st3" d="M347.9,291c0.4,0.1,0.8,0.2,1.3,0.2c2.1,0,3.8-1.7,3.8-3.8s-1.7-3.8-3.8-3.8s-3.8,1.7-3.8,3.8
			c0,0.5,0.1,0.9,0.2,1.3C346.4,289.4,347.2,290.2,347.9,291z"/>
		<path class="st3" d="M345.4,328.4c0,2.1,1.7,3.8,3.8,3.8c1.2,0,2.2-0.5,2.9-1.4c-2.4-0.9-4.7-1.8-6.7-2.9
			C345.4,328.1,345.4,328.2,345.4,328.4z"/>
	</g>
	<path class="st1" d="M340,324.7c-0.5-0.4-0.9-1-1-1.6c-0.4,0.1-0.9,0.1-1.3,0.1c-3,0-5.6-2.1-6.2-5c-0.7,0.7-1.7,1.1-2.7,1.1
		c-1.1,0-2-0.4-2.7-1.1c-0.6,2.8-3.2,5-6.2,5c-3.5,0-6.4-2.9-6.4-6.4c0-3,2.1-5.6,5-6.2c-0.7-0.7-1.1-1.7-1.1-2.7
		c0-1.1,0.4-2,1.1-2.7c-2.8-0.6-5-3.2-5-6.2c0-3.5,2.9-6.4,6.4-6.4c3,0,5.6,2.1,6.2,5c0.7-0.7,1.7-1.1,2.7-1.1c1.1,0,2,0.4,2.7,1.1
		c0.6-2.8,3.2-5,6.2-5c3.5,0,6.4,2.9,6.4,6.4c0,3-2.1,5.6-5,6.2c0.7,0.7,1.1,1.7,1.1,2.7c0,1.1-0.4,2-1.1,2.7c2.8,0.6,5,3.2,5,6.2
		c0,1.4-0.4,2.6-1.1,3.6c0,0,0.1,0,0.1,0c1.7,1.2,3.6,2.3,5.7,3.3c0.6-0.8,1.2-1.6,1.8-2.5c1.7-2.7,2.9-5.8,3.5-9
		c0.3-1.4,0.4-2.9,0.4-4.4c0-6.5-2.4-12.4-6.4-16.9c-0.7-0.8-1.5-1.6-2.3-2.3c-4.5-4-10.4-6.4-16.9-6.4s-12.4,2.4-16.9,6.4
		c-0.8,0.7-1.6,1.5-2.3,2.3c-4,4.5-6.4,10.4-6.4,16.9s2.4,12.4,6.4,16.9c0.7,0.8,1.5,1.6,2.3,2.3c4.5,4,10.4,6.4,16.9,6.4
		c6.2,0,11.8-2.2,16.2-5.8C343.2,326.8,341.5,325.8,340,324.7z M348.5,302.7c0.4,1.7,0.7,3.4,0.7,5.2s-0.3,3.5-0.7,5.2
		c-0.7-2.1-2-3.8-3.7-5.2C346.5,306.6,347.8,304.8,348.5,302.7z M333.9,288.1c-2.1,0.7-3.8,2-5.2,3.7c-1.3-1.7-3.1-3-5.2-3.7
		c1.7-0.4,3.4-0.7,5.2-0.7S332.3,287.7,333.9,288.1z M308.9,302.7c0.7,2.1,2,3.8,3.7,5.2c-1.7,1.3-3,3.1-3.7,5.2
		c-0.4-1.7-0.7-3.4-0.7-5.2S308.5,304.4,308.9,302.7z M323.6,327.7c2.1-0.7,3.8-2,5.2-3.7c1.3,1.7,3.1,3,5.2,3.7
		c-1.7,0.4-3.4,0.7-5.2,0.7S325.2,328.1,323.6,327.7z"/>
	<g>
		<path class="st1" d="M324.9,307.9c0-2.1-1.7-3.8-3.8-3.8c-1.1,0-2,0.4-2.7,1.1c-0.7,0.7-1.1,1.7-1.1,2.7c0,1.1,0.4,2,1.1,2.7
			c0.7,0.7,1.6,1.1,2.7,1.1C323.2,311.7,324.9,310,324.9,307.9z"/>
		<path class="st1" d="M332.6,307.9c0,2.1,1.7,3.8,3.8,3.8c1.1,0,2-0.4,2.7-1.1c0.7-0.7,1.1-1.7,1.1-2.7c0-1.1-0.4-2-1.1-2.7
			c-0.7-0.7-1.6-1.1-2.7-1.1C334.3,304.1,332.6,305.8,332.6,307.9z"/>
		<path class="st1" d="M328.7,304.1c2.1,0,3.8-1.7,3.8-3.8c0-1.1-0.4-2-1.1-2.7c-0.7-0.7-1.7-1.1-2.7-1.1c-1.1,0-2,0.4-2.7,1.1
			c-0.7,0.7-1.1,1.6-1.1,2.7C324.9,302.3,326.6,304.1,328.7,304.1z"/>
		<path class="st1" d="M328.7,311.7c-2.1,0-3.8,1.7-3.8,3.8c0,1.1,0.4,2,1.1,2.7c0.7,0.7,1.7,1.1,2.7,1.1c1.1,0,2-0.4,2.7-1.1
			c0.7-0.7,1.1-1.6,1.1-2.7C332.6,313.5,330.9,311.7,328.7,311.7z"/>
	</g>
	<path class="st3" d="M446.3,195.4c0.4,0.4,0.8,0.6,1.3,0.8c0.5,0.2,1,0.3,1.5,0.3c1,0,2-0.4,2.7-1.1c1.3-1.3,1.4-3.4,0.4-4.9
		l1.4-5.7c0.2,0.1,0.4,0.1,0.6,0.1c1.4,0,2.6-1.1,2.6-2.6s-1.1-2.6-2.6-2.6s-2.6,1.1-2.6,2.6c0,0.2,0.1,0.4,0.1,0.6l-5.7,1.4
		c-1.5-1-3.5-0.9-4.9,0.4c-1.1,1.1-1.4,2.8-0.8,4.1c0.2,0.5,0.5,0.9,0.8,1.3L446.3,195.4z"/>
	<path class="st3" d="M382.5,255.6v-1.5v-10.2c0-0.6,0.2-1.1,0.6-1.6L329.7,189c-0.2,0.5-0.5,0.9-0.8,1.3l-5.1,5.1
		c-0.4,0.4-0.8,0.6-1.3,0.8l9.5,9.5l-13.9,13.9l9,9.1l3.6-3.6l-1.8-1.8l3.6-3.6l1.8,1.8l1.8-1.8l3.6,3.6l-1.8,1.8l1.8,1.8l-3.6,3.6
		l-1.8-1.8l-3.6,3.6l9,9.1l13.9-13.9l21.7,21.7c0.5,0.1,0.9,0.3,1.3,0.6L382.5,255.6z"/>
	<path class="st3" d="M388.4,262.1l4.9,4.9l17.6,17.6c1,1,2.3,1.5,3.6,1.5c1.3,0,2.6-0.5,3.6-1.5c2-2,2-5.2,0-7.2l-22.5-22.5
		L388.4,262.1z"/>
	<polygon class="st3" points="387.6,254.1 387.6,255.6 392,251.3 387.6,246.9 	"/>
	<path class="st1" d="M460.6,291c0.4,0.1,0.8,0.2,1.3,0.2c2.1,0,3.8-1.7,3.8-3.8s-1.7-3.8-3.8-3.8s-3.8,1.7-3.8,3.8
		c0,0.5,0.1,0.9,0.2,1.3C459.1,289.4,459.9,290.2,460.6,291z"/>
	<path class="st1" d="M461.9,324.5c-0.5,0-0.9,0.1-1.3,0.2c-0.7,0.8-1.5,1.6-2.3,2.3c-0.1,0.4-0.2,0.8-0.2,1.3
		c0,2.1,1.7,3.8,3.8,3.8s3.8-1.7,3.8-3.8C465.7,326.3,464,324.5,461.9,324.5z"/>
	<path class="st1" d="M424.5,288.7c0.1-0.4,0.2-0.8,0.2-1.3c0-2.1-1.7-3.8-3.8-3.8s-3.8,1.7-3.8,3.8s1.7,3.8,3.8,3.8
		c0.5,0,0.9-0.1,1.3-0.2C422.9,290.2,423.7,289.4,424.5,288.7z"/>
	<path class="st1" d="M420.9,332.2c2.1,0,3.8-1.7,3.8-3.8c0-0.2,0-0.3,0-0.5c-2.1,1.1-4.3,2-6.7,2.9
		C418.7,331.7,419.7,332.2,420.9,332.2z"/>
	<path class="st3" d="M460.6,324.8c4-4.5,6.4-10.4,6.4-16.9s-2.4-12.4-6.4-16.9c-0.7-0.8-1.5-1.6-2.3-2.3c-4.5-4-10.4-6.4-16.9-6.4
		s-12.4,2.4-16.9,6.4c-0.8,0.7-1.6,1.5-2.3,2.3c-4,4.5-6.4,10.4-6.4,16.9c0,1.5,0.2,3,0.4,4.4c0.6,3.3,1.8,6.3,3.4,9
		c0.5,0.9,1.1,1.7,1.8,2.5c2.1-1,4-2.1,5.7-3.3c0,0,0.1,0,0.1,0c-0.7-1-1.1-2.3-1.1-3.6c0-3,2.1-5.6,5-6.2c-0.7-0.7-1.1-1.7-1.1-2.7
		c0-1.1,0.4-2,1.1-2.7c-2.8-0.6-5-3.2-5-6.2c0-3.5,2.9-6.4,6.4-6.4c3,0,5.6,2.1,6.2,5c0.7-0.7,1.7-1.1,2.7-1.1c1.1,0,2,0.4,2.7,1.1
		c0.6-2.8,3.2-5,6.2-5c3.5,0,6.4,2.9,6.4,6.4c0,3-2.1,5.6-5,6.2c0.7,0.7,1.1,1.7,1.1,2.7c0,1.1-0.4,2-1.1,2.7c2.8,0.6,5,3.2,5,6.2
		c0,3.5-2.9,6.4-6.4,6.4c-3,0-5.6-2.1-6.2-5c-0.7,0.7-1.7,1.1-2.7,1.1c-1.1,0-2-0.4-2.7-1.1c-0.6,2.8-3.2,5-6.2,5
		c-0.5,0-0.9-0.1-1.4-0.1c-0.1,0.6-0.4,1.2-1,1.6c-1.5,1.1-3.1,2.1-4.9,3c4.4,3.6,10.1,5.8,16.2,5.8c6.5,0,12.4-2.4,16.9-6.4
		C459.1,326.4,459.9,325.6,460.6,324.8z M421.6,313.1c-0.4-1.7-0.7-3.4-0.7-5.2s0.3-3.5,0.7-5.2c0.7,2.1,2,3.8,3.7,5.2
		C423.6,309.2,422.3,311,421.6,313.1z M441.4,291.8c-1.3-1.7-3.1-3-5.2-3.7c1.7-0.4,3.4-0.7,5.2-0.7s3.5,0.3,5.2,0.7
		C444.5,288.8,442.7,290.1,441.4,291.8z M461.2,302.7c0.4,1.7,0.7,3.4,0.7,5.2s-0.3,3.5-0.7,5.2c-0.7-2.1-2-3.8-3.7-5.2
		C459.2,306.6,460.4,304.8,461.2,302.7z M436.2,327.7c2.1-0.7,3.8-2,5.2-3.7c1.3,1.7,3.1,3,5.2,3.7c-1.7,0.4-3.4,0.7-5.2,0.7
		S437.9,328.1,436.2,327.7z"/>
	<g>
		<path class="st3" d="M445.2,307.9c0,2.1,1.7,3.8,3.8,3.8c1.1,0,2-0.4,2.7-1.1c0.7-0.7,1.1-1.7,1.1-2.7c0-1.1-0.4-2-1.1-2.7
			c-0.7-0.7-1.6-1.1-2.7-1.1C446.9,304.1,445.2,305.8,445.2,307.9z"/>
		<path class="st3" d="M437.5,307.9c0-2.1-1.7-3.8-3.8-3.8c-1.1,0-2,0.4-2.7,1.1c-0.7,0.7-1.1,1.7-1.1,2.7c0,1.1,0.4,2,1.1,2.7
			c0.7,0.7,1.6,1.1,2.7,1.1C435.8,311.7,437.5,310,437.5,307.9z"/>
		<path class="st3" d="M441.4,304.1c2.1,0,3.8-1.7,3.8-3.8c0-1.1-0.4-2-1.1-2.7c-0.7-0.7-1.7-1.1-2.7-1.1s-2,0.4-2.7,1.1
			c-0.7,0.7-1.1,1.6-1.1,2.7C437.5,302.3,439.3,304.1,441.4,304.1z"/>
		<path class="st3" d="M441.4,311.7c-2.1,0-3.8,1.7-3.8,3.8c0,1.1,0.4,2,1.1,2.7c0.7,0.7,1.7,1.1,2.7,1.1s2-0.4,2.7-1.1
			c0.7-0.7,1.1-1.6,1.1-2.7C445.2,313.5,443.5,311.7,441.4,311.7z"/>
	</g>
	<path class="st1" d="M328.9,190.3c0.4-0.4,0.7-0.8,0.8-1.3c0.5-1.4,0.3-3-0.8-4.1c-1.3-1.3-3.4-1.4-4.9-0.4l-5.7-1.4
		c0.1-0.2,0.1-0.4,0.1-0.6c0-1.4-1.1-2.6-2.6-2.6s-2.6,1.1-2.6,2.6s1.1,2.6,2.6,2.6c0.2,0,0.4-0.1,0.6-0.1l1.4,5.7
		c-1,1.5-1,3.5,0.4,4.9c0.8,0.8,1.7,1.1,2.7,1.1c0.5,0,1-0.1,1.5-0.3c0.5-0.2,0.9-0.5,1.3-0.8L328.9,190.3z"/>
	<path class="st2" d="M430.1,324.7c0.5-0.4,0.9-1,1-1.6c0.1-0.7,0-1.4-0.4-2c-0.8-1.1-2.4-1.4-3.5-0.6c0,0-0.1,0-0.1,0
		c-1.7,1.2-3.6,2.3-5.7,3.3c-7.5,3.6-17.7,6-28.7,6.8v-36c11.2,15.3,22.1,23.5,26.9,26.7c-1.7-2.7-2.9-5.7-3.4-9
		c-6.2-5.1-15-13.7-23.5-26.7v-17.4c0.2-0.4,0.4-0.8,0.5-1.2l-4.9-4.9l7.2-7.2l1.5-1.5c1-1,1-2.6,0-3.6c-0.6-0.6-1.5-0.8-2.4-0.6
		c-0.5,0.1-0.9,0.3-1.3,0.6l-1.5,1.5l-4.4,4.4v-1.5v-7.2v-3c0-0.6-0.2-1.1-0.6-1.6c-0.5-0.6-1.2-1-2-1c-0.8,0-1.5,0.4-2,1
		c-0.3,0.4-0.6,1-0.6,1.6v10.2v1.5l-5.9-5.9c-0.4-0.4-0.8-0.5-1.3-0.6c-0.8-0.2-1.7,0-2.4,0.6c-1,1-1,2.6,0,3.6l1.5,1.5l7.2,7.2
		l-4.9,4.9c0.2,0.4,0.4,0.8,0.5,1.2v17.4c-8.5,13-17.2,21.6-23.4,26.7c-0.6,3.3-1.8,6.3-3.5,9c4.8-3.2,15.7-11.4,26.9-26.7v36
		c-11-0.8-21.2-3.2-28.7-6.8c-2.1-1-4-2.1-5.7-3.3c0,0-0.1,0-0.1,0c-1.1-0.8-2.7-0.5-3.5,0.6c-0.4,0.6-0.6,1.3-0.4,2
		c0.1,0.6,0.4,1.2,1,1.6c1.5,1.1,3.1,2.1,4.9,3c0.2,0.1,0.3,0.2,0.5,0.2c2.1,1.1,4.3,2,6.7,2.9c7.3,2.6,15.9,4.4,25.2,5v18.9
		c0.8-0.4,1.6-0.7,2.6-0.7s1.8,0.3,2.6,0.7V336c0.9,0,1.7,0,2.6,0s1.7,0,2.6,0v5.9c0.8-0.4,1.6-0.7,2.6-0.7s1.8,0.3,2.6,0.7v-6.1
		c9.3-0.6,18-2.3,25.2-5c2.4-0.9,4.7-1.8,6.7-2.9c0.2-0.1,0.3-0.2,0.5-0.2C426.9,326.8,428.6,325.8,430.1,324.7z M385.1,330.9
		c-0.9,0-1.7,0-2.6,0v-43.7c0.9-1.3,1.7-2.7,2.6-4.2c0.8,1.4,1.7,2.8,2.6,4.2v43.7C386.8,330.9,385.9,330.9,385.1,330.9z"/>
	<g>
		<path class="st1" d="M385.1,184.5c14.1,0,25.6,2.4,25.6,5.4c0-5,0-9.9,0-10.7c0-1.2-1.1-2.3-3-3.2l0.6-1.2
			c0.9-0.1,1.7-0.6,2.1-1.4c0.2-0.3,0.3-0.7,0.3-1.1c0-0.5-0.2-0.9-0.4-1.3c-0.5-0.7-1.2-1.2-2.1-1.2c-1.4,0-2.6,1.1-2.6,2.6
			c0,0.5,0.2,1,0.4,1.4l-0.7,1.3c-1.9-0.7-4.3-1.3-7-1.7l0.3-1.2c1.1-0.3,1.8-1.3,1.8-2.4c0-1.4-1.1-2.6-2.6-2.6s-2.6,1.1-2.6,2.6
			c0,0.7,0.3,1.4,0.8,1.8l-0.3,1.4c-1.4-0.2-2.9-0.3-4.5-0.4c0.1-0.5,0.2-1,0.2-1.5c0-3.5-2.9-6.4-6.4-6.4s-6.4,2.9-6.4,6.4
			c0,0.5,0.1,1,0.2,1.5c-1.6,0.1-3,0.2-4.5,0.4l-0.3-1.4c0.5-0.5,0.8-1.1,0.8-1.8c0-1.4-1.1-2.6-2.6-2.6s-2.6,1.1-2.6,2.6
			c0,1.2,0.8,2.1,1.8,2.4l0.3,1.2c-2.7,0.4-5.1,1-7,1.7l-0.7-1.3c0.3-0.4,0.4-0.9,0.4-1.4c0-1.4-1.1-2.6-2.6-2.6
			c-0.9,0-1.7,0.5-2.1,1.2c-0.2,0.4-0.4,0.8-0.4,1.3c0,0.4,0.1,0.8,0.3,1.1c0.4,0.8,1.2,1.3,2.1,1.4l0.6,1.2c-1.9,1-3,2.1-3,3.2
			c0,0.8,0,5.7,0,10.7C359.5,186.9,370.9,184.5,385.1,184.5z"/>
		<path class="st1" d="M359.5,190.1L359.5,190.1c0-0.1,0-0.2,0-0.3C359.5,190,359.5,190.1,359.5,190.1z"/>
		<path class="st1" d="M410.7,190.1c0-0.1,0-0.2,0-0.3C410.7,189.9,410.6,190,410.7,190.1L410.7,190.1z"/>
	</g>
	<path class="st0" d="M364.6,195.3c0,0.5-0.2,1-0.4,1.4l1,1.9c1.7-0.8,4-1.6,6.8-2.1l-0.3-1.3c-1.1-0.3-1.8-1.3-1.8-2.4
		c0-1.4,1.1-2.6,2.6-2.6s2.6,1.1,2.6,2.6c0,0.7-0.3,1.4-0.8,1.8l0.4,1.5c2.5-0.4,5.2-0.6,8.1-0.7V193c-0.8-0.7-1.3-1.7-1.3-2.8
		c0-2.1,1.7-3.8,3.8-3.8s3.8,1.7,3.8,3.8c0,1.1-0.5,2.1-1.3,2.8v2.3c2.9,0.1,5.6,0.3,8.1,0.7l0.4-1.5c-0.5-0.5-0.8-1.1-0.8-1.8
		c0-1.4,1.1-2.6,2.6-2.6s2.6,1.1,2.6,2.6c0,1.2-0.8,2.1-1.8,2.4l-0.3,1.3c2.8,0.6,5.1,1.3,6.8,2.1l1-1.9c-0.3-0.4-0.4-0.9-0.4-1.4
		c0-1.4,1.1-2.6,2.6-2.6c0.6,0,1.2,0.2,1.6,0.6c0.6-1.4,0.9-2.5,0.9-3.2c0-0.1,0-0.2,0-0.3c0-3-11.5-5.4-25.6-5.4
		s-25.6,2.4-25.6,5.4c0,0.1,0,0.2,0,0.3c0.1,0.7,0.4,1.8,0.9,3.2c0.4-0.4,1-0.6,1.6-0.6C363.4,192.7,364.6,193.9,364.6,195.3z"/>
	<path class="st1" d="M359.5,195.3c0,1.4,1.1,2.4,2.4,2.5l1.1,2.2c-0.6,0.6-0.9,1.2-0.9,1.8c0,0.7,0.4,1.4,1.2,2.1l3.9,6.7
		c0-2.8,8-5.1,17.9-5.1s17.9,2.3,17.9,5.1l3.9-6.7c0.8-0.7,1.2-1.4,1.2-2.1c0-0.6-0.3-1.3-0.9-1.8l1.1-2.2c1.3-0.1,2.4-1.2,2.4-2.5
		c0-0.8-0.4-1.5-1-2c-0.4-0.4-1-0.6-1.6-0.6c-1.4,0-2.6,1.1-2.6,2.6c0,0.5,0.2,1,0.4,1.4l-1,1.9c-1.7-0.8-4-1.6-6.8-2.1l0.3-1.3
		c1.1-0.3,1.8-1.3,1.8-2.4c0-1.4-1.1-2.6-2.6-2.6s-2.6,1.1-2.6,2.6c0,0.7,0.3,1.4,0.8,1.8l-0.4,1.5c-2.5-0.4-5.2-0.6-8.1-0.7V193
		c0.8-0.7,1.3-1.7,1.3-2.8c0-2.1-1.7-3.8-3.8-3.8s-3.8,1.7-3.8,3.8c0,1.1,0.5,2.1,1.3,2.8v2.3c-2.9,0.1-5.6,0.3-8.1,0.7l-0.4-1.5
		c0.5-0.5,0.8-1.1,0.8-1.8c0-1.4-1.1-2.6-2.6-2.6s-2.6,1.1-2.6,2.6c0,1.2,0.8,2.1,1.8,2.4l0.3,1.3c-2.8,0.6-5.1,1.3-6.8,2.1l-1-1.9
		c0.3-0.4,0.4-0.9,0.4-1.4c0-1.4-1.1-2.6-2.6-2.6c-0.6,0-1.2,0.2-1.6,0.6C359.9,193.8,359.5,194.5,359.5,195.3z"/>
	<ellipse class="st2" cx="385.1" cy="210.6" rx="17.9" ry="5.1"/>
	<g>
		<path class="st1" d="M410,167l-4.5-10.1c0-0.6-0.5-1.2-1.4-1.8l3.6-7.3c0.6-1.3,0.1-2.8-1.1-3.4c-1.3-0.6-2.8-0.1-3.4,1.1l-2,4
			l-1.9,3.8c-1.1-0.3-2.3-0.5-3.6-0.7l0.2-0.9c1.1-0.3,1.8-1.3,1.8-2.4c0-1.4-1.1-2.6-2.6-2.6s-2.6,1.1-2.6,2.6
			c0,0.7,0.3,1.4,0.8,1.8l-0.3,1.2c-2.5-0.3-5.3-0.4-8.2-0.4c-2.9,0-5.7,0.2-8.2,0.4l-0.3-1.2c0.5-0.5,0.8-1.1,0.8-1.8
			c0-1.4-1.1-2.6-2.6-2.6s-2.6,1.1-2.6,2.6c0,1.2,0.8,2.1,1.8,2.4l0.2,0.9c-1.3,0.2-2.5,0.4-3.6,0.7l-1.9-3.8l-2-4
			c-0.6-1.3-2.2-1.8-3.4-1.1c-1.3,0.6-1.8,2.2-1.1,3.4l3.6,7.3c-0.9,0.6-1.4,1.2-1.4,1.8l-4.5,10.1c2.5-2.9,12.7-5,25-5
			C397.3,162,407.5,164.1,410,167z"/>
		<circle class="st1" cx="385.1" cy="147.9" r="3.8"/>
	</g>
</g>
</svg>
