<?xml version="1.0" encoding="utf-8"?>
<!-- Generator: Adobe Illustrator 25.0.0, SVG Export Plug-In . SVG Version: 6.00 Build 0)  -->
<svg version="1.1" id="Layer_1" xmlns="http://www.w3.org/2000/svg" xmlns:xlink="http://www.w3.org/1999/xlink" x="0px" y="0px"
	 viewBox="0 0 512 512" style="enable-background:new 0 0 512 512;" xml:space="preserve">
<style type="text/css">
	.st0{fill:#FFCC00;}
	.st1{fill:#00247D;}
	.st2{fill:#CF142B;}
	.st3{fill:#FFFFFF;}
</style>
<rect y="88" class="st0" width="512" height="112"/>
<rect y="200" class="st1" width="512" height="112"/>
<rect y="312" class="st2" width="512" height="112"/>
<g>
	<path class="st3" d="M178.1,277.5l2.2,6.6l7,0.1c0.9,0,1.3,1.2,0.6,1.7l-5.6,4.2l2.1,6.7c0.3,0.9-0.7,1.6-1.4,1l-5.7-4.1l-5.7,4.1
		c-0.7,0.5-1.7-0.2-1.4-1l2.1-6.7l-5.6-4.2c-0.7-0.5-0.4-1.7,0.6-1.7l7-0.1l2.2-6.6C176.6,276.6,177.9,276.6,178.1,277.5z"/>
	<path class="st3" d="M191.7,256.4l-1.2,6.9l6.1,3.4c0.8,0.4,0.6,1.6-0.3,1.8l-6.9,1l-1.3,6.9c-0.2,0.9-1.4,1.1-1.8,0.2l-3.1-6.3
		l-6.9,0.9c-0.9,0.1-1.4-1-0.8-1.6l5-4.9l-3-6.3c-0.4-0.8,0.5-1.7,1.3-1.2l6.2,3.3l5.1-4.8C190.8,254.9,191.9,255.5,191.7,256.4z"/>
	<path class="st3" d="M208.9,237.9l-3.3,6.2l4.8,5.1c0.6,0.7,0,1.7-0.9,1.6l-6.9-1.2l-3.4,6.1c-0.4,0.8-1.6,0.6-1.8-0.3l-1-6.9
		l-6.9-1.3c-0.9-0.2-1-1.4-0.2-1.8l6.3-3.1l-0.9-6.9c-0.1-0.9,1-1.4,1.6-0.8l4.9,5l6.3-3C208.5,236.2,209.3,237.1,208.9,237.9z"/>
	<path class="st3" d="M229.6,226.4l-4.8,5.1l3.2,6.2c0.4,0.8-0.4,1.7-1.2,1.3l-6.3-3l-4.9,5c-0.6,0.6-1.7,0.1-1.6-0.8l0.9-6.9
		l-6.3-3.1c-0.8-0.4-0.6-1.6,0.2-1.8l6.9-1.3l1-6.9c0.1-0.9,1.3-1.1,1.8-0.3l3.3,6.2l6.9-1.2C229.7,224.7,230.2,225.8,229.6,226.4z"
		/>
	<path class="st3" d="M253.4,221.1l-6,3.6l1.4,6.8c0.2,0.9-0.9,1.5-1.5,0.9l-5.3-4.6l-6.1,3.5c-0.8,0.5-1.7-0.4-1.3-1.2l2.8-6.4
		l-5.2-4.7c-0.7-0.6-0.2-1.7,0.7-1.6l7,0.6l2.9-6.4c0.4-0.8,1.6-0.7,1.8,0.2l1.6,6.8l7,0.7C253.9,219.5,254.2,220.7,253.4,221.1z"/>
	<path class="st3" d="M333.9,277.5l-2.2,6.6l-7,0.1c-0.9,0-1.3,1.2-0.6,1.7l5.6,4.2l-2.1,6.7c-0.3,0.9,0.7,1.6,1.4,1l5.7-4.1
		l5.7,4.1c0.7,0.5,1.7-0.2,1.4-1l-2.1-6.7l5.6-4.2c0.7-0.5,0.4-1.7-0.6-1.7l-7-0.1l-2.2-6.6C335.4,276.6,334.1,276.6,333.9,277.5z"
		/>
	<path class="st3" d="M320.3,256.4l1.2,6.9l-6.1,3.4c-0.8,0.4-0.6,1.6,0.3,1.8l6.9,1l1.3,6.9c0.2,0.9,1.4,1.1,1.8,0.2l3.1-6.3
		l6.9,0.9c0.9,0.1,1.4-1,0.8-1.6l-5-4.9l3-6.3c0.4-0.8-0.5-1.7-1.3-1.2l-6.2,3.3l-5.1-4.8C321.2,254.9,320.1,255.5,320.3,256.4z"/>
	<path class="st3" d="M303.1,237.9l3.3,6.2l-4.8,5.1c-0.6,0.7,0,1.7,0.9,1.6l6.9-1.2l3.4,6.1c0.4,0.8,1.6,0.6,1.8-0.3l1-6.9l6.9-1.3
		c0.9-0.2,1-1.4,0.2-1.8l-6.3-3.1l0.9-6.9c0.1-0.9-1-1.4-1.6-0.8l-4.9,5l-6.3-3C303.5,236.2,302.7,237.1,303.1,237.9z"/>
	<path class="st3" d="M282.4,226.4l4.8,5.1l-3.2,6.2c-0.4,0.8,0.4,1.7,1.2,1.3l6.3-3l4.9,5c0.6,0.6,1.7,0.1,1.6-0.8l-0.9-6.9
		l6.3-3.1c0.8-0.4,0.6-1.6-0.2-1.8l-6.9-1.3l-1-6.9c-0.1-0.9-1.3-1.1-1.8-0.3l-3.3,6.2l-6.9-1.2
		C282.3,224.7,281.8,225.8,282.4,226.4z"/>
	<path class="st3" d="M258.6,221.1l6,3.6l-1.4,6.8c-0.2,0.9,0.9,1.5,1.5,0.9l5.3-4.6l6.1,3.5c0.8,0.5,1.7-0.4,1.3-1.2l-2.8-6.4
		l5.2-4.7c0.7-0.6,0.2-1.7-0.7-1.6l-7,0.6l-2.9-6.4c-0.4-0.8-1.6-0.7-1.8,0.2l-1.6,6.8l-7,0.7C258.1,219.5,257.8,220.7,258.6,221.1z
		"/>
</g>
</svg>
