<svg version="1.1" id="Layer_1" xmlns="http://www.w3.org/2000/svg" x="0" y="0" viewBox="0 0 512 512" xml:space="preserve"><style>.st3{fill:#fff}</style><path fill="#fc0" d="M0 88h512v112H0z"/><path fill="#00247d" d="M0 200h512v112H0z"/><path fill="#cf142b" d="M0 312h512v112H0z"/><path class="st3" d="M178.1 277.5l2.2 6.6 7 .1c.9 0 1.3 1.2.6 1.7l-5.6 4.2 2.1 6.7c.3.9-.7 1.6-1.4 1l-5.7-4.1-5.7 4.1c-.7.5-1.7-.2-1.4-1l2.1-6.7-5.6-4.2c-.7-.5-.4-1.7.6-1.7l7-.1 2.2-6.6c.1-.9 1.4-.9 1.6 0zM191.7 256.4l-1.2 6.9 6.1 3.4c.8.4.6 1.6-.3 1.8l-6.9 1-1.3 6.9c-.2.9-1.4 1.1-1.8.2l-3.1-6.3-6.9.9c-.9.1-1.4-1-.8-1.6l5-4.9-3-6.3c-.4-.8.5-1.7 1.3-1.2l6.2 3.3 5.1-4.8c.7-.8 1.8-.2 1.6.7zM208.9 237.9l-3.3 6.2 4.8 5.1c.6.7 0 1.7-.9 1.6l-6.9-1.2-3.4 6.1c-.4.8-1.6.6-1.8-.3l-1-6.9-6.9-1.3c-.9-.2-1-1.4-.2-1.8l6.3-3.1-.9-6.9c-.1-.9 1-1.4 1.6-.8l4.9 5 6.3-3c1-.4 1.8.5 1.4 1.3zM229.6 226.4l-4.8 5.1 3.2 6.2c.4.8-.4 1.7-1.2 1.3l-6.3-3-4.9 5c-.6.6-1.7.1-1.6-.8l.9-6.9-6.3-3.1c-.8-.4-.6-1.6.2-1.8l6.9-1.3 1-6.9c.1-.9 1.3-1.1 1.8-.3l3.3 6.2 6.9-1.2c1-.2 1.5.9.9 1.5zM253.4 221.1l-6 3.6 1.4 6.8c.2.9-.9 1.5-1.5.9l-5.3-4.6-6.1 3.5c-.8.5-1.7-.4-1.3-1.2l2.8-6.4-5.2-4.7c-.7-.6-.2-1.7.7-1.6l7 .6 2.9-6.4c.4-.8 1.6-.7 1.8.2l1.6 6.8 7 .7c.7.2 1 1.4.2 1.8zM333.9 277.5l-2.2 6.6-7 .1c-.9 0-1.3 1.2-.6 1.7l5.6 4.2-2.1 6.7c-.3.9.7 1.6 1.4 1l5.7-4.1 5.7 4.1c.7.5 1.7-.2 1.4-1l-2.1-6.7 5.6-4.2c.7-.5.4-1.7-.6-1.7l-7-.1-2.2-6.6c-.1-.9-1.4-.9-1.6 0zM320.3 256.4l1.2 6.9-6.1 3.4c-.8.4-.6 1.6.3 1.8l6.9 1 1.3 6.9c.2.9 1.4 1.1 1.8.2l3.1-6.3 6.9.9c.9.1 1.4-1 .8-1.6l-5-4.9 3-6.3c.4-.8-.5-1.7-1.3-1.2l-6.2 3.3-5.1-4.8c-.7-.8-1.8-.2-1.6.7zM303.1 237.9l3.3 6.2-4.8 5.1c-.6.7 0 1.7.9 1.6l6.9-1.2 3.4 6.1c.4.8 1.6.6 1.8-.3l1-6.9 6.9-1.3c.9-.2 1-1.4.2-1.8l-6.3-3.1.9-6.9c.1-.9-1-1.4-1.6-.8l-4.9 5-6.3-3c-1-.4-1.8.5-1.4 1.3zM282.4 226.4l4.8 5.1-3.2 6.2c-.4.8.4 1.7 1.2 1.3l6.3-3 4.9 5c.6.6 1.7.1 1.6-.8l-.9-6.9 6.3-3.1c.8-.4.6-1.6-.2-1.8l-6.9-1.3-1-6.9c-.1-.9-1.3-1.1-1.8-.3l-3.3 6.2-6.9-1.2c-1-.2-1.5.9-.9 1.5zM258.6 221.1l6 3.6-1.4 6.8c-.2.9.9 1.5 1.5.9l5.3-4.6 6.1 3.5c.8.5 1.7-.4 1.3-1.2l-2.8-6.4 5.2-4.7c.7-.6.2-1.7-.7-1.6l-7 .6-2.9-6.4c-.4-.8-1.6-.7-1.8.2l-1.6 6.8-7 .7c-.7.2-1 1.4-.2 1.8z"/></svg>