<svg version="1.1" id="Layer_1" xmlns="http://www.w3.org/2000/svg" x="0" y="0" viewBox="0 0 512 512" xml:space="preserve"><style>.st0{fill:#012169}.st1{fill:#fff}.st2{fill:#c8102e}.st4{fill:#ff4b55}.st5{fill:#ffe15a}.st6{fill:#ffc8b9}.st7{fill:#f5f5f5}</style><path class="st0" d="M256.1 88v168.2H0V424h512V88z"/><g id="Union_flag"><path class="st0" d="M0 88h256.1v168.2H0z"/><path class="st1" d="M106 150.1v-7.9L22.7 88H0v17l69.3 45.1zM106 194.1H70.8L0 240.1v16.1h24.2l81.8-53.3zM233.9 88L150 142.5v7.6h37.3l68.8-44.8V88zM150 194.1v8.5l82.5 53.6h23.6v-16.4l-70.2-45.7z"/><path class="st1" d="M256.1 150.1H150V88h-44v62.1H0v44h106v62.1h44v-62.1h106.1z"/><path class="st2" d="M256.1 158.8H141.3V88h-26.5v70.8H0v26.5h114.8v70.9h26.5v-70.9h114.8z"/><path class="st2" d="M97.2 150.1L1.7 88H0v9.6l80.7 52.5zM106 194.1H89.6L0 252.4v3.8h10.6zM157.3 194.1l95.5 62.1h3.3v-8.6l-82.3-53.5zM245.4 88L150 150v.1h16.4l89.7-58.3V88z"/></g><path d="M387.8 171.1H330v105.4c0 23.8 57.8 47.6 57.8 47.6s57.8-23.8 57.8-47.6V171.1h-57.8z" fill="#73af00"/><path class="st4" d="M353.9 251.5s-.3-1.1 0-2.1-.5-1.9-.6-2.8c-.4-2.4 1.6-3 1.7-5.1 0 0 1.4 1.5.9 2.9-.5 1.4.8 1.6.6 3s-1.7 2.7-1.5 3.9l-1.1.2z"/><path class="st5" d="M376.6 249.3c-1.2-1.5-3.3.1-4.8 1.3-.2.2-.4.3-.6.4l-5.6-8.3c.2-.2.3-.5.3-.8 0-.8-.7-1.5-1.5-1.5s-1.5.7-1.5 1.5c0 .3.1.6.3.8l-5.8 8.5h-4.1s-.2 2.5 4.3 2.8c.6.9 1.4 1.6 2.4 2-.5.1-.8.4-.8.9v.7h10.4v-.7c0-.5-.4-.9-.8-.9 1.7-.7 3-2.3 3.2-4.3.2-.1.3-.2.5-.4 1.1-.8 2.7-2.1 3.3-1.5.1.2.1.3.1.3-.1.4-.9.9-1.6 1.4-1.1.7-2.1 1.4-2.2 2.5 0 .3.2.6.5.6s.5-.2.5-.5c0-.5 1-1.2 1.8-1.7 1-.7 1.9-1.3 2-2.1.1-.3 0-.7-.3-1zm-9.5 1.9c-.3-1.2-1-2.3-1.9-2.7.5-.2.8-.7.8-1.3 0-.8-.7-1.5-1.5-1.5s-1.5.7-1.5 1.5c0 .6.3 1.1.8 1.3-.9.4-1.6 1.5-1.9 2.7h-3.1l5.4-7.9c.1 0 .2.1.3.1s.2 0 .3-.1l5.4 7.9h-3.1z"/><path class="st6" d="M384.1 201.2s-5.4-1.6-7.8 17.2c0 0-13.2 16.8-13.6 17.7-.4 1 0 8.1 1.4 7.5s4-3.9 3.8-6.3.9-3.8 2-5c2-2.3 13.4-12.5 13.8-14.8.4-2.1.4-16.3.4-16.3z"/><path class="st7" d="M392.4 197.6s8.3-1.1 10.8 7.4c0 0-6.8 3.8-6 8.6s-.1 27.2-.1 27.2c-13.1 4.2-20-1.1-20-1.1s3.4-12.6 2.9-22.9c0 0-3.1-2.3-2.3-5 .7-2.7 2.7-5.6 3.3-7.9s2.3-5.9 6.5-6.3c4.1-.2 4.9 0 4.9 0z"/><path class="st7" d="M379.5 237.3s-6.5 24.6-4.2 58.2c0 0 20.3 2.7 31.4-1.3 0 0-5.7-40.2-11.3-55.9l-15.9-1z"/><path class="st6" d="M383.4 183.1v10.2c0 1.1.9 2 2 2h.2c.8 0 1.4.6 1.4 1.4v2.4s1.4 3.6 6.7-.6v-15.4h-10.3z"/><path d="M382.2 181c-.3.8 0 3.1 2.1 2.9 2.5-.2 5.6-.2 6.3 2.6.6 2.6.2 9.2 3 9.6 2.8.4 6-1.5 6-7.1-.1-5-3.3-10.9-7.8-10 0 0-4-2.8-6.4.4-.1-.1-2.5-.2-3.2 1.6z" fill="#8c5a28"/><path class="st6" d="M403.2 205s2.9 19.1 2.8 20.7c-.1 1.6-10.3 17.3-9.7 19 .6 1.7 1.1 4-2 4.8s-2.8-4.1-1.9-6.7c.9-2.6 8-16.1 8-17.7s-4-11.6-3-15.6c.8-4 5.8-4.5 5.8-4.5z"/><path class="st4" d="M341.2 191.3s-.3-1.1 0-2.1-.5-1.9-.6-2.8c-.4-2.4 1.6-3 1.7-5.1 0 0 1.4 1.5.9 2.9-.5 1.4.8 1.6.6 3s-1.7 2.7-1.5 3.9l-1.1.2z"/><path class="st5" d="M363.9 189c-1.2-1.5-3.3.1-4.8 1.3-.2.2-.4.3-.6.4l-5.6-8.3c.2-.2.3-.5.3-.8 0-.8-.7-1.5-1.5-1.5s-1.5.7-1.5 1.5c0 .3.1.6.3.8l-5.8 8.5h-4.1s-.2 2.5 4.3 2.8c.6.9 1.4 1.6 2.4 2-.5.1-.8.4-.8.9v.7h10.4v-.7c0-.5-.4-.9-.8-.9 1.7-.7 3-2.3 3.2-4.3.2-.1.3-.2.5-.4 1.1-.8 2.7-2.1 3.3-1.5.1.2.1.3.1.3-.1.4-.9.9-1.6 1.4-1.1.7-2.1 1.4-2.2 2.5 0 .3.2.6.5.6s.5-.2.5-.5c0-.5 1-1.2 1.8-1.7 1-.7 1.9-1.3 2-2.1.1-.3 0-.6-.3-1zm-9.6 2c-.3-1.2-1-2.3-1.9-2.7.5-.2.8-.7.8-1.3 0-.8-.7-1.5-1.5-1.5s-1.5.7-1.5 1.5c0 .6.3 1.1.8 1.3-.9.4-1.6 1.5-1.9 2.7H346l5.4-7.9c.1 0 .2.1.3.1.1 0 .2 0 .3-.1l5.4 7.9h-3.1z"/><path class="st4" d="M341.2 211.4s-.3-1.1 0-2.1-.5-1.9-.6-2.8c-.4-2.4 1.6-3 1.7-5.1 0 0 1.4 1.5.9 2.9-.5 1.4.8 1.6.6 3s-1.7 2.7-1.5 3.9l-1.1.2z"/><path class="st5" d="M363.9 209.1c-1.2-1.5-3.3.1-4.8 1.3-.2.2-.4.3-.6.4l-5.6-8.3c.2-.2.3-.5.3-.8 0-.8-.7-1.5-1.5-1.5s-1.5.7-1.5 1.5c0 .3.1.6.3.8l-5.8 8.5h-4.1s-.2 2.5 4.3 2.8c.6.9 1.4 1.6 2.4 2-.5.1-.8.4-.8.9v.7h10.4v-.7c0-.5-.4-.9-.8-.9 1.7-.7 3-2.3 3.2-4.3.2-.1.3-.2.5-.4 1.1-.8 2.7-2.1 3.3-1.5.1.2.1.3.1.3-.1.4-.9.9-1.6 1.4-1.1.7-2.1 1.4-2.2 2.5 0 .3.2.6.5.6s.5-.2.5-.5c0-.5 1-1.2 1.8-1.7 1-.7 1.9-1.3 2-2.1.1-.3 0-.7-.3-1zm-9.6 1.9c-.3-1.2-1-2.3-1.9-2.7.5-.2.8-.7.8-1.3 0-.8-.7-1.5-1.5-1.5s-1.5.7-1.5 1.5c0 .6.3 1.1.8 1.3-.9.4-1.6 1.5-1.9 2.7H346l5.4-7.9c.1 0 .2.1.3.1.1 0 .2 0 .3-.1l5.4 7.9h-3.1z"/><path class="st4" d="M341.2 231.4s-.3-1.1 0-2.1-.5-1.9-.6-2.8c-.4-2.4 1.6-3 1.7-5.1 0 0 1.4 1.5.9 2.9-.5 1.4.8 1.6.6 3s-1.7 2.7-1.5 3.9l-1.1.2z"/><path class="st5" d="M363.9 229.2c-1.2-1.5-3.3.1-4.8 1.3-.2.2-.4.3-.6.4l-5.6-8.3c.2-.2.3-.5.3-.8 0-.8-.7-1.5-1.5-1.5s-1.5.7-1.5 1.5c0 .3.1.6.3.8l-5.8 8.5h-4.1s-.2 2.5 4.3 2.8c.6.9 1.4 1.6 2.4 2-.5.1-.8.4-.8.9v.7h10.4v-.7c0-.5-.4-.9-.8-.9 1.7-.7 3-2.3 3.2-4.3.2-.1.3-.2.5-.4 1.1-.8 2.7-2.1 3.3-1.5.1.2.1.3.1.3-.1.4-.9.9-1.6 1.4-1.1.7-2.1 1.4-2.2 2.5 0 .3.2.6.5.6s.5-.2.5-.5c0-.5 1-1.2 1.8-1.7 1-.7 1.9-1.3 2-2.1.1-.3 0-.7-.3-1zm-9.6 1.9c-.3-1.2-1-2.3-1.9-2.7.5-.2.8-.7.8-1.3 0-.8-.7-1.5-1.5-1.5s-1.5.7-1.5 1.5c0 .6.3 1.1.8 1.3-.9.4-1.6 1.5-1.9 2.7H346l5.4-7.9c.1 0 .2.1.3.1.1 0 .2 0 .3-.1l5.4 7.9h-3.1z"/><path class="st4" d="M341.2 271.6s-.3-1.1 0-2.1-.5-1.9-.6-2.8c-.4-2.4 1.6-3 1.7-5.1 0 0 1.4 1.5.9 2.9s.8 1.6.6 3-1.7 2.7-1.5 3.9l-1.1.2z"/><path class="st5" d="M363.9 269.4c-1.2-1.5-3.3.1-4.8 1.3-.2.2-.4.3-.6.4l-5.6-8.3c.2-.2.3-.5.3-.8 0-.8-.7-1.5-1.5-1.5s-1.5.7-1.5 1.5c0 .3.1.6.3.8l-5.8 8.5h-4.1s-.2 2.5 4.3 2.8c.6.9 1.4 1.6 2.4 2-.5.1-.8.4-.8.9v.7h10.4v-.7c0-.5-.4-.9-.8-.9 1.7-.7 3-2.3 3.2-4.3.2-.1.3-.2.5-.4 1.1-.8 2.7-2.1 3.3-1.5.1.2.1.3.1.3-.1.4-.9 1-1.6 1.4-1.1.7-2.1 1.4-2.2 2.5 0 .3.2.6.5.6s.5-.2.5-.5c0-.5 1-1.2 1.8-1.7 1-.7 1.9-1.3 2-2.1.1-.3 0-.7-.3-1zm-9.6 1.9c-.3-1.2-1-2.3-1.9-2.7.5-.2.8-.7.8-1.3 0-.8-.7-1.5-1.5-1.5s-1.5.7-1.5 1.5c0 .6.3 1.1.8 1.3-.9.4-1.6 1.5-1.9 2.7H346l5.4-7.9c.1 0 .2.1.3.1.1 0 .2 0 .3-.1l5.4 7.9h-3.1z"/><path class="st4" d="M341.2 291.7s-.3-1.1 0-2.1-.5-1.9-.6-2.8c-.4-2.4 1.6-3 1.7-5.1 0 0 1.4 1.5.9 2.9-.5 1.4.8 1.6.6 3-.2 1.3-1.7 2.7-1.5 3.9l-1.1.2z"/><path class="st5" d="M363.9 289.5c-1.2-1.5-3.3.1-4.8 1.3-.2.2-.4.3-.6.4l-5.6-8.3c.2-.2.3-.5.3-.8 0-.8-.7-1.5-1.5-1.5s-1.5.7-1.5 1.5c0 .3.1.6.3.8l-5.8 8.5h-4.1s-.2 2.5 4.3 2.8c.6.9 1.4 1.6 2.4 2-.5.1-.8.4-.8.9v.7h10.4v-.7c0-.5-.4-.9-.8-.9 1.7-.7 3-2.3 3.2-4.3.2-.1.3-.2.5-.4 1.1-.8 2.7-2.1 3.3-1.5.1.2.1.3.1.3-.1.4-.9 1-1.6 1.4-1.1.7-2.1 1.4-2.2 2.5 0 .3.2.6.5.6s.5-.2.5-.5c0-.5 1-1.2 1.8-1.7 1-.7 1.9-1.3 2-2.1.1-.3 0-.7-.3-1zm-9.6 1.9c-.3-1.2-1-2.3-1.9-2.7.5-.2.8-.7.8-1.3 0-.8-.7-1.5-1.5-1.5s-1.5.7-1.5 1.5c0 .6.3 1.1.8 1.3-.9.4-1.6 1.5-1.9 2.7H346l5.4-7.9c.1 0 .2.1.3.1.1 0 .2 0 .3-.1l5.4 7.9h-3.1z"/><path class="st4" d="M411.1 191.3s-.3-1.1 0-2.1-.5-1.9-.6-2.8c-.4-2.4 1.6-3 1.7-5.1 0 0 1.4 1.5.9 2.9-.5 1.4.8 1.6.6 3s-1.7 2.7-1.5 3.9l-1.1.2z"/><path class="st5" d="M433.8 189c-1.2-1.5-3.3.1-4.8 1.3-.2.2-.4.3-.6.4l-5.6-8.3c.2-.2.3-.5.3-.8 0-.8-.7-1.5-1.5-1.5s-1.5.7-1.5 1.5c0 .3.1.6.3.8l-5.8 8.5h-4.1s-.2 2.5 4.3 2.8c.6.9 1.4 1.6 2.4 2-.5.1-.8.4-.8.9v.7h10.4v-.7c0-.5-.4-.9-.8-.9 1.7-.7 3-2.3 3.2-4.3.2-.1.3-.2.5-.4 1.1-.8 2.7-2.1 3.3-1.5.1.2.1.3.1.3-.1.4-.9.9-1.6 1.4-1.1.7-2.1 1.4-2.2 2.5 0 .3.2.6.5.6s.5-.2.5-.5c0-.5 1-1.2 1.8-1.7 1-.7 1.9-1.3 2-2.1.1-.3 0-.6-.3-1zm-9.6 2c-.3-1.2-1-2.3-1.9-2.7.5-.2.8-.7.8-1.3 0-.8-.7-1.5-1.5-1.5s-1.5.7-1.5 1.5c0 .6.3 1.1.8 1.3-.9.4-1.6 1.5-1.9 2.7h-3.1l5.4-7.9c.1 0 .2.1.3.1.1 0 .2 0 .3-.1l5.4 7.9h-3.1z"/><path class="st4" d="M411.1 211.4s-.3-1.1 0-2.1-.5-1.9-.6-2.8c-.4-2.4 1.6-3 1.7-5.1 0 0 1.4 1.5.9 2.9-.5 1.4.8 1.6.6 3s-1.7 2.7-1.5 3.9l-1.1.2z"/><path class="st5" d="M433.8 209.1c-1.2-1.5-3.3.1-4.8 1.3-.2.2-.4.3-.6.4l-5.6-8.3c.2-.2.3-.5.3-.8 0-.8-.7-1.5-1.5-1.5s-1.5.7-1.5 1.5c0 .3.1.6.3.8l-5.8 8.5h-4.1s-.2 2.5 4.3 2.8c.6.9 1.4 1.6 2.4 2-.5.1-.8.4-.8.9v.7h10.4v-.7c0-.5-.4-.9-.8-.9 1.7-.7 3-2.3 3.2-4.3.2-.1.3-.2.5-.4 1.1-.8 2.7-2.1 3.3-1.5.1.2.1.3.1.3-.1.4-.9.9-1.6 1.4-1.1.7-2.1 1.4-2.2 2.5 0 .3.2.6.5.6s.5-.2.5-.5c0-.5 1-1.2 1.8-1.7 1-.7 1.9-1.3 2-2.1.1-.3 0-.7-.3-1zm-9.6 1.9c-.3-1.2-1-2.3-1.9-2.7.5-.2.8-.7.8-1.3 0-.8-.7-1.5-1.5-1.5s-1.5.7-1.5 1.5c0 .6.3 1.1.8 1.3-.9.4-1.6 1.5-1.9 2.7h-3.1l5.4-7.9c.1 0 .2.1.3.1.1 0 .2 0 .3-.1l5.4 7.9h-3.1z"/><path class="st4" d="M411.1 231.4s-.3-1.1 0-2.1-.5-1.9-.6-2.8c-.4-2.4 1.6-3 1.7-5.1 0 0 1.4 1.5.9 2.9-.5 1.4.8 1.6.6 3s-1.7 2.7-1.5 3.9l-1.1.2z"/><path class="st5" d="M433.8 229.2c-1.2-1.5-3.3.1-4.8 1.3-.2.2-.4.3-.6.4l-5.6-8.3c.2-.2.3-.5.3-.8 0-.8-.7-1.5-1.5-1.5s-1.5.7-1.5 1.5c0 .3.1.6.3.8l-5.8 8.5h-4.1s-.2 2.5 4.3 2.8c.6.9 1.4 1.6 2.4 2-.5.1-.8.4-.8.9v.7h10.4v-.7c0-.5-.4-.9-.8-.9 1.7-.7 3-2.3 3.2-4.3.2-.1.3-.2.5-.4 1.1-.8 2.7-2.1 3.3-1.5.1.2.1.3.1.3-.1.4-.9.9-1.6 1.4-1.1.7-2.1 1.4-2.2 2.5 0 .3.2.6.5.6s.5-.2.5-.5c0-.5 1-1.2 1.8-1.7 1-.7 1.9-1.3 2-2.1.1-.3 0-.7-.3-1zm-9.6 1.9c-.3-1.2-1-2.3-1.9-2.7.5-.2.8-.7.8-1.3 0-.8-.7-1.5-1.5-1.5s-1.5.7-1.5 1.5c0 .6.3 1.1.8 1.3-.9.4-1.6 1.5-1.9 2.7h-3.1l5.4-7.9c.1 0 .2.1.3.1.1 0 .2 0 .3-.1l5.4 7.9h-3.1z"/><path class="st4" d="M411.1 251.5s-.3-1.1 0-2.1-.5-1.9-.6-2.8c-.4-2.4 1.6-3 1.7-5.1 0 0 1.4 1.5.9 2.9-.5 1.4.8 1.6.6 3s-1.7 2.7-1.5 3.9l-1.1.2z"/><path class="st5" d="M433.8 249.3c-1.2-1.5-3.3.1-4.8 1.3-.2.2-.4.3-.6.4l-5.6-8.3c.2-.2.3-.5.3-.8 0-.8-.7-1.5-1.5-1.5s-1.5.7-1.5 1.5c0 .3.1.6.3.8l-5.8 8.5h-4.1s-.2 2.5 4.3 2.8c.6.9 1.4 1.6 2.4 2-.5.1-.8.4-.8.9v.7h10.4v-.7c0-.5-.4-.9-.8-.9 1.7-.7 3-2.3 3.2-4.3.2-.1.3-.2.5-.4 1.1-.8 2.7-2.1 3.3-1.5.1.2.1.3.1.3-.1.4-.9.9-1.6 1.4-1.1.7-2.1 1.4-2.2 2.5 0 .3.2.6.5.6s.5-.2.5-.5c0-.5 1-1.2 1.8-1.7 1-.7 1.9-1.3 2-2.1.1-.3 0-.7-.3-1zm-9.6 1.9c-.3-1.2-1-2.3-1.9-2.7.5-.2.8-.7.8-1.3 0-.8-.7-1.5-1.5-1.5s-1.5.7-1.5 1.5c0 .6.3 1.1.8 1.3-.9.4-1.6 1.5-1.9 2.7h-3.1l5.4-7.9c.1 0 .2.1.3.1.1 0 .2 0 .3-.1l5.4 7.9h-3.1z"/><path class="st4" d="M411.1 271.6s-.3-1.1 0-2.1-.5-1.9-.6-2.8c-.4-2.4 1.6-3 1.7-5.1 0 0 1.4 1.5.9 2.9-.5 1.4.8 1.6.6 3s-1.7 2.7-1.5 3.9l-1.1.2z"/><path class="st5" d="M433.8 269.4c-1.2-1.5-3.3.1-4.8 1.3-.2.2-.4.3-.6.4l-5.6-8.3c.2-.2.3-.5.3-.8 0-.8-.7-1.5-1.5-1.5s-1.5.7-1.5 1.5c0 .3.1.6.3.8l-5.8 8.5h-4.1s-.2 2.5 4.3 2.8c.6.9 1.4 1.6 2.4 2-.5.1-.8.4-.8.9v.7h10.4v-.7c0-.5-.4-.9-.8-.9 1.7-.7 3-2.3 3.2-4.3.2-.1.3-.2.5-.4 1.1-.8 2.7-2.1 3.3-1.5.1.2.1.3.1.3-.1.4-.9 1-1.6 1.4-1.1.7-2.1 1.4-2.2 2.5 0 .3.2.6.5.6s.5-.2.5-.5c0-.5 1-1.2 1.8-1.7 1-.7 1.9-1.3 2-2.1.1-.3 0-.7-.3-1zm-9.6 1.9c-.3-1.2-1-2.3-1.9-2.7.5-.2.8-.7.8-1.3 0-.8-.7-1.5-1.5-1.5s-1.5.7-1.5 1.5c0 .6.3 1.1.8 1.3-.9.4-1.6 1.5-1.9 2.7h-3.1l5.4-7.9c.1 0 .2.1.3.1.1 0 .2 0 .3-.1l5.4 7.9h-3.1z"/><path class="st4" d="M411.1 291.7s-.3-1.1 0-2.1-.5-1.9-.6-2.8c-.4-2.4 1.6-3 1.7-5.1 0 0 1.4 1.5.9 2.9-.5 1.4.8 1.6.6 3-.2 1.3-1.7 2.7-1.5 3.9l-1.1.2z"/><path class="st5" d="M433.8 289.5c-1.2-1.5-3.3.1-4.8 1.3-.2.2-.4.3-.6.4l-5.6-8.3c.2-.2.3-.5.3-.8 0-.8-.7-1.5-1.5-1.5s-1.5.7-1.5 1.5c0 .3.1.6.3.8l-5.8 8.5h-4.1s-.2 2.5 4.3 2.8c.6.9 1.4 1.6 2.4 2-.5.1-.8.4-.8.9v.7h10.4v-.7c0-.5-.4-.9-.8-.9 1.7-.7 3-2.3 3.2-4.3.2-.1.3-.2.5-.4 1.1-.8 2.7-2.1 3.3-1.5.1.2.1.3.1.3-.1.4-.9 1-1.6 1.4-1.1.7-2.1 1.4-2.2 2.5 0 .3.2.6.5.6s.5-.2.5-.5c0-.5 1-1.2 1.8-1.7 1-.7 1.9-1.3 2-2.1.1-.3 0-.7-.3-1zm-9.6 1.9c-.3-1.2-1-2.3-1.9-2.7.5-.2.8-.7.8-1.3 0-.8-.7-1.5-1.5-1.5s-1.5.7-1.5 1.5c0 .6.3 1.1.8 1.3-.9.4-1.6 1.5-1.9 2.7h-3.1l5.4-7.9c.1 0 .2.1.3.1.1 0 .2 0 .3-.1l5.4 7.9h-3.1z"/><path class="st7" d="M445.5 171.1v105.4c0 23.8-57.8 47.6-57.8 47.6S330 300.3 330 276.5V171.1h115.5m3.4-3.4H326.6V276.5c0 11.1 10.3 23.1 30.5 35.6 14.5 9 28.8 14.9 29.4 15.1l1.3.5 1.3-.5c.6-.2 14.9-6.2 29.4-15.1 20.2-12.5 30.5-24.5 30.5-35.6V171.1l-.1-3.4z"/><path class="st7" d="M449.4 295.3l15.4 10.6c-17.9 23-45.8 37.8-77.1 37.8-31.3 0-59.2-14.8-77.1-37.8l15.4-10.6c14.5 18.1 36.8 29.7 61.7 29.7 25 0 47.2-11.6 61.7-29.7m-.6-4.6l-2 2.5c-14.5 18.1-36 28.4-59 28.4s-44.6-10.4-59-28.4l-2-2.5-2.6 1.8-15.4 10.6-3 2 2.2 2.8c19.4 24.8 48.4 39.1 79.8 39.1s60.4-14.2 79.8-39.1l2.2-2.8-3-2-15.4-10.6-2.6-1.8z"/><path class="st5" d="M387.8 343.7c31.3 0 59.2-14.8 77.1-37.8l-15.4-10.6C435 313.4 412.7 325 387.8 325s-47.2-11.6-61.7-29.7l-15.4 10.6c17.9 23 45.7 37.8 77.1 37.8z"/></svg>