<?xml version="1.0" encoding="utf-8"?>
<!-- Generator: Adobe Illustrator 25.0.0, SVG Export Plug-In . SVG Version: 6.00 Build 0)  -->
<svg version="1.1" id="Layer_1" xmlns="http://www.w3.org/2000/svg" xmlns:xlink="http://www.w3.org/1999/xlink" x="0px" y="0px"
	 viewBox="0 0 512 512" style="enable-background:new 0 0 512 512;" xml:space="preserve">
<style type="text/css">
	.st0{fill:#FFFFFF;}
	.st1{fill:#4173CD;}
	.st2{fill:#339541;}
	.st3{fill:#F4C63B;}
	.st4{fill:#0E2168;}
	.st5{fill:#A8002E;}
	.st6{fill:#73AF00;}
	.st7{fill:#0083C7;}
</style>
<rect y="88" class="st0" width="512" height="336"/>
<polygon class="st1" points="399.1,290 402.3,301.3 413.5,268 382.4,284.4 394.1,285.8 356.8,329.6 356.5,328.6 386.3,267 
	392.2,277.1 394.7,242.1 368.8,265.8 380.4,264.2 350.6,325.8 349.7,326.1 360.8,269.7 369.2,278 362.7,243.5 343.6,273 
	354.4,268.5 342.4,329.3 338.5,337.4 334.3,340.2 332.6,349 317.8,366.4 329.3,365.5 327.2,376.1 331.3,373.3 331.7,378.2 
	338.7,370 345.1,379.6 349.5,357.2 355.4,350.4 354.9,345.3 358.9,337.2 "/>
<path class="st2" d="M130.9,256.9c1.3-5.7,0.5-11-1.7-14.3c-3.4,2.1-6.3,6.6-7.6,12.2c-0.6,2.6-0.7,5.2-0.5,7.5l-7-10.4
	c2.8-2.3,5.3-6.3,6.4-11.3c1.3-5.7,0.5-11-1.7-14.3c-3.4,2.1-6.3,6.6-7.6,12.2c-0.7,3-0.7,5.9-0.3,8.5l-4.7-7
	c0.2-3.6-0.9-7.9-3.5-12c-3.1-4.9-7.5-8.1-11.3-8.9c-0.9,3.8,0.2,9.1,3.3,14c2.7,4.2,6.2,7,9.5,8.3l4.3,7.2
	c-2.2-1.4-4.8-2.6-7.8-3.3c-5.7-1.3-11-0.5-14.3,1.7c2.1,3.4,6.6,6.3,12.2,7.6c5,1.1,9.6,0.6,12.9-1l6.5,10.7c-2-1.2-4.3-2.2-7-2.8
	c-5.7-1.3-11-0.5-14.3,1.7c2.1,3.4,6.6,6.3,12.2,7.6c4.8,1.1,9.2,0.6,12.5-0.8l5.9,9.9c-1.8-1-3.9-1.8-6.2-2.4
	c-5.7-1.3-11-0.5-14.3,1.7c2.1,3.4,6.6,6.3,12.2,7.6c4.6,1,8.8,0.7,12.1-0.6l5.7,9.5c-1.6-0.8-3.4-1.5-5.4-2
	c-5.7-1.3-11-0.5-14.3,1.7c2.1,3.4,6.6,6.3,12.2,7.6c4.3,1,8.5,0.7,11.6-0.4l5.2,8.7c-1.4-0.6-3-1.2-4.6-1.6
	c-5.7-1.3-11-0.5-14.3,1.7c2.1,3.4,6.6,6.3,12.2,7.6c4.1,0.9,8.1,0.7,11.2-0.3l16.6,27.5l7-4.5l-17.9-26.7c2.2-2.4,4.1-5.9,5-10
	c1.3-5.7,0.5-11-1.7-14.3c-3.4,2.1-6.3,6.6-7.6,12.2c-0.4,1.7-0.5,3.3-0.6,4.9l-5.6-8.4c2.4-2.4,4.3-6,5.3-10.4
	c1.3-5.7,0.5-11-1.7-14.3c-3.4,2.1-6.3,6.6-7.6,12.2c-0.4,2-0.6,3.9-0.5,5.7l-6.2-9.2c2.5-2.4,4.7-6.1,5.7-10.7
	c1.3-5.7,0.5-11-1.7-14.3c-3.4,2.1-6.3,6.6-7.6,12.2c-0.5,2.3-0.6,4.5-0.5,6.6l-6.4-9.6C127.6,265.5,129.9,261.7,130.9,256.9z"/>
<g>
	<path class="st3" d="M203,256l-8.8-53h-1.4c-8,0-13.7-7.9-11.1-15.5l0-0.1c2-6.1-1.2-12.7-7.2-14.8L53.3,129.9
		c-6.9-2.4-13.3,4.5-10.5,11.2L56,171.8c3.8,8.8,10.3,16.2,18.7,20.9l33.6,19.2c10,5.7,21.4,8.8,33,8.8h0l3,6
		c9,17.9,27.3,29.3,47.4,29.3H203z"/>
	<path class="st3" d="M309,256l8.8-53h1.4c8,0,13.7-7.9,11.1-15.5l0-0.1c-2-6.1,1.2-12.7,7.2-14.8L458.7,130
		c6.9-2.4,13.4,4.5,10.5,11.2L456,171.8c-3.8,8.8-10.3,16.2-18.7,20.9l-33.6,19.2c-10,5.7-21.4,8.8-33,8.8h0l-3,6
		c-9,17.9-27.3,29.3-47.4,29.3H309z"/>
	<path class="st3" d="M291.3,194.2l-21.9-51.1c-2.8-6.5-9.2-10.7-16.2-10.7h-6l-8.8,8.8h-8.8l-8.8,8.8H233c3.1,0,5.2,3.2,4,6.1
		l-16.3,38.1L291.3,194.2L291.3,194.2z"/>
	<path class="st3" d="M229.5,282.5L211.9,256l-16.2,16.2c-6.8,6.8-11.9,15.1-14.9,24.2l-4.2,12.6l-8.8,8.8h-11.5
		c-3.8,0-7.3,2.1-8.9,5.5l-2.5,5c-1.6,3.3,0.7,7.1,4.4,7.1h18.5l5.9-11.8l28.1-14.1c0.8-0.4,1.6-1,2.3-1.7L229.5,282.5z"/>
	<path class="st3" d="M282.5,282.5l17.7-26.5l16.2,16.2c6.8,6.8,11.9,15.1,14.9,24.2l4.2,12.6l8.8,8.8h11.5c3.8,0,7.3,2.1,8.9,5.5
		l2.5,5c1.6,3.3-0.7,7.1-4.4,7.1h-18.5l-5.9-11.8l-28.1-14.1c-0.8-0.4-1.6-1-2.3-1.7L282.5,282.5z"/>
	<path class="st3" d="M229.5,291.3l-21.5,35.8c-2.9,4.8-1.8,11,2.5,14.6l32.6,27.1c7.5,6.2,18.3,6.2,25.8,0l32.6-27.1
		c4.3-3.6,5.4-9.8,2.5-14.6l-21.5-35.8H229.5z"/>
</g>
<path class="st0" d="M256,185.4c0,0-26.5,8.8-61.8,0c0,0,0,17.7,0,35.3S203,291.3,256,309c53-17.7,61.8-70.6,61.8-88.3
	s0-35.3,0-35.3C282.5,194.2,256,185.4,256,185.4z"/>
<path class="st4" d="M256,185.4c0,0-26.5,8.8-61.8,0c0,0,0,17.7,0,35.3h123.6c0-17.7,0-35.3,0-35.3C282.5,194.2,256,185.4,256,185.4
	z"/>
<g>
	<path class="st5" d="M212.7,277.2v-56.5H203V260C205.5,265.7,208.7,271.6,212.7,277.2z"/>
	<path class="st5" d="M231.9,220.7h-9.6v67.8c2.9,2.9,6.1,5.6,9.6,8.2V220.7z"/>
	<path class="st5" d="M299.3,277.2c4-5.6,7.1-11.4,9.6-17.2v-39.3h-9.6V277.2z"/>
	<path class="st5" d="M251.2,220.7h-9.6v81.9c3,1.6,6.2,3.1,9.6,4.4V220.7z"/>
	<path class="st5" d="M289.7,220.7h-9.6v76c3.5-2.6,6.7-5.3,9.6-8.2V220.7z"/>
	<path class="st5" d="M270.4,302.6v-81.9h-9.6v86.4C264.2,305.7,267.4,304.2,270.4,302.6z"/>
</g>
<polygon class="st6" points="163.2,325 156.9,328.8 167.4,346.3 174.5,341.8 "/>
<g>
	<polygon class="st7" points="358.6,337.7 353.1,326.6 343,326.6 342.4,329.3 338.5,337.4 334.3,340.2 332.6,349 317.8,366.4 
		329.3,365.5 327.2,376.1 331.3,373.3 331.7,378.2 338.7,370 345.1,379.6 349.5,357.2 355.4,350.4 354.9,345.3 	"/>
	<polygon class="st7" points="84.5,220.7 61.8,220.7 63.8,226.8 50.4,273.7 37.1,226.8 39.1,220.7 16.4,220.7 22.5,228.8 41.1,294 
		39.1,300.1 61.8,300.1 59.8,294 78.4,228.8 	"/>
	<polygon class="st7" points="469.1,226.4 472.9,220.7 469.1,220.7 454,220.7 450.2,220.7 454,226.4 454,294.5 450.2,300.1 
		454,300.1 469.1,300.1 472.9,300.1 469.1,294.5 	"/>
</g>
</svg>
