<svg version="1.1" id="Layer_1" xmlns="http://www.w3.org/2000/svg" x="0" y="0" viewBox="0 0 512 512" xml:space="preserve"><style>.st0{fill:#fff}.st3{fill:#f4c63b}.st5{fill:#a8002e}.st7{fill:#0083c7}</style><path class="st0" d="M0 88h512v336H0z"/><path fill="#4173cd" d="M399.1 290l3.2 11.3 11.2-33.3-31.1 16.4 11.7 1.4-37.3 43.8-.3-1 29.8-61.6 5.9 10.1 2.5-35-25.9 23.7 11.6-1.6-29.8 61.6-.9.3 11.1-56.4 8.4 8.3-6.5-34.5-19.1 29.5 10.8-4.5-12 60.8-3.9 8.1-4.2 2.8-1.7 8.8-14.8 17.4 11.5-.9-2.1 10.6 4.1-2.8.4 4.9 7-8.2 6.4 9.6 4.4-22.4 5.9-6.8-.5-5.1 4-8.1z"/><path d="M130.9 256.9c1.3-5.7.5-11-1.7-14.3-3.4 2.1-6.3 6.6-7.6 12.2-.6 2.6-.7 5.2-.5 7.5l-7-10.4c2.8-2.3 5.3-6.3 6.4-11.3 1.3-5.7.5-11-1.7-14.3-3.4 2.1-6.3 6.6-7.6 12.2-.7 3-.7 5.9-.3 8.5l-4.7-7c.2-3.6-.9-7.9-3.5-12-3.1-4.9-7.5-8.1-11.3-8.9-.9 3.8.2 9.1 3.3 14 2.7 4.2 6.2 7 9.5 8.3l4.3 7.2c-2.2-1.4-4.8-2.6-7.8-3.3-5.7-1.3-11-.5-14.3 1.7 2.1 3.4 6.6 6.3 12.2 7.6 5 1.1 9.6.6 12.9-1l6.5 10.7c-2-1.2-4.3-2.2-7-2.8-5.7-1.3-11-.5-14.3 1.7 2.1 3.4 6.6 6.3 12.2 7.6 4.8 1.1 9.2.6 12.5-.8l5.9 9.9c-1.8-1-3.9-1.8-6.2-2.4-5.7-1.3-11-.5-14.3 1.7 2.1 3.4 6.6 6.3 12.2 7.6 4.6 1 8.8.7 12.1-.6l5.7 9.5c-1.6-.8-3.4-1.5-5.4-2-5.7-1.3-11-.5-14.3 1.7 2.1 3.4 6.6 6.3 12.2 7.6 4.3 1 8.5.7 11.6-.4l5.2 8.7c-1.4-.6-3-1.2-4.6-1.6-5.7-1.3-11-.5-14.3 1.7 2.1 3.4 6.6 6.3 12.2 7.6 4.1.9 8.1.7 11.2-.3l16.6 27.5 7-4.5-17.9-26.7c2.2-2.4 4.1-5.9 5-10 1.3-5.7.5-11-1.7-14.3-3.4 2.1-6.3 6.6-7.6 12.2-.4 1.7-.5 3.3-.6 4.9l-5.6-8.4c2.4-2.4 4.3-6 5.3-10.4 1.3-5.7.5-11-1.7-14.3-3.4 2.1-6.3 6.6-7.6 12.2-.4 2-.6 3.9-.5 5.7l-6.2-9.2c2.5-2.4 4.7-6.1 5.7-10.7 1.3-5.7.5-11-1.7-14.3-3.4 2.1-6.3 6.6-7.6 12.2-.5 2.3-.6 4.5-.5 6.6l-6.4-9.6c3-2.1 5.3-5.9 6.3-10.7z" fill="#339541"/><path class="st3" d="M203 256l-8.8-53h-1.4c-8 0-13.7-7.9-11.1-15.5v-.1c2-6.1-1.2-12.7-7.2-14.8L53.3 129.9c-6.9-2.4-13.3 4.5-10.5 11.2L56 171.8c3.8 8.8 10.3 16.2 18.7 20.9l33.6 19.2c10 5.7 21.4 8.8 33 8.8l3 6c9 17.9 27.3 29.3 47.4 29.3H203zM309 256l8.8-53h1.4c8 0 13.7-7.9 11.1-15.5v-.1c-2-6.1 1.2-12.7 7.2-14.8L458.7 130c6.9-2.4 13.4 4.5 10.5 11.2L456 171.8c-3.8 8.8-10.3 16.2-18.7 20.9l-33.6 19.2c-10 5.7-21.4 8.8-33 8.8l-3 6c-9 17.9-27.3 29.3-47.4 29.3H309zM291.3 194.2l-21.9-51.1c-2.8-6.5-9.2-10.7-16.2-10.7h-6l-8.8 8.8h-8.8l-8.8 8.8H233c3.1 0 5.2 3.2 4 6.1l-16.3 38.1h70.6zM229.5 282.5L211.9 256l-16.2 16.2c-6.8 6.8-11.9 15.1-14.9 24.2l-4.2 12.6-8.8 8.8h-11.5c-3.8 0-7.3 2.1-8.9 5.5l-2.5 5c-1.6 3.3.7 7.1 4.4 7.1h18.5l5.9-11.8 28.1-14.1c.8-.4 1.6-1 2.3-1.7l25.4-25.3zM282.5 282.5l17.7-26.5 16.2 16.2c6.8 6.8 11.9 15.1 14.9 24.2l4.2 12.6 8.8 8.8h11.5c3.8 0 7.3 2.1 8.9 5.5l2.5 5c1.6 3.3-.7 7.1-4.4 7.1h-18.5l-5.9-11.8-28.1-14.1c-.8-.4-1.6-1-2.3-1.7l-25.5-25.3zM229.5 291.3L208 327.1c-2.9 4.8-1.8 11 2.5 14.6l32.6 27.1c7.5 6.2 18.3 6.2 25.8 0l32.6-27.1c4.3-3.6 5.4-9.8 2.5-14.6l-21.5-35.8h-53z"/><path class="st0" d="M256 185.4s-26.5 8.8-61.8 0v35.3c0 17.6 8.8 70.6 61.8 88.3 53-17.7 61.8-70.6 61.8-88.3v-35.3c-35.3 8.8-61.8 0-61.8 0z"/><path d="M256 185.4s-26.5 8.8-61.8 0v35.3h123.6v-35.3c-35.3 8.8-61.8 0-61.8 0z" fill="#0e2168"/><g><path class="st5" d="M212.7 277.2v-56.5H203V260c2.5 5.7 5.7 11.6 9.7 17.2zM231.9 220.7h-9.6v67.8c2.9 2.9 6.1 5.6 9.6 8.2v-76zM299.3 277.2c4-5.6 7.1-11.4 9.6-17.2v-39.3h-9.6v56.5zM251.2 220.7h-9.6v81.9c3 1.6 6.2 3.1 9.6 4.4v-86.3zM289.7 220.7h-9.6v76c3.5-2.6 6.7-5.3 9.6-8.2v-67.8zM270.4 302.6v-81.9h-9.6v86.4c3.4-1.4 6.6-2.9 9.6-4.5z"/></g><path fill="#73af00" d="M163.2 325l-6.3 3.8 10.5 17.5 7.1-4.5z"/><g><path class="st7" d="M358.6 337.7l-5.5-11.1H343l-.6 2.7-3.9 8.1-4.2 2.8-1.7 8.8-14.8 17.4 11.5-.9-2.1 10.6 4.1-2.8.4 4.9 7-8.2 6.4 9.6 4.4-22.4 5.9-6.8-.5-5.1zM84.5 220.7H61.8l2 6.1-13.4 46.9-13.3-46.9 2-6.1H16.4l6.1 8.1L41.1 294l-2 6.1h22.7l-2-6.1 18.6-65.2zM469.1 226.4l3.8-5.7h-22.7l3.8 5.7v68.1l-3.8 5.6h22.7l-3.8-5.6z"/></g></svg>