<svg version="1.1" id="Layer_1" xmlns="http://www.w3.org/2000/svg" x="0" y="0" viewBox="0 0 512 512" xml:space="preserve"><style>.st0{fill:#fdce11}</style><path class="st0" d="M512 246.6H248.8l-11.5-6.4-228.6-126-8.7-4.8V130l228.6 126L0 382v20.6l8.7-4.8 228.6-126 10.5-5.8H512z"/><path d="M247.8 266l-10.5 5.8-228.6 126-8.7 4.8v21.6l17.9-9.8 228.6-126 9.7-5.4H512v-17H287.1z"/><path fill="#009543" d="M246.5 288.4l-228.6 126L0 424.2v.1h512V283H256.2z"/><path d="M257.2 229.5l-10.7-5.9-228.6-126L1 88.3H0v21.1l8.7 4.8 209.1 115.3 19.5 10.7 11.5 6.4H512v-17.1z"/><path fill="#d21034" d="M1 88.3l16.9 9.3 228.6 126 10.7 5.9H512V88.3z"/><path d="M0 130v252l228.6-126z"/><path class="st0" d="M76.5 206.5c-25.2-7.9-44.2 10.4-48.6 19.8-3.7 8-10.5 44.2 23.6 49.9 34.1 5.8 33.7-26.4 33.7-26.4-1.5 5.1-4.3 19.7-28.9 19.7-9.2 0-22.5-13.7-20-28.8 2.4-14.2 15.1-21.5 24.7-21.9 9.1-.4 30.3 5.9 30.3 31.7 0 29-29.9 32.3-29.9 32.3v17.5c26.1-2.6 40.8-17 44.7-40.1 3.8-22.9-4-45.6-29.6-53.7z"/><path class="st0" d="M48.5 249.5c-.6.8-.9 1.7-.9 2.7l-.1 4.7-.9 1.6c-.3.6-.1 1.3.4 1.7.6.3 1.3.1 1.7-.4l.9-1.6 3.8-1.4c1.1-.4 2.1-1.3 2.6-2.4 1-2.2 3.1-6.2 6.5-10.4 3.4 4.2 5.5 8.2 6.5 10.4.5 1.1 1.4 2 2.6 2.4l3.8 1.4.9 1.6c.3.6 1.1.8 1.7.4.6-.3.8-1.1.4-1.7l-.9-1.6-.1-4.7c0-1-.3-1.9-.9-2.7-3.2-4-6.5-7.2-9.8-9.9 2.6-2.5 5.6-4.9 9.4-6.7.9-.4 1.3-1.4 1.1-2.3-.3-1.3-1.7-2-2.9-1.4-2.5 1.2-6.9 3.5-11.7 7-4.9-3.6-9.2-5.9-11.7-7-1.2-.6-2.6.1-2.9 1.4-.2.9.2 1.9 1.1 2.3 3.8 1.8 6.8 4.2 9.4 6.7-3.4 2.8-6.8 5.9-10 9.9z"/></svg>