<svg version="1.1" id="Layer_1" xmlns="http://www.w3.org/2000/svg" x="0" y="0" viewBox="0 0 512 512" xml:space="preserve"><style>.st2{fill:#fff}</style><path fill="#ce1126" d="M0 88h512v336H0z"/><path fill="#002b7f" d="M0 88h256v168H0z"/><path class="st2" d="M125.8 197.6l-4.1 12.2-12.8.1c-1.7 0-2.3 2.1-1 3.1l10.3 7.6-3.9 12.2c-.5 1.6 1.3 2.9 2.6 1.9l10.4-7.4 10.4 7.4c1.4 1 3.1-.3 2.6-1.9l-3.9-12.2 10.3-7.6c1.3-1 .6-3.1-1-3.1l-12.8-.1-4.1-12.2c-.3-1.6-2.5-1.6-3 0zM126.1 102.9l-3.3 9.8-10.4.1c-1.3 0-1.9 1.7-.8 2.5l8.3 6.2-3.1 9.9c-.4 1.3 1.1 2.3 2.1 1.6l8.4-6 8.4 6c1.1.8 2.5-.3 2.1-1.6l-3.1-9.9 8.3-6.2c1.1-.8.5-2.5-.8-2.5l-10.4-.1-3.3-9.8c-.2-1.3-2-1.3-2.4 0zM178.5 132.1l-3.3 9.8-10.4.1c-1.3 0-1.9 1.7-.8 2.5l8.3 6.2-3.1 9.9c-.4 1.3 1.1 2.3 2.1 1.6l8.4-6 8.4 6c1.1.8 2.5-.3 2.1-1.6l-3.1-9.9 8.3-6.2c1.1-.8.5-2.5-.8-2.5l-10.4-.1-3.3-9.8c-.2-1.3-2-1.3-2.4 0zM74.8 143.7l-3.3 9.8-10.4.1c-1.3 0-1.9 1.7-.8 2.5l8.3 6.2-3.1 9.9c-.4 1.3 1.1 2.3 2.1 1.6l8.4-6 8.4 6c1.1.8 2.5-.3 2.1-1.6l-3.1-9.9 8.3-6.2c1.1-.8.5-2.5-.8-2.5l-10.4-.1-3.3-9.8c-.2-1.3-2-1.3-2.4 0zM155.9 175.8l-1.8 5.5h-5.8c-.8 0-1.1 1-.5 1.4l4.7 3.5-1.8 5.5c-.2.7.6 1.3 1.2.9l4.7-3.4 4.7 3.4c.6.4 1.4-.2 1.2-.9l-1.8-5.5 4.7-3.5c.6-.4.3-1.4-.5-1.4h-5.8l-1.8-5.5c-.2-.7-1.2-.7-1.4 0z"/></svg>