<?xml version="1.0" encoding="utf-8"?>
<!-- Generator: Adobe Illustrator 25.0.0, SVG Export Plug-In . SVG Version: 6.00 Build 0)  -->
<svg version="1.1" id="Layer_1" xmlns="http://www.w3.org/2000/svg" xmlns:xlink="http://www.w3.org/1999/xlink" x="0px" y="0px"
	 viewBox="0 0 512 512" style="enable-background:new 0 0 512 512;" xml:space="preserve">
<style type="text/css">
	.st0{fill:#002395;}
	.st1{fill:#DE3831;}
	.st2{fill:#FFFFFF;}
	.st3{fill:#007A4D;}
	.st4{fill:#FFB612;}
</style>
<polygon class="st0" points="86.3,424 512,424 512,309 231.4,309 "/>
<polygon class="st1" points="86.3,88 231.4,203 512,203 512,88 "/>
<polygon class="st2" points="222,291.3 54.7,424 86.3,424 231.4,309 512,309 512,291.3 253.7,291.3 "/>
<polygon class="st2" points="231.4,203 86.3,88 54.7,88 222,220.7 253.7,220.7 512,220.7 512,203 "/>
<polygon class="st3" points="222,220.7 54.7,88 0,88 0,133.6 154.4,256 0,378.4 0,424 54.7,424 222,291.3 512,291.3 512,220.7 "/>
<polygon points="0,156.2 0,355.8 125.9,256 "/>
<polygon class="st4" points="0,133.6 0,156.2 125.9,256 0,355.8 0,378.4 154.4,256 "/>
</svg>
