<svg version="1.1" id="Layer_1" xmlns="http://www.w3.org/2000/svg" x="0" y="0" viewBox="0 0 512 512" xml:space="preserve"><style>.st2{fill:#fff}</style><path fill="#002395" d="M86.3 424H512V309H231.4z"/><path fill="#de3831" d="M86.3 88l145.1 115H512V88z"/><path class="st2" d="M222 291.3L54.7 424h31.6l145.1-115H512v-17.7H253.7zM231.4 203L86.3 88H54.7L222 220.7h290V203z"/><path fill="#007a4d" d="M222 220.7L54.7 88H0v45.6L154.4 256 0 378.4V424h54.7L222 291.3h290v-70.6z"/><path d="M0 156.2v199.6L125.9 256z"/><path fill="#ffb612" d="M0 133.6v22.6L125.9 256 0 355.8v22.6L154.4 256z"/></svg>