<svg version="1.1" id="Layer_1" xmlns="http://www.w3.org/2000/svg" x="0" y="0" viewBox="0 0 512 512" xml:space="preserve"><style>.st1{fill:#ef7d00}</style><path fill="#198a00" d="M0 88h512v336H0z"/><g id="crest"><path class="st1" d="M455.1 253H512v171h-56.9z"/><path d="M398.2 253h56.9v171h-56.9z"/><path fill="#de2010" d="M341.3 253h56.9v171h-56.9z"/><path id="Path" class="st1" d="M490.7 192.5h-48c0-8.8-7.2-16-16-16s-16 7.2-16 16h-48c0 8.8 7.7 16 16.5 16h-.5c0 8.8 7.2 16 16 16 0 8.8 7.2 16 16 16h32c8.8 0 16-7.2 16-16 8.8 0 16-7.2 16-16h-.5c8.8 0 16.5-7.2 16.5-16z"/></g></svg>