<?xml version="1.0" encoding="utf-8"?>
<!-- Generator: Adobe Illustrator 25.0.0, SVG Export Plug-In . SVG Version: 6.00 Build 0)  -->
<svg version="1.1" id="Layer_1" xmlns="http://www.w3.org/2000/svg" xmlns:xlink="http://www.w3.org/1999/xlink" x="0px" y="0px"
	 viewBox="0 0 512 512" style="enable-background:new 0 0 512 512;" xml:space="preserve">
<style type="text/css">
	.st0{fill:#FFFFFF;}
	.st1{fill:#FFD200;}
	.st2{fill:#DE2010;}
	.st3{fill:#319208;}
</style>
<polygon class="st0" points="0,88 0,424 211.9,256 "/>
<polygon class="st1" points="75,136 135.5,184 512,184 512,136 "/>
<polygon class="st2" points="135.5,184 196.1,232 512,232 512,184 "/>
<polygon points="512,232 196.1,232 14.5,88 0,88 211.9,256 0,424 14.5,424 196.1,280 512,280 "/>
<polygon class="st2" points="196.1,280 135.5,328 512,328 512,280 "/>
<polygon class="st1" points="135.5,328 75,376 512,376 512,328 "/>
<polygon class="st3" points="75,376 14.5,424 512,424 512,376 "/>
<polygon class="st3" points="14.5,88 75,136 512,136 512,88 "/>
<g id="crest">
	<polygon class="st2" points="86.1,191.4 104.7,229.1 146.3,235.2 116.2,264.5 123.3,306 86.1,286.4 48.9,306 56,264.5 25.9,235.2 
		67.5,229.1 	"/>
	<path class="st1" d="M134.3,260.8l-49.4-38.3c-5.8-13.6-14-22.3-21-22.3c-5.9,0-8.8,5.5-9.7,8.8c-4.3,2-5.3,5.9-5.3,6.1
		c-0.1,0.3,0,0.6,0.2,0.8c0.2,0.2,0.5,0.4,0.7,0.4l0.9,0c4-0.1,10.6-0.3,12.3,12.4c1.1,7.9-0.5,22-5.5,32.6
		c-3.5,7.4-2.3,13.4-2.3,13.7c0.1,0.5,0.5,0.8,1,0.8c0.1,0,0.3,0,0.5,0l4,22.6c0.1,0.5,0.5,0.8,0.9,0.8h59.7c0.4,0,0.8-0.3,0.9-0.7
		L129,271c0,0,0,0,0,0c0,0,0,0,0,0l2.1-8.7c1.6,0.2,2.5,0.3,2.6,0.3c0.5,0.1,0.8-0.2,1-0.6S134.7,261.1,134.3,260.8z"/>
	<g>
		<path d="M134.3,260.8l-49.4-38.3c-5.8-13.6-14-22.3-21-22.3c-5.9,0-8.8,5.5-9.7,8.8c-4.3,2-5.3,5.9-5.3,6.1
			c-0.1,0.3,0,0.6,0.2,0.8c0.2,0.2,0.5,0.4,0.7,0.4l0.9,0c4-0.1,10.6-0.3,12.3,12.4c1.1,7.9-0.5,22-5.5,32.6
			c-3.5,7.4-2.3,13.4-2.3,13.7c0.1,0.5,0.5,0.8,1,0.8c0.1,0,0.3,0,0.5,0l4,22.6c0.1,0.5,0.5,0.8,0.9,0.8h59.7c0.4,0,0.8-0.3,0.9-0.7
			L129,271c0,0,0,0,0,0c0,0,0,0,0,0l2.1-8.7c1.6,0.2,2.5,0.3,2.6,0.3c0.5,0.1,0.8-0.2,1-0.6S134.7,261.1,134.3,260.8z M59.2,262.1
			c4.5-9.6,6.9-24.1,5.7-33.7c-1.8-13.7-9.5-14.1-13.6-14c0.6-1.1,1.8-2.8,4.2-3.8c0.3-0.1,0.5-0.4,0.6-0.7c0.1-0.3,1.7-7.8,7.9-7.8
			c6.2,0,13.9,8.6,19.3,21.4c0.1,0.1,0.2,0.3,0.3,0.4l47,36.3c-8.3-1-29.9-4-42.7-9c-6.7-2.6-8.2-6.6-9.6-10.2
			c-0.2-0.5-0.7-0.7-1.2-0.5c-0.5,0.2-0.7,0.7-0.5,1.2c1.3,3.5,3.2,8.3,10.6,11.3c1.5,0.6,3.2,1.2,4.9,1.7
			c-0.3,0.9-2.2,5.6-10.7,8.6c-6.9,2.5-11.8,6.6-12.5,10.4c-2.5,0-4.8,0-6.6,0V271c0-2.1,2-5.1,4.1-8.3c3-4.4,6.3-9.5,6.3-14.6
			c0-0.5-0.4-0.9-0.9-0.9c-0.5,0-0.9,0.4-0.9,0.9c0,4.6-3.2,9.4-6,13.6c-2.4,3.6-4.4,6.7-4.4,9.3v2.8c-1.4,0-2.6,0-3.3,0.1
			C56.8,272,56.7,267.4,59.2,262.1z M96.8,256.1c-1.1,3-4.3,4.1-6.7,4.4c2.6-2.3,3.5-4.5,3.7-5.2C94.8,255.5,95.8,255.8,96.8,256.1z
			 M98.6,256.5c1,0.3,2.1,0.5,3.2,0.8c-1,2-3.6,2.9-6.4,3.3C96.8,259.7,98,258.4,98.6,256.5z M125.4,277.5c-9.6-3-37.3-3.7-54.7-3.8
			c0.6-2.2,3.3-5,7.9-7.2c0,0,0.1,0,0.1,0c25.9,0.1,44,3.9,48.1,4.9L125.4,277.5z M124.2,282.6l-3.8-4.2c1.8,0.3,3.3,0.7,4.6,1.1
			L124.2,282.6z M75.2,283.2L77,285c-0.6,0-1.1,0-1.7,0C75.3,284.4,75.2,283.8,75.2,283.2z M123.1,287.2l-4.8-5.3
			c-0.3-0.3-0.8-0.4-1.2-0.1l-5.7,3.8l-4.3-4.7c-0.3-0.4-0.9-0.4-1.3-0.1l-5.1,3.9l-4.6-4.6c-0.3-0.3-0.9-0.4-1.3-0.1l-5,4.2
			l-4.7-4.3c-0.4-0.3-0.9-0.3-1.3,0l-4.9,4.3l-4-3.8c-0.1-1.1-0.1-2.3-0.2-3.5l3.6,3.5c0.3,0.3,0.9,0.4,1.3,0l5-4.3l4.6,4.5
			c0.3,0.3,0.9,0.4,1.3,0.1l5-4.2l4.8,4.6c0.3,0.3,0.9,0.3,1.2,0.1l5.1-3.9l4.2,4.9c0.3,0.4,0.9,0.4,1.3,0.1l5.6-4l5.6,6.2
			c0.1,0.1,0.2,0.1,0.2,0.2L123.1,287.2z M120.2,286.9c-1.5-0.2-3.6-0.4-6.5-0.6l3.6-2.4L120.2,286.9z M109.1,285.9
			c-1.9-0.1-4-0.2-6.4-0.3l3.6-2.8L109.1,285.9z M98.7,285.4c-2.2-0.1-4.5-0.2-7.1-0.2l3.7-3.1L98.7,285.4z M87.9,285.1
			c-2.2,0-4.5-0.1-6.9-0.1l3.5-3.1L87.9,285.1z M76.2,275.7c2,0,4,0.1,6.1,0.1l-3.2,2.8L76.2,275.7z M87.1,275.9
			c2,0.1,4.1,0.1,6.1,0.2l-3.2,2.7L87.1,275.9z M98.1,276.3c2.2,0.1,4.3,0.2,6.4,0.4l-3.3,2.5L98.1,276.3z M108.9,277
			c2.3,0.2,4.6,0.4,6.6,0.6l-3.7,2.6L108.9,277z M58.7,275.6c2.8,0,7.9-0.1,14.2,0c0.4,9,1.1,16.2,2.3,21.5H62.5L58.7,275.6z
			 M120.6,297.2H77.1c-0.7-2.8-1.2-6.3-1.6-10.3c31.7,0.2,43.7,1.8,46.7,2.3c0.1,0.1,0.2,0.2,0.3,0.2L120.6,297.2z M127.4,269.6
			c-4-0.9-20.5-4.4-44.4-4.9c1.7-0.7,3.1-1.4,4.3-2.1c0.6,0.1,2.2,0.3,4.3,0.3c4.3,0,10.4-0.8,12.1-5.1c9.8,2.2,19.9,3.6,25.5,4.3
			L127.4,269.6z"/>
		<path d="M66.6,208.6c0-1.7-1.4-3.2-3.2-3.2c-1.7,0-3.2,1.4-3.2,3.2c0,1.7,1.4,3.2,3.2,3.2C65.2,211.8,66.6,210.3,66.6,208.6z
			 M63.4,209.9c-0.7,0-1.3-0.6-1.3-1.3s0.6-1.3,1.3-1.3s1.3,0.6,1.3,1.3S64.1,209.9,63.4,209.9z"/>
		<path d="M89.9,267.3c-1.7,0-3.1,1.4-3.1,3.1s1.4,3.1,3.1,3.1s3.1-1.4,3.1-3.1S91.6,267.3,89.9,267.3z M89.9,271.6
			c-0.7,0-1.2-0.5-1.2-1.2s0.5-1.2,1.2-1.2c0.7,0,1.2,0.5,1.2,1.2S90.6,271.6,89.9,271.6z"/>
		<path d="M99.2,267.9c-1.7,0-3.1,1.4-3.1,3.1s1.4,3.1,3.1,3.1c1.7,0,3.1-1.4,3.1-3.1S100.9,267.9,99.2,267.9z M99.2,272.2
			c-0.7,0-1.2-0.5-1.2-1.2c0-0.7,0.5-1.2,1.2-1.2s1.2,0.5,1.2,1.2C100.4,271.6,99.9,272.2,99.2,272.2z"/>
	</g>
</g>
</svg>
