<svg version="1.1" id="Layer_1" xmlns="http://www.w3.org/2000/svg" x="0" y="0" viewBox="0 0 512 512" xml:space="preserve"><style>.st1{fill:#ffd200}.st2{fill:#de2010}.st3{fill:#319208}</style><path fill="#fff" d="M0 88v336l211.9-168z"/><path class="st1" d="M75 136l60.5 48H512v-48z"/><path class="st2" d="M135.5 184l60.6 48H512v-48z"/><path d="M512 232H196.1L14.5 88H0l211.9 168L0 424h14.5l181.6-144H512z"/><path class="st2" d="M196.1 280l-60.6 48H512v-48z"/><path class="st1" d="M135.5 328L75 376h437v-48z"/><path class="st3" d="M75 376l-60.5 48H512v-48zM14.5 88L75 136h437V88z"/><g id="crest"><path class="st2" d="M86.1 191.4l18.6 37.7 41.6 6.1-30.1 29.3 7.1 41.5-37.2-19.6L48.9 306l7.1-41.5-30.1-29.3 41.6-6.1z"/><path class="st1" d="M134.3 260.8l-49.4-38.3c-5.8-13.6-14-22.3-21-22.3-5.9 0-8.8 5.5-9.7 8.8-4.3 2-5.3 5.9-5.3 6.1-.1.3 0 .6.2.8.2.2.5.4.7.4h.9c4-.1 10.6-.3 12.3 12.4 1.1 7.9-.5 22-5.5 32.6-3.5 7.4-2.3 13.4-2.3 13.7.1.5.5.8 1 .8h.5l4 22.6c.1.5.5.8.9.8h59.7c.4 0 .8-.3.9-.7L129 271l2.1-8.7c1.6.2 2.5.3 2.6.3.5.1.8-.2 1-.6s0-.9-.4-1.2z"/><path d="M134.3 260.8l-49.4-38.3c-5.8-13.6-14-22.3-21-22.3-5.9 0-8.8 5.5-9.7 8.8-4.3 2-5.3 5.9-5.3 6.1-.1.3 0 .6.2.8.2.2.5.4.7.4h.9c4-.1 10.6-.3 12.3 12.4 1.1 7.9-.5 22-5.5 32.6-3.5 7.4-2.3 13.4-2.3 13.7.1.5.5.8 1 .8h.5l4 22.6c.1.5.5.8.9.8h59.7c.4 0 .8-.3.9-.7L129 271l2.1-8.7c1.6.2 2.5.3 2.6.3.5.1.8-.2 1-.6s0-.9-.4-1.2zm-75.1 1.3c4.5-9.6 6.9-24.1 5.7-33.7-1.8-13.7-9.5-14.1-13.6-14 .6-1.1 1.8-2.8 4.2-3.8.3-.1.5-.4.6-.7.1-.3 1.7-7.8 7.9-7.8s13.9 8.6 19.3 21.4c.1.1.2.3.3.4l47 36.3c-8.3-1-29.9-4-42.7-9-6.7-2.6-8.2-6.6-9.6-10.2-.2-.5-.7-.7-1.2-.5-.5.2-.7.7-.5 1.2 1.3 3.5 3.2 8.3 10.6 11.3 1.5.6 3.2 1.2 4.9 1.7-.3.9-2.2 5.6-10.7 8.6-6.9 2.5-11.8 6.6-12.5 10.4h-6.6V271c0-2.1 2-5.1 4.1-8.3 3-4.4 6.3-9.5 6.3-14.6 0-.5-.4-.9-.9-.9s-.9.4-.9.9c0 4.6-3.2 9.4-6 13.6-2.4 3.6-4.4 6.7-4.4 9.3v2.8c-1.4 0-2.6 0-3.3.1-.4-1.9-.5-6.5 2-11.8zm37.6-6c-1.1 3-4.3 4.1-6.7 4.4 2.6-2.3 3.5-4.5 3.7-5.2 1 .2 2 .5 3 .8zm1.8.4c1 .3 2.1.5 3.2.8-1 2-3.6 2.9-6.4 3.3 1.4-.9 2.6-2.2 3.2-4.1zm26.8 21c-9.6-3-37.3-3.7-54.7-3.8.6-2.2 3.3-5 7.9-7.2h.1c25.9.1 44 3.9 48.1 4.9l-1.4 6.1zm-1.2 5.1l-3.8-4.2c1.8.3 3.3.7 4.6 1.1l-.8 3.1zm-49 .6L77 285h-1.7c0-.6-.1-1.2-.1-1.8zm47.9 4l-4.8-5.3c-.3-.3-.8-.4-1.2-.1l-5.7 3.8-4.3-4.7c-.3-.4-.9-.4-1.3-.1l-5.1 3.9-4.6-4.6c-.3-.3-.9-.4-1.3-.1l-5 4.2-4.7-4.3c-.4-.3-.9-.3-1.3 0l-4.9 4.3-4-3.8c-.1-1.1-.1-2.3-.2-3.5l3.6 3.5c.3.3.9.4 1.3 0l5-4.3 4.6 4.5c.3.3.9.4 1.3.1l5-4.2 4.8 4.6c.3.3.9.3 1.2.1l5.1-3.9 4.2 4.9c.3.4.9.4 1.3.1l5.6-4 5.6 6.2c.1.1.2.1.2.2l-.4 2.5zm-2.9-.3c-1.5-.2-3.6-.4-6.5-.6l3.6-2.4 2.9 3zm-11.1-1c-1.9-.1-4-.2-6.4-.3l3.6-2.8 2.8 3.1zm-10.4-.5c-2.2-.1-4.5-.2-7.1-.2l3.7-3.1 3.4 3.3zm-10.8-.3c-2.2 0-4.5-.1-6.9-.1l3.5-3.1 3.4 3.2zm-11.7-9.4c2 0 4 .1 6.1.1l-3.2 2.8-2.9-2.9zm10.9.2c2 .1 4.1.1 6.1.2l-3.2 2.7-2.9-2.9zm11 .4c2.2.1 4.3.2 6.4.4l-3.3 2.5-3.1-2.9zm10.8.7c2.3.2 4.6.4 6.6.6l-3.7 2.6-2.9-3.2zm-50.2-1.4c2.8 0 7.9-.1 14.2 0 .4 9 1.1 16.2 2.3 21.5H62.5l-3.8-21.5zm61.9 21.6H77.1c-.7-2.8-1.2-6.3-1.6-10.3 31.7.2 43.7 1.8 46.7 2.3.1.1.2.2.3.2l-1.9 7.8zm6.8-27.6c-4-.9-20.5-4.4-44.4-4.9 1.7-.7 3.1-1.4 4.3-2.1.6.1 2.2.3 4.3.3 4.3 0 10.4-.8 12.1-5.1 9.8 2.2 19.9 3.6 25.5 4.3l-1.8 7.5z"/><path d="M66.6 208.6c0-1.7-1.4-3.2-3.2-3.2-1.7 0-3.2 1.4-3.2 3.2 0 1.7 1.4 3.2 3.2 3.2 1.8 0 3.2-1.5 3.2-3.2zm-3.2 1.3c-.7 0-1.3-.6-1.3-1.3s.6-1.3 1.3-1.3 1.3.6 1.3 1.3-.6 1.3-1.3 1.3zM89.9 267.3c-1.7 0-3.1 1.4-3.1 3.1s1.4 3.1 3.1 3.1 3.1-1.4 3.1-3.1-1.4-3.1-3.1-3.1zm0 4.3c-.7 0-1.2-.5-1.2-1.2s.5-1.2 1.2-1.2 1.2.5 1.2 1.2-.5 1.2-1.2 1.2zM99.2 267.9c-1.7 0-3.1 1.4-3.1 3.1s1.4 3.1 3.1 3.1c1.7 0 3.1-1.4 3.1-3.1s-1.4-3.1-3.1-3.1zm0 4.3c-.7 0-1.2-.5-1.2-1.2s.5-1.2 1.2-1.2 1.2.5 1.2 1.2c0 .6-.5 1.2-1.2 1.2z"/></g></svg>