<?xml version="1.0" encoding="utf-8"?>
<!-- Generator: Adobe Illustrator 25.0.0, SVG Export Plug-In . SVG Version: 6.00 Build 0)  -->
<svg version="1.1" id="Layer_1" xmlns="http://www.w3.org/2000/svg" xmlns:xlink="http://www.w3.org/1999/xlink" x="0px" y="0px"
	 viewBox="0 0 512 512" style="enable-background:new 0 0 512 512;" xml:space="preserve">
<style type="text/css">
	.st0{fill:#82AFFF;}
	.st1{fill:#FFFFFF;}
	.st2{fill:#FF4B55;}
	.st3{fill:#FFE15A;}
</style>
<g id="Page-1">
	<g id="aw">
		<path id="Rectangle" class="st0" d="M10,88h492c5.5,0,10,4.5,10,10v316c0,5.5-4.5,10-10,10H10c-5.5,0-10-4.5-10-10V98
			C0,92.5,4.5,88,10,88z"/>
		<g id="Group" transform="translate(19.746556, 23.977961)">
			<polygon id="Path" class="st1" points="60.7,200.7 1,174.3 60.7,148.1 86.9,88.6 113.1,148.1 172.8,174.3 113.1,200.7 
				86.9,260.2 			"/>
			<polygon id="Path_1_" class="st2" points="86.9,121.3 103.1,158.1 139.9,174.3 103.1,190.5 86.9,227.4 70.7,190.5 33.9,174.3 
				70.7,158.1 			"/>
		</g>
		<g id="Group_1_" transform="translate(0.000000, 214.391185)">
			<rect id="Rectangle_1_" y="88.3" class="st3" width="512" height="22.1"/>
			<rect id="Rectangle_2_" y="132.6" class="st3" width="512" height="22.1"/>
		</g>
	</g>
</g>
</svg>
