<?xml version="1.0" encoding="utf-8"?>
<!-- Generator: Adobe Illustrator 25.0.0, SVG Export Plug-In . SVG Version: 6.00 Build 0)  -->
<svg version="1.1" id="Layer_1" xmlns="http://www.w3.org/2000/svg" xmlns:xlink="http://www.w3.org/1999/xlink" x="0px" y="0px"
	 viewBox="0 0 512 512" style="enable-background:new 0 0 512 512;" xml:space="preserve">
<style type="text/css">
	.st0{filter:url(#Adobe_OpacityMaskFilter);}
	.st1{fill-rule:evenodd;clip-rule:evenodd;fill:#FFFFFF;}
	.st2{mask:url(#mask-2_1_);}
	.st3{fill:#FFFFFF;}
	.st4{fill:#464655;}
	.st5{fill:#73AF00;}
	.st6{fill:#FF4B55;}
</style>
<g id="Page-1">
	<g id="eh">
		<g id="Mask">
		</g>
		<defs>
			<filter id="Adobe_OpacityMaskFilter" filterUnits="userSpaceOnUse" x="0" y="88" width="512" height="335.4">
				<feColorMatrix  type="matrix" values="1 0 0 0 0  0 1 0 0 0  0 0 1 0 0  0 0 0 1 0"/>
			</filter>
		</defs>
		<mask maskUnits="userSpaceOnUse" x="0" y="88" width="512" height="335.4" id="mask-2_1_">
			<g class="st0">
				<path id="path-1_1_" class="st1" d="M10,88h492c5.5,0,10,4.5,10,10v316c0,5.5-4.5,10-10,10H10c-5.5,0-10-4.5-10-10V98
					C0,92.5,4.5,88,10,88z"/>
			</g>
		</mask>
		<g class="st2">
			<rect id="Rectangle" y="88" class="st3" width="512" height="335.3"/>
			<rect id="Rectangle_1_" y="88" class="st4" width="512" height="111.8"/>
			<rect id="Rectangle_2_" y="311.6" class="st5" width="512" height="111.8"/>
			<polygon id="Path" class="st6" points="256,255.7 0,423.3 0,88 			"/>
			<g id="Group" transform="translate(286.000000, 120.000000)">
				<path id="Path_1_" class="st6" d="M23.6,135.9c0-22.9,13.1-42.1,34.6-46.8c-3.3-0.7-6.7-1.1-10.3-1.1C21.5,88,0,109.4,0,135.9
					s21.4,47.9,47.9,47.9c3.5,0,7-0.4,10.3-1.1C36.7,177.9,23.6,158.8,23.6,135.9z"/>
				<polygon id="Path_2_" class="st6" points="78.7,95 89,126.7 122.3,126.7 95.3,146.3 105.6,178 78.7,158.4 51.7,178 62,146.3 
					35,126.7 68.4,126.7 				"/>
			</g>
		</g>
	</g>
</g>
</svg>
