<?xml version="1.0" encoding="utf-8"?>
<!-- Generator: Adobe Illustrator 25.0.0, SVG Export Plug-In . SVG Version: 6.00 Build 0)  -->
<svg version="1.1" id="Layer_1" xmlns="http://www.w3.org/2000/svg" xmlns:xlink="http://www.w3.org/1999/xlink" x="0px" y="0px"
	 viewBox="0 0 512 512" style="enable-background:new 0 0 512 512;" xml:space="preserve">
<style type="text/css">
	.st0{filter:url(#Adobe_OpacityMaskFilter);}
	.st1{fill-rule:evenodd;clip-rule:evenodd;fill:#FFFFFF;}
	.st2{mask:url(#mask-2_1_);}
	.st3{fill:#73AF00;}
	.st4{fill:#FF4B55;}
	.st5{fill:#41479B;}
	.st6{fill:#FFE15A;stroke:#464655;stroke-width:5.3;}
	.st7{fill:#464655;}
</style>
<g id="Page-1">
	<g id="nc">
		<g id="Mask">
		</g>
		<defs>
			<filter id="Adobe_OpacityMaskFilter" filterUnits="userSpaceOnUse" x="0" y="88" width="512" height="335.4">
				<feColorMatrix  type="matrix" values="1 0 0 0 0  0 1 0 0 0  0 0 1 0 0  0 0 0 1 0"/>
			</filter>
		</defs>
		<mask maskUnits="userSpaceOnUse" x="0" y="88" width="512" height="335.4" id="mask-2_1_">
			<g class="st0">
				<path id="path-1_1_" class="st1" d="M10,88h492c5.5,0,10,4.5,10,10v316c0,5.5-4.5,10-10,10H10c-5.5,0-10-4.5-10-10V98
					C0,92.5,4.5,88,10,88z"/>
			</g>
		</mask>
		<g class="st2">
			<polygon id="Path" class="st3" points="0,318.3 512,318.3 512,423.4 0,423.4 			"/>
			<polygon id="Path_1_" class="st4" points="0,191.7 512,191.7 512,318.5 0,318.5 			"/>
			<polygon id="Path_2_" class="st5" points="0,88 512,88 512,192.8 0,192.8 			"/>
			<g id="Group-2" transform="translate(66.000000, 42.000000)">
				<circle id="Oval" class="st6" cx="125.8" cy="213.8" r="125.8"/>
				<path id="Combined-Shape" class="st7" d="M130.6,88l-0.2,23.9l7.9-3.9l4.5,8.9l-12.5,6.2l-0.1,18.9l0,0.5
					c6,2.5,10.2,8.5,10.2,15.4s-4.2,12.9-10.2,15.4l0,11.5l12.2,0v8l-12.2,0l0,10.2c5.9,1.4,10.1,4.8,10.2,8.8l0,0.2
					c0,4.1-4.3,7.7-10.2,9l0,9.3l12.2,0v8l-12.2,0l0,10.4c4.3,3.5,7.2,10.4,7.3,18.5l0,0.4c0,8.2-3,15.3-7.3,18.8l0,8.9
					c0,0,12.2,1,17.7,3.3c3.7,1.6,9.8,6.6,15.7,12l0.9,0.8c7.9,7.2,15.2,14.8,15.7,15.3l0,0l0,0l-25.4,9.6l-28.9,3.4l-30.2-1.9
					l-28.7-12.4l0,0c0.9-0.9,23-23.5,32.5-26.8c6.9-2.4,17.9-3,17.9-3l0-9.7c-4-3.7-6.7-10.5-6.7-18.4s2.7-14.7,6.7-18.4l0-10.8
					l-12.5,0v-8l12.5,0l0-9.7c-5.1-1.6-8.6-4.7-8.7-8.4l0-0.2c0-3.8,3.5-7,8.7-8.6l0-10.6l-12.5,0v-8l12.5,0l0-11.4
					c-6-2.5-10.2-8.3-10.3-15.1l0-0.3c0-7,4.3-12.9,10.3-15.5l0-1.7l-0.1-11.2l-8.8,4.4l-4.5-8.9l13.2-6.6L117.1,88H130.6z"/>
			</g>
		</g>
	</g>
</g>
</svg>
