<?xml version="1.0" encoding="utf-8"?>
<!-- Generator: Adobe Illustrator 25.0.0, SVG Export Plug-In . SVG Version: 6.00 Build 0)  -->
<svg version="1.1" id="Layer_1" xmlns="http://www.w3.org/2000/svg" xmlns:xlink="http://www.w3.org/1999/xlink" x="0px" y="0px"
	 viewBox="0 0 512 512" style="enable-background:new 0 0 512 512;" xml:space="preserve">
<style type="text/css">
	.st0{fill:#012169;}
	.st1{fill:#FFFFFF;}
	.st2{fill:#C8102E;}
	.st3{fill:#AAD9FE;}
	.st4{fill:#FFA827;}
</style>
<polygon class="st0" points="256.1,88 256.1,256.2 0,256.2 0,424 512,424 512,88 "/>
<g id="Union_flag">
	<rect y="88" class="st0" width="256.1" height="168.2"/>
	<g>
		<polygon class="st1" points="106,150.1 106,142.2 22.7,88 0,88 0,105 69.3,150.1 		"/>
		<polygon class="st1" points="106,194.1 70.8,194.1 0,240.1 0,256.2 24.2,256.2 106,202.9 		"/>
		<polygon class="st1" points="233.9,88 150,142.5 150,150.1 187.3,150.1 256.1,105.3 256.1,88 		"/>
		<polygon class="st1" points="150,194.1 150,202.6 232.5,256.2 256.1,256.2 256.1,239.8 185.9,194.1 		"/>
	</g>
	<polygon class="st1" points="256.1,150.1 150,150.1 150,88 106,88 106,150.1 0,150.1 0,194.1 106,194.1 106,256.2 150,256.2 
		150,194.1 256.1,194.1 	"/>
	<polygon class="st2" points="256.1,158.8 141.3,158.8 141.3,88 114.8,88 114.8,158.8 0,158.8 0,185.3 114.8,185.3 114.8,256.2 
		141.3,256.2 141.3,185.3 256.1,185.3 	"/>
	<polygon class="st2" points="97.2,150.1 1.7,88 0,88 0,97.6 80.7,150.1 	"/>
	<polygon class="st2" points="106,194.1 89.6,194.1 0,252.4 0,256.2 10.6,256.2 	"/>
	<polygon class="st2" points="157.3,194.1 252.8,256.2 256.1,256.2 256.1,247.6 173.8,194.1 	"/>
	<polygon class="st2" points="245.4,88 150,150 150,150.1 166.4,150.1 256.1,91.8 256.1,88 	"/>
</g>
<g id="shield">
	<path id="Path_8_" class="st3" d="M310.2,343c22.4,36,73.8,48,73.8,48s51.4-12,73.8-48H310.2L310.2,343z"/>
	<path class="st1" d="M432,198.9c-19.6,0-37.1-9.4-48-24c-11,14.6-28.4,24-48,24c-13.5,0-26-4.5-36-12V307c0,14.1,4,26,10.2,36
		h147.5c6.2-10,10.2-22,10.2-36V186.9C458,194.4,445.5,198.9,432,198.9z"/>
	<path id="Path_9_" class="st4" d="M396.6,254.2c0.3,1.4,8.7,10.2,17.6,20.1c1.4,1.6-8.7,12.6-6.9,12.6c4.8-0.1,19.3-17.3,19.3,6.7
		c0.1,15.9-30,27.5-30,27.5h17.5l0.7,15c0,0,5-13.3,7.6-16.6c8.1-10,20.2-30.1,34.6-27.1c14.4,3-13.7-13.9-13.7-13.9
		s-5.2-15.2-16.6-17c-10.1-1.6-14.3-2.5-26.6-7.3C398.3,253.6,396.1,251.9,396.6,254.2z"/>
	<path id="Path_10_" class="st4" d="M359.7,280.7c1.1-1,4.5-12.6,8.7-25.3c0.7-2,15.3,1.3,14.3-0.3c-2.5-4.1-24.6-8.1-3.9-20.1
		c13.8-8,38.8,12.3,38.8,12.3l-8.7-15.1l12.6-8c0,0-14,2.3-18.1,1.7c-12.7-2-36.1-2.5-40.7-16.5c-4.6-14-5.2,18.8-5.2,18.8
		s-10.6,12.1-6.4,22.9c3.7,9.5,5,13.6,7,26.7C358.2,279.6,357.9,282.3,359.7,280.7z"/>
	<path id="Path_11_" class="st4" d="M395.6,301.9c-1.4-0.4-13.2,2.5-26.2,5.2c-2.1,0.4-6.6-13.9-7.5-12.3
		c-2.3,4.2,5.4,25.3-15.4,13.4c-13.8-7.9-8.9-39.7-8.9-39.7l-8.7,15.2l-13.3-6.9c0,0,9.1,11,10.6,14.8c4.6,12,16,32.5,6.2,43.5
		s18.9-4.9,18.9-4.9s15.8,3.1,23-6c6.4-7.9,9.3-11.1,19.6-19.4C395.4,303.7,397.9,302.6,395.6,301.9z"/>
</g>
</svg>
