<?xml version="1.0" encoding="utf-8"?>
<!-- Generator: Adobe Illustrator 25.0.0, SVG Export Plug-In . SVG Version: 6.00 Build 0)  -->
<svg version="1.1" id="Layer_1" xmlns="http://www.w3.org/2000/svg" xmlns:xlink="http://www.w3.org/1999/xlink" x="0px" y="0px"
	 viewBox="0 0 512 512" style="enable-background:new 0 0 512 512;" xml:space="preserve">
<style type="text/css">
	.st0{fill:#41479B;}
	.st1{fill:#F5F5F5;}
	.st2{fill:#FF4B55;}
	.st3{fill:#FFFFFF;}
	.st4{fill:#8DCCFF;}
	.st5{fill:#FFB400;}
</style>
<g id="Page-1">
	<g id="ai">
		<path id="Path" class="st0" d="M503.2,423.7H8.8c-4.9,0-8.8-4-8.8-8.8V97.1c0-4.9,4-8.8,8.8-8.8h494.3c4.9,0,8.8,4,8.8,8.8v317.8
			C512,419.8,508,423.7,503.2,423.7z"/>
		<g id="union-flag">
			<path id="Path_1_" class="st1" d="M247.2,88.3h-15.3l-81.8,53.6V88.3h-44.1v53.6L24.2,88.3H8.8c-4.9,0-8.8,4-8.8,8.8v7l70.2,46H0
				v44.1h70.2L0,240.2v7c0,4.9,4,8.8,8.8,8.8h15.3l81.8-53.6V256h44.1v-53.6l81.8,53.6h15.3c4.9,0,8.8-4,8.8-8.8v-7l-70.2-46H256
				v-44.1h-70.2l70.2-46v-7C256,92.2,252,88.3,247.2,88.3z"/>
			<polygon id="Path_2_" class="st2" points="256,158.9 141.2,158.9 141.2,88.3 114.8,88.3 114.8,158.9 0,158.9 0,185.4 
				114.8,185.4 114.8,256 141.2,256 141.2,185.4 256,185.4 			"/>
			<path id="Path_3_" class="st2" d="M97.1,150.1L4.2,89.8C1.7,91.3,0,94,0,97.1v0.5l80.9,52.5H97.1z"/>
			<path id="Path_4_" class="st2" d="M166.3,150.1l88.4-57.4c-1.5-2.6-4.2-4.4-7.5-4.4h-1.9l-95.2,61.8H166.3z"/>
			<path id="Path_5_" class="st2" d="M89.5,194.2L1.3,251.5c1.5,2.7,4.3,4.5,7.6,4.5h1.7l95.2-61.8H89.5L89.5,194.2z"/>
			<path id="Path_6_" class="st2" d="M255.9,247.9l-82.7-53.7H157l93.9,60.9C253.7,253.8,255.6,251.1,255.9,247.9z"/>
		</g>
		<g id="shield" transform="translate(299.940000, 86.890000)">
			<path id="Path_7_" class="st3" d="M154.9,260.5c7.9-10.9,13.2-24.3,13.2-40.4V100c-10,7.5-22.5,12-36,12c-19.6,0-37.1-9.4-48-24
				c-11,14.6-28.4,24-48,24c-13.5,0-26-4.5-36-12v120.1c0,16.2,5.3,29.5,13.2,40.4H154.9L154.9,260.5z"/>
			<path id="Path_8_" class="st4" d="M10.3,256.1c22.4,36,73.8,48,73.8,48s51.4-12,73.8-48H10.3L10.3,256.1z"/>
			<path id="Path_9_" class="st5" d="M96.7,167.3c0.3,1.4,8.7,10.2,17.6,20.1c1.4,1.6-8.7,12.6-6.9,12.6c4.8-0.1,19.3-17.3,19.3,6.7
				c0.1,15.9-30,27.5-30,27.5h17.5l0.7,15c0,0,5-13.3,7.6-16.6c8.1-10,20.2-30.1,34.6-27.1c14.4,3-13.7-13.9-13.7-13.9
				s-5.2-15.2-16.6-17c-10.1-1.6-14.3-2.5-26.6-7.3C98.4,166.7,96.2,165,96.7,167.3z"/>
			<path id="Path_10_" class="st5" d="M59.8,193.8c1.1-1,4.5-12.6,8.7-25.3c0.7-2,15.3,1.3,14.3-0.3c-2.5-4.1-24.6-8.1-3.9-20.1
				c13.8-8,38.8,12.3,38.8,12.3l-8.7-15.1l12.6-8c0,0-14,2.3-18.1,1.7c-12.7-2-36.1-2.5-40.7-16.5s-5.2,18.8-5.2,18.8
				s-10.6,12.1-6.4,22.9c3.7,9.5,5,13.6,7,26.7C58.3,192.7,58,195.4,59.8,193.8z"/>
			<path id="Path_11_" class="st5" d="M95.7,215c-1.4-0.4-13.2,2.5-26.2,5.2c-2.1,0.4-6.6-13.9-7.5-12.3
				c-2.3,4.2,5.4,25.3-15.4,13.4c-13.8-7.9-8.9-39.7-8.9-39.7L29,196.8l-13.3-6.9c0,0,9.1,11,10.6,14.8c4.6,12,16,32.5,6.2,43.5
				c-9.8,11,18.9-4.9,18.9-4.9s15.8,3.1,23-6c6.4-7.9,9.3-11.1,19.6-19.4C95.5,216.8,98,215.7,95.7,215z"/>
		</g>
	</g>
</g>
</svg>
