<?xml version="1.0" encoding="utf-8"?>
<!-- Generator: Adobe Illustrator 25.0.0, SVG Export Plug-In . SVG Version: 6.00 Build 0)  -->
<svg version="1.1" id="Layer_1" xmlns="http://www.w3.org/2000/svg" xmlns:xlink="http://www.w3.org/1999/xlink" x="0px" y="0px"
	 viewBox="0 0 512 512" style="enable-background:new 0 0 512 512;" xml:space="preserve">
<style type="text/css">
	.st0{fill:#FFFFFF;}
	.st1{fill:#B22234;}
	.st2{fill:#3C3B6E;}
	.st3{fill:#FFF5DC;}
	.st4{fill:#D27D69;}
	.st5{fill:#FFE15A;}
	.st6{fill:#B95546;}
</style>
<g>
	<polygon class="st0" points="57.6,256 512,405.1 512,106.9 	"/>
</g>
<polygon class="st1" points="512,88 0,256 512,424 512,405.1 57.6,256 512,106.9 "/>
<polygon class="st2" points="512,88 512,88 0,88 0,424 512,424 512,424 0,256 "/>
<g id="crest">
	<path class="st3" d="M458.1,212.6c0,0,30.2,1.3,33-1c2.8-2.3,3.3-17.7-6.7-20s-37.1,12.6-37.1,12.6L458.1,212.6z"/>
	<g>
		<path class="st4" d="M398.9,236.4c0,0-0.3,0.9-0.5,4.6c-0.2,3.8,0.5,13.5,12.3,17.8l-2.7,11.4l12.5,7.5c0,0,9.2-13.7,9.7-25.1
			C430.7,241.2,398.9,236.4,398.9,236.4z"/>
		<path class="st4" d="M361.5,228.7l4.9-4.9c0,0-10,6.1-13.7,0.6c-5-7.2,1.7-14.7,8.6-18c6.9-3.3,20.8-0.8,20.8-0.8l8.7,22.3
			l-26.4,16.7L361.5,228.7z"/>
		<path class="st4" d="M443.2,186.2l23.6-2.8c0,0-6.9,10-20.5,17.4c0,0,14.1,0,18.2,4.9c4.1,4.9-4.1,9.5-7.2,11
			c-3.1,1.5-29.7,17.9-29.7,17.9l-23.8-2.8L443.2,186.2z"/>
		<path class="st4" d="M460.7,168.1c0,0,5.1-12,5-20.3l-17.2,12c0,0,3.9-1.9,2.6-8.7l-56.4,30.6l-11.4,20.3l34.8,10.8L460.7,168.1z"
			/>
	</g>
	<path class="st5" d="M418.3,261.2l-5.9,9.4c0,0-10.5-2.3-14.1,0.3c-3.6,2.6-4,12.2,2.3,12.9c0,0,4.4,2.7,6.9,0.5c0,0,5.3,2,6.1-1.3
		c0.9-3.3-0.3-6.1-0.3-6.1h3.7l6.5-11.7L418.3,261.2z"/>
	<path class="st6" d="M365.6,241c0,0,16.4-8.2,16.4-20.5s-15.2-13-27.5-8.9c0,0-7.3-5.8-1.2-11.6c8.4-8,45.1-24.6,45.1-24.6
		l-4.1,20.5c0,0,14.6,7.7,20.5,4.1c5-3,53.3-41,53.3-41s-4.1,20.5-32.8,41l-3,15.2c-0.7,3.3-2.8,6.2-5.9,7.7l-11.6,5.8
		c0,0,32.8,4.1,32.8,8.2s-8.2,24.6-24.6,32.8l-8.2-8.2l4.1-12.3c0,0-12.3-4.1-20.5-8.2c0,0-12.3,4.1-20.5,4.1S365.6,241,365.6,241z"
		/>
	<path class="st3" d="M341,261.5V253c0-2.4,1-4.7,2.7-6.5l17.8-17.8l4.1,8.2H382l-4.1,4.1v4.1l-20.5,12.3L341,261.5z"/>
	<g>
		<path class="st5" d="M349.2,257.4H341c0,0-8.2,12.3,0,12.3c0,0,12.3-8.2,16.4-12.3C357.4,257.4,357.4,253.3,349.2,257.4z"/>
		<path class="st5" d="M449.2,275.6h-56.7c-0.5-0.5-1.1-0.8-1.9-0.8c0,0-9.9-4.1-11.3-4.1h-1.2c-1.4,0-2.6,1.1-2.6,2.6v2.4h-13v-2.4
			c0-1.4-1.1-2.6-2.6-2.6H359c-1.4,0-2.6,1.1-2.6,2.6v0c-5.6-0.2-17.4-0.9-23.6-3l-32.8,8.2l32.8,8.2c6.1-2,18-2.8,23.6-3v0
			c0,1.4,1.1,2.6,2.6,2.6h1.2c1.4,0,2.6-1.1,2.6-2.6v-2.4h13v2.4c0,1.4,1.1,2.6,2.6,2.6h1.2c1.4,0,11.3-4.1,11.3-4.1
			c0.7,0,1.4-0.3,1.9-0.8h56.7c1.6,0,2.9-1.3,2.9-2.9C452.1,276.9,450.8,275.6,449.2,275.6z"/>
		<path class="st5" d="M446.7,286.6c-3.4-0.7-42.5,6.1-42.5,6.1s-2.4-2.4,4.8-9.1l-3.4-0.9c0,0-7.5,5.3-10.6,6
			c-2.6,0.6-8.6,3.5-9.8,7.3l-23.8,4l0.5,2l23.4-2.7c1.1,3.6,4.8,4.3,7.4,3.2c0,0,3.4,1.4,6.5-1c0,0,6.1,1,6.5-4.6l42.9-6.5
			C448.5,290.5,450.2,287.3,446.7,286.6z"/>
		<path class="st5" d="M422.5,315.5c0,0-3.2,4.3-11.3,0.5c-8-3.8-17.4,0.3-22.5-0.9s-12.8-4.3-20-1.5c-7.2,2.7-11.1,2.6-9.6-0.9
			c1.5-3.4,2.4-6,0-7.2l2.7-3.4l-0.5-2c0,0-13.7-5.3-22.9,2c-9.2,7.3-6.5,24.1,8.9,25.3c0,0,4.8,6,16.6,4.3c0,0,7.7,5.3,20.8,2.9
			c0,0,0.5,1.5,9.1,0.9c8.5-0.7,18.1,0.3,16.4,6.1c0,0,6.3-1.2,2.6-7c0,0,7.5-0.3,12.6,4.1c0,0,0.3-5.1-4.6-7.9c0,0,8.4-2.9,13,0
			c0,0-3.1-6.5-11.3-5.6c0,0,6-4.8,8.7-3.6c0,0-2.6-3.1-10.1,0C421.1,321.6,425.9,318.7,422.5,315.5z"/>
	</g>
</g>
</svg>
