<?xml version="1.0" encoding="utf-8"?>
<!-- Generator: Adobe Illustrator 25.0.0, SVG Export Plug-In . SVG Version: 6.00 Build 0)  -->
<svg version="1.1" id="Layer_1" xmlns="http://www.w3.org/2000/svg" xmlns:xlink="http://www.w3.org/1999/xlink" x="0px" y="0px"
	 viewBox="0 0 512 512" style="enable-background:new 0 0 512 512;" xml:space="preserve">
<style type="text/css">
	.st0{fill:#012169;}
	.st1{fill:#FFFFFF;}
	.st2{fill:#C8102E;}
</style>
<polygon class="st0" points="256.1,88 256.1,256.2 0,256.2 0,424 512,424 512,88 "/>
<g id="Union_flag">
	<rect y="88" class="st0" width="256.1" height="168.2"/>
	<g>
		<polygon class="st1" points="106,150.1 106,142.2 22.7,88 0,88 0,105 69.3,150.1 		"/>
		<polygon class="st1" points="106,194.1 70.8,194.1 0,240.1 0,256.2 24.2,256.2 106,202.9 		"/>
		<polygon class="st1" points="233.9,88 150,142.5 150,150.1 187.3,150.1 256.1,105.3 256.1,88 		"/>
		<polygon class="st1" points="150,194.1 150,202.6 232.5,256.2 256.1,256.2 256.1,239.8 185.9,194.1 		"/>
	</g>
	<polygon class="st1" points="256.1,150.1 150,150.1 150,88 106,88 106,150.1 0,150.1 0,194.1 106,194.1 106,256.2 150,256.2 
		150,194.1 256.1,194.1 	"/>
	<polygon class="st2" points="256.1,158.8 141.3,158.8 141.3,88 114.8,88 114.8,158.8 0,158.8 0,185.3 114.8,185.3 114.8,256.2 
		141.3,256.2 141.3,185.3 256.1,185.3 	"/>
	<polygon class="st2" points="97.2,150.1 1.7,88 0,88 0,97.6 80.7,150.1 	"/>
	<polygon class="st2" points="106,194.1 89.6,194.1 0,252.4 0,256.2 10.6,256.2 	"/>
	<polygon class="st2" points="157.3,194.1 252.8,256.2 256.1,256.2 256.1,247.6 173.8,194.1 	"/>
	<polygon class="st2" points="245.4,88 150,150 150,150.1 166.4,150.1 256.1,91.8 256.1,88 	"/>
</g>
<g>
	<path class="st1" d="M130.7,304.1l6.7,22l21.4-8.5c1.8-0.7,3.5,1.4,2.4,3l-13,18.9l20,11.4c1.7,1,1.1,3.6-0.8,3.7l-22.9,1.6
		l3.5,22.7c0.3,1.9-2.1,3.1-3.4,1.6l-15.5-16.9l-15.5,16.9c-1.3,1.4-3.7,0.3-3.4-1.6l3.5-22.7l-22.9-1.6c-2-0.1-2.5-2.7-0.8-3.7
		l20-11.4l-13-18.9c-1.1-1.6,0.5-3.7,2.4-3l21.4,8.5l6.7-22C127.4,302.3,130.1,302.3,130.7,304.1z"/>
	<path class="st1" d="M393.3,147.7l3.3,10.7l10.4-4.2c0.9-0.4,1.7,0.7,1.2,1.4l-6.4,9.2l9.8,5.6c0.8,0.5,0.5,1.7-0.4,1.8L400,173
		l1.7,11.1c0.1,0.9-1,1.5-1.7,0.8l-7.6-8.3l-7.6,8.3c-0.6,0.7-1.8,0.1-1.7-0.8l1.7-11.1l-11.2-0.8c-1-0.1-1.2-1.3-0.4-1.8l9.8-5.6
		l-6.4-9.2c-0.5-0.8,0.3-1.8,1.2-1.4l10.4,4.2l3.3-10.7C391.7,146.8,393,146.8,393.3,147.7z"/>
	<path class="st1" d="M320.7,230.2L324,241l10.4-4.2c0.9-0.4,1.7,0.7,1.2,1.4l-6.4,9.2l9.8,5.6c0.8,0.5,0.5,1.7-0.4,1.8l-11.2,0.8
		l1.7,11.1c0.1,0.9-1,1.5-1.7,0.8l-7.6-8.3l-7.6,8.3c-0.6,0.7-1.8,0.1-1.7-0.8l1.7-11.1l-11.2-0.8c-1-0.1-1.2-1.3-0.4-1.8l9.8-5.6
		l-6.4-9.2c-0.5-0.8,0.3-1.8,1.2-1.4l10.4,4.2l3.3-10.7C319.1,229.3,320.4,229.3,320.7,230.2z"/>
	<path class="st1" d="M461.9,194.9l3.3,10.7l10.4-4.2c0.9-0.4,1.7,0.7,1.2,1.4l-6.4,9.2l9.8,5.6c0.8,0.5,0.5,1.7-0.4,1.8l-11.2,0.8
		l1.7,11.1c0.1,0.9-1,1.5-1.7,0.8L461,224l-7.6,8.3c-0.6,0.7-1.8,0.1-1.7-0.8l1.7-11.1l-11.2-0.8c-1-0.1-1.2-1.3-0.4-1.8l9.8-5.6
		l-6.4-9.2c-0.5-0.8,0.3-1.8,1.2-1.4l10.4,4.2l3.3-10.7C460.4,194,461.7,194,461.9,194.9z"/>
	<path class="st1" d="M393.3,336.1l3.3,10.7l10.4-4.2c0.9-0.4,1.7,0.7,1.2,1.4l-6.4,9.2l9.8,5.6c0.8,0.5,0.5,1.7-0.4,1.8l-11.2,0.8
		l1.7,11.1c0.1,0.9-1,1.5-1.7,0.8l-7.6-8.3l-7.6,8.3c-0.6,0.7-1.8,0.1-1.7-0.8l1.7-11.1l-11.2-0.8c-1-0.1-1.2-1.3-0.4-1.8l9.8-5.6
		l-6.4-9.2c-0.5-0.8,0.3-1.8,1.2-1.4l10.4,4.2l3.3-10.7C391.7,335.2,393,335.2,393.3,336.1z"/>
	<path class="st1" d="M418.5,249.5l-2.6,7.8l-8.3,0.1c-1.1,0-1.5,1.4-0.7,2l6.6,4.9l-2.5,7.9c-0.3,1,0.8,1.9,1.7,1.2l6.7-4.8
		l6.7,4.8c0.9,0.6,2-0.2,1.7-1.2l-2.5-7.9l6.6-4.9c0.9-0.6,0.4-2-0.7-2l-8.3-0.1l-2.6-7.8C420.2,248.5,418.8,248.5,418.5,249.5z"/>
</g>
</svg>
