<?xml version="1.0" encoding="utf-8"?>
<!-- Generator: Adobe Illustrator 25.0.0, SVG Export Plug-In . SVG Version: 6.00 Build 0)  -->
<svg version="1.1" id="Layer_1" xmlns="http://www.w3.org/2000/svg" xmlns:xlink="http://www.w3.org/1999/xlink" x="0px" y="0px"
	 viewBox="0 0 512 512" style="enable-background:new 0 0 512 512;" xml:space="preserve">
<style type="text/css">
	.st0{fill:#FFFFFF;}
	.st1{fill:#1EB53A;}
	.st2{fill:#CE1126;}
</style>
<path class="st0" d="M512,88.2L512,88.2l-40.1,0L307.7,196c-13.9-12-31.9-19.2-51.7-19.2c-19.7,0-37.8,7.2-51.7,19.2L40.1,88.2H0
	l0,0v26.3l180.3,118.3c-2.2,7.3-3.5,15.1-3.5,23.2c0,8.2,1.2,16.1,3.6,23.5L0,397.9v25.9h40.8l163.9-107.5
	c13.8,11.8,31.8,18.9,51.4,18.9c19.6,0,37.5-7.1,51.4-18.9l163.9,107.5H512v-25.9L331.6,279.5c2.3-7.4,3.6-15.3,3.6-23.5
	c0-8.1-1.2-15.8-3.5-23.2L512,114.5V88.2z"/>
<path class="st1" d="M176.8,256c0-8.1,1.2-15.8,3.5-23.2L0,114.5v283.4l180.4-118.4C178.1,272.1,176.8,264.2,176.8,256z"/>
<path class="st1" d="M335.2,256c0,8.2-1.2,16.1-3.6,23.5L512,397.9V114.5L331.7,232.8C334,240.2,335.2,247.9,335.2,256z"/>
<path class="st2" d="M256,335.2c-19.6,0-37.5-7.1-51.4-18.9L40.8,423.8h430.4L307.4,316.2C293.5,328.1,275.6,335.2,256,335.2z"/>
<path class="st2" d="M256,176.8c19.7,0,37.6,7.2,51.5,19L471.7,88.2H40.3l164.3,107.6C218.4,184,236.3,176.8,256,176.8z"/>
<g id="stars">
	<polygon class="st2" points="250.3,230.5 238.3,230.9 244.6,220.6 238.3,210.4 250.3,210.7 256,200.2 261.7,210.7 273.7,210.4 
		267.4,220.6 273.7,230.9 261.7,230.5 256,241.1 	"/>
	<path class="st1" d="M256,203l4.9,9.1l10.3-0.3l-5.4,8.8l5.4,8.8l-10.3-0.3l-4.9,9.1l-4.9-9.1l-10.3,0.3l5.4-8.8l-5.4-8.8l10.3,0.3
		L256,203 M256,197.4l-2.3,4.3l-4.2,7.7l-8.7-0.2l-4.9-0.1l2.5,4.2l4.6,7.4l-4.6,7.4l-2.5,4.2l4.9-0.1l8.7-0.2l4.2,7.7l2.3,4.3
		l2.3-4.3l4.2-7.7l8.7,0.2l4.9,0.1l-2.5-4.2l-4.6-7.4l4.6-7.4l2.5-4.2l-4.9,0.1l-8.7,0.2l-4.2-7.7L256,197.4L256,197.4z"/>
	<polygon class="st2" points="217.4,289.1 205.4,289.4 211.7,279.1 205.4,268.9 217.4,269.2 223.1,258.7 228.8,269.2 240.8,268.9 
		234.6,279.1 240.8,289.4 228.8,289.1 223.1,299.6 	"/>
	<path class="st1" d="M223.1,261.5l4.9,9.1l10.3-0.3l-5.4,8.8l5.4,8.8l-10.3-0.3l-4.9,9.1l-4.9-9.1l-10.3,0.3l5.4-8.8l-5.4-8.8
		l10.3,0.3L223.1,261.5 M223.1,255.9l-2.3,4.3l-4.2,7.7l-8.7-0.2l-4.9-0.1l2.5,4.2l4.6,7.4l-4.6,7.4l-2.5,4.2l4.9-0.1l8.7-0.2
		l4.2,7.7l2.3,4.3l2.3-4.3l4.2-7.7l8.7,0.2l4.9,0.1l-2.5-4.2l-4.6-7.4l4.6-7.4l2.5-4.2l-4.9,0.1l-8.7,0.2l-4.2-7.7L223.1,255.9
		L223.1,255.9z"/>
	<polygon class="st2" points="283.2,289.1 271.2,289.4 277.4,279.1 271.2,268.9 283.2,269.2 288.9,258.7 294.6,269.2 306.6,268.9 
		300.3,279.1 306.6,289.4 294.6,289.1 288.9,299.6 	"/>
	<path class="st1" d="M288.9,261.5l4.9,9.1l10.3-0.3l-5.4,8.8l5.4,8.8l-10.3-0.3l-4.9,9.1l-4.9-9.1l-10.3,0.3l5.4-8.8l-5.4-8.8
		l10.3,0.3L288.9,261.5 M288.9,255.9l-2.3,4.3l-4.2,7.7l-8.7-0.2l-4.9-0.1l2.5,4.2l4.6,7.4l-4.6,7.4l-2.5,4.2l4.9-0.1l8.7-0.2
		l4.2,7.7l2.3,4.3l2.3-4.3l4.2-7.7l8.7,0.2l4.9,0.1l-2.5-4.2l-4.6-7.4l4.6-7.4l2.5-4.2l-4.9,0.1l-8.7,0.2l-4.2-7.7L288.9,255.9
		L288.9,255.9z"/>
</g>
</svg>
