<?xml version="1.0" encoding="utf-8"?>
<!-- Generator: Adobe Illustrator 25.0.0, SVG Export Plug-In . SVG Version: 6.00 Build 0)  -->
<svg version="1.1" id="Layer_1" xmlns="http://www.w3.org/2000/svg" xmlns:xlink="http://www.w3.org/1999/xlink" x="0px" y="0px"
	 viewBox="0 0 512 512" style="enable-background:new 0 0 512 512;" xml:space="preserve">
<style type="text/css">
	.st0{fill:#C8102E;}
	.st1{fill:#012169;}
	.st2{fill:#FFFFFF;}
	.st3{fill:#318F25;}
	.st4{fill:#65B6D1;}
	.st5{fill:#E5CA64;}
	.st6{fill:#78411E;}
	.st7{fill:#F5CD27;}
</style>
<polygon class="st0" points="256.1,88 256.1,256.2 0,256.2 0,424 512,424 512,88 "/>
<g id="Union_flag">
	<rect y="88" class="st1" width="256.1" height="168.2"/>
	<g>
		<polygon class="st2" points="106,150.1 106,142.2 22.7,88 0,88 0,105 69.3,150.1 		"/>
		<polygon class="st2" points="106,194.1 70.8,194.1 0,240.1 0,256.2 24.2,256.2 106,202.9 		"/>
		<polygon class="st2" points="233.9,88 150,142.5 150,150.1 187.3,150.1 256.1,105.3 256.1,88 		"/>
		<polygon class="st2" points="150,194.1 150,202.6 232.5,256.2 256.1,256.2 256.1,239.8 185.9,194.1 		"/>
	</g>
	<polygon class="st2" points="256.1,150.1 150,150.1 150,88 106,88 106,150.1 0,150.1 0,194.1 106,194.1 106,256.2 150,256.2 
		150,194.1 256.1,194.1 	"/>
	<polygon class="st0" points="256.1,158.8 141.3,158.8 141.3,88 114.8,88 114.8,158.8 0,158.8 0,185.3 114.8,185.3 114.8,256.2 
		141.3,256.2 141.3,185.3 256.1,185.3 	"/>
	<polygon class="st0" points="97.2,150.1 1.7,88 0,88 0,97.6 80.7,150.1 	"/>
	<polygon class="st0" points="106,194.1 89.6,194.1 0,252.4 0,256.2 10.6,256.2 	"/>
	<polygon class="st0" points="157.3,194.1 252.8,256.2 256.1,256.2 256.1,247.6 173.8,194.1 	"/>
	<polygon class="st0" points="245.4,88 150,150 150,150.1 166.4,150.1 256.1,91.8 256.1,88 	"/>
</g>
<g id="shield">
	<path class="st2" d="M320.9,174c-1.7,0-3.2,1.4-3.2,3.2v116.6c0,9.5,6.3,41,66.2,50.4c59.9-9.5,66.2-41,66.2-50.4V177.2
		c0-1.7-1.4-3.2-3.2-3.2L320.9,174L320.9,174z"/>
	<path class="st3" d="M384,344.3c50-7.9,62.7-31.2,65.5-44.1H318.5C321.3,313.1,334,336.4,384,344.3z"/>
	<path class="st4" d="M425,240.2c0,0,3.2-3.2,0-9.5l-41-1.8l-41,1.8c-3.2,6.3,0,9.5,0,9.5c-3.2,3.2-3.2,6.3-3.2,6.3h6.3l6.8,11.3
		l31,17.1l31-17.1l6.8-11.3h6.3C428.1,246.5,428.1,243.4,425,240.2z"/>
	<path class="st2" d="M415,257.8c0,0-2-4.3-7.2-3.8c0,0-2.9-3.8-7.8-2.8c0,0-5.6-3.3-8.9,2.8c0,0-10.4-1.1-11,6.9
		c0,0,16.3,24.5,16.7,24.8c0.4,0.3,19.4,0.1,19.4,0.1l8.8-9.7l-8.7-12.5L415,257.8z"/>
	<path class="st5" d="M384.4,265.6c0,0-13.8-22.5-15.8-24.4c-1.9-1.8-5.6-3.5-9.5-0.4c0,0-11.4-0.9-9.9,7.8l3.3,13.1
		c0,0-2.9,9.1-4.2,10c-1.3,0.9-6.2,3.4-6.2,3.4L345,286l36.8-1.8L384.4,265.6z"/>
	<path class="st6" d="M400.3,255.7L400.3,255.7l-1.1-2.4c-0.1-0.2-0.2-0.3-0.4-0.4c-0.2-0.1-0.4-0.1-0.6,0l-6.8,3l-8.1-13.3
		c0.4-0.3,0.5-0.8,0.3-1.3c-0.2-0.6-0.9-0.9-1.5-0.7l-1.8,0.6l-1.2-3.6c-0.1-0.4-0.6-0.6-1-0.5c-0.4,0.1-0.6,0.6-0.5,1l1.2,3.7
		l-1.9,0.7c-0.6,0.2-0.9,0.9-0.7,1.5c0.2,0.5,0.6,0.8,1.1,0.8c0.1,0,0.1,0,0.2,0l2.7,16.2l-1.7,0.8c-0.4,0.2-0.6,0.6-0.4,1l1,2.7
		c0,0.5,0,1.2-0.1,2.2l-11-18.9c0.5-0.3,0.7-0.9,0.5-1.4c-0.2-0.6-0.9-0.9-1.5-0.7l-1.8,0.6l-1.2-3.6c-0.1-0.4-0.6-0.6-1-0.5
		c-0.4,0.1-0.6,0.6-0.5,1l1.2,3.7l-1.9,0.7c-0.6,0.2-0.9,0.9-0.7,1.5c0.2,0.4,0.6,0.7,1,0.7l4.8,29.8c-0.6,0.3-1.2,0.5-1.9,0.8
		c0,0-2.2,10.6-0.5,11.2s19.3,5.9,19.3,5.9s24.3-11.6,24.8-11.8c0.5-0.3,1.6-7.9,1.6-7.9L400.3,255.7z M398.8,256.4l-2,0.9l-0.7-1.7
		l2-0.9L398.8,256.4z M386.5,259.8l1.7-0.7l0.6,1.6l-1.8,0.8L386.5,259.8z M385.6,262l-2,0.9l-0.6-1.5l2.1-0.9L385.6,262z
		 M390.3,260l-0.6-1.6l1.8-0.8l0.7,1.6L390.3,260z M392.8,257l1.8-0.8l0.7,1.6l-1.8,0.8L392.8,257z M381.7,243.3l8.2,13.3l-3.9,1.7
		l-5-14.8L381.7,243.3z M378.9,244.3l0.6-0.2l5,14.9l-3,1.3L378.9,244.3z M381.5,262l0.6,1.5l-1.9,0.8l-0.5-1.5L381.5,262z
		 M366.3,249.3l11.9,20.5c-0.6,1.7-1.7,3.8-3.7,5.7l-8.8-26L366.3,249.3z M363.3,250.4l0.9-0.3l9,26.6c-1.4,1.1-3.1,2.2-5.2,3.2
		L363.3,250.4z"/>
	<path class="st0" d="M427.8,226c-0.8-1.3-3.5-0.8-3.5-0.8s-0.8-1.5-2.8-1.7c-2-0.1-2.4,1.7-2.4,1.7s-0.4-0.3-2.6-0.2
		s-1.8,3.7-1.8,3.7s-0.9,0-3.7-0.9c-2.9-0.9-4.8-0.3-4.8-0.3c-0.1-1.5-0.9-2.6-0.9-2.6c-2.4,1-4.3-0.1-4.8-1
		c-0.5-0.9,0.7-2.2,0.7-3.3c0-1.1-1.5-1.1-2.1-2.1s0-1.5,1.4-2.2s2.8-3,1.9-4.9s-3.4-1.6-3.4-1.6c0.9,0.1,1.6,1.8,0.2,2.2
		c-1.4,0.3-2.7-4.9-2.7-4.9c3.3,2.2,5.7,0.9,6.4-1c0.7-1.9-1.1-3.3-1.1-3.3c-1.4,2.3-3.9,0.3-2.6-1.2c1.3-1.5,1.4-4,1.4-4
		c-3,1.4-4.8-0.4-4.8-0.4c3.9-2.7,2.8-6.5,2.8-6.5c-1.4-0.7-4.5-0.1-4.5-0.1c0.7-1.3,0.5-3.7,0.5-3.7c-1.6-0.3-3.5,0.8-3.5,0.8
		c0.5-1.8-0.2-5.1-0.2-5.1c-1.2,0.2-3.4,0.9-3.4,0.9c-0.9-2.1-3.5-3.4-3.5-3.4s-2.6,1.2-3.5,3.4c0,0-2.2-0.7-3.4-0.9
		c0,0-0.7,3.2-0.2,5.1c0,0-1.8-1.1-3.5-0.8c0,0-0.1,2.4,0.5,3.7c0,0-3.1-0.5-4.5,0.1c0,0-1.1,3.8,2.8,6.5c0,0-1.8,1.8-4.8,0.4
		c0,0,0.1,2.5,1.4,4c1.3,1.5-1.1,3.5-2.6,1.2c0,0-1.8,1.3-1.1,3.3s3.1,3.3,6.4,1c0,0-1.3,5.2-2.7,4.9c-1.4-0.3-0.7-2,0.2-2.2
		c0,0-2.6-0.3-3.4,1.6c-0.9,1.9,0.4,4.3,1.9,4.9c1.4,0.6,2,1.2,1.4,2.2c-0.5,1-2.1,0.9-2.1,2.1c0,1.1,1.2,2.4,0.7,3.3
		c-0.5,0.9-2.4,2-4.8,1c0,0-0.8,1.1-0.9,2.6c0,0-1.9-0.7-4.8,0.3c-2.9,0.9-3.7,0.9-3.7,0.9s0.5-3.7-1.8-3.7
		c-2.2-0.1-2.6,0.2-2.6,0.2s-0.4-1.8-2.4-1.7c-2,0.1-2.8,1.7-2.8,1.7s-2.7-0.6-3.5,0.8c-0.8,1.3-0.9,3.4,0.6,4.2
		c1.6,0.8,5.8,4.3,5.8,4.3l5.9,2.6l20.7-9.2l10.8,2.9l10.8-2.9l20.7,9.2l5.9-2.6c0,0,4.2-3.5,5.8-4.3
		C428.8,229.4,428.7,227.3,427.8,226z"/>
	<path class="st2" d="M377.5,192.6c0,0,0.2,2.8,4.3,2C381.9,194.7,381.8,191.8,377.5,192.6z"/>
	<path class="st0" d="M362.3,302.5c0,0-3-0.1-6,2.2c-3.1,2.3-4.4,0.7-7.5,0.7s-3.8,3.2-3.8,3.2s-5.9,1.5-3.5,5.8
		c1.5,2.7,3.6,2.7,4.9,2.3c-0.1,1.8,0.4,3.9,2.5,4.2c4,0.7,5.8-1.5,4.9-4.8c0,0,0.5,3.4,3.2,3.4c2.7-0.1,4.4-1.6,4.1-5.1
		s4.4-1.4,8.1-6.6L362.3,302.5z"/>
	<g>
		<path class="st4" d="M345,315.2c0,0-1.8,2.4-1.3,4.8c0,0-3.9-1.2-1.8-7.1C341.9,312.9,344.6,312.2,345,315.2z"/>
		<path class="st4" d="M351.2,318.4c0,0-1.1,3.1,0.4,5.8c0,0-4.9-0.1-3.9-6.2C347.7,317.9,349.3,316.3,351.2,318.4z"/>
		<path class="st4" d="M356.2,318.1c0,0,0.9,2.6,0,5c0,0,4-0.2,3.4-6.1C359.5,317,357.3,316.2,356.2,318.1z"/>
	</g>
	<g>
		<path class="st0" d="M352.6,259.2c-0.4-3-19.4-4.8-18.2,11.2c0,0-2.1,0-3.1,1.9s-3.3,1.5-3.9,0.8c0,0,0.1,3.6,4.6,3.4
			c0,0-1.4,1.1-1.2,2.7s1.4,3.6,1.3,5s-1.4,3.3-1.4,3.3s3.4-1.2,3.6-3.6c0.2-2.4-0.3-4.5,0.3-5.7c0,0-0.3,1.7,1.2,3.9
			c1.5,2.2,1.6,4.8,1,6.4c0,0,3.8-1.9,3-5.4s-1.5-3.3-1.1-5.3c0,0,3.9,4,3.2,7.4c0,0,1.2-1.5,1.1-4.3c-0.1-2.8-2.1-4.7-2.1-4.7
			S353.8,269.6,352.6,259.2z"/>
		<path class="st0" d="M405.7,302.5c0,0,3-0.1,6,2.2c3.1,2.3,4.4,0.7,7.5,0.7s3.8,3.2,3.8,3.2s5.9,1.5,3.5,5.8
			c-1.5,2.7-3.6,2.7-4.9,2.3c0.1,1.8-0.4,3.9-2.5,4.2c-4,0.7-5.8-1.5-4.9-4.8c0,0-0.5,3.4-3.2,3.4c-2.7-0.1-4.4-1.6-4.1-5.1
			s-4.4-1.4-8.1-6.6L405.7,302.5z"/>
	</g>
	<g>
		<path class="st4" d="M423,315.2c0,0,1.8,2.4,1.3,4.8c0,0,3.9-1.2,1.8-7.1C426.1,312.9,423.4,312.2,423,315.2z"/>
		<path class="st4" d="M416.8,318.4c0,0,1.1,3.1-0.4,5.8c0,0,4.9-0.1,3.9-6.2C420.3,317.9,418.7,316.3,416.8,318.4z"/>
		<path class="st4" d="M411.8,318.1c0,0-0.9,2.6,0,5c0,0-4-0.2-3.4-6.1C408.5,317,410.7,316.2,411.8,318.1z"/>
	</g>
	<path class="st0" d="M415.4,259.2c0.4-3,19.4-4.8,18.2,11.2c0,0,2.1,0,3.1,1.9s3.3,1.5,3.9,0.8c0,0-0.1,3.6-4.6,3.4
		c0,0,1.4,1.1,1.2,2.7s-1.4,3.6-1.3,5c0.1,1.4,1.4,3.3,1.4,3.3s-3.4-1.2-3.6-3.6c-0.2-2.4,0.3-4.5-0.3-5.7c0,0,0.3,1.7-1.2,3.9
		c-1.5,2.2-1.6,4.8-1,6.4c0,0-3.8-1.9-3-5.4s1.5-3.3,1.1-5.3c0,0-3.9,4-3.2,7.4c0,0-1.2-1.5-1.1-4.3c0.1-2.8,2.1-4.7,2.1-4.7
		S414.2,269.6,415.4,259.2z"/>
	<path class="st7" d="M423.2,231.9c-0.7-0.5-1.7-0.3-2.2,0.4c-1,1.5-2.3,2.4-4,2.7c-5.6,1-13.8-4.6-16.1-6.3
		c-3.4-2.5-7.7-3-10.5-1.2c-1.1,0.4-4.5,1.4-6.4,1.4c-1.9,0-5.3-1.1-6.4-1.4c-2.8-1.7-7-1.3-10.5,1.2c-2.4,1.7-10.5,7.3-16.1,6.3
		c-1.7-0.3-3-1.2-4-2.7c-0.5-0.7-1.5-0.9-2.2-0.4c-0.7,0.5-0.9,1.5-0.4,2.2c1.5,2.2,3.5,3.6,6.1,4.1c0.6,0.1,1.3,0.2,2,0.2
		c6,0,12.8-4.3,16.6-7c2.8-2,5.9-2,7.3-0.9c0.4,0.3,0.8,0.8,0.7,1.3c-0.1,0.3-0.3,0.6-0.6,0.8c0.1-0.5-0.1-1-0.4-1.4
		c-0.6-0.6-1.6-0.6-2.2,0c-0.8,0.8-0.9,2.1-0.2,3.1c0.7,1.1,2.1,1.8,3.9,1.2c0.9-0.3,1.6-1,2.1-1.7c2.4-0.7,4.6-0.7,4.6-0.7
		s2.2,0,4.6,0.7c0.5,0.8,1.2,1.4,2.1,1.7c1.7,0.6,3.2-0.1,3.9-1.2c0.7-1.1,0.6-2.3-0.2-3.1c-0.6-0.6-1.6-0.6-2.2,0
		c-0.4,0.4-0.5,0.9-0.4,1.4c-0.3-0.2-0.5-0.5-0.6-0.8c-0.1-0.6,0.3-1,0.7-1.3c1.4-1.2,4.5-1.2,7.3,0.9c3.7,2.8,10.6,7,16.6,7
		c0.7,0,1.3-0.1,2-0.2c2.6-0.5,4.6-1.8,6.1-4.1C424.2,233.4,424,232.4,423.2,231.9z"/>
	<g>
		<path class="st4" d="M343.8,233.6c0,0-0.3-3.5-0.4-4.7s-2.3-2-3.1-0.9C339.6,229.3,339.3,231.4,343.8,233.6z"/>
		<path class="st4" d="M344.6,232.5c0,0,3.1-2.5,2.7-3.8c-0.4-1.3-1.2-2-2.3-1.6C344,227.4,343.5,229.8,344.6,232.5z"/>
		<path class="st4" d="M350.6,230.5c0.4-0.4,0.6-2.6-0.6-2.9c-1.2-0.2-2.9,1.7-2.8,4C347.3,231.7,349.8,231.4,350.6,230.5z"/>
		<path class="st4" d="M349.4,231.8c-1.4,0.5-2.8,1.7-2.8,1.7s2.6,1.9,4.3,1.3C352.7,234.1,351.8,231,349.4,231.8z"/>
	</g>
	<path class="st2" d="M390.5,192.6c0,0-0.2,2.8-4.3,2C386.1,194.7,386.2,191.8,390.5,192.6z"/>
	<g>
		<path class="st4" d="M424.2,233.6c0,0,0.3-3.5,0.4-4.7c0.1-1.1,2.3-2,3.1-0.9C428.4,229.3,428.7,231.4,424.2,233.6z"/>
		<path class="st4" d="M423.4,232.5c0,0-3.1-2.5-2.7-3.8c0.4-1.3,1.2-2,2.3-1.6C424,227.4,424.5,229.8,423.4,232.5z"/>
		<path class="st4" d="M417.4,230.5c-0.4-0.4-0.6-2.6,0.6-2.9c1.2-0.2,2.9,1.7,2.8,4C420.7,231.7,418.2,231.4,417.4,230.5z"/>
		<path class="st4" d="M418.6,231.8c1.4,0.5,2.8,1.7,2.8,1.7s-2.6,1.9-4.3,1.3C415.3,234.1,416.2,231,418.6,231.8z"/>
	</g>
	<g>
		<path d="M382.4,199.2l1.2,1.2c0.2,0.2,0.6,0.2,0.8,0l1.2-1.2c0.3-0.3,0.1-0.9-0.4-0.9h-2.5C382.3,198.2,382,198.8,382.4,199.2z"/>
		<path d="M381.7,204.3c-0.9,0-1.7-0.3-2.3-0.9c-0.6-0.6-0.8-1.5-0.7-2.4c0.1-0.3,0.4-0.5,0.6-0.5c0.3,0.1,0.5,0.3,0.5,0.6
			c-0.1,0.6,0.1,1.1,0.4,1.5c0.4,0.4,0.9,0.6,1.6,0.6c1.4-0.1,1.6-1.4,1.6-1.5l0-2.5c0-0.3,0.2-0.6,0.6-0.6s0.6,0.2,0.6,0.6v2.6
			c-0.1,0.9-0.9,2.4-2.7,2.5C381.8,204.3,381.8,204.3,381.7,204.3z"/>
		<path d="M386.3,204.3c-0.1,0-0.1,0-0.2,0c-1.8-0.1-2.5-1.6-2.7-2.4l0-2.6c0-0.3,0.2-0.6,0.6-0.6s0.6,0.2,0.6,0.6v2.6
			c0,0.1,0.3,1.3,1.6,1.4c0.7,0,1.2-0.2,1.6-0.6c0.3-0.4,0.5-0.9,0.4-1.5c0-0.3,0.2-0.6,0.5-0.6c0.3,0,0.6,0.2,0.6,0.5
			c0.1,0.9-0.1,1.8-0.7,2.4C388,204,387.2,204.3,386.3,204.3z"/>
	</g>
	<g>
		<path class="st2" d="M402.9,284.4c0,0-3.9-6.3-8.5-2.1c-4.6,4.2-6.3,9.3-11.6,8.9c-2.9-0.2-4.4-1.5-5.1-2.7
			c1.4-1.1,2.4-2.9,1.3-5.5c-2.4-5.6-11-3.9-13.4,2.2c0,0,2.8-9.1-6.8-6c0,0-1.2-6.3-6.7-4.6c-3,0.9-4.1,2.8-4.5,4.3
			c-1.2-0.3-2.7-0.3-4,0.8l7,18.8l10.5,0.1l2.4,3.5l13.8,8.7l2.5,5.3h8.7c0,0,0.7-5.4,5.3-7c4.6-1.6,12.1-4.9,12.9-7.8
			c0.8-2.9,0.8-2.9,0.8-2.9l8.4,0.1c0.9-0.7,7.1-10.8,7.1-10.8l2.9-13C424,274.7,405.9,272.3,402.9,284.4z"/>
		<path class="st2" d="M425.6,274.8l0,0.1c0.1,0,0.2,0,0.2,0L425.6,274.8z"/>
	</g>
	<g>
		<path class="st7" d="M368.4,304.5c-3.4-1.4-4.6-3.3-5-4.3c-0.4-0.9-0.3-1.6-0.2-1.9c0.2-0.5,0.5-0.8,0.7-0.9
			c0.2-0.1,0.5,0.1,0.6,0.1c0.1,0.1,0.2,0.5,0.1,0.6c-0.6,0.6-0.7,1.6-0.1,2.2c0.6,0.6,1.6,0.7,2.2,0.1c0.6-0.6,1-1.5,1-2.4
			c0-1-0.3-2-1-2.7c-0.6-0.7-2-1.3-3.4-1.1c-0.3,0.1-0.6,0.2-1,0.3c0.2-2.2-0.6-3.3-1.2-3.8c-1-0.8-2.5-0.8-3.8,0
			c-1.3,0.7-2,2.1-1.8,3.4c0.1,0.9,1,1.4,1.8,1.3c0.9-0.1,1.5-1,1.4-1.9c0.2-0.2,0.4-0.2,0.4-0.3c0,0,0.2,0.3,0,1.5
			c-0.4,1.7-1.3,2.8-2.7,3.2c-1.8,0.5-4-0.3-5.4-1.7c-1.9-2.1-5.8-13-8.1-20.2c10-4.7,11.2-12.6,11-17c-0.3-6.7-4.3-13.5-8.7-14.9
			c-1.7-0.6-4.4-0.7-6.3,0.3c-1.1,0.6-1.8,1.4-2.2,2.5c-0.7,2.2,0.7,4,2.3,4.6c1.7,0.6,3.4-0.1,4.1-1.7c0.3-0.8,0-1.7-0.8-2.1
			c-0.8-0.3-1.7,0.1-2,0.9c-0.1,0-0.3,0-0.4-0.2c-0.1-0.1-0.1-0.3-0.1-0.4c0.1-0.2,0.2-0.4,0.6-0.6c1-0.5,2.8-0.5,3.9-0.1
			c2.5,0.8,6.2,5.8,6.5,12c0.2,3.7-1,10.6-10.4,14.5c-0.8,0.3-1.1,1.1-0.9,1.9c0.6,2,6.1,19.3,9.2,22.8c1.7,1.8,4.2,2.9,6.6,2.9
			c0.7,0,1.3-0.1,1.9-0.2c1.1-0.3,1.9-0.8,2.7-1.5c0.1,0.6,0.2,1.2,0.5,1.8c0.6,1.5,2.3,4.2,7,6.1c9.5,3.8,10.5,6.4,10.4,7.3
			c0,0.5-0.3,0.8-0.6,0.9c-0.1,0.1-0.2,0.1-0.3,0.1c0.4-0.5,0.4-1.1,0.1-1.7c-0.4-0.8-1.4-1-2.1-0.6c-1.1,0.6-1.8,2-1.2,3.6
			c0.5,1.2,1.7,1.9,3,1.9c0.2,0,0.4,0,0.7-0.1c2-0.3,3.4-2,3.5-4C381.3,310.3,374.1,306.8,368.4,304.5z"/>
		<path class="st7" d="M399.6,304.5c3.4-1.4,4.6-3.3,5-4.3c0.4-0.9,0.3-1.6,0.2-1.9c-0.2-0.5-0.5-0.8-0.7-0.9
			c-0.2-0.1-0.5,0.1-0.6,0.1c-0.1,0.1-0.2,0.5-0.1,0.6c0.6,0.6,0.7,1.6,0.1,2.2c-0.6,0.6-1.6,0.7-2.2,0.1c-0.6-0.6-1-1.5-1-2.4
			c0-1,0.3-2,1-2.7c0.6-0.7,2-1.3,3.4-1.1c0.3,0.1,0.6,0.2,1,0.3c-0.2-2.2,0.6-3.3,1.2-3.8c1-0.8,2.5-0.8,3.8,0
			c1.3,0.7,2,2.1,1.8,3.4c-0.1,0.9-1,1.4-1.8,1.3c-0.9-0.1-1.5-1-1.4-1.9c-0.2-0.2-0.4-0.2-0.4-0.3c0,0-0.2,0.3,0,1.5
			c0.4,1.7,1.3,2.8,2.7,3.2c1.8,0.5,4-0.3,5.4-1.7c1.9-2.1,5.8-13,8.1-20.2c-10-4.7-11.2-12.6-11-17c0.3-6.7,4.3-13.5,8.7-14.9
			c1.7-0.6,4.4-0.7,6.3,0.3c1.1,0.6,1.8,1.4,2.2,2.5c0.7,2.2-0.7,4-2.3,4.6c-1.7,0.6-3.4-0.1-4.1-1.7c-0.3-0.8,0-1.7,0.8-2.1
			c0.8-0.3,1.7,0.1,2,0.9c0.1,0,0.3,0,0.4-0.2c0.1-0.1,0.1-0.3,0.1-0.4c-0.1-0.2-0.2-0.4-0.6-0.6c-1-0.5-2.8-0.5-3.9-0.1
			c-2.5,0.8-6.2,5.8-6.5,12c-0.2,3.7,1,10.6,10.4,14.5c0.8,0.3,1.1,1.1,0.9,1.9c-0.6,2-6.1,19.3-9.2,22.8c-1.7,1.8-4.2,2.9-6.6,2.9
			c-0.7,0-1.3-0.1-1.9-0.2c-1.1-0.3-1.9-0.8-2.7-1.5c-0.1,0.6-0.2,1.2-0.5,1.8c-0.6,1.5-2.3,4.2-7,6.1c-9.5,3.8-10.5,6.4-10.4,7.3
			c0,0.5,0.3,0.8,0.6,0.9c0.1,0.1,0.2,0.1,0.3,0.1c-0.4-0.5-0.4-1.1-0.1-1.7c0.4-0.8,1.4-1,2.1-0.6c1.1,0.6,1.8,2,1.2,3.6
			c-0.5,1.2-1.7,1.9-3,1.9c-0.2,0-0.4,0-0.7-0.1c-2-0.3-3.4-2-3.5-4C386.7,310.3,393.9,306.8,399.6,304.5z"/>
	</g>
</g>
</svg>
