<?xml version="1.0" encoding="utf-8"?>
<!-- Generator: Adobe Illustrator 25.0.0, SVG Export Plug-In . SVG Version: 6.00 Build 0)  -->
<svg version="1.1" id="Layer_1" xmlns="http://www.w3.org/2000/svg" xmlns:xlink="http://www.w3.org/1999/xlink" x="0px" y="0px"
	 viewBox="0 0 512 512" style="enable-background:new 0 0 512 512;" xml:space="preserve">
<style type="text/css">
	.st0{fill:#F7E017;}
	.st1{fill:#FFFFFF;}
	.st2{fill:#CF1126;}
</style>
<polygon class="st0" points="512,300.3 512,88.3 0,88.3 "/>
<polygon class="st0" points="0,211.7 0,423.7 512,423.7 "/>
<polygon points="0,150 0,211.7 512,423.7 512,362 "/>
<polygon class="st1" points="0,88.9 0,150.6 512,362.6 512,300.9 "/>
<g>
	<path class="st2" d="M305.6,240.3l0-0.2c0,0-0.1-1.2-0.3-3.5c-0.1-1.1-0.3-2.5-0.7-4.1c-0.3-1.6-0.8-3.4-1.4-5.4
		c-1.3-4-3.4-8.7-6.9-13.3c-0.4-0.6-0.9-1.1-1.4-1.7c2-2.3,3.9-5,5.8-8.2c0,0-10.1,0.5-21.4-4.5c-3.7-1.9-7.8-3.5-12.2-4.6l-2.1-8.4
		c-0.5-1.8-2.1-3.1-3.9-3.1H258v-4.1h14.2l-4.1-8.1l4.1-8.1H258v-4.1H254v24.4h-2.9c-1.9,0-3.5,1.3-3.9,3.1l-2.1,8.3
		c-2.7,0.6-5.5,1.3-8.1,2.5c-2.2,0.9-4.3,2-6.3,3.2c-10.4,4-19.3,3.6-19.3,3.6c1.8,3.2,3.8,5.9,5.8,8.2c-0.4,0.5-0.9,0.9-1.2,1.4
		c-2.8,3.8-5,8-6.7,12.5c-1.6,4.4-2.5,9.9-2.8,13.9l0,3.9c0,1.2,0.1,2.4,0.2,3.7c0.2,2.5,0.7,4.9,1.2,7.3c1.3,4.8,3.1,9.4,5.6,13.6
		c5.1,8.5,12.8,15.2,21.4,19.4c4.5,2,8.7,3.5,13.7,4.2c2.7,0.5,4.4,0.5,6.3,0.7l0.4,0l0.2,0l0.6,0l0.8,0l1.7-0.1
		c1.1-0.1,2.2-0.1,3.3-0.2c8.8-1,16.8-4.4,23-8.9c6.2-4.5,10.7-10.1,13.7-15.3c3.1-5.3,4.7-10.4,5.7-14.6c0.5-2.1,0.8-4,1-5.8
		c0.2-1.8,0.3-3.2,0.3-4.2C305.6,241.4,305.6,240.3,305.6,240.3z M231.8,268.9c-2.8-2.2-5.4-4.8-7.7-7.7c-2.2-3-4-6.3-5.4-9.8
		c-1.3-3.5-2.1-7.6-2.4-11.1c-0.1-4.7,0.1-7.9,1-12c1-3.8,2.4-7.6,4.4-11c0.1-0.2,0.3-0.4,0.4-0.6c9.2,7.2,19,6.7,25.8,3.2v7.9
		c2.2,0,4.1,4.5,4.1,10.1s-1.8,10.1-4.1,10.1v4.1c7.6,10.1,4.1,18.7-0.6,23.7c-2.1-0.5-4.3-1.1-6.4-1.9
		C237.7,272.8,234.7,271,231.8,268.9z M295.7,239.9c0,0.1-0.1,1.1-0.3,3.1c-0.1,1.1-0.3,2.2-0.6,3.3c-0.2,1.2-0.6,2.6-1.2,4.2
		c-1.1,3.2-2.8,6.9-5.6,10.5c-2.8,3.6-6.6,7.2-11.3,10c-3.6,2.1-7.8,3.6-12.3,4.6c-4.5-5-7.7-13.4-0.3-23.4v-4.1
		c-2.2,0-4.1-4.5-4.1-10.1s1.8-10.1,4.1-10.1V220c6.8,3.5,16.6,4,25.8-3.2c0.2,0.3,0.4,0.5,0.5,0.8c2.5,4.3,3.7,8.4,4.4,11.8
		c0.4,1.7,0.6,3.2,0.7,4.6c0.1,1.3,0.2,2.5,0.2,3.4C295.7,238.8,295.7,239.6,295.7,239.9z"/>
	<path class="st2" d="M256,301c-15,0-28.6-5.8-38.7-15.3c-1.9-1.7-4.8-1.5-6.5,0.4l-15.5,18.1c-1.7,1.9-0.3,4.9,2.3,4.9h9.8l13,6.5
		c1.8,0.9,4.1,0.3,5.2-1.4l4.2-6.3c8.1,3.3,17,5.2,26.3,5.2c9.3,0,18.2-1.9,26.3-5.2l4.2,6.3c1.1,1.7,3.4,2.3,5.2,1.4l13-6.5h9.8
		c2.5,0,3.9-3,2.3-4.9L301.2,286c-1.7-1.9-4.6-2.1-6.5-0.4C284.6,295.1,271,301,256,301z"/>
	<path class="st2" d="M199.2,284.7h-20.3l4.1-36.5c0,0-14.2-7.1-12.7-28c0.2-2.5,2.3-4.5,4.9-4.5h3.5c2.4,0,4.4,1.7,4.8,4.1
		c0.9,5.1,3.5,13.4,11.8,16.2L199.2,284.7z"/>
	<path class="st2" d="M312.8,284.7h20.3l-4.1-36.5c0,0,14.2-7.1,12.7-28c-0.2-2.5-2.3-4.5-4.9-4.5h-3.5c-2.4,0-4.4,1.7-4.8,4.1
		c-0.9,5.1-3.5,13.4-11.8,16.2L312.8,284.7z"/>
</g>
<g>
	<path class="st0" d="M201.2,288.8h-24.4c-1.1,0-2-0.9-2-2l0,0c0-1.1,0.9-2,2-2h24.4c1.1,0,2,0.9,2,2l0,0
		C203.2,287.9,202.3,288.8,201.2,288.8z"/>
	<path class="st0" d="M335.1,288.8h-24.4c-1.1,0-2-0.9-2-2l0,0c0-1.1,0.9-2,2-2h24.4c1.1,0,2,0.9,2,2l0,0
		C337.2,287.9,336.3,288.8,335.1,288.8z"/>
</g>
</svg>
