<?xml version="1.0" encoding="utf-8"?>
<!-- Generator: Adobe Illustrator 25.0.0, SVG Export Plug-In . SVG Version: 6.00 Build 0)  -->
<svg version="1.1" id="Layer_1" xmlns="http://www.w3.org/2000/svg" xmlns:xlink="http://www.w3.org/1999/xlink" x="0px" y="0px"
	 viewBox="0 0 512 512" style="enable-background:new 0 0 512 512;" xml:space="preserve">
<style type="text/css">
	.st0{fill:#D52B1E;}
	.st1{fill:#FFE000;}
	.st2{fill:#007934;}
	.st3{fill:#FFFFFF;}
	.st4{fill:#FFBE5A;}
	.st5{fill:#3CC8FF;}
	.st6{fill:#452C25;}
</style>
<rect y="88.3" class="st0" width="512" height="112"/>
<rect y="200.4" class="st1" width="512" height="112"/>
<rect y="312.4" class="st2" width="512" height="112"/>
<path class="st2" d="M244.6,206c0,0-0.2,0.3-0.7,0.8c-0.4,0.5-0.9,1.2-1.5,2.3c-1.1,2-2.3,5.1-2.4,8.8c0,1.8,0.4,4,1,5.7
	c0.7,1.9,1.8,3.8,3.2,5.4c1.4,1.7,3.3,2.9,5.3,3.9c1,0.5,2.1,0.8,3.2,1.1c0.5,0.2,1.1,0.2,1.7,0.3c0.3,0.1,0.6,0,0.8,0.1l0.4,0
	l0.2,0l0.1,0l0.1,0l0,0c-0.1,0,0.2,0-0.2,0c0.7,0,1.5,0,2.1-0.1c0.5-0.1,0.9-0.1,1.5-0.3c1.1-0.3,2.2-0.6,3.2-1.1
	c2-0.9,3.9-2.2,5.3-3.9c1.4-1.6,2.5-3.5,3.2-5.4c0.6-2,1-3.8,1-5.7c0-3.7-1.2-6.8-2.4-8.8c-0.6-1-1.1-1.8-1.5-2.3
	c-0.4-0.5-0.6-0.8-0.6-0.8l-0.1-0.1c-0.4-0.5-0.3-1.2,0.2-1.6c0.4-0.3,0.9-0.3,1.3-0.1c0,0,0.3,0.2,0.9,0.6c0.6,0.4,1.5,1,2.4,2
	c1.9,1.9,4.5,5.3,5.4,10.3c0.4,2.4,0.5,5.2-0.1,8.1c-0.6,2.9-1.8,5.8-3.8,8.4c-1.9,2.6-4.5,4.9-7.6,6.4c-1.5,0.8-3.2,1.4-4.9,1.8
	c-0.8,0.2-1.8,0.3-2.8,0.5c-0.9,0.1-1.5,0.1-2.2,0.1l-0.3,0l-0.1,0l-0.2,0l-0.3,0l-0.7,0c-0.4,0-0.9,0-1.3-0.1
	c-0.9-0.2-1.7-0.2-2.6-0.5c-1.7-0.4-3.4-1-4.9-1.8c-3.1-1.5-5.7-3.8-7.6-6.4c-2-2.6-3.2-5.5-3.8-8.4c-0.6-3-0.6-5.6-0.1-8.1
	c0.9-4.9,3.4-8.4,5.4-10.3c1-1,1.9-1.6,2.5-2.1c0.6-0.4,0.9-0.6,0.9-0.6c0.5-0.3,1.2-0.2,1.6,0.4C244.9,205.1,244.9,205.6,244.6,206
	z"/>
<path class="st0" d="M253.8,293.9v14c0,1.4-1.7,2.1-2.7,1.1l-0.8-0.8c-0.6-0.6-1-1.5-1-2.4v-11.9H253.8z"/>
<path class="st1" d="M247.1,291.6v10.1c0,0.6,0.2,1.2,0.7,1.6l1.5,1.5v-13.3H247.1z"/>
<path class="st2" d="M244.9,291.6v5.4c0,0.8,0.3,1.5,0.9,2.1l1.4,1.4v-8.9H244.9L244.9,291.6z"/>
<path class="st0" d="M258.2,293.9v14c0,1.4,1.7,2.1,2.7,1.1l0.8-0.8c0.6-0.6,1-1.5,1-2.4v-11.9H258.2z"/>
<path class="st1" d="M264.9,291.6v10.1c0,0.6-0.2,1.2-0.7,1.6l-1.5,1.5v-13.3H264.9z"/>
<path class="st2" d="M267.1,291.6v5.4c0,0.8-0.3,1.5-0.9,2.1l-1.4,1.4v-8.9H267.1L267.1,291.6z"/>
<path class="st0" d="M267.1,251.7l24.4-17.7v36.5c0,10.5-8.5,19-19,19l0,0c-3.6,0-7-1-10.1-2.9l-13.1-8.2v-26.9L267.1,251.7z"/>
<path class="st1" d="M282.6,240.4V266c0,10.5-8.5,19-19,19c-1.6,0-3.1-0.2-4.6-0.6l-9.7-6v-26.9l17.7,0.3L282.6,240.4z"/>
<path class="st2" d="M276,245.3v16.5c0,10.5-8.5,19-19,19c-1.6,0-3.1-0.2-4.6-0.6l-3-1.9v-26.9l17.7,0.3L276,245.3z"/>
<polygon class="st3" points="292.8,230 302.6,225.1 295.5,234 291.5,234 "/>
<path class="st0" d="M280.4,262.8l24.4-17.7v36.5c0,10.5-8.5,19-19,19l0,0c-3.6,0-7-1-10.1-2.9l-13.1-8.2v-26.9L280.4,262.8z"/>
<path class="st2" d="M289.3,256.4v16.5c0,10.5-8.5,19-19,19c-1.6,0-3.1-0.2-4.6-0.6l-3-1.9v-26.9l17.7,0.3L289.3,256.4z"/>
<polygon class="st3" points="306.1,241.1 315.9,236.2 308.8,245.1 304.8,245.1 "/>
<path class="st0" d="M273.7,258.4l24.4-17.7v36.5c0,10.5-8.5,19-19,19l0,0c-3.6,0-7-1-10.1-2.9L256,285v-26.9L273.7,258.4z"/>
<path class="st1" d="M289.3,247.1v25.6c0,10.5-8.5,19-19,19c-1.6,0-3.1-0.2-4.6-0.6l-9.7-6v-26.9l17.7,0.3L289.3,247.1z"/>
<path class="st2" d="M282.6,251.9v16.5c0,10.5-8.5,19-19,19c-1.6,0-3.1-0.2-4.6-0.6l-3-1.9v-26.9l17.7,0.3L282.6,251.9z"/>
<polygon class="st3" points="299.5,236.6 309.2,231.7 302.1,240.6 298.2,240.6 "/>
<path class="st0" d="M244.9,251.7L220.5,234v36.5c0,10.5,8.5,19,19,19l0,0c3.6,0,7-1,10.1-2.9l13.1-8.2v-26.9L244.9,251.7z"/>
<path class="st1" d="M229.4,240.4V266c0,10.5,8.5,19,19,19c1.6,0,3.1-0.2,4.6-0.6l9.7-6v-26.9l-17.7,0.3L229.4,240.4z"/>
<path class="st2" d="M236,245.3v16.5c0,10.5,8.5,19,19,19c1.6,0,3.1-0.2,4.6-0.6l3-1.9v-26.9l-17.7,0.3L236,245.3z"/>
<polygon class="st3" points="219.2,230 209.4,225.1 216.5,234 220.5,234 "/>
<path class="st0" d="M231.6,262.8l-24.4-17.7v36.5c0,10.5,8.5,19,19,19l0,0c3.6,0,7-1,10.1-2.9l13.1-8.2v-26.9L231.6,262.8z"/>
<path class="st2" d="M222.7,256.4v16.5c0,10.5,8.5,19,19,19c1.6,0,3.1-0.2,4.6-0.6l3-1.9v-26.9l-17.7,0.3L222.7,256.4z"/>
<polygon class="st3" points="205.9,241.1 196.1,236.2 203.2,245.1 207.2,245.1 "/>
<path class="st0" d="M238.3,258.4l-24.4-17.7v36.5c0,10.5,8.5,19,19,19l0,0c3.6,0,7-1,10.1-2.9L256,285v-26.9L238.3,258.4z"/>
<path class="st1" d="M222.7,247.1v25.6c0,10.5,8.5,19,19,19c1.6,0,3.1-0.2,4.6-0.6l9.7-6v-26.9l-17.7,0.3L222.7,247.1z"/>
<path class="st2" d="M229.4,251.9v16.5c0,10.5,8.5,19,19,19c1.6,0,3.1-0.2,4.6-0.6l3-1.9v-26.9l-17.7,0.3L229.4,251.9z"/>
<g>
	<path class="st4" d="M226.9,291.4l-2.9-2.9c-1.8-1.8-1.7-4.7,0.1-6.4l48.4-45.5l6.3,6.3l-45.5,48.4
		C231.6,293.1,228.7,293.1,226.9,291.4z"/>
	<circle class="st4" cx="225.5" cy="289.9" r="2.2"/>
</g>
<ellipse transform="matrix(0.7071 -0.7071 0.7071 0.7071 -88.746 265.1453)" class="st3" cx="275.7" cy="239.7" rx="2.2" ry="4.4"/>
<g>
	<path class="st4" d="M285.1,291.4l2.9-2.9c1.8-1.8,1.7-4.7-0.1-6.4l-48.4-45.5l-6.3,6.3l45.5,48.4
		C280.4,293.1,283.3,293.1,285.1,291.4z"/>
	<circle class="st4" cx="286.5" cy="289.9" r="2.2"/>
</g>
<ellipse transform="matrix(0.7071 -0.7071 0.7071 0.7071 -100.2767 237.3129)" class="st3" cx="236.3" cy="239.7" rx="4.4" ry="2.2"/>
<ellipse class="st4" cx="256" cy="266.1" rx="19.6" ry="23.3"/>
<polygon class="st0" points="256,245.1 257,249.6 259.4,245.6 259,250.2 262.5,247.2 260.7,251.4 265,249.6 261.9,253.1 
	266.5,252.7 262.6,255.1 267.1,256.2 262.6,257.2 266.5,259.6 261.9,259.2 265,262.7 260.7,260.9 262.5,265.1 259,262.1 
	259.4,266.7 257,262.7 256,267.2 255,262.7 252.6,266.7 253,262.1 249.5,265.1 251.3,260.9 247,262.7 250.1,259.2 245.5,259.6 
	249.4,257.2 244.9,256.2 249.4,255.1 245.5,252.7 250.1,253.1 247,249.6 251.3,251.4 249.5,247.2 253,250.2 252.6,245.6 255,249.6 
	"/>
<path class="st2" d="M280.5,265.7c0,0-7.3,1.9-12.1-2.1c-5.3-4.5-9.3-6.6-11-7.4c-0.6-0.3-1.2-0.3-1.8,0c-1.2,0.6-3.5,1.7-5.5,3.5
	c-2.9,2.6-11.9,7.6-13.7,7.6v11l14.1,12.2l16.6-0.5L280.5,265.7z"/>
<path class="st5" d="M256,295c-14.1,0-25.5-12.9-25.5-28.8s11.4-28.8,25.5-28.8s25.5,12.9,25.5,28.8S270.1,295,256,295z M256,243.9
	c-10.4,0-18.9,10-18.9,22.2c0,12.2,8.5,22.2,18.9,22.2c10.4,0,18.9-10,18.9-22.2C274.9,253.9,266.4,243.9,256,243.9z"/>
<g>
	<path class="st4" d="M252.2,288.9l0.5,1.5l1.5,0c0.2,0,0.3,0.3,0.1,0.4l-1.2,0.9l0.5,1.5c0.1,0.2-0.2,0.3-0.3,0.2l-1.3-0.9
		l-1.3,0.9c-0.2,0.1-0.4,0-0.3-0.2l0.5-1.5l-1.2-0.9c-0.2-0.1-0.1-0.4,0.1-0.4l1.5,0l0.5-1.5C251.8,288.8,252.1,288.8,252.2,288.9z"
		/>
	<path class="st4" d="M245.2,286l0.5,1.5l1.5,0c0.2,0,0.3,0.3,0.1,0.4l-1.2,0.9l0.5,1.5c0.1,0.2-0.2,0.3-0.3,0.2l-1.3-0.9l-1.3,0.9
		c-0.2,0.1-0.4,0-0.3-0.2l0.5-1.5l-1.2-0.9c-0.2-0.1-0.1-0.4,0.1-0.4l1.5,0l0.5-1.5C244.9,285.8,245.2,285.8,245.2,286z"/>
	<path class="st4" d="M239.7,280.9l0.5,1.5l1.5,0c0.2,0,0.3,0.3,0.1,0.4l-1.2,0.9l0.5,1.5c0.1,0.2-0.2,0.3-0.3,0.2l-1.3-0.9
		l-1.3,0.9c-0.2,0.1-0.4,0-0.3-0.2l0.5-1.5l-1.2-0.9c-0.2-0.1-0.1-0.4,0.1-0.4l1.5,0l0.5-1.5C239.3,280.7,239.6,280.7,239.7,280.9z"
		/>
	<path class="st4" d="M235.9,274.2l0.5,1.5l1.5,0c0.2,0,0.3,0.3,0.1,0.4l-1.2,0.9l0.5,1.5c0.1,0.2-0.2,0.3-0.3,0.2l-1.3-0.9
		l-1.3,0.9c-0.2,0.1-0.4,0-0.3-0.2l0.5-1.5l-1.2-0.9c-0.2-0.1-0.1-0.4,0.1-0.4l1.5,0l0.5-1.5C235.5,274,235.8,274,235.9,274.2z"/>
	<path class="st4" d="M234.2,266.3l0.5,1.5l1.5,0c0.2,0,0.3,0.3,0.1,0.4l-1.2,0.9l0.5,1.5c0.1,0.2-0.2,0.3-0.3,0.2l-1.3-0.9
		l-1.3,0.9c-0.2,0.1-0.4,0-0.3-0.2l0.5-1.5l-1.2-0.9c-0.2-0.1-0.1-0.4,0.1-0.4l1.5,0l0.5-1.5C233.9,266.1,234.1,266.1,234.2,266.3z"
		/>
	<path class="st4" d="M259.8,288.9l-0.5,1.5l-1.5,0c-0.2,0-0.3,0.3-0.1,0.4l1.2,0.9l-0.5,1.5c-0.1,0.2,0.2,0.3,0.3,0.2l1.3-0.9
		l1.3,0.9c0.2,0.1,0.4,0,0.3-0.2l-0.5-1.5l1.2-0.9c0.2-0.1,0.1-0.4-0.1-0.4l-1.5,0l-0.5-1.5C260.1,288.8,259.9,288.8,259.8,288.9z"
		/>
	<path class="st4" d="M266.7,286l-0.5,1.5l-1.5,0c-0.2,0-0.3,0.3-0.1,0.4l1.2,0.9l-0.5,1.5c-0.1,0.2,0.2,0.3,0.3,0.2l1.3-0.9
		l1.3,0.9c0.2,0.1,0.4,0,0.3-0.2l-0.5-1.5l1.2-0.9c0.2-0.1,0.1-0.4-0.1-0.4l-1.5,0l-0.5-1.5C267.1,285.8,266.8,285.8,266.7,286z"/>
	<path class="st4" d="M272.3,280.9l-0.5,1.5l-1.5,0c-0.2,0-0.3,0.3-0.1,0.4l1.2,0.9l-0.5,1.5c-0.1,0.2,0.2,0.3,0.3,0.2l1.3-0.9
		l1.3,0.9c0.2,0.1,0.4,0,0.3-0.2l-0.5-1.5l1.2-0.9c0.2-0.1,0.1-0.4-0.1-0.4l-1.5,0l-0.5-1.5C272.6,280.7,272.4,280.7,272.3,280.9z"
		/>
	<path class="st4" d="M276.1,274.2l-0.5,1.5l-1.5,0c-0.2,0-0.3,0.3-0.1,0.4l1.2,0.9l-0.5,1.5c-0.1,0.2,0.2,0.3,0.3,0.2l1.3-0.9
		l1.3,0.9c0.2,0.1,0.4,0,0.3-0.2l-0.5-1.5l1.2-0.9c0.2-0.1,0.1-0.4-0.1-0.4l-1.5,0l-0.5-1.5C276.4,274,276.2,274,276.1,274.2z"/>
	<path class="st4" d="M277.8,266.3l-0.5,1.5l-1.5,0c-0.2,0-0.3,0.3-0.1,0.4l1.2,0.9l-0.5,1.5c-0.1,0.2,0.2,0.3,0.3,0.2l1.3-0.9
		l1.3,0.9c0.2,0.1,0.4,0,0.3-0.2l-0.5-1.5l1.2-0.9c0.2-0.1,0.1-0.4-0.1-0.4l-1.5,0l-0.5-1.5C278.1,266.1,277.9,266.1,277.8,266.3z"
		/>
</g>
<path class="st3" d="M246.4,280.4l0.7,3.5h0.3v-2.4c0,0,0.5,1.7,1.3,2.4h0.6c-0.3-0.4-0.8-1.1-0.8-1.9c0-1.1,0.9-1.2,0.9-2.4h0.7
	v4.3h0.4l0.8-3.9c0,0,0.7,2.4,1.9,3.9h0.6c-0.4-0.6-1.2-2.1-1.1-4.4c0,0,1.2-0.6,1.2-2.2V275c0-0.4,0.3-0.8,0.8-0.8h0.5
	c0,0-0.8-1.5-1.6-1.8v-1l-0.6,1c-0.6,0.1-1,0.7-1,1.3v1.4c0,0.4-0.3,0.8-0.8,0.8h-2.8c-0.8,0-2.1,0.8-2.1,1.9s0.8,1.7,0.8,1.7
	L246.4,280.4z"/>
<path class="st4" d="M258.8,276.8h-0.3c-2,0.1-3.1,1.4-3.1,1.4l2,2v3.8h2.4v-3.8l2-2C262,278.3,260.8,277,258.8,276.8z"/>
<g>
	<rect x="263.1" y="270.5" class="st3" width="0.7" height="13.6"/>
	<path class="st3" d="M263.5,270.4l-4,4.8c0,0-0.5-2.3,1.8-4.6l-5.1,0.9c0,0,1.6-2.9,5.6-2.6l-4.2-3.5c0,0,3.6-0.2,5.4,2.5
		c0,0,1-3.1,4-3.3l-2.4,3.7c0,0,2.4-1.2,5.7-0.1l-5,1.3c0,0,2.8,0.3,3.9,4.3l-4.3-2.9c0,0,1.3,1.6,0.8,4.6L263.5,270.4z"/>
	<polygon class="st3" points="212.5,236.6 202.8,231.7 209.9,240.6 213.8,240.6 	"/>
</g>
<path class="st6" d="M262.9,231l26.3-8.1l-14-5.2c-2.5-0.9-5.1-1.4-7.8-1.4h-2.6c-1.2,0-2.2,1-2.2,2.2v2.2H256h-6.7v-2.2
	c0-1.2-1-2.2-2.2-2.2h-2.6c-2.7,0-5.3,0.5-7.8,1.4l-14,5.2l26.3,8.1c1.3,0.4,1.9,1.9,1.3,3.1l-3.3,6.5h17.7l-3.3-6.5
	C261,232.9,261.6,231.4,262.9,231z"/>
<circle class="st3" cx="256" cy="222.9" r="4.4"/>
<path class="st4" d="M258.2,222.9L258.2,222.9c0,1.2-1,2.2-2.2,2.2h-8.9l3.8-3.8c0.4-0.4,1-0.6,1.6-0.6h3.5
	C257.2,220.7,258.2,221.6,258.2,222.9z"/>
</svg>
