<?xml version="1.0" encoding="utf-8"?>
<!-- Generator: Adobe Illustrator 25.0.0, SVG Export Plug-In . SVG Version: 6.00 Build 0)  -->
<svg version="1.1" id="Layer_1" xmlns="http://www.w3.org/2000/svg" xmlns:xlink="http://www.w3.org/1999/xlink" x="0px" y="0px"
	 viewBox="0 0 512 512" style="enable-background:new 0 0 512 512;" xml:space="preserve">
<style type="text/css">
	.st0{fill:#FFFFFF;}
	.st1{fill:#C8313E;}
	.st2{fill:#4AA657;}
</style>
<rect y="88.3" class="st0" width="70.6" height="336"/>
<rect x="70.6" y="88.3" class="st1" width="441.4" height="247"/>
<rect x="70.6" y="335.3" class="st2" width="441.4" height="89"/>
<path class="st1" d="M8.8,409.1H12v-8.8H8.8V409.1z M33.8,409.1h3.1v-8.8h-3.1V409.1z M58.7,409.1h3.1v-8.8h-3.1V409.1z M21.3,385.6
	h3.1v-7.3h-3.1V385.6z M46.2,385.6h3.1v-7.3h-3.1V385.6z M8.8,366.6H12v-8.8H8.8V366.6z M33.8,366.6h3.1v-8.8h-3.1V366.6z
	 M58.7,366.6h3.1v-8.8h-3.1V366.6z M15.1,378.3h3.1V371h3.1v-7.3h3.1v7.3h3.1v7.4h3.1v7.3h-3.1v7.4h-3.1v7.4h-3.1V393h-3.1v-7.4
	h-3.1V378.3z M40,378.3h3.1V371h3.1v-7.3h3.1v7.3h3.1v7.4h3.1v7.3h-3.1v7.4h-3.1v7.4h-3.1V393h-3.1v-7.4H40
	C40,385.6,40,378.3,40,378.3z M46.2,349v7.3h-3.1v7.4H40v7.3h-3.1v7.4h-3.1V371h-3.1v-7.3h-3.1v-7.4h-3.1V349h-3.1v7.3h-3.1v7.4
	h-3.1v7.3H12v7.4H8.8v7.3H12v7.4h3.1v7.4h3.1v7.3h3.1v7.3h3.1v-7.3h3.1v-7.3h3.1V393h3.1v-7.4h3.1v7.4H40v7.4h3.1v7.3h3.1v7.3h3.1
	v-7.3h3.1v-7.3h3.1V393h3.1v-7.4h3.1v-7.3h-3.1V371h-3.1v-7.3h-3.1v-7.4h-3.1V349H46.2L46.2,349z M54,341.7h1.6v-2.9h1.6v2.9h1.6
	v2.9h-1.6v3h-1.6v-3H54V341.7z M54,331.5v4.3h-1.5v4.4h-1.6v5.8h1.6v4.4H54v4.4h4.7v-4.4h1.6v-4.4h1.5v-5.8h-1.5v-4.4h-1.6v-4.3H54z
	 M12,341.7h1.6v-2.9h1.6v2.9h1.5v3h-1.5v2.9h-1.6v-2.9H12V341.7z M12,331.5v4.4h-1.6v4.4H8.8v5.9h1.6v4.4H12v4.4h4.7v-4.4h1.6v-4.4
	h1.5v-5.9h-1.5v-4.4h-1.6v-4.4H12z M29.1,341.7h1.5v-2.9h1.6v2.9h1.5v3h-1.5v2.9h-1.6v-2.9h-1.5V341.7z M36.9,341.7h1.6v-2.9H40v2.9
	h1.5v3H40v2.9h-1.6v-2.9h-1.6V341.7z M36.9,331.5v4.4h-3.1v-4.4h-4.7v4.4h-1.6v4.4H26v5.9h1.6v4.4h1.6v4.4h4.7v-4.4h3.1v4.4h4.7
	v-4.4h1.6v-4.4h1.5v-5.9h-1.5v-4.4h-1.6v-4.4H36.9z M8.8,328.5H12v-8.7H8.8V328.5z M33.8,328.5h3.1v-8.7h-3.1V328.5z M58.7,328.5
	h3.1v-8.7h-3.1V328.5z M8.8,291.9H12v-5.8H8.8V291.9z M58.7,291.9h3.1v-5.8h-3.1V291.9z M33.8,271.4h3.1v-7.3h-3.1V271.4z
	 M8.8,251.6v4.4v0.1v4.4H12v-4.4V256v-4.4H8.8z M26,251.6v4.4v0.1v4.4h3.1v-4.4V256v-4.4H26z M41.5,251.6v4.4v0.1v4.4h3.1v-4.4V256
	v-4.4H41.5z M58.7,251.6v4.4v0.1v4.4h3.1v-4.4V256v-4.4H58.7z M38.4,246.5v2.9h-1.6v2.2h-3.1v-2.2h-1.5v-2.9h-3.1v4.4h1.5v2.2h1.6
	v2.9v0.1v2.9h-1.6v2.2h-1.5v4.4h3.1v-2.9h1.5v-2.2h3.1v2.2h1.6v2.9h3.1v-4.4H40v-2.2h-1.6v-2.9V256v-2.9H40v-2.2h1.5v-4.4
	L38.4,246.5L38.4,246.5z M33.8,247.9h3.1v-7.3h-3.1V247.9z M8.8,226H12v-5.8H8.8V226z M58.7,226h3.1v-5.8h-3.1V226z M8.8,192.3H12
	v-8.8H8.8V192.3z M33.8,192.3h3.1v-8.8h-3.1V192.3z M58.7,192.3h3.1v-8.8h-3.1V192.3z M21.3,256.1v-0.2l0,0v-2.9h3.1V248h3.1v-5.9
	h4.7v-6.9h1.5v-3.4h1.6h1.6v3.3h1.6v7h4.7v2.9v3h3.1v5.1h3.1v2.9v2.9h-3.1v5.2h-3.1v2.9v2.9h-4.7v6.9h-1.6v3.3h-1.6h-1.6v-3.3h-1.5
	v-6.9h-4.7v-5.8h-3.1v-5.2h-3.1V256.1z M46.2,174.7v7.4h-3.1v7.3H40v7.4h-3.1v5.8v1.5h-3.1v-7.3h-3.1v-7.4h-3.1v-7.3h-3.1v-7.4h-3.1
	v7.4h-3.1v7.3h-3.1v7.4H12v5.8v1.5H8.8v7.4H12v7.4h3.1v7.3h3.1v7.3h3.1V226h3.1v-7.3h3.1v-7.4h-3.1v-8.8h3.1v1.5v4.4h3.1v11.7h1.6
	v7.2l-4.7,0.1v5.8h-3.1v4.4h-3.1v7.4h-3.1v-7.4h-3.1v-4.4H12v-4.4H8.8v13.2H12v5.9h3.1v5.1h3.1v2.9v0.1v2.9h-3.1v5.2H12v5.8H8.8
	v13.2H12v-4.4h3.1v-4.4h3.1V267h3.1v7.3h3.1v4.4h3.1v5.9l4.7,0.1v7.2h-1.6v11.7h-3.1v4.4v1.5h-3.1v-8.9h3.1v-7.3h-3.1v-7.3h-3.1
	v-7.4h-3.1v7.4h-3.1v7.3H12v7.3H8.8v7.4H12v1.5v5.8h3.1v7.4h3.1v7.4h3.1v7.3l0,0l0,0h3.1V330h3.1v-7.4h3.1v-7.4h3.1V308h3.1v1.5v5.8
	H40v7.4h3.1v7.4h3.1v7.3h3.1V330h3.1v-7.4h3.1v-7.4h3.1V308h3.1v-7.4h-3.1v-7.3h-3.1v-7.3h-3.1v-7.4h-3.1v7.4h-3.1v7.3h-3.1v7.3h3.1
	v7.4v1.5h-3.1V308v-4.4H40v-11.7h-0.4h-1.1v-7.3h1.1h0.8h1.1h1.6v-5.9h3.1v-4.4h3.1V267h3.1v7.3h3.1v4.4h3.1v4.4h3.1v-13.2h-3.1
	v-5.8h-3.1v-5.2h-3.1v-2.9V256v-2.9h3.1V248h3.1v-5.9h3.1v-13.2h-3.1v4.4h-3.1v4.4h-3.1v7.4h-3.1v-7.4h-3.1v-4.4h-3.1v-5.8h-1.6
	h-1.1h-0.8h-1.1v-7.3h1.1H40v-11.7h3.1V204v-1.5h3.1v1.5v7.4h-3.1v7.4h3.1v7.3h3.1v7.3h3.1V226h3.1v-7.3h3.1v-7.4h3.1V204h-3.1v-7.3
	h-3.1v-7.4h-3.1v-7.3h-3.1v-7.4L46.2,174.7L46.2,174.7z M12,167.4h1.5v-2.9h1.6v2.9h1.5v2.9h-1.5v3h-1.6v-3H12V167.4z M12,161.5
	h-1.6v4.4H8.8v5.8h1.6v4.4H12v4.4h4.7v-4.4h1.6v-4.4h1.5V166h-1.5v-4.4h-1.6v-4.3H12C12,157.2,12,161.5,12,161.5z M29.1,167.4h1.5
	v-2.9h1.6v2.9h1.5v2.9h-1.5v3h-1.6v-3h-1.5V167.4z M36.9,167.4h1.6v-2.9H40v2.9h1.5v2.9H40v3h-1.6v-3h-1.6V167.4z M29.1,161.5h-1.6
	v4.4H26v5.8h1.6v4.4h1.6v4.4h4.7v-4.4h3.1v4.4h4.7v-4.4h1.6v-4.4h1.5V166h-1.5v-4.4h-1.6v-4.3h-4.7v4.3h-3.1v-4.3h-4.7V161.5z
	 M54,167.4h1.6v-2.9h1.6v2.9h1.6v3h-1.6v2.9h-1.6v-2.9H54V167.4z M54,157.2v4.4h-1.5v4.4h-1.6v5.8h1.6v4.4H54v4.4h4.7v-4.4h1.6v-4.4
	h1.5V166h-1.5v-4.4h-1.6v-4.4H54z M8.8,154.2H12v-8.8H8.8V154.2z M33.8,154.2h3.1v-8.8h-3.1V154.2z M58.7,154.2h3.1v-8.8h-3.1V154.2
	z M21.3,133.8h3.1v-7.4h-3.1V133.8z M46.2,133.8h3.1v-7.4h-3.1V133.8z M8.8,111.8H12V103H8.8V111.8z M33.8,111.8h3.1V103h-3.1V111.8
	z M58.7,111.8h3.1V103h-3.1V111.8z M15.1,126.4h3.1v-7.3h3.1v-7.4h3.1v7.4h3.1v7.3h3.1v7.4h-3.1v7.3h-3.1v7.4h-3.1V141h-3.1v-7.3
	h-3.1V126.4z M40,126.4h3.1v-7.3h3.1v-7.4h3.1v7.4h3.1v7.3h3.1v7.4h-3.1v7.3h-3.1v7.4h-3.1V141h-3.1v-7.3H40
	C40,133.8,40,126.4,40,126.4z M46.2,97.1v7.4h-3.1v7.3H40v7.4h-3.1v7.3h-3.1v-7.3h-3.1v-7.4h-3.1v-7.3h-3.1v-7.4h-3.1v7.4h-3.1v7.3
	h-3.1v7.4H12v7.3H8.8v7.4H12v7.3h3.1v7.4h3.1v7.4h3.1v7.3h3.1v-7.3h3.1v-7.4h3.1V141h3.1v-7.3h3.1v7.3H40v7.4h3.1v7.4h3.1v7.3h3.1
	v-7.3h3.1v-7.4h3.1V141h3.1v-7.3h3.1v-7.4h-3.1v-7.3h-3.1v-7.4h-3.1v-7.3h-3.1v-7.4C49.3,97.1,46.2,97.1,46.2,97.1z"/>
</svg>
