<?xml version="1.0" encoding="utf-8"?>
<!-- Generator: Adobe Illustrator 25.0.0, SVG Export Plug-In . SVG Version: 6.00 Build 0)  -->
<svg version="1.1" id="Layer_1" xmlns="http://www.w3.org/2000/svg" xmlns:xlink="http://www.w3.org/1999/xlink" x="0px" y="0px"
	 viewBox="0 0 512 512" style="enable-background:new 0 0 512 512;" xml:space="preserve">
<style type="text/css">
	.st0{fill:#CE1126;}
	.st1{fill:#003F87;}
	.st2{fill:#FFFFFF;}
	.st3{fill:#9DD7FF;}
	.st4{fill:#965032;}
	.st5{fill:#289400;}
	.st6{fill:#BE7855;}
	.st7{fill:#FFD83C;}
	.st8{fill:#EAF3F5;}
	.st9{fill:#464655;}
	.st10{fill:#8C5A28;}
	.st11{fill:#F5F5F5;}
	.st12{fill:#FF4B55;}
	.st13{fill:#4173CD;}
</style>
<rect y="88.6" class="st0" width="512" height="35"/>
<rect y="123.6" class="st1" width="512" height="266"/>
<rect y="389.6" class="st0" width="512" height="35"/>
<circle class="st2" cx="256" cy="256" r="114.8"/>
<g>
	<path class="st3" d="M234,316.3l-17.7,3c-2.2,0.4-4.3-1.3-4.3-3.6V309h22L234,316.3L234,316.3z"/>
	<path class="st3" d="M277.9,316.3l17.7,3c2.2,0.4,4.3-1.3,4.3-3.6V309h-22L277.9,316.3L277.9,316.3L277.9,316.3z"/>
</g>
<g>
	<path class="st4" d="M252.3,197.2h-1.5c-1.8,0-3.5-1-4.3-2.7l-2.7-5.4l2.5-1.2l2.7,5.4c0.4,0.7,1.1,1.1,1.9,1.1h1.5V197.2z"/>
	
		<rect x="223.6" y="191.7" transform="matrix(0.8944 -0.4472 0.4472 0.8944 -64.2342 121.3805)" class="st4" width="2.7" height="10.1"/>
	<path class="st4" d="M261,239.5l-7.5-7.5c-1.6-1.6-2.6-3.9-2.6-6.2v-2.5c0-0.9-0.2-1.9-0.6-2.7l-1.9-3.7c-0.4-0.8-1.2-1.3-2-1.3
		h-6.5c-1.9,0-3.6-1.1-4.5-2.8l-2.6-5.3l2.5-1.2l2.6,5.3c0.4,0.8,1.2,1.3,2,1.3h6.5c1.9,0,3.6,1.1,4.5,2.8l1.9,3.7
		c0.6,1.2,0.9,2.6,0.9,3.9v2.5c0,1.6,0.6,3.1,1.8,4.2l2.8,2.8V220c0-3.5-1.2-6.9-3.4-9.6c-2.6-3.2-4-7.2-4-11.3v-10.6h2.7v10.6
		c0,3.5,1.2,6.9,3.4,9.6c2.6,3.2,4,7.2,4,11.3L261,239.5L261,239.5L261,239.5z"/>
	<path class="st4" d="M254.4,232.4h-4.1c-2.5,0-4.8-1.6-5.7-3.9l-1-2.8l2.6-1l1,2.8c0.5,1.3,1.7,2.1,3.1,2.1h4.1L254.4,232.4
		L254.4,232.4z"/>
	
		<rect x="240.1" y="201" transform="matrix(0.4035 -0.915 0.915 0.4035 -30.5842 357.9181)" class="st4" width="38.3" height="2.7"/>
	<polygon class="st4" points="272,215.6 258.7,215.6 258.7,212.8 269.2,212.8 269.2,199.5 272,199.5 	"/>
</g>
<g>
	<path class="st5" d="M246.8,228.8h-11c-3,0-5.5-2.5-5.5-5.5l0,0c0-3,2.5-5.5,5.5-5.5h11c3,0,5.5,2.5,5.5,5.5l0,0
		C252.3,226.4,249.8,228.8,246.8,228.8z"/>
	<path class="st5" d="M272.4,228.8h-11c-3,0-5.5-2.5-5.5-5.5l0,0c0-3,2.5-5.5,5.5-5.5h11c3,0,5.5,2.5,5.5,5.5l0,0
		C277.9,226.4,275.5,228.8,272.4,228.8z"/>
	<path class="st5" d="M283.4,217.8h-14.6c-3,0-5.5-2.5-5.5-5.5l0,0c0-3,2.5-5.5,5.5-5.5h14.6c3,0,5.5,2.5,5.5,5.5l0,0
		C288.9,215.4,286.4,217.8,283.4,217.8z"/>
	<path class="st5" d="M287.1,203.2h-25.6c-3,0-5.5-2.5-5.5-5.5l0,0c0-3,2.5-5.5,5.5-5.5h25.6c3,0,5.5,2.5,5.5,5.5l0,0
		C292.6,200.7,290.1,203.2,287.1,203.2z"/>
	<path class="st5" d="M272.4,188.6h-7.3c-3,0-5.5-2.5-5.5-5.5l0,0c0-3,2.5-5.5,5.5-5.5h7.3c3,0,5.5,2.5,5.5,5.5l0,0
		C277.9,186.1,275.5,188.6,272.4,188.6z"/>
	<path class="st5" d="M224.8,195.9h-3.7c-3,0-5.5-2.5-5.5-5.5l0,0c0-3,2.5-5.5,5.5-5.5h3.7c3,0,5.5,2.5,5.5,5.5l0,0
		C230.3,193.4,227.9,195.9,224.8,195.9z"/>
	<path class="st5" d="M250.5,192.2h-11c-3,0-5.5-2.5-5.5-5.5l0,0c0-3,2.5-5.5,5.5-5.5h11c3,0,5.5,2.5,5.5,5.5l0,0
		C255.9,189.8,253.5,192.2,250.5,192.2z"/>
	<path class="st5" d="M246.8,210.5h-22c-3,0-5.5-2.5-5.5-5.5l0,0c0-3,2.5-5.5,5.5-5.5h22c3,0,5.5,2.5,5.5,5.5l0,0
		C252.3,208.1,249.8,210.5,246.8,210.5z"/>
	<path class="st5" d="M310.9,287.1H201c-4,0-7.3,3.3-7.3,7.3c0,4,3.3,7.3,7.3,7.3h29.3c0,4,3.3,7.3,7.3,7.3h36.6
		c4,0,7.3-3.3,7.3-7.3h29.3c4,0,7.3-3.3,7.3-7.3C318.2,290.3,314.9,287.1,310.9,287.1z"/>
</g>
<path class="st6" d="M328.9,222.1c-0.3-0.6-1.7,0.1-2.6-0.2c-11.1-4.1-25.9-11.6-35.6-16.7l-1.9-3.1l-18.4-8.9
	c-1.2-0.6-2.6-0.1-3.2,1l-0.9,1.6c-0.7,1.2-0.2,2.8,1,3.4l17.5,9.1l5-0.4l19.2,9.9c0,0,13.1,6.7,13.8,7.2s1.1,3.2,2.4,3
	C326.1,227.8,330.1,224.4,328.9,222.1z"/>
<g>
	<path class="st7" d="M207.6,292.5c0,0,1.2,5.4,0.1,6c-1.1,0.6-7.2,0.6-7.1-0.7c0.2-1.3,1-5.9,1-5.9L207.6,292.5z"/>
	<path class="st7" d="M217.7,289.6c0,0-1,4,1,4.2c2,0.2,13.2,0.1,13.5-0.2s0.7-1.1,0.7-1.1l-10.4-2.9L217.7,289.6L217.7,289.6z"/>
</g>
<path class="st8" d="M206.4,239.2c0,0-2.7,6.5-3.7,28.9c-0.3,6,0.5,4.6-2.5,23.8l3.5,1.8c1,0.5,2.3,0.5,3.3-0.1l3.4-2.1
	c0,0-1.7-21.5,3.8-33.9c0,0,2.9,5.3,2.9,9.3c0,4-0.2,23-0.2,23s6.4,1.1,9.3,0.8c0,0-1.8-41.4-3.7-51.1L206.4,239.2z"/>
<g>
	<path class="st4" d="M206.9,236.5c0,0-1.1,0.8-0.5,2.7c0,0,8.4,3.6,16.2,0.5c0,0,0.9-1.3-0.2-2.8L206.9,236.5z"/>
	<path class="st4" d="M195.7,216.7c-4.8,1.8-12,6.2-11.5,9.7s2.9,2.7,3.7,1.8s3-3.6,3.7-4.1s11.9-6.3,11.9-6.3l29.8-15.3
		c0,0,0.2-1.5-1.5-2.7C231.7,199.8,213.5,210,195.7,216.7z"/>
</g>
<path class="st7" d="M209.7,199.4l-0.2,1.3c0,0-0.5,8.1,2.2,10.2c0,0,0.6,1.7-0.3,2.5s-10,5.4-10,5.4s-2.3,4.9-2.3,7.6
	c0,0-2.2-0.9-2-1.9c0.2-1.1,1.5-3.9,1.1-5.3s-1.9-1-1.9-1s-0.7,0.8,0.5,1.3l-0.4,1.7l-4.9,2.9l1.1,1.3c0,0,0.1,10.1,6,11.4
	c0,0,3.1,0.2,6.9-6.9c0,0,2,3.5,1.3,6.6c0,0,6.5,3.5,15.4,0.5l0.1-6.2c0,0,1.4,9.5,6.1,8.6c0,0,13-5,10.8-6.9
	c-5-4.4-11.1-0.7-11.1-0.7c-0.3-6.4-0.8-14.7-1.7-15.6c-1.4-1.5-5.6-0.7-6.4-2.6s-0.6-5.3,0.3-9.2c0.9-3.9-3.7-6.6-3.7-6.6
	L209.7,199.4z"/>
<path class="st9" d="M209.6,200.7c0,0,4.7,1.2,8.3-0.3l1.6,4h0.9c0,0,2.2-7.3-0.7-7.3c0,0,0-2.4-5.1-2.3
	C210.2,194.9,208.6,197.8,209.6,200.7z"/>
<g>
	<path class="st4" d="M304.9,292.5c0,0-1.2,5.4-0.1,6s7.2,0.6,7.1-0.7s-1-5.9-1-5.9L304.9,292.5z"/>
	<path class="st4" d="M294.8,289.6c0,0,1,4-1,4.2c-2,0.2-13.2,0.1-13.5-0.2c-0.3-0.3-0.7-1.1-0.7-1.1l10.4-2.9L294.8,289.6
		L294.8,289.6z"/>
</g>
<path class="st8" d="M306.1,239.2c0,0,2.7,6.5,3.7,28.9c0.3,6-0.5,4.6,2.5,23.8l-3.5,1.8c-1,0.5-2.3,0.5-3.3-0.1l-3.4-2.1
	c0,0,1.7-21.5-3.8-33.9c0,0-2.9,5.3-2.9,9.3c0,4,0.2,23,0.2,23s-6.4,1.1-9.3,0.8c0,0,1.8-41.4,3.7-51.1L306.1,239.2z"/>
<path class="st6" d="M305.6,236.5c0,0,1.1,0.8,0.5,2.7c0,0-8.4,3.6-16.2,0.5c0,0-0.9-1.3,0.2-2.8L305.6,236.5z"/>
<path class="st4" d="M302.8,199.4l0.2,1.3c0,0,0.5,8.1-2.2,10.2c0,0-0.6,1.7,0.3,2.5s10,5.4,10,5.4s2.3,4.9,2.3,7.6
	c0,0,2.2-0.9,2-1.9c-0.2-1.1-1.5-3.9-1.1-5.3s1.9-1,1.9-1s0.7,0.8-0.5,1.3l0.4,1.7l4.9,2.9l-1.1,1.3c0,0-0.1,10.1-6,11.4
	c0,0-3.1,0.2-6.9-6.9c0,0-2,3.5-1.3,6.6c0,0-6.5,3.5-15.4,0.5l-0.1-6.2c0,0-1.4,9.5-6.1,8.6c0,0-13-5-10.8-6.9
	c5-4.4,11.1-0.7,11.1-0.7c0.3-6.4,0.8-14.7,1.7-15.6c1.4-1.5,5.6-0.7,6.4-2.6s0.6-5.3-0.3-9.2c-0.9-3.9,3.7-6.6,3.7-6.6L302.8,199.4
	z"/>
<path class="st9" d="M302.9,200.7c0,0-4.7,1.2-8.3-0.3l-1.6,4h-0.9c0,0-2.2-7.3,0.7-7.3c0,0,0-2.4,5.1-2.3
	C302.3,194.9,303.9,197.8,302.9,200.7z"/>
<path class="st8" d="M224.5,203.7c-0.4-0.9,0.3-1.2,0.3-1.2s4.6-2.5,5.2-2.5c0.9,0.1,2,1.6,2,3c0,1.3,1.7,4.8,5.3,5.7
	c0,0-4.5,6.1-10.7,5.2C226.5,213.9,226.9,209.8,224.5,203.7z"/>
<path class="st3" d="M230.9,232.1c-1.4,0-2.5,1.2-2.5,2.6v30.3c0,7.3,3.4,33,27.5,40.3c24-7.3,27.5-33,27.5-40.3v-30.3
	c0-1.5-1.1-2.6-2.5-2.6H230.9L230.9,232.1z"/>
<path class="st7" d="M283.4,265.1v-30.3c0-1.5-1.1-2.6-2.5-2.6h-25v25.6l24.1,24.1C282.7,274.8,283.4,268.3,283.4,265.1z"/>
<path class="st8" d="M228.5,265.1v-30.3c0-1.5,1.1-2.6,2.5-2.6h25v25.6l-24.1,24.1C229.1,274.8,228.5,268.3,228.5,265.1z"/>
<polygon class="st10" points="239.7,281.1 246.1,287.8 263.8,287.8 267.5,283 263.2,284.8 248.9,284.8 "/>
<path class="st11" d="M246.6,272.4l-1,9.8l-4.4-1.7C241.2,280.5,243.2,275.8,246.6,272.4z"/>
<g>
	<rect x="255.3" y="268.6" class="st10" width="0.7" height="16.7"/>
	<rect x="261.3" y="270" class="st10" width="0.7" height="15.2"/>
	<rect x="249.3" y="270" class="st10" width="0.7" height="15.2"/>
</g>
<g>
	<path class="st11" d="M257.8,283.6h-4.4c-0.3,0-0.5-0.2-0.5-0.5v-2.4c0-0.3,0.2-0.5,0.5-0.5h4.4c0.3,0,0.5,0.2,0.5,0.5v2.4
		C258.4,283.4,258.1,283.6,257.8,283.6z"/>
	<path class="st11" d="M257.8,279h-4.4c-0.3,0-0.5-0.2-0.5-0.5V276c0-0.3,0.2-0.5,0.5-0.5h4.4c0.3,0,0.5,0.2,0.5,0.5v2.4
		C258.4,278.7,258.1,279,257.8,279z"/>
	<path class="st11" d="M257.8,274.6h-4.4c-0.3,0-0.5-0.2-0.5-0.5v-2.4c0-0.3,0.2-0.5,0.5-0.5h4.4c0.3,0,0.5,0.2,0.5,0.5v2.4
		C258.4,274.4,258.1,274.6,257.8,274.6z"/>
	<path class="st11" d="M263.5,283.6h-3.7c-0.3,0-0.5-0.2-0.5-0.5v-2.4c0-0.3,0.2-0.5,0.5-0.5h3.7c0.3,0,0.5,0.2,0.5,0.5v2.4
		C264,283.4,263.8,283.6,263.5,283.6z"/>
	<path class="st11" d="M263.5,279.3h-3.7c-0.3,0-0.5-0.2-0.5-0.5v-1.9c0-0.3,0.2-0.5,0.5-0.5h3.7c0.3,0,0.5,0.2,0.5,0.5v1.9
		C264,279.1,263.8,279.3,263.5,279.3z"/>
	<path class="st11" d="M263.5,275.1h-3.7c-0.3,0-0.5-0.2-0.5-0.5v-1.4c0-0.3,0.2-0.5,0.5-0.5h3.7c0.3,0,0.5,0.2,0.5,0.5v1.4
		C264,274.8,263.8,275.1,263.5,275.1z"/>
	<path class="st11" d="M251.4,283.6h-3.7c-0.3,0-0.5-0.2-0.5-0.5v-2.4c0-0.3,0.2-0.5,0.5-0.5h3.7c0.3,0,0.5,0.2,0.5,0.5v2.4
		C252,283.4,251.7,283.6,251.4,283.6z"/>
	<path class="st11" d="M251.4,279.3h-3.7c-0.3,0-0.5-0.2-0.5-0.5v-1.9c0-0.3,0.2-0.5,0.5-0.5h3.7c0.3,0,0.5,0.2,0.5,0.5v1.9
		C252,279.1,251.7,279.3,251.4,279.3z"/>
	<path class="st11" d="M251.4,275.1h-3.7c-0.3,0-0.5-0.2-0.5-0.5v-1.4c0-0.3,0.2-0.5,0.5-0.5h3.7c0.3,0,0.5,0.2,0.5,0.5v1.4
		C252,274.8,251.7,275.1,251.4,275.1z"/>
</g>
<g>
	<polygon class="st12" points="261.3,270 261.3,272 258.4,271 	"/>
	<polygon class="st12" points="249.3,270 249.3,272 246.4,271 	"/>
	<polygon class="st12" points="255.3,268.6 255.3,270.5 252.4,269.5 	"/>
</g>
<path class="st13" d="M277.7,287.1h-43.6c0.6,1.2,1.4,2.5,2.2,3.7h39.3C276.4,289.5,277.1,288.3,277.7,287.1z"/>
<path class="st5" d="M275.6,290.7h-39.3l0,0c1.7,2.6,3.9,5.1,6.4,7.3h26.4C271.7,295.8,273.8,293.3,275.6,290.7L275.6,290.7z"/>
<path class="st7" d="M242.7,298c3.5,3.1,7.8,5.7,13.2,7.3c5.4-1.6,9.7-4.2,13.2-7.3H242.7z"/>
<path class="st6" d="M251.2,259.9c0,0-0.3,0.1-0.6,0.1c-0.2-0.1-0.7-0.1-0.4-1c0.1-0.4,0.4-1,0.2-1.2c-0.2-0.2-0.3-0.4-0.5-0.6
	c-0.4-0.4-0.8-0.9-1.3-1.5c-1-1.1-2.1-2.3-3.4-3.5c-0.7-0.6-1.3-1.2-2-1.9c-0.7-0.6-1.4-1.3-2.2-1.9c-0.4-0.2-1-0.4-1.5-0.5
	c-0.5-0.2-0.8-0.6-1.1-0.9c-0.7-0.6-1.4-1.3-2-1.9c-1.3-1.2-2.5-2.4-3.5-3.4c-1-1-1.8-1.8-2.3-2.4c-0.5-0.6-0.5-1.5,0.1-2l1.6-1.6
	c0.6-0.5,1.5-0.6,2,0c0.6,0.6,1.4,1.4,2.4,2.4c1,1,2.1,2.3,3.3,3.6c0.6,0.7,1.2,1.4,1.8,2.1c0.3,0.4,0.7,0.7,0.8,1.2
	c0.2,0.5,0.3,1.1,0.5,1.5c0.5,0.8,1.2,1.5,1.8,2.2c0.6,0.7,1.2,1.4,1.8,2.1c1.2,1.4,2.3,2.6,3.4,3.6c0.5,0.5,1,0.9,1.4,1.3
	c0.2,0.2,0.4,0.4,0.6,0.6c0.1,0.2,0.7-0.1,1.2-0.2c0.9-0.2,0.9,0.2,0.9,0.4c0,0.3-0.1,0.6-0.1,0.6L251.2,259.9z"/>
<path class="st4" d="M233.3,262.8c-0.3,0-0.6-0.1-0.8-0.3c-0.6-0.5-0.7-1.3-0.3-1.9l13-17.7c0.4-0.6,1.3-0.7,1.9-0.3
	c0.6,0.4,0.7,1.3,0.3,1.9l-13,17.7C234.1,262.6,233.7,262.8,233.3,262.8z"/>
<polygon class="st11" points="243.7,241.8 250.5,246.2 253.4,242.2 247.1,237.1 "/>
<path class="st4" d="M261.8,240l17.4,21.5c0,0,2.4,0.1,2.1-1.8l-18-21.1L261.8,240z"/>
<path class="st8" d="M257.9,243c0,0,4.9-0.9,6.9-3.9l2.8,3.3c0,0-4.6,3.2-5,6.7C262.6,249,258.9,248,257.9,243z"/>
<g>
	<path class="st4" d="M276.7,240.8c-0.3,0-0.6-0.2-0.8-0.5c-0.5-0.9-0.6-1.8-0.3-2.5c0.5-1,1.5-1.3,1.7-1.4c0.5-0.1,1,0.2,1.1,0.6
		c0.1,0.5-0.2,1-0.6,1.1c-0.1,0-0.4,0.2-0.5,0.4c-0.1,0.2,0,0.6,0.2,1c0.2,0.4,0.1,1-0.4,1.2C277,240.8,276.8,240.8,276.7,240.8z"/>
	<path class="st4" d="M262.4,254.1c0-0.3-0.2-0.6-0.5-0.8c-0.9-0.5-1.8-0.6-2.5-0.3c-1,0.5-1.3,1.5-1.4,1.7c-0.1,0.5,0.2,1,0.6,1.1
		c0.5,0.1,1-0.2,1.1-0.6c0-0.1,0.2-0.4,0.4-0.5c0.2-0.1,0.6,0,1,0.2c0.4,0.2,1,0.1,1.2-0.4C262.4,254.4,262.4,254.2,262.4,254.1z"/>
</g>
<polygon class="st8" points="277.3,238.8 260.9,254.9 264.7,259.2 280.8,243.1 "/>
<path class="st7" d="M194.1,215.7c1.1-0.3,2.1,1.2,1.1,2.3c-1,1.1-3.9,3-4.7,2.8C188.9,220.5,187.8,217.1,194.1,215.7z"/>
<path class="st4" d="M318.3,217.2c-1-0.3-1.9,1.2-1,2.3c0.9,1.1,3.6,3,4.4,2.8C323.2,222,324.1,218.7,318.3,217.2z"/>
<path class="st9" d="M280.9,232.1c1.4,0,2.5,1.2,2.5,2.6v30.3c0,7.3-3.4,33-27.5,40.3c-24-7.3-27.5-33-27.5-40.3v-30.3
	c0-1.5,1.1-2.6,2.5-2.6H280.9 M280.9,230.3H231c-2.4,0-4.3,2-4.3,4.5v30.3c0,1.7,0.2,11,4.9,20.9c5,10.6,13.2,17.9,23.9,21.1
	l0.5,0.2l0.5-0.2c10.7-3.2,18.9-10.5,23.9-21.1c4.7-9.9,4.9-19.2,4.9-20.9v-30.3C285.2,232.3,283.3,230.3,280.9,230.3L280.9,230.3z"
	/>
<path class="st7" d="M299.9,305.8c-7.8-2.6-16.1-1.4-24,3.8c-10.1,6.7-16.7,6.7-19.9,6.7s-9.9,0-19.9-6.7c-7.9-5.2-16.2-6.5-24-3.8
	v7.8c4.9-2.3,11.8-3.3,19.9,2.1c11.9,7.9,20.4,7.9,24,7.9c3.6,0,12.1,0,24-7.9c8.1-5.4,15-4.4,19.9-2.1V305.8z"/>
<path class="st4" d="M255.9,347.5c-51.5,0-93.4-41.9-93.4-93.4s41.9-93.4,93.4-93.4s93.4,41.9,93.4,93.4S307.4,347.5,255.9,347.5z
	 M255.9,164.4c-49.5,0-89.7,40.2-89.7,89.7s40.2,89.7,89.7,89.7s89.7-40.2,89.7-89.7S305.4,164.4,255.9,164.4z"/>
<g>
	<path class="st5" d="M153.8,261.9c0,0-0.4-11.4,10.6-11.4c0,0,0.2,4.5-3.7,6.5C157.5,258.5,153.8,261.9,153.8,261.9z"/>
	<path class="st5" d="M175,261.9c0,0,0.4-11.4-10.6-11.4c0,0-0.2,4.5,3.7,6.5C171.4,258.5,175,261.9,175,261.9z"/>
	<path class="st5" d="M358,250.4c0,0,0.4,11.4-10.6,11.4c0,0-0.2-4.5,3.7-6.5C354.3,253.8,358,250.4,358,250.4z"/>
	<path class="st5" d="M336.8,250.4c0,0-0.4,11.4,10.6,11.4c0,0,0.2-4.5-3.7-6.5C340.4,253.8,336.8,250.4,336.8,250.4z"/>
	<path class="st5" d="M261.6,358.3c0,0-11.4,0.4-11.4-10.6c0,0,4.5-0.2,6.5,3.7C258.3,354.6,261.6,358.3,261.6,358.3z"/>
	<path class="st5" d="M261.6,337c0,0-11.4-0.4-11.4,10.6c0,0,4.5,0.2,6.5-3.7C258.3,340.7,261.6,337,261.6,337z"/>
	<path class="st5" d="M250.2,154.1c0,0,11.4-0.4,11.4,10.6c0,0-4.5,0.2-6.5-3.7C253.5,157.7,250.2,154.1,250.2,154.1z"/>
	<path class="st5" d="M250.2,175.3c0,0,11.4,0.4,11.4-10.6c0,0-4.5-0.2-6.5,3.7C253.5,171.6,250.2,175.3,250.2,175.3z"/>
	<path class="st5" d="M187.8,332.4c0,0-8.4-7.8-0.6-15.6c0,0,3.3,3,1.9,7.2C188,327.4,187.8,332.4,187.8,332.4z"/>
	<path class="st5" d="M202.8,317.4c0,0-7.8-8.4-15.6-0.6c0,0,3,3.3,7.2,1.9C197.8,317.6,202.8,317.4,202.8,317.4z"/>
	<path class="st5" d="M324.1,179.9c0,0,8.4,7.8,0.6,15.6c0,0-3.3-3-1.9-7.2C323.8,184.9,324.1,179.9,324.1,179.9z"/>
	<path class="st5" d="M309.1,194.9c0,0,7.8,8.4,15.6,0.6c0,0-3-3.3-7.2-1.9C314,194.7,309.1,194.9,309.1,194.9z"/>
	<path class="st5" d="M332.1,324.3c0,0-7.8,8.4-15.6,0.6c0,0,3-3.3,7.2-1.9C327.2,324.1,332.1,324.3,332.1,324.3z"/>
	<path class="st5" d="M317.1,309.3c0,0-8.4,7.8-0.6,15.6c0,0,3.3-3,1.9-7.2C317.4,314.3,317.1,309.3,317.1,309.3z"/>
	<path class="st5" d="M179.7,188c0,0,7.8-8.4,15.6-0.6c0,0-3,3.3-7.2,1.9C184.6,188.2,179.7,188,179.7,188z"/>
	<path class="st5" d="M194.7,203c0,0,8.4-7.8,0.6-15.6c0,0-3.3,3-1.9,7.2C194.5,198.1,194.7,203,194.7,203z"/>
	<path class="st5" d="M163.8,300.5c0,0-4.7-10.4,5.4-14.6c0,0,1.9,4.1-1,7.4C165.9,296,163.8,300.5,163.8,300.5z"/>
	<path class="st5" d="M183.4,292.4c0,0-4-10.7-14.2-6.5c0,0,1.5,4.2,5.9,4.6C178.7,290.7,183.4,292.4,183.4,292.4z"/>
	<path class="st5" d="M348,211.8c0,0,4.7,10.4-5.4,14.6c0,0-1.9-4.1,1-7.4C345.9,216.3,348,211.8,348,211.8z"/>
	<path class="st5" d="M328.4,219.9c0,0,4,10.7,14.2,6.5c0,0-1.5-4.2-5.9-4.6C333.1,221.6,328.4,219.9,328.4,219.9z"/>
	<path class="st5" d="M300.3,348.3c0,0-10.4,4.7-14.6-5.4c0,0,4.1-1.9,7.4,1C295.8,346.2,300.3,348.3,300.3,348.3z"/>
	<path class="st5" d="M292.1,328.7c0,0-10.7,4-6.5,14.2c0,0,4.2-1.5,4.6-5.9C290.4,333.4,292.1,328.7,292.1,328.7z"/>
	<path class="st5" d="M211.6,164c0,0,10.4-4.7,14.6,5.4c0,0-4.1,1.9-7.4-1C216.1,166.1,211.6,164,211.6,164z"/>
	<path class="st5" d="M219.7,183.6c0,0,10.7-4,6.5-14.2c0,0-4.2,1.5-4.6,5.9C221.4,179,219.7,183.6,219.7,183.6z"/>
	<path class="st5" d="M222.1,352.7c0,0-10.7-4-6.5-14.2c0,0,4.2,1.5,4.6,5.9C220.4,348,222.1,352.7,222.1,352.7z"/>
	<path class="st5" d="M230.2,333.1c0,0-10.4-4.7-14.6,5.4c0,0,4.1,1.9,7.4-1C225.7,335.2,230.2,333.1,230.2,333.1z"/>
	<path class="st5" d="M289.7,159.7c0,0,10.7,4,6.5,14.2c0,0-4.2-1.5-4.6-5.9C291.4,164.3,289.7,159.7,289.7,159.7z"/>
	<path class="st5" d="M281.6,179.2c0,0,10.4,4.7,14.6-5.4c0,0-4.1-1.9-7.4,1C286.1,177.2,281.6,179.2,281.6,179.2z"/>
	<path class="st5" d="M352.4,289.9c0,0-4,10.7-14.2,6.5c0,0,1.5-4.2,5.9-4.6C347.8,291.6,352.4,289.9,352.4,289.9z"/>
	<path class="st5" d="M332.8,281.8c0,0-4.7,10.4,5.4,14.6c0,0,1.9-4.1-1-7.4C334.9,286.3,332.8,281.8,332.8,281.8z"/>
	<path class="st5" d="M159.4,222.4c0,0,4-10.7,14.2-6.5c0,0-1.5,4.2-5.9,4.6C164.1,220.7,159.4,222.4,159.4,222.4z"/>
	<path class="st5" d="M179,230.5c0,0,4.7-10.4-5.4-14.6c0,0-1.9,4.1,1,7.4C176.9,226,179,230.5,179,230.5z"/>
	<path class="st5" d="M156.9,281.7c0,0-2.6-11.1,8.2-13.3c0,0,1.1,4.4-2.4,7.1C159.8,277.7,156.9,281.7,156.9,281.7z"/>
	<path class="st5" d="M177.7,277.6c0,0-1.9-11.3-12.6-9.2c0,0,0.7,4.5,4.9,5.6C173.5,275,177.7,277.6,177.7,277.6z"/>
	<path class="st5" d="M354.9,230.6c0,0,2.6,11.1-8.2,13.3c0,0-1.1-4.4,2.4-7.1C352,234.6,354.9,230.6,354.9,230.6z"/>
	<path class="st5" d="M334.1,234.8c0,0,1.9,11.3,12.6,9.2c0,0-0.7-4.5-4.9-5.6C338.4,237.4,334.1,234.8,334.1,234.8z"/>
	<path class="st5" d="M281.4,355.2c0,0-11.1,2.6-13.3-8.2c0,0,4.4-1.1,7.1,2.4C277.4,352.2,281.4,355.2,281.4,355.2z"/>
	<path class="st5" d="M277.3,334.4c0,0-11.3,1.9-9.2,12.6c0,0,4.5-0.7,5.6-4.9C274.7,338.6,277.3,334.4,277.3,334.4z"/>
	<path class="st5" d="M230.4,157.2c0,0,11.1-2.6,13.3,8.2c0,0-4.4,1.1-7.1-2.4C234.4,160.1,230.4,157.2,230.4,157.2z"/>
	<path class="st5" d="M234.5,178c0,0,11.3-1.9,9.2-12.6c0,0-4.5,0.7-5.6,4.9C237.1,173.7,234.5,178,234.5,178z"/>
	<path class="st5" d="M203.9,344.2c0,0-9.7-6-3.6-15.2c0,0,3.9,2.3,3.3,6.7C203.2,339.3,203.9,344.2,203.9,344.2z"/>
	<path class="st5" d="M215.7,326.6c0,0-9.3-6.7-15.4,2.5c0,0,3.6,2.7,7.5,0.5C210.9,327.8,215.7,326.6,215.7,326.6z"/>
	<path class="st5" d="M307.9,168.1c0,0,9.7,6,3.6,15.2c0,0-3.9-2.3-3.3-6.7C308.6,173,307.9,168.1,307.9,168.1z"/>
	<path class="st5" d="M296.1,185.7c0,0,9.3,6.7,15.4-2.5c0,0-3.6-2.7-7.5-0.5C300.9,184.6,296.1,185.7,296.1,185.7z"/>
	<path class="st5" d="M344,308.1c0,0-6,9.7-15.2,3.6c0,0,2.3-3.9,6.7-3.3C339.1,308.9,344,308.1,344,308.1z"/>
	<path class="st5" d="M326.3,296.3c0,0-6.7,9.3,2.5,15.4c0,0,2.7-3.6,0.5-7.5C327.5,301.2,326.3,296.3,326.3,296.3z"/>
	<path class="st5" d="M167.8,204.2c0,0,6-9.7,15.2-3.6c0,0-2.3,3.9-6.7,3.3C172.7,203.4,167.8,204.2,167.8,204.2z"/>
	<path class="st5" d="M185.5,216c0,0,6.7-9.3-2.5-15.4c0,0-2.7,3.6-0.5,7.5C184.3,211.2,185.5,216,185.5,216z"/>
	<path class="st5" d="M174.2,317.6c0,0-6.7-9.3,2.5-15.4c0,0,2.7,3.6,0.5,7.5C175.4,312.8,174.2,317.6,174.2,317.6z"/>
	<path class="st5" d="M191.8,305.9c0,0-6-9.7-15.2-3.6c0,0,2.3,3.9,6.7,3.3C186.9,305.1,191.8,305.9,191.8,305.9z"/>
	<path class="st5" d="M337.6,194.7c0,0,6.7,9.3-2.5,15.4c0,0-2.7-3.6-0.5-7.5C336.4,199.5,337.6,194.7,337.6,194.7z"/>
	<path class="st5" d="M320,206.5c0,0,6,9.7,15.2,3.6c0,0-2.3-3.9-6.7-3.3C324.9,207.2,320,206.5,320,206.5z"/>
	<path class="st5" d="M317.4,337.9c0,0-9.3,6.7-15.4-2.5c0,0,3.6-2.7,7.5-0.5C312.6,336.7,317.4,337.9,317.4,337.9z"/>
	<path class="st5" d="M305.6,320.2c0,0-9.7,6-3.6,15.2c0,0,3.9-2.3,3.3-6.7C304.8,325.1,305.6,320.2,305.6,320.2z"/>
	<path class="st5" d="M194.4,174.5c0,0,9.3-6.7,15.4,2.5c0,0-3.6,2.7-7.5,0.5C199.3,175.6,194.4,174.5,194.4,174.5z"/>
	<path class="st5" d="M206.2,192.1c0,0,9.7-6,3.6-15.2c0,0-3.9,2.3-3.3,6.7C207,187.2,206.2,192.1,206.2,192.1z"/>
	<path class="st5" d="M241.6,357.4c0,0-11.3-1.9-9.2-12.6c0,0,4.5,0.7,5.6,4.9C239,353.2,241.6,357.4,241.6,357.4z"/>
	<path class="st5" d="M245.7,336.6c0,0-11.1-2.6-13.3,8.2c0,0,4.4,1.1,7.1-2.4C241.7,339.5,245.7,336.6,245.7,336.6z"/>
	<path class="st5" d="M270.2,154.9c0,0,11.3,1.9,9.2,12.6c0,0-4.5-0.7-5.6-4.9C272.8,159.2,270.2,154.9,270.2,154.9z"/>
	<path class="st5" d="M266.1,175.7c0,0,11.1,2.6,13.3-8.2c0,0-4.4-1.1-7.1,2.4C270.1,172.8,266.1,175.7,266.1,175.7z"/>
	<path class="st5" d="M357.2,270.5c0,0-1.9,11.3-12.6,9.2c0,0,0.7-4.5,4.9-5.6C352.9,273,357.2,270.5,357.2,270.5z"/>
	<path class="st5" d="M336.4,266.3c0,0-2.6,11.1,8.2,13.3c0,0,1.1-4.4-2.4-7.1C339.3,270.3,336.4,266.3,336.4,266.3z"/>
	<path class="st5" d="M154.7,241.9c0,0,1.9-11.3,12.6-9.2c0,0-0.7,4.5-4.9,5.6C158.9,239.3,154.7,241.9,154.7,241.9z"/>
	<path class="st5" d="M175.5,246c0,0,2.6-11.1-8.2-13.3c0,0-1.1,4.4,2.4,7.1C172.5,242,175.5,246,175.5,246z"/>
</g>
</svg>
