<?xml version="1.0" encoding="utf-8"?>
<!-- Generator: Adobe Illustrator 25.0.0, SVG Export Plug-In . SVG Version: 6.00 Build 0)  -->
<svg version="1.1" id="Layer_1" xmlns="http://www.w3.org/2000/svg" xmlns:xlink="http://www.w3.org/1999/xlink" x="0px" y="0px"
	 viewBox="0 0 512 512" style="enable-background:new 0 0 512 512;" xml:space="preserve">
<style type="text/css">
	.st0{fill:#003082;}
	.st1{fill:#FFFFFF;}
	.st2{fill:#FFCE00;}
	.st3{fill:#289728;}
	.st4{fill:#D21034;}
</style>
<rect x="0" y="88.2" class="st0" width="512" height="84"/>
<rect x="0" y="172.1" class="st1" width="512" height="84"/>
<rect x="0" y="339.8" class="st2" width="512" height="84"/>
<rect x="0" y="255.9" class="st3" width="512" height="84"/>
<rect x="214.1" y="88.3" class="st4" width="83.9" height="335.5"/>
<path class="st2" d="M76.5,99.6l7.4,22.1l23.3,0.2c1.8,0,2.6,2.3,1.1,3.4l-18.7,13.8l7,22.2c0.5,1.7-1.4,3.1-2.9,2.1l-18.9-13.5
	l-18.9,13.5c-1.5,1-3.4-0.4-2.9-2.1l7-22.2l-18.7-13.8c-1.5-1.1-0.7-3.4,1.1-3.4l23.3-0.2l7.4-22.1C73.5,97.9,75.9,97.9,76.5,99.6z"
	/>
</svg>
