<?xml version="1.0" encoding="utf-8"?>
<!-- Generator: Adobe Illustrator 25.0.0, SVG Export Plug-In . SVG Version: 6.00 Build 0)  -->
<svg version="1.1" id="Layer_1" xmlns="http://www.w3.org/2000/svg" xmlns:xlink="http://www.w3.org/1999/xlink" x="0px" y="0px"
	 viewBox="0 0 512 512" style="enable-background:new 0 0 512 512;" xml:space="preserve">
<style type="text/css">
	.st0{fill:#FF0000;}
	.st1{fill:#FFFFFF;}
</style>
<rect y="88" class="st0" width="336" height="336"/>
<path class="st1" d="M265.1,220.7h-61.8v-61.8c0-4.9-4-8.8-8.8-8.8h-53c-4.9,0-8.8,4-8.8,8.8v61.8H70.9c-4.9,0-8.8,4-8.8,8.8v53
	c0,4.9,4,8.8,8.8,8.8h61.8v61.8c0,4.9,4,8.8,8.8,8.8h53c4.9,0,8.8-4,8.8-8.8v-61.8h61.8c4.9,0,8.8-4,8.8-8.8v-53
	C273.9,224.6,270,220.7,265.1,220.7z"/>
<rect x="336" y="88" class="st1" width="176" height="336"/>
</svg>
