<?xml version="1.0" encoding="utf-8"?>
<!-- Generator: Adobe Illustrator 25.0.0, SVG Export Plug-In . SVG Version: 6.00 Build 0)  -->
<svg version="1.1" id="Layer_1" xmlns="http://www.w3.org/2000/svg" xmlns:xlink="http://www.w3.org/1999/xlink" x="0px" y="0px"
	 viewBox="0 0 512 512" style="enable-background:new 0 0 512 512;" xml:space="preserve">
<style type="text/css">
	.st0{fill:#012169;}
	.st1{fill:#FFFFFF;}
	.st2{fill:#C8102E;}
</style>
<polygon class="st0" points="256.1,88 256.1,256.2 0,256.2 0,424 512,424 512,88 "/>
<g id="Union_flag">
	<rect y="88" class="st0" width="256.1" height="168.2"/>
	<g>
		<polygon class="st1" points="106,150.1 106,142.2 22.7,88 0,88 0,105 69.3,150.1 		"/>
		<polygon class="st1" points="106,194.1 70.8,194.1 0,240.1 0,256.2 24.2,256.2 106,202.9 		"/>
		<polygon class="st1" points="233.9,88 150,142.5 150,150.1 187.3,150.1 256.1,105.3 256.1,88 		"/>
		<polygon class="st1" points="150,194.1 150,202.6 232.5,256.2 256.1,256.2 256.1,239.8 185.9,194.1 		"/>
	</g>
	<polygon class="st1" points="256.1,150.1 150,150.1 150,88 106,88 106,150.1 0,150.1 0,194.1 106,194.1 106,256.2 150,256.2 
		150,194.1 256.1,194.1 	"/>
	<polygon class="st2" points="256.1,158.8 141.3,158.8 141.3,88 114.8,88 114.8,158.8 0,158.8 0,185.3 114.8,185.3 114.8,256.2 
		141.3,256.2 141.3,185.3 256.1,185.3 	"/>
	<polygon class="st2" points="97.2,150.1 1.7,88 0,88 0,97.6 80.7,150.1 	"/>
	<polygon class="st2" points="106,194.1 89.6,194.1 0,252.4 0,256.2 10.6,256.2 	"/>
	<polygon class="st2" points="157.3,194.1 252.8,256.2 256.1,256.2 256.1,247.6 173.8,194.1 	"/>
	<polygon class="st2" points="245.4,88 150,150 150,150.1 166.4,150.1 256.1,91.8 256.1,88 	"/>
</g>
<g>
	<path class="st1" d="M377.1,150.1l3.2,9.7l10.2,0.1c0.8,0,1.1,1,0.5,1.5l-8.2,6.1l3.1,9.8c0.2,0.8-0.6,1.4-1.3,0.9l-8.3-6l-8.3,6
		c-0.6,0.5-1.5-0.2-1.3-0.9l3.1-9.8l-8.2-6.1c-0.6-0.5-0.3-1.5,0.5-1.5l10.2-0.1l3.2-9.7C375.8,149.4,376.9,149.4,377.1,150.1z"/>
	<path class="st1" d="M333.6,162.1l6.9,7.6l9.4-4.1c0.7-0.3,1.4,0.5,1,1.2l-5,8.9l6.8,7.7c0.5,0.6,0,1.5-0.8,1.4l-10-2.1l-5.2,8.8
		c-0.4,0.7-1.4,0.5-1.5-0.3l-1.1-10.2l-10-2.2c-0.8-0.2-0.9-1.2-0.2-1.6l9.3-4.2l-1-10.2C332.1,161.9,333.1,161.5,333.6,162.1z"/>
	<path class="st1" d="M298.7,190.7l9.4,4.1l6.9-7.6c0.5-0.6,1.5-0.2,1.4,0.6l-1,10.2l9.3,4.2c0.7,0.3,0.6,1.4-0.2,1.6l-10,2.2
		l-1.1,10.2c-0.1,0.8-1.1,1-1.5,0.3l-5.2-8.8l-10,2.1c-0.8,0.2-1.3-0.8-0.8-1.4l6.8-7.7l-5-8.9C297.3,191.1,298,190.3,298.7,190.7z"
		/>
	<path class="st1" d="M278.5,231l10.2-0.1l3.2-9.7c0.2-0.8,1.3-0.8,1.6,0l3.2,9.7L307,231c0.8,0,1.1,1,0.5,1.5l-8.2,6.1l3.1,9.8
		c0.2,0.8-0.6,1.4-1.3,0.9l-8.3-6l-8.3,6c-0.6,0.5-1.5-0.2-1.3-0.9l3.1-9.8l-8.2-6.1C277.4,232,277.7,231,278.5,231z"/>
	<path class="st1" d="M276.4,276.1l9.3-4.2l-1-10.2c-0.1-0.8,0.9-1.2,1.4-0.6l6.9,7.6l9.4-4.1c0.7-0.3,1.4,0.5,1,1.2l-5,8.9l6.8,7.7
		c0.5,0.6,0,1.5-0.8,1.4l-10-2l-5.2,8.8c-0.4,0.7-1.4,0.5-1.5-0.3l-1.1-10.2l-10-2.2C275.8,277.4,275.7,276.4,276.4,276.1z"/>
	<path class="st1" d="M292.8,318.1l6.8-7.7l-5-8.9c-0.4-0.7,0.3-1.5,1-1.2l9.4,4.1l6.9-7.6c0.5-0.6,1.5-0.2,1.4,0.6l-1,10.2l9.3,4.2
		c0.7,0.3,0.6,1.4-0.2,1.6l-10,2.2l-1.1,10.2c-0.1,0.8-1.1,1-1.5,0.3l-5.2-8.8l-10,2C292.8,319.6,292.3,318.7,292.8,318.1z"/>
	<path class="st1" d="M324.9,349.8l3.1-9.8l-8.2-6.1c-0.6-0.5-0.3-1.5,0.5-1.5l10.2-0.1l3.2-9.7c0.2-0.8,1.3-0.8,1.6,0l3.2,9.7
		l10.2,0.1c0.8,0,1.1,1,0.5,1.5L341,340l3.1,9.8c0.2,0.8-0.6,1.4-1.3,0.9l-8.3-6l-8.3,6C325.5,351.2,324.7,350.6,324.9,349.8z"/>
	<path class="st1" d="M367.1,365.7l-1.1-10.2l-10-2.2c-0.8-0.2-0.9-1.2-0.2-1.6l9.3-4.2l-1-10.2c-0.1-0.8,0.9-1.2,1.4-0.6l6.9,7.6
		l9.4-4.1c0.7-0.3,1.4,0.5,1,1.2l-5,8.9l6.8,7.7c0.5,0.6,0,1.5-0.8,1.4l-10-2l-5.2,8.8C368.3,366.7,367.2,366.5,367.1,365.7z"/>
	<path class="st1" d="M412.2,363.1l-5.2-8.8l-10,2c-0.8,0.2-1.3-0.8-0.8-1.4l6.8-7.7l-5-8.9c-0.4-0.7,0.3-1.5,1-1.2l9.4,4.1l6.9-7.6
		c0.5-0.6,1.5-0.2,1.4,0.6l-1,10.2l9.3,4.2c0.7,0.3,0.6,1.4-0.2,1.6l-10,2.2l-1.1,10.2C413.6,363.5,412.6,363.8,412.2,363.1z"/>
	<path class="st1" d="M452.3,342.4l-8.3-6l-8.3,6c-0.6,0.5-1.5-0.2-1.3-0.9l3.1-9.8l-8.2-6.1c-0.6-0.5-0.3-1.5,0.5-1.5l10.2-0.1
		l3.2-9.7c0.2-0.8,1.3-0.8,1.6,0l3.2,9.7l10.2,0.1c0.8,0,1.1,1,0.5,1.5l-8.2,6.1l3.1,9.8C453.8,342.2,452.9,342.8,452.3,342.4z"/>
	<path class="st1" d="M480.4,307.1l-10-2l-5.2,8.8c-0.4,0.7-1.4,0.5-1.5-0.3l-1.1-10.2l-10-2.2c-0.8-0.2-0.9-1.2-0.2-1.6l9.3-4.2
		l-1-10.2c-0.1-0.8,0.9-1.2,1.4-0.6l6.9,7.6l9.4-4.1c0.7-0.3,1.4,0.5,1,1.2l-5,8.9l6.8,7.7C481.7,306.4,481.2,307.3,480.4,307.1z"/>
	<path class="st1" d="M491.9,263.5l-10,2.2l-1.1,10.2c-0.1,0.8-1.1,1-1.5,0.3l-5.2-8.8l-10,2c-0.8,0.2-1.3-0.8-0.8-1.4l6.8-7.7
		l-5-8.9c-0.4-0.7,0.3-1.5,1-1.2l9.4,4.1l6.9-7.6c0.5-0.6,1.5-0.2,1.4,0.6l-1,10.2l9.3,4.2C492.7,262.2,492.6,263.3,491.9,263.5z"/>
	<path class="st1" d="M484.5,218.9l-8.2,6.1l3.1,9.8c0.2,0.8-0.6,1.4-1.3,0.9l-8.3-6l-8.3,6c-0.6,0.5-1.5-0.2-1.3-0.9l3.1-9.8
		l-8.2-6.1c-0.6-0.5-0.3-1.5,0.5-1.5l10.2-0.1l3.2-9.7c0.2-0.8,1.3-0.8,1.6,0l3.2,9.7l10.2,0.1C484.8,217.5,485.2,218.5,484.5,218.9
		z"/>
	<path class="st1" d="M459.7,181.2l-5,8.9l6.8,7.7c0.5,0.6,0,1.5-0.8,1.4l-10-2.1l-5.2,8.8c-0.4,0.7-1.4,0.5-1.5-0.3l-1.1-10.2
		l-10-2.2c-0.8-0.2-0.9-1.2-0.2-1.6l9.3-4.2l-1-10.2c-0.1-0.8,0.9-1.2,1.4-0.6l6.9,7.6l9.4-4.1C459.4,179.8,460.1,180.6,459.7,181.2
		z"/>
	<path class="st1" d="M421.7,156.9l-1,10.2l9.3,4.2c0.7,0.3,0.6,1.4-0.2,1.6l-10,2.2l-1.1,10.2c-0.1,0.8-1.1,1-1.5,0.3l-5.2-8.8
		l-10,2.1c-0.8,0.2-1.3-0.8-0.8-1.4l6.8-7.7l-5-8.9c-0.4-0.7,0.3-1.5,1-1.2l9.4,4.1l6.9-7.6C420.8,155.7,421.8,156.1,421.7,156.9z"
		/>
	<path class="st1" d="M377.1,150.1l3.2,9.7l10.2,0.1c0.8,0,1.1,1,0.5,1.5l-8.2,6.1l3.1,9.8c0.2,0.8-0.6,1.4-1.3,0.9l-8.3-6l-8.3,6
		c-0.6,0.5-1.5-0.2-1.3-0.9l3.1-9.8l-8.2-6.1c-0.6-0.5-0.3-1.5,0.5-1.5l10.2-0.1l3.2-9.7C375.8,149.4,376.9,149.4,377.1,150.1z"/>
</g>
</svg>
