<?xml version="1.0" encoding="utf-8"?>
<!-- Generator: Adobe Illustrator 25.0.0, SVG Export Plug-In . SVG Version: 6.00 Build 0)  -->
<svg version="1.1" id="Layer_1" xmlns="http://www.w3.org/2000/svg" xmlns:xlink="http://www.w3.org/1999/xlink" x="0px" y="0px"
	 viewBox="0 0 512 512" style="enable-background:new 0 0 512 512;" xml:space="preserve">
<style type="text/css">
	.st0{fill:#FFFFFF;}
	.st1{fill:#0039A6;}
	.st2{fill:#D52B1E;}
</style>
<rect x="0" y="88.3" class="st0" width="512" height="168"/>
<rect x="0" y="88.3" class="st1" width="168" height="168"/>
<path class="st0" d="M87.3,134.5l8.4,25.2l26.6,0.2c3.4,0,4.9,4.4,2.1,6.5L103,182.2l8,25.4c1,3.3-2.7,6-5.5,4l-21.6-15.5
	l-21.6,15.5c-2.8,2-6.5-0.7-5.5-4l8-25.4l-21.4-15.8c-2.8-2-1.3-6.4,2.1-6.5l26.6-0.2l8.4-25.2C81.6,131.2,86.2,131.2,87.3,134.5z"
	/>
<rect x="0" y="256.3" class="st2" width="512" height="168"/>
</svg>
