<?xml version="1.0" encoding="utf-8"?>
<!-- Generator: Adobe Illustrator 25.0.0, SVG Export Plug-In . SVG Version: 6.00 Build 0)  -->
<svg version="1.1" id="Layer_1" xmlns="http://www.w3.org/2000/svg" xmlns:xlink="http://www.w3.org/1999/xlink" x="0px" y="0px"
	 viewBox="0 0 512 512" style="enable-background:new 0 0 512 512;" xml:space="preserve">
<style type="text/css">
	.st0{fill:#007A5E;}
	.st1{fill:#CE1126;}
	.st2{fill:#FCD116;}
</style>
<rect y="88.3" class="st0" width="170.7" height="336"/>
<rect x="170.7" y="88.3" class="st1" width="170.7" height="336"/>
<rect x="341.3" y="88.3" class="st2" width="170.7" height="336"/>
<path class="st2" d="M257.8,223.6l7.6,22.7l24,0.2c1.9,0,2.6,2.4,1.1,3.5l-19.3,14.2l7.2,22.9c0.6,1.8-1.5,3.2-3,2.2L256,275.4
	l-19.5,13.9c-1.5,1.1-3.5-0.4-3-2.2l7.2-22.9l-19.3-14.2c-1.5-1.1-0.7-3.5,1.1-3.5l24-0.2l7.6-22.7
	C254.8,221.9,257.2,221.9,257.8,223.6z"/>
</svg>
