<?xml version="1.0" encoding="utf-8"?>
<!-- Generator: Adobe Illustrator 25.0.0, SVG Export Plug-In . SVG Version: 6.00 Build 0)  -->
<svg version="1.1" id="Layer_1" xmlns="http://www.w3.org/2000/svg" xmlns:xlink="http://www.w3.org/1999/xlink" x="0px" y="0px"
	 viewBox="0 0 512 512" style="enable-background:new 0 0 512 512;" xml:space="preserve">
<style type="text/css">
	.st0{fill:#CF142B;}
	.st1{fill:#FFFFFF;}
	.st2{fill:#002A8F;}
</style>
<polygon class="st0" points="0,88.3 0,424.3 260.8,256.3 "/>
<path class="st1" d="M88.5,213.4l9.1,27.2l28.6,0.2c2.2,0,3.1,2.8,1.4,4.2l-23,17l8.6,27.3c0.7,2.1-1.7,3.9-3.5,2.6l-23.3-16.7
	L63,291.9c-1.8,1.3-4.2-0.5-3.5-2.6l8.6-27.3l-23-17c-1.8-1.3-0.9-4.2,1.4-4.2l28.6-0.2l9.1-27.2C84.8,211.3,87.8,211.3,88.5,213.4z
	"/>
<polygon class="st2" points="105.3,356.4 1,423.6 512,423.6 512,356.4 "/>
<polygon class="st1" points="209.4,289.4 105.1,356.6 512,356.6 512,289.4 "/>
<polygon class="st2" points="208.2,222.4 260.8,256.3 209.2,289.6 512,289.6 512,222.4 "/>
<polygon class="st1" points="104.1,155.3 208.4,222.5 512,222.5 512,155.3 "/>
<polygon class="st2" points="0,88.3 104.3,155.5 512,155.5 512,88.3 "/>
</svg>
