<?xml version="1.0" encoding="utf-8"?>
<!-- Generator: Adobe Illustrator 25.0.0, SVG Export Plug-In . SVG Version: 6.00 Build 0)  -->
<svg version="1.1" id="Layer_1" xmlns="http://www.w3.org/2000/svg" xmlns:xlink="http://www.w3.org/1999/xlink" x="0px" y="0px"
	 viewBox="0 0 512 512" style="enable-background:new 0 0 512 512;" xml:space="preserve">
<style type="text/css">
	.st0{fill:#003893;}
	.st1{fill:#FFFFFF;}
	.st2{fill:#CF2027;}
	.st3{fill:#F7D116;}
</style>
<rect x="0" y="353.1" class="st0" width="512" height="70.6"/>
<rect x="0" y="88.3" class="st0" width="512" height="194.8"/>
<rect y="282.5" class="st1" width="512" height="23.5"/>
<rect y="329.6" class="st1" width="512" height="23.5"/>
<rect y="306" class="st2" width="512" height="23.5"/>
<g>
	<path class="st3" d="M169.6,234.7l2.7,8.1l8.6,0.1c0.7,0,0.9,0.9,0.4,1.2l-6.9,5.1l2.6,8.2c0.2,0.6-0.5,1.2-1.1,0.8l-7-5l-7,5
		c-0.5,0.4-1.3-0.1-1.1-0.8l2.6-8.2l-6.9-5.1c-0.5-0.4-0.3-1.2,0.4-1.2l8.6-0.1l2.7-8.1C168.5,234,169.4,234,169.6,234.7z"/>
	<path class="st3" d="M169.6,377.3l2.7,8.1l8.6,0.1c0.7,0,0.9,0.9,0.4,1.2l-6.9,5.1l2.6,8.2c0.2,0.6-0.5,1.2-1.1,0.8l-7-5l-7,5
		c-0.5,0.4-1.3-0.1-1.1-0.8l2.6-8.2l-6.9-5.1c-0.5-0.4-0.3-1.2,0.4-1.2l8.6-0.1l2.7-8.1C168.5,376.7,169.4,376.7,169.6,377.3z"/>
	<path class="st3" d="M123.3,385.3l6.9-5.1l7,4.9c0.5,0.4,1.3-0.2,1-0.8l-2.7-8.1l6.8-5.2c0.5-0.4,0.2-1.2-0.4-1.2l-8.6,0.1
		l-2.8-8.1c-0.2-0.6-1.1-0.6-1.3,0l-2.6,8.2l-8.6,0.2c-0.7,0-0.9,0.9-0.4,1.3l7,5l-2.4,8.2C122.1,385.2,122.8,385.7,123.3,385.3z"/>
	<path class="st3" d="M137.1,269.3l-7-4.9l-6.9,5c-0.5,0.4-1.3-0.1-1.1-0.8l2.5-8.2l-6.9-5c-0.5-0.4-0.3-1.2,0.4-1.2l8.6-0.1
		l2.7-8.1c0.2-0.6,1.1-0.6,1.3,0l2.7,8.1l8.6,0c0.7,0,0.9,0.8,0.4,1.2l-6.9,5.1l2.6,8.1C138.4,269.2,137.6,269.7,137.1,269.3z"/>
	<path class="st3" d="M201.6,269.4l6.9-5.1l7,4.9c0.5,0.4,1.3-0.2,1-0.8l-2.7-8.1l6.8-5.2c0.5-0.4,0.2-1.2-0.4-1.2l-8.6,0.1
		l-2.8-8.1c-0.2-0.6-1.1-0.6-1.3,0l-2.6,8.2l-8.6,0.2c-0.7,0-0.9,0.9-0.4,1.3l7,5l-2.4,8.2C200.3,269.3,201,269.8,201.6,269.4z"/>
	<path class="st3" d="M215.3,385.2l-7-4.9l-6.9,5c-0.5,0.4-1.3-0.1-1.1-0.8l2.5-8.2l-6.9-5c-0.5-0.4-0.3-1.2,0.4-1.2l8.6-0.1
		l2.7-8.1c0.2-0.6,1.1-0.6,1.3,0l2.7,8.1l8.6,0c0.7,0,0.9,0.8,0.4,1.2l-6.9,5.1l2.6,8.1C216.6,385,215.9,385.6,215.3,385.2z"/>
	<path class="st3" d="M113.1,335.3l-8.6,0.1l-2.8-8.1c-0.2-0.6-1.1-0.6-1.3,0l-2.6,8.2l-8.6,0.2c-0.7,0-0.9,0.9-0.4,1.3l7,5
		l-2.5,8.2c-0.2,0.6,0.5,1.1,1.1,0.8l6.9-5.1l7,4.9c0.5,0.4,1.3-0.2,1-0.8l-2.7-8.1l6.8-5.2C114.1,336.2,113.8,335.3,113.1,335.3z"
		/>
	<path class="st3" d="M89.3,291.3l8.6-0.2l2.6-8.1c0.2-0.6,1.1-0.6,1.3,0l2.8,8.1l8.6,0c0.7,0,0.9,0.8,0.4,1.2l-6.8,5.2l2.7,8.1
		c0.2,0.6-0.5,1.2-1.1,0.8l-7-4.9l-6.9,5.1c-0.5,0.4-1.3-0.1-1.1-0.8l2.5-8.2l-6.9-5C88.3,292.2,88.6,291.4,89.3,291.3z"/>
	<path class="st3" d="M248.7,291l-8.6,0.1l-2.8-8.1c-0.2-0.6-1.1-0.6-1.3,0l-2.6,8.2l-8.6,0.2c-0.7,0-0.9,0.9-0.4,1.3l7,5l-2.5,8.2
		c-0.2,0.6,0.5,1.1,1.1,0.8l6.9-5.1l7,4.9c0.5,0.4,1.3-0.2,1-0.8l-2.7-8.1l6.8-5.2C249.6,291.9,249.4,291,248.7,291z"/>
	<path class="st3" d="M224.9,335.6l8.6-0.2l2.6-8.1c0.2-0.6,1.1-0.6,1.3,0l2.8,8.1l8.6,0c0.7,0,0.9,0.8,0.4,1.2l-6.8,5.2l2.7,8.1
		c0.2,0.6-0.5,1.2-1.1,0.8l-7-4.9l-6.9,5.1c-0.5,0.4-1.3-0.1-1.1-0.8l2.5-8.2l-6.9-5C223.9,336.5,224.2,335.7,224.9,335.6z"/>
</g>
</svg>
