<?xml version="1.0" encoding="utf-8"?>
<!-- Generator: Adobe Illustrator 25.0.0, SVG Export Plug-In . SVG Version: 6.00 Build 0)  -->
<svg version="1.1" id="Layer_1" xmlns="http://www.w3.org/2000/svg" xmlns:xlink="http://www.w3.org/1999/xlink" x="0px" y="0px"
	 viewBox="0 0 512 512" style="enable-background:new 0 0 512 512;" xml:space="preserve">
<style type="text/css">
	.st0{fill:#1B8A42;}
	.st1{fill:#0021AD;}
	.st2{fill:#FFFFFF;}
	.st3{fill:#FFC639;}
</style>
<polygon class="st0" points="512,424.3 0,88.3 512,88.3 "/>
<polygon class="st1" points="512,424.3 0,424.3 0,88.3 "/>
<g>
	<path class="st2" d="M38.6,256.6l3.1,7.8l8-2.4c0.4-0.1,0.8,0.3,0.6,0.7l-4.2,7.2l6.9,4.7c0.4,0.3,0.2,0.9-0.2,0.9l-8.2,1.3
		l0.6,8.3c0,0.5-0.5,0.7-0.9,0.4l-6.1-5.7l-6.1,5.7c-0.3,0.3-0.9,0-0.9-0.4l0.6-8.3l-8.2-1.3c-0.5-0.1-0.6-0.7-0.2-0.9l6.9-4.7
		l-4.2-7.2c-0.2-0.4,0.1-0.9,0.6-0.7l8,2.4l3.1-7.8C37.8,256.2,38.4,256.2,38.6,256.6z"/>
	<path class="st2" d="M150.2,235.7l3.1,7.8l8-2.4c0.4-0.1,0.8,0.3,0.6,0.7l-4.2,7.2l6.9,4.7c0.4,0.3,0.2,0.9-0.2,0.9l-8.2,1.3
		l0.6,8.3c0,0.5-0.5,0.7-0.9,0.4l-6.1-5.7l-6.1,5.7c-0.3,0.3-0.9,0-0.9-0.4l0.6-8.3l-8.2-1.3c-0.5-0.1-0.6-0.7-0.2-0.9l6.9-4.7
		l-4.2-7.2c-0.2-0.4,0.1-0.9,0.6-0.7l8,2.4l3.1-7.8C149.4,235.2,150,235.2,150.2,235.7z"/>
	<path class="st2" d="M94.4,185.4l3.1,7.8l8-2.4c0.4-0.1,0.8,0.3,0.6,0.7l-4.2,7.2l6.9,4.7c0.4,0.3,0.2,0.9-0.2,0.9l-8.2,1.3
		l0.6,8.3c0,0.5-0.5,0.7-0.9,0.4l-6.1-5.7l-6.1,5.7c-0.3,0.3-0.9,0.1-0.9-0.4l0.6-8.3l-8.2-1.3c-0.5-0.1-0.6-0.7-0.2-0.9l6.9-4.7
		l-4.2-7.2c-0.2-0.4,0.1-0.9,0.6-0.7l8,2.4l3.1-7.8C93.6,184.9,94.2,184.9,94.4,185.4z"/>
	<path class="st2" d="M94.4,368.2l3.1,7.8l8-2.4c0.4-0.1,0.8,0.3,0.6,0.7l-4.2,7.2l6.9,4.7c0.4,0.3,0.2,0.9-0.2,0.9l-8.2,1.3
		l0.6,8.3c0,0.5-0.5,0.7-0.9,0.4l-6.1-5.7l-6.1,5.7c-0.3,0.3-0.9,0-0.9-0.4l0.6-8.3l-8.2-1.3c-0.5-0.1-0.6-0.7-0.2-0.9l6.9-4.7
		l-4.2-7.2c-0.2-0.4,0.1-0.9,0.6-0.7l8,2.4l3.1-7.8C93.6,367.7,94.2,367.7,94.4,368.2z"/>
	<path class="st2" d="M117.2,263.6l2.1,6.4l6.8,0.1c0.5,0,0.7,0.7,0.3,1l-5.4,4l2,6.4c0.2,0.5-0.4,0.9-0.8,0.6l-5.5-3.9l-5.5,3.9
		c-0.4,0.3-1-0.1-0.8-0.6l2-6.4l-5.4-4c-0.4-0.3-0.2-1,0.3-1l6.8-0.1l2.1-6.4C116.4,263.1,117.1,263.1,117.2,263.6z"/>
</g>
<g>
	<circle class="st3" cx="256" cy="256" r="53"/>
	<path class="st0" d="M224.6,233.2c-2.2-0.5-4.3,5.1-1.9,7s6.8,5.5,4.1,7.7c-2.7,2.2-3.6,2.4-4.1,5.1c-0.5,2.7,0,3.1-2.2,4.3
		s-7.2,3.6-5.1,6s5.1,1,7-2.9c0,0,13.5-0.5,14,0.5c0.5,1,1.7,4.6,4.6,3.6c2.9-1,2.9-1,2.9-1s1.7-0.7,2.9,0.7
		c1.2,1.4,4.1,1.9,7.5,1.9s6.3,1.9,6,6.5c-0.2,2.9-0.9,9-1.4,13.1c-0.3,2.1,1.2,4.1,3.3,4.5l6.2,1c1.6,0.3,3.1-0.9,3.3-2.5
		c0.3-3.3,0.7-8.1,0.7-8.3c-0.1-1.7,3.4-10.6,3.1-14.7c-0.2-4.1-0.2-4.1-0.2-4.1s3.6-0.5,5.1-2.9s4.6-8.4,10.9-10.6l1.7-4.1
		c0,0-4.8-2.2-3.9-3.6c1-1.4,1.4-5.3,0.7-8.4s-1-7.5-1-7.5s-1.7-0.7-2.1,0.3s-0.7,1.5-1.6,1.4c-0.9-0.2-2.3-0.3-2.6-1.1
		c-0.4-0.8-1.4-1.6-2.3-1.2c-0.9,0.5-2.5,6.5-4.6,7.2c0,0-0.2-2.6-1.5-2.1s-1.3,1.8-1.5,4.1s-15.4,17.6-28.8,13.5
		c0,0-1.5-2.9-4.5-2.6c-3,0.3-5.9,0.2-7.6-1.9C229.9,240,227.2,233.8,224.6,233.2z"/>
</g>
<path class="st3" d="M322.8,258.5c4,4.3,48.2,16.3,92.9-7.1s71.3-30.1,71.3-30.1s0.4-6,5.9-6.9c5.5-0.9,2.8-3.2,1.4-5
	s-8.3-6.6-17.7-2.5c0,0-10.9,0.4-12.6-14.7s-2.4-30.5-6.1-37.1c-3.8-6.6-35-39.7-38.8-37.1s9.5,35.5,21.8,47.1
	c0,0,2.8,20.3-0.7,21.3c-3.5,0.9-23.2-17-58.2-21.3c0,0,14.9,20.3,33.1,28.9c18.2,8.5,23.2,16.3,22.7,19.6
	c-0.5,3.3-6.6,19.2-16.8,26.5c-10.2,7.3-35.7,27.2-93.6,16.8C327.3,256.7,320.9,256.4,322.8,258.5z"/>
</svg>
