<?xml version="1.0" encoding="utf-8"?>
<!-- Generator: Adobe Illustrator 25.0.0, SVG Export Plug-In . SVG Version: 6.00 Build 0)  -->
<svg version="1.1" id="Layer_1" xmlns="http://www.w3.org/2000/svg" xmlns:xlink="http://www.w3.org/1999/xlink" x="0px" y="0px"
	 viewBox="0 0 512 512" style="enable-background:new 0 0 512 512;" xml:space="preserve">
<style type="text/css">
	.st0{fill:#FFFFFF;}
	.st1{fill:#435125;}
	.st2{fill:#D47600;}
</style>
<rect y="88" class="st0" width="512" height="336"/>
<path id="Path" class="st1" d="M372.4,356.9l-11.1-15c-22.4,16.1-67.7,35.8-104.3,35.8c-35.8,0-79.6-17.1-104.3-35.8l-11.1,15
	c10,10.3,46.9,27,88.4,38.4c-3.9,6-1.6,6.1,2.6,10.8c8.5-6.6,17.4-1.5,24.9-7.3c7.5,5.8,16.3,0.7,24.9,7.3c5.4-5.6,5.4-5.6,2.5-11.1
	C325.9,383.3,361.9,367.4,372.4,356.9z"/>
<path id="Path_1_" class="st2" d="M114.6,249.7c0,0,0.2,79.9,89,77.8l5.3,16.5h10.6c0,0-8.9-49,71.7-49.4c0,0,0-32.9,32.9-32.9
	s49.4,0,49.4,0s-78.6-61.7,70.2-140.6l2.2-15.6c0,0-154.8,84.6-237,68.1c0,0,12.7,50.7-12.9,50.7c-12.8,0-11.6-9.6-38.4-9.6
	c-22.3,0-20.6,23.5-31.3,23.2s-22.4-14.6-23.4-12.1S114.6,249.7,114.6,249.7z"/>
</svg>
