<?xml version="1.0" encoding="utf-8"?>
<!-- Generator: Adobe Illustrator 25.0.0, SVG Export Plug-In . SVG Version: 6.00 Build 0)  -->
<svg version="1.1" id="Layer_1" xmlns="http://www.w3.org/2000/svg" xmlns:xlink="http://www.w3.org/1999/xlink" x="0px" y="0px"
	 viewBox="0 0 512 512" style="enable-background:new 0 0 512 512;" xml:space="preserve">
<style type="text/css">
	.st0{fill:#FCD116;}
	.st1{fill:#FFFFFF;}
	.st2{fill:#006B3F;}
	.st3{fill:#D41C30;}
	.st4{fill:#9461C9;}
	.st5{fill:#B34900;}
</style>
<rect x="244.2" y="88.3" width="23.5" height="336"/>
<rect x="220.7" y="88.3" class="st0" width="23.5" height="336"/>
<rect x="267.8" y="88.3" class="st1" width="23.5" height="336"/>
<rect x="244.2" y="0" transform="matrix(-1.836970e-16 1 -1 -1.836970e-16 512.001 -7.629395e-06)" width="23.5" height="512"/>
<rect x="244.2" y="-23.5" transform="matrix(-1.836970e-16 1 -1 -1.836970e-16 488.461 -23.54)" class="st0" width="23.5" height="512"/>
<rect x="244.2" y="23.5" transform="matrix(-1.836970e-16 1 -1 -1.836970e-16 535.541 23.54)" class="st1" width="23.5" height="512"/>
<rect x="291.3" y="291.3" class="st2" width="220.7" height="133"/>
<rect x="291.3" y="88.3" class="st2" width="220.7" height="132.4"/>
<rect x="0" y="88.3" class="st2" width="220.7" height="132.4"/>
<rect x="0" y="291.3" class="st2" width="220.7" height="133"/>
<g id="shield">
	<circle class="st3" cx="256" cy="256" r="88.3"/>
	<path class="st2" d="M248.4,271.2c0,0-1,7.2,6,17.9H268l-3.1-13L248.4,271.2z"/>
	<path class="st4" d="M247.5,222.9c0,0-22.3,36.4,10.4,58.1l3.4-20.6l2.2-26.7l-3.4-11.4L247.5,222.9z"/>
	<path class="st2" d="M247.5,222.9c0,0-2.5,4.2-4.7,10.6c2.9,3,10.7,6.7,20.3,5.1l0.4-4.8l-3.4-11.4L247.5,222.9z"/>
	<path class="st4" d="M243.2,217.6c0,0,0.3-7.3,7.4-7.3c8.9,0,16.2,2.1,27.8,26c0,0-10.3,10.1-16.8-3.8c-1.9-4.1-2.6-9.1-2.6-9.1
		s-8,2.7-13.5-0.4L243.2,217.6z"/>
	<path class="st0" d="M246.8,221.1l-1.6-4.4c0,0-9.2-1.5-5.4,9.6c0,0,0.3-2.2,2.6-1.9C244.7,224.7,247.2,222.9,246.8,221.1z"/>
	<g>
		<path class="st2" d="M262.2,262.9c0,0-9.7,7.6-4.3,25.4c2.9,9.5,14.4,19.9,14.4,19.9s8.6-22.4,5.8-31
			C276.5,272.1,262.2,262.9,262.2,262.9z"/>
		<path class="st2" d="M280.6,291.6c0,0-25-23.8-26.7-42.6s9.2-15.8,11.1-14.6C269.7,237.3,281.5,249.4,280.6,291.6z"/>
	</g>
	<path class="st5" d="M277.5,297.1h-41.4c-0.9,0-1.6-0.7-1.6-1.6v-3.1c0-0.9,0.7-1.6,1.6-1.6h41.4c0.9,0,1.6,0.7,1.6,1.6v3.1
		C279,296.4,278.3,297.1,277.5,297.1z"/>
	<path class="st0" d="M267.4,291.2c-1.4,0.6-4.3,1.3-3.6,3.9c0.6,2,4.3,1.8,3.6,4c-0.5,1.5-8.2,1.7-11.1,1.2
		c-1.8-0.3-5.8-1.3-5.2-5.9c0.6-4.5,2.2-5.2,4.3-6c2-0.8,11-0.6,12.3,0.5C268.3,289.5,268.5,290.7,267.4,291.2z"/>
	<g>
		<path class="st2" d="M256.8,177.1l2,6l6.4,0.1c0.8,0,1.2,1.1,0.5,1.5l-5.1,3.8l1.9,6.1c0.2,0.8-0.6,1.4-1.3,1l-5.2-3.7l-5.2,3.7
			c-0.7,0.5-1.6-0.2-1.3-1l1.9-6.1l-5.1-3.8c-0.7-0.5-0.3-1.5,0.5-1.5l6.4-0.1l2-6C255.4,176.4,256.6,176.4,256.8,177.1z"/>
		<path class="st2" d="M256.8,318l2,6l6.4,0c0.8,0,1.2,1.1,0.5,1.5l-5.1,3.8l1.9,6.1c0.2,0.8-0.6,1.4-1.3,1l-5.2-3.7l-5.2,3.7
			c-0.7,0.5-1.6-0.2-1.3-1l1.9-6.1l-5.1-3.8c-0.7-0.5-0.3-1.5,0.5-1.5l6.4,0l2-6C255.4,317.2,256.6,317.2,256.8,318z"/>
		<path class="st2" d="M256.8,177.1l2,6l6.4,0.1c0.8,0,1.2,1.1,0.5,1.5l-5.1,3.8l1.9,6.1c0.2,0.8-0.6,1.4-1.3,1l-5.2-3.7l-5.2,3.7
			c-0.7,0.5-1.6-0.2-1.3-1l1.9-6.1l-5.1-3.8c-0.7-0.5-0.3-1.5,0.5-1.5l6.4-0.1l2-6C255.4,176.4,256.6,176.4,256.8,177.1z"/>
		<path class="st2" d="M256.8,318l2,6l6.4,0c0.8,0,1.2,1.1,0.5,1.5l-5.1,3.8l1.9,6.1c0.2,0.8-0.6,1.4-1.3,1l-5.2-3.7l-5.2,3.7
			c-0.7,0.5-1.6-0.2-1.3-1l1.9-6.1l-5.1-3.8c-0.7-0.5-0.3-1.5,0.5-1.5l6.4,0l2-6C255.4,317.2,256.6,317.2,256.8,318z"/>
		<path class="st2" d="M207.7,191.6l1.8,6.1l-5.2,3.6c-0.7,0.5-0.4,1.5,0.5,1.6l6.3,0.2l1.9,6.1c0.2,0.8,1.3,0.8,1.6,0l2.2-6
			l6.4,0.1c0.8,0,1.2-1,0.5-1.5l-5-3.9l2.1-6c0.3-0.8-0.6-1.4-1.3-1l-5.3,3.6l-5.1-3.8C208.4,190.2,207.5,190.8,207.7,191.6z"/>
		<path class="st2" d="M287.6,307.6l1.8,6.1l-5.2,3.6c-0.7,0.5-0.4,1.5,0.5,1.6l6.3,0.2l1.9,6.1c0.2,0.8,1.3,0.8,1.6,0l2.2-6
			l6.4,0.1c0.8,0,1.2-1,0.5-1.5l-5-3.9l2.1-6c0.3-0.8-0.6-1.4-1.3-1l-5.3,3.6l-5.1-3.8C288.3,306.2,287.4,306.8,287.6,307.6z"/>
		<path class="st2" d="M177.9,232l5.1,3.8l-2,6c-0.3,0.8,0.6,1.4,1.3,1l5.2-3.6l5.1,3.7c0.7,0.5,1.6-0.2,1.3-0.9l-1.9-6.1l5.1-3.7
			c0.7-0.5,0.3-1.5-0.5-1.5l-6.4-0.1l-1.9-6c-0.3-0.8-1.4-0.8-1.6,0l-2.1,6l-6.4,0C177.6,230.5,177.2,231.5,177.9,232z"/>
		<path class="st2" d="M311.4,276.9l5.1,3.8l-2,6c-0.3,0.8,0.6,1.4,1.3,1l5.2-3.6l5.1,3.7c0.7,0.5,1.6-0.2,1.3-0.9l-1.9-6.1l5.1-3.7
			c0.7-0.5,0.3-1.5-0.5-1.5l-6.4-0.1l-1.9-6c-0.3-0.8-1.4-0.8-1.6,0l-2.1,6l-6.4,0C311.1,275.3,310.7,276.4,311.4,276.9z"/>
		<path class="st2" d="M300.9,191.6l-1.8,6.1l5.2,3.6c0.7,0.5,0.4,1.5-0.5,1.6l-6.3,0.2l-1.9,6.1c-0.2,0.8-1.3,0.8-1.6,0l-2.2-6
			l-6.4,0.1c-0.8,0-1.2-1-0.5-1.5l5-3.9l-2.1-6c-0.3-0.8,0.6-1.4,1.3-1l5.3,3.6l5.1-3.8C300.2,190.2,301.1,190.8,300.9,191.6z"/>
		<path class="st2" d="M221.1,307.6l-1.8,6.1l5.2,3.6c0.7,0.5,0.4,1.5-0.5,1.6l-6.3,0.2l-1.9,6.1c-0.2,0.8-1.3,0.8-1.6,0l-2.2-6
			l-6.4,0.1c-0.8,0-1.2-1-0.5-1.5l5-3.9l-2.1-6c-0.3-0.8,0.6-1.4,1.3-1l5.3,3.6l5.1-3.8C220.4,306.2,221.3,306.8,221.1,307.6z"/>
		<path class="st2" d="M330.8,232l-5.1,3.8l2,6c0.3,0.8-0.6,1.4-1.3,1l-5.2-3.6L316,243c-0.7,0.5-1.6-0.2-1.3-0.9l1.9-6.1l-5.1-3.7
			c-0.7-0.5-0.3-1.5,0.5-1.5l6.4-0.1l1.9-6c0.3-0.8,1.4-0.8,1.6,0l2.1,6l6.4,0C331.1,230.5,331.4,231.5,330.8,232z"/>
		<path class="st2" d="M197.2,276.9l-5.1,3.8l2,6c0.3,0.8-0.6,1.4-1.3,1l-5.2-3.6l-5.1,3.7c-0.7,0.5-1.6-0.2-1.3-0.9l1.9-6.1
			l-5.1-3.7c-0.7-0.5-0.3-1.5,0.5-1.5l6.4-0.1l1.9-6c0.3-0.8,1.4-0.8,1.6,0l2.1,6l6.4,0C197.6,275.3,197.9,276.4,197.2,276.9z"/>
	</g>
</g>
</svg>
