<?xml version="1.0" encoding="utf-8"?>
<!-- Generator: Adobe Illustrator 25.0.0, SVG Export Plug-In . SVG Version: 6.00 Build 0)  -->
<svg version="1.1" id="Layer_1" xmlns="http://www.w3.org/2000/svg" xmlns:xlink="http://www.w3.org/1999/xlink" x="0px" y="0px"
	 viewBox="0 0 512 512" style="enable-background:new 0 0 512 512;" xml:space="preserve">
<style type="text/css">
	.st0{fill:#FFDD00;}
	.st1{fill:#034EA2;}
	.st2{fill:#ED1C24;}
	.st3{fill:#452C25;}
	.st4{fill:#E6E1CD;}
	.st5{fill:#FFD0AF;}
	.st6{fill:#FFAF94;}
	.st7{fill:#086F35;}
	.st8{fill:#69C3FF;}
	.st9{fill:#5AA0E6;}
	.st10{fill:#009B64;}
	.st11{fill:#587074;}
	.st12{fill:#FFFFFF;}
	.st13{fill:#B3BABF;}
	.st14{fill:#BE915A;}
	.st15{fill:#B9B9B9;}
</style>
<rect y="88.3" class="st0" width="512" height="168"/>
<rect y="255.9" class="st1" width="512" height="84"/>
<rect y="339.8" class="st2" width="512" height="84"/>
<g id="shield">
	<path class="st0" d="M246.8,261l64.5-55.3v80c0,13.5-10.9,24.4-24.4,24.4l0,0c-6,0-11.8-2.2-16.3-6.3l-23.7-21.4L246.8,261
		L246.8,261z"/>
	<path class="st2" d="M280.8,292.4l-18.7-16.8v-27.8l33.8-28.9v20.2v46.6c0,5-4.1,9.1-9.1,9.1C284.6,294.7,282.5,293.9,280.8,292.4z
		"/>
	<path class="st1" d="M271.4,239.9v31.6l15.4,13.9v-46.5v-12.1l9.2-7.9v20.2v46.6c0,5-4.1,9.1-9.1,9.1c-2.2,0-4.4-0.8-6.1-2.3
		l-18.7-16.8v-27.8L271.4,239.9z"/>
	<path class="st0" d="M265.2,261l-64.5-55.3v80c0,13.5,10.9,24.4,24.4,24.4l0,0c6,0,11.8-2.2,16.3-6.3l23.7-21.4V261z"/>
	<path class="st2" d="M231.2,292.4l18.7-16.8v-27.8l-33.8-28.9v20.2v46.6c0,5,4.1,9.1,9.1,9.1C227.4,294.7,229.5,293.9,231.2,292.4z
		"/>
	<g>
		<path class="st1" d="M240.6,239.9v31.6l-15.4,13.9v-46.5v-12.1l-9.2-7.9v20.2v46.6c0,5,4.1,9.1,9.1,9.1c2.2,0,4.4-0.8,6.1-2.3
			l18.7-16.8v-27.8L240.6,239.9z"/>
		<rect x="309" y="206" class="st1" width="4.4" height="26.4"/>
		<rect x="198.5" y="206" class="st1" width="4.4" height="26.4"/>
	</g>
	<g>
		<path class="st3" d="M246.8,193.4c0,0,6.1-29.2-15.4-25.3s-21.5,10-46.1,22.3c0,0,27.6,6.1,39.9,3.1c0,0,9.2,12.3,18.4,15.4h9.2
			L246.8,193.4z"/>
		<path class="st3" d="M265.2,193.4c0,0-6.1-29.2,15.4-25.3c21.5,3.8,21.5,10,46.1,22.3c0,0-27.6,6.1-39.9,3.1
			c0,0-9.2,12.3-18.4,15.4h-9.2L265.2,193.4z"/>
		<path class="st3" d="M265.2,208.8h-18.4v-15.5c0-5,4.1-9.1,9.1-9.1h0.2c5,0,9.1,4.1,9.1,9.1L265.2,208.8L265.2,208.8z"/>
	</g>
	<ellipse transform="matrix(0.1602 -0.9871 0.9871 0.1602 24.0896 415.116)" class="st4" cx="256" cy="193.4" rx="6.1" ry="6.1"/>
	<path class="st5" d="M242.8,189.4l11.5,6.2c1,0.5,2.2,0.3,2.9-0.4l0,0c1-1,1-2.6,0-3.5l-7.4-7.4h-1.8
		C245.2,184.2,242.8,186.5,242.8,189.4L242.8,189.4z"/>
	<path class="st6" d="M246.8,190.3h-9.2l4-4.7c0.8-0.9,1.9-1.4,3-1.4h5.2v3.1C249.9,189,248.5,190.3,246.8,190.3z"/>
	<g>
		<path class="st7" d="M282.2,208.8c-2.1-2.5-2.5-5.7-1.5-8.5c3-0.5,6.1,0.5,8.2,2.9c1.8,2.1,2.3,4.8,1.8,7.3c0.6,1,1.4,2.4,2.2,4
			c0-0.2,0-0.4,0.1-0.7c0.7-2.5,2.7-4.3,5.1-5c1.7,1.8,2.5,4.4,1.8,6.9c-0.6,2.2-2.2,3.8-4.2,4.6c0.8,1.8,1.5,3.7,2.2,5.7
			c0-0.1,0-0.2,0.1-0.4c1-2.5,3.2-4,5.6-4.4c1.5,2,2,4.6,1,7.1c-0.9,2.1-2.7,3.6-4.8,4.1c1.1,4.2,1.8,8.7,1.8,13.2h-3.1
			c0-3.9-0.6-7.9-1.5-11.6c-1.9,0.6-4,0.5-5.8-0.6c-2.2-1.4-3.4-3.8-3.4-6.2c2.2-1.2,4.8-1.2,7.1,0.2c0.1,0,0.1,0.1,0.2,0.2
			c-0.7-1.9-1.4-3.7-2.1-5.4c-1.8,0.9-4,1-6,0.1c-2.4-1.1-3.8-3.4-4-5.8c2-1.4,4.7-1.7,7-0.6c-0.8-1.6-1.6-3-2.2-4
			C285.7,211.5,283.7,210.5,282.2,208.8z"/>
		<path class="st7" d="M229.8,208.8c2.1-2.5,2.5-5.7,1.5-8.5c-3-0.5-6.1,0.5-8.2,2.9c-1.8,2.1-2.3,4.8-1.8,7.3c-0.6,1-1.4,2.4-2.2,4
			c0-0.2,0-0.4-0.1-0.7c-0.7-2.5-2.7-4.3-5.1-5c-1.7,1.8-2.5,4.4-1.8,6.9c0.6,2.2,2.2,3.8,4.2,4.6c-0.8,1.8-1.5,3.7-2.2,5.7
			c0-0.1,0-0.2-0.1-0.4c-1-2.5-3.2-4-5.6-4.4c-1.5,2-2,4.6-1,7.1c0.9,2.1,2.7,3.6,4.8,4.1c-1.1,4.2-1.8,8.7-1.8,13.2h3.1
			c0-3.9,0.6-7.9,1.5-11.6c1.9,0.6,4,0.5,5.8-0.6c2.2-1.4,3.4-3.8,3.4-6.2c-2.2-1.2-4.8-1.2-7.1,0.2c-0.1,0-0.1,0.1-0.2,0.2
			c0.7-1.9,1.4-3.7,2.1-5.4c1.8,0.9,4,1,6,0.1c2.4-1.1,3.8-3.4,4-5.8c-2-1.4-4.7-1.7-7-0.6c0.8-1.6,1.6-3,2.2-4
			C226.3,211.5,228.3,210.5,229.8,208.8z"/>
	</g>
	<path class="st0" d="M256,276.3L191.5,221v80c0,13.5,10.9,24.4,24.4,24.4l0,0c6,0,11.8-2.2,16.3-6.3l23.7-21.4V276.3z"/>
	<path class="st2" d="M222,307.8l18.7-16.8v-27.8l-33.8-28.9v20.2V301c0,5,4.1,9.1,9.1,9.1C218.2,310.1,220.3,309.3,222,307.8z"/>
	<path class="st1" d="M231.4,255.3v31.6l-15.4,13.9v-46.5v-12.1l-9.2-7.9v20.2V301c0,5,4.1,9.1,9.1,9.1c2.2,0,4.4-0.8,6.1-2.3
		l18.7-16.8v-27.8L231.4,255.3z"/>
	<path class="st0" d="M256,276.3l64.5-55.3v80c0,13.5-10.9,24.4-24.4,24.4l0,0c-6,0-11.8-2.2-16.3-6.3L256,297.8V276.3z"/>
	<path class="st2" d="M290,307.8L271.4,291v-27.8l33.8-28.9v20.2V301c0,5-4.1,9.1-9.1,9.1C293.8,310.1,291.7,309.3,290,307.8z"/>
	<path class="st1" d="M280.6,255.3v31.6l15.4,13.9v-46.5v-12.1l9.2-7.9v20.2V301c0,5-4.1,9.1-9.1,9.1c-2.2,0-4.4-0.8-6.1-2.3
		L271.4,291v-27.8L280.6,255.3z"/>
	<ellipse class="st8" cx="256" cy="254.8" rx="30.7" ry="46.1"/>
	<polygon class="st9" points="228.4,267.1 231.4,285.5 246.8,300.9 256,300.9 268.3,297.8 280.6,285.5 283.6,267.1 	"/>
	<polygon class="st10" points="243.7,265.4 258.3,279 256,284 265.2,285.4 272.1,291.8 280.5,282.2 283.6,266.1 	"/>
	<polygon class="st10" points="238.7,270.9 241.8,265.4 227.6,265.4 228.4,274.9 233,281 237.6,272.9 240.6,271.5 	"/>
	<path class="st11" d="M228.4,267.1h55.3l3.1-12.3l-14,2.3c-2.8,0.5-5.7-0.3-7.8-2.2L249,241.3c-1.4-1.2-3.2-1.9-5.1-1.9l0,0
		c-2.1,0-4.1,0.8-5.5,2.3l-10,10L228.4,267.1L228.4,267.1z"/>
	<path class="st12" d="M253.1,252.8l5.3-3.4l-9.4-8c-1.4-1.2-3.2-1.9-5.1-1.9l0,0c-2.1,0-4.1,0.8-5.5,2.3l-10,10v3.1l15.4-3.1
		l2.7,1.4C248.6,254.2,251.1,254,253.1,252.8z"/>
	<path class="st13" d="M256,303.9c-18.6,0-33.8-22-33.8-49.1s15.2-49.1,33.8-49.1s33.8,22,33.8,49.1S274.6,303.9,256,303.9z
		 M256,211.8c-15.2,0-27.6,19.3-27.6,43s12.4,43,27.6,43s27.6-19.3,27.6-43S271.2,211.8,256,211.8z"/>
	<g>
		<path class="st13" d="M234.3,300.6c-2.6-3.6-6.4-5.9-10.7-5.9s-8.2,2.3-10.7,5.9c4.4,1.2,8,4.8,9.7,9.5c0.7,1.9,1.1,4,1.1,6.1
			C223.6,308.6,228.2,302.3,234.3,300.6z"/>
		<path class="st13" d="M226,310.3c0,0-0.2,4.1-2.3,6l-0.1-0.1c-2.1-1.9-2.3-6-2.3-6L226,310.3z"/>
	</g>
	<path class="st13" d="M294.4,311.6h-76.8c-0.8,0-1.5-0.7-1.5-1.5v0c0-0.8,0.7-1.5,1.5-1.5h76.8c0.8,0,1.5,0.7,1.5,1.5v0
		C295.9,310.9,295.2,311.6,294.4,311.6z"/>
	<path class="st14" d="M271.4,316.2h-30.9c-3.4,0-6.1-2.7-6.1-6.1V310c0-3.4,2.7-6.1,6.1-6.1h30.9c3.4,0,6.1,2.7,6.1,6.1v0.2
		C277.5,313.5,274.8,316.2,271.4,316.2z"/>
	<path class="st15" d="M228.4,308.5h-10.7c-0.8,0-1.5,0.7-1.5,1.5s0.7,1.5,1.5,1.5h10.7V308.5z"/>
	<polygon class="st2" points="256,316.2 256,344.3 243.7,340.8 249.9,316.2 	"/>
	<polygon class="st1" points="252.9,316.2 246.8,337.7 234.5,334.6 243.7,316.2 	"/>
	<polygon class="st0" points="240.6,316.2 231.4,328.5 240.6,331.6 246.8,316.2 	"/>
	<polygon class="st2" points="256,316.2 256,344.3 268.3,340.8 262.1,316.2 	"/>
	<polygon class="st1" points="259.1,316.2 265.2,337.7 277.5,334.6 268.3,316.2 	"/>
	<polygon class="st0" points="271.4,316.2 280.6,328.5 271.4,331.6 265.2,316.2 	"/>
	<g>
		<polygon class="st1" points="193.7,247.5 189.3,243 189.3,221 193.7,221 		"/>
		<polygon class="st1" points="322.6,243 318.2,247.5 318.2,221 322.6,221 		"/>
	</g>
</g>
</svg>
