<?xml version="1.0" encoding="utf-8"?>
<!-- Generator: Adobe Illustrator 25.0.0, SVG Export Plug-In . SVG Version: 6.00 Build 0)  -->
<svg version="1.1" id="Layer_1" xmlns="http://www.w3.org/2000/svg" xmlns:xlink="http://www.w3.org/1999/xlink" x="0px" y="0px"
	 viewBox="0 0 512 512" style="enable-background:new 0 0 512 512;" xml:space="preserve">
<style type="text/css">
	.st0{fill:#CE1126;}
	.st1{fill:#FFFFFF;}
	.st2{fill:#C09300;}
</style>
<rect y="88" class="st0" width="512" height="112"/>
<rect y="200" class="st1" width="512" height="112"/>
<rect y="312" width="512" height="112"/>
<path class="st2" d="M284.2,238.6c0-4.4-4.3-7.5-8.4-6.1l-7.8,2.6l-1.9-11.4c-1.1-6.8-7-11.8-13.9-11.8h-7.3l-7.6,9.4h10.1l-2.8,14
	l-8.2-2.7c-4.2-1.4-8.4,1.7-8.4,6.1V286l11.4-11.4l-5.4,16.1h-6v9.4h56.4v-9.4h-6l-5.4-16.1l11.4,11.4L284.2,238.6L284.2,238.6z
	 M251.3,290.7h-7.6l5.2-13.9l2.4,3L251.3,290.7L251.3,290.7z M260.7,290.7v-10.9l2.4-3l5.2,13.9H260.7z M256,273.7
	c0,0-14.5-9.8-13.9-28.2c0,0,9-1.5,13.9-9.4c5,7.9,13.9,9.4,13.9,9.4C270.5,263.9,256,273.7,256,273.7z"/>
</svg>
