<?xml version="1.0" encoding="utf-8"?>
<!-- Generator: Adobe Illustrator 25.0.0, SVG Export Plug-In . SVG Version: 6.00 Build 0)  -->
<svg version="1.1" id="Layer_1" xmlns="http://www.w3.org/2000/svg" xmlns:xlink="http://www.w3.org/1999/xlink" x="0px" y="0px"
	 viewBox="0 0 512 512" style="enable-background:new 0 0 512 512;" xml:space="preserve">
<style type="text/css">
	.st0{fill:#FFFFFF;}
	.st1{fill:#FF4B55;}
	.st2{fill:#C4111B;}
	.st3{fill:#007A3D;}
</style>
<polygon class="st0" points="170.7,200 256,256 170.7,312 512,312 512,200 "/>
<g id="Mask">
</g>
<polygon id="Path" class="st1" points="256,255.7 0,423.3 0,88 "/>
<g id="Group" transform="translate(286.000000, 120.000000)">
	<path id="Path_1_" class="st2" d="M23.6,135.9c0-22.9,13.1-42.1,34.6-46.8c-3.3-0.7-6.7-1.1-10.3-1.1C21.5,88,0,109.4,0,135.9
		s21.4,47.9,47.9,47.9c3.5,0,7-0.4,10.3-1.1C36.7,177.9,23.6,158.8,23.6,135.9z"/>
	<polygon id="Path_2_" class="st2" points="78.7,95 89,126.7 122.3,126.7 95.3,146.3 105.6,178 78.7,158.4 51.7,178 62,146.3 
		35,126.7 68.4,126.7 	"/>
</g>
<polygon class="st2" points="0,88 0,424 256,256 "/>
<polygon points="0,88 170.7,200 512,200 512,88 "/>
<polygon class="st3" points="170.7,312 0,424 512,424 512,312 "/>
</svg>
