<?xml version="1.0" encoding="utf-8"?>
<!-- Generator: Adobe Illustrator 25.0.0, SVG Export Plug-In . SVG Version: 6.00 Build 0)  -->
<svg version="1.1" id="Layer_1" xmlns="http://www.w3.org/2000/svg" xmlns:xlink="http://www.w3.org/1999/xlink" x="0px" y="0px"
	 viewBox="0 0 512 512" style="enable-background:new 0 0 512 512;" xml:space="preserve">
<style type="text/css">
	.st0{fill:#EA0437;}
	.st1{fill:#4189DD;}
	.st2{fill:#12AD2B;}
	.st3{fill:#FFC726;}
</style>
<polygon class="st0" points="0,88 0,424 512,256 "/>
<polygon class="st1" points="511.6,255.9 512,256 0.4,423.9 512,423.9 512,255.9 "/>
<polygon class="st2" points="0,88 0,88 512,256 512,256 512,88 "/>
<path class="st3" d="M188.8,306.4c0,0,24.9-9.1,31.9-36.3c0,0-10.8,14-18.4,18.1c0,0,16.7-22.2,13.2-43.9c0,0-2,8.8-6.1,12.3
	c0,0,7.3-31.3-2-44.5c0,0,0.3,11.1-3.8,22.2c0,0,1.6-35.2-14.4-44.2c0,0,6.2,11.1,3.6,20.5c0,0-4.4-19.9-24.8-27.8
	c0,0-1.3,1.5-1,5.9c0,0-5.6-6.7-19.3-6.4c0,0,0.3,5,3.8,9.7c0,0-5.6,2.9-9.1,2c0,0,5.6,6.1,25.2,5.6c0,0-2.6,2.3-7.9,2.9
	c0,0,8,3.7,15.9,4.4c10.8,1,15.1,7.3,17.2,15.2c0,0-8.5-5-11.7-9.9c0,0-0.6,8.5,15.5,24.9l-8.2-3.5c0,0,5.3,15.2,11.7,32.5l-6.7-7.3
	c0,0-1.5,12.3-2.6,35.1l-4.7-10.8c0,0-8.2,26.9-20.8,31.3c-9.8,3.4-20.7,5.8-25,6.6c-0.4-15.1,6-18.3,6-18.3c11.4,0.6,14-12,14-12
	c-2.3,2.3-6.7,2.3-6.7,2.3c6.7-7,6.7-17,6.7-17c-4.1,7.9-10.5,9.1-10.5,9.1l0.6-7.9c-11.9,8.7-11,18.8-10.9,20.3
	c-0.3-1.9-2.4-16.7-3.5-20.3c-1.2-3.8,1.5-11.4,5.6-10.2c13.3,3.8,16.4-5.8,16.4-5.8c-7,3.2-11.1,0.9-11.1,0.9
	c9.1-8.8,5.3-17,5.3-17c-2.9,8.5-11.1,9.9-11.1,9.9l-0.3-9.4c-3.8,2-7.3,11.1-7.3,11.1s-0.9-7.3,1.8-13.7c2.6-6.4,9.4-3.2,9.4-3.2
	c12,2.3,15.8-9.1,15.8-9.1l-7.9,1.2c8.8-6.4,6.1-14.3,6.1-14.3c-2,5-9.4,5.9-9.4,5.9l3.5-9.4c-7.6,0-12,9.9-12,9.9l-0.6-9.7
	c3.5-12.6-4.7-18.1-4.7-18.1c-1.8,2.3-0.9,7.3-0.9,7.3c-7.3-6.4-12.9,1.2-12.9,1.2c5.6,5.9,10.8,5.3,10.8,5.3
	c-1.8,1.2-8.2,1.8-8.2,1.8c7.3,6.1,11.4,5,11.4,5c3.5,14.9-5.9,21.6-5.9,21.6c-1.8-11.1-8.5-16.4-8.5-16.4l0.3,7.3
	c-4.4-2.6-7.9-10.5-7.9-10.5c-2.9,11.1,5,20.8,5,20.8l-7.3-0.6c6.4,14.9,16.7,10.2,16.7,10.2c-0.9,10.5,2.6,27.8,2.6,27.8
	c-1.5-1.8-17-16.4-17-16.4c-0.6,5.8,5,13.5,5,13.5c-2.9-0.6-11.4-7-11.4-7c0.9,9.4,13.2,15.5,13.2,15.5c-4.7,0.6-13.7-4.7-13.7-4.7
	c5.3,22.5,24.6,12.6,24.6,12.6l1.5,30.5c-4.1-1-13-3.3-22.2-6.5C97.8,309.9,89.6,283,89.6,283L85,293.8c-1.2-22.8-2.6-35.1-2.6-35.1
	l-6.7,7.3c6.4-17.3,11.7-32.5,11.7-32.5l-8.2,3.5c16.1-16.4,15.5-24.9,15.5-24.9c-3.2,5-11.7,9.9-11.7,9.9c2-7.9,8.5-16.1,16.4-16.7
	s16.7-2.9,16.7-2.9c-5.3-0.6-7.9-2.9-7.9-2.9c22.8-2,25.2-8.2,25.2-8.2c-3.5,0.9-14.3-0.3-14.3-0.3c9.1-5,24-9.7,24-9.7
	c-18.4-3.2-34.2,7.3-34.2,7.3c2.6-5,7.3-10.5,7.3-10.5c-22.5,9.9-33.1,32.5-33.1,32.5c-2.6-9.4,3.6-20.5,3.6-20.5
	c-16,9-14.4,44.2-14.4,44.2c-4.1-11.1-3.8-22.2-3.8-22.2c-9.4,13.2-2,44.5-2,44.5c-4.1-3.5-6.1-12.3-6.1-12.3
	c-3.5,21.6,13.2,43.9,13.2,43.9c-7.6-4.1-18.4-18.1-18.4-18.1c7,27.2,31.9,36.3,31.9,36.3c-13.7-5.3-19.6-0.9-19.6-0.9
	c9.7,2,19,7.9,26.6,13.5s17.8,6.7,26.9,7.9c3.7,0.5,6.8,1.1,9.3,1.7c-5,2.4-8.4,7.5-8.4,13.4h29.8c0-5.7-3.2-10.6-7.8-13.1
	c3-0.6,7-1.4,11.3-2c9.1-1.2,18.5-3.6,26.9-7.9c9.1-4.7,17-11.4,26.6-13.5C208.4,305.5,202.6,301.1,188.8,306.4z"/>
</svg>
