<?xml version="1.0" encoding="utf-8"?>
<!-- Generator: Adobe Illustrator 25.0.0, SVG Export Plug-In . SVG Version: 6.00 Build 0)  -->
<svg version="1.1" id="Layer_1" xmlns="http://www.w3.org/2000/svg" xmlns:xlink="http://www.w3.org/1999/xlink" x="0px" y="0px"
	 viewBox="0 0 512 512" style="enable-background:new 0 0 512 512;" xml:space="preserve">
<style type="text/css">
	.st0{fill:#078930;}
	.st1{fill:#FCDD09;}
	.st2{fill:#DA121A;}
	.st3{fill:#0F47AF;}
</style>
<rect y="88.3" class="st0" width="512" height="112"/>
<rect y="200" class="st1" width="512" height="112"/>
<rect y="311.7" class="st2" width="512" height="112"/>
<g id="shield">
	<path class="st3" d="M361.9,256.1c0,58.4-47.4,105.9-105.9,105.9s-105.9-47.5-105.9-105.9c0-58.6,47.4-106,105.9-106
		S361.9,197.5,361.9,256.1L361.9,256.1z"/>
	<g>
		<path class="st1" d="M175.4,229.5H237l13.9-42.9l3.7,11.5l-20.2,62.3l-6-4.4l6.3-19.4h-49.5L175.4,229.5z M206.2,324.2l19-58.5
			l-36.5-26.6h12l53,38.5l-6,4.4l-16.5-12l-15.3,47.2L206.2,324.2L206.2,324.2z M305.8,324.2L256,288.1l-36.4,26.5l3.7-11.3l53-38.6
			l2.3,7.1L262,283.7l40.1,29.2L305.8,324.2L305.8,324.2z M336.6,229.5l-49.8,36.3l13.9,42.9l-9.7-7.1l-20.2-62.3h7.4l6.3,19.4
			l40.1-29.2L336.6,229.5L336.6,229.5L336.6,229.5L336.6,229.5z M256,171l19,58.5h45.1l-9.7,7.2h-65.5l2.3-7.2h20.4l-15.3-47.1
			L256,171z"/>
		<path class="st1" d="M257.8,340.8h-3.5v-45.9h3.5V340.8L257.8,340.8z M336.1,283.8l-43.7-14.1l1.1-3.3l43.7,14.1L336.1,283.8
			L336.1,283.8z M175.9,283.8l-1.1-3.3l43.7-14.1l1.1,3.3L175.9,283.8L175.9,283.8z M280.3,225.7l-2.9-2l27-37.1l2.8,2L280.3,225.7
			L280.3,225.7z M231.8,225.7l-27-37.1l2.9-2l27,37.1L231.8,225.7L231.8,225.7z"/>
	</g>
</g>
</svg>
