<?xml version="1.0" encoding="utf-8"?>
<!-- Generator: Adobe Illustrator 25.0.0, SVG Export Plug-In . SVG Version: 6.00 Build 0)  -->
<svg version="1.1" id="Layer_1" xmlns="http://www.w3.org/2000/svg" xmlns:xlink="http://www.w3.org/1999/xlink" x="0px" y="0px"
	 viewBox="0 0 512 512" style="enable-background:new 0 0 512 512;" xml:space="preserve">
<style type="text/css">
	.st0{fill:#012169;}
	.st1{fill:#FFFFFF;}
	.st2{fill:#C8102E;}
	.st3{fill:#259BFD;}
	.st4{fill:#4C7C28;}
</style>
<polygon class="st0" points="256.1,88 256.1,256.2 0,256.2 0,424 512,424 512,88 "/>
<g id="Union_flag">
	<rect y="88" class="st0" width="256.1" height="168.2"/>
	<g>
		<polygon class="st1" points="106,150.1 106,142.2 22.7,88 0,88 0,105 69.3,150.1 		"/>
		<polygon class="st1" points="106,194.1 70.8,194.1 0,240.1 0,256.2 24.2,256.2 106,202.9 		"/>
		<polygon class="st1" points="233.9,88 150,142.5 150,150.1 187.3,150.1 256.1,105.3 256.1,88 		"/>
		<polygon class="st1" points="150,194.1 150,202.6 232.5,256.2 256.1,256.2 256.1,239.8 185.9,194.1 		"/>
	</g>
	<polygon class="st1" points="256.1,150.1 150,150.1 150,88 106,88 106,150.1 0,150.1 0,194.1 106,194.1 106,256.2 150,256.2 
		150,194.1 256.1,194.1 	"/>
	<polygon class="st2" points="256.1,158.8 141.3,158.8 141.3,88 114.8,88 114.8,158.8 0,158.8 0,185.3 114.8,185.3 114.8,256.2 
		141.3,256.2 141.3,185.3 256.1,185.3 	"/>
	<polygon class="st2" points="97.2,150.1 1.7,88 0,88 0,97.6 80.7,150.1 	"/>
	<polygon class="st2" points="106,194.1 89.6,194.1 0,252.4 0,256.2 10.6,256.2 	"/>
	<polygon class="st2" points="157.3,194.1 252.8,256.2 256.1,256.2 256.1,247.6 173.8,194.1 	"/>
	<polygon class="st2" points="245.4,88 150,150 150,150.1 166.4,150.1 256.1,91.8 256.1,88 	"/>
</g>
<g id="shield" transform="translate(312.000000, 82.000000)">
	<path id="Path_7_" class="st3" d="M1.2,194.2v-90c0-8.5,6.5-15.3,15-15.3h120.5c8.3,0,15,6.8,15,15.3v90
		c0,75.2-75.2,105.3-75.2,105.3S1.2,269.4,1.2,194.2z"/>
	<path id="Shape" class="st1" d="M0.2,194.2v-90c0-8.5,6.5-15.3,15-15.3h120.5c8.3,0,15,6.8,15,15.3v90
		c0,75.2-75.2,105.3-75.2,105.3S0.2,269.4,0.2,194.2z M79.8,280.5c7.9-4.5,15.9-10,23.2-16.7c20.5-18.5,32.6-41.4,32.6-69.7v-90
		c0-0.3-120.4-0.3-120.4-0.3v90.3c0,28.3,12.1,51.2,32.6,69.7c8.3,7.5,17.6,13.9,27.6,19C76.8,282.2,78.2,281.4,79.8,280.5z"/>
	<path id="Path_8_" class="st4" d="M35.1,198.4c-2.6-7.9,1.7-14.3,10.1-14.3h60.5c8.2,0,12.8,6.3,10.1,14.3l-5.5,16.5
		c-2.6,7.9-8.9,9.2-15.8,4c0,0,2.6-6.8-19.1-6.8s-19.1,6.8-19.1,6.8c-6.1,5.7-13.1,4-15.8-4C40.6,215,35.1,198.4,35.1,198.4z"/>
	<path id="Path_9_" class="st1" d="M45.4,184.1c8.1,1.6,17.8-15,30.1-15c13.1,0,21.8,17.1,30.1,15c7.4-1.8,15-22.2,15-30.1
		c0-16.6-20.2-30.1-45.1-30.1S30.4,137.4,30.4,154C30.3,162.5,37,182.5,45.4,184.1z"/>
	<path id="Shape_1_" class="st1" d="M44,275.7c6.2,0.4,12.5-1.8,17.2-6.5l9-9c2.9-2.9,7.5-2.9,10.4,0l0,0l9,9
		c4.7,4.7,11,6.9,17.1,6.5c5.3-0.3,32.5-33.5,25.7-32.6c-4.6,0.6-9.1,2.8-12.7,6.3c0,0,0,0-0.1,0.1l-9,9c-2.9,2.9-7.5,2.9-10.4,0
		l0,0l-9-9c-8.7-8.8-22.9-8.8-31.7-0.1c0,0,0,0-0.1,0.1l-9,9c-2.9,2.9-7.5,2.9-10.4,0l0,0l-9-9c-3.5-3.5-7.8-5.6-12.3-6.3
		C12,242.1,38.8,275.4,44,275.7z M10.1,215c2.9-2.9,7.5-2.9,10.4,0l0,0l9,9c8.8,8.7,22.9,8.7,31.7,0l9-9c2.9-2.9,7.5-2.9,10.4,0l0,0
		l9,9c8.8,8.7,22.9,8.7,31.7,0l9-9c2.9-2.9,7.5-2.9,10.4,0l0,0c0,0,5.5-14.8,2.5-15.9c-7.9-2.9-17.2-1.2-23.5,5.2c0,0,0,0-0.1,0.1
		l-9,9c-2.9,2.9-7.5,2.9-10.4,0l0,0l-9-9c-8.7-8.8-22.9-8.8-31.7-0.1c0,0,0,0-0.1,0.1l-9,9c-2.9,2.9-7.5,2.9-10.4,0l0,0l-9-9
		c-6.2-6.2-15.1-8-22.8-5.5C5.1,200,10.1,215,10.1,215z"/>
</g>
</svg>
