<?xml version="1.0" encoding="utf-8"?>
<!-- Generator: Adobe Illustrator 25.0.0, SVG Export Plug-In . SVG Version: 6.00 Build 0)  -->
<svg version="1.1" id="Layer_1" xmlns="http://www.w3.org/2000/svg" xmlns:xlink="http://www.w3.org/1999/xlink" x="0px" y="0px"
	 viewBox="0 0 512 512" style="enable-background:new 0 0 512 512;" xml:space="preserve">
<style type="text/css">
	.st0{fill:#FFFFFF;}
	.st1{fill:#41479B;}
	.st2{fill:#FF4B55;}
</style>
<g id="Page-1">
	<g id="fo">
		<path id="Path" class="st0" d="M503.2,423.7H8.8c-4.9,0-8.8-4-8.8-8.8V97.1c0-4.9,4-8.8,8.8-8.8h494.3c4.9,0,8.8,4,8.8,8.8v317.8
			C512,419.8,508,423.7,503.2,423.7z"/>
		<polygon id="Path_1_" class="st1" points="512,211.9 229.5,211.9 229.5,88.3 141.2,88.3 141.2,211.9 0,211.9 0,300.1 141.2,300.1 
			141.2,423.7 229.5,423.7 229.5,300.1 512,300.1 		"/>
		<polygon id="Path_2_" class="st2" points="512,229.5 211.9,229.5 211.9,88.3 158.9,88.3 158.9,229.5 0,229.5 0,282.5 158.9,282.5 
			158.9,423.7 211.9,423.7 211.9,282.5 512,282.5 		"/>
	</g>
</g>
</svg>
