<?xml version="1.0" encoding="utf-8"?>
<!-- Generator: Adobe Illustrator 25.0.0, SVG Export Plug-In . SVG Version: 6.00 Build 0)  -->
<svg version="1.1" id="Layer_1" xmlns="http://www.w3.org/2000/svg" xmlns:xlink="http://www.w3.org/1999/xlink" x="0px" y="0px"
	 viewBox="0 0 512 512" style="enable-background:new 0 0 512 512;" xml:space="preserve">
<style type="text/css">
	.st0{fill:#012169;}
	.st1{fill:#FFFFFF;}
	.st2{fill:#C8102E;}
</style>
<rect y="88" class="st0" width="512" height="336"/>
<polygon class="st1" points="211.9,212.1 211.9,196.3 45.4,88 0,88 0,122 138.5,212.1 "/>
<polygon class="st1" points="211.9,299.9 141.5,299.9 0,391.8 0,424 48.4,424 211.9,317.5 "/>
<polygon class="st1" points="467.6,88 299.9,196.9 299.9,212.1 374.5,212.1 512,122.6 512,88 "/>
<polygon class="st1" points="299.9,299.9 299.9,316.9 464.8,424 512,424 512,391.2 371.7,299.9 "/>
<polygon class="st1" points="512,212.1 299.9,212.1 299.9,88 211.9,88 211.9,212.1 0,212.1 0,299.9 211.9,299.9 211.9,424 
	299.9,424 299.9,299.9 512,299.9 "/>
<polygon class="st2" points="512,229.4 282.5,229.4 282.5,88 229.5,88 229.5,229.4 0,229.4 0,282.4 229.5,282.4 229.5,424 
	282.5,424 282.5,282.4 512,282.4 "/>
<polygon class="st2" points="194.3,212.1 3.4,88 0,88 0,107.2 161.3,212.1 "/>
<polygon class="st2" points="211.9,299.9 179.1,299.9 0,416.4 0,424 21.2,424 "/>
<polygon class="st2" points="314.5,299.9 505.4,424 512,424 512,406.8 347.5,299.9 "/>
<polygon class="st2" points="490.6,88 299.9,211.9 299.9,212.1 332.7,212.1 512,95.6 512,88 "/>
</svg>
