<?xml version="1.0" encoding="utf-8"?>
<!-- Generator: Adobe Illustrator 25.0.0, SVG Export Plug-In . SVG Version: 6.00 Build 0)  -->
<svg version="1.1" id="Layer_1" xmlns="http://www.w3.org/2000/svg" xmlns:xlink="http://www.w3.org/1999/xlink" x="0px" y="0px"
	 viewBox="0 0 512 512" style="enable-background:new 0 0 512 512;" xml:space="preserve">
<style type="text/css">
	.st0{fill:#CE1126;}
	.st1{fill:#007A5E;}
	.st2{fill:#FCD116;}
</style>
<path class="st0" d="M0,88.3v336h512v-336H0z M459,370.8H53V141.2H459V370.8z"/>
<polygon class="st1" points="53,141.2 256,256 53,370.8 "/>
<polygon class="st1" points="459,141.2 256,256 459,370.8 "/>
<polygon class="st2" points="53,370.8 53,370.8 459,370.8 459,370.8 256,256 "/>
<polygon class="st2" points="53,141.2 256,256 459,141.2 "/>
<circle class="st0" cx="256" cy="256" r="35.3"/>
<g>
	<path class="st2" d="M258.2,230.1l5.5,16.6l17.5,0.1c2.3,0,3.2,2.9,1.4,4.2l-14,10.4l5.3,16.6c0.7,2.2-1.8,3.9-3.6,2.6L256,270.5
		l-14.2,10.2c-1.8,1.3-4.3-0.5-3.6-2.6l5.3-16.6l-14-10.4c-1.8-1.3-0.9-4.2,1.4-4.2l17.5-0.1l5.5-16.6
		C254.5,228,257.5,228,258.2,230.1z"/>
	<path class="st2" d="M257.3,100l3.3,9.8l10.3,0.1c1.3,0,1.9,1.7,0.8,2.5l-8.3,6.1l3.1,9.8c0.4,1.3-1,2.3-2.1,1.5l-8.4-6l-8.4,6
		c-1.1,0.8-2.5-0.3-2.1-1.5l3.1-9.8l-8.3-6.1c-1.1-0.8-0.5-2.5,0.8-2.5l10.3-0.1l3.3-9.8C255.1,98.7,256.9,98.7,257.3,100z"/>
	<path class="st2" d="M373.5,100l3.3,9.8l10.3,0.1c1.3,0,1.9,1.7,0.8,2.5l-8.3,6.1l3.1,9.8c0.4,1.3-1,2.3-2.1,1.5l-8.4-6l-8.4,6
		c-1.1,0.8-2.5-0.3-2.1-1.5l3.1-9.8l-8.3-6.1c-1.1-0.8-0.5-2.5,0.8-2.5l10.3-0.1l3.3-9.8C371.2,98.7,373,98.7,373.5,100z"/>
	<path class="st2" d="M141.2,100l3.3,9.8l10.3,0.1c1.3,0,1.9,1.7,0.8,2.5l-8.3,6.1l3.1,9.8c0.4,1.3-1,2.3-2.1,1.5l-8.4-6l-8.4,6
		c-1.1,0.8-2.5-0.3-2.1-1.5l3.1-9.8l-8.3-6.1c-1.1-0.8-0.5-2.5,0.8-2.5l10.3-0.1l3.3-9.8C139,98.7,140.8,98.7,141.2,100z"/>
	<path class="st2" d="M257.3,382l3.3,9.8l10.3,0.1c1.3,0,1.9,1.7,0.8,2.5l-8.3,6.1l3.1,9.8c0.4,1.3-1,2.3-2.1,1.5l-8.4-6l-8.4,6
		c-1.1,0.8-2.5-0.3-2.1-1.5l3.1-9.8l-8.3-6.1c-1.1-0.8-0.5-2.5,0.8-2.5l10.3-0.1l3.3-9.8C255.1,380.7,256.9,380.7,257.3,382z"/>
	<path class="st2" d="M373.5,382l3.3,9.8l10.3,0.1c1.3,0,1.9,1.7,0.8,2.5l-8.3,6.1l3.1,9.8c0.4,1.3-1,2.3-2.1,1.5l-8.4-6l-8.4,6
		c-1.1,0.8-2.5-0.3-2.1-1.5l3.1-9.8l-8.3-6.1c-1.1-0.8-0.5-2.5,0.8-2.5l10.3-0.1l3.3-9.8C371.2,380.7,373,380.7,373.5,382z"/>
	<path class="st2" d="M141.2,382l3.3,9.8l10.3,0.1c1.3,0,1.9,1.7,0.8,2.5l-8.3,6.1l3.1,9.8c0.4,1.3-1,2.3-2.1,1.5l-8.4-6l-8.4,6
		c-1.1,0.8-2.5-0.3-2.1-1.5l3.1-9.8l-8.3-6.1c-1.1-0.8-0.5-2.5,0.8-2.5l10.3-0.1l3.3-9.8C139,380.7,140.8,380.7,141.2,382z"/>
	<path class="st2" d="M118.1,233.9H96V256c0,12.2,9.9,22.1,22.1,22.1s22.1-9.9,22.1-22.1S130.3,233.9,118.1,233.9z"/>
</g>
<polygon class="st0" points="140.1,278.1 128,275.7 118.1,256 137.8,265.9 "/>
</svg>
