<?xml version="1.0" encoding="utf-8"?>
<!-- Generator: Adobe Illustrator 25.0.0, SVG Export Plug-In . SVG Version: 6.00 Build 0)  -->
<svg version="1.1" id="Layer_1" xmlns="http://www.w3.org/2000/svg" xmlns:xlink="http://www.w3.org/1999/xlink" x="0px" y="0px"
	 viewBox="0 0 512 512" style="enable-background:new 0 0 512 512;" xml:space="preserve">
<style type="text/css">
	.st0{fill:#FF0000;}
	.st1{fill:#FFFFFF;}
</style>
<polygon class="st0" points="512,229.7 282.5,229.7 282.5,88.3 229.5,88.3 229.5,229.7 0,229.7 0,282.8 229.5,282.8 229.5,424.3 
	282.5,424.3 282.5,282.8 512,282.8 "/>
<g>
	<rect x="282.5" y="88.3" class="st1" width="229.5" height="141.5"/>
	<rect y="282.8" class="st1" width="229.5" height="141.5"/>
	<rect y="88.3" class="st1" width="229.5" height="141.5"/>
	<rect x="282.5" y="282.8" class="st1" width="229.5" height="141.5"/>
</g>
<path class="st0" d="M150.1,146.9c-8.7,0.9-17.3,1.8-25.9,2.6c0.9-8.6,1.8-17.2,2.6-25.9c-8,1-16.1,1-24.1,0
	c0.9,8.8,1.8,17.3,2.6,25.9c-8.6-0.9-17.1-1.8-25.9-2.6c1,8,1,16.1,0,24.2c8.7-0.9,17.3-1.8,25.9-2.6c-0.9,8.6-1.8,17.2-2.6,25.9
	c8-1,16.1-1,24.1,0c-0.9-8.8-1.8-17.3-2.6-25.9c8.6,0.9,17.1,1.8,25.9,2.6C149,163.1,149,155,150.1,146.9z"/>
<path class="st0" d="M432.6,146.9c-8.7,0.9-17.3,1.8-25.9,2.6c0.9-8.6,1.8-17.2,2.6-25.9c-8,1-16.1,1-24.1,0
	c0.9,8.8,1.8,17.3,2.6,25.9c-8.6-0.9-17.1-1.8-25.9-2.6c1,8,1,16.1,0,24.2c8.7-0.9,17.3-1.8,25.9-2.6c-0.9,8.6-1.8,17.2-2.6,25.9
	c8-1,16.1-1,24.1,0c-0.9-8.8-1.8-17.3-2.6-25.9c8.6,0.9,17.1,1.8,25.9,2.6C431.5,163.1,431.5,155,432.6,146.9z"/>
<path class="st0" d="M150.1,341.5c-8.7,0.9-17.3,1.8-25.9,2.6c0.9-8.6,1.8-17.2,2.6-25.9c-8,1-16.1,1-24.1,0
	c0.9,8.8,1.8,17.3,2.6,25.9c-8.6-0.9-17.1-1.8-25.9-2.6c1,8,1,16.1,0,24.2c8.7-0.9,17.3-1.8,25.9-2.6c-0.9,8.6-1.8,17.2-2.6,25.9
	c8-1,16.1-1,24.1,0c-0.9-8.8-1.8-17.3-2.6-25.9c8.6,0.9,17.1,1.8,25.9,2.6C149,357.6,149,349.5,150.1,341.5z"/>
<path class="st0" d="M432.6,341.5c-8.7,0.9-17.3,1.8-25.9,2.6c0.9-8.6,1.8-17.2,2.6-25.9c-8,1-16.1,1-24.1,0
	c0.9,8.8,1.8,17.3,2.6,25.9c-8.6-0.9-17.1-1.8-25.9-2.6c1,8,1,16.1,0,24.2c8.7-0.9,17.3-1.8,25.9-2.6c-0.9,8.6-1.8,17.2-2.6,25.9
	c8-1,16.1-1,24.1,0c-0.9-8.8-1.8-17.3-2.6-25.9c8.6,0.9,17.1,1.8,25.9,2.6C431.5,357.6,431.5,349.5,432.6,341.5z"/>
</svg>
