<?xml version="1.0" encoding="utf-8"?>
<!-- Generator: Adobe Illustrator 25.0.0, SVG Export Plug-In . SVG Version: 6.00 Build 0)  -->
<svg version="1.1" id="Layer_1" xmlns="http://www.w3.org/2000/svg" xmlns:xlink="http://www.w3.org/1999/xlink" x="0px" y="0px"
	 viewBox="0 0 512 512" style="enable-background:new 0 0 512 512;" xml:space="preserve">
<style type="text/css">
	.st0{fill:#0073CE;}
	.st1{fill:#E32118;}
	.st2{fill:#FFFFFF;}
	.st3{fill:#3E9A00;}
	.st4{fill:#FFD700;}
	.st5{fill:#593520;}
	.st6{fill:#885624;}
</style>
<polygon class="st0" points="0,88.3 0,424.3 130,256.3 "/>
<polygon class="st1" points="86.7,312.3 0,424.3 512,424.3 512,312.3 "/>
<polygon class="st2" points="86.7,200.3 130,256.3 86.7,312.3 512,312.3 512,200.3 "/>
<polygon class="st3" points="0,88.3 86.7,200.3 512,200.3 512,88.3 "/>
<g id="shield">
	<path d="M256,308.3c-0.3,0-0.6-0.2-0.7-0.5c-0.1-0.2-2-5.7-9.7-5.7h-10.4c-6.2,0-11.2-5-11.2-11.2v-68.6c0-0.4,0.3-0.8,0.8-0.8
		h64.4c0.4,0,0.8,0.3,0.8,0.8v68.6c0,6.2-5,11.2-11.2,11.2h-12.5c-7.7,0-9.6,5.6-9.7,5.7C256.6,308.1,256.3,308.3,256,308.3
		L256,308.3L256,308.3z M225.6,223.1v67.8c0,5.3,4.3,9.6,9.6,9.6h10.4c6.2,0,9.2,3.3,10.4,5.3c1.2-2,4.2-5.3,10.4-5.3h12.5
		c5.3,0,9.6-4.3,9.6-9.6v-67.8H225.6L225.6,223.1z"/>
	<g>
		<polygon class="st4" points="248,203.8 250,207 253.7,207.1 251.9,210.4 253.7,213.7 250,213.8 248,217 246,213.8 242.3,213.7 
			244,210.4 242.3,207.1 246,207 		"/>
		<polygon class="st4" points="230.4,206.7 233.1,209.3 236.7,208.5 235.8,212.1 238.3,214.9 234.7,215.9 233.5,219.5 230.8,216.8 
			227.2,217.6 228.1,214 225.7,211.2 229.2,210.2 		"/>
		<polygon class="st4" points="213.6,211.6 216.7,213.6 220.1,212.1 220,215.8 223,218 219.7,219.8 219.3,223.5 216.2,221.5 
			212.8,223 212.9,219.3 209.9,217.1 213.2,215.4 		"/>
		<polygon class="st4" points="264,203.8 262,207 258.3,207.1 260.1,210.4 258.3,213.7 262,213.8 264,217 266,213.8 269.7,213.7 
			268,210.4 269.7,207.1 266,207 		"/>
		<polygon class="st4" points="281.6,206.7 278.9,209.3 275.3,208.5 276.2,212.1 273.7,214.9 277.3,215.9 278.5,219.5 281.2,216.8 
			284.8,217.6 283.9,214 286.3,211.2 282.8,210.2 		"/>
		<polygon class="st4" points="298.4,211.6 295.3,213.6 291.9,212.1 292,215.8 289,218 292.3,219.8 292.7,223.5 295.8,221.5 
			299.2,223 299.1,219.3 302.1,217.1 298.8,215.4 		"/>
	</g>
	<path class="st5" d="M265.5,251l-2.5-3.3c-0.2,0.1-2.7,2-5,5.1v-5.5h-2v47.8h7.4c-5.3-10.2-5.4-31-5.4-31.2
		C258,256.7,265.4,251.1,265.5,251z"/>
	<path class="st6" d="M253.9,247.3v5.5c-2.3-3.1-4.8-5-5-5.1l-2.5,3.3c0.1,0.1,7.5,5.7,7.5,12.9c0,0.2-0.1,21-5.4,31.2h7.5v-47.8
		H253.9z"/>
	<path class="st3" d="M276.7,239c-0.1,0-0.2,0-0.4,0c-0.8-2.4-3.1-4.2-5.9-4.2c-1,0-1.9,0.2-2.7,0.7c-0.9-1.6-2.6-2.7-4.5-2.7
		c-0.6,0-1.1,0.1-1.6,0.3c-1.1-2.6-3.7-4.4-6.7-4.4c-3.7,0-6.7,2.8-7.2,6.3c-0.4-0.1-0.7-0.1-1.1-0.1c-4,0-7.3,3.3-7.3,7.3
		c0,0.5,0.1,0.9,0.1,1.4c-1.8,0.6-3.3,2-3.9,3.9c-0.1,0-0.2,0-0.4,0c-2.3,0-4.2,1.9-4.2,4.2c0,2.3,1.9,4.2,4.2,4.2
		c1.1,0,2-0.4,2.8-1.1c0.4,0.3,0.9,0.5,1.4,0.7c0,0,0,0,0,0c0,0,0,0,0,0c0.3,0.1,0.6,0.2,1,0.3c0,0,0,0,0.1,0
		c0.3,0.1,0.7,0.1,1.1,0.1c0,0,0,0,0,0c0,0,0,0,0,0s0,0,0,0c1.1,0,2.2-0.3,3.1-0.9c0.9,0.5,2,0.9,3.1,0.9c0,0,0,0,0,0c0,0,0,0,0,0
		c3.4,0,6.2-2.8,6.2-6.2c0-0.3,0-0.5-0.1-0.8c1,0.5,2,0.8,3.2,0.8c0,0,0,0,0,0s0,0,0,0c1.4,0,2.8-0.4,3.9-1.2
		c1.1,1.9,3.1,3.2,5.4,3.2c0,0,0,0,0,0s0,0,0,0c0.5,0,1-0.1,1.5-0.2c1.1,1.4,2.8,2.3,4.8,2.3c0,0,0,0,0,0c0,0,0,0,0,0
		c1.9,0,3.5-0.8,4.7-2.1c3.2-0.3,5.7-2.9,5.7-6.2C283,241.7,280.2,239,276.7,239z"/>
</g>
</svg>
