<?xml version="1.0" encoding="utf-8"?>
<!-- Generator: Adobe Illustrator 25.0.0, SVG Export Plug-In . SVG Version: 6.00 Build 0)  -->
<svg version="1.1" id="Layer_1" xmlns="http://www.w3.org/2000/svg" xmlns:xlink="http://www.w3.org/1999/xlink" x="0px" y="0px"
	 viewBox="0 0 512 512" style="enable-background:new 0 0 512 512;" xml:space="preserve">
<style type="text/css">
	.st0{fill:#FFFFFF;}
	.st1{fill:#0D5EAF;}
	.st2{fill:#F5F5F5;}
</style>
<rect y="274.5" class="st0" width="512" height="37.3"/>
<rect y="311.7" class="st1" width="512" height="37.3"/>
<rect y="349" class="st0" width="512" height="37.3"/>
<rect y="386.2" class="st1" width="512" height="37.3"/>
<rect y="349.2" class="st2" width="512" height="37.3"/>
<polyline class="st1" points="512,274.6 512,237.2 176.6,237.2 176.6,274.5 "/>
<rect x="176.6" y="200" class="st0" width="335.4" height="37.3"/>
<rect x="176.6" y="162.8" class="st1" width="335.4" height="37.3"/>
<rect x="176.6" y="125.5" class="st0" width="335.4" height="37.3"/>
<polyline class="st1" points="512,88.3 512,125.6 176.6,125.6 176.6,88.3 "/>
<g id="cross">
	<polygon class="st0" points="176.6,162.8 106.9,162.8 106.9,88.3 69.6,88.3 69.6,162.8 0,162.8 0,200.1 69.6,200.1 69.6,274.5 
		106.9,274.5 106.9,200.1 176.6,200.1 	"/>
	<rect y="200.1" class="st1" width="69.6" height="74.4"/>
	<rect y="88.3" class="st1" width="69.6" height="74.5"/>
	<rect x="106.9" y="88.3" class="st1" width="69.6" height="74.5"/>
	<rect x="106.9" y="200.1" class="st1" width="69.6" height="74.4"/>
</g>
</svg>
