<?xml version="1.0" encoding="utf-8"?>
<!-- Generator: Adobe Illustrator 25.0.0, SVG Export Plug-In . SVG Version: 6.00 Build 0)  -->
<svg version="1.1" id="Layer_1" xmlns="http://www.w3.org/2000/svg" xmlns:xlink="http://www.w3.org/1999/xlink" x="0px" y="0px"
	 viewBox="0 0 512 512" style="enable-background:new 0 0 512 512;" xml:space="preserve">
<style type="text/css">
	.st0{fill:#00257C;}
	.st1{fill:#C71B36;}
	.st2{fill:#A3E3FC;}
	.st3{fill:#11A131;}
	.st4{fill:#AD9542;}
	.st5{fill:#00A4EA;}
	.st6{fill:#FFE26D;}
	.st7{fill:#A05106;}
</style>
<rect x="18" y="106" class="st0" width="476" height="300"/>
<path class="st1" d="M494,106v300H18V106H494 M512,88H0v336h512V88L512,88z"/>
<g id="crest">
	<path class="st2" d="M256,167.7c-33.5,17.7-56.2,59.7-56.2,88.3s22.6,70.6,56.2,88.3c33.5-17.7,56.2-59.7,56.2-88.3
		S289.5,185.4,256,167.7z"/>
	<path class="st3" d="M263.2,225.8c5.4-2.9,14.7-6,25.2-2.1c0,0-10.1-11.3-24.2-2.1c3.8-4.6,9.5-10.3,15.6-11.8
		c0,0-12.2-4.6-19.6,11.7c1.4-8.2,1.2-21.2-12.1-28.7c0,0,7.4,15.9,8.1,29.1c-0.4-2.3-1.3-4.8-3.6-7.2c-7-7.3-13.1-7.9-13.1-7.9
		s9.7,10.8,14.5,21c-2.8-3.3-7.6-7.5-15.4-7.3c-18.3,0.6-22.3,11.6-22.3,11.6c7.6-3.2,19.6-4.8,29-4c-12,2.1-16.3,17.1-16.3,17.1
		c9.7-12.1,20.2-14,24.5-14.3c-7.7,6.4-7.2,18.1-7.2,18.1c1.8-6.6,8.7-14.1,12.1-17.5c9.1,9.8,10.2,20.9,10.2,20.9s2-3.3,1.1-10.1
		c-0.9-6.4-4.9-10.6-7.9-13.1c16.1,2.2,26.5,13.9,26.5,13.9C283,227.8,269.8,225.8,263.2,225.8z"/>
	<polygon class="st4" points="238.1,277.3 246.2,263.4 312.6,261.9 308.2,280.3 	"/>
	<path class="st5" d="M202.2,273.7c6.7,26.2,26.6,56.4,53.8,70.6c27.1-14.3,47.1-44.5,53.8-70.6H202.2z"/>
	<g>
		<path class="st6" d="M211.9,300.1c0,0,19.3-1,30.8,3.8c2.9,1.2,3.3,5.1,0.7,6.8c-5.6,3.7-13.8,10.1-13.8,15.9L211.9,300.1z"/>
		<path class="st6" d="M245.7,335.4c-0.7-7.4,5.8-12.7,14.7-16.2c11.6-4.5,5.2-11.7-0.6-16.4c-6.9-5.6,2-7.2,39.5-7.9L281,323.7
			l-25,20.6L245.7,335.4z"/>
	</g>
	<path class="st1" d="M256,349.3l-2.1-1.1c-35-18.4-58.5-62.5-58.5-92.2c0-29.6,23.5-73.8,58.5-92.2l2.1-1.1l2.1,1.1
		c35,18.4,58.5,62.5,58.5,92.2c0,29.6-23.5,73.8-58.5,92.2L256,349.3z M256,172.8c-31.1,17.5-51.8,56.8-51.8,83.2
		s20.7,65.7,51.8,83.2c31.1-17.5,51.8-56.8,51.8-83.2S287.1,190.3,256,172.8z"/>
	<g>
		<path class="st7" d="M274.8,306.4c-0.4,0-0.8-0.1-1.2-0.3c-12-7.5-18.9-20-18.9-34.2v-40.6c0-1.2,1-2.2,2.2-2.2s2.2,1,2.2,2.2
			v40.6c0,12.7,6.1,23.8,16.8,30.5c1,0.7,1.3,2,0.7,3C276.2,306,275.5,306.4,274.8,306.4z"/>
		<circle class="st7" cx="256.9" cy="231.3" r="4.8"/>
	</g>
</g>
</svg>
