<?xml version="1.0" encoding="utf-8"?>
<!-- Generator: Adobe Illustrator 25.0.0, SVG Export Plug-In . SVG Version: 6.00 Build 0)  -->
<svg version="1.1" id="Layer_1" xmlns="http://www.w3.org/2000/svg" xmlns:xlink="http://www.w3.org/1999/xlink" x="0px" y="0px"
	 viewBox="0 0 512 512" style="enable-background:new 0 0 512 512;" xml:space="preserve">
<style type="text/css">
	.st0{fill:#CE1126;}
	.st1{fill:#FCD116;}
	.st2{fill:#009E49;}
</style>
<rect y="88.3" class="st0" width="167.7" height="336"/>
<rect x="167.7" y="88.3" class="st1" width="344.3" height="168"/>
<rect x="167.7" y="255.9" class="st2" width="344.3" height="168"/>
<path d="M82.2,212l-9.7,29.2l-30.8,0.2c-1.7,0-2.4,2.2-1,3.2l24.7,18.3l-9.3,29.3c-0.5,1.6,1.3,2.9,2.7,2l25-17.9l25,17.9
	c1.4,1,3.2-0.4,2.7-2l-9.3-29.3l24.7-18.3c1.4-1,0.7-3.2-1-3.2l-30.8-0.2L85.5,212C85,210.4,82.7,210.4,82.2,212z"/>
</svg>
