<?xml version="1.0" encoding="utf-8"?>
<!-- Generator: Adobe Illustrator 25.0.0, SVG Export Plug-In . SVG Version: 6.00 Build 0)  -->
<svg version="1.1" id="Layer_1" xmlns="http://www.w3.org/2000/svg" xmlns:xlink="http://www.w3.org/1999/xlink" x="0px" y="0px"
	 viewBox="0 0 512 512" style="enable-background:new 0 0 512 512;" xml:space="preserve">
<style type="text/css">
	.st0{fill:#012169;}
	.st1{fill:#FFFFFF;}
	.st2{fill:#C8102E;}
</style>
<polygon class="st0" points="256.6,88 256.6,256.2 0.5,256.2 0.5,424 512.5,424 512.5,88 "/>
<g id="Union_flag">
	<rect x="0.5" y="88" class="st0" width="256.1" height="168.2"/>
	<g>
		<polygon class="st1" points="106.5,150.1 106.5,142.2 23.2,88 0.5,88 0.5,105 69.8,150.1 		"/>
		<polygon class="st1" points="106.5,194.1 71.3,194.1 0.5,240.1 0.5,256.2 24.7,256.2 106.5,202.9 		"/>
		<polygon class="st1" points="234.4,88 150.5,142.5 150.5,150.1 187.8,150.1 256.6,105.3 256.6,88 		"/>
		<polygon class="st1" points="150.5,194.1 150.5,202.6 233,256.2 256.6,256.2 256.6,239.8 186.4,194.1 		"/>
	</g>
	<polygon class="st1" points="256.6,150.1 150.5,150.1 150.5,88 106.5,88 106.5,150.1 0.5,150.1 0.5,194.1 106.5,194.1 106.5,256.2 
		150.5,256.2 150.5,194.1 256.6,194.1 	"/>
	<polygon class="st2" points="256.6,158.8 141.8,158.8 141.8,88 115.3,88 115.3,158.8 0.5,158.8 0.5,185.3 115.3,185.3 115.3,256.2 
		141.8,256.2 141.8,185.3 256.6,185.3 	"/>
	<polygon class="st2" points="97.7,150.1 2.2,88 0.5,88 0.5,97.6 81.2,150.1 	"/>
	<polygon class="st2" points="106.5,194.1 90.1,194.1 0.5,252.4 0.5,256.2 11.1,256.2 	"/>
	<polygon class="st2" points="157.8,194.1 253.3,256.2 256.6,256.2 256.6,247.6 174.3,194.1 	"/>
	<polygon class="st2" points="245.9,88 150.5,150 150.5,150.1 166.9,150.1 256.6,91.8 256.6,88 	"/>
</g>
<g>
	<path class="st1" d="M131.2,304.1l6.7,22l21.4-8.5c1.8-0.7,3.5,1.4,2.4,3l-13,18.9l20,11.4c1.7,1,1.1,3.6-0.8,3.7l-22.9,1.6
		l3.5,22.7c0.3,1.9-2.1,3.1-3.4,1.6l-15.5-16.9l-15.5,16.9c-1.3,1.4-3.7,0.3-3.4-1.6l3.5-22.7l-22.9-1.6c-2-0.1-2.5-2.7-0.8-3.7
		l20-11.4l-13-18.9c-1.1-1.6,0.5-3.7,2.4-3l21.4,8.5l6.7-22C127.9,302.3,130.6,302.3,131.2,304.1z"/>
	<path class="st1" d="M393.8,147.7l3.3,10.7l10.4-4.2c0.9-0.4,1.7,0.7,1.2,1.4l-6.4,9.2l9.8,5.6c0.8,0.5,0.5,1.7-0.4,1.8l-11.2,0.8
		l1.7,11.1c0.1,0.9-1,1.5-1.7,0.8l-7.6-8.3l-7.6,8.3c-0.6,0.7-1.8,0.1-1.7-0.8l1.7-11.1l-11.2-0.8c-1-0.1-1.2-1.3-0.4-1.8l9.8-5.6
		l-6.4-9.2c-0.5-0.8,0.3-1.8,1.2-1.4l10.4,4.2l3.3-10.7C392.2,146.8,393.5,146.8,393.8,147.7z"/>
	<path class="st1" d="M321.2,230.2l3.3,10.8l10.4-4.2c0.9-0.4,1.7,0.7,1.2,1.4l-6.4,9.2l9.8,5.6c0.8,0.5,0.5,1.7-0.4,1.8l-11.2,0.8
		l1.7,11.1c0.1,0.9-1,1.5-1.7,0.8l-7.6-8.3l-7.6,8.3c-0.6,0.7-1.8,0.1-1.7-0.8l1.7-11.1l-11.2-0.8c-1-0.1-1.2-1.3-0.4-1.8l9.8-5.6
		l-6.4-9.2c-0.5-0.8,0.3-1.8,1.2-1.4l10.4,4.2l3.3-10.7C319.6,229.3,320.9,229.3,321.2,230.2z"/>
	<path class="st1" d="M462.4,194.9l3.3,10.7l10.4-4.2c0.9-0.4,1.7,0.7,1.2,1.4l-6.4,9.2l9.8,5.6c0.8,0.5,0.5,1.7-0.4,1.8l-11.2,0.8
		l1.7,11.1c0.1,0.9-1,1.5-1.7,0.8l-7.6-8.1l-7.6,8.3c-0.6,0.7-1.8,0.1-1.7-0.8l1.7-11.1l-11.2-0.8c-1-0.1-1.2-1.3-0.4-1.8l9.8-5.6
		l-6.4-9.2c-0.5-0.8,0.3-1.8,1.2-1.4l10.4,4.2l3.3-10.7C460.9,194,462.2,194,462.4,194.9z"/>
	<path class="st1" d="M393.8,336.1l3.3,10.7l10.4-4.2c0.9-0.4,1.7,0.7,1.2,1.4l-6.4,9.2l9.8,5.6c0.8,0.5,0.5,1.7-0.4,1.8l-11.2,0.8
		l1.7,11.1c0.1,0.9-1,1.5-1.7,0.8l-7.6-8.3l-7.6,8.3c-0.6,0.7-1.8,0.1-1.7-0.8l1.7-11.1l-11.2-0.8c-1-0.1-1.2-1.3-0.4-1.8l9.8-5.6
		l-6.4-9.2c-0.5-0.8,0.3-1.8,1.2-1.4l10.4,4.2l3.3-10.7C392.2,335.2,393.5,335.2,393.8,336.1z"/>
	<path class="st1" d="M419,249.5l-2.6,7.8l-8.3,0.1c-1.1,0-1.5,1.4-0.7,2l6.6,4.9l-2.5,7.9c-0.3,1,0.8,1.9,1.7,1.2l6.7-4.8l6.7,4.8
		c0.9,0.6,2-0.2,1.7-1.2l-2.5-7.9l6.6-4.9c0.9-0.6,0.4-2-0.7-2l-8.3-0.1l-2.6-7.8C420.7,248.5,419.3,248.5,419,249.5z"/>
</g>
</svg>
