<?xml version="1.0" encoding="utf-8"?>
<!-- Generator: Adobe Illustrator 25.0.0, SVG Export Plug-In . SVG Version: 6.00 Build 0)  -->
<svg version="1.1" id="Layer_1" xmlns="http://www.w3.org/2000/svg" xmlns:xlink="http://www.w3.org/1999/xlink" x="0px" y="0px"
	 viewBox="0 0 512 512" style="enable-background:new 0 0 512 512;" xml:space="preserve">
<style type="text/css">
	.st0{fill:#FF0000;}
	.st1{fill:#FFFFFF;}
	.st2{fill:#002B7F;}
	.st3{fill:#0093DD;}
	.st4{fill:#171796;}
	.st5{fill:#F7DB17;}
</style>
<rect y="88.3" class="st0" width="512" height="112"/>
<rect y="200.3" class="st1" width="512" height="112"/>
<rect y="312.3" class="st2" width="512" height="112"/>
<g id="shield">
	<g>
		<rect x="243.6" y="259.5" class="st0" width="24.7" height="28.2"/>
		<rect x="218.9" y="287.8" class="st0" width="24.7" height="28.2"/>
		<rect x="268.4" y="287.8" class="st0" width="24.7" height="28.2"/>
		<path class="st0" d="M268.4,316h-24.7v27c4,0.8,8.1,1.2,12.4,1.2c4.2,0,8.4-0.4,12.4-1.2L268.4,316L268.4,316z"/>
		<rect x="268.4" y="231.3" class="st0" width="24.7" height="28.2"/>
		<rect x="194.2" y="203" class="st0" width="24.7" height="28.2"/>
		<rect x="243.6" y="203" class="st0" width="24.7" height="28.2"/>
		<rect x="218.9" y="231.3" class="st0" width="24.7" height="28.2"/>
		<rect x="293.1" y="203" class="st0" width="24.7" height="28.2"/>
		<path class="st0" d="M218.9,287.8v-28.2h-24.7v23c0,1.8,0.1,3.5,0.3,5.3L218.9,287.8L218.9,287.8z"/>
		<path class="st0" d="M293.1,287.8h24.5c0.1-1.7,0.3-3.5,0.3-5.3v-23h-24.7V287.8z"/>
		<path class="st0" d="M218.9,331.8V316h-14.8C208.1,322.1,213.1,327.5,218.9,331.8z"/>
		<path class="st0" d="M307.8,316h-14.8v15.8C298.9,327.5,303.9,322.1,307.8,316z"/>
	</g>
	<g>
		<path class="st0" d="M317.8,203v79.4c0,34.1-27.7,61.8-61.8,61.8s-61.8-27.7-61.8-61.8V203H317.8 M322.2,198.6h-4.4H194.2h-4.4
			v4.4v79.4c0,36.5,29.7,66.2,66.2,66.2s66.2-29.7,66.2-66.2V203V198.6L322.2,198.6z"/>
	</g>
	<g>
		<rect x="218.9" y="203" class="st1" width="24.7" height="28.2"/>
		<rect x="268.4" y="203" class="st1" width="24.7" height="28.2"/>
		<rect x="194.2" y="231.3" class="st1" width="24.7" height="28.2"/>
		<rect x="243.6" y="231.3" class="st1" width="24.7" height="28.2"/>
		<rect x="293.1" y="231.3" class="st1" width="24.7" height="28.2"/>
		<rect x="218.9" y="259.5" class="st1" width="24.7" height="28.2"/>
		<rect x="268.4" y="259.5" class="st1" width="24.7" height="28.2"/>
		<rect x="243.6" y="287.8" class="st1" width="24.7" height="28.2"/>
		<path class="st1" d="M317.5,287.8h-24.5V316h14.8C313.2,307.8,316.6,298.1,317.5,287.8z"/>
		<path class="st1" d="M204.1,316h14.8v-28.2h-24.4C195.4,298.1,198.8,307.8,204.1,316z"/>
		<path class="st1" d="M218.9,331.8c7.2,5.4,15.6,9.3,24.7,11.2v-27h-24.7V331.8z"/>
		<path class="st1" d="M268.4,343c9.1-1.9,17.5-5.8,24.7-11.2V316h-24.7V343L268.4,343z"/>
	</g>
	<g>
		<path class="st3" d="M211.3,156.3c-5.4-0.8-10.9-1.4-16.5-1.8c-4.3,3.6-8.5,7.3-12.4,11.1c3.9,9.5,7.9,19,11.8,28.5
			c7.9-3.3,16-5.9,24.2-7.9C216.1,176.3,213.7,166.3,211.3,156.3z"/>
		<path class="st3" d="M271,151.6c-4.8-2.4-9.8-4.7-15-6.8c-5.2,2.1-10.2,4.3-15,6.8c0.8,10.3,1.6,20.5,2.4,30.8
			c8.4-0.7,16.8-0.7,25.2,0C269.4,172.1,270.2,161.9,271,151.6z"/>
		<path class="st3" d="M329.6,165.7c-3.9-3.9-8.1-7.6-12.4-11.1c-5.6,0.3-11.1,0.9-16.5,1.8c-2.4,10-4.8,20-7.2,30
			c8.2,2,16.3,4.6,24.2,7.9C321.7,184.7,325.7,175.2,329.6,165.7z"/>
	</g>
	<g>
		<path class="st4" d="M241,151.6c-5.2-1.7-10.5-3.1-15.9-4.3c-4.8,2.8-9.4,5.9-13.8,9c2.4,10,4.8,20,7.2,30c8.2-2,16.6-3.3,25-3.9
			C242.6,172.1,241.8,161.9,241,151.6z"/>
		<path class="st4" d="M300.7,156.3c-4.4-3.2-9-6.2-13.8-9c-5.4,1.2-10.7,2.7-15.9,4.3c-0.8,10.3-1.6,20.5-2.4,30.8
			c8.4,0.7,16.7,2,25,3.9C295.9,176.3,298.3,166.3,300.7,156.3z"/>
	</g>
	<g>
		<path class="st0" d="M242,163.9c-9.3,0.7-18.6,2.2-27.8,4.4c-0.5-2-1-4-1.4-6c9.5-2.3,19.1-3.8,28.8-4.5
			C241.6,159.8,241.8,161.9,242,163.9z"/>
		<path class="st0" d="M242.9,176.2c-8.7,0.7-17.4,2-25.9,4.1c-0.5-2-1-4-1.4-6c8.9-2.1,17.8-3.5,26.9-4.2
			C242.6,172.1,242.8,174.2,242.9,176.2z"/>
		<path class="st0" d="M320.2,188.5c-8.2-3.4-16.6-6.1-25.2-8.2c0.5-2,1-4,1.4-6c8.9,2.1,17.6,4.9,26.1,8.5
			C321.7,184.7,320.9,186.6,320.2,188.5z"/>
	</g>
	<g>
		<path class="st5" d="M318,170c-0.9,2.4-3.8,3.6-6.6,2.6c-2.8-0.9-4.5-3.6-3.8-6s3.7-3.8,6.6-2.8C317.2,164.7,318.8,167.6,318,170z
			"/>
		<path class="st5" d="M204.4,166.6c0.7,2.5-1,5.1-3.8,6c-2.8,0.9-5.7-0.2-6.6-2.6c-0.9-2.4,0.8-5.2,3.7-6.2
			C200.7,162.8,203.7,164.1,204.4,166.6z"/>
		<path class="st5" d="M254.6,162.5c0,2-1.8,3.7-4.1,3.8c-2.3,0.1-4.2-1.5-4.3-3.5c-0.1-2,1.7-3.8,4.1-3.9
			C252.6,158.9,254.6,160.5,254.6,162.5z"/>
		<path class="st5" d="M265.9,162.8c-0.1,2-2.1,3.6-4.3,3.5c-2.3-0.1-4.1-1.7-4.1-3.8c0-2,2-3.7,4.3-3.6
			C264.1,159,266,160.8,265.9,162.8z"/>
		<path class="st5" d="M260,172.1c-0.1,2-1.9,3.7-4,3.7c-2.2,0-3.9-1.6-4-3.7c-0.1-2,1.7-3.8,4-3.7C258.3,168.3,260.1,170,260,172.1
			z"/>
		<path class="st5" d="M285.3,178.3c-2.2-0.4-4.3-0.7-6.5-1c-3.6-0.5-6.2-3.5-5.9-6.9l0,0c0.3-3.4,3.7-5.9,7.6-5.3
			c2.3,0.3,4.6,0.7,7,1.1c3.9,0.7,6.4,4.1,5.6,7.4l0,0C292.3,176.9,288.9,178.9,285.3,178.3z"/>
	</g>
</g>
</svg>
