<?xml version="1.0" encoding="utf-8"?>
<!-- Generator: Adobe Illustrator 25.0.0, SVG Export Plug-In . SVG Version: 6.00 Build 0)  -->
<svg version="1.1" id="Layer_1" xmlns="http://www.w3.org/2000/svg" xmlns:xlink="http://www.w3.org/1999/xlink" x="0px" y="0px"
	 viewBox="0 0 512 512" style="enable-background:new 0 0 512 512;" xml:space="preserve">
<style type="text/css">
	.st0{fill:#FAB446;}
	.st1{fill:#FFFFFF;}
	.st2{fill:#128807;}
	.st3{fill:#000088;}
</style>
<rect y="88.3" class="st0" width="512" height="112"/>
<rect y="200.3" class="st1" width="512" height="112"/>
<rect y="312.3" class="st2" width="512" height="112"/>
<path class="st3" d="M256,208.6c-26.2,0-47.4,21.3-47.4,47.4s21.3,47.4,47.4,47.4s47.4-21.3,47.4-47.4S282.2,208.6,256,208.6z
	 M294.6,255l-24.9-1.2l-5.4,0.5l5.2-1.6l22.6-10.6C293.6,246.2,294.5,250.5,294.6,255z M291.3,240.3l-23.5,8.5l-4.8,2.6l4.2-3.5
	l16.8-18.4C287,232.6,289.5,236.3,291.3,240.3z M282.6,228l-18.4,16.8l-3.5,4.2l2.6-4.8l8.5-23.5C275.7,222.5,279.4,225,282.6,228z
	 M269.8,220l-10.6,22.6l-1.6,5.2l0.5-5.4l-1.2-24.9C261.5,217.5,265.8,218.4,269.8,220z M255,217.4l-1.2,24.9l0.5,5.4l-1.6-5.2
	L242.2,220C246.2,218.4,250.5,217.5,255,217.4z M240.3,220.7l8.5,23.5l2.6,4.8l-3.5-4.2L229.4,228
	C232.6,225,236.3,222.5,240.3,220.7z M228,229.4l16.8,18.4l4.2,3.5l-4.8-2.6l-23.5-8.5C222.5,236.3,225,232.6,228,229.4z M220,242.2
	l22.6,10.6l5.2,1.6l-5.4-0.5l-24.9,1.2C217.5,250.5,218.4,246.2,220,242.2z M217.4,257l24.9,1.2l5.4-0.5l-5.2,1.6L220,269.8
	C218.4,265.8,217.5,261.5,217.4,257z M220.7,271.7l23.5-8.5l4.8-2.6l-4.2,3.5L228,282.6C225,279.4,222.5,275.7,220.7,271.7z
	 M229.4,284l18.4-16.8l3.5-4.2l-2.6,4.8l-8.5,23.5C236.3,289.5,232.6,287,229.4,284z M242.2,292.1l10.6-22.6l1.6-5.2l-0.5,5.4
	l1.2,24.9C250.5,294.5,246.2,293.6,242.2,292.1z M248.7,256c0-4,3.2-7.3,7.3-7.3s7.3,3.2,7.3,7.3s-3.2,7.3-7.3,7.3
	S248.7,260,248.7,256z M257,294.6l1.2-24.9l-0.5-5.4l1.6,5.2l10.6,22.6C265.8,293.6,261.5,294.5,257,294.6z M271.7,291.3l-8.5-23.5
	l-2.6-4.8l3.5,4.2l18.4,16.8C279.4,287,275.7,289.5,271.7,291.3z M284,282.6l-16.8-18.4l-4.2-3.5l4.8,2.6l23.5,8.5
	C289.5,275.7,287,279.4,284,282.6z M292,269.8l-22.6-10.6l-5.2-1.6l5.4,0.5l24.9-1.2C294.5,261.5,293.6,265.8,292,269.8z"/>
<circle class="st3" cx="256" cy="256" r="4.4"/>
</svg>
