<?xml version="1.0" encoding="utf-8"?>
<!-- Generator: Adobe Illustrator 25.0.0, SVG Export Plug-In . SVG Version: 6.00 Build 0)  -->
<svg version="1.1" id="Layer_1" xmlns="http://www.w3.org/2000/svg" xmlns:xlink="http://www.w3.org/1999/xlink" x="0px" y="0px"
	 viewBox="0 0 512 512" style="enable-background:new 0 0 512 512;" xml:space="preserve">
<style type="text/css">
	.st0{fill:#FFFFFF;}
	.st1{fill:#C8102E;}
	.st2{fill:#FFE15A;}
</style>
<rect id="Rectangle" y="88" class="st0" width="512" height="336"/>
<polygon id="Path" class="st1" points="301.2,256 512,117.7 512,88 466.8,88 256,226.3 45.2,88 0,88 0,117.7 210.8,256 0,394.3 
	0,424 45.2,424 256,285.7 466.8,424 512,424 512,394.3 "/>
<g id="shield" transform="translate(229.700000, 7.800000)">
	<polygon id="Path_1_" class="st2" points="4,117.8 26.3,123.4 48.6,117.8 52.6,96.9 37.7,103.4 26.3,88 14.9,103.4 0,96.9 	"/>
	<path id="Path_2_" class="st1" d="M4,117.8c0,0-4,12.9-4,29.9C0,175.6,26.3,189,26.3,189s26.3-15.5,26.3-41.3c0-15.4-4-29.9-4-29.9
		s-8.1-5-22.3-5S4,117.8,4,117.8z"/>
</g>
</svg>
