<?xml version="1.0" encoding="utf-8"?>
<!-- Generator: Adobe Illustrator 25.0.0, SVG Export Plug-In . SVG Version: 6.00 Build 0)  -->
<svg version="1.1" id="Layer_1" xmlns="http://www.w3.org/2000/svg" xmlns:xlink="http://www.w3.org/1999/xlink" x="0px" y="0px"
	 viewBox="0 0 512 512" style="enable-background:new 0 0 512 512;" xml:space="preserve">
<style type="text/css">
	.st0{fill:#CE1126;}
	.st1{fill:#007A3D;}
	.st2{fill:#FFFFFF;}
</style>
<polygon class="st0" points="0,88.3 0,424.3 304.5,256.3 "/>
<polygon class="st1" points="203,312.3 0,424.3 512,424.3 512,312.3 "/>
<polygon class="st2" points="203,200.3 304.5,256.3 203,312.3 512,312.3 512,200.3 "/>
<polygon points="0,88.3 203,200.3 512,200.3 512,88.3 "/>
<path class="st2" d="M95.4,233.2l5.2,11.4l12.2-3c0.8-0.2,1.4,0.6,1,1.3l-5.6,11.2l9.9,7.6c0.6,0.5,0.4,1.5-0.4,1.6l-12.3,2.6
	l0.2,12.5c0,0.8-0.9,1.2-1.5,0.7l-9.7-8l-9.7,8c-0.6,0.5-1.5,0.1-1.5-0.7l0.2-12.5l-12.3-2.6c-0.8-0.2-1-1.1-0.4-1.6l9.9-7.6
	l-5.6-11.2c-0.4-0.7,0.3-1.5,1-1.3l12.2,3l5.2-11.4C94.1,232.5,95.1,232.5,95.4,233.2z"/>
</svg>
