<?xml version="1.0" encoding="utf-8"?>
<!-- Generator: Adobe Illustrator 25.0.0, SVG Export Plug-In . SVG Version: 6.00 Build 0)  -->
<svg version="1.1" id="Layer_1" xmlns="http://www.w3.org/2000/svg" xmlns:xlink="http://www.w3.org/1999/xlink" x="0px" y="0px"
	 viewBox="0 0 512 512" style="enable-background:new 0 0 512 512;" xml:space="preserve">
<style type="text/css">
	.st0{fill:#E8112D;}
	.st1{fill:#FFEF00;}
</style>
<rect x="0" y="87.7" class="st0" width="512" height="336"/>
<g>
	<path class="st1" d="M349.4,282.3c0,0-17.6-2.9-30.6-13.7c-3.8-3.2-9.4-5.6-14.9-7.4c4.4-0.2,9-0.1,13.4,0.8
		c18.1,3.7,35.7-5.1,35.7-5.1s-17.7,1.8-33.1-5.2c-4.2-1.9-9.6-2.8-14.8-3.2c3.8-1.1,7.8-1.9,11.8-2.2c18.5-1,33.3-14,33.3-14
		s-16.7,6.2-33.4,3.3c-4.9-0.8-10.8-0.2-16.4,0.9c3.6-2.3,7.7-4.4,11.8-5.8c17.6-5.8,28.5-22.2,28.5-22.2s-14.5,10.4-31.4,11.9
		c-5,0.5-10.7,2.7-15.8,5.3c3-3.3,6.4-6.5,10.1-9c15.4-10.2,21.6-28.9,21.6-28.9s-11.3,13.8-27.1,19.8c-4.3,1.6-8.8,4.9-12.8,8.4
		c1.9-3.5,4.2-7,6.9-10c12.3-13.8,13.6-33.4,13.6-33.4s-7.4,16.2-21.3,26c-4,2.8-7.8,7.5-10.9,12.2c1-4.2,2.3-8.6,4.3-12.5
		c8.3-16.5,4.4-35.8,4.4-35.8s-2.9,17.6-13.7,30.6c-3.2,3.8-5.6,9.4-7.4,14.9c-0.2-4.4-0.1-9,0.8-13.4c3.7-18.1-5.1-35.7-5.1-35.7
		s1.8,17.7-5.2,33.1c-1.9,4.2-2.8,9.6-3.2,14.8c-1.1-3.8-1.9-7.8-2.2-11.8c-1-18.5-14-33.3-14-33.3s6.2,16.7,3.3,33.4
		c-0.8,4.9-0.2,10.8,0.9,16.4c-2.3-3.6-4.4-7.7-5.8-11.8c-5.8-17.6-22.2-28.5-22.2-28.5s10.4,14.5,11.9,31.4
		c0.5,5,2.7,10.7,5.3,15.8c-3.3-3-6.5-6.4-9-10.1c-10.2-15.4-28.9-21.6-28.9-21.6s13.8,11.3,19.8,27.1c1.6,4.3,4.9,8.8,8.4,12.8
		c-3.5-1.9-7-4.2-10-6.9c-13.8-12.3-33.4-13.6-33.4-13.6s16.2,7.4,26,21.3c2.8,4,7.5,7.8,12.2,10.9c-4.2-1-8.6-2.3-12.5-4.3
		c-16.5-8.3-35.8-4.4-35.8-4.4s17.6,2.9,30.6,13.7c3.8,3.2,9.4,5.6,14.9,7.4c-4.4,0.2-9,0.1-13.4-0.8c-18.1-3.7-35.7,5.1-35.7,5.1
		s17.7-1.8,33.1,5.2c4.2,1.9,9.6,2.8,14.8,3.2c-3.8,1.1-7.8,1.9-11.8,2.2c-18.5,1-33.3,14-33.3,14s16.7-6.2,33.4-3.3
		c4.9,0.8,10.8,0.2,16.4-0.9c-3.6,2.3-7.7,4.4-11.8,5.8c-17.6,5.8-28.5,22.2-28.5,22.2s14.5-10.4,31.4-11.9c5-0.5,10.7-2.7,15.8-5.3
		c-3,3.3-6.4,6.5-10.1,9c-15.4,10.2-21.6,28.9-21.6,28.9s11.3-13.8,27.1-19.8c4.3-1.6,8.8-4.9,12.8-8.4c-1.9,3.5-4.2,7-6.9,10
		c-12.3,13.8-13.6,33.4-13.6,33.4s7.4-16.2,21.3-26c4-2.8,7.8-7.5,10.9-12.2c-1,4.2-2.3,8.6-4.3,12.5c-8.3,16.5-4.4,35.8-4.4,35.8
		s2.9-17.6,13.7-30.6c3.2-3.8,5.6-9.4,7.4-14.9c0.2,4.4,0.1,9-0.8,13.4c-3.7,18.1,5.1,35.7,5.1,35.7s-1.8-17.7,5.2-33.1
		c1.9-4.2,2.8-9.6,3.2-14.8c1.1,3.8,1.9,7.8,2.2,11.8c1,18.5,14,33.3,14,33.3s-6.2-16.7-3.3-33.4c0.8-4.9,0.2-10.8-0.9-16.4
		c2.3,3.6,4.4,7.7,5.8,11.8c5.8,17.6,22.2,28.5,22.2,28.5s-10.4-14.5-11.9-31.4c-0.5-5-2.7-10.7-5.3-15.8c3.3,3,6.5,6.4,9,10.1
		c10.2,15.4,28.9,21.6,28.9,21.6s-13.8-11.3-19.8-27.1c-1.6-4.3-4.9-8.8-8.4-12.8c3.5,1.9,7,4.2,10,6.9
		c13.8,12.3,33.4,13.6,33.4,13.6s-16.2-7.4-26-21.3c-2.8-4-7.5-7.8-12.2-10.9c4.2,1,8.6,2.3,12.5,4.3
		C330.1,286.2,349.4,282.3,349.4,282.3z M256,300.8c-24.8,0-44.8-20.1-44.8-44.8s20.1-44.8,44.8-44.8s44.8,20.1,44.8,44.8
		S280.7,300.8,256,300.8z"/>
	<path class="st1" d="M241.8,237.9c1-0.7,1.9-1.5,2.9-2.2c-6.4-2.9-12.1-4.3-16.1-4.9c-0.6,0.7-1.2,1.4-1.8,2.2
		C230.7,233.8,236,235.2,241.8,237.9z"/>
	<path class="st1" d="M230.5,228.8c4.3,0.5,10.5,1.8,17.5,4.7c1.2-0.7,2.3-1.3,3.5-1.9c-7.5-3.1-14.2-4.2-18.9-4.6
		C231.9,227.7,231.1,228.2,230.5,228.8z"/>
	<path class="st1" d="M252.9,249.6c-0.9-0.8-1.8-1.6-2.7-2.4c-8.4,8-15.7,19.6-19,36.5c1.2,1.1,2.4,2.2,3.7,3.1
		C237.3,269.6,244.5,257.8,252.9,249.6z"/>
	<path class="st1" d="M249.7,242.2c1-0.8,1.9-1.5,2.9-2.2c-1.2-0.7-2.3-1.4-3.5-2c-1,0.7-2,1.3-3,2.1
		C247.3,240.7,248.5,241.4,249.7,242.2z"/>
	<path class="st1" d="M272.9,240c7.2,6.3,13.8,15.2,18.4,27.6c1.2-3.7,2-7.5,2-11.6c0-7.7-2.3-14.9-6.4-20.8
		C283.3,235.9,278.3,237.4,272.9,240z"/>
	<path class="st1" d="M253.2,244.6c0.9,0.7,1.9,1.5,2.8,2.3c0.9-0.8,1.8-1.6,2.8-2.3c-0.9-0.8-1.8-1.5-2.8-2.2
		C255,243.1,254.1,243.8,253.2,244.6z"/>
	<path class="st1" d="M256,233.8c-1.2,0.6-2.3,1.3-3.5,2c1.2,0.6,2.3,1.3,3.5,2c1.2-0.7,2.4-1.4,3.5-2
		C258.3,235,257.2,234.4,256,233.8z"/>
	<path class="st1" d="M227.1,279.4c4-16.1,11.4-27.2,19.7-34.8c-1.2-0.8-2.3-1.6-3.5-2.3c-8,7.1-15.3,17.2-19.8,31.9
		C224.6,276.1,225.8,277.8,227.1,279.4z"/>
	<path class="st1" d="M239.1,240c-5.4-2.7-10.4-4.1-14.1-4.9c-4,6-6.4,13.1-6.4,20.8c0,4.1,0.8,7.9,2,11.6
		C225.3,255.2,231.9,246.3,239.1,240z"/>
	<path class="st1" d="M256,229.6c7.9-3.3,15.3-4.4,20.5-4.8c-5.9-3.9-12.9-6.2-20.5-6.2s-14.6,2.3-20.5,6.2
		C240.7,225.1,248,226.3,256,229.6z"/>
	<path class="st1" d="M256,252.8c-7.4,8.3-13.6,20.1-15.6,37.1c4.8,2.2,10,3.5,15.6,3.5c5.6,0,10.8-1.3,15.6-3.5
		C269.6,272.9,263.4,261,256,252.8z"/>
	<path class="st1" d="M268.6,242.4c-1.2,0.7-2.3,1.5-3.5,2.3c8.3,7.6,15.8,18.7,19.7,34.8c1.3-1.6,2.5-3.3,3.5-5.1
		C283.9,259.6,276.6,249.4,268.6,242.4z"/>
	<path class="st1" d="M280.8,283.7c-3.3-16.9-10.7-28.5-19-36.5c-0.9,0.8-1.8,1.6-2.7,2.4c8.4,8.2,15.6,20,18,37.2
		C278.4,285.9,279.6,284.8,280.8,283.7z"/>
	<path class="st1" d="M260.5,231.7c1.2,0.6,2.3,1.2,3.5,1.9c6.9-3,13.2-4.3,17.5-4.7c-0.7-0.6-1.4-1.1-2.1-1.7
		C274.7,227.5,268,228.6,260.5,231.7z"/>
	<path class="st1" d="M262.3,242.2c1.2-0.8,2.4-1.5,3.6-2.1c-1-0.8-2-1.4-3-2.1c-1.2,0.6-2.3,1.3-3.5,2
		C260.4,240.7,261.3,241.4,262.3,242.2z"/>
	<path class="st1" d="M270.2,237.9c5.8-2.7,11.1-4.1,15-4.9c-0.6-0.7-1.2-1.5-1.8-2.2c-4,0.6-9.7,2-16.1,4.9
		C268.3,236.4,269.2,237.1,270.2,237.9z"/>
</g>
</svg>
