<?xml version="1.0" encoding="utf-8"?>
<!-- Generator: Adobe Illustrator 25.0.0, SVG Export Plug-In . SVG Version: 6.00 Build 0)  -->
<svg version="1.1" id="Layer_1" xmlns="http://www.w3.org/2000/svg" xmlns:xlink="http://www.w3.org/1999/xlink" x="0px" y="0px"
	 viewBox="0 0 512 512" style="enable-background:new 0 0 512 512;" xml:space="preserve">
<style type="text/css">
	.st0{fill:#CE1126;}
	.st1{fill:#003F87;}
	.st2{fill:#FFFFFF;}
	.st3{fill:#FCD116;}
	.st4{fill:#FC9316;}
</style>
<path class="st0" d="M0,88.3V256c25.5,0,25.5,8.8,51.1,8.8c25.6,0,25.6-8.8,51.2-8.8c25.6,0,25.6,8.8,51.2,8.8
	c25.6,0,25.6-8.8,51.3-8.8c25.6,0,25.6,8.8,51.3,8.8c25.6,0,25.6-8.8,51.1-8.8c25.6,0,25.6,8.8,51.2,8.8c25.6,0,25.6-8.8,51.2-8.8
	s25.6,8.8,51.2,8.8c25.6,0,25.6-8.8,51.2-8.8c0,0,0.1,0,0.1,0v21h0V88.3H0z"/>
<path class="st1" d="M102.3,361.9c25.6,0,25.6,8.8,51.2,8.8c25.6,0,25.6-8.8,51.3-8.8s25.6,8.8,51.3,8.8c25.6,0,25.6-8.8,51.1-8.8
	c25.6,0,25.6,8.8,51.2,8.8c25.6,0,25.6-8.8,51.2-8.8s25.6,8.8,51.2,8.8c25.6,0,25.6-8.8,51.2-8.8c0,0,0.1,0,0.1,0v-26.5
	c0,0-0.1,0-0.1,0c-25.6,0-25.6,8.8-51.2,8.8c-25.6,0-25.6-8.8-51.2-8.8s-25.6,8.8-51.2,8.8c-25.6,0-25.6-8.8-51.2-8.8
	c-25.6,0-25.6,8.8-51.1,8.8c-25.6,0-25.6-8.8-51.3-8.8s-25.6,8.8-51.3,8.8c-25.6,0-25.6-8.8-51.2-8.8c-25.6,0-25.6,8.8-51.2,8.8
	c-25.6,0-25.6-8.8-51.1-8.8v26.5c25.5,0,25.5,8.8,51.1,8.8C76.7,370.8,76.7,361.9,102.3,361.9z"/>
<path class="st1" d="M0,309c25.5,0,25.5,8.8,51.1,8.8c25.6,0,25.6-8.8,51.2-8.8c25.6,0,25.6,8.8,51.2,8.8c25.6,0,25.6-8.8,51.3-8.8
	s25.6,8.8,51.3,8.8c25.6,0,25.6-8.8,51.1-8.8c25.6,0,25.6,8.8,51.2,8.8c25.6,0,25.6-8.8,51.2-8.8s25.6,8.8,51.2,8.8
	c25.6,0,25.6-8.8,51.2-8.8c0,0,0.1,0,0.1,0v-26.5c0,0-0.1,0-0.1,0c-25.6,0-25.6,8.8-51.2,8.8c-25.6,0-25.6-8.8-51.2-8.8
	s-25.6,8.8-51.2,8.8c-25.6,0-25.6-8.8-51.2-8.8c-25.6,0-25.6,8.8-51.1,8.8c-25.6,0-25.6-8.8-51.3-8.8s-25.6,8.8-51.3,8.8
	c-25.6,0-25.6-8.8-51.2-8.8c-25.6,0-25.6,8.8-51.2,8.8c-25.6,0-25.6-8.8-51.1-8.8L0,309L0,309z"/>
<path class="st2" d="M0,388.4c25.5,0,25.5,8.8,51.1,8.8c25.6,0,25.6-8.8,51.2-8.8c25.6,0,25.6,8.8,51.2,8.8
	c25.6,0,25.6-8.8,51.3-8.8s25.6,8.8,51.3,8.8c25.6,0,25.6-8.8,51.1-8.8c25.6,0,25.6,8.8,51.2,8.8c25.6,0,25.6-8.8,51.2-8.8
	s25.6,8.8,51.2,8.8c25.6,0,25.6-8.8,51.2-8.8c0,0,0.1,0,0.1,0v-26.5c0,0-0.1,0-0.1,0c-25.6,0-25.6,8.8-51.2,8.8
	c-25.6,0-25.6-8.8-51.2-8.8s-25.6,8.8-51.2,8.8c-25.6,0-25.6-8.8-51.2-8.8c-25.6,0-25.6,8.8-51.1,8.8c-25.6,0-25.6-8.8-51.3-8.8
	s-25.6,8.8-51.3,8.8c-25.6,0-25.6-8.8-51.2-8.8c-25.6,0-25.6,8.8-51.2,8.8c-25.6,0-25.6-8.8-51.1-8.8L0,388.4L0,388.4z"/>
<path class="st2" d="M0,335.5c25.5,0,25.5,8.8,51.1,8.8c25.6,0,25.6-8.8,51.2-8.8c25.6,0,25.6,8.8,51.2,8.8
	c25.6,0,25.6-8.8,51.3-8.8s25.6,8.8,51.3,8.8c25.6,0,25.6-8.8,51.1-8.8c25.6,0,25.6,8.8,51.2,8.8c25.6,0,25.6-8.8,51.2-8.8
	s25.6,8.8,51.2,8.8c25.6,0,25.6-8.8,51.2-8.8c0,0,0.1,0,0.1,0V309c0,0-0.1,0-0.1,0c-25.6,0-25.6,8.8-51.2,8.8
	c-25.6,0-25.6-8.8-51.2-8.8s-25.6,8.8-51.2,8.8c-25.6,0-25.6-8.8-51.2-8.8c-25.6,0-25.6,8.8-51.1,8.8c-25.6,0-25.6-8.8-51.3-8.8
	s-25.6,8.8-51.3,8.8c-25.6,0-25.6-8.8-51.2-8.8c-25.6,0-25.6,8.8-51.2,8.8c-25.6,0-25.6-8.8-51.1-8.8L0,335.5L0,335.5z"/>
<path class="st2" d="M0,282.5c25.5,0,25.5,8.8,51.1,8.8c25.6,0,25.6-8.8,51.2-8.8c25.6,0,25.6,8.8,51.2,8.8
	c25.6,0,25.6-8.8,51.3-8.8s25.6,8.8,51.3,8.8c25.6,0,25.6-8.8,51.1-8.8c25.6,0,25.6,8.8,51.2,8.8c25.6,0,25.6-8.8,51.2-8.8
	s25.6,8.8,51.2,8.8c25.6,0,25.6-8.8,51.2-8.8c0,0,0.1,0,0.1,0V256c0,0-0.1,0-0.1,0c-25.6,0-25.6,8.8-51.2,8.8
	c-25.6,0-25.6-8.8-51.2-8.8s-25.6,8.8-51.2,8.8c-25.6,0-25.6-8.8-51.2-8.8c-25.6,0-25.6,8.8-51.1,8.8c-25.6,0-25.6-8.8-51.3-8.8
	s-25.6,8.8-51.3,8.8c-25.6,0-25.6-8.8-51.2-8.8c-25.6,0-25.6,8.8-51.2,8.8c-25.6,0-25.6-8.8-51.1-8.8L0,282.5L0,282.5z"/>
<g>
	<path class="st3" d="M185.7,245.1c7.6-0.2,10.9,0.5,19.8,8.2c1.3,1.2,2.8,2.1,4.3,2.9c20.7,1.1,22.4,8.7,46.2,8.7
		c23.6,0,25.4-7.5,45.7-8.7c-1.2-0.7-2.4-1.2-3.6-1.7c14.4-2.8,26-15,26-15c-7,3.1-10.3,3.7-21.4,0c-2.8-0.9-5.7-1.2-8.4-1.2
		c12.2-8.1,18.3-23.8,18.3-23.8c-5.3,5.5-8.1,7.3-19.8,8.2c-2.9,0.2-5.7,1-8.3,2.1c8.2-12.2,7.8-29,7.8-29
		c-2.8,7.1-4.6,9.9-15.1,15.2c-2.6,1.3-4.9,3.1-6.8,5.1c2.9-14.4-3.9-29.8-3.9-29.8c0.2,7.6-0.5,10.9-8.2,19.8
		c-1.9,2.2-3.3,4.8-4.4,7.3c-2.8-14.4-15-26-15-26c3.1,7,3.7,10.3,0,21.4c-0.9,2.8-1.2,5.7-1.2,8.4c-8.1-12.2-23.8-18.3-23.8-18.3
		c5.5,5.3,7.3,8.1,8.2,19.8c0.2,2.9,1,5.7,2.1,8.3c-12.2-8.2-29-7.8-29-7.8c7.1,2.8,9.9,4.6,15.2,15.1c1.3,2.6,3.1,4.9,5.1,6.8
		C201.1,238.2,185.7,245.1,185.7,245.1z"/>
</g>
<g>
	<path class="st4" d="M190.9,257.1c3.7-0.7,8.1-1.1,13.8-1.1c25.6,0,25.6,8.8,51.3,8.8c25.6,0,25.6-8.8,51.1-8.8
		c5.7,0,10.1,0.4,13.9,1.1l5.6-1.1l-35.2-7l29.8-20l-35.2,7l19.9-29.9L276.1,226l7-35.2l-20,29.8l-7-35.2l-7,35.2l-20-29.8l7,35.2
		l-29.9-19.9l19.9,29.9l-35.2-7l29.8,20l-35.2,7L190.9,257.1z"/>
</g>
<path class="st3" d="M256,264.8c18.8,0,23.8-4.8,35.3-7.3c0-0.5,0-1,0-1.5c0-19.5-15.8-35.3-35.3-35.3s-35.3,15.8-35.3,35.3
	c0,0.5,0,1,0,1.5C232.2,260.1,237.2,264.8,256,264.8z"/>
<path class="st1" d="M512,388.4c0,0-0.1,0-0.1,0c-25.6,0-25.6,8.8-51.2,8.8c-25.6,0-25.6-8.8-51.2-8.8s-25.6,8.8-51.2,8.8
	c-25.6,0-25.6-8.8-51.2-8.8c-25.6,0-25.6,8.8-51.1,8.8c-25.6,0-25.6-8.8-51.3-8.8c-25.6,0-25.6,8.8-51.3,8.8
	c-25.6,0-25.6-8.8-51.2-8.8c-25.6,0-25.6,8.8-51.2,8.8c-25.6,0-25.6-8.8-51.1-8.8v17.7h0v17.7h8.8h494.3h8.8v-17.7h0
	C512,395.4,512,388.4,512,388.4z"/>
<path class="st3" d="M274.4,135.2c42.9-1.7,64.7-20.4,64.7-20.4c-3.1,1.2-51.2,5.2-65,6.4c-8.7,0.7-19.5,10.7-26.3,17.9
	c-1.8-5-5.4-10.2-12.5-11.2c-14.5-2.1-52.9-4.5-62.4-9l0,0c0,0,6.1,9.5,37.8,13.8c15.2,2.1,23.5,7.3,27.5,10.8l-3.6-0.1
	c0,0,0,0-6.2-3.1c-6.2-3.1-12.3,2.1-12.3,2.1h-9.8c-1.2,0-1.9,1.4-1.2,2.4l0.9,1.3c1,1.3,2.5,2,4.1,2h10
	c3.6,6.2,17.1,12.6,28.2,12.6c11.1,0,45.3-15.2,48.6-15.2l-30.9-1.1L274.4,135.2z"/>
</svg>
