<?xml version="1.0" encoding="utf-8"?>
<!-- Generator: Adobe Illustrator 25.0.0, SVG Export Plug-In . SVG Version: 6.00 Build 0)  -->
<svg version="1.1" id="Layer_1" xmlns="http://www.w3.org/2000/svg" xmlns:xlink="http://www.w3.org/1999/xlink" x="0px" y="0px"
	 viewBox="0 0 512 512" style="enable-background:new 0 0 512 512;" xml:space="preserve">
<style type="text/css">
	.st0{fill:#FFFFFF;}
	.st1{fill:#C60C30;}
	.st2{fill:#00347B;}
</style>
<rect y="88.3" class="st0" width="512" height="336"/>
<path class="st1" d="M305,182.5c-40.6-27-95.4-16-122.4,24.5c-13.6,20.2-8,47.7,12.2,61.2c20.3,13.5,47.6,8,61.2-12.3
	c13.5-20.3,40.9-25.7,61.2-12.3c20.3,13.5,25.8,41,12.2,61.2C356.5,264.4,345.5,209.6,305,182.5"/>
<path class="st2" d="M182.6,207c-13.6,20.2-8,47.7,12.2,61.2c20.3,13.5,47.6,8,61.2-12.3c13.5-20.3,40.9-25.7,61.2-12.3
	c20.3,13.5,25.8,41,12.2,61.2c-27,40.6-81.8,51.5-122.3,24.5C166.6,302.4,155.6,247.6,182.6,207"/>
<g>
	<path d="M349.9,149.2l16,24.1c1.3,2,0.8,4.8-1.2,6.1l-4.1,2.7c-2,1.4-4.8,0.8-6.1-1.2l-16.1-24.1c-1.4-2-0.8-4.8,1.2-6.1l4.1-2.7
		C345.8,146.6,348.6,147.2,349.9,149.2z"/>
	<path d="M374.7,186.4l16.1,24.1c1.4,2,0.8,4.8-1.2,6.1l-4.1,2.7c-2,1.3-4.8,0.8-6.1-1.2L363.2,194c-1.4-2-0.8-4.8,1.2-6.1l4.1-2.7
		C370.6,183.8,373.3,184.3,374.7,186.4z"/>
	<path d="M367.1,137.7l40.8,61.3c1.4,2,0.8,4.8-1.2,6.1l-4.1,2.7c-2,1.4-4.8,0.8-6.1-1.2l-40.8-61.3c-1.4-2-0.8-4.8,1.2-6.1l4.1-2.7
		C363,135.2,365.7,135.7,367.1,137.7z"/>
	<path d="M384.2,126.3l16.1,24.1c1.4,2,0.8,4.8-1.2,6.1l-4.1,2.7c-2,1.3-4.8,0.8-6.1-1.2l-16.1-24.1c-1.4-2-0.8-4.8,1.2-6.1l4.1-2.7
		C380.1,123.7,382.9,124.3,384.2,126.3z"/>
	<path d="M409,163.5l16,24.1c1.4,2,0.8,4.8-1.2,6.1l-4.1,2.7c-2,1.4-4.8,0.8-6.1-1.2l-16-24.1c-1.3-2-0.8-4.8,1.2-6.1l4.1-2.7
		C404.9,161,407.6,161.5,409,163.5z"/>
	<path d="M132.7,294l40.8,61.2c1.4,2,0.8,4.8-1.2,6.1l-4.1,2.7c-2,1.4-4.8,0.8-6.1-1.2l-40.8-61.2c-1.4-2-0.8-4.8,1.2-6.1l4.1-2.7
		C128.6,291.4,131.4,292,132.7,294z"/>
	<path d="M115.6,305.4l16,24c1.4,2,0.8,4.8-1.2,6.1l-4.1,2.7c-2,1.4-4.8,0.8-6.1-1.2l-16-24c-1.4-2-0.8-4.8,1.2-6.1l4.1-2.7
		C111.5,302.9,114.2,303.4,115.6,305.4z"/>
	<path d="M140.4,342.6l16,24.1c1.4,2,0.8,4.8-1.2,6.1l-4.1,2.7c-2,1.4-4.8,0.8-6.1-1.2l-16.1-24.1c-1.4-2-0.8-4.8,1.2-6.1l4.1-2.7
		C136.3,340,139,340.6,140.4,342.6z"/>
	<path d="M98.4,316.9l40.8,61.2c1.4,2,0.8,4.8-1.2,6.1l-4.1,2.7c-2,1.4-4.8,0.8-6.1-1.2L87,324.5c-1.4-2-0.8-4.8,1.2-6.1l4.1-2.7
		C94.3,314.3,97.1,314.8,98.4,316.9z"/>
	<path d="M121.3,210.4l40.8-61.3c1.4-2,4.1-2.6,6.1-1.2l4.1,2.7c2,1.4,2.6,4.1,1.2,6.1L132.7,218c-1.4,2-4.1,2.6-6.1,1.2l-4.1-2.7
		C120.5,215.2,119.9,212.5,121.3,210.4z"/>
	<path d="M104.1,199l40.8-61.3c1.4-2,4.1-2.6,6.1-1.2l4.1,2.7c2,1.4,2.6,4.1,1.2,6.1l-40.8,61.3c-1.4,2-4.1,2.6-6.1,1.2l-4.1-2.7
		C103.3,203.8,102.8,201,104.1,199z"/>
	<path d="M87,187.6l40.8-61.3c1.4-2,4.1-2.6,6.1-1.2l4.1,2.7c2,1.4,2.6,4.1,1.2,6.1l-40.8,61.3c-1.4,2-4.1,2.6-6.1,1.2l-4.1-2.7
		C86.2,192.4,85.6,189.7,87,187.6z"/>
	<path d="M338.5,355.2l16-24c1.4-2,4.1-2.6,6.1-1.2l4.1,2.7c2,1.4,2.6,4.1,1.2,6.1l-16,24c-1.4,2-4.1,2.6-6.1,1.2l-4.1-2.7
		C337.7,360,337.1,357.2,338.5,355.2z"/>
	<path d="M363.2,318.1l16.1-24.2c1.4-2,4.1-2.6,6.1-1.2l4.1,2.7c2,1.4,2.6,4.1,1.2,6.1l-16.1,24.1c-1.4,2-4.1,2.6-6.1,1.2l-4.1-2.7
		C362.4,322.9,361.9,320.2,363.2,318.1z"/>
	<path d="M355.6,366.7l16.1-24.1c1.4-2,4.1-2.6,6.1-1.2l4.1,2.7c2,1.4,2.6,4.1,1.2,6.1l-16,24.1c-1.4,2-4.1,2.6-6.1,1.2l-4.1-2.7
		C354.8,371.5,354.3,368.7,355.6,366.7z"/>
	<path d="M380.4,329.5l16.1-24c1.4-2,4.1-2.6,6.1-1.2l4.1,2.7c2,1.4,2.6,4.1,1.2,6.1l-16.1,24c-1.4,2-4.1,2.6-6.1,1.2l-4.1-2.7
		C379.6,334.2,379,331.5,380.4,329.5z"/>
	<path d="M372.8,378.1l16.1-24.1c1.4-2,4.1-2.6,6.1-1.2l4.1,2.7c2,1.3,2.6,4.1,1.2,6.1l-16.1,24.1c-1.4,2-4.1,2.6-6.1,1.2l-4.1-2.7
		C372,382.9,371.4,380.1,372.8,378.1z"/>
	<path d="M397.6,341l16-24.1c1.4-2,4.1-2.6,6.1-1.2l4.1,2.7c2,1.4,2.6,4.1,1.2,6.1l-16,24.1c-1.3,2-4.1,2.6-6.1,1.2l-4.1-2.7
		C396.8,345.7,396.2,343,397.6,341z"/>
</g>
</svg>
