<?xml version="1.0" encoding="utf-8"?>
<!-- Generator: Adobe Illustrator 25.0.0, SVG Export Plug-In . SVG Version: 6.00 Build 0)  -->
<svg version="1.1" id="Layer_1" xmlns="http://www.w3.org/2000/svg" xmlns:xlink="http://www.w3.org/1999/xlink" x="0px" y="0px"
	 viewBox="0 0 512 512" style="enable-background:new 0 0 512 512;" xml:space="preserve">
<style type="text/css">
	.st0{fill:#012169;}
	.st1{fill:#FFFFFF;}
	.st2{fill:#C8102E;}
	.st3{fill:#FDEC9A;}
	.st4{fill:#FBD66A;}
	.st5{fill:#06A046;}
	.st6{fill:#00571B;}
	.st7{fill:#00584C;}
</style>
<polygon class="st0" points="256.1,88 256.1,256.2 0,256.2 0,424 512,424 512,88 "/>
<g id="Union_flag">
	<rect y="88" class="st0" width="256.1" height="168.2"/>
	<g>
		<polygon class="st1" points="106,150.1 106,142.2 22.7,88 0,88 0,105 69.3,150.1 		"/>
		<polygon class="st1" points="106,194.1 70.8,194.1 0,240.1 0,256.2 24.2,256.2 106,202.9 		"/>
		<polygon class="st1" points="233.9,88 150,142.5 150,150.1 187.3,150.1 256.1,105.3 256.1,88 		"/>
		<polygon class="st1" points="150,194.1 150,202.6 232.5,256.2 256.1,256.2 256.1,239.8 185.9,194.1 		"/>
	</g>
	<polygon class="st1" points="256.1,150.1 150,150.1 150,88 106,88 106,150.1 0,150.1 0,194.1 106,194.1 106,256.2 150,256.2 
		150,194.1 256.1,194.1 	"/>
	<polygon class="st2" points="256.1,158.8 141.3,158.8 141.3,88 114.8,88 114.8,158.8 0,158.8 0,185.3 114.8,185.3 114.8,256.2 
		141.3,256.2 141.3,185.3 256.1,185.3 	"/>
	<polygon class="st2" points="97.2,150.1 1.7,88 0,88 0,97.6 80.7,150.1 	"/>
	<polygon class="st2" points="106,194.1 89.6,194.1 0,252.4 0,256.2 10.6,256.2 	"/>
	<polygon class="st2" points="157.3,194.1 252.8,256.2 256.1,256.2 256.1,247.6 173.8,194.1 	"/>
	<polygon class="st2" points="245.4,88 150,150 150,150.1 166.4,150.1 256.1,91.8 256.1,88 	"/>
</g>
<g id="shield">
	<g>
		<path class="st3" d="M383.8,172.2c0,0-3.7-14.8-14.8-22.1c0,0,11.1,18.5,11.1,33.2L383.8,172.2z"/>
		<path class="st3" d="M366.8,156.2c0,0,7.7,4.7,11.9,12.5l-3.3,7.7C375.3,176.4,372.5,165.4,366.8,156.2z"/>
		<path class="st3" d="M358.2,157.9c0,0,13.4,4.2,19.7,12.8l-3.8,5.8C374.1,176.5,369.1,166.7,358.2,157.9z"/>
		<path class="st3" d="M356.3,164.6c0,0,14.1,2.2,20.4,8.9l-1.6,6.3C375.1,179.8,367.3,170.6,356.3,164.6z"/>
		<path class="st3" d="M356.7,169.2c0,0,13.6,1.4,19.8,8.5c6.2,7.2-2.3,5-2.3,5S367.1,174.5,356.7,169.2z"/>
		<path class="st3" d="M383.8,172.2c0,0,3.7-14.8,14.8-22.1c0,0-11.1,18.5-11.1,33.2L383.8,172.2z"/>
		<path class="st3" d="M400.9,156.2c0,0-7.7,4.7-11.9,12.5l3.3,7.7C392.4,176.4,395.1,165.4,400.9,156.2z"/>
		<path class="st3" d="M409.4,157.9c0,0-13.4,4.2-19.7,12.8l3.8,5.8C393.5,176.5,398.6,166.7,409.4,157.9z"/>
		<path class="st3" d="M411.4,164.6c0,0-14.1,2.2-20.4,8.9l1.6,6.3C392.6,179.8,400.3,170.6,411.4,164.6z"/>
		<path class="st3" d="M410.9,169.2c0,0-13.6,1.4-19.8,8.5c-6.2,7.2,2.3,5,2.3,5S400.6,174.5,410.9,169.2z"/>
		<path class="st3" d="M383.8,150.1c0,0-3.7,7.8,0,11.7C387.5,157.8,383.8,150.1,383.8,150.1z"/>
		<path class="st3" d="M380.1,152c0,0-0.5,8.6,4.4,10.8C386.5,157.8,380.1,152,380.1,152z"/>
		<path class="st3" d="M387.5,152c0,0,0.5,8.6-4.4,10.8C381.2,157.8,387.5,152,387.5,152z"/>
		<path class="st3" d="M388.7,156.9c0,0-3.2,8-8.6,7.9C380.5,159.5,388.7,156.9,388.7,156.9z"/>
		<path class="st3" d="M378.9,156.9c0,0,3.2,8,8.6,7.9C387.2,159.5,378.9,156.9,378.9,156.9z"/>
	</g>
	<ellipse class="st4" cx="383.8" cy="175.9" rx="11.1" ry="14.8"/>
	<g>
		<path class="st5" d="M358.5,191l-2.5-3.9c0,0-7.4,1.8-9.2-3.8l-2.8-0.2c0,0,0.4-3.8,3.7-4.3c0,0,2-2.5,5.5-2
			c3.5,0.5,5.4,3.5,7.4,4.2c2,0.8,2.3,3.3,2.3,3.3l15.5,15.9c0,0-4.5,5.7-8.5,7.5C366,209.6,351.3,200.6,358.5,191z"/>
		<path class="st5" d="M409,193.9c0,0,6.5,4.4,6.7,16.5h-10.7c0,0,0.1-8.2-2-12.6L409,193.9z"/>
		<path class="st5" d="M407.6,194.4c0,0,8.1,2.7,13-3.7l-8.4-1.2L407.6,194.4z"/>
		<path class="st5" d="M405.2,185.5l8.2,2.8c1,0.3,1.4,1.6,0.7,2.4c-3.1,3.5-12.4,11.9-27.4,11.9c-19.5,0-24.5-12.3-24.8-13.2
			c-0.2-0.9-1.3-8.4-1.3-8.4l8.3-0.9L405.2,185.5z"/>
	</g>
	<g>
		<polygon class="st2" points="325.4,298.4 346.9,298.4 335.8,319.9 324.8,305.1 		"/>
		<polygon class="st2" points="442.2,298.4 420.7,298.4 431.8,319.9 442.9,305.1 		"/>
	</g>
	<g>
		<path class="st4" d="M325.4,334.6c-10.6,0-18.7-5.7-19.1-6l8.5-12.1c0.1,0,7.2,4.9,14.5,2.7c7.4-2.2,12.2-10.9,15-17.9l13.7,5.5
			c-5.8,14.5-14.1,23.5-24.7,26.6C330.6,334.3,327.9,334.6,325.4,334.6z"/>
		<path class="st4" d="M442.3,334.6c10.6,0,18.7-5.7,19.1-6l-8.5-12.1c-0.1,0-7.2,4.9-14.5,2.7c-7.4-2.2-12.2-10.9-15-17.9
			l-13.7,5.5c5.8,14.5,14.1,23.5,24.7,26.6C437.1,334.3,439.8,334.6,442.3,334.6z"/>
	</g>
	<path class="st2" d="M431.8,257.1h-96v-35.5c0-4.9,4-8.8,8.8-8.8H423c4.9,0,8.8,4,8.8,8.8L431.8,257.1L431.8,257.1z"/>
	<g>
		<path class="st3" d="M362,238.7l-1.2-7.4c-5.4-0.2-8.5-6.6-8.5-6.6l-4.4,2.4C352.6,238.2,362,238.7,362,238.7z"/>
		<path class="st3" d="M419.8,231.1c1.6-1.2,5.2-1.7,5.2-1.7c-2.5-2.6-5.3-0.8-5.3-0.8c2.3-2.2,1-5.2,1-5.2c0,1-1.6,1.7-1.6,1.7
			c0.1-2-2-3.9-2-3.9l-1.1,1.8c-0.7-1.7-3.2-3-3.2-3l-1,4.2c-2.3-2-6.4-1.8-6.4-1.8l0.8,1.9c-2.5,0.1-9.2,1.5-13.1,1.9
			s-7.1-0.6-7.1-2.4c0-1.5,3.4-1.7,4.9-1.7c1,0.2,2.4,0.6,4.2,1.2c3.5,1,5.5-0.5,5.5-0.5c-1.2-0.5-1.3-1-1.3-1c2.6-1.5,5-1.1,5-1.1
			c-0.9-1.9-4.6-1.8-4.6-1.8c1-0.5,1.7-2.1,1.7-2.1c-0.2,0.2-2.4,0.8-5.3,1.1c-2.2,0.3-4.2,2-5.1,2.7c-2.3-0.2-8.3-0.2-7.3,3.9
			c1.3,5.2,11.7,3.3,18.1,2.3s9.7-0.2,11.1,0.7c1.4,0.8-0.6,3.7-7.1,2.5c-5.6-1-8.7-1-10.4-0.9c-1.9,0.1-3.5,0.6-4.6,0.9
			c-2.5,0.5-12.3,4-14.2-1c-1.8-5-10.8,8.2-10.8,8.2l0.7,0.8l-2.4-0.6c-3.2,4.3-12.9,5.7-12.9,5.7s-1.4-2.6-2.7-2.9
			c-1.2-0.3-1.7,1.6-1.7,1.6s-1.4,0.1-1.6,1.4c-0.1,1.3,1,1.4,1,1.4s-1.4,2,0.9,2.6c0,0-0.2,2.8,3.2,0.9c10.1,1.3,17.5-3.9,20.7-6.7
			c2.1,0.1,5.3,0.1,7.8-1.2c4-2.1,8.6-4.7,11.3-3.7c0,0,2.2,6.6-6.3,6.8c0,0-1.3-1.6-2.5-1.6c-0.5,0-1.1,0.7-0.9,1.2
			c0,0-1.5-0.1-1.7,0.8c-0.2,0.7,0.3,1.5,1.4,1.4c0,0-0.7,1.1,0,1.7s1.7,0,1.7,0s-0.4,1.3,0.5,1.5c0.8,0.1,1.8-1.2,2.1-1.6
			c1.4,0.2,10.6,1.3,12.6-8.4c0,0,4.6,2,9.2,1.6c4.5-0.4,9,0.3,8.6,2.5c-0.5,1.6-1.5,1.5-1.5,1.5c-1.1-0.4-2.9-0.4-3.2,1.2
			c-0.3,1.6,1.9,1.6,1.9,1.6c0.6,1.4,2.3,0.8,2.3,0.8c1.5,1.1,2.5-0.1,2.5-0.1c0.7,0.6,1.3,0.7,2,0.1c0.6-0.5,0.3-4,0.2-5.2
			c-0.1-2.1-0.4-7.5-3.4-7.5c-3-0.1-6.8,1.7-12.2-2.8c-0.3-0.2-0.5-0.4-0.8-0.6c2.5,0.2,4.3,0.9,6.1,1.2
			C411.2,232.9,418.2,232.3,419.8,231.1z"/>
		<path class="st3" d="M348,227.1c0,0-1.5,0-2.2-0.2c-1.2-0.4-1.4-2.3-0.1-2.7c0,0-1.6-1.1-0.9-2.3c0.6-1,2.1-1,2.6-0.4
			c0,0-0.5-1.6,0.9-2.1c1.1-0.4,2,0.9,2,2.5c0,0,1.7-1.4,2.5-0.5c0.6,0.6,0.4,1.5-0.6,3.2C351.3,226.5,348,227.1,348,227.1z"/>
	</g>
	<g>
		<path class="st0" d="M346.1,226.4c0,0-0.8,1.3-3,0.5c0,0,2-0.9,2.2-1.7L346.1,226.4z"/>
		<path class="st0" d="M345.3,222.5c0,0-1.2-0.8-2.6-0.7c0,0,2-1.5,3.7-0.2L345.3,222.5z"/>
		<path class="st0" d="M348.1,220.4c0,0,0.4-1.4-0.4-2.2c0,0,1.6,0.7,1.8,2L348.1,220.4z"/>
		<path class="st0" d="M351.7,221.9c0,0,0.8-1.7,0.1-2.6c0,0,2.1,1.2,1.2,3.2L351.7,221.9z"/>
		<path class="st0" d="M347.6,241.2c0,0-0.8-1.7-1.9-1.7c0,0,2.3-0.8,3.2,1.1L347.6,241.2z"/>
		<path class="st0" d="M345.8,243.3c0,0-1.5-1.2-2.5-0.7c0,0,1.7-1.7,3.4-0.4L345.8,243.3z"/>
		<path class="st0" d="M346.8,246.4c0,0-1.9,0-2.4,0.9c0,0,0.3-2.4,2.5-2.4L346.8,246.4z"/>
		<path class="st0" d="M348.6,248.4c0,0-0.8,1.3-3,0.5c0,0,2-0.9,2.2-1.7L348.6,248.4z"/>
		<path class="st0" d="M382.9,247.7c0,0-0.6,1.1-2.5,0.4c0,0,1.5-0.5,1.7-1.2L382.9,247.7z"/>
	</g>
	<path class="st4" d="M363.4,223.9c0,0-4.2,7.1-3.2,17.3c0,0,12.2-1.8,17.6-14c0,0,1.3-0.5,1.8-1.8c0.4-1.1,0.4-2.8-1.7-2.8
		c0,0,0.6-1.2,1.4-1.5c0,0-1.3-0.5-2.9-0.2c0,0,1.2-1.2,1.2-2.8c0,0-1.8,1.2-3,1.3c0,0-0.1-1.9,0.3-2.1c0,0-2.4,0.2-3.6,1.5
		c0,0-0.8-1.1-0.8-2.2c0,0-2.2,1-3.1,2.4c0,0-0.7-0.8-0.6-1.5c0,0-1.6,2-2,3c0,0-1.5-0.4-2.2,0.8
		C362.2,222.2,362.3,223.2,363.4,223.9z"/>
	<g>
		<path class="st0" d="M381.1,242.6c0,0-0.5-0.9-2-1.1c0,0,1.9-0.9,3.1,0.4L381.1,242.6z"/>
		<path class="st0" d="M411.6,246.1c0,0-1.1,0.3-1.6,1.9c0,0-0.6-2.2,1-3.2L411.6,246.1z"/>
		<path class="st0" d="M413.9,246.9c0,0-1,1-1,2.6c0,0-1.3-1.8-0.1-3.3L413.9,246.9z"/>
		<path class="st0" d="M418.7,246.8c0,0-0.3,1.1,0.6,2.2c0,0-1.9-0.6-2-2.3L418.7,246.8z"/>
		<path class="st0" d="M416.4,247.2c0,0-0.8,0.8-0.6,2.4c0,0-1.5-1.3-0.6-2.9L416.4,247.2z"/>
		<path class="st0" d="M379.5,244.5c0,0-1-0.4-2.2,0.5c0,0,0.8-1.9,2.5-1.8L379.5,244.5z"/>
		<path class="st0" d="M380.8,246.6c0,0-1-0.3-2.2,0.7c0,0,0.2-1.8,1.9-1.9L380.8,246.6z"/>
	</g>
	<path class="st1" d="M431.8,263.1c-8,0-8,7.2-16,7.2c-8,0-8-7.2-16-7.2c-8,0-8,7.2-16,7.2c-8,0-8-7.2-16-7.2s-8,7.2-16,7.2
		c-8,0-8-7.2-16-7.2v-13.3c8,0,8,7.2,16,7.2c8,0,8-7.2,16-7.2c8,0,8,7.2,16,7.2c8,0,8-7.2,16-7.2c8,0,8,7.2,16,7.2c8,0,8-7.2,16-7.2
		V263.1z"/>
	<path class="st0" d="M415.8,270.3c-8,0-8-7.2-16-7.2c-8,0-8,7.2-16,7.2c-8,0-8-7.2-16-7.2s-8,7.2-16,7.2c-8,0-8-7.2-15.9-7.2
		c0.1,3.2,0.5,7.9,1.4,13.5c6.5,0.9,7.1,7.1,14.5,7.1c8,0,8-7.2,16-7.2c8,0,8,7.2,16,7.2c8,0,8-7.2,16-7.2c8,0,8,7.2,16,7.2
		c7.5,0,8-6.2,14.6-7.1c0.9-5.6,1.3-10.3,1.4-13.5C423.8,263.1,423.8,270.3,415.8,270.3z"/>
	<path class="st1" d="M415.8,283.6c-8,0-8-7.2-16-7.2c-8,0-8,7.2-16,7.2c-8,0-8-7.2-16-7.2s-8,7.2-16,7.2c-7.4,0-8-6.2-14.5-7.1
		c0.7,4.4,1.8,9.3,3.5,14.4c3.6,2.1,5.2,6,11.1,6c8,0,8-7.2,16-7.2c8,0,8,7.2,16,7.2c8,0,8-7.2,16-7.2c8,0,8,7.2,16,7.2
		c5.9,0,7.5-3.9,11.1-6c1.6-5.1,2.7-10,3.5-14.4C423.9,277.4,423.3,283.6,415.8,283.6z"/>
	<path class="st0" d="M415.8,297c-8,0-8-7.2-16-7.2c-8,0-8,7.2-16,7.2c-8,0-8-7.2-16-7.2s-8,7.2-16,7.2c-5.9,0-7.5-3.9-11.1-6
		c2,6.3,4.9,12.9,8.9,19c0.7,0.1,1.4,0.3,2.2,0.3c8,0,8-7.2,16-7.2c8,0,8,7.2,16,7.2c8,0,8-7.2,16-7.2c8,0,8,7.2,16,7.2
		c0.8,0,1.5-0.1,2.2-0.3c4-6.1,6.8-12.7,8.9-19C423.3,293,421.7,297,415.8,297z"/>
	<path class="st1" d="M415.8,310.3c-8,0-8-7.2-16-7.2c-8,0-8,7.2-16,7.2c-8,0-8-7.2-16-7.2s-8,7.2-16,7.2c-0.8,0-1.5-0.1-2.2-0.3
		c2.5,3.9,5.5,7.6,9.1,11c2.4-2.1,4.4-4.6,9.1-4.6c8,0,8,7.2,16,7.2c8,0,8-7.2,16-7.2c4.7,0,6.7,2.5,9.1,4.6c3.5-3.4,6.5-7.1,9.1-11
		C417.3,310.2,416.6,310.3,415.8,310.3z"/>
	<path class="st0" d="M408.9,321c-2.5-2.1-4.4-4.6-9.1-4.6c-8,0-8,7.2-16,7.2c-8,0-8-7.2-16-7.2c-4.7,0-6.7,2.5-9.1,4.6
		c6.4,6.1,14.6,11,25.1,13.7C394.3,332,402.5,327.1,408.9,321z"/>
	<g>
		<path class="st1" d="M399.8,249.7c-8,0-8,7.2-16,7.2c-8,0-8-7.2-16-7.2s-8,7.2-16,7.2c-8,0-8-7.2-16-7.2c0,4.6,0,8.5,0,11.1
			c0,0.6,0,1.4,0,2.3c7.9,0,8,7.2,15.9,7.2c8,0,8-7.2,16-7.2c8,0,8,7.2,16,7.2c8,0,8-7.2,16-7.2c8,0,8,7.2,16,7.2c8,0,8-7.2,16-7.2
			c0-0.9,0-1.6,0-2.3c0-2.6,0-6.5,0-11.1c-8,0-8,7.2-16,7.2C407.8,257,407.8,249.7,399.8,249.7z"/>
		<path class="st1" d="M428.1,212.8c2,0,3.7,1.7,3.7,3.7v33.2v7.4c0,1.4,0,2.7,0,3.7c0,0.6,0,1.4,0,2.3c-0.1,3.2-0.5,7.9-1.4,13.5
			c-0.7,4.4-1.8,9.3-3.5,14.4c-2,6.3-4.9,12.9-8.9,19c-2.5,3.9-5.5,7.6-9.1,11c-6.4,6.1-14.6,11-25.1,13.6
			c-10.5-2.6-18.7-7.6-25.1-13.7c-3.5-3.4-6.5-7.1-9.1-11c-4-6.1-6.8-12.7-8.9-19c-1.6-5.1-2.7-10-3.5-14.4
			c-0.9-5.6-1.3-10.3-1.4-13.5c0-0.9,0-1.6,0-2.3c0-1,0-2.3,0-3.7v-7.4v-33.2c0-2,1.7-3.7,3.7-3.7L428.1,212.8 M428.1,210.1h-88.6
			c-3.6,0-6.5,2.9-6.5,6.5v33.2v7.4v3.7c0,0.7,0,1.5,0,2.4c0.1,3,0.4,7.9,1.4,13.9c0.9,5.1,2.1,10.1,3.6,14.8
			c2.3,7.3,5.4,13.9,9.2,19.7c2.8,4.3,5.9,8.1,9.5,11.5c7.3,7,16.2,11.8,26.4,14.3l0.7,0.2l0.7-0.2c10.1-2.5,19-7.4,26.4-14.3
			c3.5-3.3,6.7-7.2,9.5-11.5c3.8-5.8,6.8-12.4,9.2-19.7c1.5-4.7,2.7-9.7,3.6-14.8c1-6,1.3-10.8,1.4-13.9c0-0.9,0-1.7,0-2.4v-3.7
			v-7.4v-33.2C434.6,213,431.7,210.1,428.1,210.1L428.1,210.1z"/>
	</g>
	<polygon class="st6" points="383.8,312.3 373.7,319.4 377.3,307.6 367.4,300.1 379.8,299.9 383.8,288.2 387.9,299.9 400.2,300.1 
		390.4,307.6 394,319.4 	"/>
	<path class="st3" d="M383.8,290.5l3.5,10.1l10.7,0.2l-8.5,6.5l3.1,10.3l-8.8-6.1l-8.8,6.1l3.1-10.3l-8.5-6.5l10.7-0.2L383.8,290.5
		 M383.8,285.9l-1.4,4.1l-3.2,9.1l-9.7,0.2l-4.3,0.1l3.4,2.6l7.7,5.8l-2.8,9.3l-1.2,4.1l3.5-2.5l7.9-5.5l7.9,5.5l3.5,2.5l-1.2-4.1
		l-2.8-9.3l7.7-5.8l3.4-2.6l-4.3-0.1l-9.7-0.2l-3.2-9.1L383.8,285.9L383.8,285.9z"/>
	<polygon class="st6" points="361.6,283.5 351.5,290.6 355,278.8 345.2,271.3 357.5,271.1 361.6,259.4 365.6,271.1 378,271.3 
		368.1,278.8 371.7,290.6 	"/>
	<path class="st3" d="M361.6,261.7l3.5,10.1l10.7,0.2l-8.5,6.5l3.1,10.3l-8.8-6.1l-8.8,6.1l3.1-10.3l-8.5-6.5l10.7-0.2L361.6,261.7
		 M361.6,257.1l-1.4,4.1l-3.2,9.1l-9.7,0.2l-4.3,0.1l3.4,2.6l7.7,5.8l-2.8,9.3l-1.2,4.1l3.5-2.5l7.9-5.5l7.9,5.5l3.5,2.5l-1.2-4.1
		L369,279l7.7-5.8l3.4-2.6l-4.3-0.1l-9.7-0.2l-3.2-9.1L361.6,257.1L361.6,257.1z"/>
	<polygon class="st6" points="405.9,283.5 395.7,290.6 399.3,278.8 389.5,271.3 401.8,271.1 405.9,259.4 409.9,271.1 422.3,271.3 
		412.4,278.8 416,290.6 	"/>
	<path class="st3" d="M405.9,261.7l3.5,10.1l10.7,0.2l-8.5,6.5l3.1,10.3l-8.8-6.1l-8.8,6.1l3.1-10.3l-8.5-6.5l10.7-0.2L405.9,261.7
		 M405.9,257.1l-1.4,4.1l-3.2,9.1l-9.7,0.2l-4.3,0.1l3.4,2.6l7.7,5.8l-2.8,9.3l-1.2,4.1l3.5-2.5l7.9-5.5l7.9,5.5l3.5,2.5l-1.2-4.1
		l-2.8-9.3l7.7-5.8l3.4-2.6l-4.3-0.1l-9.7-0.2l-3.2-9.1L405.9,257.1L405.9,257.1z"/>
	<path class="st3" d="M442.2,298.4c-9.2,23.3-31.9,39.9-58.4,39.9s-49.2-16.6-58.4-39.9l-13.7,5.4c11.3,28.8,39.3,49.3,72.1,49.3
		s60.8-20.5,72.1-49.3L442.2,298.4z"/>
	<g>
		<polygon class="st1" points="391.2,212.8 380.1,212.8 376.4,201.8 387.5,201.8 		"/>
		<path class="st1" d="M409.7,212.8h-7.4l-2.5-7.4h3.4c2.4,0,4.5,1.5,5.3,3.8L409.7,212.8z"/>
		<path class="st1" d="M369.1,212.8h-7.4l-0.8-2.5c-0.8-2.4,1-4.9,3.5-4.9h2.3L369.1,212.8z"/>
	</g>
	<g>
		<path class="st0" d="M402.3,212.8h-11.1l-3.7-11.1h8.4c1.6,0,3,1,3.5,2.5L402.3,212.8z"/>
		<path class="st0" d="M380.1,212.8h-11.1l-2.5-7.5c-0.6-1.8,0.7-3.6,2.6-3.6h7.3L380.1,212.8z"/>
	</g>
	<path class="st7" d="M410.9,187.2c-2.9,4.2-11,9.1-24.1,9.1c-10.8,0-17.8-6.5-20.1-9.1c-0.6-0.6-0.9-1.4-0.9-2.3v-2.5
		c0-1.1,0.6-2.1,1.5-2.6c2.3-1.4,7.8-3.5,18.5-3.5C399.1,176.3,410.9,187.2,410.9,187.2z"/>
</g>
</svg>
