<?xml version="1.0" encoding="utf-8"?>
<!-- Generator: Adobe Illustrator 25.0.0, SVG Export Plug-In . SVG Version: 6.00 Build 0)  -->
<svg version="1.1" id="Layer_1" xmlns="http://www.w3.org/2000/svg" xmlns:xlink="http://www.w3.org/1999/xlink" x="0px" y="0px"
	 viewBox="0 0 512 512" style="enable-background:new 0 0 512 512;" xml:space="preserve">
<style type="text/css">
	.st0{fill:#00AFCA;}
	.st1{fill:#FEC50C;}
</style>
<rect y="87.7" class="st0" width="512" height="336"/>
<g>
	<path class="st1" d="M59.5,128.4c-0.8-3.4-1-4.6,0.5-6.1c0.7-0.7,0.7-1.9,0-2.7s-1.9-0.7-2.7,0c-3.1,3.1-2.3,6.3-1.5,9.6
		c-2.4-0.8-4.9-0.2-6.3,1.5c-0.7,0.8-2,3.2,0.5,7c0.6,0.9,1.7,1.1,2.6,0.6c0.9-0.6,1.1-1.7,0.6-2.6c-0.9-1.4-0.9-2.3-0.7-2.6
		c0.3-0.4,1.2-0.6,2.2-0.2c0.6,0.2,2.1,1,2.1,3.3c0,1.8-0.8,3.5-2.3,4.6c-1.5,1.1-3.4,1.4-5.2,0.8c-2.3-0.7-3.8-3.1-3.8-5.8
		c0-2,0.4-3.9,1.2-5.7c0.1-0.3,3-6.3,3.8-8.5c1.5-4.4,0-6.6-1-7.6c-1.4-1.2-3.4-1.6-5.1-0.8c-0.3,0.1-0.5,0.3-0.7,0.4
		c-0.2-0.2-0.4-0.3-0.7-0.4c-1.7-0.8-3.7-0.4-5.1,0.8c-1,0.9-2.5,3.2-1,7.6c0.7,2.2,3.6,8.2,3.7,8.4c0.8,1.8,1.2,3.8,1.2,5.7
		c0,2.7-1.6,5.1-3.8,5.8c-1.8,0.6-3.7,0.3-5.2-0.8c-1.5-1.1-2.3-2.8-2.3-4.6c0-2.3,1.5-3,2.1-3.3c1-0.3,1.9-0.1,2.2,0.2
		c0.3,0.3,0.2,1.2-0.7,2.6c-0.6,0.9-0.3,2.1,0.6,2.6c0.9,0.6,2.1,0.3,2.6-0.6c2.4-3.8,1.1-6.2,0.5-7c-1.3-1.7-3.9-2.3-6.3-1.5
		c0.8-3.4,1.5-6.6-1.5-9.6c-0.7-0.7-1.9-0.7-2.7,0s-0.7,1.9,0,2.7c1.5,1.5,1.3,2.8,0.5,6.1c-0.5,2-1.1,4.6-1.1,7.7
		c0,2.1,0.7,4.1,2,5.7h-0.1c-1,0-1.9,0.8-1.9,1.9c0,1,0.8,1.9,1.9,1.9h0.1c-1.2,1.6-2,3.6-2,5.7c0,3.1,0.6,5.6,1.1,7.7
		c0.8,3.4,1,4.6-0.5,6.1c-0.7,0.7-0.7,1.9,0,2.7c0.4,0.4,0.9,0.6,1.3,0.6c0.5,0,1-0.2,1.3-0.6c3.1-3.1,2.3-6.3,1.5-9.6
		c2.4,0.8,4.9,0.2,6.3-1.5c0.7-0.8,2-3.2-0.5-7c-0.6-0.9-1.7-1.1-2.6-0.6c-0.9,0.6-1.1,1.7-0.6,2.6c0.9,1.4,0.9,2.3,0.7,2.6
		c-0.3,0.4-1.2,0.6-2.2,0.2c-0.6-0.2-2.1-1-2.1-3.3c0-1.8,0.8-3.5,2.3-4.6c1.5-1.1,3.4-1.4,5.2-0.8c2.3,0.7,3.8,3.1,3.8,5.8
		c0,2-0.4,3.9-1.2,5.7L28,185.3c-1,2.3-1.5,4.7-1.5,7.2c0,3.2,1.5,6.2,3.8,8c-2.3,1.8-3.8,4.8-3.8,8c0,2.5,0.5,5,1.5,7.2l12.4,27.9
		c0.8,1.8,1.2,3.8,1.2,5.7c0,2.7-1.6,5.1-3.8,5.8c-1.8,0.6-3.7,0.3-5.2-0.8c-1.5-1.1-2.3-2.8-2.3-4.6c0-2.3,1.5-3,2.1-3.3
		c1-0.3,1.9-0.1,2.2,0.2c0.3,0.3,0.2,1.2-0.7,2.6c-0.6,0.9-0.3,2.1,0.6,2.6c0.9,0.6,2.1,0.3,2.6-0.6c2.4-3.8,1.1-6.2,0.5-7
		c-1.3-1.7-3.9-2.3-6.3-1.5c0.8-3.4,1.5-6.6-1.5-9.6c-0.7-0.7-1.9-0.7-2.7,0c-0.7,0.7-0.7,1.9,0,2.7c1.5,1.5,1.3,2.8,0.5,6.1
		c-0.5,2-1.1,4.6-1.1,7.7c0,2.1,0.7,4.1,2,5.7h-0.1c-1,0-1.9,0.8-1.9,1.9s0.8,1.9,1.9,1.9h0.1c-1.2,1.6-2,3.6-2,5.7
		c0,3.1,0.6,5.6,1.1,7.7c0.8,3.4,1,4.6-0.5,6.1c-0.7,0.7-0.7,1.9,0,2.7c0.4,0.4,0.9,0.6,1.3,0.6c0.5,0,1-0.2,1.3-0.6
		c3.1-3.1,2.3-6.3,1.5-9.6c2.4,0.8,4.9,0.2,6.3-1.5c0.7-0.8,2-3.2-0.5-7c-0.6-0.9-1.7-1.1-2.6-0.6c-0.9,0.6-1.1,1.7-0.6,2.6
		c0.9,1.4,0.9,2.3,0.7,2.6c-0.3,0.4-1.2,0.6-2.2,0.2c-0.6-0.2-2.1-1-2.1-3.3c0-1.8,0.8-3.5,2.3-4.6c1.5-1.1,3.4-1.4,5.2-0.8
		c2.3,0.7,3.8,3.1,3.8,5.8c0,2-0.4,3.9-1.2,5.7L28,299c-1,2.3-1.5,4.7-1.5,7.2c0,3.2,1.5,6.2,3.8,8c-2.3,1.8-3.8,4.8-3.8,8
		c0,2.5,0.5,5,1.5,7.2l12.4,27.9c0.8,1.8,1.2,3.8,1.2,5.7c0,2.7-1.6,5.1-3.8,5.8c-1.8,0.6-3.7,0.3-5.2-0.8c-1.5-1.1-2.3-2.8-2.3-4.6
		c0-2.3,1.5-3,2.1-3.3c1-0.3,1.9-0.1,2.2,0.2c0.3,0.3,0.2,1.2-0.7,2.6c-0.6,0.9-0.3,2.1,0.6,2.6c0.9,0.6,2.1,0.3,2.6-0.6
		c2.4-3.8,1.1-6.2,0.5-7c-1.3-1.7-3.9-2.3-6.3-1.5c0.8-3.4,1.5-6.6-1.5-9.6c-0.7-0.7-1.9-0.7-2.7,0c-0.7,0.7-0.7,1.9,0,2.7
		c1.5,1.5,1.3,2.8,0.5,6.1c-0.5,2-1.1,4.6-1.1,7.7c0,3,1.4,5.8,3.8,7.6c-2.4,1.8-3.8,4.6-3.8,7.6c0,3.1,0.6,5.6,1.1,7.7
		c0.8,3.4,1,4.6-0.5,6.1c-0.7,0.7-0.7,1.9,0,2.7c0.4,0.4,0.9,0.6,1.3,0.6c0.5,0,1-0.2,1.3-0.6c3.1-3.1,2.3-6.3,1.5-9.6
		c2.4,0.8,4.9,0.2,6.3-1.5c0.7-0.8,2-3.2-0.5-7c-0.6-0.9-1.7-1.1-2.6-0.6c-0.9,0.6-1.1,1.7-0.6,2.6c0.9,1.4,0.9,2.3,0.7,2.6
		c-0.3,0.4-1.2,0.6-2.2,0.2c-0.6-0.2-2.1-1-2.1-3.3c0-1.8,0.8-3.5,2.3-4.6c1.5-1.1,3.4-1.4,5.2-0.8c2.3,0.7,3.8,3.1,3.8,5.8
		c0,2-0.4,3.9-1.2,5.7c-0.1,0.3-3,6.3-3.8,8.5c-1.5,4.4,0,6.6,1,7.6c0.9,0.8,2,1.2,3.2,1.2c0.7,0,1.3-0.1,1.9-0.4
		c0.3-0.1,0.5-0.3,0.7-0.4c0.2,0.2,0.4,0.3,0.7,0.4c0.6,0.3,1.3,0.4,1.9,0.4c1.1,0,2.3-0.4,3.2-1.2c1-0.9,2.5-3.2,1-7.6
		c-0.7-2.2-3.6-8.2-3.7-8.4c-0.8-1.8-1.2-3.8-1.2-5.7c0-2.7,1.6-5.1,3.8-5.8c1.8-0.6,3.7-0.3,5.2,0.8c1.5,1.1,2.3,2.8,2.3,4.6
		c0,2.3-1.5,3-2.1,3.3c-1,0.3-1.9,0.1-2.2-0.2c-0.3-0.3-0.2-1.2,0.7-2.6c0.6-0.9,0.3-2.1-0.6-2.6c-0.9-0.6-2.1-0.3-2.6,0.6
		c-2.4,3.8-1.1,6.2-0.5,7c1.3,1.7,3.9,2.3,6.3,1.5c-0.8,3.4-1.5,6.6,1.5,9.6c0.4,0.4,0.9,0.6,1.3,0.6s1-0.2,1.3-0.6
		c0.7-0.7,0.7-1.9,0-2.7c-1.5-1.5-1.3-2.8-0.5-6.1c0.5-2,1.1-4.6,1.1-7.7c0-3-1.4-5.8-3.8-7.6c2.4-1.8,3.8-4.6,3.8-7.6
		c0-3.1-0.6-5.6-1.1-7.7c-0.8-3.4-1-4.6,0.5-6.1c0.7-0.7,0.7-1.9,0-2.7s-1.9-0.7-2.7,0c-3.1,3.1-2.3,6.3-1.5,9.6
		c-2.4-0.8-4.9-0.2-6.3,1.5c-0.7,0.8-2,3.2,0.5,7c0.6,0.9,1.7,1.1,2.6,0.6c0.9-0.6,1.1-1.7,0.6-2.6c-0.9-1.4-0.9-2.3-0.7-2.6
		c0.3-0.4,1.2-0.6,2.2-0.2c0.6,0.2,2.1,1,2.1,3.3c0,1.8-0.8,3.5-2.3,4.6c-1.5,1.1-3.4,1.4-5.2,0.8c-2.3-0.7-3.8-3.1-3.8-5.8
		c0-2,0.4-3.9,1.2-5.7l12.4-27.9c1-2.3,1.5-4.7,1.5-7.2c0-3.2-1.5-6.2-3.8-8c2.3-1.8,3.8-4.8,3.8-8c0-2.5-0.5-5-1.5-7.2l-12.4-27.9
		c-0.8-1.8-1.2-3.8-1.2-5.7c0-2.7,1.6-5.1,3.8-5.8c1.8-0.6,3.7-0.3,5.2,0.8c1.5,1.1,2.3,2.8,2.3,4.6c0,2.3-1.5,3-2.1,3.3
		c-1,0.3-1.9,0.1-2.2-0.2c-0.3-0.3-0.2-1.2,0.7-2.6c0.6-0.9,0.3-2.1-0.6-2.6c-0.9-0.6-2.1-0.3-2.6,0.6c-2.4,3.8-1.1,6.2-0.5,7
		c1.3,1.7,3.9,2.3,6.3,1.5c-0.8,3.4-1.5,6.6,1.5,9.6c0.4,0.4,0.9,0.6,1.3,0.6s1-0.2,1.3-0.6c0.7-0.7,0.7-1.9,0-2.7
		c-1.5-1.5-1.3-2.8-0.5-6.1c0.5-2,1.1-4.6,1.1-7.7c0-2.1-0.7-4.1-2-5.7h0.1c1,0,1.9-0.8,1.9-1.9c0-1-0.8-1.9-1.9-1.9h-0.1
		c1.2-1.6,2-3.6,2-5.7c0-3.1-0.6-5.6-1.1-7.7c-0.8-3.4-1-4.6,0.5-6.1c0.7-0.7,0.7-1.9,0-2.7s-1.9-0.7-2.7,0
		c-3.1,3.1-2.3,6.3-1.5,9.6c-2.4-0.8-4.9-0.2-6.3,1.5c-0.7,0.8-2,3.2,0.5,7c0.6,0.9,1.7,1.1,2.6,0.6c0.9-0.6,1.1-1.7,0.6-2.6
		c-0.9-1.4-0.9-2.3-0.7-2.6c0.3-0.4,1.2-0.6,2.2-0.2c0.6,0.2,2.1,1,2.1,3.3c0,1.8-0.8,3.5-2.3,4.6c-1.5,1.1-3.4,1.4-5.2,0.8
		c-2.3-0.7-3.8-3.1-3.8-5.8c0-2,0.4-3.9,1.2-5.7l12.4-27.9c1-2.3,1.5-4.7,1.5-7.2c0-3.2-1.5-6.2-3.8-8c2.3-1.8,3.8-4.8,3.8-8
		c0-2.5-0.5-5-1.5-7.2l-12.4-27.9c-0.8-1.8-1.2-3.8-1.2-5.7c0-2.7,1.6-5.1,3.8-5.8c1.8-0.6,3.7-0.3,5.2,0.8c1.5,1.1,2.3,2.8,2.3,4.6
		c0,2.3-1.5,3-2.1,3.3c-1,0.3-1.9,0.1-2.2-0.2c-0.3-0.3-0.2-1.2,0.7-2.6c0.6-0.9,0.3-2.1-0.6-2.6c-0.9-0.6-2.1-0.3-2.6,0.6
		c-2.4,3.8-1.1,6.2-0.5,7c1.3,1.7,3.9,2.3,6.3,1.5c-0.8,3.4-1.5,6.6,1.5,9.6c0.4,0.4,0.9,0.6,1.3,0.6s1-0.2,1.3-0.6
		c0.7-0.7,0.7-1.9,0-2.7c-1.5-1.5-1.3-2.8-0.5-6.1c0.5-2,1.1-4.6,1.1-7.7c0-2.1-0.7-4.1-2-5.7h0.1c1,0,1.9-0.8,1.9-1.9
		c0-1-0.8-1.9-1.9-1.9h-0.1c1.2-1.6,2-3.6,2-5.7C60.6,133,60,130.5,59.5,128.4z M40.3,120.4c-0.7-2-0.4-3.2,0-3.6
		c0.3-0.3,0.7-0.3,1-0.1c0.3,0.2,0.3,0.4,0.3,0.5c0,1,0.8,1.9,1.9,1.9c1,0,1.9-0.8,1.9-1.9c0-0.1,0-0.4,0.3-0.5
		c0.3-0.1,0.7-0.1,1,0.1c0.4,0.4,0.7,1.6,0,3.6c-0.5,1.5-2.3,5.3-3.3,7.3C42.6,125.7,40.8,121.8,40.3,120.4z M43.5,198.6
		c0.5,0.7,1.2,1.4,1.9,2c-0.7,0.6-1.4,1.2-1.9,2c-0.5-0.7-1.2-1.4-1.9-2C42.4,200,43,199.3,43.5,198.6z M43.5,312.2
		c0.5,0.7,1.2,1.4,1.9,2c-0.7,0.6-1.4,1.2-1.9,2c-0.5-0.7-1.2-1.4-1.9-2C42.4,313.7,43,313,43.5,312.2z M46.8,394.4
		c0.7,2,0.4,3.2,0,3.6c-0.3,0.3-0.7,0.3-1,0.1c-0.3-0.2-0.3-0.4-0.3-0.5c0-1-0.8-1.9-1.9-1.9s-1.9,0.8-1.9,1.9c0,0.1,0,0.4-0.3,0.5
		c-0.3,0.1-0.7,0.1-1-0.1c-0.4-0.4-0.7-1.6,0-3.6c0.5-1.5,2.3-5.3,3.3-7.3C44.5,389.1,46.3,392.9,46.8,394.4z M45.4,371.1
		c-0.7,0.6-1.4,1.2-1.9,2c-0.5-0.8-1.2-1.4-1.9-2c0.7-0.6,1.4-1.2,1.9-2C44.1,369.9,44.7,370.5,45.4,371.1z M55.6,327.9L43.5,355
		l-12.1-27.1c-0.8-1.8-1.2-3.8-1.2-5.7c0-2.7,1.6-5.1,3.8-5.8c1.8-0.6,3.7-0.3,5.2,0.8c1.5,1.1,2.3,2.8,2.3,4.6c0,2.3-1.5,3-2.1,3.3
		c-1,0.3-1.9,0.1-2.2-0.2c-0.3-0.3-0.2-1.2,0.7-2.6c0.6-0.9,0.3-2.1-0.6-2.6c-0.9-0.6-2.1-0.3-2.6,0.6c-2.4,3.8-1.1,6.2-0.5,7
		c1.4,1.7,4,2.3,6.4,1.5c0.3-0.1,0.6-0.2,0.8-0.4v4.8c0,0,0,0,0,0c-0.1-1-0.9-1.8-1.9-1.8c-1,0-1.9,0.8-1.9,1.9c0,1.2,0.9,3.4,3.8,4
		v3.5c0,1,0.8,1.9,1.9,1.9s1.9-0.8,1.9-1.9v-3.5c2.9-0.7,3.8-2.8,3.8-4c0-1-0.8-2-1.9-2c-1,0-1.9,0.8-1.9,1.8c0,0,0,0,0,0v-4.8
		c0.3,0.1,0.6,0.3,0.8,0.4c2.5,0.9,5,0.3,6.4-1.5c0.7-0.8,2-3.2-0.5-7c-0.6-0.9-1.7-1.1-2.6-0.6c-0.9,0.6-1.1,1.7-0.6,2.6
		c0.9,1.4,0.9,2.3,0.7,2.6c-0.3,0.4-1.2,0.6-2.2,0.2c-0.6-0.2-2.1-1-2.1-3.3c0-1.8,0.8-3.5,2.3-4.6c1.5-1.1,3.4-1.4,5.2-0.8
		c2.3,0.7,3.8,3.1,3.8,5.8C56.8,324.2,56.4,326.1,55.6,327.9z M55.6,300.5c0.8,1.8,1.2,3.8,1.2,5.7c0,2.7-1.6,5.1-3.8,5.8
		c-1.8,0.6-3.7,0.3-5.2-0.8c-1.5-1.1-2.3-2.8-2.3-4.6c0-2.3,1.5-3,2.1-3.3c1-0.3,1.9-0.1,2.2,0.2c0.3,0.3,0.2,1.2-0.7,2.6
		c-0.6,0.9-0.3,2.1,0.6,2.6c0.9,0.6,2.1,0.3,2.6-0.6c2.4-3.8,1.1-6.2,0.5-7c-1.4-1.7-4-2.3-6.4-1.5c-0.3,0.1-0.6,0.2-0.8,0.4v-4.8
		l0,0c0.1,1,0.9,1.8,1.9,1.8c1,0,1.9-0.8,1.9-1.9c0-1.2-0.9-3.4-3.8-4v-3.5c0-1-0.8-1.9-1.9-1.9s-1.9,0.8-1.9,1.9v3.5
		c-2.9,0.7-3.8,2.8-3.8,4c0,1,0.8,2,1.9,2c1,0,1.9-0.8,1.9-1.8c0,0,0,0,0,0l0,4.8c-0.3-0.1-0.6-0.3-0.8-0.4c-2.5-0.9-5-0.3-6.4,1.5
		c-0.7,0.8-2,3.2,0.5,7c0.6,0.9,1.7,1.1,2.6,0.6c0.9-0.6,1.1-1.7,0.6-2.6c-0.9-1.4-0.9-2.3-0.7-2.6c0.3-0.4,1.2-0.6,2.2-0.2
		c0.6,0.2,2.1,1,2.1,3.3c0,1.8-0.8,3.5-2.3,4.6c-1.5,1.1-3.4,1.4-5.2,0.8c-2.3-0.7-3.8-3.1-3.8-5.8c0-2,0.4-3.9,1.2-5.7l12.1-27.1
		L55.6,300.5z M45.4,257.4c-0.7,0.6-1.4,1.2-1.9,2c-0.5-0.8-1.2-1.4-1.9-2c0.7-0.6,1.4-1.2,1.9-2C44.1,256.2,44.7,256.8,45.4,257.4z
		 M55.6,214.2l-12.1,27.1l-12.1-27.1c-0.8-1.8-1.2-3.8-1.2-5.7c0-2.7,1.6-5.1,3.8-5.8c1.8-0.6,3.7-0.3,5.2,0.8
		c1.5,1.1,2.3,2.8,2.3,4.6c0,2.3-1.5,3-2.1,3.3c-1,0.3-1.9,0.1-2.2-0.2c-0.3-0.3-0.2-1.2,0.7-2.6c0.6-0.9,0.3-2.1-0.6-2.6
		c-0.9-0.6-2.1-0.3-2.6,0.6c-2.4,3.8-1.1,6.2-0.5,7c1.4,1.7,4,2.3,6.4,1.5c0.3-0.1,0.6-0.2,0.8-0.4v4.8l0,0c-0.1-1-0.9-1.8-1.9-1.8
		c-1,0-1.9,0.8-1.9,1.9c0,1.2,0.9,3.4,3.8,4v3.5c0,1,0.8,1.9,1.9,1.9s1.9-0.8,1.9-1.9v-3.5c2.9-0.7,3.8-2.8,3.8-4c0-1-0.8-2-1.9-2
		c-1,0-1.9,0.8-1.9,1.8c0,0,0,0,0,0l0-4.8c0.3,0.1,0.6,0.3,0.8,0.4c2.5,0.9,5,0.3,6.4-1.5c0.7-0.8,2-3.2-0.5-7
		c-0.6-0.9-1.7-1.1-2.6-0.6c-0.9,0.6-1.1,1.7-0.6,2.6c0.9,1.4,0.9,2.3,0.7,2.6c-0.3,0.4-1.2,0.6-2.2,0.2c-0.6-0.2-2.1-1-2.1-3.3
		c0-1.8,0.8-3.5,2.3-4.6c1.5-1.1,3.4-1.4,5.2-0.8c2.3,0.7,3.8,3.1,3.8,5.8C56.8,210.5,56.4,212.5,55.6,214.2z M55.6,186.9
		c0.8,1.8,1.2,3.8,1.2,5.7c0,2.7-1.6,5.1-3.8,5.8c-1.8,0.6-3.7,0.3-5.2-0.8c-1.5-1.1-2.3-2.8-2.3-4.6c0-2.3,1.5-3,2.1-3.3
		c1-0.3,1.9-0.1,2.2,0.2c0.3,0.3,0.2,1.2-0.7,2.6c-0.6,0.9-0.3,2.1,0.6,2.6c0.9,0.6,2.1,0.3,2.6-0.6c2.4-3.8,1.1-6.2,0.5-7
		c-1.4-1.7-4-2.3-6.4-1.5c-0.3,0.1-0.6,0.2-0.8,0.4v-4.8c0,0,0,0,0,0c0.1,1,0.9,1.8,1.9,1.8c1,0,1.9-0.8,1.9-1.9
		c0-1.2-0.9-3.4-3.8-4V174c0-1-0.8-1.9-1.9-1.9s-1.9,0.8-1.9,1.9v3.5c-2.9,0.7-3.8,2.8-3.8,4c0,1,0.8,2,1.9,2c1,0,1.9-0.8,1.9-1.8
		c0,0,0,0,0,0v4.8c-0.3-0.1-0.6-0.3-0.8-0.4c-2.5-0.9-5-0.3-6.4,1.5c-0.7,0.8-2,3.2,0.5,7c0.6,0.9,1.7,1.1,2.6,0.6
		c0.9-0.6,1.1-1.7,0.6-2.6c-0.9-1.4-0.9-2.3-0.7-2.6c0.3-0.4,1.2-0.6,2.2-0.2c0.6,0.2,2.1,1,2.1,3.3c0,1.8-0.8,3.5-2.3,4.6
		c-1.5,1.1-3.4,1.4-5.2,0.8c-2.3-0.7-3.8-3.1-3.8-5.8c0-2,0.4-3.9,1.2-5.7l12.1-27.1L55.6,186.9z M41.6,143.7c0.7-0.6,1.4-1.2,1.9-2
		c0.5,0.8,1.2,1.4,1.9,2c-0.7,0.6-1.4,1.2-1.9,2C43,144.9,42.4,144.3,41.6,143.7z"/>
	<circle class="st1" cx="270.7" cy="235" r="45.6"/>
	<path class="st1" d="M274.2,176.9c0,1.9-1.5,3.4-3.4,3.4c-1.9,0-3.4-1.5-3.4-3.4s3.4-10.3,3.4-10.3S274.2,175,274.2,176.9z"/>
	<path class="st1" d="M267.3,293.2c0-1.9,1.5-3.4,3.4-3.4c1.9,0,3.4,1.5,3.4,3.4s-3.4,10.3-3.4,10.3S267.3,295.1,267.3,293.2z"/>
	<path class="st1" d="M328.9,238.5c-1.9,0-3.4-1.5-3.4-3.4s1.5-3.4,3.4-3.4c1.9,0,10.3,3.4,10.3,3.4S330.8,238.5,328.9,238.5z"/>
	<path class="st1" d="M212.6,231.6c1.9,0,3.4,1.5,3.4,3.4s-1.5,3.4-3.4,3.4s-10.3-3.4-10.3-3.4S210.7,231.6,212.6,231.6z"/>
	<path class="st1" d="M314.3,196.3c-1.3,1.3-3.5,1.3-4.8,0s-1.3-3.5,0-4.8s9.7-4.8,9.7-4.8S315.6,195,314.3,196.3z"/>
	<path class="st1" d="M227.2,273.7c1.3-1.3,3.5-1.3,4.8,0s1.3,3.5,0,4.8s-9.7,4.8-9.7,4.8S225.9,275.1,227.2,273.7z"/>
	<path class="st1" d="M309.4,278.6c-1.3-1.3-1.3-3.5,0-4.8s3.5-1.3,4.8,0s4.8,9.7,4.8,9.7S310.8,279.9,309.4,278.6z"/>
	<path class="st1" d="M232,191.5c1.3,1.3,1.3,3.5,0,4.8s-3.5,1.3-4.8,0s-4.8-9.7-4.8-9.7S230.7,190.2,232,191.5z"/>
	<path class="st1" d="M251.7,180c0.7,1.7-0.1,3.7-1.9,4.5c-1.7,0.7-3.7-0.1-4.5-1.9c-0.7-1.7-0.8-10.8-0.8-10.8
		S250.9,178.3,251.7,180z"/>
	<path class="st1" d="M289.8,290.1c-0.7-1.7,0.1-3.7,1.9-4.5s3.7,0.1,4.5,1.9s0.8,10.8,0.8,10.8S290.6,291.8,289.8,290.1z"/>
	<path class="st1" d="M325.8,215.9c-1.7,0.7-3.7-0.1-4.5-1.9s0.1-3.7,1.9-4.5c1.7-0.7,10.8-0.8,10.8-0.8S327.5,215.2,325.8,215.9z"
		/>
	<path class="st1" d="M215.7,254.1c1.7-0.7,3.7,0.1,4.5,1.9c0.7,1.7-0.1,3.7-1.9,4.5s-10.8,0.8-10.8,0.8S214,254.9,215.7,254.1z"/>
	<path class="st1" d="M296.2,182.6c-0.7,1.7-2.7,2.6-4.5,1.9c-1.7-0.7-2.6-2.7-1.9-4.5c0.7-1.7,7.1-8.2,7.1-8.2
		S296.9,180.9,296.2,182.6z"/>
	<path class="st1" d="M245.3,287.5c0.7-1.7,2.7-2.6,4.5-1.9c1.7,0.7,2.6,2.7,1.9,4.5c-0.7,1.7-7.1,8.2-7.1,8.2
		S244.6,289.2,245.3,287.5z"/>
	<path class="st1" d="M323.2,260.4c-1.7-0.7-2.6-2.7-1.9-4.5c0.7-1.7,2.7-2.6,4.5-1.9s8.2,7.1,8.2,7.1S324.9,261.2,323.2,260.4z"/>
	<path class="st1" d="M218.3,209.6c1.7,0.7,2.6,2.7,1.9,4.5c-0.7,1.7-2.7,2.6-4.5,1.9c-1.7-0.7-8.2-7.1-8.2-7.1
		S216.6,208.9,218.3,209.6z"/>
	<path class="st1" d="M262.8,177.3c0.4,1.9-0.8,3.7-2.7,4c-1.9,0.4-3.7-0.8-4-2.7c-0.4-1.9,1.4-10.7,1.4-10.7
		S262.4,175.5,262.8,177.3z"/>
	<path class="st1" d="M278.7,292.7c-0.4-1.9,0.8-3.7,2.7-4c1.9-0.4,3.7,0.8,4,2.7c0.4,1.9-1.4,10.7-1.4,10.7
		S279.1,294.6,278.7,292.7z"/>
	<path class="st1" d="M328.4,227c-1.9,0.4-3.7-0.8-4-2.7c-0.4-1.9,0.8-3.7,2.7-4c1.9-0.4,10.7,1.4,10.7,1.4S330.3,226.7,328.4,227z"
		/>
	<path class="st1" d="M213,243c1.9-0.4,3.7,0.8,4,2.7c0.4,1.9-0.8,3.7-2.7,4c-1.9,0.4-10.7-1.4-10.7-1.4S211.2,243.4,213,243z"/>
	<path class="st1" d="M305.9,188.6c-1,1.6-3.2,2-4.7,0.9s-2-3.2-0.9-4.7c1-1.6,8.5-6.6,8.5-6.6S306.9,187,305.9,188.6z"/>
	<path class="st1" d="M235.6,281.5c1-1.6,3.2-2,4.7-0.9c1.6,1,2,3.2,0.9,4.7c-1,1.6-8.5,6.6-8.5,6.6S234.5,283.1,235.6,281.5z"/>
	<path class="st1" d="M317.2,270.2c-1.6-1-2-3.2-0.9-4.7s3.2-2,4.7-0.9c1.6,1,6.6,8.5,6.6,8.5S318.8,271.2,317.2,270.2z"/>
	<path class="st1" d="M224.3,199.9c1.6,1,2,3.2,0.9,4.7c-1,1.6-3.2,2-4.7,0.9s-6.6-8.5-6.6-8.5S222.7,198.8,224.3,199.9z"/>
	<path class="st1" d="M241.3,184.8c1,1.6,0.6,3.7-0.9,4.7s-3.7,0.6-4.7-0.9c-1-1.6-2.9-10.4-2.9-10.4S240.2,183.2,241.3,184.8z"/>
	<path class="st1" d="M300.2,285.3c-1-1.6-0.6-3.7,0.9-4.7c1.6-1,3.7-0.6,4.7,0.9c1,1.6,2.9,10.4,2.9,10.4S301.3,286.9,300.2,285.3z
		"/>
	<path class="st1" d="M321,205.6c-1.6,1-3.7,0.6-4.7-0.9c-1-1.6-0.6-3.7,0.9-4.7c1.6-1,10.4-2.9,10.4-2.9S322.6,204.5,321,205.6z"/>
	<path class="st1" d="M220.5,264.5c1.6-1,3.7-0.6,4.7,0.9c1,1.6,0.6,3.7-0.9,4.7c-1.6,1-10.4,2.9-10.4,2.9S218.9,265.5,220.5,264.5z
		"/>
	<path class="st1" d="M285.4,178.7c-0.4,1.9-2.2,3.1-4,2.7s-3.1-2.2-2.7-4s5.4-9.4,5.4-9.4S285.8,176.8,285.4,178.7z"/>
	<path class="st1" d="M256,291.4c0.4-1.9,2.2-3.1,4-2.7s3.1,2.2,2.7,4c-0.4,1.9-5.4,9.4-5.4,9.4S255.7,293.3,256,291.4z"/>
	<path class="st1" d="M327.1,249.7c-1.9-0.4-3.1-2.2-2.7-4c0.4-1.9,2.2-3.1,4-2.7s9.4,5.4,9.4,5.4S329,250.1,327.1,249.7z"/>
	<path class="st1" d="M214.4,220.3c1.9,0.4,3.1,2.2,2.7,4s-2.2,3.1-4,2.7s-9.4-5.4-9.4-5.4S212.5,220,214.4,220.3z"/>
	<path class="st1" d="M378,247c-1.3-0.6-2.9,0.1-3.4,1.4c0,0,0,0,0,0c0,0-0.1,0.1-0.2,0.4c-2,4.6-6.1,11.4-10.2,17.7
		c3.8-12.4,7.4-25.6,7.6-26.5c0.4-1.4-0.5-2.8-1.8-3.2c-1.4-0.4-2.8,0.4-3.2,1.8c-1.8,6.4-5.5,14.9-8.9,22.1
		c0.6-8,0.7-15.4,0.7-15.9c0-1.4-1.1-2.6-2.5-2.7c-1.3,0-2.6,1-2.7,2.4c-3.3,46.1-47.7,66.7-52,68.6c-2.3,0.2-12.8,1.4-22.3,4.7
		c-1.1,0.4-2,0.8-2.9,1.1c-0.3-0.1-0.7-0.2-1.1-0.2c-29.3,2.1-52.7-9.9-69.5-35.7C193,263.7,189,243.2,189,243
		c-0.3-1.4-1.6-2.3-3.1-2.1c-1.4,0.3-2.4,1.6-2.1,3.1c0.1,0.6,1.9,9.5,6.7,21.2c-6.4-10.2-10.9-22.5-12.5-28.9
		c0-0.1-0.1-0.2-0.2-0.3c-0.1-0.2-0.1-0.4-0.2-0.5c-0.1-0.1-0.2-0.2-0.3-0.3c-0.1-0.2-0.3-0.3-0.5-0.4c-0.1-0.1-0.2-0.1-0.3-0.1
		c-0.2-0.1-0.4-0.2-0.6-0.2c-0.1,0-0.3,0-0.5,0c-0.2,0-0.3,0-0.5,0c0,0-0.1,0-0.1,0c0,0-0.1,0-0.1,0c-0.1,0-0.2,0.1-0.4,0.2
		c-0.2,0.1-0.3,0.1-0.5,0.2c-0.1,0.1-0.2,0.2-0.4,0.3c-0.1,0.1-0.2,0.2-0.3,0.4c-0.1,0.1-0.1,0.3-0.2,0.5c-0.1,0.2-0.1,0.3-0.2,0.5
		c0,0.2,0,0.3,0,0.5c0,0.1,0,0.3,0,0.4c0,0.1,0,0.1,0,0.2v0c0,0,0,0,0,0c1.6,9.5,5.5,19.4,9,27c-5.5-6.3-10.2-13.5-11.8-17.8
		c0-0.1-0.1-0.2-0.2-0.3c-0.1-0.2-0.2-0.4-0.3-0.5c-0.1-0.1-0.2-0.2-0.3-0.3c-0.2-0.1-0.3-0.3-0.5-0.3c-0.1-0.1-0.2-0.1-0.4-0.1
		c-0.2-0.1-0.4-0.1-0.6-0.1c-0.2,0-0.3,0-0.5,0.1c-0.2,0-0.3,0-0.4,0c0,0,0,0-0.1,0c0,0-0.1,0-0.1,0c-0.1,0.1-0.2,0.2-0.4,0.2
		c-0.1,0.1-0.3,0.2-0.4,0.3c-0.1,0.1-0.2,0.3-0.3,0.4c-0.1,0.1-0.2,0.2-0.3,0.4c-0.1,0.2-0.1,0.3-0.1,0.5c0,0.2-0.1,0.3-0.1,0.5
		c0,0.2,0,0.3,0.1,0.5c0,0.1,0,0.3,0,0.4c2.8,9.2,9.7,20.1,15.1,27.8c-4.5-3.4-7.8-7.2-8.7-8.3c-0.1-0.1-0.2-0.2-0.3-0.4
		c-0.9-1.1-2.6-1.3-3.7-0.4c-1.1,0.9-1.3,2.5-0.4,3.7c0,0.1,0.2,0.3,0.6,0.7c3.9,4.7,8.2,9,12.1,12.7l-5.3-2.3
		c-1.2-0.5-2.6-0.1-3.3,1.1c-0.7,1.1-0.4,2.6,0.7,3.4c0.5,0.4,9.9,7.4,18,11.5c-0.8,0-1.7,0-2.7-0.1c-1.2-0.1-2.4,0.8-2.7,2
		c-0.3,1.3,0.4,2.5,1.5,3c0.2,0.1,2.7,1.1,5.7,2.2c-0.7,0.3-1.3,0.9-1.5,1.7c-0.4,1.2,0.1,2.4,1.2,3c0.3,0.2,4,2.3,8.5,4.2
		c-0.1,0.2-0.2,0.4-0.3,0.6c-0.4,1.1,0.1,2.3,1,3c0.8,0.5,18.6,12.6,39.3,12.6c1.4,0,2.7-0.1,4.1-0.2c1.4-0.1,2.5-1.4,2.4-2.8
		s-1.4-2.5-2.8-2.4c-13,1.1-25.6-3.8-33.1-7.6c1-0.2,1.6-0.5,1.7-0.5c1.2-0.5,1.8-1.7,1.6-2.9c-0.2-1.2-1.3-2.1-2.5-2.1
		c-3-0.1-7.2-1.5-10.8-3.1c1.4-0.7,2.2-1.3,2.2-1.4c0.8-0.7,1.1-1.7,0.9-2.7c-0.3-1-1.1-1.7-2.1-1.9c-1.1-0.2-2.5-0.5-3.9-1
		c1.4-0.8,2-1.7,2.2-2.2c0.4-0.7,0.4-1.6,0-2.3c-0.4-0.7-1-1.3-1.8-1.4c-0.7-0.1-1.5-0.4-2.3-0.7c0.2-0.2,0.3-0.3,0.4-0.5
		c0.7-1.1,0.4-2.6-0.6-3.4c-0.1,0-2.1-1.6-5.2-4.3c0.5-0.2,0.9-0.5,1.2-1c0.7-1,0.6-2.2-0.1-3.1c-0.1-0.1-2.1-2.6-4.9-6.5
		c0.9,0.7,1.8,1.5,2.8,2c0.4,0.3,0.9,0.4,1.4,0.4c0.7,0,1.3-0.2,1.8-0.7c0.2-0.2,0.4-0.4,0.5-0.7c1.6,1.7,3.3,3.2,5,4.5
		c0.2,0.2,0.5,0.2,0.8,0.3c0.7,1.2,1.5,2.5,2.3,3.7c15.9,24.4,38.3,37.5,65.1,38.3c-2.5,1.5-5.2,3.1-9.4,4.7
		c-0.9,0.4-1.7,0.7-2.6,1.1c-0.4,0.1-0.8,0.2-1.1,0.5c-7.4,3.4-10.5,6.8-11.7,9.2c-1.2,2.4-0.2,4.8,1.3,6c0.5,0.4,1.1,0.6,1.7,0.6
		c0.4,0,0.8-0.1,1.2-0.3c0.9-0.5,1.5-1.4,1.5-2.5c0.1-0.1,0.6-0.5,2-0.5c1-0.1,3.2,0.1,5.8,0.4c2.4,0.2,5.3,0.4,8.4,0.6
		c-1.9,2.3-4.2,4.9-4.2,4.9c-0.7,0.8-0.8,1.9-0.4,2.8c0.5,0.9,1.4,1.5,2.4,1.5c2.1-0.1,3.5-0.1,4.4-0.1c0.8,1.1,1.8,1.5,2.4,1.6
		c1.8,0.5,3.6-0.3,4.9-1.1c1,0.7,2,1,2.9,1.2c1.8,0.2,3.5-0.3,4.7-0.9c1.3,0.8,2.5,1,3.5,1c0,0,0,0,0,0c2,0,3.8-1,5.1-2
		c1.1,0.7,2.2,0.9,3,0.9c1.9,0.1,3.4-0.7,4.5-1.3c3.7,0.7,6.9-1,9-2.9c1,0.6,1.9,0.7,2.6,0.7c1.9-0.1,3.3-1.2,4.2-2.2
		c4.2,0.5,7.2-0.3,8.9-2.3c0.9-1.1,1.3-2.4,1.4-3.5c11.6-0.1,12.6-6.4,12.7-7.2c0.1-0.7-0.1-1.4-0.6-2c-0.5-0.5-1.1-0.9-1.8-0.9
		l-30.4-1.8c-1.3-0.1-2.4,0.8-2.7,2c0,0-0.5,2-2.1,3.5c-2.2,2.1-5.7,3.2-9.5,3.8c0-0.4,0-0.7-0.2-1.1c-0.5-1.3-2-2-3.4-1.5
		c-6.3,2.4-16.4,2.1-24.4,1.6c1.2-1,2.7-2,3.9-2.6c1-0.5,1.5-1.7,1.3-2.8c-0.2-0.8-0.7-1.4-1.4-1.7c2.2-1.1,4-2.2,5.7-3.2
		c3-1.8,5.8-3.6,10.9-5.3c9.9-3.4,21.4-4.5,21.5-4.5c0.3,0,0.5-0.1,0.8-0.2c0.4-0.2,32.8-13.7,48-45c-0.2,0.9-0.4,1.8-0.6,2.6
		c-0.4,1.3,0.2,2.7,1.5,3.2c1,0.4,2.1,0.2,2.8-0.5c-1,2.5-1.8,4.5-2.5,5.7c-0.7,1.2-0.4,2.8,0.8,3.5c0.3,0.2,0.6,0.3,0.9,0.4
		c-1.2,1.7-2.4,3.4-3.6,4.9c-0.8,1-0.7,2.4,0.1,3.4c-2,2.1-3.9,3.9-5.2,5c-0.9,0.7-1.2,2-0.8,3c-1.3,0.8-2.4,1.3-3.2,1.5
		c-1.3,0.4-2.1,1.7-1.8,3c0.1,0.7,0.5,1.3,1,1.7c-1.6,0.4-3.3,0.8-5.2,1.2c-1.1,0.2-1.9,1.1-2.1,2.1c-0.2,1.1,0.3,2.2,1.3,2.7
		c0.1,0,1,0.6,2.3,1.1c-5.1,2-14.1,4.7-28.9,6.2c-1.4,0.1-2.5,1.4-2.3,2.9c0.1,1.4,1.4,2.4,2.9,2.4c28.1-2.8,36.8-9.8,37.2-10.1
		c0.8-0.7,1.1-1.8,0.8-2.8c-0.2-0.7-0.7-1.2-1.3-1.5c9-2.8,12.9-6,13.1-6.1c1-0.8,1.2-2.2,0.6-3.3c-0.7-1.1-2-1.6-3.2-1.1
		c-0.3,0.1-0.9,0.3-1.5,0.4c6-4.1,12.4-9.1,15.3-11.2c0.5-0.4,0.9-0.7,1.3-1.1c1.1-0.9,1.2-2.5,0.3-3.7c-0.9-1.1-2.5-1.3-3.6-0.4
		c-0.4,0.3-0.8,0.7-1.3,1c-1.3,1-3,2.1-4.8,3.2c6.8-7.8,13.7-16.2,15.7-18.6c0.2-0.2,0.4-0.4,0.5-0.7c0.9-1.1,0.7-2.8-0.4-3.7
		c-1.1-0.9-2.8-0.7-3.7,0.4l0,0l0,0c0,0.1-0.3,0.3-0.6,0.8c-2.1,2.5-4.2,5-6.4,7.2c7-12.6,12.3-25.1,13-26.9c0-0.1,0.1-0.1,0.1-0.2
		C380,249.1,379.4,247.6,378,247z M255.4,335.2l0.7,0.1c-0.9,0.8-1.6,1.7-2.2,2.7c-1.2-0.1-2.4-0.2-3.3-0.2
		C252,337,253.5,336.1,255.4,335.2z"/>
</g>
</svg>
