<?xml version="1.0" encoding="utf-8"?>
<!-- Generator: Adobe Illustrator 25.0.0, SVG Export Plug-In . SVG Version: 6.00 Build 0)  -->
<svg version="1.1" id="Layer_1" xmlns="http://www.w3.org/2000/svg" xmlns:xlink="http://www.w3.org/1999/xlink" x="0px" y="0px"
	 viewBox="0 0 512 512" style="enable-background:new 0 0 512 512;" xml:space="preserve">
<style type="text/css">
	.st0{fill:#00209F;}
	.st1{fill:#FFFFFF;}
	.st2{fill:#009543;}
</style>
<rect y="88.3" class="st0" width="512" height="112"/>
<rect y="200" class="st1" width="512" height="112"/>
<rect y="311.7" class="st2" width="512" height="112"/>
<path d="M286.5,275.9l-2.1,1c-0.3,0.1-0.6,0.3-0.9,0.4l-18.1-22.9c3.7-8.1,5.9-19.2,5.9-24.2c0-8.3-5.4-15.1-12.5-16.6
	c-0.5-1.1-1.6-1.8-2.8-1.8s-2.3,0.8-2.8,1.8c-7.1,1.5-12.5,8.3-12.5,16.6c0,5,2.2,16.1,5.9,24.2l-18.1,22.9
	c-0.3-0.1-0.6-0.3-0.9-0.4l-2.1-1l-7.7,15.1l2.1,1c10.5,5.3,22.9,8.1,36.1,8.1c13.1,0,25.6-2.8,36.1-8.1l2.1-1L286.5,275.9z
	 M268.3,230.3c0,3.7-1.4,11.6-4,18.8c-0.3,0.9-0.7,1.8-1,2.7l-2.7-3.4v-12h4.6l-6.1-6.1v-13.4C264.4,218.5,268.3,223.9,268.3,230.3z
	 M247.7,249.1c-2.6-7.2-4-15-4-18.8c0-6.4,3.9-11.8,9.2-13.4v13.4l-6.1,6.1h4.6v12l-2.7,3.4C248.4,250.9,248,250,247.7,249.1z
	 M227,283.2l0.6,2.6l-2.3,0.6L227,283.2z M224.4,289l3.9-1l0.7,2.9C227.4,290.3,225.8,289.7,224.4,289z M230.2,283.2
	c1.8,0.7,3.6,1.3,5.4,1.8l0.6,1.7l-4.8,1.2L230.2,283.2z M232.4,292.1l-0.5-1.9l5-1.2l1.6,4.8C236.4,293.2,234.4,292.7,232.4,292.1z
	 M239.2,285.9c1.9,0.4,3.9,0.8,5.9,1.1l0.8,1.5l-5.3,1.7L239.2,285.9z M241.9,294.3l-0.6-1.9l5.8-1.8l2.6,4.7
	C247,295.1,244.5,294.8,241.9,294.3z M248.8,287.5c2.4,0.2,4.8,0.3,7.2,0.3c0.5,0,1,0,1.5,0l0.6,1l-7.1,2.7L248.8,287.5z M256,295.5
	c-0.9,0-1.8,0-2.7-0.1l-1.1-1.9l7.2-2.8l2.9,4.5C260.3,295.4,258.2,295.5,256,295.5z M261.1,287.7c2.4-0.2,4.8-0.4,7.2-0.8l0.7,0.9
	l-5.6,3.4L261.1,287.7z M265.9,294.9l-1.2-1.9l5.8-3.5l3.2,4.1C271.1,294.2,268.5,294.6,265.9,294.9z M271.7,286.2
	c2-0.4,4-0.9,5.9-1.5l0.7,0.9l-4.1,3.8L271.7,286.2z M276.9,292.9l-1.3-1.6l4.1-3.8l2.8,3.7C280.7,291.7,278.8,292.3,276.9,292.9z
	 M280.7,283.6c1.3-0.5,2.6-1,3.8-1.5l0.6,1.2l-2,3.5L280.7,283.6z M285.5,289.9l-0.9-1.2l1.7-3l1.6,3.2
	C287.1,289.3,286.3,289.6,285.5,289.9z"/>
</svg>
