<?xml version="1.0" encoding="utf-8"?>
<!-- Generator: Adobe Illustrator 25.0.0, SVG Export Plug-In . SVG Version: 6.00 Build 0)  -->
<svg version="1.1" id="Layer_1" xmlns="http://www.w3.org/2000/svg" xmlns:xlink="http://www.w3.org/1999/xlink" x="0px" y="0px"
	 viewBox="0 0 512 512" style="enable-background:new 0 0 512 512;" xml:space="preserve">
<style type="text/css">
	.st0{fill:#C1272D;}
	.st1{fill:#006233;}
</style>
<rect y="88.3" class="st0" width="512" height="336"/>
<path class="st1" d="M298,278l67.4-49.5h-83.5L256,148.8l-25.9,79.6h-83.5L214,278l-25.7,79l67.6-48.3l0.1,0l0.1,0l67.6,48.3
	L298,278z M311.5,246.1l-19.3,14.1l-4.6-14.1L311.5,246.1L311.5,246.1z M234.8,271.3l8.2-25.1H269l8.2,25.1L256,286.8L234.8,271.3z
	 M256,206l7.3,22.5h-14.6L256,206z M200.5,246.1h23.9l-4.6,14.1L200.5,246.1z M221.7,311.4L229,289l11.9,8.7L221.7,311.4z M283,289
	l7.3,22.5l-19.2-13.7L283,289z"/>
</svg>
