<?xml version="1.0" encoding="utf-8"?>
<!-- Generator: Adobe Illustrator 25.0.0, SVG Export Plug-In . SVG Version: 6.00 Build 0)  -->
<svg version="1.1" id="Layer_1" xmlns="http://www.w3.org/2000/svg" xmlns:xlink="http://www.w3.org/1999/xlink" x="0px" y="0px"
	 viewBox="0 0 512 512" style="enable-background:new 0 0 512 512;" xml:space="preserve">
<style type="text/css">
	.st0{fill:#0046AE;}
	.st1{fill:#FFD200;}
	.st2{fill:#CC092F;}
	.st3{fill:#FFCD5A;}
	.st4{fill:#FFBE5A;}
	.st5{fill:#B07F55;}
	.st6{fill:#097754;}
	.st7{fill:#FF875A;}
</style>
<rect y="88.3" class="st0" width="170.7" height="336"/>
<rect x="170.7" y="88.3" class="st1" width="170.7" height="336"/>
<rect x="341.3" y="88.3" class="st2" width="170.7" height="336"/>
<g id="crest">
	
		<rect x="276.6" y="286.6" transform="matrix(0.775 -0.6319 0.6319 0.775 -128.2427 244.6438)" class="st3" width="5.7" height="31.7"/>
	
		<rect x="268.2" y="288.6" transform="matrix(0.7753 -0.6316 0.6316 0.7753 -125.1463 239.3823)" class="st4" width="11.3" height="13.9"/>
	
		<rect x="219.2" y="299.6" transform="matrix(0.6319 -0.775 0.775 0.6319 -147.9047 293.4397)" class="st3" width="31.7" height="5.7"/>
	
		<rect x="233.6" y="289.9" transform="matrix(0.6316 -0.7753 0.7753 0.6316 -140.5258 295.413)" class="st4" width="13.9" height="11.3"/>
	<polygon class="st1" points="250.1,297.6 236,325.9 255.8,340.1 255.8,300.4 	"/>
	<polygon class="st3" points="261.5,297.6 275.6,325.9 255.8,340.1 255.8,300.4 	"/>
	<path class="st4" d="M216.1,297.6v-73.6h8.5c0,0,0,48.2,0,56.7C224.6,289.1,216.1,297.6,216.1,297.6z"/>
	<path class="st3" d="M210.5,311.7v-87.8h8.5c0,0,0,62.3,0,70.8C219,303.2,210.5,311.7,210.5,311.7z"/>
	<path class="st1" d="M204.8,323.1v-99.1h8.5c0,0,0,73.7,0,82.1C213.3,314.6,204.8,323.1,204.8,323.1z"/>
	<path class="st2" d="M224.6,226.8c0,0,0,40.4,0,53.8c0,14.2,20.5,12.3,31.2,22.7c10.6-10.4,31.2-8.5,31.2-22.7
		c0-13.5,0-53.8,0-53.8H224.6L224.6,226.8z"/>
	<path class="st0" d="M224.6,257.9c0,9,0,17.7,0,22.7c0,14.2,20.5,12.3,31.2,22.7c10.6-10.4,31.2-8.5,31.2-22.7c0-5,0-13.7,0-22.7
		L224.6,257.9L224.6,257.9z"/>
	<g>
		<polygon class="st1" points="255.8,294.8 247.3,289.1 247.3,286.3 250.1,283.4 250.1,266.4 241.6,260.8 250.1,249.4 253,249.4 
			255.8,252.3 258.6,249.4 261.5,249.4 270,260.8 261.5,266.4 261.5,283.4 264.3,286.3 264.3,289.1 		"/>
		<path class="st1" d="M244.5,229.6c0,0-11.3,2.8-11.3,14.2c0,11.3,11.3,17,11.3,17l5.7-8.5C233.1,246.6,244.5,229.6,244.5,229.6z"
			/>
		<path class="st1" d="M267.1,229.6c0,0,11.3,2.8,11.3,14.2c0,11.3-11.3,17-11.3,17l-5.7-8.5C278.5,246.6,267.1,229.6,267.1,229.6z"
			/>
		<polygon class="st1" points="227.5,257.9 233.1,260.8 238.8,257.9 233.1,255.1 		"/>
		<polygon class="st1" points="272.8,257.9 278.5,260.8 284.1,257.9 278.5,255.1 		"/>
		<polygon class="st1" points="255.8,231 257.9,233.1 260.8,233.1 260.8,236 262.9,238.1 260.8,240.2 260.8,243.1 257.9,243.1 
			255.8,245.2 253.7,243.1 250.8,243.1 250.8,240.2 248.7,238.1 250.8,236 250.8,233.1 253.7,233.1 		"/>
		<path class="st1" d="M236.6,270.3l2,2.3l2.8-1.1c1.5-0.6,2.9,1,2.1,2.4l-1.5,2.6l1.9,2.4c1,1.2-0.1,3-1.6,2.7l-3-0.6l-1.6,2.6
			c-0.8,1.3-2.9,0.9-3.1-0.7l-0.3-3l-3-0.8c-1.5-0.4-1.7-2.5-0.3-3.1l2.8-1.2l-0.2-3C233.6,269.9,235.5,269.1,236.6,270.3z"/>
		<path class="st1" d="M274.3,276.8c0.6-3.2,3.3-5.5,6.4-5.8c-0.6-0.3-1.3-0.6-2.1-0.8c-4-0.8-7.8,1.8-8.6,5.8
			c-0.8,4,1.8,7.8,5.8,8.6c0.7,0.1,1.5,0.1,2.2,0.1C275.3,283.1,273.7,280,274.3,276.8z"/>
		<path class="st1" d="M244.5,226.8l5.7-28.3l-11.3-8.5l2.8-2.8h5.7c0,0,2.8-2.8,8.5-2.8c5.7,0,11.3,2.8,11.3,11.3
			s2.8,31.2,2.8,31.2L244.5,226.8L244.5,226.8L244.5,226.8z"/>
	</g>
	<path class="st5" d="M224.6,215.4c-6.3,0-11.3,5.1-11.3,11.3H236C236,220.5,230.9,215.4,224.6,215.4z"/>
	<g>
		<path class="st4" d="M221.8,226.8h-17v-18.9c0-3.7,3-6.6,6.6-6.6h3.7c3.7,0,6.6,3,6.6,6.6L221.8,226.8L221.8,226.8z"/>
		<path class="st4" d="M295.5,297.6v-73.6H287c0,0,0,48.2,0,56.7C287,289.1,295.5,297.6,295.5,297.6z"/>
	</g>
	<path class="st3" d="M301.1,311.7v-87.8h-8.5c0,0,0,62.3,0,70.8S301.1,311.7,301.1,311.7z"/>
	<path class="st1" d="M306.8,323.1v-99.1h-8.5c0,0,0,73.7,0,82.1C298.3,314.6,306.8,323.1,306.8,323.1z"/>
	<path class="st5" d="M287,215.4c6.3,0,11.3,5.1,11.3,11.3h-22.7C275.6,220.5,280.7,215.4,287,215.4z"/>
	<path class="st4" d="M289.8,226.8h17v-18.9c0-3.7-3-6.6-6.6-6.6h-3.7c-3.7,0-6.6,3-6.6,6.6L289.8,226.8L289.8,226.8z"/>
	
		<rect x="262.8" y="288.4" transform="matrix(0.5201 -0.8541 0.8541 0.5201 -103.6893 396.4522)" class="st5" width="76.3" height="4.2"/>
	
		<rect x="282.4" y="308.8" transform="matrix(0.6244 -0.7811 0.7811 0.6244 -136.4642 342.6695)" class="st1" width="11.3" height="8.9"/>
	
		<rect x="308.3" y="261.4" transform="matrix(0.5199 -0.8542 0.8542 0.5199 -74.3427 397.5322)" class="st3" width="16.3" height="7.1"/>
	<g>
		
			<rect x="211.6" y="254.9" transform="matrix(0.8398 -0.5429 0.5429 0.8398 -124.257 162.4061)" class="st6" width="2.8" height="73.7"/>
		<path class="st6" d="M219.4,289.4c-1,1.2-1.7,2.9-1.9,4.9c-1.4-1.4-3-2.3-4.5-2.5c-0.4,1.5-0.2,3.3,0.5,5.1
			c-1.9-0.7-3.8-0.8-5.2-0.3c0.4,2.1,2.1,4.4,4.7,5.9c2.6,1.6,5.4,2,7.4,1.3l0.6-0.4c1.4-1.6,2.2-4.3,1.8-7.3
			C222.5,293.1,221.1,290.6,219.4,289.4z"/>
	</g>
	<circle class="st2" cx="220.8" cy="303.6" r="2.8"/>
	<path class="st6" d="M208.6,272.7c-1,1.2-1.7,2.9-1.9,4.9c-1.4-1.4-3-2.3-4.5-2.5c-0.4,1.5-0.2,3.3,0.5,5.1
		c-1.9-0.7-3.8-0.8-5.2-0.3c0.4,2.1,2.1,4.4,4.7,5.9c2.6,1.6,5.4,2,7.4,1.3l0.6-0.4c1.4-1.6,2.2-4.3,1.8-7.3
		C211.8,276.4,210.4,274,208.6,272.7z"/>
	<circle class="st2" cx="210" cy="287" r="2.8"/>
	<path class="st6" d="M197.9,256.1c-1,1.2-1.7,2.9-1.9,4.9c-1.4-1.4-3-2.3-4.5-2.5c-0.4,1.5-0.2,3.3,0.5,5.1
		c-1.9-0.7-3.8-0.8-5.2-0.3c0.4,2.1,2.1,4.4,4.7,5.9c2.6,1.6,5.4,2,7.4,1.3l0.6-0.4c1.4-1.6,2.2-4.3,1.8-7.3
		C201,259.8,199.6,257.3,197.9,256.1z"/>
	<circle class="st2" cx="199.2" cy="270.3" r="2.8"/>
	<g>
		
			<rect x="221.9" y="307.6" transform="matrix(0.7811 -0.6244 0.6244 0.7811 -146.0386 209.9142)" class="st1" width="8.9" height="11.3"/>
		<rect x="238.8" y="178.6" class="st1" width="2.8" height="19.8"/>
		<rect x="236" y="181.4" class="st1" width="8.5" height="2.8"/>
	</g>
	<polygon class="st7" points="238.8,189.9 247.3,196.3 247.3,187.1 241.6,187.1 	"/>
	<path class="st5" d="M241.6,178.6v2.8h2.8v2.8h-2.8v2.8h5.7c0,0,2.8-2.8,8.5-2.8s11.3,2.8,11.3,11.3c0,8.5,2.8,31.2,2.8,31.2h5.7
		c0-6.3,5.1-11.3,11.3-11.3c1,0,1.9,0.2,2.8,0.4v-6.1c0-4.7,3.8-8.5,8.5-8.5s8.5,3.8,8.5,8.5v14.2v2.8v50l3.7-6l-1.2-0.7l8.5-14
		l1.2,0.7l0,0l1.8,1.1l3,1.8l-8.5,14l-1.2-0.7l-7.3,12v38.1c0,0-6.8-6.8-8.2-14.3c-1-1.3-2.2-3-3.3-5l-3.2,5.3l3,2.4l-7.1,8.9
		l-1.9-1.5l-3.2,5.3l-3.6-2.2l3.5-5.7l-1.7-1.4l2.4-3l-7.4-9.1l-2.2,1.8l-6.6-8.1c-1.8,0.7-3.5,1.5-5.2,2.4l13.5,27.1l-19.8,14.2
		L236,325.9l13.5-27.1c-1-0.5-2-1-3.1-1.5l-5.9,7.2l-2.2-1.8l-7.4,9.1l2.4,3l-2.4,1.9l3.3,5.1l-2.4,1.5l-3.1-4.8l-2.3,1.8l-7.1-8.9
		l3.2-2.5l-1.7-2.6c0,0-0.1,0-0.1,0c-0.9,0-1.8-0.4-2.4-1.2c-0.2-0.4-0.4-0.7-0.4-1.1c-0.5,0-1.1-0.1-1.6-0.2
		c-1.1,1.9-2.3,3.6-3.3,5c-1.4,7.5-8.2,14.3-8.2,14.3v-36.1c-0.9-0.3-1.7-0.6-2.6-1.1c-2.6-1.6-4.3-3.8-4.7-5.9
		c0.6-0.2,1.3-0.3,2-0.3c1,0,2.1,0.2,3.3,0.6c-0.4-1-0.6-1.9-0.7-2.8l-2.8-4.3c0,0-0.1,0-0.1,0c-0.9,0-1.8-0.4-2.4-1.2
		c-0.2-0.4-0.4-0.7-0.4-1.1c-1.6-0.1-3.3-0.6-4.9-1.6c-2.6-1.6-4.3-3.8-4.7-5.9c0.6-0.2,1.3-0.3,2-0.3c1,0,2.1,0.2,3.3,0.6
		c-0.7-1.9-0.9-3.7-0.5-5.1c1.5,0.2,3.1,1.1,4.5,2.5c0.2-2,0.8-3.8,1.9-4.9c1.7,1.2,3.1,3.7,3.4,6.7c0.2,1.9,0,3.7-0.6,5.1
		c0.3,0.2,0.6,0.5,0.9,0.8c0.6,0.9,0.5,1.9,0.1,2.8l2.8,4.3c0.1,0.1,0.2,0.1,0.3,0.2v-49.3v-2.8v-14.2c0-4.7,3.8-8.5,8.5-8.5
		c4.7,0,8.5,3.8,8.5,8.5v6.1c0.9-0.2,1.8-0.4,2.8-0.4c6.3,0,11.3,5.1,11.3,11.3h8.5l5.7-28.3l-2.8-2.1l-5.7-4.2v6.4h-2.8v-14.2H236
		v-2.8h2.8v-2.8L241.6,178.6 M287.1,307.4l1-1.3l0.6,0.4l4.6-7.5c-0.4-1.4-0.7-2.8-0.7-4.2c0-0.1,0-0.3,0-0.5
		c-2.5-3.3-5.7-8.5-5.7-13.7c0,6-3.7,9.1-8.7,11.5l4.4,5.4l-2.2,1.8L287.1,307.4 M224.8,307.3l1.5-1.2l1,1.3l6.7-8.2l-2.2-1.8
		l3.6-4.4c-6.1-2.5-10.8-5.6-10.8-12.4c0,3.8-1.7,7.6-3.6,10.6c0.9,1.3,1.6,3,1.8,4.9c0.2,1.9,0,3.7-0.6,5.1
		c0.3,0.2,0.6,0.5,0.9,0.8c0.6,0.9,0.5,1.9,0.1,2.8L224.8,307.3 M241.6,176.5h-2.8c-1.2,0-2.1,1-2.1,2.1v0.7H236
		c-1.2,0-2.1,1-2.1,2.1v2.8c0,1.2,1,2.1,2.1,2.1h0.7v12c0,1.2,1,2.1,2.1,2.1h2.8c1.2,0,2.1-1,2.1-2.1v-2.1l2.3,1.7l1.8,1.3
		l-5.1,25.3h-4.8c-1-6.4-6.6-11.3-13.3-11.3c-0.2,0-0.5,0-0.7,0v-3.6c0-5.9-4.8-10.6-10.6-10.6s-10.6,4.8-10.6,10.6v14.2v2.8v32.6
		c-0.8-2.1-2-3.9-3.6-5c-0.4-0.3-0.8-0.4-1.2-0.4c-0.6,0-1.2,0.2-1.6,0.7c-0.7,0.7-1.2,1.6-1.6,2.7c-0.9-0.5-1.9-0.8-2.8-1
		c-0.1,0-0.2,0-0.3,0c-0.9,0-1.8,0.6-2,1.6c-0.2,0.9-0.3,1.9-0.3,3c-0.2,0-0.3,0-0.5,0c-0.9,0-1.8,0.1-2.6,0.4
		c-1,0.3-1.7,1.4-1.5,2.4c0.6,2.8,2.7,5.5,5.7,7.3c1.4,0.8,2.9,1.4,4.5,1.7c0.1,0.1,0.1,0.2,0.2,0.3c0.7,1.1,1.8,1.8,3,2.1l1.5,2.4
		c-0.1,0-0.1,0-0.2,0c-0.9,0-1.8,0.1-2.6,0.4c-1,0.3-1.7,1.4-1.5,2.4c0.6,2.8,2.7,5.5,5.7,7.3c0.5,0.3,1,0.5,1.5,0.8v34.6
		c0,0.9,0.5,1.6,1.3,2c0.3,0.1,0.5,0.2,0.8,0.2c0.6,0,1.1-0.2,1.5-0.6c0.3-0.3,7-7,8.7-14.9c0.7-0.9,1.4-1.9,2-2.8
		c0.7,0.8,1.6,1.3,2.6,1.6l0.1,0.1l-1.7,1.3c-0.4,0.4-0.7,0.9-0.8,1.4c-0.1,0.6,0.1,1.1,0.5,1.6l7.1,8.9c0.4,0.4,0.9,0.7,1.4,0.8
		c0.1,0,0.2,0,0.2,0c0.5,0,0.9-0.2,1.3-0.5l0.5-0.4l1.9,2.9c0.3,0.5,0.8,0.8,1.3,0.9c0.1,0,0.3,0,0.4,0c0.4,0,0.8-0.1,1.2-0.3
		l1.4-0.9l-0.3,0.6c-0.5,0.9-0.2,2.1,0.7,2.7l19.8,14.2c0.4,0.3,0.8,0.4,1.2,0.4s0.9-0.1,1.2-0.4l19.8-14.2c0.9-0.6,1.1-1.7,0.7-2.7
		l-12.6-25.2c0.5-0.3,1.1-0.5,1.7-0.8l5.6,6.9c0.4,0.5,1,0.8,1.6,0.8c0.5,0,0.9-0.2,1.3-0.5l0.6-0.4l5,6.1l-1.3,1.7
		c-0.4,0.4-0.5,1-0.5,1.6c0.1,0.6,0.3,1.1,0.8,1.4l0.2,0.2l-2.5,4.1c-0.6,1-0.3,2.3,0.7,2.9l3.6,2.2c0.3,0.2,0.7,0.3,1.1,0.3
		c0.2,0,0.3,0,0.5-0.1c0.5-0.1,1-0.5,1.3-1l1.9-3.2c0.4,0.3,0.9,0.5,1.3,0.5c0.6,0,1.2-0.3,1.7-0.8l7.1-8.9c0.3-0.3,0.4-0.7,0.5-1.1
		c2.3,6.9,7.8,12.5,8.1,12.8c0.4,0.4,1,0.6,1.5,0.6c0.3,0,0.5-0.1,0.8-0.2c0.8-0.3,1.3-1.1,1.3-2v-37.5l5.9-9.8c0.1,0,0.3,0,0.4,0
		c0.7,0,1.4-0.4,1.8-1l8.5-14c0.3-0.5,0.4-1.1,0.2-1.6c-0.1-0.5-0.5-1-1-1.3l-3-1.8l-1.8-1.1l-1.2-0.7c-0.3-0.2-0.7-0.3-1.1-0.3
		c-0.7,0-1.4,0.4-1.8,1l-7,11.5v-39.7v-2.8v-14.2c0-5.9-4.8-10.6-10.6-10.6s-10.6,4.8-10.6,10.6v3.6c-0.2,0-0.5,0-0.7,0
		c-6.7,0-12.3,4.9-13.3,11.3h-1.8c-0.7-5.6-2.6-22.2-2.6-29c0-9.9-7-13.5-13.5-13.5c-4.8,0-7.9,1.8-9.3,2.8h-0.1
		c0.1-0.2,0.1-0.5,0.1-0.7v-2.8c0-1.2-1-2.1-2.1-2.1h-0.7v-0.7C243.8,177.4,242.8,176.5,241.6,176.5L241.6,176.5z M223.6,291.2
		c0.5-1,1-1.9,1.4-2.8c1.8,2.4,4.3,4.1,7,5.4l-1.9,2.3c-0.4,0.4-0.5,1-0.5,1.6s0.3,1.1,0.8,1.4l0.5,0.4l-3.8,4.6
		c-0.2-0.1-0.5-0.2-0.7-0.2c-0.1,0-0.2,0-0.2,0c-0.2,0-0.4,0-0.6,0.1c0.1-1.1-0.2-2.1-0.8-3.1c-0.1-0.1-0.1-0.2-0.2-0.3
		c0.4-1.5,0.5-3.1,0.3-4.8C224.8,294.2,224.3,292.6,223.6,291.2L223.6,291.2z M281.6,292.7c1.9-1.1,3.7-2.5,5.1-4.3
		c1.1,2.5,2.5,4.7,3.9,6.6c0,1.2,0.2,2.4,0.5,3.7l-3.2,5.3c-0.2,0-0.4,0.1-0.5,0.2l-3.8-4.6l0.5-0.4c0.4-0.4,0.7-0.9,0.8-1.4
		s-0.1-1.1-0.5-1.6L281.6,292.7L281.6,292.7z M240.6,306.7c0.6,0,1.2-0.3,1.6-0.8l3.6-4.4l-9.7,19.4c0,0-0.1-0.1-0.1-0.1l-2.2-3.5
		l0.9-0.7c0.4-0.4,0.7-0.9,0.8-1.4c0.1-0.6-0.1-1.1-0.5-1.6l-1.3-1.7l5-6.1l0.6,0.4C239.6,306.5,240.1,306.7,240.6,306.7
		L240.6,306.7z M294.9,308.7l0.5-0.8c0.4,0.6,0.8,1.2,1.3,1.8c0,0.2,0.1,0.4,0.1,0.5c-0.1-0.1-0.2-0.2-0.3-0.3L294.9,308.7
		L294.9,308.7z"/>
</g>
</svg>
