<?xml version="1.0" encoding="utf-8"?>
<!-- Generator: Adobe Illustrator 25.0.0, SVG Export Plug-In . SVG Version: 6.00 Build 0)  -->
<svg version="1.1" id="Layer_1" xmlns="http://www.w3.org/2000/svg" xmlns:xlink="http://www.w3.org/1999/xlink" x="0px" y="0px"
	 viewBox="0 0 512 512" style="enable-background:new 0 0 512 512;" xml:space="preserve">
<style type="text/css">
	.st0{fill:#C40308;}
	.st1{fill:#D3AE3B;}
	.st2{fill:#1D5E91;}
	.st3{fill:#6D8C3E;}
</style>
<rect x="17.7" y="105.9" class="st0" width="476.7" height="300.1"/>
<path class="st1" d="M0,88.3v336h512v-336H0z M494.3,406.1H17.7V105.9h476.7V406.1z"/>
<g id="crest">
	<circle class="st2" cx="328.4" cy="311.4" r="13.4"/>
	<g>
		<path class="st1" d="M352,234.2c-9.9,8.3-16.5,8.7-16.5,8.7c17.6-7.2,15.7-20.8,15.7-20.8c-8.3,10.9-16.8,14-16.8,14
			c17.7-12,14.9-28.1,14.9-28.1c-5.8,12.8-13.1,17.8-13.1,17.8c14.7-19.6,7.5-32.2,7.5-32.2c-5.8,18.1-10.6,23.4-10.6,23.4
			c11.3-30.2,1.6-38.9,1.6-38.9c0,16.2-6,25.5-6,25.5c6.3-21.3-3.6-33.6-3.6-33.6s-0.1,17.4-3.4,26.5c-0.8-1.2-1.3-1.1-1.3-1.1
			c-1.7,11.2-7.7,19-10.3,22c-0.6-2.8-2.3-3.6-2.3-3.6s-0.3,2.7-2.8,6.8c-1.6,2.6-9.2,8.8-10.4,14.2c-1,4.3,3.3,8,4.7,8.8
			c1.4,0.9,2.9,2.4,2.3,5c-0.6,2.5-5.2,2.3-8.4,2.2s-3.7,5.2-7.3,5.1l-0.6,4l-1.4,0.3c0,0-14.7,29.3-15.9,39.3l-10.8,1.4l-10.8-1.4
			c-1.3-10-15.9-39.3-15.9-39.3l-1.4-0.3l-0.6-4c-3.6,0.2-4-5.2-7.3-5.1c-3.2,0.1-7.8,0.4-8.4-2.2s0.9-4.1,2.3-5
			c1.4-0.9,5.7-4.5,4.7-8.8c-1.2-5.4-8.8-11.6-10.4-14.2c-2.5-4-2.8-6.8-2.8-6.8s-1.7,0.9-2.3,3.6c-2.6-3-8.6-10.8-10.3-22
			c0,0-0.5-0.2-1.3,1.1c-3.4-9.1-3.4-26.5-3.4-26.5s-9.9,12.2-3.6,33.6c0,0-6-9.3-6-25.5c0,0-9.7,8.7,1.6,38.9
			c0,0-4.9-5.2-10.6-23.4c0,0-7.2,12.6,7.5,32.2c0,0-7.3-5-13.1-17.8c0,0-2.8,16.1,14.9,28.1c0,0-8.5-3.1-16.8-14
			c0,0-1.8,13.6,15.7,20.8c0,0-6.6-0.4-16.5-8.7c0,0-1.8,12.1,21.2,18.3c0,0-9.4-0.2-18.9-6.6c0,0-0.3,11.9,19.3,14.3
			c0,0-6.5,1-13.7-1.7c0,0,0.3,9.6,17.3,10.8c0,0-6.7,0.5-11.1-0.5c0,0,0.4,9.9,13.9,8.2c0,0-4.6,1.5-6,1.9c0,0,0.3,8.1,14.3,5.2
			c0,0-2.5,1.6-5.9,2.1c0,0,2.9,6.7,14.6,3.8l-2.4,2.6c0,0,9.1,5.2,16-2l-2.5,4.5c0,0,5.9,2.2,9.6-3.5c0,0-1,8.7-13.3,10.2
			c0,0,0.4,1.8,1,2.5c0,0-0.8,1.5-7.9,2.7c0,0,1.5,2.3,3.1,3c0,0-3.1,2.6-4.7,3.1c0,0,2.6,1.3,4.3,1.6c0,0-3.7,3.6-8.2,3.7
			s-12.7-0.4-12.7-0.4s-0.1-4.4-2.2-8.1c-2.1-3.8-2.8-4-2.8-4s0.5-3-0.9-4.3s-2-1.8-2-1.8s0.7-6-1.2-9.8c-1.9-3.8-8.7-12-9.1-18.1
			s-0.1-8.4-0.1-8.4L169,264l-1.4-2.9l2.4-0.3l-1-4.4l-3.2,1.2l-0.4-3.8l-3.8,1.6l1.9,3.4l-3.4,1l2,4l2.6-1.7l0.7,3.5
			c0,0-1.6,0.4-2.4,1.8c0,0,4.3,2.9,5.6,6.3c2,5.4,1.4,17.7,4.3,21.3c2.9,3.7,5.2,6.2,5.2,6.2s-0.8,2.5,0.1,3.9
			c0.9,1.4,2.2,1.8,2.2,1.8s-0.8,5.6,1.2,9.3c2,3.7,3.2,4.6,3.2,4.6s-7.4,4.5-2.2,9.8c0,0-0.7,4.8,4.3,5.9c0,0,0.3,3.8,4.6,3.3
			c0,0,2.1-0.6,2.6,0.4c0.5,1,0,7.1,0,7.1s1.9-0.2,3.1-1l3.8,1.9l0.1-4.3l4.8-1.9c0,0-2.1,0.4-6.4-3.7c0,0,0.7-0.4,1.2-3.9
			c0,0,3.4-2.7,4.1-4.9c0.7-2.2,5.5-7,11.1-8.6l0.8,3.4c0,0,8-7.1,11.4-7.5l2.8,3.6c0,0,10.3-15.3,14.9-18c-0.4,1.2,2.2,1.4-3.5,7.7
			c-5.6,6.3-2.1,11.3-2.1,11.3c-3.5,2.9-2.8,5.5-3.2,8.5c-0.4,3-12.1,10.7-12.1,10.7c3.7,4.6,7.8,3.6,7.8,3.6
			c-2.3,1.5-1.6,6.5-1.6,6.5c3.3,0.9,6.6-0.6,6.6-0.6c-1.1,3.1,0.6,5.3,0.6,5.3c2.1-1.3,6.9-2.1,6.9-2.1c-0.6,5.4,2.9,8.3,2.9,8.3
			l3.1-3.3c0.5,6.1,6,9.6,6,9.6s5.4-3.5,6-9.6l3.1,3.3c0,0,3.5-2.9,2.9-8.3c0,0,4.8,0.8,6.9,2.1c0,0,1.8-2.2,0.6-5.3
			c0,0,3.3,1.5,6.6,0.6c0,0,0.7-5-1.6-6.5c0,0,4.1,1,7.8-3.6c0,0-11.6-7.7-12.1-10.7c-0.4-3,0.3-5.6-3.2-8.5c0,0,3.5-5-2.1-11.3
			c-5.6-6.3-3.1-6.5-3.5-7.7c4.5,2.7,14.9,18,14.9,18l2.8-3.6c3.3,0.4,11.4,7.5,11.4,7.5l0.8-3.4l0.1-0.2c4.2,2.2,11.1,5.3,13.9,7.4
			c3,2.3,5.4,2.5,12.6,0c7.2-2.5,20.5-6.2,18.5-10.7c-0.1-0.2-0.2-0.4-0.3-0.6c0.3-1.2,0.4-3.2-1.7-4.9c0,0,0,0.5,0,1.1l-6.8-2.5
			c-0.2-0.6-0.6-1.2-1.2-1.7c0,0,0,0.5-0.1,1.2l-1.8-0.7l3.5-9.8c-0.3-0.1-0.6-0.2-0.8-0.4c0.1-0.9,0.2-2.1,0.5-3.4
			c0.9,0.3,1.6,0.7,2.2,1.1l1-3.6c0,0-1.1-0.1-2.5-0.3c0.4-1.1,0.8-2.1,1.3-2.7L332,289c0,0,0.1,1.4,0,3.2c-0.9-0.4-1.7-0.8-2.4-1.4
			l-1.1,4c0.4,0,1.6,0.1,3.1,0.4c-0.3,1.2-0.7,2.2-1.4,3c-0.2,0-0.3-0.1-0.5-0.1l-3.4,9.6l-9.2-3.4c-0.4,0.6-0.7,1.3-1,2
			c0-0.1,0.1-0.3,0.1-0.3c0,0-3.6,1.9-3.5,4.6c-0.7,0.2-1.2,0.7-1.6,1.6c-1,2.8,5.4,8.9,3.8,9.7c-1.5,0.8-9.6-5.9-10.9-7
			c1.7-0.3,4.1-1.5,4.1-1.5c-1.7-0.5-4.7-3.1-4.7-3.1c1.6-0.7,3.1-3,3.1-3c-7.1-1.2-7.9-2.7-7.9-2.7c0.5-0.7,1-2.5,1-2.5
			c-12.2-1.6-13.3-10.2-13.3-10.2c3.7,5.8,9.6,3.5,9.6,3.5l-2.5-4.5c7,7.2,16,2,16,2l-2.4-2.6c11.7,3,14.6-3.8,14.6-3.8
			c-3.4-0.5-5.9-2.1-5.9-2.1c14,2.9,14.3-5.2,14.3-5.2c-1.5-0.4-6-1.9-6-1.9c13.5,1.7,13.9-8.2,13.9-8.2c-4.4,1-11.1,0.5-11.1,0.5
			c17.1-1.2,17.3-10.8,17.3-10.8c-7.3,2.6-13.7,1.7-13.7,1.7c19.6-2.4,19.3-14.3,19.3-14.3c-9.5,6.4-18.9,6.6-18.9,6.6
			C353.8,246.3,352,234.2,352,234.2z M332.1,320.8c-0.9-1.5,1.3-2.9,2.3-4.3l3.9,1.4C337,319.5,333.1,322.4,332.1,320.8z
			 M329.5,314.6c-1.3,1.9-2.1,4.1-6,4.2c-4.9,0.1-5.6-4.2-6.7-6.6c-0.3-0.7-0.8-1.2-1.4-1.6c0-0.4,0-0.9,0.1-1.4L329.5,314.6z"/>
		<path class="st1" d="M255.6,222.2c0,0-6.2-5.3-8.1-8.2c0,0,2.1-0.9,3.1-2.2c0,0-5.6-3-8.7-6.1c0,0,2-0.3,3.5-1.6
			c0,0-5.1-0.9-7.6-5.1c5.9-2,3.9-7.5,3.9-7.5c-1.2,1.6-6,3.5-11.3,1.3s-11-0.7-11,2.2c0,0-11.8-3.4-8.9,8c0,0,1.9-4.3,6.1-2.7
			c4.2,1.6,8.5,7,8.5,7s-2.6,1.4-7.5-0.1c0,0,2,7.5,10.8,3.7c0,0,3.5,1.9,3.7,7.4c0,0,1.5-0.8,2.4-2.5c0,0,1.4,5.3-0.4,9.7
			c0,0,2.4-0.4,3.2-1.2c0,0,0.7,4.6-2.4,8.4c0,0,13.5,6.4,22-0.6c0,0-3.2-3.7-4.3-7.1C252.8,225.1,254.6,224.4,255.6,222.2z"/>
		<path class="st1" d="M294.7,195.2c0-2.9-5.8-4.5-11-2.2c-5.2,2.2-10.1,0.3-11.3-1.3c0,0-2,5.5,3.9,7.5c-2.6,4.1-7.6,5.1-7.6,5.1
			c1.5,1.2,3.5,1.6,3.5,1.6c-3,3.1-8.7,6.1-8.7,6.1c1,1.3,3.1,2.2,3.1,2.2c-1.8,2.9-8.1,8.2-8.1,8.2c1,2.2,2.8,2.9,2.8,2.9
			c-1,3.4-4.3,7.1-4.3,7.1c8.5,7,22,0.6,22,0.6c-3.1-3.8-2.4-8.4-2.4-8.4c0.8,0.8,3.2,1.2,3.2,1.2c-1.8-4.4-0.4-9.7-0.4-9.7
			c1,1.8,2.5,2.5,2.5,2.5c0.2-5.5,3.7-7.4,3.7-7.4c8.9,3.8,10.8-3.7,10.8-3.7c-4.9,1.6-7.5,0.1-7.5,0.1s4.3-5.4,8.5-7
			c4.2-1.6,6.1,2.7,6.1,2.7C306.5,191.8,294.7,195.2,294.7,195.2z"/>
		<path class="st1" d="M289.3,264.9c-1.2-6.7-2.1-12.5,0.7-19.1l0.5-1.2l-11.5-13.2l-1.4,0.5c-0.1,0-12.1,4-19.8,0.1l-1-0.5l-1,0.5
			c-7.6,3.8-19.6-0.1-19.8-0.1l-1.4-0.4l-11.5,13.2l0.5,1.2c2.9,6.6,1.9,12.4,0.7,19.1c-1.1,6.3-2.3,13.5-0.1,22.3
			c2.4,9.5,10.3,12.9,17.2,15.9c5.4,2.3,10.5,4.5,13.3,9l1.8,2.9l1.8-2.9c2.9-4.6,8-6.7,13.3-9c7-3,14.9-6.4,17.2-15.9
			C291.6,278.4,290.4,271.2,289.3,264.9z M228.5,245.3l7.9-9c3.6,1,13.2,3.1,20.7-0.1c7.5,3.2,17.1,1.1,20.7,0.1l7.9,9
			c-2.8,7.3-1.7,13.6-0.5,20.3c0.9,5,1.7,10.2,1,16.1h-58.1c-0.7-5.9,0.1-11.1,1-16.1C230.2,258.9,231.3,252.6,228.5,245.3z
			 M270.5,299.1c-4.9,2.1-9.9,4.2-13.5,8.3c-3.6-4.1-8.6-6.2-13.5-8.3c-6.8-2.9-12.7-5.5-14.7-12.6h56.3
			C283.3,293.6,277.4,296.2,270.5,299.1z"/>
	</g>
	<path class="st2" d="M228.5,245.3l7.9-9c3.6,1,13.2,3.1,20.7-0.1c7.5,3.2,17.1,1.1,20.7,0.1l7.9,9c-2.8,7.3-1.7,13.6-0.5,20.3
		c0.9,5,1.7,10.2,1,16.1h-58.1c-0.7-5.9,0.1-11.1,1-16.1C230.2,258.9,231.3,252.6,228.5,245.3z"/>
	<path class="st3" d="M228.6,285.2c0.1,0.3,0.1,0.6,0.2,0.9c1.8,7.4,7.8,10,14.8,13c4.9,2.1,9.9,4.2,13.5,8.3
		c3.6-4.1,8.6-6.2,13.5-8.3c6.9-3,12.9-5.5,14.8-13c0.1-0.3,0.1-0.6,0.2-0.9H228.6z"/>
	<g>
		<path class="st1" d="M282.8,260.4c0-3.9-3.7-4.5-7-4.4c-3.3,0.1-8.2-0.5-8.4-3.1c-0.1-1.6,2.6-1.8,4.4-1.2c1,0.3,7.4,1.5,9.4-2.8
			c0,0-2.3,0.1-4.8-0.5c-1.9-0.4-9.7,0.5-11.1,3.6s3.1,6,8.3,6s5.9,1,5.9,2.3c-0.1,1.7-4.2,2.1-6.6,2.1c-3.7-1.4-12.5-0.3-12.5-0.5
			c0-0.2-2-3.6-2-3.6s3.6-0.3,4-0.9c0.5-0.7-2.7-3.2-2.7-3.2s2.7-1.1,2.8-1.8c0.1-0.8-2.2-2.8-2.2-2.8s0.9-0.9,1.5-2.3
			c0.5-1.1-3.3-1.3-3.3-1.3c0.2-0.8,0.1-1.6-0.9-1.9c-0.8-0.3-3.6,0.8-5.6,0.8s-2.7,1.4-2.7,1.4s-3.4,0.4-3.9,0.8
			c-0.5,0.4,0.1,3,0.1,3c-1.7-0.3-2.5-1.8-2.5-1.8c-0.9,3.9,3.2,4.3,3.2,4.3l0.7,2.1c0,0,0,0,1.7,0.2s0.9,1.8-1.7,1.8
			s-3.7,3.1-3.7,3.1c-1.8,0.1-2.8-1.4-3.2-3.3c-0.4-2.1-0.2-5.2,0.2-7.2c0.4-2.4-0.8-3.1-0.8-3.1l-0.8,2c-0.1-2.1-1.9-2.3-1.9-2.3
			l-0.3,2.5c-0.9-1.7-2.5-0.9-2.5-0.9s1.5,5.4,1.5,5.7c-0.1,0.3-0.6,0.6-1.3-0.2s-1.2-0.3-1.2-0.3c0.8,5.4,3.7,4.6,3.7,4.6
			s0.1,1.7,1,5.2c0.9,3.7,4.8,3,4.8,3c0,1.2,0.9,2.9,1.2,7s-3.4,6.8-3.4,6.8c-3.3-0.1-3,3.2-3,3.2h9.2c0-8.5,3.7-10,3.7-10
			c5.4,0.3,10.7-2,10.7-2c-0.8,3.3,0.6,4.6,0.6,4.6c2.2-0.3,1.1,4.1,0.5,4.1c-0.7,0-2,0-2.8,0s-3.1,2.5-3.1,2.5h9.6
			c0,0,1.5-2.1,2-3.2c0.5-1.1-1.1-2.5-1.2-3.6s1.7-1.8,1.7-1.8c1.9,2.6,6.1,2.8,6.1,2.8l-0.1-2c0,0,2.2,0.8,2.7,1.4
			c0.5,0.7,0.4,3.7-2.3,4s-2.9,2.3-2.9,2.3s6.1,0,7.3,0s2.2-2.3,2.2-3.1c0-0.9,0-6.4,0-7.7c0-1.2-1-1.1-3.4-1.3
			c-2.1-0.2-1.9-2.6-2.8-5.3C278,264.3,282.8,263.6,282.8,260.4z"/>
		<path class="st1" d="M282.2,168.9c-0.6-5.3-4.8-12-20.8-15.2c-0.1-1.7-1.1-3.1-2.6-3.8V147h2.6v-3.1h-2.6v-2.6h-3.1v2.6H253v3.1
			h2.6v2.9c-1.5,0.6-2.5,2.1-2.6,3.8c-16,3.2-20.2,9.9-20.8,15.2c-0.7,6.6,4,12.8,8.2,15.2v3.3H274v-3.3
			C278.2,181.7,282.9,175.5,282.2,168.9z M264.6,179h-4.7v-19.4c3.9,1.8,6.3,4.4,7,8.1C267.7,172.4,265.9,177.1,264.6,179z
			 M247.5,167.8c0.7-3.7,3.1-6.4,7-8.1V179h-4.7C248.4,177.1,246.6,172.4,247.5,167.8z M243.6,162.5c-0.8,1.5-1.3,3.1-1.5,4.5
			c-0.8,4.3,0.1,8.7,1.6,12.1h-1.1c-2.4-1.6-5.4-5.6-4.9-9.5C237.9,166.7,240,164.4,243.6,162.5z M271.8,179h-1.1
			c1.4-3.4,2.3-7.7,1.6-12c-0.3-1.4-0.7-3-1.5-4.5c3.6,1.9,5.7,4.3,6,7C277.2,173.4,274.2,177.4,271.8,179z"/>
	</g>
</g>
</svg>
