<?xml version="1.0" encoding="utf-8"?>
<!-- Generator: Adobe Illustrator 25.0.0, SVG Export Plug-In . SVG Version: 6.00 Build 0)  -->
<svg version="1.1" id="Layer_1" xmlns="http://www.w3.org/2000/svg" xmlns:xlink="http://www.w3.org/1999/xlink" x="0px" y="0px"
	 viewBox="0 0 512 512" style="enable-background:new 0 0 512 512;" xml:space="preserve">
<style type="text/css">
	.st0{fill:#DD7500;}
	.st1{fill:#003893;}
	.st2{fill:#FFFFFF;}
</style>
<polygon class="st0" points="512,150 512,88.3 0,406 0,415.1 "/>
<polygon class="st1" points="0,406 512,88.3 0,88.3 "/>
<polygon class="st2" points="512,150 512,211.8 0,424.3 0,415.1 "/>
<polygon class="st1" points="512,88.3 512,150 512,211.8 0,424.3 512,424.3 512,88.3 "/>
<polygon class="st2" points="145.9,210.2 203,203 145.9,195.9 174.9,178.1 138.8,187 160.8,157 130.8,179 139.7,142.9 121.9,171.9 
	114.8,114.8 107.6,171.9 89.9,142.9 98.7,179 68.8,157 90.7,187 54.7,178.1 83.6,195.9 26.5,203 83.6,210.2 54.7,227.9 90.7,219.1 
	68.8,249 98.7,227.1 89.9,263.1 107.6,234.2 114.8,291.3 121.9,234.2 139.7,263.1 130.8,227.1 160.8,249 138.8,219.1 174.9,227.9 
	"/>
</svg>
