<?xml version="1.0" encoding="utf-8"?>
<!-- Generator: Adobe Illustrator 25.0.0, SVG Export Plug-In . SVG Version: 6.00 Build 0)  -->
<svg version="1.1" id="Layer_1" xmlns="http://www.w3.org/2000/svg" xmlns:xlink="http://www.w3.org/1999/xlink" x="0px" y="0px"
	 viewBox="0 0 512 512" style="enable-background:new 0 0 512 512;" xml:space="preserve">
<style type="text/css">
	.st0{fill:#FECB00;}
	.st1{fill:#34B233;}
	.st2{fill:#EA2839;}
	.st3{fill:#FFFFFF;}
</style>
<rect y="88.3" class="st0" width="512" height="112"/>
<rect y="200" class="st1" width="512" height="112"/>
<rect y="311.7" class="st2" width="512" height="112"/>
<path class="st3" d="M261,145l26.4,79.3l83.6,0.6c5.1,0,7.2,6.5,3.1,9.6l-67.2,49.6l25.2,79.7c1.5,4.9-4,8.9-8.1,5.9l-68-48.6
	l-68,48.6c-4.1,3-9.7-1.1-8.1-5.9l25.2-79.7l-67.2-49.6c-4.1-3-2-9.5,3.1-9.6l83.6-0.6L251,145C252.6,140.1,259.4,140.1,261,145z"/>
</svg>
