<?xml version="1.0" encoding="utf-8"?>
<!-- Generator: Adobe Illustrator 25.0.0, SVG Export Plug-In . SVG Version: 6.00 Build 0)  -->
<svg version="1.1" id="Layer_1" xmlns="http://www.w3.org/2000/svg" xmlns:xlink="http://www.w3.org/1999/xlink" x="0px" y="0px"
	 viewBox="0 0 512 512" style="enable-background:new 0 0 512 512;" xml:space="preserve">
<style type="text/css">
	.st0{fill:#00795E;}
	.st1{fill:#FFFFFF;}
	.st2{fill:#FBD20E;}
</style>
<rect y="88" class="st0" width="512" height="336"/>
<g>
	<path class="st1" d="M277.1,301.6c9.9,2.4,20.5,2.5,31-0.1c18.6-4.6,33.3-16.8,41.9-32.3c-14.9-9.8-33.5-13.6-52.1-9
		c-10,2.5-18.8,7.2-26.2,13.5c0.1-0.1,0.1-0.2,0.2-0.3c27.4-24.7,58-16.7,58-16.7l7.2-6.2c0,0-30.9-10.7-58.5,12.2
		c17.1-33.1-1.4-61.5-1.4-61.5l-4.3,8.5c0,0,15.4,28.2-2.6,61c0,0,0,0-0.1,0.1c4.4-8.8,6.9-18.6,6.9-29.1c0-19.2-8.2-36.4-21.3-48.4
		c-13.1,12.1-21.3,29.3-21.3,48.4c0,10.5,2.6,20.4,6.9,29.1c0,0,0-0.1-0.1-0.1c-18-32.8-2.6-61-2.6-61l-4.3-8.5
		c0,0-18.5,28.4-1.4,61.5c-27.6-22.9-58.5-12.2-58.5-12.2l7.2,6.2c0,0,30.6-8,58,16.7c0.1,0.1,0.1,0.2,0.2,0.3
		c-7.4-6.2-16.2-11-26.2-13.5c-18.6-4.6-37.3-0.8-52.2,9c8.6,15.6,23.3,27.7,41.9,32.3c10.6,2.6,21.1,2.4,31,0.1
		c-36.9,10.3-61-11.9-61-11.9l-9.3,2.1c0,0,37.3,40,91.4,0.8c54.1,39.2,91.4-0.8,91.4-0.8l-9.3-2.1
		C338.1,289.7,314,311.9,277.1,301.6z"/>
	<path class="st1" d="M202.2,347.6c3.8,2.4,7.9,4.5,12,6.4h83.5c4.2-1.9,8.2-4,12-6.4H202.2z"/>
	<path class="st1" d="M221.7,357c10.7,3.8,22.3,5.9,34.3,5.9s23.6-2.1,34.3-5.9H221.7z"/>
	<path class="st1" d="M179.5,328.5c1.3,1.5,2.6,2.9,4,4.3h145c1.4-1.4,2.7-2.8,4-4.3H179.5z"/>
	<path class="st1" d="M188.9,337.8c2.1,1.9,4.3,3.6,6.6,5.3h121c2.3-1.7,4.5-3.5,6.6-5.3H188.9z"/>
	<path class="st1" d="M298.6,317.2c-23.8,0-40.2-15.9-40.3-16.1l-2.3-2.2l-2.3,2.2c-0.2,0.2-16.4,16.1-40.3,16.1h-42.6
		c1.5,2.2,3,4.3,4.6,6.4h38c21.4,0,37-11.2,42.6-15.9c5.6,4.7,21.2,15.9,42.6,15.9h38c1.6-2.1,3.2-4.2,4.6-6.4H298.6z"/>
</g>
<g>
	<path class="st2" d="M254.9,149.9l-3.7,11.2l-11.8,0.1c-1.1,0-1.6,1.5-0.7,2.1l9.5,7l-3.6,11.3c-0.3,1.1,0.9,2,1.8,1.3l9.6-6.9
		l9.6,6.9c0.9,0.7,2.2-0.2,1.8-1.3l-3.6-11.3l9.5-7c0.9-0.7,0.4-2.1-0.7-2.1l-11.8-0.1l-3.7-11.2
		C256.8,148.8,255.2,148.8,254.9,149.9z"/>
	<path class="st2" d="M199,172.8l2.2,7.9l-6.7,4.6c-0.6,0.4-0.4,1.4,0.4,1.5l8.1,0.4l2.3,7.8c0.2,0.8,1.3,0.8,1.5,0.1l2.9-7.6
		l8.1,0.2c0.8,0,1.1-1,0.5-1.4l-6.4-5.1l2.7-7.7c0.3-0.7-0.6-1.4-1.2-1l-6.8,4.5l-6.4-5C199.7,171.5,198.8,172.1,199,172.8z"/>
	<path class="st2" d="M166.4,212.4l5.9,5.6l-3.4,7.4c-0.3,0.7,0.4,1.4,1.1,1.1l7.2-3.9l6,5.5c0.6,0.5,1.5,0,1.4-0.7l-1.5-8l7.1-4
		c0.7-0.4,0.5-1.4-0.3-1.5l-8.1-1.1l-1.6-8c-0.2-0.8-1.2-0.9-1.5-0.2l-3.5,7.3l-8.1-1C166.3,210.9,165.8,211.8,166.4,212.4z"/>
	<path class="st2" d="M314.9,172.8l-2.2,7.9l6.7,4.6c0.6,0.4,0.4,1.4-0.4,1.5l-8.1,0.4l-2.3,7.8c-0.2,0.8-1.3,0.8-1.5,0.1l-2.9-7.6
		l-8.1,0.2c-0.8,0-1.1-1-0.5-1.4l6.4-5.1l-2.7-7.7c-0.3-0.7,0.6-1.4,1.2-1l6.8,4.5l6.4-5C314.2,171.5,315.1,172.1,314.9,172.8z"/>
	<path class="st2" d="M347.4,212.4l-5.9,5.6l3.4,7.4c0.3,0.7-0.4,1.4-1.1,1.1l-7.2-3.9l-6,5.5c-0.6,0.5-1.5,0-1.4-0.7l1.5-8l-7.1-4
		c-0.7-0.4-0.5-1.4,0.3-1.5l8.1-1.1l1.6-8c0.2-0.8,1.2-0.9,1.5-0.2l3.5,7.3l8.1-1C347.6,210.9,348,211.8,347.4,212.4z"/>
</g>
</svg>
