<?xml version="1.0" encoding="utf-8"?>
<!-- Generator: Adobe Illustrator 25.0.0, SVG Export Plug-In . SVG Version: 6.00 Build 0)  -->
<svg version="1.1" id="Layer_1" xmlns="http://www.w3.org/2000/svg" xmlns:xlink="http://www.w3.org/1999/xlink" x="0px" y="0px"
	 viewBox="0 0 512 512" style="enable-background:new 0 0 512 512;" xml:space="preserve">
<style type="text/css">
	.st0{fill:#006233;}
	.st1{fill:#FFC400;}
</style>
<rect y="88.3" class="st0" width="512" height="336"/>
<g>
	<path class="st1" d="M351,225c-0.2-1.5-2.4-1.4-2.6,0.1c-5.3,46.4-44.6,82.5-92.5,82.5c-47.8,0-87.2-36.1-92.5-82.5
		c-0.2-1.5-2.4-1.6-2.6-0.1c-0.7,4.7-1.1,9.4-1.1,14.3c0,53.1,43.1,96.2,96.2,96.2c53.1,0,96.2-43.1,96.2-96.2
		C352.2,234.4,351.8,229.6,351,225z"/>
	<path class="st1" d="M254.8,185.3l-7,20.9l-22,0.2c-1.2,0-1.7,1.5-0.7,2.3l17.7,13.1l-6.6,21c-0.4,1.1,0.9,2.1,1.9,1.4l17.9-12.8
		l17.9,12.8c1,0.7,2.3-0.2,1.9-1.4l-6.6-21l17.7-13.1c1-0.7,0.5-2.3-0.7-2.3l-22-0.2l-7-20.9C256.8,184.1,255.2,184.1,254.8,185.3z"
		/>
</g>
</svg>
