<?xml version="1.0" encoding="utf-8"?>
<!-- Generator: Adobe Illustrator 25.0.0, SVG Export Plug-In . SVG Version: 6.00 Build 0)  -->
<svg version="1.1" id="Layer_1" xmlns="http://www.w3.org/2000/svg" xmlns:xlink="http://www.w3.org/1999/xlink" x="0px" y="0px"
	 viewBox="0 0 512 512" style="enable-background:new 0 0 512 512;" xml:space="preserve">
<style type="text/css">
	.st0{fill:#012169;}
	.st1{fill:#FFFFFF;}
	.st2{fill:#C8102E;}
	.st3{fill:#00B2C9;}
	.st4{fill:#B74C0A;}
	.st5{fill:#008F2D;}
	.st6{fill:#FFE7DA;}
	.st7{fill:#963C3C;}
	.st8{fill:#FFA927;}
	.st9{fill:#F5F5F5;}
</style>
<polygon class="st0" points="256.1,88 256.1,256.2 0,256.2 0,424 512,424 512,88 "/>
<g id="Union_flag">
	<rect y="88" class="st0" width="256.1" height="168.2"/>
	<g>
		<polygon class="st1" points="106,150.1 106,142.2 22.7,88 0,88 0,105 69.3,150.1 		"/>
		<polygon class="st1" points="106,194.1 70.8,194.1 0,240.1 0,256.2 24.2,256.2 106,202.9 		"/>
		<polygon class="st1" points="233.9,88 150,142.5 150,150.1 187.3,150.1 256.1,105.3 256.1,88 		"/>
		<polygon class="st1" points="150,194.1 150,202.6 232.5,256.2 256.1,256.2 256.1,239.8 185.9,194.1 		"/>
	</g>
	<polygon class="st1" points="256.1,150.1 150,150.1 150,88 106,88 106,150.1 0,150.1 0,194.1 106,194.1 106,256.2 150,256.2 
		150,194.1 256.1,194.1 	"/>
	<polygon class="st2" points="256.1,158.8 141.3,158.8 141.3,88 114.8,88 114.8,158.8 0,158.8 0,185.3 114.8,185.3 114.8,256.2 
		141.3,256.2 141.3,185.3 256.1,185.3 	"/>
	<polygon class="st2" points="97.2,150.1 1.7,88 0,88 0,97.6 80.7,150.1 	"/>
	<polygon class="st2" points="106,194.1 89.6,194.1 0,252.4 0,256.2 10.6,256.2 	"/>
	<polygon class="st2" points="157.3,194.1 252.8,256.2 256.1,256.2 256.1,247.6 173.8,194.1 	"/>
	<polygon class="st2" points="245.4,88 150,150 150,150.1 166.4,150.1 256.1,91.8 256.1,88 	"/>
</g>
<g id="shield">
	<rect x="325.4" y="187.2" class="st3" width="117.3" height="90.6"/>
	<path class="st4" d="M325.4,277.9c0,30.9,34.6,56,58.6,56l0,0c21.3,0,58.6-25.1,58.6-56L325.4,277.9L325.4,277.9z"/>
	<path class="st5" d="M399.7,220.3c1.9,0.3,5.1,0.8,5.4,5.3s-1.3,20.8-3,22.8c0,0,5.4,12.3,5.7,19.7c0.2,7.3-0.8,29.3-0.1,32.8
		c0.7,3.5,3.2,10.7,3.2,10.7s-7.7-4.5-10.7-1.7c-3,2.8-14,6.7-18.3,2.2c0,0,5.2-14.7,5.2-31.3s0-57.8,0-57.8s2.2-1.7,5-1.8
		C394.8,221.1,399.7,220.3,399.7,220.3z"/>
	<g>
		<path class="st6" d="M400.8,308.4c0.3,2.1,1.2,3.7,0.8,4.4c-0.4,0.8-3.3,7.9-1.7,7.9s4.6-0.9,5.3-2.4c0.8-1.6,1.1-3.9,1.6-4.6
			s-0.8-4-1.8-4.6C404,308.6,400.8,308.4,400.8,308.4z"/>
		<path class="st6" d="M381.6,225l-6.1,0.8c0,0,0.8-4,0.9-6.8c0.1-2.8,0.3-7.9,0.3-7.9s4.3-2.7,4.4-3.1c0.1-0.2,0.6-1.6,0.2-2.3
			s-1.7-0.8-1.7-0.8s-5.1,2.7-5.1,3.1s0,3.1-0.6,4.1c-0.6,1-3.7,9.3-3.9,11.6c-0.2,2.2-0.6,6.9,0.3,7.1s10.1,1.2,11.1,0.8
			C382.4,231.1,381.6,225,381.6,225z"/>
	</g>
	<polygon points="409.2,203.1 387,203.1 387,192.6 379.3,192.6 379.3,203.1 357.1,203.1 357.1,210.7 379.3,210.7 379.3,311.5 
		387,311.5 387,210.7 409.2,210.7 	"/>
	<path class="st7" d="M396.1,216.7c0,0,7.4,2.1,8.4-0.3c1.2-2.9-2.7-3.3-3.4-6.3c-0.1-0.3-0.8-4.4-3.8-5.2c-3-0.8-5.8,0-5.9,2
		C391.3,208.8,396.1,216.7,396.1,216.7z"/>
	<path class="st6" d="M392.1,226.1c-0.2,0-0.6-2.2-0.1-5c0.4-2.8,0-3.7,0-3.7s-3.1,0.3-3.1-0.9s0.7-6.9,2.6-9.8c0,0,1.3,1.7,3.8,1.7
		c0,0-0.1,2,1.2,3.3c0,0-1.7,1.4-0.9,2.4s2.2,2.2,2.2,2.2s0.1,2.3,1.9,3.9C399.7,220.3,397.4,225.2,392.1,226.1z"/>
	<g>
		<rect x="361.7" y="274.3" width="0.7" height="13.2"/>
		<rect x="364.4" y="271.8" width="0.7" height="18.3"/>
		<rect x="367" y="269.4" width="0.7" height="23"/>
		<rect x="369.7" y="266.1" width="0.7" height="29.7"/>
		<rect x="372.4" y="261.7" width="0.7" height="38.4"/>
		<rect x="375.1" y="261.7" width="0.7" height="40.2"/>
	</g>
	<path class="st8" d="M387.1,282.8c-2.9-15.3-11.1-24.2-14-24.7c-2.9-0.4-5,1.9-5.2,3.6s-1.8,6.7-5,9c-3.2,2.3-9.2,3.7-10.5,8
		c-1.3,4.3,2.2,6.2,4.3,5.8c0.2,0,0.3-0.1,0.5-0.1l22.7,27.9c0.8,1,2.4,0.8,3-0.3C385.2,307.1,389.6,295.8,387.1,282.8z
		 M359.1,283.1c0.9-1,1.3-2.3,0.3-3.6c-1.7-2.3-3.6,1-3.6,1s-0.6-2.9,3.8-4.3s9.2-3.9,11.4-9.1c2.2-5.2,2.1-4.2,2.1-4.2
		s8.9,5,10.1,20.7c1.2,15.7-3.1,22-3.1,22L359.1,283.1z"/>
	<g>
		<path class="st6" d="M379.3,249.2L379.3,249.2c-1,0.7-1.9,1.2-2.6,1.5c-2.1,1.1-4.6,2.2-4.8,3.2c-0.2,1-1.7,1.8-1.6,3
			c0.1,1.2,0,4.7,0,4.7c1.2-0.2,3.7-0.7,4.6-2.2c0.8-1.5,1.6-4.4,4.2-5.7c0,0,0.1,0,0.2-0.1l7.7-2.4c1.5-0.4,2.7-0.8,3.5-1.2
			c2.2-1.2,5.2-3.3,6.8-3.7c1.6-0.4,2.9-3.1,3.5-4.7c0.6-1.6,2.4-6.2,2.7-9.4c0.3-3.2-0.8-4.9-2.1-4.3c-1.2,0.6-5,5.1-5.6,7.2
			c-0.6,2.1-2.4,7-2.4,7s-3.8,0.5-6.4,2L379.3,249.2z"/>
	</g>
	<path class="st9" d="M384,335.7l-0.3,0c-59.5-9.4-60.2-61-60.2-63.1v-87.2h121v87.2c0,2.2-0.7,53.7-60.2,63.1L384,335.7z
		 M327.2,189.1v83.4c0,2.1,0.6,50.4,56.8,59.4c56.1-9,56.8-57.4,56.8-59.4v-83.4L327.2,189.1L327.2,189.1z"/>
</g>
</svg>
