<?xml version="1.0" encoding="utf-8"?>
<!-- Generator: Adobe Illustrator 25.0.0, SVG Export Plug-In . SVG Version: 6.00 Build 0)  -->
<svg version="1.1" id="Layer_1" xmlns="http://www.w3.org/2000/svg" xmlns:xlink="http://www.w3.org/1999/xlink" x="0px" y="0px"
	 viewBox="0 0 512 512" style="enable-background:new 0 0 512 512;" xml:space="preserve">
<style type="text/css">
	.st0{fill:#006847;}
	.st1{fill:#FFFFFF;}
	.st2{fill:#CE1126;}
	.st3{fill:#FDD158;}
	.st4{fill:#00969C;}
	.st5{fill:#30C2DC;}
	.st6{fill:#5E3212;}
	.st7{fill:#B8B987;}
	.st8{fill:#AEAF7E;}
	.st9{fill:#FFB478;}
	.st10{fill:#A35627;}
</style>
<rect y="88.3" class="st0" width="170.7" height="336"/>
<rect x="170.7" y="88.3" class="st1" width="170.7" height="336"/>
<rect x="341.3" y="88.3" class="st2" width="170.7" height="336"/>
<g id="Crest">
	<polygon class="st3" points="271.2,263.9 256,271.5 256,279.1 263.6,279.1 	"/>
	<g>
		<path class="st4" d="M256,298.2c-2.1,0-3.8-1.7-3.8-3.8v-15.2c0-2.1,1.7-3.8,3.8-3.8s3.8,1.7,3.8,3.8v15.2
			C259.8,296.4,258.1,298.2,256,298.2z"/>
		<path class="st4" d="M256,282.9c-15,0-29.4-5.8-40.7-16.2c-1.5-1.4-1.6-3.8-0.2-5.4c1.4-1.5,3.8-1.6,5.4-0.2
			c9.9,9.2,22.5,14.2,35.5,14.2c13,0,25.6-5,35.5-14.2c1.5-1.4,3.9-1.3,5.4,0.2c1.4,1.5,1.3,3.9-0.2,5.4
			C285.4,277.2,271,282.9,256,282.9z"/>
	</g>
	<path class="st5" d="M256,298.2c-9.8,0-19.2-2.9-27.3-8.2l4.2-6.3c13.7,9.1,32.5,9.1,46.2,0l4.2,6.3
		C275.2,295.3,265.8,298.2,256,298.2z"/>
	<polygon class="st6" points="250,246.8 241.6,259.8 240.1,264.1 262,259 	"/>
	<path class="st7" d="M232.7,268.2c-10.1,0-22.1-8.5-25.3-27.3l7.5-1.3c2.7,15.7,12.3,21,18.1,21c1.8,0,3.6-0.7,3.8-1.9
		c0.2-1.5,0.2-1.9-3.8-3.2c-2.2-0.7-4.6-1.6-6.3-3.5c-7-8,2.5-16.4,7-20.4c0.8-0.7,1.1-1.3,1-1.6c-0.2-0.7-1.7-1.6-3.4-1.6
		c-4.8,0-8.5-2.7-9.6-7.1c-1.1-4.6,1-9.3,5-11.4l3.5,6.8c-0.9,0.5-1.3,1.9-1.1,2.8c0.1,0.4,0.3,1.3,2.2,1.3c4.7,0,9.1,2.8,10.5,6.5
		c0.6,1.6,1.5,5.8-3.1,9.9c-5,4.5-8,7.8-6.3,9.7c0.4,0.4,2,1,3,1.3c3.4,1.2,9.8,3.3,8.9,11.3c-0.6,5-5,8.5-11.1,8.7
		C233,268.2,232.9,268.2,232.7,268.2z"/>
	<path class="st6" d="M263.6,225.8c0,0,7.6-15.2-7.6-22.8c0,0,53.3-7.6,45.7,60.9l0,0c-5-4-12.4-11.3-15.1-17.1l-23-13.3V225.8
		L263.6,225.8z"/>
	<path class="st6" d="M256,241.1l38.1,22.8c0,0,0,0-15.2,7.6L256,248.7V241.1z"/>
	<path class="st6" d="M240.8,218.2L240.8,218.2c4.2,0,7.6,3.4,7.6,7.6l0,0c-4.5,4.5-5.7,11.5-2.8,17.2l1.7,3.4
		c0.7,1.4,1.7,2.7,2.8,3.9l21.1,21.1V261c0-13.1-3.1-26-8.9-37.8l0,0c-3.9-7.7-11.8-12.6-20.4-12.6h-1.1L240.8,218.2L240.8,218.2
		L240.8,218.2L240.8,218.2z"/>
	<path class="st3" d="M240.8,210.6l-7.6,7.6v7.6c0,0,9.1-4.6,12.1-6.1c2.1-1,1.7-3.4,0.5-4.6C244.8,214.3,240.8,210.6,240.8,210.6z"
		/>
	<path class="st8" d="M256,313.4c-35.7,0-64.7-29-64.7-64.7h7.6c0,31.5,25.6,57.1,57.1,57.1s57.1-25.6,57.1-57.1h7.6
		C320.7,284.3,291.7,313.4,256,313.4z"/>
	<g>
		<circle class="st3" cx="199.3" cy="271.3" r="5.2"/>
		<circle class="st3" cx="210.7" cy="289.5" r="5.2"/>
		<circle class="st3" cx="229.3" cy="303.3" r="5.2"/>
		<circle class="st3" cx="313.2" cy="271.3" r="5.2"/>
		<circle class="st3" cx="301.8" cy="289.5" r="5.2"/>
		<circle class="st3" cx="283.2" cy="303.3" r="5.2"/>
	</g>
	<path class="st9" d="M259.8,302h-7.6c-4.2,0-7.6-3.4-7.6-7.6l0,0c0-4.2,3.4-7.6,7.6-7.6h7.6c4.2,0,7.6,3.4,7.6,7.6l0,0
		C267.4,298.5,264,302,259.8,302z"/>
	<path class="st10" d="M286.6,246.8c2.5,7.5,7.9,14.3,15.1,17.1l0,0C309.3,195.4,256,203,256,203C294.1,203,286.6,246.8,286.6,246.8
		z"/>
</g>
</svg>
