<?xml version="1.0" encoding="utf-8"?>
<!-- Generator: Adobe Illustrator 25.0.0, SVG Export Plug-In . SVG Version: 6.00 Build 0)  -->
<svg version="1.1" id="Layer_1" xmlns="http://www.w3.org/2000/svg" xmlns:xlink="http://www.w3.org/1999/xlink" x="0px" y="0px"
	 viewBox="0 0 512 512" style="enable-background:new 0 0 512 512;" xml:space="preserve">
<style type="text/css">
	.st0{fill:#41479B;}
	.st1{fill:#010066;}
	.st2{fill:#FFFFFF;}
	.st3{fill:#CC0001;}
	.st4{fill:#FFCC00;}
</style>
<path class="st0" d="M309,280H8.8C4,280,0,276,0,271.1v-174c0-4.9,4-8.8,8.8-8.8H309c4.9,0,8.8,4,8.8,8.8v174
	C317.8,276,313.8,280,309,280z"/>
<polygon class="st1" points="0,88.3 0,100.3 0,112.3 0,279.8 317.8,279.8 317.8,112.3 317.8,100.3 317.8,88.3 "/>
<rect x="317.8" y="255.8" class="st2" width="194.2" height="24"/>
<rect x="317.8" y="231.9" class="st3" width="194.2" height="24"/>
<rect x="317.8" y="208" class="st2" width="194.2" height="24"/>
<rect x="317.8" y="184" class="st3" width="194.2" height="24"/>
<rect x="317.8" y="160.1" class="st2" width="194.2" height="24"/>
<rect x="317.8" y="136.1" class="st3" width="194.2" height="24"/>
<polygon class="st2" points="317.8,112.2 317.8,112.3 317.8,136.2 512,136.2 512,112.2 "/>
<polygon class="st3" points="317.8,88.3 317.8,100.3 317.8,112.3 512,112.3 512,88.3 "/>
<rect y="279.8" class="st3" width="512" height="24"/>
<rect y="303.7" class="st2" width="512" height="24"/>
<rect y="327.6" class="st3" width="512" height="24"/>
<rect y="351.6" class="st2" width="512" height="24"/>
<rect y="375.5" class="st3" width="512" height="24"/>
<rect y="399.4" class="st2" width="512" height="24"/>
<g>
	<path class="st4" d="M83.9,184c0-33.4,27.1-60.5,60.5-60.5c8.4,0,16.4,1.7,23.6,4.8c0.9,0.4,1.7-0.9,0.8-1.5
		c-12-8.2-26.7-12.7-42.5-11.9c-34.7,1.8-63,29.7-65.3,64.4c-2.6,40.3,29.3,73.7,69,73.7c14.3,0,27.7-4.4,38.7-11.9
		c0.9-0.6,0.1-1.9-0.8-1.5c-7.2,3.1-15.2,4.8-23.6,4.8C111,244.5,83.9,217.4,83.9,184"/>
	<path class="st4" d="M222.1,184l25.6-9.9c1.3-0.5,0.8-2.4-0.5-2.3l-27.3,2.2l18.8-20.1c0.9-1-0.3-2.5-1.4-1.8L213.4,166l8.2-26.2
		c0.4-1.3-1.3-2.1-2.1-1l-15.4,22.7l-3.9-27.1c-0.2-1.3-2.1-1.3-2.3,0l-2.5,17.2l-1,7.3l-0.4,2.7l-15.4-22.7c-0.8-1.1-2.5-0.3-2.1,1
		l8.2,26.2L161,152.2c-1.2-0.7-2.4,0.8-1.4,1.8l18.8,20.1l-27.3-2.2c-1.4-0.1-1.8,1.8-0.5,2.3L176,184l-25.6,9.9
		c-1.3,0.5-0.8,2.4,0.5,2.3l27.3-2.2l-18.8,20.1c-0.9,1,0.3,2.5,1.5,1.8l23.7-13.9l-8.2,26.2c-0.4,1.3,1.3,2.1,2.1,1l15.4-22.7
		l0.4,2.8l1,7.2l2.5,17.2c0.2,1.3,2.1,1.3,2.3,0l3.9-27.2l15.4,22.7c0.8,1.1,2.5,0.3,2.1-1l-8.2-26.2l23.7,13.9
		c1.2,0.7,2.4-0.8,1.5-1.8L219.8,194l27.3,2.2c1.4,0.1,1.8-1.8,0.5-2.3L222.1,184z"/>
</g>
</svg>
