<?xml version="1.0" encoding="utf-8"?>
<!-- Generator: Adobe Illustrator 25.0.0, SVG Export Plug-In . SVG Version: 6.00 Build 0)  -->
<svg version="1.1" id="Layer_1" xmlns="http://www.w3.org/2000/svg" xmlns:xlink="http://www.w3.org/1999/xlink" x="0px" y="0px"
	 viewBox="0 0 512 512" style="enable-background:new 0 0 512 512;" xml:space="preserve">
<style type="text/css">
	.st0{fill:#D21034;}
	.st1{fill:#FCE100;}
	.st2{fill:#FFFFFF;}
	.st3{fill:#007168;}
</style>
<polygon class="st0" points="0,88.3 0,424.3 208.3,256.3 "/>
<polygon class="st1" points="127,321.8 0.7,423.7 512,423.7 512,321.8 "/>
<polygon class="st2" points="512,286.5 512,306.9 145.5,306.9 127,321.8 512,321.8 512,357.2 512,357.2 512,286.5 "/>
<polygon points="144.8,205.1 208.3,256.3 145.5,306.9 512,306.9 512,205.1 "/>
<polygon class="st2" points="512,166.4 512,190.2 126.3,190.2 144.8,205.1 512,205.1 512,237 512,237 512,166.4 "/>
<polygon class="st3" points="0,88.3 126.3,190.2 512,190.2 512,88.3 "/>
<g id="shield">
	<path class="st1" d="M81.8,198.6l12.9,38.7l40.8,0.3c2.3,0,3.2,2.9,1.4,4.3l-32.8,24.2l12.3,38.9c0.7,2.2-1.8,4-3.6,2.6l-33.2-23.7
		l-33.2,23.7c-1.9,1.3-4.3-0.5-3.6-2.6L55,266.1l-32.8-24.2c-1.8-1.4-0.9-4.3,1.4-4.3l40.8-0.3l12.9-38.7
		C78,196.4,81.1,196.4,81.8,198.6z"/>
	<g>
		<path class="st2" d="M77.2,270.4l-3.2,3.2H47.3l7.3-26.7l3-1.5l-4.8,23.8c0,0.3,0,0.6,0.2,0.8c0.2,0.2,0.5,0.4,0.7,0.4L77.2,270.4
			L77.2,270.4z"/>
		<path class="st2" d="M83.6,274.9c-1.2,0.9-2.6,1.4-4,1.4s-2.9-0.5-4-1.4l4-4L83.6,274.9z"/>
		<path class="st2" d="M111.8,273.7H85.1l-3.2-3.2h23.4c0.3,0,0.6-0.1,0.7-0.4c0.2-0.2,0.3-0.5,0.2-0.8l-4.8-23.8l3,1.5L111.8,273.7
			z"/>
		<path class="st2" d="M104.2,268.5H80.5v-24.4c4-3.3,14.4-1.1,18.8,0.3L104.2,268.5z"/>
		<path class="st2" d="M78.6,244.1v24.4H55l4.8-24.1C64.2,243.1,74.6,240.8,78.6,244.1z"/>
	</g>
	<g>
		<path d="M114,274.4l-7.7-28.4c-0.1-0.3-0.3-0.5-0.5-0.6l-5.2-2.6c0,0,0,0-0.1,0c0,0,0,0,0,0c-0.6-0.2-14.9-4.9-20.9-0.3
			c-6-4.6-20.3,0.1-20.9,0.3c0,0,0,0,0,0c0,0-0.1,0-0.1,0l-5.2,2.6c-0.3,0.1-0.4,0.4-0.5,0.6l-7.7,28.4c-0.1,0.3,0,0.6,0.2,0.8
			c0.2,0.2,0.5,0.4,0.8,0.4h27.4c1.6,1.6,3.8,2.6,6.1,2.6c2.3,0,4.5-1,6.1-2.6h27.4c0.3,0,0.6-0.2,0.8-0.4
			C114.1,275,114.1,274.7,114,274.4z M80.5,244.1c4-3.3,14.4-1.1,18.8,0.3l4.8,24.1H80.5C80.5,268.5,80.5,244.1,80.5,244.1z
			 M59.8,244.4c4.4-1.4,14.9-3.7,18.8-0.3v24.4H55L59.8,244.4z M47.3,273.7l7.3-26.7l3-1.5l-4.8,23.8c0,0.3,0,0.6,0.2,0.8
			c0.2,0.2,0.5,0.4,0.7,0.4h23.4l-3.2,3.2L47.3,273.7L47.3,273.7z M79.6,276.2c-1.5,0-2.9-0.5-4-1.4l4-4l4,4
			C82.4,275.8,81,276.2,79.6,276.2z M85.1,273.7l-3.2-3.2h23.4c0.3,0,0.6-0.1,0.7-0.4c0.2-0.2,0.3-0.5,0.2-0.8l-4.8-23.8l3,1.5
			l7.3,26.7L85.1,273.7L85.1,273.7z"/>
		<path d="M104,218.6c-1,0.7-2.3,0.6-3.2-0.3l-1.3-1.3v3.2l-8,8h-3.2l-12.7,12.7h-3.2l-24.5,24.5c-0.6,0.6-0.8,1.5-0.5,2.3l1.2,3.5
			l-4.8,4.8h-3.2l-9.7,9.7c-0.8,0.8-0.8,2,0,2.8l6.4,6.4c0.9,0.9,2.5,0.9,3.3-0.1l14.4-17.3l1.6-4.8l3.2-3.2l6.4,9.6l4.8-4.8
			l-5.1-7.6l1.3-1.3c1.2-1.2,1.2-3.2,0-4.5l-1-1l0.9-0.9c6.8,5.8,15,7.3,22.7,4l-2.7-6.2c-6.4,2.8-11.7,0.5-15.3-2.5l13.5-13.5
			l-0.5-2.7l3.7-3.7h3.2l23.9-23.9L104,218.6z"/>
		<path d="M56.5,215.4l-3.2,3.2c-0.9,0.9-0.9,2.3,0,3.2l0.5,0.5l-5.3,1.1l-14.3,14.3l8,8l14.3-14.3l1.1-5.3l2.1,2.1l1.6-1.6l53,53
			l3.2-3.2l-53-53l1.6-1.6l-6.4-6.4C58.8,214.5,57.4,214.5,56.5,215.4z"/>
	</g>
</g>
</svg>
