<?xml version="1.0" encoding="utf-8"?>
<!-- Generator: Adobe Illustrator 25.0.0, SVG Export Plug-In . SVG Version: 6.00 Build 0)  -->
<svg version="1.1" id="Layer_1" xmlns="http://www.w3.org/2000/svg" xmlns:xlink="http://www.w3.org/1999/xlink" x="0px" y="0px"
	 viewBox="0 0 512 512" style="enable-background:new 0 0 512 512;" xml:space="preserve">
<style type="text/css">
	.st0{fill:#003580;}
	.st1{fill:#009543;}
	.st2{fill:#D21034;}
	.st3{fill:#FFFFFF;}
	.st4{fill:#FFCE00;}
</style>
<polygon class="st0" points="0,88.3 0,339.4 382.6,88.3 "/>
<polygon class="st1" points="512,424.3 512,173.2 129.4,424.3 "/>
<polygon class="st2" points="512,142.1 512,88.3 430,88.3 0,370.5 0,424.3 82,424.3 "/>
<polygon class="st3" points="382.6,88.3 0,339.4 0,370.5 430,88.3 "/>
<polygon class="st3" points="129.4,424.3 512,173.2 512,142.1 82,424.3 "/>
<g>
	<path class="st4" d="M90.2,145.9c8.7,0,16.6,3.5,22.3,9.2l3.1-21.7L98.4,147l-8.1-20.4L82.1,147l-17.2-13.6l3.1,21.7
		C73.7,149.4,81.5,145.9,90.2,145.9z"/>
	<path class="st4" d="M67.9,199.6c-5.7-5.7-9.2-13.6-9.2-22.3c0-8.7,3.5-16.6,9.2-22.3L46.2,152l13.6,17.2l-20.4,8.1l20.4,8.1
		l-13.6,17.2L67.9,199.6z"/>
	<path class="st4" d="M141,177.4l-20.4-8.1l13.6-17.2l-21.7,3.1c5.7,5.7,9.2,13.6,9.2,22.3c0,8.7-3.5,16.6-9.2,22.3l21.7,3.1
		l-13.6-17.2L141,177.4z"/>
	<path class="st4" d="M90.2,208.9c-8.7,0-16.6-3.5-22.3-9.2l-3.1,21.7l17.2-13.6l8.1,20.4l8.1-20.4l17.2,13.6l-3.1-21.7
		C106.8,205.3,98.9,208.9,90.2,208.9z"/>
	<circle class="st4" cx="90.2" cy="177.4" r="25.7"/>
</g>
</svg>
