<?xml version="1.0" encoding="utf-8"?>
<!-- Generator: Adobe Illustrator 25.0.0, SVG Export Plug-In . SVG Version: 6.00 Build 0)  -->
<svg version="1.1" id="Layer_1" xmlns="http://www.w3.org/2000/svg" xmlns:xlink="http://www.w3.org/1999/xlink" x="0px" y="0px"
	 viewBox="0 0 512 512" style="enable-background:new 0 0 512 512;" xml:space="preserve">
<style type="text/css">
	.st0{fill:#EF2B2D;}
	.st1{fill:#FFFFFF;}
	.st2{fill:#002868;}
</style>
<rect y="88.3" class="st0" width="141.2" height="123.8"/>
<rect y="300.5" class="st0" width="141.2" height="123.8"/>
<rect x="229.5" y="300.5" class="st0" width="282.5" height="123.8"/>
<rect x="229.5" y="88.3" class="st0" width="282.5" height="123.8"/>
<polygon class="st1" points="229.5,212.1 229.5,88.3 211.9,88.3 211.9,229.8 512,229.8 512,212.1 "/>
<polygon class="st1" points="0,282.8 0,300.5 141.2,300.5 141.2,424.3 158.9,424.3 158.9,282.8 "/>
<polygon class="st1" points="158.9,88.3 141.2,88.3 141.2,212.1 0,212.1 0,229.8 158.9,229.8 "/>
<polygon class="st1" points="211.9,424.3 229.5,424.3 229.5,300.5 512,300.5 512,282.8 211.9,282.8 "/>
<polygon class="st2" points="512,229.8 211.9,229.8 211.9,88.3 158.9,88.3 158.9,229.8 0,229.8 0,282.8 158.9,282.8 158.9,424.3 
	211.9,424.3 211.9,282.8 512,282.8 "/>
</svg>
