<?xml version="1.0" encoding="utf-8"?>
<!-- Generator: Adobe Illustrator 25.0.0, SVG Export Plug-In . SVG Version: 6.00 Build 0)  -->
<svg version="1.1" id="Layer_1" xmlns="http://www.w3.org/2000/svg" xmlns:xlink="http://www.w3.org/1999/xlink" x="0px" y="0px"
	 viewBox="0 0 512 512" style="enable-background:new 0 0 512 512;" xml:space="preserve">
<style type="text/css">
	.st0{fill:#FFDF35;}
	.st1{fill:#012169;}
	.st2{fill:#FFFFFF;}
	.st3{fill:#C8102E;}
</style>
<polygon class="st0" points="256,88.2 256,256.2 0,256.2 0,424.2 512,424.2 512,88.2 "/>
<g id="Union_flag">
	<rect y="88" class="st1" width="256" height="168.2"/>
	<g>
		<polygon class="st2" points="106,150.1 106,142.2 22.7,88 0,88 0,105 69.3,150.1 		"/>
		<polygon class="st2" points="106,194.1 70.8,194.1 0,240.1 0,256.2 24.2,256.2 106,202.9 		"/>
		<polygon class="st2" points="233.8,88 149.9,142.5 149.9,150.1 187.2,150.1 256,105.3 256,88 		"/>
		<polygon class="st2" points="149.9,194.1 149.9,202.6 232.4,256.2 256,256.2 256,239.8 185.8,194.1 		"/>
	</g>
	<polygon class="st2" points="256,150.1 149.9,150.1 149.9,88 106,88 106,150.1 0,150.1 0,194.1 106,194.1 106,256.2 149.9,256.2 
		149.9,194.1 256,194.1 	"/>
	<polygon class="st3" points="256,158.8 141.2,158.8 141.2,88 114.8,88 114.8,158.8 0,158.8 0,185.3 114.8,185.3 114.8,256.2 
		141.2,256.2 141.2,185.3 256,185.3 	"/>
	<polygon class="st3" points="97.2,150.1 1.7,88 0,88 0,97.6 80.7,150.1 	"/>
	<polygon class="st3" points="106,194.1 89.6,194.1 0,252.4 0,256.2 10.6,256.2 	"/>
	<polygon class="st3" points="157.2,194.1 252.7,256.2 256,256.2 256,247.6 173.7,194.1 	"/>
	<polygon class="st3" points="245.3,88 149.9,150 149.9,150.1 166.3,150.1 256,91.8 256,88 	"/>
</g>
<g>
	<circle class="st1" cx="128" cy="172.1" r="26.5"/>
	<g>
		<path class="st0" d="M129.8,150.7l4.4,13.3l14,0.1c1.8,0,2.6,2.3,1.1,3.4l-11.2,8.3l4.2,13.3c0.5,1.7-1.4,3.2-2.9,2.1l-11.4-8.1
			l-11.4,8.1c-1.5,1.1-3.4-0.4-2.9-2.1l4.2-13.3l-11.2-8.3c-1.5-1.1-0.7-3.4,1.1-3.4l14-0.1l4.4-13.3
			C126.8,148.9,129.2,148.9,129.8,150.7z"/>
		<path class="st0" d="M56.5,161.5l2.4,7.1l7.5,0.1c1,0,1.4,1.2,0.6,1.8l-6,4.5l2.3,7.2c0.3,0.9-0.8,1.7-1.6,1.1l-6.1-4.4l-6.1,4.4
			c-0.8,0.6-1.8-0.2-1.6-1.1l2.3-7.2l-6-4.5c-0.8-0.6-0.4-1.8,0.6-1.8l7.5-0.1l2.4-7.1C54.9,160.6,56.2,160.6,56.5,161.5z"/>
		<path class="st0" d="M202.1,161.5l2.4,7.1l7.5,0.1c1,0,1.4,1.2,0.6,1.8l-6,4.5l2.3,7.2c0.3,0.9-0.8,1.7-1.6,1.1l-6.1-4.4l-6.1,4.4
			c-0.8,0.6-1.8-0.2-1.6-1.1l2.3-7.2l-6-4.5c-0.8-0.6-0.4-1.8,0.6-1.8l7.5-0.1l2.4-7.1C200.5,160.6,201.8,160.6,202.1,161.5z"/>
		<path class="st0" d="M129.1,107.9l2.4,7.1l7.5,0.1c1,0,1.4,1.2,0.6,1.8l-6,4.5l2.3,7.2c0.3,0.9-0.8,1.7-1.6,1.1l-6.1-4.4l-6.1,4.4
			c-0.8,0.6-1.8-0.2-1.6-1.1l2.3-7.2l-6-4.5c-0.8-0.6-0.4-1.8,0.6-1.8l7.5-0.1l2.4-7.1C127.5,107,128.8,107,129.1,107.9z"/>
		<path class="st0" d="M129.1,216.3l2.4,7.1l7.5,0.1c1,0,1.4,1.2,0.6,1.8l-6,4.5l2.3,7.2c0.3,0.9-0.8,1.7-1.6,1.1l-6.1-4.4l-6.1,4.4
			c-0.8,0.6-1.8-0.2-1.6-1.1l2.3-7.2l-6-4.5c-0.8-0.6-0.4-1.8,0.6-1.8l7.5-0.1l2.4-7.1C127.5,215.4,128.8,215.4,129.1,216.3z"/>
	</g>
</g>
</svg>
