<?xml version="1.0" encoding="utf-8"?>
<!-- Generator: Adobe Illustrator 25.0.0, SVG Export Plug-In . SVG Version: 6.00 Build 0)  -->
<svg version="1.1" id="Layer_1" xmlns="http://www.w3.org/2000/svg" xmlns:xlink="http://www.w3.org/1999/xlink" x="0px" y="0px"
	 viewBox="0 0 512 512" style="enable-background:new 0 0 512 512;" xml:space="preserve">
<style type="text/css">
	.st0{fill:#012169;}
	.st1{fill:#FFFFFF;}
	.st2{fill:#C8102E;}
</style>
<polygon class="st0" points="256.1,88 256.1,256.2 0,256.2 0,424 512,424 512,88 "/>
<g id="Union_flag">
	<rect y="88" class="st0" width="256.1" height="168.2"/>
	<g>
		<polygon class="st1" points="106,150.1 106,142.2 22.7,88 0,88 0,105 69.3,150.1 		"/>
		<polygon class="st1" points="106,194.1 70.8,194.1 0,240.1 0,256.2 24.2,256.2 106,202.9 		"/>
		<polygon class="st1" points="233.9,88 150,142.5 150,150.1 187.3,150.1 256.1,105.3 256.1,88 		"/>
		<polygon class="st1" points="150,194.1 150,202.6 232.5,256.2 256.1,256.2 256.1,239.8 185.9,194.1 		"/>
	</g>
	<polygon class="st1" points="256.1,150.1 150,150.1 150,88 106,88 106,150.1 0,150.1 0,194.1 106,194.1 106,256.2 150,256.2 
		150,194.1 256.1,194.1 	"/>
	<polygon class="st2" points="256.1,158.8 141.3,158.8 141.3,88 114.8,88 114.8,158.8 0,158.8 0,185.3 114.8,185.3 114.8,256.2 
		141.3,256.2 141.3,185.3 256.1,185.3 	"/>
	<polygon class="st2" points="97.2,150.1 1.7,88 0,88 0,97.6 80.7,150.1 	"/>
	<polygon class="st2" points="106,194.1 89.6,194.1 0,252.4 0,256.2 10.6,256.2 	"/>
	<polygon class="st2" points="157.3,194.1 252.8,256.2 256.1,256.2 256.1,247.6 173.8,194.1 	"/>
	<polygon class="st2" points="245.4,88 150,150 150,150.1 166.4,150.1 256.1,91.8 256.1,88 	"/>
</g>
<path class="st2" d="M384,331l4.5,13.4l14.1,0.1l-11.3,8.4l4.3,13.4l-11.5-8.2l-11.5,8.2l4.3-13.4l-11.3-8.4l14.1-0.1L384,331"/>
<path class="st1" d="M384,331l4.5,13.4l14.1,0.1l-11.3,8.4l4.3,13.4l-11.5-8.2l-11.5,8.2l4.3-13.4l-11.3-8.4l14.1-0.1L384,331
	 M384,327.5c-1.5,0-2.9,1-3.4,2.4l-3.7,11l-11.6,0.1c-1.5,0-2.9,1-3.3,2.4s0,3,1.3,3.9l9.3,6.9l-3.5,11c-0.5,1.4,0.1,3,1.3,3.9
	c0.6,0.4,1.3,0.7,2.1,0.7c0.7,0,1.4-0.2,2.1-0.7l9.4-6.7l9.4,6.7c0.6,0.4,1.3,0.7,2.1,0.7c0.7,0,1.5-0.2,2.1-0.7
	c1.2-0.9,1.7-2.5,1.3-3.9l-3.5-11l9.3-6.9c1.2-0.9,1.7-2.5,1.3-3.9c-0.5-1.4-1.8-2.4-3.3-2.4l-11.6-0.1l-3.7-11
	C386.9,328.5,385.5,327.5,384,327.5L384,327.5z"/>
<path class="st1" d="M384,188.7l4.5,13.4l14.1,0.1l-11.3,8.4l4.3,13.4l-11.5-8.2l-11.5,8.2l4.3-13.4l-11.3-8.4l14.1-0.1L384,188.7
	 M384,185.2c-1.5,0-2.9,1-3.4,2.4l-3.7,11l-11.6,0.1c-1.5,0-2.9,1-3.3,2.4s0,3,1.3,3.9l9.3,6.9l-3.5,11c-0.5,1.4,0.1,3,1.3,3.9
	c0.6,0.4,1.3,0.7,2.1,0.7c0.7,0,1.4-0.2,2.1-0.7l9.4-6.7l9.4,6.7c0.6,0.4,1.3,0.7,2.1,0.7c0.7,0,1.5-0.2,2.1-0.7
	c1.2-0.9,1.7-2.5,1.3-3.9l-3.5-11l9.3-6.9c1.2-0.9,1.7-2.5,1.3-3.9s-1.8-2.4-3.3-2.4l-11.6-0.1l-3.7-11
	C386.9,186.2,385.5,185.2,384,185.2L384,185.2z"/>
<polygon class="st2" points="395.5,224 391.2,210.6 402.6,202.2 388.5,202.1 384,188.7 379.5,202.1 365.4,202.2 376.8,210.6 
	372.5,224 384,215.8 "/>
<path class="st1" d="M445.8,232.9l4.5,13.4l14.1,0.1l-11.3,8.4l4.3,13.4l-11.5-8.2l-11.5,8.2l4.3-13.4l-11.3-8.4l14.1-0.1
	L445.8,232.9 M445.8,229.3c-1.5,0-2.9,1-3.4,2.4l-3.7,11l-11.6,0.1c-1.5,0-2.9,1-3.3,2.4s0,3,1.3,3.9l9.3,6.9l-3.5,11
	c-0.5,1.4,0.1,3,1.3,3.9c0.6,0.4,1.3,0.7,2.1,0.7c0.7,0,1.4-0.2,2.1-0.7l9.4-6.7l9.4,6.7c0.6,0.4,1.3,0.7,2.1,0.7
	c0.7,0,1.5-0.2,2.1-0.7c1.2-0.9,1.7-2.5,1.3-3.9l-3.5-11l9.3-6.9c1.2-0.9,1.7-2.5,1.3-3.9s-1.8-2.4-3.3-2.4l-11.6-0.1l-3.7-11
	C448.7,230.3,447.3,229.3,445.8,229.3L445.8,229.3z"/>
<polygon class="st2" points="457.3,268.2 453,254.7 464.4,246.3 450.3,246.2 445.8,232.9 441.3,246.2 427.2,246.3 438.6,254.7 
	434.3,268.2 445.8,260 "/>
<path class="st1" d="M322.2,250.5l4.5,13.4l14.1,0.1l-11.3,8.4l4.3,13.4l-11.5-8.2l-11.5,8.2l4.3-13.4l-11.3-8.4l14.1-0.1
	L322.2,250.5 M322.2,247c-1.5,0-2.9,1-3.4,2.4l-3.7,11l-11.6,0.1c-1.5,0-2.9,1-3.3,2.4s0,3,1.3,3.9l9.3,6.9l-3.5,11
	c-0.5,1.4,0.1,3,1.3,3.9c0.6,0.4,1.3,0.7,2.1,0.7c0.7,0,1.4-0.2,2.1-0.7l9.4-6.7l9.4,6.7c0.6,0.4,1.3,0.7,2.1,0.7
	c0.7,0,1.5-0.2,2.1-0.7c1.2-0.9,1.7-2.5,1.3-3.9l-3.5-11l9.3-6.9c1.2-0.9,1.7-2.5,1.3-3.9s-1.8-2.4-3.3-2.4l-11.6-0.1l-3.7-11
	C325.1,247.9,323.7,247,322.2,247L322.2,247z"/>
<polygon class="st2" points="333.7,285.8 329.4,272.4 340.8,264 326.7,263.9 322.2,250.5 317.7,263.9 303.6,264 315,272.4 
	310.7,285.8 322.2,277.6 "/>
</svg>
