<?xml version="1.0" encoding="utf-8"?>
<!-- Generator: Adobe Illustrator 25.0.0, SVG Export Plug-In . SVG Version: 6.00 Build 0)  -->
<svg version="1.1" id="Layer_1" xmlns="http://www.w3.org/2000/svg" xmlns:xlink="http://www.w3.org/1999/xlink" x="0px" y="0px"
	 viewBox="0 0 512 512" style="enable-background:new 0 0 512 512;" xml:space="preserve">
<style type="text/css">
	.st0{fill:#FFFFFF;}
	.st1{fill:#005293;}
	.st2{fill:#D21034;}
</style>
<rect y="88" class="st0" width="256" height="168"/>
<rect y="256" class="st1" width="256" height="168"/>
<rect x="256" y="88" transform="matrix(-1 -1.224647e-16 1.224647e-16 -1 768 344.001)" class="st2" width="256" height="168"/>
<rect x="256" y="256" transform="matrix(-1 -1.224647e-16 1.224647e-16 -1 768 680.001)" class="st0" width="256" height="168"/>
<path class="st1" d="M131.4,134.5l8.4,25.2l26.6,0.2c3.4,0,4.9,4.4,2.1,6.5l-21.4,15.8l8,25.4c1,3.3-2.7,6-5.5,4L128,196.1
	l-21.6,15.5c-2.8,2-6.5-0.7-5.5-4l8-25.4l-21.4-15.8c-2.8-2-1.3-6.4,2.1-6.5l26.6-0.2l8.4-25.2C125.7,131.2,130.3,131.2,131.4,134.5
	z"/>
<path class="st2" d="M387.4,302.2l8.4,25.2l26.6,0.2c3.4,0,4.9,4.4,2.1,6.5l-21.4,15.8l8,25.4c1,3.3-2.7,6-5.5,4L384,363.8
	l-21.6,15.5c-2.8,2-6.5-0.7-5.5-4l8-25.4l-21.4-15.8c-2.8-2-1.3-6.4,2.1-6.5l26.6-0.2l8.4-25.2C381.7,298.9,386.3,298.9,387.4,302.2
	z"/>
</svg>
