<?xml version="1.0" encoding="utf-8"?>
<!-- Generator: Adobe Illustrator 25.0.0, SVG Export Plug-In . SVG Version: 6.00 Build 0)  -->
<svg version="1.1" id="Layer_1" xmlns="http://www.w3.org/2000/svg" xmlns:xlink="http://www.w3.org/1999/xlink" x="0px" y="0px"
	 viewBox="0 0 512 512" style="enable-background:new 0 0 512 512;" xml:space="preserve">
<style type="text/css">
	.st0{fill:#DA2130;}
	.st1{fill:#FFFFFF;}
	.st2{fill:#FFAB2B;}
	.st3{fill:#0056AC;}
	.st4{fill:#770C09;}
</style>
<rect y="88" class="st0" width="512" height="84"/>
<rect y="172" class="st1" width="512" height="168"/>
<rect y="340" class="st0" width="512" height="84"/>
<g>
	<path class="st2" d="M314.2,233.5l-56,22.9c0-0.1,0-0.1-0.1-0.2l54.1-27.1c-2.1-4.3-4.7-8.3-7.8-11.9l-46.7,38.6
		c0-0.1-0.1-0.1-0.1-0.2l42.8-42.8c-3.1-3.1-6.4-5.8-10-8.2l-33.1,50.7c-0.1-0.1-0.1-0.1-0.2-0.2l27.1-54.2c-4.3-2.2-9-3.9-13.8-5
		l-13.7,59c-0.2,0-0.3-0.1-0.5-0.1s-0.4,0.1-0.5,0.1l-13.7-59c-4.8,1.1-9.5,2.8-13.8,5l27.1,54.2c-0.1,0-0.1,0.1-0.2,0.2l-33.1-50.7
		c-3.6,2.4-7,5.1-10,8.2l42.8,42.8c-0.1,0.1-0.1,0.1-0.1,0.2l-46.7-38.6c-3,3.6-5.6,7.6-7.8,11.9l54.1,27.1c0,0.1-0.1,0.1-0.1,0.2
		l-56-22.9c-1.7,4.1-2.9,8.5-3.7,13l59.7,10.3c0,0.1,0,0.1,0,0.2l-60.2-6.3c-0.2,2.1-0.3,4.3-0.3,6.5c0,3.8,0.4,7.5,1,11.1l61.8-6.4
		l61.8,6.4c0.6-3.6,1-7.3,1-11.1c0-2.2-0.1-4.3-0.3-6.5l-60.2,6.3c0-0.1,0-0.1,0-0.2l59.7-10.3C317.1,242,315.9,237.6,314.2,233.5z"
		/>
	<g>
		<path class="st3" d="M195.3,273.3c0.4,1.6,0.9,3.2,1.5,4.8h118.5c0.6-1.6,1.1-3.2,1.5-4.8c-5.8-0.8-6.5-4.5-13.6-4.5
			c-7.9,0-7.9,4.7-15.7,4.7c-7.9,0-7.9-4.7-15.7-4.7c-7.9,0-7.9,4.7-15.7,4.7c-7.8,0-7.8-4.7-15.7-4.7c-7.9,0-7.9,4.7-15.7,4.7
			c-7.9,0-7.9-4.7-15.7-4.7C201.8,268.8,201.1,272.6,195.3,273.3z"/>
		<path class="st3" d="M301.3,285.1c-7.6,0-7.6-4.7-15.1-4.7c-7.6,0-7.6,4.7-15.1,4.7s-7.6-4.7-15.1-4.7c-7.6,0-7.6,4.7-15.1,4.7
			c-7.6,0-7.6-4.7-15.1-4.7c-7.6,0-7.6,4.7-15.1,4.7c-6.7,0-7.5-3.7-12.8-4.5c1.3,3.2,2.8,6.2,4.6,9.1h99h0h8.5
			c1.8-2.9,3.3-6,4.6-9.2C308.8,281.4,308.1,285.1,301.3,285.1z"/>
		<path class="st3" d="M307.3,293.4c-1.5-0.8-3.2-1.4-5.9-1.4c-7.6,0-7.6,4.7-15.1,4.7s-7.6-4.7-15.1-4.7c-7.6,0-7.6,4.7-15.1,4.7
			c-7.6,0-7.6-4.7-15.1-4.7c-7.6,0-7.6,4.7-15.1,4.7c-7.6,0-7.6-4.7-15.1-4.7c-2.7,0-4.5,0.6-5.9,1.4c2,2.8,4.2,5.5,6.7,7.9h89.3
			C303.1,298.9,305.3,296.3,307.3,293.4z"/>
		<path class="st3" d="M294.7,306.6c-2.3-1.3-4.1-2.9-8.6-2.9c-7.6,0-7.6,4.7-15.1,4.7s-7.6-4.7-15.1-4.7c-7.6,0-7.6,4.7-15.1,4.7
			c-7.6,0-7.6-4.7-15.1-4.7c-4.4,0-6.2,1.6-8.5,2.9c3.1,2.4,6.5,4.6,10,6.4h57.6C288.3,311.2,291.6,309.1,294.7,306.6z"/>
		<path class="st3" d="M240.9,315.3c-2.5,0-4.1,0.5-5.5,1.2c6.5,2.2,13.4,3.5,20.6,3.5h0C248.5,320,248.5,315.3,240.9,315.3z"/>
		<path class="st3" d="M256.1,320c7.2,0,14.1-1.2,20.6-3.5c-1.4-0.7-3-1.2-5.5-1.2C263.6,315.3,263.6,320,256.1,320z"/>
	</g>
	<g>
		<path class="st0" d="M264.3,249.2l-19.9-5.8c-1.1-0.3-1.9-1.3-1.9-2.5c-0.1-7.4-0.4-33.3-0.4-37.3c0-4.7,4.7-11.6,14-11.6h7.3
			c0.7,0,0.9,0.9,0.3,1.2c-3.4,1.4-7.6,4.4-7.6,10.4c0,7.1,6.8,10.1,10,11.2c1,0.3,1.7,1.2,1.7,2.3v29.6
			C267.6,248.4,266,249.7,264.3,249.2z"/>
		<path class="st0" d="M246.7,275.3c0.7-0.4,1.6,0.3,1.3,1.1c-1.9,4.7-6.7,13.4-15.2,13.4c-11.6,0-14-9.3-14-16.3v-49.4
			c0-1,0.8-1.8,1.8-1.8h3.3c1,0,1.8,0.8,1.8,1.8v47C225.7,277.4,239,279.9,246.7,275.3z"/>
		<path class="st0" d="M264.3,275.3c-0.7-0.4-1.6,0.3-1.3,1.1c1.9,4.7,6.7,13.4,15.2,13.4c11.6,0,14-9.3,14-16.3v-49.4
			c0-1-0.8-1.8-1.8-1.8h-3.3c-1,0-1.8,0.8-1.8,1.8v47C285.3,277.4,272,279.9,264.3,275.3z"/>
	</g>
	<g>
		<path class="st4" d="M280.5,267.6h-49c-0.6,0-1.1-0.5-1.1-1.1v-0.1c0-0.6,0.5-1.1,1.1-1.1h49c0.6,0,1.1,0.5,1.1,1.1v0.1
			C281.6,267.1,281.1,267.6,280.5,267.6z"/>
		<path class="st4" d="M235.3,258.9l2.5-3.4c0.4-0.5,0.3-1.2-0.2-1.6c-0.5-0.4-1.2-0.3-1.6,0.2l-1,1.3v-0.9c0-0.6-0.5-1.2-1.2-1.2
			s-1.2,0.5-1.2,1.2v0.8l-0.9-1.2c-0.4-0.5-1.1-0.6-1.6-0.2s-0.6,1.1-0.2,1.6l2.5,3.4l-2.5,3.4c-0.4,0.5-0.3,1.2,0.2,1.6
			c0.2,0.2,0.5,0.2,0.7,0.2c0.4,0,0.7-0.2,0.9-0.5l2.1-2.8l2.1,2.8c0.2,0.3,0.6,0.5,0.9,0.5c0.2,0,0.5-0.1,0.7-0.2
			c0.5-0.4,0.6-1.1,0.2-1.6L235.3,258.9z"/>
		<path class="st4" d="M257.1,258.9l2.5-3.4c0.4-0.5,0.3-1.2-0.2-1.6c-0.5-0.4-1.2-0.3-1.6,0.2l-1,1.3v-0.9c0-0.6-0.5-1.2-1.2-1.2
			s-1.2,0.5-1.2,1.2v0.8l-0.9-1.2c-0.4-0.5-1.1-0.6-1.6-0.2s-0.6,1.1-0.2,1.6l2.5,3.4l-2.5,3.4c-0.4,0.5-0.3,1.2,0.2,1.6
			c0.2,0.2,0.5,0.2,0.7,0.2c0.4,0,0.7-0.2,0.9-0.5l2.1-2.8l2.1,2.8c0.2,0.3,0.6,0.5,0.9,0.5c0.2,0,0.5-0.1,0.7-0.2
			c0.5-0.4,0.6-1.1,0.2-1.6L257.1,258.9z"/>
		<path class="st4" d="M246.2,258.9l2.5-3.4c0.4-0.5,0.3-1.2-0.2-1.6c-0.5-0.4-1.2-0.3-1.6,0.2l-1,1.3v-0.9c0-0.6-0.5-1.2-1.2-1.2
			s-1.2,0.5-1.2,1.2v0.8l-0.9-1.2c-0.4-0.5-1.1-0.6-1.6-0.2s-0.6,1.1-0.2,1.6l2.5,3.4l-2.5,3.4c-0.4,0.5-0.3,1.2,0.2,1.6
			c0.2,0.2,0.5,0.2,0.7,0.2c0.4,0,0.7-0.2,0.9-0.5l2.1-2.8l2.1,2.8c0.2,0.3,0.6,0.5,0.9,0.5c0.2,0,0.5-0.1,0.7-0.2
			c0.5-0.4,0.6-1.1,0.2-1.6L246.2,258.9z"/>
		<path class="st4" d="M267.9,258.9l2.5-3.4c0.4-0.5,0.3-1.2-0.2-1.6c-0.5-0.4-1.2-0.3-1.6,0.2l-1,1.3v-0.9c0-0.6-0.5-1.2-1.2-1.2
			s-1.2,0.5-1.2,1.2v0.8l-0.9-1.2c-0.4-0.5-1.1-0.6-1.6-0.2c-0.5,0.4-0.6,1.1-0.2,1.6l2.5,3.4l-2.5,3.4c-0.4,0.5-0.3,1.2,0.2,1.6
			c0.2,0.2,0.5,0.2,0.7,0.2c0.4,0,0.7-0.2,0.9-0.5l2.1-2.8l2.1,2.8c0.2,0.3,0.6,0.5,0.9,0.5c0.2,0,0.5-0.1,0.7-0.2
			c0.5-0.4,0.6-1.1,0.2-1.6L267.9,258.9z"/>
		<path class="st4" d="M278.8,258.9l2.5-3.4c0.4-0.5,0.3-1.2-0.2-1.6c-0.5-0.4-1.2-0.3-1.6,0.2l-1,1.3v-0.9c0-0.6-0.5-1.2-1.2-1.2
			s-1.2,0.5-1.2,1.2v0.8l-0.9-1.2c-0.4-0.5-1.1-0.6-1.6-0.2c-0.5,0.4-0.6,1.1-0.2,1.6l2.5,3.4l-2.5,3.4c-0.4,0.5-0.3,1.2,0.2,1.6
			c0.2,0.2,0.5,0.2,0.7,0.2c0.4,0,0.7-0.2,0.9-0.5l2.1-2.8l2.1,2.8c0.2,0.3,0.6,0.5,0.9,0.5c0.2,0,0.5-0.1,0.7-0.2
			c0.5-0.4,0.6-1.1,0.2-1.6L278.8,258.9z"/>
		<path class="st4" d="M233.2,274.8c1.7,0.8,11.8,0.9,14.4-1.8s2-3.9,2-3.9l-12.3,0.1L233.2,274.8z"/>
		<path class="st4" d="M278.3,274.8c-1.7,0.8-11.8,0.9-14.4-1.8s-2-3.9-2-3.9l12.3,0.1L278.3,274.8z"/>
	</g>
</g>
</svg>
