<?xml version="1.0" encoding="utf-8"?>
<!-- Generator: Adobe Illustrator 25.0.0, SVG Export Plug-In . SVG Version: 6.00 Build 0)  -->
<svg version="1.1" id="Layer_1" xmlns="http://www.w3.org/2000/svg" xmlns:xlink="http://www.w3.org/1999/xlink" x="0px" y="0px"
	 viewBox="0 0 512 512" style="enable-background:new 0 0 512 512;" xml:space="preserve">
<style type="text/css">
	.st0{fill:#FFFFFF;}
	.st1{fill:#01411C;}
</style>
<rect y="88.3" class="st0" width="132.4" height="336"/>
<rect x="132.4" y="88.3" transform="matrix(-1 -1.224647e-16 1.224647e-16 -1 644.415 512.552)" class="st1" width="379.6" height="336"/>
<g>
	<path class="st0" d="M412.1,302.2c-40.6,36.2-102.8,32.5-139-8.2c-36.1-40.6-32.4-103,8.2-139.2c0.1-0.1,0.1-0.1,0.2-0.2
		c1-0.8,0-2.4-1.2-1.9c-40.1,15.6-68.5,54.6-68.5,100.2c0,59.4,48.1,107.6,107.4,107.6c41,0,76.6-23.1,94.6-57
		C414.5,302.4,413.1,301.3,412.1,302.2C412.1,302.2,412.1,302.2,412.1,302.2z"/>
	<path class="st0" d="M359.8,172.6l14.1,15.8l19.6-8.2c2.5-1.1,5,1.7,3.6,4.1l-10.7,18.3l13.9,16.1c1.8,2.1-0.1,5.2-2.8,4.7
		l-20.7-4.5l-11,18.2c-1.4,2.4-5,1.5-5.3-1.2l-2.1-21.1l-20.7-4.8c-2.7-0.6-3-4.3-0.5-5.4l19.4-8.5l-1.8-21.1
		C354.6,172,358,170.5,359.8,172.6z"/>
</g>
</svg>
