<?xml version="1.0" encoding="utf-8"?>
<!-- Generator: Adobe Illustrator 25.0.0, SVG Export Plug-In . SVG Version: 6.00 Build 0)  -->
<svg version="1.1" id="Layer_1" xmlns="http://www.w3.org/2000/svg" xmlns:xlink="http://www.w3.org/1999/xlink" x="0px" y="0px"
	 viewBox="0 0 512 512" style="enable-background:new 0 0 512 512;" xml:space="preserve">
<style type="text/css">
	.st0{fill:#012169;}
	.st1{fill:#FFFFFF;}
	.st2{fill:#C8102E;}
	.st3{fill:#3F832C;}
	.st4{fill:#F9E31A;}
	.st5{fill:#A7998F;}
	.st6{fill:#9B8278;}
	.st7{fill:#FFCE5A;}
	.st8{fill:#4173CD;}
</style>
<polygon class="st0" points="256.1,88 256.1,256.2 0,256.2 0,424 512,424 512,88 "/>
<g id="Union_flag">
	<rect y="88" class="st0" width="256.1" height="168.2"/>
	<g>
		<polygon class="st1" points="106,150.1 106,142.2 22.7,88 0,88 0,105 69.3,150.1 		"/>
		<polygon class="st1" points="106,194.1 70.8,194.1 0,240.1 0,256.2 24.2,256.2 106,202.9 		"/>
		<polygon class="st1" points="233.9,88 150,142.5 150,150.1 187.3,150.1 256.1,105.3 256.1,88 		"/>
		<polygon class="st1" points="150,194.1 150,202.6 232.5,256.2 256.1,256.2 256.1,239.8 185.9,194.1 		"/>
	</g>
	<polygon class="st1" points="256.1,150.1 150,150.1 150,88 106,88 106,150.1 0,150.1 0,194.1 106,194.1 106,256.2 150,256.2 
		150,194.1 256.1,194.1 	"/>
	<polygon class="st2" points="256.1,158.8 141.3,158.8 141.3,88 114.8,88 114.8,158.8 0,158.8 0,185.3 114.8,185.3 114.8,256.2 
		141.3,256.2 141.3,185.3 256.1,185.3 	"/>
	<polygon class="st2" points="97.2,150.1 1.7,88 0,88 0,97.6 80.7,150.1 	"/>
	<polygon class="st2" points="106,194.1 89.6,194.1 0,252.4 0,256.2 10.6,256.2 	"/>
	<polygon class="st2" points="157.3,194.1 252.8,256.2 256.1,256.2 256.1,247.6 173.8,194.1 	"/>
	<polygon class="st2" points="245.4,88 150,150 150,150.1 166.4,150.1 256.1,91.8 256.1,88 	"/>
</g>
<g>
	<path class="st3" d="M387.2,177.4c-0.2,0-0.4-0.1-0.6-0.2c-0.1-0.1-13.8-10.8-5.8-28.9c0.2-0.5,0.8-0.7,1.3-0.5
		c0.5,0.2,0.7,0.8,0.5,1.3c-7.4,16.7,4.7,26.2,5.2,26.6c0.4,0.3,0.5,0.9,0.2,1.3C387.8,177.2,387.5,177.4,387.2,177.4z"/>
	<path class="st3" d="M379.3,161.7c0,0-0.1,0-0.1,0c-0.5-0.1-0.9-0.5-0.8-1.1c0.4-3.4,1.7-5.8,3.8-7.1c3.4-2.1,7.8-0.4,7.9-0.3
		c0.5,0.2,0.7,0.7,0.5,1.2c-0.2,0.5-0.7,0.7-1.2,0.5c0,0-3.6-1.4-6.3,0.2c-1.6,1-2.6,2.9-2.9,5.7
		C380.2,161.4,379.8,161.7,379.3,161.7z"/>
	<path class="st3" d="M381.9,149.5c-0.1-0.2-2.1-5.1-11.4-3c-10.5,2.4-10.7,16.3-10.7,16.4c0,0.5,0.4,0.9,0.8,0.9c0,0,0.1,0,0.1,0
		c0.4,0,0.8-0.3,0.9-0.7c3.9-15,18.6-12.4,19.2-12.3c0.4,0.1,0.7-0.1,0.9-0.3C382,150.1,382,149.8,381.9,149.5z"/>
	<path class="st3" d="M379.7,157.2c0,0-6.3-4-9,1.1c-2.6,5.2-0.6,10.7,0.4,12.9c0,0,3.8-4.2,7.4-4.8c4.4-0.7,5.6-6.3,2.5-9
		C377.3,154.1,379.7,157.2,379.7,157.2z"/>
	<path class="st3" d="M386.6,147.7c-0.1,5.6,3,6.3,3,6.3C391.6,148.9,386.6,147.7,386.6,147.7z"/>
	<path class="st3" d="M385.7,159.4c0-5.3,3.6-5.9,3.6-5.9C391.5,158.4,385.7,159.4,385.7,159.4z"/>
</g>
<path class="st2" d="M406.3,155.1c0,0-5.1-0.7-7-1.7c-1.6-0.8-3.7-2.6-6.4-2.2c-2.1,0-3.8,1.7-3.8,3.8s1.4,4.6,8.9,4
	c3.6-0.3,6.7,1.4,6.7,1.4C404.2,158.4,406.3,155.1,406.3,155.1z"/>
<path class="st4" d="M401,156.8c0,0-7.8,0.5-9.5-0.7c-1.6-1.2-1.2-3,0.4-3.2C394.5,152.6,401,156.8,401,156.8z"/>
<path class="st5" d="M416.1,165.6L399,176.3l-2-1.9l9.4-9.1l2.2,0.9l2.1-2.9l-5.1-2.7c0,0-13.6,12.8-25.1,13.9
	c-3.9,0.4-7.8,0.1-10.9-1.2l-6.9,10l14.5,12.4l21.3-0.8l17.6-23.9l3.1,1.4l2.6-3.1L416.1,165.6z"/>
<path class="st6" d="M368.4,194.4c-4.8,0-8.6-3.9-8.6-8.6c0-4.8,3.9-8.6,8.6-8.6c4.8,0,8.6,3.9,8.6,8.6
	C377,190.5,373.1,194.4,368.4,194.4z M368.4,180c-3.2,0-5.8,2.6-5.8,5.8s2.6,5.8,5.8,5.8s5.8-2.6,5.8-5.8S371.6,180,368.4,180z"/>
<g>
	<path class="st3" d="M404.4,202.4c0,0,1.6-1,3.2-5.9l-3.3,0.5c0,0,0.6-2.7-0.1-4.7l-3.6,2.9c0,0-1.7-3.5-2.4-4c0,0-2.5,3.6-4,4
		c0,0-1.4-5.2-2.9-6.2l-2.5,3.5l-3.6-2.9c0,0,0,2.5-0.1,3c-0.1,0.6-4.8-4.9-4.8-4.9s-2.1,0.9-4.8,5.3l-3.5-3.6l-1.4,4.7l-4.8-1.3
		l0.8,2.8l-4.2-0.3c0,0,0.7,4.1,2.8,5.6L404.4,202.4z"/>
	<path class="st3" d="M362.3,220.1c0,0-13.1,16.7-37.8,14.8l26.9,3.7l13.8-13.1L362.3,220.1z"/>
</g>
<g>
	<path class="st4" d="M319.6,232.4c2.6,1.9,18.8,6.5,30.5,1c0,0,0.2,2.7-1.1,4.3c0,0,8.6-3.5,13.2-9.9c4.6-6.4-9.6,13.8-9.6,13.8
		l-21.9,4l-8.9-7.4L319.6,232.4z"/>
	<path class="st4" d="M317.9,172.3c-2.9,0.2-6.1,2-7.7,4.1c-0.9-0.4-2.8-0.5-4.4,0.5c-2.1,1.4-6.1,6.6-9.5,5.2c0,0-0.3,4.9,4.9,4.7
		c0,0-1.3,2-1.1,5.2c0.2,3.2-2.1,5.4-2.1,5.4s10.5,1.5,10.9-6.7c0.1-1,0.1-1.9,0.1-2.7c5.5,3,7.6-1.2,7.6-1.2s-3.3-3.1,0.1-7.5
		c3.3-4.4,12.5,6,12.5,6C329.5,181.3,329.1,171.4,317.9,172.3z"/>
</g>
<g>
	<path class="st3" d="M358.4,199.8c0,0-3,2.1-12.4,0.2c0,0,2.1-4.6,1.1-7.3c0,0-2.5,2.4-8.7,4.8s-13.8,10-16,14.9
		c0,0,13.9-32.1,2.7-35.4c-3.8-1.1-7.1,0.7-8.3,2.5c0.6,0.7,1.1,1.6,1.2,2.9c0.1,2.7-2.6,21.2-6.7,33.9c0,0-1.2-4.4-3.1-6.5
		c-1.9-2.1-3.3-5.6-3.3-5.6s-3.2,2.1-2.7,6.1c0,0-1.8-1.4-5.2-0.5s-4.8-1.3-4.8-1.3s-2.9,7.6,5.6,11.5c0,0-2.3,1.1-3.3,1.9
		c-1.1,0.8-2.7,0.8-2.7,0.8s3,5.5,9.3,6.1c6.3,0.6,9.2,2.4,11.2,5.6c6.4,10.5,18.7,18.5,38.8,6.2c0,0-28.6,8.9-29.8-9.4
		c-1.1-16,16.3-19.2,18.1-15.7S339,222,339,222s9.5-2.2,4.9-11C343.9,211.1,353.3,212.5,358.4,199.8z"/>
	<path class="st3" d="M450.1,232.4c-2.6,1.9-19.2,9-30.6-2.4c-11.4-11.4-15.9-28.6-15.2-26.7h-11.4l3.8,34.3l42.4,8l8.9-7.4
		L450.1,232.4z"/>
	<path class="st3" d="M451.8,172.3c2.9,0.2,6.1,2,7.7,4.1c0.9-0.4,2.8-0.5,4.4,0.5c2.1,1.4,6.1,6.6,9.5,5.2c0,0,0.3,4.9-4.9,4.7
		c0,0,1.3,2,1.1,5.2c-0.2,3.2,2.1,5.4,2.1,5.4s-10.5,1.5-10.9-6.7c-0.1-1-0.1-1.9-0.1-2.7c-5.5,3-7.6-1.2-7.6-1.2s3.3-3.1-0.1-7.5
		c-3.3-4.4-12.5,6-12.5,6C440.2,181.3,440.5,171.4,451.8,172.3z"/>
</g>
<path class="st4" d="M411.3,199.8c0,0,3,2.1,12.4,0.2c0,0-2.1-4.6-1.1-7.3c0,0,2.5,2.4,8.7,4.8s13.8,10,16,14.9
	c0,0-13.9-32.1-2.7-35.4c3.8-1.1,7.1,0.7,8.3,2.5c-0.6,0.7-1.1,1.6-1.2,2.9c-0.1,2.7,2.6,21.2,6.7,33.9c0,0,1.2-4.4,3.1-6.5
	c1.9-2.1,3.3-5.6,3.3-5.6s3.2,2.1,2.7,6.1c0,0,1.8-1.4,5.2-0.5s4.8-1.3,4.8-1.3s2.9,7.6-5.6,11.5c0,0,2.3,1.1,3.3,1.9
	c1.1,0.8,2.7,0.8,2.7,0.8s-3,5.5-9.3,6.1c-6.3,0.6-9.2,2.4-11.2,5.6c-6.4,10.5-18.7,18.5-38.8,6.2c0,0,28.6,8.9,29.8-9.4
	c1.1-16-16.3-19.2-18.1-15.7s0.2,6.5,0.2,6.5s-9.5-2.2-4.9-11C425.7,211.1,416.4,212.5,411.3,199.8z"/>
<g>
	<path class="st3" d="M403.2,226.5c4.7,6.8,11.2,13,30.1,18.9s23.9,6.7,33.8,14.7c0,0,1.9,2,2.6,5.2c0.8,3.7-4.9,14.5-4.9,14.5
		s0.6-2.5-2.9-7.5s-24.1-13.8-34.9-16.5c-10.8-2.7-29.4-15.2-24.3-24.6L403.2,226.5z"/>
	<path class="st3" d="M467.1,260.1C467.1,260.1,467.1,260.1,467.1,260.1C467.1,260.1,467.1,260.1,467.1,260.1L467.1,260.1z"/>
</g>
<g>
	<path class="st4" d="M466.6,283.3c0,0,0.5,3.5-2.4,6.4c-2.9,3-4.9,5.1-4.8,7.6c0,0-4.3-3.1-3.6-10c0,0-5.6,4.6-14,0.1
		c0,0,0.8-8.5,11.8-9.5c0,0-4.3-3.3,1.3-8.5c0,0,0.6,2.3,5.7,3.5c4.4,1,12.2-4.5,6.4-12.8C477.1,271.4,472,279.1,466.6,283.3z"/>
	<path class="st4" d="M399.1,220.2c0,0,2.4,3.9,8.7,7.8c7.5,4.6,8.2,6.7,8.2,6.7l-5.1-0.1c0,0,6.5,3.6,8.3,8.1c0,0-2.7,0.5-5.8-0.4
		c0,0,2.5,2.3,1.3,9.5H402L399.1,220.2z"/>
</g>
<path class="st3" d="M373.8,252.8v-30.5c0,0-10.3,17.7-19.3,30.5H373.8z"/>
<path class="st4" d="M364.9,221.7c-2.5,4.6-10.5,19.8-29.4,25.6c-18.9,5.9-22.3,4.8-32.2,12.8c0,0-1.9,2-2.6,5.2
	c-0.8,3.7,4.9,14.5,4.9,14.5s-0.6-2.5,2.9-7.5s24-14.3,34.9-16.5c15.1-3,28.7-19.2,26.5-29.7C367.7,215.7,364.9,221.7,364.9,221.7z"
	/>
<g>
	<path class="st3" d="M303.3,260.1C303.3,260.1,303.3,260.1,303.3,260.1C303.3,260.1,303.3,260.1,303.3,260.1L303.3,260.1z"/>
	<path class="st3" d="M303.8,283.3c0,0-0.5,3.5,2.4,6.4c2.9,3,4.9,5.1,4.8,7.6c0,0,4.3-3.1,3.6-10c0,0,5.6,4.6,14,0.1
		c0,0-0.8-8.5-11.8-9.5c0,0,4.3-3.3-1.3-8.5c0,0-0.6,2.3-5.7,3.5c-4.4,1-12.2-4.5-6.4-12.8C293.3,271.4,298.4,279.1,303.8,283.3z"/>
</g>
<path class="st4" d="M330.1,334.1c0,0,2.7,12.1,2.9,24.7c0,0,11.8,0.4,17.5-8.5c0,0-11.4-6-17.5-17.5L330.1,334.1z"/>
<path class="st3" d="M327.6,307.3c-0.5-5.7,2.1-20.2,13.6-30.6l0.3-12.8c0,0-3.5,0.4-6.5,3l-6.5,10.1l-6.1,23L327.6,307.3z"/>
<path class="st4" d="M327.9,311.4c0,0,0,12.2,5.1,21.4l-2.9,1.3c0,0-10.2-8.1-12.4-24.6c0,0-9.2,6.1-12.5-6.3c0,0,9.8,4,13-5.1
	c2.9-8.2,5.8-23,16.8-31.2c-5.2,8.1-13.1,28.7-7,36c1.6,1.9,6.3,3.6,11.4,1.4C339,308.3,337.1,314.5,327.9,311.4z"/>
<path class="st7" d="M329.4,336.2l-1.7-3.1c-0.3-0.5-0.1-1.2,0.4-1.5l3.1-1.7c0.5-0.3,1.2-0.1,1.5,0.4l1.7,3.1
	c0.3,0.5,0.1,1.2-0.4,1.5l-3.1,1.7C330.3,337,329.7,336.8,329.4,336.2z"/>
<g>
	<path class="st4" d="M432.6,334.1c0,0-2.7,12.1-2.9,24.7c0,0-11.8,0.4-17.5-8.5c0,0,11.4-6,17.5-17.5L432.6,334.1z"/>
	<path class="st4" d="M435.2,307.3c0.5-5.7-2.1-20.2-13.6-30.6l-0.3-12.8c0,0,3.5,0.4,6.5,3l6.5,10.1l6.1,23L435.2,307.3z"/>
</g>
<path class="st3" d="M423.4,304.2c5.1,2.2,9.7,0.5,11.4-1.4c6.1-7.3-1.8-27.9-7-36c11,8.2,13.9,23,16.8,31.2c3.2,9,13,5.1,13,5.1
	c-3.4,12.4-12.5,6.3-12.5,6.3c-2.1,16.5-12.4,24.6-12.4,24.6l-2.9-1.3c5.1-9.2,5.1-21.4,5.1-21.4
	C425.7,314.5,423.8,308.3,423.4,304.2z"/>
<path class="st7" d="M433.4,336.2l1.7-3.1c0.3-0.5,0.1-1.2-0.4-1.5l-3.1-1.7c-0.5-0.3-1.2-0.1-1.5,0.4l-1.7,3.1
	c-0.3,0.5-0.1,1.2,0.4,1.5l3.1,1.7C432.4,337,433.1,336.8,433.4,336.2z"/>
<path class="st8" d="M343.3,249c-2.1,0-3.8,1.7-3.8,3.8v41.9c0,11.4,3.8,53.3,41.9,68.6c38.1-15.2,41.9-57.1,41.9-68.6v-41.9
	c0-2.1-1.7-3.8-3.8-3.8H343.3z"/>
<path class="st4" d="M379.1,249l-36.1,69.2c0.9,3.2,2,6.5,3.4,9.9l35-67.1l35,67.1c1.4-3.3,2.5-6.7,3.4-9.9L383.7,249H379.1
	L379.1,249z"/>
<path class="st3" d="M416.4,328.1l-35-67.1l-35,67.1l0,0c5.8,13.6,16.2,27.6,35,35.2C400.2,355.8,410.6,341.8,416.4,328.1
	L416.4,328.1z"/>
<path class="st4" d="M395.5,332.5l2.3,1.1c-1,1.4-3,3.7-6.8,5.8c-2.9,1.6-5.7,3.5-7.7,4.9v-31.4l9.5-1v-3.8l-9.5-1v-4.7
	c0-1.1-0.9-1.9-1.9-1.9c-0.9,0-1.6,0.6-1.8,1.5c-0.6-0.5-1.4-0.8-2.2-0.8c-2.1,0-3.9,1.7-3.9,3.9c0,1,0.4,1.9,1,2.6l-4.6,0.5v3.8
	l9.5,1v31.4c-2-1.4-4.8-3.3-7.7-4.9c-3.8-2.1-5.9-4.4-6.8-5.8l2.3-1.1l-8.7-11.1v15.2l2.9-1.4c1.2,1.9,3.6,4.9,8.5,7.5
	c4.1,2.2,8,5.1,9.6,6.3l1.9,1.5l1.9-1.5c1.6-1.2,5.5-4,9.6-6.3c4.9-2.6,7.3-5.7,8.5-7.5l2.9,1.4v-15.2L395.5,332.5z M377.4,307
	c-1.1,0-2-0.9-2-2c0-1.1,0.9-2,2-2c1.1,0,2,0.9,2,2S378.4,307,377.4,307z"/>
<path class="st1" d="M384.3,298.5h-5.9c-1.5,0-2.8-1.2-2.8-2.8v-9.7c0-1.5,1.2-2.8,2.8-2.8h5.9c1.5,0,2.8,1.2,2.8,2.8v9.7
	C387.1,297.3,385.8,298.5,384.3,298.5z"/>
<path class="st5" d="M408,249c-7.6-11.4-7.6-34.3-7.6-34.3s0-15.2-19-15.2c-9.6,0-14.4,3.9-16.7,7.8c-9.1,3.7-13.7,11.3-13.7,11.3
	c3.9,1.9,7.3,2.9,10.5,3.1c6.2,7.4,8.3,14.5,8.8,19.7c-3.6,3.7-5.6,12.5-0.2,19.1c0,0,11.3-2.6,20.8-11.4L408,249L408,249L408,249
	L408,249z"/>
<g>
	<path class="st6" d="M390.7,249h14.2C404.2,242,397.3,243.1,390.7,249z"/>
	<path class="st6" d="M404.6,241.8c-4.2-11.8-4.2-27.1-4.2-27.1s0-0.2,0-0.7c-5-0.7-10-0.3-20,3.5c-10.6,4.1-15.7,4.2-19.1,4.1
		c6.2,7.4,8.3,14.5,8.8,19.7l0.2,8.1c0,0,6,0.9,19-6.7C395.9,239,401.5,238.7,404.6,241.8z"/>
	<path class="st6" d="M384.3,213.1c7.7-1.9,12.7-1.7,15.8-0.6c-0.9-4.2-4.3-13-18.8-13c-9.6,0-14.4,3.9-16.7,7.8l-5.8,8.1
		C358.8,215.4,366.1,217.6,384.3,213.1z"/>
</g>
<path class="st4" d="M368.8,197.8c0.8,0.7,3,6.1,2.5,6.9c-0.3,0.5-6.3,2-7.2,1.2c-0.9-0.7-1.9-6.5-1.3-7.2
	C363.3,198.3,368.2,197.2,368.8,197.8z"/>
<path class="st3" d="M376.5,197.5c0.7,0.8,2.3,6.1,1.6,6.7c-0.4,0.4-7,1-8,0.1c-0.8-0.7-1-6.2-0.3-6.8
	C370.5,197.2,375.9,196.9,376.5,197.5z"/>
<path class="st4" d="M383.7,197.3c0.7,0.7,2.4,5.7,1.7,6.3c-0.4,0.4-7.3,0.9-8.2,0.1c-0.9-0.7-1.1-5.9-0.3-6.4
	C377.6,197,383.1,196.7,383.7,197.3z"/>
<g>
	<path class="st3" d="M391.1,197.7c0.6,0.8,1.8,6,1.2,6.6c-0.4,0.4-7.1,0.4-8-0.5c-0.8-0.8-0.6-6.1,0.2-6.5
		C385.2,196.9,390.5,197,391.1,197.7z"/>
	<path class="st3" d="M406.3,200.8c0.5,0.9,0.4,5.7-0.3,6.2c-0.5,0.3-6.5-0.8-7.2-1.8c-0.6-0.9,0.4-6.1,1.3-6.4
		C400.8,198.6,405.9,200.1,406.3,200.8z"/>
</g>
<path class="st4" d="M399.3,198.8c0.6,0.8,1.1,5.7,0.3,6.2c-0.5,0.3-7.3-0.2-8.2-1.1c-0.7-0.8-0.2-5.8,0.6-6.2
	C392.8,197.3,398.8,198.1,399.3,198.8z"/>
<circle class="st6" cx="368.4" cy="185.8" r="2.6"/>
</svg>
