<?xml version="1.0" encoding="utf-8"?>
<!-- Generator: Adobe Illustrator 25.0.0, SVG Export Plug-In . SVG Version: 6.00 Build 0)  -->
<svg version="1.1" id="Layer_1" xmlns="http://www.w3.org/2000/svg" xmlns:xlink="http://www.w3.org/1999/xlink" x="0px" y="0px"
	 viewBox="0 0 512 512" style="enable-background:new 0 0 512 512;" xml:space="preserve">
<style type="text/css">
	.st0{fill:#006600;}
	.st1{fill:#FF0000;}
	.st2{fill:#FFFF00;}
	.st3{fill:#FFFFFF;}
	.st4{fill:#003399;}
</style>
<rect y="87.7" class="st0" width="185.4" height="336"/>
<rect x="185.4" y="87.7" transform="matrix(-1 -1.224647e-16 1.224647e-16 -1 697.381 511.45)" class="st1" width="326.6" height="336"/>
<g id="seal">
	<circle class="st2" cx="185.4" cy="256" r="79.4"/>
	<path class="st1" d="M211.9,229.5v35.3c0,14.6-11.9,26.5-26.5,26.5S159,279.4,159,264.8v-35.3H211.9 M220.8,211.9h-70.6
		c-4.9,0-8.8,4-8.8,8.8v44.1c0,24.4,19.8,44.1,44.1,44.1s44.1-19.8,44.1-44.1v-44.1C229.6,215.8,225.6,211.9,220.8,211.9
		L220.8,211.9z"/>
	<path class="st3" d="M211.9,229.5v35.3c0,14.6-11.9,26.5-26.5,26.5S159,279.4,159,264.8v-35.3H211.9"/>
	<g>
		<circle class="st2" cx="150.1" cy="220.7" r="4.4"/>
		<circle class="st2" cx="220.7" cy="220.7" r="4.4"/>
		<circle class="st2" cx="150.1" cy="256" r="4.4"/>
		<circle class="st2" cx="220.7" cy="256" r="4.4"/>
		<circle class="st2" cx="185.4" cy="220.7" r="4.4"/>
		<circle class="st2" cx="211.9" cy="288.6" r="4.4"/>
		<circle class="st2" cx="159.4" cy="288.6" r="4.4"/>
	</g>
	<g>
		<path class="st4" d="M191.1,253.8v7.6c0,3.1-2.6,5.7-5.7,5.7s-5.7-2.6-5.7-5.7v-7.6L191.1,253.8"/>
		<path class="st4" d="M191.1,235.7v7.6c0,3.1-2.6,5.7-5.7,5.7s-5.7-2.6-5.7-5.7v-7.6H191.1"/>
		<path class="st4" d="M191.1,272v7.6c0,3.1-2.6,5.7-5.7,5.7s-5.7-2.6-5.7-5.7V272H191.1"/>
		<path class="st4" d="M206.5,253.8v7.6c0,3.1-2.6,5.7-5.7,5.7s-5.7-2.6-5.7-5.7v-7.6L206.5,253.8"/>
		<path class="st4" d="M175.8,253.8v7.6c0,3.1-2.6,5.7-5.7,5.7s-5.7-2.6-5.7-5.7v-7.6L175.8,253.8"/>
	</g>
</g>
</svg>
