<?xml version="1.0" encoding="utf-8"?>
<!-- Generator: Adobe Illustrator 25.0.0, SVG Export Plug-In . SVG Version: 6.00 Build 0)  -->
<svg version="1.1" id="Layer_1" xmlns="http://www.w3.org/2000/svg" xmlns:xlink="http://www.w3.org/1999/xlink" x="0px" y="0px"
	 viewBox="0 0 512 512" style="enable-background:new 0 0 512 512;" xml:space="preserve">
<style type="text/css">
	.st0{fill:#D52B1E;}
	.st1{fill:#FFFFFF;}
	.st2{fill:#0038A8;}
	.st3{fill:#FEDF00;}
	.st4{fill:#006C27;}
</style>
<rect y="88.3" class="st0" width="512" height="112"/>
<rect y="200.3" class="st1" width="512" height="112"/>
<rect y="312.3" class="st2" width="512" height="112"/>
<g id="seal">
	<path class="st0" d="M256,211.9c-24.4,0-44.1,19.8-44.1,44.1s19.8,44.1,44.1,44.1s44.1-19.8,44.1-44.1S280.4,211.9,256,211.9z
		 M256,289.3c-18.4,0-33.3-14.9-33.3-33.3s14.9-33.3,33.3-33.3s33.3,14.9,33.3,33.3S274.4,289.3,256,289.3z"/>
	<circle class="st2" cx="256" cy="256" r="15.3"/>
	<path class="st3" d="M257,244.4l2.5,7.4l7.8,0.1c1,0,1.4,1.3,0.6,1.9l-6.3,4.6l2.4,7.4c0.3,1-0.8,1.8-1.6,1.2l-6.3-4.5l-6.3,4.5
		c-0.8,0.6-1.9-0.2-1.6-1.2l2.4-7.4l-6.3-4.6c-0.8-0.6-0.4-1.9,0.6-1.9l7.8-0.1l2.5-7.4C255.3,243.4,256.7,243.4,257,244.4z"/>
	<path class="st4" d="M285,256.4c0,0,0.9-4-3.4,0.8c0,0,0.1-1.4-0.1-2.5c0.9-1,2.1-3.3,1.8-8.1c0,0-0.7-4.1-2.9,2
		c0,0-0.6-1.8-1.2-2.8c0.5-1.1,0.9-3.1-0.3-6.9c0,0-1.5-3.3-2,2.3c0,0-1.2-1.8-2-2.3c0.2-0.9,0-2.5-1.8-5c0,0-1.8-2-0.9,2.1
		c0,0-1.7-1.3-2.2-1.2c-0.3-0.8-1.1-2.1-3.7-3.9c0,0-2.3-1.3,0.3,2c0,0-2.3-0.9-2.3-0.4c0,0.5,1.2,1.5,2.1,2c0,0-3.4,0.4-2,1.1
		c0,0,3.5,1.2,5.6,0c0.2,0.6,0.5,1.3,1,1.8c0,0-4.1-0.8-3,0.4c0,0,3.1,2.3,6.1,1.9c0,0.8,0.2,1.9,0.7,2.7c0,0-4.9-2.6-3.9-0.6
		c0,0,2.9,3.9,6.8,4.7c-0.2,0.9-0.2,1.9,0.1,2.8c0,0-4.6-4.4-4.2-1.9c0,0,1.9,5.1,5.8,7.3c-0.3,0.6-0.6,1.4-0.7,2.1
		c0,0-2.7-5.8-3.2-3.3c0,0-0.1,5.8,3,9.2c-0.7,0.5-1.3,1.3-1.7,2.1c0,0-0.6-6.3-1.9-4.2c0,0-1.8,4.8-0.6,8.9
		c-0.8,0.2-1.7,0.7-2.4,1.2c0,0,2-6.1-0.1-4.6c0,0-3.7,4-4,8.4c-1,0-2.3,0.3-3.2,0.9c0,0,2.8-5.7,0.5-4.6c0,0-4,3.3-5,7.5
		c-0.9,0.5-2.6,1.5-4.2,2.4c-0.9-0.5-1.8-1.1-2.6-1.5l0,0l-9.1-7.6l0.2,2.5l-4.6-8.2l-0.6,2.8l-1.5-9l-1.3,1.3l0.5-8.4l-1.7,0.9
		l3.1-6.3l-1.5,0.4l3.9-3.7l-2.1,0.2l4.9-2.2l-1.8-0.3l4.8-2.4l-2.1-0.1l6.2-2.2l-1.1-1l5.4-1.6l-6.4-0.5l1.8-2.3l-4.9,2.5l0.7-3.4
		l-4.3,4.4l0.7-3.1l-4,4l0.3-3l-4,6.7l-0.5-3l-3.3,7.6l-0.9-3.3l-1.5,9.4l-1.2-1.4l1.6,9.1l-2.1-1.5l3.8,8.1c0,0-2.7-1.2-3.1-1.2
		s6.6,7,6.6,7l-3.6-0.4l7,4.9l-2.6,0.6l5.8,2.2l-1.4,1.1l12,0.9c0,0,1.2,1,2.7,2.1c-0.8,0.5-1.6,0.9-2,1.1c-0.5,0.2-1,0.3-1.5,0.1
		c-1.1-0.5-2.8-1.1-3.6-1.5c0,0,0.1,3.4,3.6,3.5c1.5,0,3.4-0.9,5.3-2c1.9,1.2,4,2.2,5.5,2.2c3.5-0.1,3.5-3.5,3.5-3.5
		c-0.8,0.3-2.4,1-3.5,1.5c-0.5,0.2-1,0.2-1.4-0.1c-0.5-0.3-1.3-0.7-2.2-1.3c0.9-0.6,1.7-1.2,2.3-1.7c0.9,0.7,3.4,1.9,8.9-0.2
		c0,0,3.7-1.9-2.8-2.2c0,0,1.2-0.9,2-1.7c1.1,0.5,3.7,1.2,8.7-1.5c0,0,3.4-2.4-3.1-1.7c0,0,0.9-0.8,1.5-1.7c1.1,0.1,3.9-0.2,7.5-4.8
		c0,0,2.2-3.5-3.5-0.4c0,0,0.7-1.8,0.9-2.9C281.5,262.6,283.5,260.9,285,256.4z"/>
</g>
</svg>
