<?xml version="1.0" encoding="utf-8"?>
<!-- Generator: Adobe Illustrator 25.0.0, SVG Export Plug-In . SVG Version: 6.00 Build 0)  -->
<svg version="1.1" id="Layer_1" xmlns="http://www.w3.org/2000/svg" xmlns:xlink="http://www.w3.org/1999/xlink" x="0px" y="0px"
	 viewBox="0 0 512 512" style="enable-background:new 0 0 512 512;" xml:space="preserve">
<style type="text/css">
	.st0{fill:#006C35;}
	.st1{fill:#FFFFFF;}
</style>
<rect y="88.3" class="st0" width="512" height="336"/>
<g>
	<path class="st1" d="M105.9,202.3c0.9,5.6,4.2,7.3,7.2,7.1c3.5-0.3,6.5-3.4,6.5-6.8v-19.1c0-1,0.8-1.7,1.7-1.7s1.7,0.8,1.7,1.7
		v19.2c0,2.3,1.1,4.5,3.1,5.8c1.2,0.8,2.5,1.2,3.9,1.2c0.9,0,1.8-0.2,2.6-0.5l1.7-0.7c0.2,16.1-0.8,30.2-0.8,30.4
		c-0.1,1.9,1.3,3.6,3.2,3.7c0.1,0,0.2,0,0.3,0c1.8,0,3.3-1.4,3.5-3.2c0.1-1.1,1.2-16.6,0.8-33.7l1.1-0.4c0.9-0.4,2-0.3,2.8,0.1
		c3.8,1.9,8.4,1.2,11.5-1.9l0.6-0.6c2.8-2.8,3.8-6.9,2.5-10.7l-3-8.9c1.6,0.5,3.4-0.2,4.1-1.8c0.9-1.7,0.2-3.8-1.6-4.7l-7-3.5
		c-1.3-0.6-2.8-0.4-3.8,0.5c-1.1,0.9-1.5,2.4-1,3.7l5.6,16.8c0.4,1.3,0.1,2.6-0.8,3.6l-0.6,0.6c-0.9,0.9-2.3,1.1-3.4,0.6
		c-2.3-1.1-4.8-1.3-7.2-0.7c-0.5-11.2-1.7-22.3-4.3-30c-0.6-1.8-2.6-2.8-4.4-2.2c-1.8,0.6-2.8,2.6-2.2,4.4c2.5,7.5,3.6,19,4,30.4
		l-4.2,1.7v-19.2c0-4.8-3.9-8.7-8.7-8.7s-8.7,3.9-8.7,8.7v16.8l-3.6-17.5c-0.4-1.9-2.2-3.1-4.1-2.7c-1.9,0.4-3.1,2.2-2.7,4.1
		L105.9,202.3z"/>
	<path class="st1" d="M112.6,173c1.9,0,3.5-1.6,3.5-3.5v-3.5c0-1.9-1.6-3.5-3.5-3.5s-3.5,1.6-3.5,3.5v3.5
		C109.2,171.5,110.7,173,112.6,173z"/>
	<path class="st1" d="M147.4,169.6h3.5c1.9,0,3.5-1.6,3.5-3.5c0-1.9-1.6-3.5-3.5-3.5h-3.5c-1.9,0-3.5,1.6-3.5,3.5
		S145.5,169.6,147.4,169.6z"/>
	<path class="st1" d="M124.8,215.3l-17.4,10.4c-1.6,1-2.2,3.1-1.2,4.8c0.7,1.1,1.8,1.7,3,1.7c0.6,0,1.2-0.2,1.8-0.5l17.4-10.4
		c1.6-1,2.2-3.1,1.2-4.8C128.6,214.8,126.4,214.3,124.8,215.3z"/>
	<path class="st1" d="M171.7,221.4L171.7,221.4c0.4,1.1,0.9,2.3,1.7,3.2c1.4,1.7,3.5,2.5,5.9,2.3c3.4-0.2,5.7-1.8,7.2-3.8
		c0.2,0.2,0.5,0.3,0.7,0.4c1.9,0.9,4.1,0.9,6.1-0.2c5.3-2.7,6.4-9,6.2-12.2c-0.1-1.9-1.7-3.3-3.6-3.3c-1.9,0.1-3.4,1.7-3.3,3.6
		c0,0,0.1,4.2-2.4,5.7c-0.4-0.6-0.9-1.9-1.1-2.9c-0.3-1.8-1.9-3-3.7-2.9c-1.8,0.1-3.2,1.7-3.2,3.5c0,0.5-0.1,5-3.6,5.3
		c-0.4-0.5-0.4-2.9,0-4.6c0.3-1.4-0.2-2.9-1.4-3.7c-1.2-0.8-2.7-0.8-3.9,0l-1.9,1.3c-0.9-20.2-3-43.7-3.1-44
		c-0.2-1.9-1.9-3.3-3.8-3.1c-1.9,0.2-3.3,1.9-3.2,3.8c0,0.3,2.5,27.5,3.2,48.3c-0.2,0.2-0.4,0.4-0.5,0.5c-1.4-3.5-4.1-5.7-7.6-6
		c-5-0.4-10.3,2.9-12.3,7.8c-1.7,4.1-0.6,8.2,2.7,10.4c2.4,1.6,5.9,2,10.4,0.5c-1.1,3.8-3.1,7.7-5.7,10.7c-2.3,2.7-6.2,5.8-11.1,5.7
		c-2.9-0.1-5.1-1.1-6.8-2.9c-4-4.4-3.7-12.4-3.7-12.5c0.1-1.9-1.4-3.6-3.3-3.7c-1.9-0.2-3.6,1.4-3.7,3.3c0,0.4-0.5,10.9,5.5,17.5
		c2.9,3.2,6.9,5,11.6,5.2c0.2,0,0.5,0,0.7,0c5.8,0,11.5-2.9,16-8.1c4.2-4.9,7.1-11.6,8-17.8c0,11.9-7.2,25.3-16.7,31.2
		c-4,2.5-10.3,4.8-17.4,1.3c-8.7-4.3-7.7-14.3-7.7-14.7c0.2-1.9-1.1-3.6-3-3.9c-1.9-0.2-3.6,1.1-3.9,3c-0.1,0.6-1.8,15.3,11.5,21.8
		c3.4,1.7,7,2.5,10.5,2.5c4.6,0,9.2-1.4,13.6-4.1c11.6-7.2,20-22.8,20-37.2C171.8,226.5,171.8,224,171.7,221.4z M150.7,225
		c-0.6-0.4-0.1-1.7,0-2c0.7-1.8,3-3.4,4.9-3.4c0.1,0,0.2,0,0.3,0c0.4,0,1.6,0.2,2.1,2.8c0.1,0.3,0.1,0.6,0.1,0.9
		C154.2,225.5,151.6,225.6,150.7,225z"/>
	<path class="st1" d="M114.4,257c-1.6-1-3.8-0.4-4.8,1.2c-0.2,0.3-0.4,0.6-0.6,0.8c0-0.1-0.1-0.2-0.1-0.3c-1.5-3.9-0.4-9.8,0.1-11.8
		c0.5-1.9-0.6-3.8-2.5-4.3c-1.9-0.5-3.8,0.6-4.3,2.5c-0.3,0.9-2.4,9.4,0.1,16c1.6,4.3,4,5.3,5.8,5.5c0.2,0,0.3,0,0.5,0
		c3.7,0,6.2-3.8,6.9-5C116.6,260.1,116,258,114.4,257z"/>
	<path class="st1" d="M178.6,193.9c0.8,0,1.5-0.2,2.1-0.7l17.5-13.8c0.2-0.2,0.4-0.4,0.6-0.7c2.5-1.5,4.2-4.3,4.2-7.4
		c0-4.8-3.9-8.7-8.7-8.7s-8.7,3.9-8.7,8.7c0,2.7,1.2,5.1,3.2,6.7l-12.4,9.7c-1.5,1.2-1.8,3.4-0.6,4.9
		C176.6,193.5,177.6,193.9,178.6,193.9z M194.4,169.6c1,0,1.7,0.8,1.7,1.7s-0.8,1.7-1.7,1.7s-1.7-0.8-1.7-1.7
		S193.5,169.6,194.4,169.6z"/>
	<path class="st1" d="M190.3,190.6c-1.8-0.6-3.8,0.4-4.4,2.2c-0.4,1.1-2.1,6.9,1.4,10.3c1.3,1.3,3.1,2,5.2,2c1.4,0,3-0.3,4.8-0.9
		c1.8-0.6,2.8-2.6,2.2-4.4c-0.6-1.8-2.6-2.8-4.4-2.2c-1.9,0.6-2.8,0.5-2.8,0.6c-0.2-0.5-0.1-2.1,0.3-3.2
		C193.1,193.2,192.1,191.2,190.3,190.6z"/>
	<path class="st1" d="M230.1,176.2c0.3,0.1,0.7,0.1,1,0.1c1.5,0,2.9-1,3.3-2.5l2-7c0.5-1.8-0.5-3.8-2.4-4.3
		c-1.9-0.5-3.8,0.5-4.3,2.4l-2,7C227.2,173.8,228.3,175.7,230.1,176.2z"/>
	<path class="st1" d="M209.8,175.8c0.6,0.3,1.2,0.5,1.8,0.5c1.2,0,2.4-0.6,3-1.7c1-1.7,0.4-3.8-1.2-4.8c-0.7-0.4-0.6-1.6-0.6-1.8
		c0.1-0.9,0.6-2,1.6-2.3c1.8-0.6,2.9-2.5,2.3-4.4c-0.6-1.8-2.5-2.9-4.4-2.3c-3.5,1.1-6,4.3-6.4,8.2
		C205.4,170.9,207,174.1,209.8,175.8z"/>
	<path class="st1" d="M182.2,232.2c-1.9,0-3.5,1.6-3.5,3.5c0,1.7,1.2,3.1,2.8,3.4c0.2,0.3,0.7,1.2,0.7,3.5c0,1.9,1.6,3.5,3.5,3.5
		s3.5-1.6,3.5-3.5C189.2,232.3,182.5,232.2,182.2,232.2z"/>
	<path class="st1" d="M241.3,217.8c0.4,0.1,0.9,0.1,1.3,0.1c2.7,0,5.5-1.4,8.2-4.1c1.4-1.4,1.4-3.6,0-4.9s-3.6-1.4-4.9,0
		c-2.1,2.1-3.2,2.1-3.5,2.1c-0.7-0.1-1.3-1-1.4-1.2c-0.9-1.7-2.9-2.4-4.6-1.5c-1.7,0.9-2.4,2.9-1.6,4.7
		C235,213.3,237,217.1,241.3,217.8z"/>
	<path class="st1" d="M300.4,193.3c0-0.1,0-0.1-0.1-0.2c-0.6-1.8-2.6-2.8-4.4-2.2c-1.8,0.6-2.8,2.6-2.2,4.4c0.3,0.8,1.8,4.9,5.7,5.4
		c0.3,0,0.5,0.1,0.8,0.1c2.4,0,4.7-1.6,6.7-4.6c1.1-1.6,0.6-3.8-1-4.8c-1.6-1.1-3.8-0.6-4.8,1C300.9,192.8,300.6,193.1,300.4,193.3z
		"/>
	<path class="st1" d="M293.6,256.5c0-14.8-0.7-28.8-1.6-41c4.9,8.6,9.4,17.2,12.2,24.8c0.5,1.4,1.9,2.3,3.3,2.3
		c0.4,0,0.8-0.1,1.2-0.2c1.8-0.7,2.7-2.7,2-4.5c-4.4-11.7-12.3-25.7-20.1-38.1c-1.9-18.7-4-30.6-4.1-30.9c-0.3-1.9-2.2-3.2-4-2.8
		c-1.9,0.3-3.1,2.2-2.8,4c0,0.2,1.1,6.3,2.4,16.6c-2.7-4-5.2-7.5-7.2-10.5l0.2,0.1c1.8,0.6,3.8-0.4,4.4-2.2c0.6-1.8-0.4-3.8-2.2-4.4
		l-10.4-3.5c-1.4-0.5-3,0-3.9,1.3c-0.2,0.3-0.4,0.7-0.5,1.1c-2.1-1.5-4.8-2.8-7.3-1.7c-1.5,0.6-3.3,2.2-3.3,6.2
		c0,3.1,1.2,6.4,2.4,9.9c2,5.8,3.3,10.1,1.2,12.1c-1.2,1.1-2.4,1.5-3.6,1.3c-2.1-0.5-4.3-3.4-5.7-7.6c-0.1-0.2-0.2-0.3-0.3-0.5
		c0.7-5.4,0.4-11.9-1.1-19.3c-0.4-1.9-2.2-3.1-4.1-2.7c-1.9,0.4-3.1,2.2-2.7,4.1c2.3,11.4,1.6,20.6-1.8,24.8c-1.3,1.6-3,2.4-5.2,2.4
		c-0.7,0-1.2-0.2-1.7-0.8c-2.7-3.2-2.7-13.4-1.8-19.6c0.1-1-0.2-2-0.8-2.8c-0.7-0.8-1.6-1.2-2.6-1.2c-6,0-8.3,6.8-10.3,12.8
		c-0.9,2.6-2.5,7.6-3.7,8.1c-2.1,0-3.5-6.2-3.5-10.4c0-1.9-1.6-3.5-3.5-3.5c0,0,0,0,0,0c-1.9,0-3.5,1.6-3.5,3.5
		c0,8,2.7,17.4,10.4,17.4c5.7,0,8.1-6.3,10-12.1c0.3,4.6,1.4,9.4,3.9,12.4c1.8,2.1,4.2,3.2,6.9,3.2c4.3,0,8-1.7,10.6-4.9
		c0.5-0.6,0.9-1.2,1.3-1.9c2,2.9,4.5,4.8,7.3,5.5c0.8,0.2,1.6,0.3,2.5,0.3c2.7,0,5.3-1.1,7.6-3.2c0.5-0.4,0.8-0.9,1.2-1.4
		c0.9,0.2,1.7,0.4,2.6,0.4c2.8,0,5.5-1.1,7.2-2.2c1.6-1,2.1-3.2,1.1-4.8c-1-1.6-3.2-2.1-4.8-1.1c0,0-2.4,1.4-3.9,1
		c0-3.8-1.4-7.9-2.6-11.4c-0.7-2-1.5-4.1-1.8-5.8c0.3,0.2,0.6,0.5,0.8,0.7c1.4,1.4,3.6,1.4,4.9,0c0.2-0.2,0.4-0.5,0.5-0.8
		c3.6,5,11,15.4,18.7,27.4c1.5,14.8,2.7,33.7,2.7,54.4c0,1.9,1.6,3.5,3.5,3.5C292,260,293.6,258.5,293.6,256.5z"/>
	<path class="st1" d="M297.1,180c0,1.9,1.6,3.5,3.5,3.5s3.5-1.6,3.5-3.5c0-4.1-3.2-10.7-3.8-12c-0.9-1.7-2.9-2.4-4.7-1.6
		c-1.7,0.9-2.4,2.9-1.6,4.7C295.2,173.6,297.1,178.2,297.1,180z"/>
	<path class="st1" d="M281.2,256.9c-1.7-0.9-3.8-0.2-4.7,1.5c-0.4,0.7-1,1.5-1.4,2.1c-0.2-1.4,0.2-4.1,0.9-6.4
		c0.5-1.5-0.2-3.2-1.5-4c-1.4-0.8-3.1-0.6-4.3,0.5l-7,7c-1.4,1.4-1.4,3.6,0,4.9s3.6,1.4,4.9,0l0.2-0.2c0.3,1.4,0.9,2.7,1.9,3.7
		c1.3,1.3,2.9,2,4.5,2c0.3,0,0.6,0,1-0.1c3.9-0.6,6.4-5,7.1-6.3C283.6,259.9,282.9,257.8,281.2,256.9z"/>
	<path class="st1" d="M279.9,228.9h-24.5c0.2-0.9,0.4-1.7,0.7-2.5c9.8-2,15.6-5.2,17.3-9.4c0.6-1.5,1.2-4.4-1.3-7.8
		c-2.3-3.1-5.5-4.4-8.8-3.8c-4.9,1-9.4,6.3-12.5,14.9c-9.8,1.7-16.1,5.2-20.1,8.7c-1.4-14.3-6.9-22.7-7.2-23.1c-1.1-1.6-3.2-2-4.8-1
		c-1.6,1.1-2,3.2-1,4.8c0.1,0.1,6.4,9.7,6.4,25.9c0,15.9-12.7,27.8-20.9,27.8c-3.9,0-5.6-4.6-6.4-8.6c8-5.6,15.1-12.2,16.7-18.4
		c2.1-8.5-0.5-14.7-2.3-18.9c-0.1-0.2-0.2-0.4-0.3-0.6c0.1,0.1,0.1,0.1,0.2,0.2c1.4,1.4,3.6,1.4,4.9,0c1.4-1.4,1.4-3.6,0-4.9
		c-2-2-6-5.2-9.6-3.7c-1.5,0.6-3.3,2.2-3.3,6.2c0,1.8,0.8,3.6,1.6,5.6c1.6,3.7,3.5,8.2,2,14.4c-0.9,3.7-5.4,8.1-11.4,12.6
		c-0.6-0.8-1.6-1.3-2.6-1.3h0c-1.9,0-3.5,1.6-3.5,3.5c0,0.6,0,1.3,0.1,2c-7.4,4.8-15.9,9.3-22.4,12.2c-1.7,0.8-2.5,2.9-1.7,4.6
		c0.6,1.3,1.8,2,3.2,2c0.5,0,1-0.1,1.4-0.3c2-0.9,11.2-5.2,20.8-11.1c1.8,6,5.5,11.4,12.6,11.4c8.3,0,17.8-6.8,23.3-17
		c0.7,1.2,1.4,2.3,2.3,3.3c8.8,10.1,25.9,10.2,26.6,10.2c1.9,0,3.4-1.5,3.5-3.4c0.1-1.9-1.4-3.5-3.2-3.6c0,0-2.8-0.3-4.3-2.1
		c-0.9-1.1-1.3-2.6-1.1-4.6c0.4-4.3,14.2-7.5,26.4-7.7c1.5,0,2.7-0.9,3.2-2.3l3.5-9.8c0.4-1.1,0.2-2.2-0.4-3.2
		C282.1,229.5,281,228.9,279.9,228.9z M264.6,212.3c0.1,0,0.2,0,0.3,0c0.3,0,0.9,0.2,1.6,1.1c0.1,0.2,0.6,0.8,0.4,1
		c-0.4,1-2.8,2.6-7.8,4.1C261.3,214.2,263.4,212.5,264.6,212.3z M243.6,258.1c-3.5-1.1-7.1-3-9.6-5.9c-2.7-3.2-3.8-7.2-3.1-12.3
		c0.1-0.3,0.3-0.8,0.7-1.5c4.9-0.4,18,1.5,18.9,5.2c-4,2.1-7,5-7.4,9.1C243,254.8,243.2,256.6,243.6,258.1z"/>
	<path class="st1" d="M317.8,178.9l-3.5-10.4c-0.6-1.7-2.3-2.7-4-2.3c-1.7,0.4-2.9,2-2.7,3.7c2.4,24,6.9,70.8,6.9,76.2
		c0,4.8-8.6,14.3-22.4,21.2c-1.7,0.9-2.4,2.9-1.6,4.7c0.6,1.2,1.8,1.9,3.1,1.9c0.5,0,1.1-0.1,1.6-0.4c12.7-6.3,26.3-17.6,26.3-27.5
		c0-5.1-3.6-42.1-5.6-62.9C317.5,182.5,318.3,180.6,317.8,178.9z"/>
	<path class="st1" d="M346.8,210.3c0.7,0.7,1.6,1,2.5,1c0.6,0,1.2-0.1,1.7-0.5c1.4-0.8,2-2.4,1.7-3.9c-0.6-2.4-0.8-5.5-0.5-6.8
		c1.7,0.1,3.4-1.2,3.6-3c0.3-1.9-1-3.7-3-3.9c-2.3-0.3-4.3,0.4-5.7,1.9c-0.9,1-1.5,2.3-1.8,3.7l-4-4c-1.4-1.4-3.6-1.4-4.9,0
		s-1.4,3.6,0,4.9L346.8,210.3z"/>
	<path class="st1" d="M354.6,213.9l-13,9.4c-1.6,1.1-1.9,3.3-0.8,4.9c0.7,0.9,1.7,1.5,2.8,1.5c0.7,0,1.4-0.2,2-0.7l13-9.4
		c1.6-1.1,1.9-3.3,0.8-4.9C358.4,213.2,356.2,212.8,354.6,213.9z"/>
	<path class="st1" d="M353.5,227c-1.1,1.4-0.9,3.4,0.3,4.6c0.1,0.3,0.8,1.6,0.7,5c-0.1,1.9,1.4,3.5,3.4,3.6c0,0,0.1,0,0.1,0
		c1.9,0,3.4-1.5,3.5-3.4c0.3-7.1-2.1-9.7-3.1-10.5C356.8,225.2,354.7,225.5,353.5,227z"/>
	<path class="st1" d="M383.8,252.6c1.9,0,3.5-1.6,3.5-3.5c0-5.1-0.3-10.9-0.7-16.8c3.5,5.7,6.3,10.9,8.2,15.2
		c0.6,1.3,1.8,2.1,3.2,2.1c0.5,0,0.9-0.1,1.4-0.3c1.8-0.8,2.6-2.8,1.8-4.6c-3.2-7.4-9.1-17.3-15.9-27.4c-1.4-12.8-3.1-25.3-4.5-34.3
		c0.7,0.1,1.5-0.1,2.2-0.5c1.1-0.7,1.6-1.9,1.5-3.1c0.1,0.3,0.2,0.7,0.4,1c0,0,2.3,3.7,1.3,8.5c-0.4,1.9,0.8,3.7,2.7,4.1
		c0.2,0,0.5,0.1,0.7,0.1c1.6,0,3.1-1.1,3.4-2.8c1.6-7.6-2.1-13.4-2.2-13.7c-1-1.6-3.2-2.1-4.8-1.1c-1.1,0.7-1.6,1.9-1.6,3.1
		c-0.1-0.3-0.2-0.7-0.4-1l-5.9-9.1c-0.9-1.4-2.7-2-4.2-1.4c-1.5,0.6-2.4,2.2-2.2,3.8c0,0.3,2.7,15.5,5.1,33.9
		c-2.7-3.8-5.3-7.4-7.9-11c-0.4-5.3-0.8-10.1-1.2-14.2c0.2-0.1,0.4-0.1,0.6-0.2c1.7-0.9,2.4-2.9,1.6-4.7l-3.5-7
		c-0.8-1.5-2.5-2.2-4.1-1.8c-1.6,0.5-2.7,2-2.5,3.7c0.4,4.2,0.8,8.8,1.3,13.6c-2.2-2.9-4.2-5.6-6-7.8c0.3-0.3,0.6-0.7,0.8-1.1
		c0.9-1.7,0.2-3.8-1.6-4.7l-7-3.5c-1.5-0.7-3.2-0.3-4.3,0.9c-1,1.3-1,3.1,0,4.4c0.2,0.2,8.8,11,19,24.8c1.8,23,3,46.9,1.3,51.9
		c-0.3,0.9-0.8,2-1.3,2c-2.1,0.3-7.1-4.4-9.6-9.4c-1.5-2.9-3.5-3.2-4.7-3.2c-3.7,0.2-5.2,4.3-7.9,11.8c-1.9,5.4-4.3,12-6.9,14.7
		c-1.4-1.8-3.3-7.6-4.3-13.7c0.5,1.3,1.7,2.3,3.2,2.3c1.9,0,3.5-1.6,3.5-3.5c0-5.2-3.6-44.7-5.7-66.4c1.7-0.7,2.6-2.6,2-4.3
		l-3.5-10.4c-0.6-1.7-2.3-2.7-4-2.3c-1.7,0.4-2.9,2-2.7,3.7c2.4,24.8,6.8,72.8,6.9,79.4c0-0.1,0-0.1,0-0.2c-0.3-1.9-2-3.2-3.9-3
		c-1.9,0.3-3.2,2-3,3.9c1,7.1,3.6,19.3,9.6,21.3c0.5,0.2,1.1,0.3,1.9,0.3c1.4,0,3.1-0.5,4.9-2.3c3.8-3.8,6.4-11,8.6-17.4
		c0.5-1.4,1.1-3.1,1.7-4.6c3.2,4.7,8.8,10.5,14.4,10c2-0.1,5.6-1.2,7.4-6.8c1.9-5.6,1.1-24.9-0.1-43.4c2.9,4.1,5.9,8.3,8.7,12.5
		c1.1,10.4,1.9,20.9,1.9,29.4C380.4,251.1,381.9,252.6,383.8,252.6z"/>
	<path class="st1" d="M410.3,234.3c-2.5-18.4-5.9-39.6-8.1-52.7c1,0.2,2.1,0,2.9-0.6c1.5-1.2,1.8-3.4,0.7-4.9l-6.3-8.3
		c-1-1.3-2.7-1.7-4.2-1.1c-1.5,0.6-2.3,2.2-2,3.8c0.1,0.4,6.3,36.1,10.1,64.7c1.5,10.9-0.7,20.7-5.7,26.1c-3.2,3.5-7.6,5.1-12.8,4.8
		c-1.9-0.1-3.6,1.3-3.7,3.3s1.3,3.6,3.3,3.7c0.6,0,1.2,0.1,1.7,0.1c6.6,0,12.3-2.4,16.6-7C409.3,259.1,412,247.5,410.3,234.3z"/>
	<path class="st1" d="M372,257.3c-1.3,1.4-1.2,3.6,0.2,4.9c0.2,0.2,0.4,0.5,0.4,0.7c0,0.1-0.1,0.4-0.5,0.8c-1.4,1.4-1.4,3.6,0,4.9
		c0.7,0.7,1.6,1,2.5,1c0.9,0,1.8-0.3,2.5-1c2.2-2.2,2.6-4.4,2.6-5.9c-0.1-3.2-2.3-5.3-2.7-5.7C375.4,255.7,373.2,255.9,372,257.3z"
		/>
	<path class="st1" d="M359.7,333.6h-3.5h-20.9v-3.5c0-1.9-1.6-3.5-3.5-3.5s-3.5,1.6-3.5,3.5v3.5H144c7,7,20.9,10.4,31.3,10.4
		c7.5,0,100.9,0,153.1,0v7c0,1.9,1.6,3.5,3.5,3.5h27.8c5.8,0,10.4-4.7,10.4-10.4C370.1,338.3,365.5,333.6,359.7,333.6z M359.7,347.5
		h-24.4V344c16.8,0,27.8,0,27.8,0l-0.6-1.9c0.4,0.5,0.6,1.2,0.6,1.9C363.2,345.9,361.6,347.5,359.7,347.5z"/>
</g>
</svg>
