<?xml version="1.0" encoding="utf-8"?>
<!-- Generator: Adobe Illustrator 25.0.0, SVG Export Plug-In . SVG Version: 6.00 Build 0)  -->
<svg version="1.1" id="Layer_1" xmlns="http://www.w3.org/2000/svg" xmlns:xlink="http://www.w3.org/1999/xlink" x="0px" y="0px"
	 viewBox="0 0 512 512" style="enable-background:new 0 0 512 512;" xml:space="preserve">
<style type="text/css">
	.st0{fill:#FCD116;}
	.st1{fill:#0051BA;}
	.st2{fill:#215B33;}
	.st3{fill:#FFFFFF;}
</style>
<polygon class="st0" points="512,104.7 512,88 486.5,88 0,407.3 0,424 25.5,424 "/>
<polygon class="st1" points="0,88 0,407.3 486.5,88 "/>
<polygon class="st2" points="512,424 512,104.7 25.5,424 "/>
<g>
	<path class="st3" d="M44.4,115.8l-4.7,14.2l-14.9,0.1c-1.4,0-2,1.8-0.9,2.7l12,8.9l-4.5,14.2c-0.4,1.4,1.1,2.5,2.3,1.7l12.2-8.7
		l12.2,8.7c1.2,0.8,2.7-0.3,2.3-1.7l-4.5-14.2l12-8.9c1.2-0.9,0.6-2.7-0.9-2.7L52,129.9l-4.7-14.2C46.8,114.4,44.9,114.4,44.4,115.8
		z"/>
	<path class="st3" d="M158.2,115.8l-4.7,14.2l-14.9,0.1c-1.4,0-2,1.8-0.9,2.7l12,8.9l-4.5,14.2c-0.4,1.4,1.1,2.5,2.3,1.7l12.2-8.7
		l12.2,8.7c1.2,0.8,2.7-0.3,2.3-1.7l-4.5-14.2l12-8.9c1.2-0.9,0.6-2.7-0.9-2.7l-14.9-0.1l-4.7-14.2
		C160.6,114.4,158.7,114.4,158.2,115.8z"/>
	<path class="st3" d="M101.3,166.5l-4.7,14.2l-14.9,0.1c-1.4,0-2,1.8-0.9,2.7l12,8.9l-4.5,14.2c-0.4,1.4,1.1,2.5,2.3,1.7l12.2-8.7
		l12.2,8.7c1.2,0.8,2.7-0.3,2.3-1.7l-4.5-14.2l12-8.9c1.2-0.9,0.6-2.7-0.9-2.7l-14.9-0.1l-4.7-14.2
		C103.7,165.1,101.8,165.1,101.3,166.5z"/>
	<path class="st3" d="M44.4,217.2l-4.7,14.2l-14.9,0.1c-1.4,0-2,1.8-0.9,2.7l12,8.9l-4.5,14.2c-0.4,1.4,1.1,2.5,2.3,1.7l12.2-8.7
		l12.2,8.7c1.2,0.8,2.7-0.3,2.3-1.7L55.8,243l12-8.9c1.2-0.9,0.6-2.7-0.9-2.7L52,231.3l-4.7-14.2C46.8,215.8,44.9,215.8,44.4,217.2z
		"/>
	<path class="st3" d="M158.2,217.2l-4.7,14.2l-14.9,0.1c-1.4,0-2,1.8-0.9,2.7l12,8.9l-4.5,14.2c-0.4,1.4,1.1,2.5,2.3,1.7l12.2-8.7
		l12.2,8.7c1.2,0.8,2.7-0.3,2.3-1.7l-4.5-14.2l12-8.9c1.2-0.9,0.6-2.7-0.9-2.7l-14.9-0.1l-4.7-14.2
		C160.6,215.8,158.7,215.8,158.2,217.2z"/>
</g>
</svg>
