<?xml version="1.0" encoding="utf-8"?>
<!-- Generator: Adobe Illustrator 25.0.0, SVG Export Plug-In . SVG Version: 6.00 Build 0)  -->
<svg version="1.1" id="Layer_1" xmlns="http://www.w3.org/2000/svg" xmlns:xlink="http://www.w3.org/1999/xlink" x="0px" y="0px"
	 viewBox="0 0 512 512" style="enable-background:new 0 0 512 512;" xml:space="preserve">
<style type="text/css">
	.st0{fill:#012169;}
	.st1{fill:#FFFFFF;}
	.st2{fill:#C8102E;}
	.st3{fill:#00A0CB;}
	.st4{fill:#CAB581;}
	.st5{fill:#DAB57A;}
	.st6{fill:#464655;}
</style>
<g>
	<polygon class="st0" points="256.1,88 256.1,256.2 0,256.2 0,424 512,424 512,88 	"/>
	<g id="Union_flag">
		<rect y="88" class="st0" width="256.1" height="168.2"/>
		<g>
			<polygon class="st1" points="106,150.1 106,142.2 22.7,88 0,88 0,105 69.3,150.1 			"/>
			<polygon class="st1" points="106,194.1 70.8,194.1 0,240.1 0,256.2 24.2,256.2 106,202.9 			"/>
			<polygon class="st1" points="233.9,88 150,142.5 150,150.1 187.3,150.1 256.1,105.3 256.1,88 			"/>
			<polygon class="st1" points="150,194.1 150,202.6 232.5,256.2 256.1,256.2 256.1,239.8 185.9,194.1 			"/>
		</g>
		<polygon class="st1" points="256.1,150.1 150,150.1 150,88 106,88 106,150.1 0,150.1 0,194.1 106,194.1 106,256.2 150,256.2 
			150,194.1 256.1,194.1 		"/>
		<polygon class="st2" points="256.1,158.8 141.3,158.8 141.3,88 114.8,88 114.8,158.8 0,158.8 0,185.3 114.8,185.3 114.8,256.2 
			141.3,256.2 141.3,185.3 256.1,185.3 		"/>
		<polygon class="st2" points="97.2,150.1 1.7,88 0,88 0,97.6 80.7,150.1 		"/>
		<polygon class="st2" points="106,194.1 89.6,194.1 0,252.4 0,256.2 10.6,256.2 		"/>
		<polygon class="st2" points="157.3,194.1 252.8,256.2 256.1,256.2 256.1,247.6 173.8,194.1 		"/>
		<polygon class="st2" points="245.4,88 150,150 150,150.1 166.4,150.1 256.1,91.8 256.1,88 		"/>
	</g>
</g>
<g id="shield" transform="translate(318.000000, 75.000000)">
	<path id="Path_7_" class="st3" d="M131,146.7c-0.1,44.4-7.2,92.1-65,114.9C8.2,238.8,1.1,191.1,1,146.7H131L131,146.7z"/>
	<path id="Path_8_" class="st4" d="M131,146.7c0-16.7-0.9-32.9-0.5-47.1C108.9,90,80.4,88,65.9,88S23,90,1.3,99.6
		c0.4,14.2-0.5,30.4-0.5,47.1H131z"/>
	<path id="Path_9_" class="st5" d="M51.5,211.5l0.3,10.3L39,222l4.9,13.2H26.6C8.6,215,3.2,192.8,1.7,167.1l9.1-9.7l8.3,14.3
		l10.8-12.8l7,7.8l0.8,15.7L51.5,211.5z"/>
	<polygon id="Path_10_" class="st6" points="118.6,199.5 110,217.8 63,217.8 33.8,198.3 59.5,208.8 84.6,208.8 88.3,202.3 
		95.5,202.5 97.5,199.5 	"/>
</g>
</svg>
