<?xml version="1.0" encoding="utf-8"?>
<!-- Generator: Adobe Illustrator 25.0.0, SVG Export Plug-In . SVG Version: 6.00 Build 0)  -->
<svg version="1.1" id="Layer_1" xmlns="http://www.w3.org/2000/svg" xmlns:xlink="http://www.w3.org/1999/xlink" x="0px" y="0px"
	 viewBox="0 0 512 512" style="enable-background:new 0 0 512 512;" xml:space="preserve">
<style type="text/css">
	.st0{fill:#FFFFFF;}
	.st1{fill:#005DA4;}
	.st2{fill:#ED1C24;}
	.st3{fill:#FFDD00;}
</style>
<rect y="88" class="st0" width="512" height="112"/>
<rect y="200" class="st1" width="512" height="112"/>
<rect y="312" class="st2" width="512" height="112"/>
<g id="shield">
	<path class="st1" d="M172,157.4c0,0-1.8,56.6-9.7,72.5c-9.8,19.5-19.7,25.2-34.4,30.5c-14.7-5.3-24.6-11-34.4-30.5
		c-7.9-15.9-9.7-72.5-9.7-72.5C111.8,144.7,143.9,144.7,172,157.4z"/>
	<g>
		<path class="st0" d="M140.6,235.9c-1.1-0.7-1.9-1.2-3.6-1.2c-1.8,0-2.5,0.5-3.6,1.2c-1.2,0.8-2.8,1.8-5.6,1.8
			c-2.8,0-4.4-1-5.6-1.8c-1.1-0.7-1.8-1.2-3.6-1.2s-2.5,0.5-3.6,1.2c-1.2,0.7-2.6,1.6-5.2,1.7c5.4,6.5,11,9.6,18,12.3
			c7-2.7,12.6-5.8,18-12.3C143.3,237.5,141.8,236.6,140.6,235.9z"/>
		<path class="st0" d="M105.8,225.4c1.1,0.7,1.8,1.2,3.6,1.2c1.8,0,2.5-0.5,3.6-1.2c1.2-0.8,2.8-1.8,5.6-1.8c2.8,0,4.4,1,5.6,1.8
			c1.1,0.7,1.8,1.2,3.6,1.2s2.5-0.5,3.6-1.2c1.2-0.8,2.8-1.8,5.6-1.8c2.8,0,4.4,1,5.6,1.8c1.1,0.7,1.8,1.2,3.6,1.2s2.5-0.5,3.6-1.2
			c1-0.7,2.3-1.4,4.4-1.7c0.5-1.4,1.1-3,1.5-4.9l-13.2-21.9l-4.9,9.8l-9.8-19.6l-9.8,19.6l-4.9-9.8L100,218.9c0.5,1.9,1,3.5,1.5,4.9
			C103.5,224,104.8,224.8,105.8,225.4z"/>
		<path class="st0" d="M151.8,228.5c-1.2,0.8-2.8,1.8-5.6,1.8c-2.8,0-4.4-1-5.6-1.8c-1.1-0.7-1.9-1.2-3.6-1.2
			c-1.8,0-2.5,0.5-3.6,1.2c-1.2,0.8-2.8,1.8-5.6,1.8c-2.8,0-4.4-1-5.6-1.8c-1.1-0.7-1.8-1.2-3.6-1.2s-2.5,0.5-3.6,1.2
			c-1.2,0.8-2.8,1.8-5.6,1.8c-2.8,0-4.4-1-5.6-1.8c0,0,0,0,0,0c1,1.7,1.9,3.3,2.9,4.8c0.7,0.4,1.5,0.7,2.7,0.7
			c1.8,0,2.5-0.5,3.6-1.2c1.2-0.8,2.8-1.8,5.6-1.8s4.4,1,5.6,1.8c1.1,0.7,1.8,1.2,3.6,1.2s2.5-0.5,3.6-1.2c1.2-0.8,2.8-1.8,5.6-1.8
			c2.8,0,4.4,1,5.6,1.8c1.1,0.7,1.8,1.2,3.6,1.2c1.3,0,2-0.3,2.8-0.7C149.9,231.9,150.9,230.3,151.8,228.5
			C151.9,228.5,151.8,228.5,151.8,228.5z"/>
	</g>
	<g>
		<path class="st3" d="M128,170.2l0.9,2.8l2.9-0.7c0.2,0,0.3,0.2,0.2,0.3l-2,2.2l2,2.2c0.1,0.1,0,0.4-0.2,0.3l-2.9-0.7l-0.9,2.8
			c-0.1,0.2-0.3,0.2-0.4,0l-0.9-2.8l-2.9,0.7c-0.2,0-0.3-0.2-0.2-0.3l2-2.2l-2-2.2c-0.1-0.1,0-0.4,0.2-0.3l2.9,0.7l0.9-2.8
			C127.7,170,128,170,128,170.2z"/>
		<path class="st3" d="M113.9,156.7l0.9,2.8l2.9-0.7c0.2,0,0.3,0.2,0.2,0.3l-2,2.2l2,2.2c0.1,0.1,0,0.4-0.2,0.3l-2.9-0.7l-0.9,2.8
			c-0.1,0.2-0.3,0.2-0.4,0l-0.9-2.8l-2.9,0.7c-0.2,0-0.3-0.2-0.2-0.3l2-2.2l-2-2.2c-0.1-0.1,0-0.4,0.2-0.3l2.9,0.7l0.9-2.8
			C113.6,156.5,113.9,156.5,113.9,156.7z"/>
		<path class="st3" d="M142.3,156.7l0.9,2.8l2.9-0.7c0.2,0,0.3,0.2,0.2,0.3l-2,2.2l2,2.2c0.1,0.1,0,0.4-0.2,0.3l-2.9-0.7l-0.9,2.8
			c-0.1,0.2-0.3,0.2-0.4,0l-0.9-2.8l-2.9,0.7c-0.2,0-0.3-0.2-0.2-0.3l2-2.2l-2-2.2c-0.1-0.1,0-0.4,0.2-0.3l2.9,0.7l0.9-2.8
			C141.9,156.5,142.2,156.5,142.3,156.7z"/>
	</g>
	<path class="st2" d="M166.9,155.2c0,1.6,0.1,3.1,0.1,4.8c-0.7,17.7-3.3,56.3-9.1,67.9c-8.5,17-16.3,22.6-30.1,27.8
		c-13.8-5.2-21.6-10.8-30-27.8c-5.8-11.7-8.4-50.9-9.1-67.9c0-1.7,0-3.3,0.1-4.8c-1.7,0.7-3.4,1.4-5.1,2.1c0.1,3.4,1,26,3.5,45.8
		c1.4,11.1,3.4,21.3,6.2,26.7c9.8,19.6,19.7,25.2,34.4,30.5c14.7-5.3,24.6-11,34.4-30.5c2.7-5.4,4.7-15.6,6.2-26.7
		c2.6-19.8,3.4-42.4,3.5-45.8C170.3,156.6,168.6,155.9,166.9,155.2z"/>
</g>
</svg>
