<?xml version="1.0" encoding="utf-8"?>
<!-- Generator: Adobe Illustrator 25.0.0, SVG Export Plug-In . SVG Version: 6.00 Build 0)  -->
<svg version="1.1" id="Layer_1" xmlns="http://www.w3.org/2000/svg" xmlns:xlink="http://www.w3.org/1999/xlink" x="0px" y="0px"
	 viewBox="0 0 512 512" style="enable-background:new 0 0 512 512;" xml:space="preserve">
<style type="text/css">
	.st0{fill:#FFFFFF;}
	.st1{fill:#0B4EA2;}
	.st2{fill:#EE1C25;}
</style>
<rect y="88" class="st0" width="512" height="112"/>
<rect y="200" class="st1" width="512" height="112"/>
<rect y="312" class="st2" width="512" height="112"/>
<g id="shield">
	<path class="st2" d="M130.2,339.3c-2.6-1.5-64-37.2-64-92.1v-75h132.4v75c0,54.9-61.4,90.6-64,92.1l-2.2,1.2L130.2,339.3z"/>
	<polygon class="st0" points="167.1,233.9 146.3,236.7 139.4,236.7 139.4,224.3 143.5,224.3 160.2,227 157.9,217.3 160.2,207.6 
		143.5,210.4 139.4,210.4 139.4,206.2 142.1,185.4 132.4,188.2 122.7,185.4 125.5,206.2 125.5,210.4 121.3,210.4 104.7,207.6 
		106.9,217.3 104.7,227 121.3,224.3 125.5,224.3 125.5,236.7 118.5,236.7 97.7,233.9 100.6,243.6 97.7,253.3 118.5,250.5 
		125.5,250.5 125.5,282.5 139.4,282.5 139.4,250.5 146.3,250.5 167.1,253.3 164.3,243.6 	"/>
	<path class="st1" d="M132.4,269.2c-9.1,0-16.9,5.5-20.3,13.4c-0.6,0-1.2-0.2-1.8-0.2c-11.8,0-21.3,9.2-21.9,20.8
		c17.9,22,40.3,35.1,41.8,36l2.2,1.2l2.2-1.2c1.6-0.9,23.9-14,41.8-36c-0.7-11.6-10.2-20.8-21.9-20.8c-0.6,0-1.2,0.1-1.8,0.2
		C149.4,274.8,141.5,269.2,132.4,269.2z"/>
	<path class="st0" d="M194.2,176.6c0,0,0,53,0,70.6c0,53-61.8,88.3-61.8,88.3s-61.8-35.3-61.8-88.3c0-17.7,0-70.6,0-70.6
		L194.2,176.6 M203,167.7h-8.8H70.6h-8.8v8.8v70.6c0,57.4,63.5,94.4,66.2,95.9l4.4,2.5l4.4-2.5c2.7-1.5,66.2-38.5,66.2-95.9v-70.6
		L203,167.7L203,167.7z"/>
</g>
</svg>
