<?xml version="1.0" encoding="utf-8"?>
<!-- Generator: Adobe Illustrator 25.0.0, SVG Export Plug-In . SVG Version: 6.00 Build 0)  -->
<svg version="1.1" id="Layer_1" xmlns="http://www.w3.org/2000/svg" xmlns:xlink="http://www.w3.org/1999/xlink" x="0px" y="0px"
	 viewBox="0 0 512 512" style="enable-background:new 0 0 512 512;" xml:space="preserve">
<style type="text/css">
	.st0{fill:#00853F;}
	.st1{fill:#FDEF42;}
	.st2{fill:#E31B23;}
</style>
<rect y="87.7" class="st0" width="170.7" height="336"/>
<rect x="170.7" y="87.7" class="st1" width="170.7" height="336"/>
<rect x="341.3" y="87.7" class="st2" width="170.7" height="336"/>
<path class="st0" d="M258,205.8l11.7,35.1l37,0.3c2.1,0,2.9,2.7,1.3,3.9l-29.7,22l11.1,35.2c0.6,2-1.6,3.6-3.3,2.4L256,283.1
	l-30.1,21.5c-1.7,1.2-3.9-0.4-3.3-2.4l11.1-35.2L204,245c-1.7-1.2-0.8-3.9,1.3-3.9l37-0.3l11.7-35.1
	C254.6,203.8,257.4,203.8,258,205.8z"/>
</svg>
