<?xml version="1.0" encoding="utf-8"?>
<!-- Generator: Adobe Illustrator 25.0.0, SVG Export Plug-In . SVG Version: 6.00 Build 0)  -->
<svg version="1.1" id="Layer_1" xmlns="http://www.w3.org/2000/svg" xmlns:xlink="http://www.w3.org/1999/xlink" x="0px" y="0px"
	 viewBox="0 0 512 512" style="enable-background:new 0 0 512 512;" xml:space="preserve">
<style type="text/css">
	.st0{fill:#0F47AF;}
	.st1{fill:#078930;}
	.st2{fill:#DA121A;}
	.st3{fill:#FFFFFF;}
	.st4{fill:#FFE15A;}
</style>
<polygon class="st0" points="0,88 0,424 235.1,256 "/>
<polygon class="st1" points="147.6,317.5 0,423 0,423.7 512,423.7 512,317.5 "/>
<polygon class="st2" points="168.8,209.2 234,255.8 168.6,302.5 512,302.5 512,209.2 "/>
<polygon class="st3" points="149,317.5 512,317.5 512,302.5 170,302.5 "/>
<polygon class="st3" points="148.6,194.2 169.6,209.2 512,209.2 512,194.2 "/>
<path class="st4" d="M73.6,214.8l19.8,20.3L119,223c3.3-1.6,6.7,2,5,5.2l-13.2,25.1l19.5,20.6c2.5,2.7,0.2,7-3.4,6.4l-28-4.8
	l-13.6,24.9c-1.8,3.2-6.6,2.4-7.1-1.3l-4.1-28.1l-27.9-5.2c-3.6-0.7-4.3-5.6-1-7.2l25.4-12.6L67,218C66.6,214.4,71,212.2,73.6,214.8
	z"/>
<polygon points="0,88 0,88.6 147.8,194.2 512,194.2 512,88 "/>
</svg>
