<?xml version="1.0" encoding="utf-8"?>
<!-- Generator: Adobe Illustrator 25.0.0, SVG Export Plug-In . SVG Version: 6.00 Build 0)  -->
<svg version="1.1" id="Layer_1" xmlns="http://www.w3.org/2000/svg" xmlns:xlink="http://www.w3.org/1999/xlink" x="0px" y="0px"
	 viewBox="0 0 512 512" style="enable-background:new 0 0 512 512;" xml:space="preserve">
<style type="text/css">
	.st0{fill:#CE1126;}
	.st1{fill:#FFFFFF;}
	.st2{fill:#007A3D;}
</style>
<rect y="88" class="st0" width="512" height="112"/>
<rect y="200" class="st1" width="512" height="112"/>
<rect y="312" width="512" height="112"/>
<g>
	<path class="st2" d="M150,223.3l7.4,22.1l23.3,0.2c3,0,4.3,3.9,1.8,5.7L163.8,265l7,22.2c0.9,2.9-2.4,5.2-4.8,3.5l-18.9-13.5
		l-18.9,13.5c-2.5,1.8-5.7-0.6-4.8-3.5l7-22.2l-18.7-13.8c-2.4-1.8-1.2-5.6,1.8-5.7l23.3-0.2l7.4-22.1
		C145,220.5,149.1,220.5,150,223.3z"/>
	<path class="st2" d="M367.9,223.3l7.4,22.1l23.3,0.2c3,0,4.3,3.9,1.8,5.7L381.7,265l7,22.2c0.9,2.9-2.4,5.2-4.8,3.5l-18.9-13.5
		L346,290.7c-2.5,1.8-5.7-0.6-4.8-3.5l7-22.2l-18.7-13.8c-2.4-1.8-1.2-5.6,1.8-5.7l23.3-0.2l7.4-22.1
		C362.9,220.5,367,220.5,367.9,223.3z"/>
</g>
</svg>
