<?xml version="1.0" encoding="utf-8"?>
<!-- Generator: Adobe Illustrator 25.0.0, SVG Export Plug-In . SVG Version: 6.00 Build 0)  -->
<svg version="1.1" id="Layer_1" xmlns="http://www.w3.org/2000/svg" xmlns:xlink="http://www.w3.org/1999/xlink" x="0px" y="0px"
	 viewBox="0 0 512 512" style="enable-background:new 0 0 512 512;" xml:space="preserve">
<style type="text/css">
	.st0{fill:#012169;}
	.st1{fill:#FFFFFF;}
	.st2{fill:#C8102E;}
	.st3{fill:#FFE15A;}
	.st4{fill:#F5F5F5;}
	.st5{fill:#73AF00;}
	.st6{fill:#FF4B55;}
	.st7{fill:#D35A10;}
	.st8{fill:#FFA033;}
	.st9{fill:#FF9480;}
	.st10{fill:#FFA0E4;}
</style>
<polygon class="st0" points="256.1,88 256.1,256.2 0,256.2 0,424 512,424 512,88 "/>
<g id="Union_flag">
	<rect y="88" class="st0" width="256.1" height="168.2"/>
	<g>
		<polygon class="st1" points="106,150.1 106,142.2 22.7,88 0,88 0,105 69.3,150.1 		"/>
		<polygon class="st1" points="106,194.1 70.8,194.1 0,240.1 0,256.2 24.2,256.2 106,202.9 		"/>
		<polygon class="st1" points="233.9,88 150,142.5 150,150.1 187.3,150.1 256.1,105.3 256.1,88 		"/>
		<polygon class="st1" points="150,194.1 150,202.6 232.5,256.2 256.1,256.2 256.1,239.8 185.9,194.1 		"/>
	</g>
	<polygon class="st1" points="256.1,150.1 150,150.1 150,88 106,88 106,150.1 0,150.1 0,194.1 106,194.1 106,256.2 150,256.2 
		150,194.1 256.1,194.1 	"/>
	<polygon class="st2" points="256.1,158.8 141.3,158.8 141.3,88 114.8,88 114.8,158.8 0,158.8 0,185.3 114.8,185.3 114.8,256.2 
		141.3,256.2 141.3,185.3 256.1,185.3 	"/>
	<polygon class="st2" points="97.2,150.1 1.7,88 0,88 0,97.6 80.7,150.1 	"/>
	<polygon class="st2" points="106,194.1 89.6,194.1 0,252.4 0,256.2 10.6,256.2 	"/>
	<polygon class="st2" points="157.3,194.1 252.8,256.2 256.1,256.2 256.1,247.6 173.8,194.1 	"/>
	<polygon class="st2" points="245.4,88 150,150 150,150.1 166.4,150.1 256.1,91.8 256.1,88 	"/>
</g>
<path class="st3" d="M344.1,206c-1.1,0-1.9,0.9-1.9,1.9v32.8c0,65.5,46.3,77.1,46.3,77.1s46.3-11.6,46.3-77.1v-32.8
	c0-1.1-0.9-1.9-1.9-1.9H344.1L344.1,206z"/>
<path class="st4" d="M429.9,210.8v29.9c0,55.8-34.5,69.8-41.4,72.1c-7-2.3-41.5-16.4-41.5-72.1v-29.9L429.9,210.8 M432.8,206h-88.7
	c-1.1,0-1.9,0.9-1.9,1.9v32.8c0,65.5,46.3,77.1,46.3,77.1s46.3-11.6,46.3-77.1v-32.8C434.7,206.8,433.8,206,432.8,206L432.8,206z"/>
<path class="st5" d="M393.6,267h-9.9c0,0-8,8-9.8,25.4c-0.1,0.6,0.2,1.1,0.6,1.5c1.7,1.3,6.4,4.3,14.1,4.3s12.4-3,14.1-4.3
	c0.4-0.3,0.7-0.9,0.6-1.5C401.5,275,393.6,267,393.6,267z"/>
<g>
	<path class="st6" d="M393.6,265.4h-9.9v-8.2c0-2.7,2.2-4.9,4.9-4.9l0,0c2.7,0,4.9,2.2,4.9,4.9L393.6,265.4L393.6,265.4z"/>
	<path class="st6" d="M393.6,268.7h-9.9c-0.9,0-1.6-0.7-1.6-1.6l0,0c0-0.9,0.7-1.6,1.6-1.6h9.9c0.9,0,1.6,0.7,1.6,1.6l0,0
		C395.2,267.9,394.5,268.7,393.6,268.7z"/>
</g>
<path class="st7" d="M426.5,232.3c-0.3,0-4.6,0-9,0.8v-2.6c3.8-1.7,7.5-2.6,7.5-2.6c0.4-0.1,0.7-0.5,0.6-1c-0.1-0.4-0.5-0.7-1-0.6
	c-0.2,0.1-3.6,0.9-7.2,2.4c-0.1-1-0.4-1.9-1-2.6c2.9-2.3,5.5-3.7,5.5-3.8c0.4-0.2,0.5-0.7,0.3-1.1c-0.2-0.4-0.7-0.5-1.1-0.3
	c-0.2,0.1-2.8,1.6-5.9,4c-0.8-0.5-1.7-0.8-2.7-0.8c-1.1,0-2,0.3-2.8,0.9c0.8-4.2,2.6-6.1,2.6-6.1c0.3-0.3,0.3-0.8,0-1.2
	c-0.3-0.3-0.8-0.3-1.2,0c-0.1,0.1-1.7,1.7-2.7,5.5c-1-3.7-2.6-5.4-2.7-5.5c-0.3-0.3-0.8-0.3-1.2,0c-0.3,0.3-0.3,0.8,0,1.2
	c0,0,1.8,1.9,2.6,6.1c-0.8-0.6-1.8-0.9-2.8-0.9c-1,0-2,0.3-2.7,0.8c-3.1-2.4-5.7-3.9-5.9-4c-0.4-0.2-0.9-0.1-1.1,0.3
	c-0.2,0.4-0.1,0.9,0.3,1.1c0,0,2.6,1.5,5.5,3.8c-0.6,0.7-0.9,1.7-1,2.6c-3.6-1.6-6.9-2.4-7.2-2.4c-0.4-0.1-0.9,0.2-1,0.6
	c-0.1,0.4,0.2,0.9,0.6,1c0.1,0,3.8,0.9,7.5,2.6v2.6c-4.5-0.8-8.7-0.8-9-0.8c-0.5,0-0.8,0.4-0.8,0.8c0,0.5,0.4,0.8,0.8,0.8
	c0.1,0,4.6,0,9,0.8v2.7c-2.5-0.1-5.2,0.3-7.8,1.5c-0.4,0.2-0.6,0.7-0.4,1.1c0.1,0.3,0.4,0.5,0.7,0.5c0.1,0,0.2,0,0.4-0.1
	c2.3-1.1,4.8-1.4,7-1.4v10.2c0,1.2-0.1,2.5-0.4,3.7l-1.3,6.3c-0.1,0.4,0.2,0.9,0.6,1c0.1,0,0.1,0,0.2,0c0.4,0,0.7-0.3,0.8-0.7
	l1.3-6.3c0.3-1.3,0.4-2.7,0.4-4v-10c1.2,0.1,2.3,0.4,3.2,0.6l0.6,8.1c0.1,1,0.6,1.9,1.3,2.5l-2.7,4c-1.4,2.1,0.1,5,2.7,5h4.4
	c2.6,0,4.1-2.9,2.7-5l-2.7-4c0.7-0.6,1.2-1.5,1.3-2.5l0.6-8.1c0.9-0.2,2-0.4,3.2-0.6v10c0,1.4,0.1,2.7,0.4,4l1.3,6.3
	c0.1,0.4,0.4,0.7,0.8,0.7c0.1,0,0.1,0,0.2,0c0.4-0.1,0.7-0.5,0.6-1l-1.3-6.3c-0.2-1.2-0.4-2.5-0.4-3.7v-10.2c2.3-0.1,4.8,0.2,7,1.4
	c0.1,0.1,0.2,0.1,0.4,0.1c0.3,0,0.6-0.2,0.7-0.5c0.2-0.4,0-0.9-0.4-1.1c-2.5-1.3-5.3-1.6-7.8-1.5v-2.7c4.5-0.8,9-0.8,9-0.8
	c0.5,0,0.8-0.4,0.8-0.8C427.3,232.7,426.9,232.3,426.5,232.3z M415.8,233.4c-1,0.2-1.9,0.5-2.9,0.8c0-0.3-0.1-0.6-0.1-0.9
	c0.9-0.7,1.9-1.3,3-1.9L415.8,233.4L415.8,233.4z M415.8,229.1v0.5c-1.3,0.6-2.6,1.4-3.7,2.2c-0.2-0.3-0.5-0.6-0.8-0.9
	c1.2-1.4,2.6-2.6,3.9-3.7C415.5,227.7,415.8,228.3,415.8,229.1z M412.5,225.8c0.5,0,1,0.1,1.4,0.3c-1.4,1.2-2.9,2.6-4.1,4
	c-0.2-0.1-0.3-0.1-0.5-0.1v-0.1c0-0.4,0-0.7,0-1.1C409.4,227.1,410.8,225.8,412.5,225.8z M404.3,225.8c1.7,0,3.1,1.3,3.3,3
	c0,0.4,0,0.7,0,1.1v0.1c-0.2,0-0.3,0.1-0.5,0.1c-1.3-1.5-2.7-2.8-4.1-4C403.3,225.9,403.8,225.8,404.3,225.8z M401,229.1
	c0-0.7,0.2-1.4,0.6-1.9c1.3,1.1,2.7,2.4,3.9,3.7c-0.3,0.3-0.6,0.5-0.8,0.9c-1.1-0.9-2.4-1.6-3.7-2.2L401,229.1L401,229.1z
	 M401,231.4c1.1,0.6,2.1,1.2,3,1.9c-0.1,0.3-0.1,0.6-0.1,0.9c-0.9-0.3-1.9-0.6-2.9-0.8L401,231.4L401,231.4z M401,237.6v-2.4
	c1,0.2,2,0.5,2.9,0.9l0.2,2.1C403.2,237.9,402.1,237.7,401,237.6z M415.8,237.6c-1.2,0.1-2.2,0.3-3.1,0.5l0.2-2.1
	c0.9-0.3,1.9-0.6,2.9-0.9V237.6z"/>
<path class="st8" d="M374.5,254.5h-3.7L356.7,242c-1.5-1.4-2.2-3.5-1.7-5.5l3.9-15.7c0.3-1.4,2.1-1.9,3.1-0.9l6.4,6.4
	c0.3,0.3,0.8,0.5,1.3,0.5h4.8L374.5,254.5L374.5,254.5L374.5,254.5z"/>
<path class="st9" d="M371.9,223.1l-2.3,10.2c-0.4,1.8-0.3,3.8,0.2,5.6l4.7,15.7h3.7l4.7-15.7c0.5-1.8,0.6-3.7,0.2-5.6l-2.3-10.2
	c-0.5-2.1-2.3-3.6-4.5-3.6h0C374.2,219.5,372.4,220.9,371.9,223.1z"/>
<path class="st10" d="M376.4,223.1L376.4,223.1c-1,0-1.8,0.8-1.8,1.8v29.5h3.7V225C378.2,224,377.4,223.1,376.4,223.1z"/>
</svg>
