<?xml version="1.0" encoding="utf-8"?>
<!-- Generator: Adobe Illustrator 25.0.0, SVG Export Plug-In . SVG Version: 6.00 Build 0)  -->
<svg version="1.1" id="Layer_1" xmlns="http://www.w3.org/2000/svg" xmlns:xlink="http://www.w3.org/1999/xlink" x="0px" y="0px"
	 viewBox="0 0 512 512" style="enable-background:new 0 0 512 512;" xml:space="preserve">
<style type="text/css">
	.st0{fill:#D21034;}
	.st1{fill:#FFCE00;}
	.st2{fill:#006A4E;}
	.st3{fill:#FFFFFF;}
</style>
<polygon class="st0" points="0,88 0,121.6 0,155.2 0,289.8 203,289.8 203,155.2 203,121.6 203,88 "/>
<rect x="203" y="155.3" class="st1" width="309" height="67.2"/>
<rect x="203" y="222.6" class="st2" width="309" height="67.2"/>
<polygon class="st2" points="203,88 203,121.6 203,155.2 512,155.2 512,88 "/>
<rect y="289.9" class="st1" width="512" height="67.2"/>
<rect y="357.3" class="st2" width="512" height="67.2"/>
<path class="st3" d="M99.3,135.6l-12.8,38.3l-40.3,0.3c-2.2,0-3.1,2.8-1.3,4.2l32.4,24l-12.2,38.4c-0.7,2.1,1.7,3.9,3.5,2.6
	l32.8-23.4l32.8,23.4c1.8,1.3,4.2-0.5,3.5-2.6l-12.2-38.4l32.4-24c1.8-1.3,0.9-4.1-1.3-4.2l-40.3-0.3l-12.8-38.3
	C103,133.5,100,133.5,99.3,135.6z"/>
</svg>
