<?xml version="1.0" encoding="utf-8"?>
<!-- Generator: Adobe Illustrator 25.0.0, SVG Export Plug-In . SVG Version: 6.00 Build 0)  -->
<svg version="1.1" id="Layer_1" xmlns="http://www.w3.org/2000/svg" xmlns:xlink="http://www.w3.org/1999/xlink" x="0px" y="0px"
	 viewBox="0 0 512 512" style="enable-background:new 0 0 512 512;" xml:space="preserve">
<style type="text/css">
	.st0{fill:#DC241F;}
	.st1{fill:#FFC726;}
	.st2{fill:#FFFFFF;}
</style>
<polygon class="st0" points="0,88 290.6,256 0,424 512,424 512,88 "/>
<polygon points="0,88 0,424 198.5,256 "/>
<polygon class="st1" points="290.6,256 0,88 198.5,256 0,424 "/>
<path class="st2" d="M55.1,214.5l0.8,31.8l-29.8,11.1c-2.9,1.1-2.7,5.1,0.2,6l30.5,9l1.3,31.8c0.1,3,4.1,4.2,5.8,1.7l18-26.2
	l30.6,8.5c2.9,0.8,5.2-2.6,3.4-5L96.6,258l17.6-26.5c1.7-2.5-0.8-5.8-3.7-4.7l-30,10.6l-19.7-24.9C58.9,210.1,55.1,211.5,55.1,214.5
	z"/>
</svg>
