<?xml version="1.0" encoding="utf-8"?>
<!-- Generator: Adobe Illustrator 25.0.0, SVG Export Plug-In . SVG Version: 6.00 Build 0)  -->
<svg version="1.1" id="Layer_1" xmlns="http://www.w3.org/2000/svg" xmlns:xlink="http://www.w3.org/1999/xlink" x="0px" y="0px"
	 viewBox="0 0 512 512" style="enable-background:new 0 0 512 512;" xml:space="preserve">
<style type="text/css">
	.st0{fill:#E30A17;}
	.st1{fill:#FFFFFF;}
</style>
<rect y="88" class="st0" width="512" height="336"/>
<g>
	<path class="st1" d="M257,167.7c48.7,0,88.2,39.6,88.2,88.3c0,48.8-39.5,88.3-88.2,88.3c-48.8,0-88.3-39.5-88.3-88.3
		C168.7,207.3,208.2,167.7,257,167.7"/>
	<g>
		<path class="st0" d="M273,305.5c-27.3,0-49.5-22.2-49.5-49.5c0-27.2,22.2-49.4,49.5-49.4c9.3,0,18,2.6,25.4,7.1
			c1.1,0.7,2.3-0.8,1.4-1.7c-11.1-11-26.4-17.8-43.2-17.8c-34.2,0-61.9,27.7-61.9,61.8c0,34.1,27.7,61.8,61.9,61.8
			c16.8,0,32.1-6.8,43.2-17.8c0.9-0.9-0.2-2.4-1.4-1.7C291,302.9,282.3,305.5,273,305.5z"/>
		<path class="st0" d="M268.5,221.4l13.6,18.5l21.9-6.9c2.8-0.9,5.2,2.3,3.5,4.8l-13.4,18.7l13.4,18.7c1.7,2.4-0.6,5.7-3.5,4.8
			l-21.9-7l-13.7,18.5c-1.8,2.4-5.6,1.2-5.6-1.8l-0.1-23l-21.8-7.3c-2.8-0.9-2.8-4.9,0-5.9l21.8-7.3l0.2-23
			C263,220.2,266.8,219,268.5,221.4z"/>
	</g>
</g>
</svg>
