<?xml version="1.0" encoding="utf-8"?>
<!-- Generator: Adobe Illustrator 25.0.0, SVG Export Plug-In . SVG Version: 6.00 Build 0)  -->
<svg version="1.1" id="Layer_1" xmlns="http://www.w3.org/2000/svg" xmlns:xlink="http://www.w3.org/1999/xlink" x="0px" y="0px"
	 viewBox="0 0 512 512" style="enable-background:new 0 0 512 512;" xml:space="preserve">
<style type="text/css">
	.st0{fill:#FCDC04;}
	.st1{fill:#D90000;}
	.st2{fill:#FFFFFF;}
	.st3{fill:#9CA69C;}
</style>
<rect y="88" width="512" height="56"/>
<rect y="144" class="st0" width="512" height="56"/>
<rect y="200" class="st1" width="512" height="56"/>
<rect y="256" width="512" height="56"/>
<rect y="312" class="st0" width="512" height="56"/>
<rect y="368" class="st1" width="512" height="56"/>
<g id="Crest">
	<circle class="st2" cx="256" cy="256" r="53"/>
	<path class="st1" d="M259.2,223.8l5.2-2.1c0.8-0.3,1.1-1.2,0.8-1.9c-1.2-2.6-4.3-8-10.3-8.1c-3.8-0.1-6.6,0.7-8.2,1.4
		c-0.8,0.3-1.1,1.3-0.7,2.1l3.1,5.4L259.2,223.8z"/>
	<path class="st0" d="M254.9,211.6c-0.4,0-0.8,0-1.2,0l-0.6,8.3l3,1.7l6.6-5.9C261,213.6,258.5,211.7,254.9,211.6z"/>
	<path d="M277.4,272.7l-23.6-27.5c0-5.7,2.1-10.3,3.2-12.5c3.2-1.4,5.3-5,4.5-9c-0.6-2.9-2.9-5.2-5.8-5.9c-5.1-1.2-9.7,2.7-9.7,7.6
		c0,0.2,0,0.4,0.1,0.5c-5.1,1.3-6,3-6,3s3.3-0.9,6.2-1.6c0.1,0.2,0.1,0.5,0.2,0.7l-5.7,1.9l6.2-0.8c0.7,1.3,1.7,2.3,3,3
		c-4.7,3.8-11.8,10.8-11.8,18.8c0,7.3,5.4,12.1,12.2,15.4c2.4,1.1,4.6,2.6,6.3,4.5l0.1,0.1l0.6,9c-4.9,0-10.7,0-13.3,0
		c-4.9,0-6.3,3.2-6.3,8.5l2.3-3.3l2,3.7l0.2-4.2l2.1,2.7c0,0,0-3.5,2.6-4c1.4-0.2,6.3-0.6,10.5-0.6l0.9,13.5c-5.6,0-12,2.6-12,2.6
		c2-0.4,6.8,0.4,6.8,0.4l-0.8,2.3c5.5-3,15.7-3.1,15.7-3.1s-2.2-1.5-7.4-2.1l0.1-13.6h8.1l1.2-3.2c0,0-4.2-5.6-4.2-8.5
		C272.3,272.5,277.4,272.7,277.4,272.7z M260.7,280.1l0-4.7c2.4,2.6,4.4,4.7,4.4,4.7S263.3,280.1,260.7,280.1z"/>
	<path class="st3" d="M277.4,276.7c-2-7.9-10.6-10.3-19.7-15.7c-9.8-5.9-3.9-15.7-3.9-15.7s32.9,9.7,35.4,23.6
		c1.9,10.8-5.9,17.7-9.8,19.7l1.4-3.9h-7.3c0,0,7.7-6,7.9-11.8L277.4,276.7z"/>
	<path class="st2" d="M289.2,268.8c-1.6-9.3-16.9-16.7-26.8-20.6l0,0c-3.2-0.4-6,5,2.7,10.8c11.7,7.8,12.3,17.7,12.3,17.7l3.9-3.9
		c-0.1,5.8-7.9,11.8-7.9,11.8h7.3l-1.4,3.9C283.3,286.5,291.1,279.6,289.2,268.8z"/>
	<path class="st1" d="M289.2,268.8c-1.1-6.2-8.2-11.5-15.7-15.5c-3.6-1.1-6.8-0.9-6.8-0.9c2.2,1.4,3.2,4.8,3.2,4.8
		c-1.6-1-5.2-0.5-5.2-0.5c1,0.9,1.9,2.6,2.6,3.9c9.6,7.5,10.1,16.1,10.1,16.1l3.9-3.9c-0.1,5.8-7.9,11.8-7.9,11.8h7.3l-1.4,3.9
		C283.3,286.5,291.1,279.6,289.2,268.8z"/>
	<circle class="st2" cx="250.6" cy="224.8" r="1.3"/>
	<path class="st1" d="M247.2,229.8c0,0-2.9,3.4-1,4.3s3.7-1.8,3.7-1.8L247.2,229.8z"/>
</g>
</svg>
