<?xml version="1.0" encoding="utf-8"?>
<!-- Generator: Adobe Illustrator 25.0.0, SVG Export Plug-In . SVG Version: 6.00 Build 0)  -->
<svg version="1.1" id="Layer_1" xmlns="http://www.w3.org/2000/svg" xmlns:xlink="http://www.w3.org/1999/xlink" x="0px" y="0px"
	 viewBox="0 0 512 512" style="enable-background:new 0 0 512 512;" xml:space="preserve">
<style type="text/css">
	.st0{fill:#012169;}
	.st1{fill:#FFFFFF;}
	.st2{fill:#C8102E;}
	.st3{fill:#73AF00;}
	.st4{fill:#FF4B55;}
	.st5{fill:#FFE15A;}
	.st6{fill:#FFC8B9;}
	.st7{fill:#F5F5F5;}
	.st8{fill:#8C5A28;}
</style>
<polygon class="st0" points="256.1,88 256.1,256.2 0,256.2 0,424 512,424 512,88 "/>
<g id="Union_flag">
	<rect y="88" class="st0" width="256.1" height="168.2"/>
	<g>
		<polygon class="st1" points="106,150.1 106,142.2 22.7,88 0,88 0,105 69.3,150.1 		"/>
		<polygon class="st1" points="106,194.1 70.8,194.1 0,240.1 0,256.2 24.2,256.2 106,202.9 		"/>
		<polygon class="st1" points="233.9,88 150,142.5 150,150.1 187.3,150.1 256.1,105.3 256.1,88 		"/>
		<polygon class="st1" points="150,194.1 150,202.6 232.5,256.2 256.1,256.2 256.1,239.8 185.9,194.1 		"/>
	</g>
	<polygon class="st1" points="256.1,150.1 150,150.1 150,88 106,88 106,150.1 0,150.1 0,194.1 106,194.1 106,256.2 150,256.2 
		150,194.1 256.1,194.1 	"/>
	<polygon class="st2" points="256.1,158.8 141.3,158.8 141.3,88 114.8,88 114.8,158.8 0,158.8 0,185.3 114.8,185.3 114.8,256.2 
		141.3,256.2 141.3,185.3 256.1,185.3 	"/>
	<polygon class="st2" points="97.2,150.1 1.7,88 0,88 0,97.6 80.7,150.1 	"/>
	<polygon class="st2" points="106,194.1 89.6,194.1 0,252.4 0,256.2 10.6,256.2 	"/>
	<polygon class="st2" points="157.3,194.1 252.8,256.2 256.1,256.2 256.1,247.6 173.8,194.1 	"/>
	<polygon class="st2" points="245.4,88 150,150 150,150.1 166.4,150.1 256.1,91.8 256.1,88 	"/>
</g>
<path class="st3" d="M387.8,171.1H330c0,0,0,74.8,0,105.4c0,23.8,57.8,47.6,57.8,47.6s57.8-23.8,57.8-47.6c0-30.6,0-105.4,0-105.4
	L387.8,171.1L387.8,171.1z"/>
<path class="st4" d="M353.9,251.5c0,0-0.3-1.1,0-2.1c0.3-1-0.5-1.9-0.6-2.8c-0.4-2.4,1.6-3,1.7-5.1c0,0,1.4,1.5,0.9,2.9
	c-0.5,1.4,0.8,1.6,0.6,3s-1.7,2.7-1.5,3.9L353.9,251.5z"/>
<path class="st5" d="M376.6,249.3c-1.2-1.5-3.3,0.1-4.8,1.3c-0.2,0.2-0.4,0.3-0.6,0.4l-5.6-8.3c0.2-0.2,0.3-0.5,0.3-0.8
	c0-0.8-0.7-1.5-1.5-1.5s-1.5,0.7-1.5,1.5c0,0.3,0.1,0.6,0.3,0.8l-5.8,8.5h-4.1c0,0-0.2,2.5,4.3,2.8c0.6,0.9,1.4,1.6,2.4,2
	c-0.5,0.1-0.8,0.4-0.8,0.9v0.6c0,0,0,0.1,0,0.1h10.4c0,0,0-0.1,0-0.1v-0.6c0-0.5-0.4-0.9-0.8-0.9c1.7-0.7,3-2.3,3.2-4.3
	c0.2-0.1,0.3-0.2,0.5-0.4c1.1-0.8,2.7-2.1,3.3-1.5c0.1,0.2,0.1,0.3,0.1,0.3c-0.1,0.4-0.9,0.9-1.6,1.4c-1.1,0.7-2.1,1.4-2.2,2.5
	c0,0.3,0.2,0.6,0.5,0.6c0,0,0,0,0,0c0.3,0,0.5-0.2,0.5-0.5c0-0.5,1-1.2,1.8-1.7c1-0.7,1.9-1.3,2-2.1
	C377,250,376.9,249.6,376.6,249.3z M367.1,251.2c-0.3-1.2-1-2.3-1.9-2.7c0.5-0.2,0.8-0.7,0.8-1.3c0-0.8-0.7-1.5-1.5-1.5
	c-0.8,0-1.5,0.7-1.5,1.5c0,0.6,0.3,1.1,0.8,1.3c-0.9,0.4-1.6,1.5-1.9,2.7h-3.1l5.4-7.9c0.1,0,0.2,0.1,0.3,0.1s0.2,0,0.3-0.1l5.4,7.9
	H367.1z"/>
<path class="st6" d="M384.1,201.2c0,0-5.4-1.6-7.8,17.2c0,0-13.2,16.8-13.6,17.7c-0.4,1,0,8.1,1.4,7.5s4-3.9,3.8-6.3s0.9-3.8,2-5
	c2-2.3,13.4-12.5,13.8-14.8C384.1,215.4,384.1,201.2,384.1,201.2z"/>
<g>
	<path class="st7" d="M392.4,197.6c0,0,8.3-1.1,10.8,7.4c0,0-6.8,3.8-6,8.6s-0.1,27.2-0.1,27.2c-13.1,4.2-20-1.1-20-1.1
		s3.4-12.6,2.9-22.9c0,0-3.1-2.3-2.3-5c0.7-2.7,2.7-5.6,3.3-7.9s2.3-5.9,6.5-6.3C391.6,197.4,392.4,197.6,392.4,197.6z"/>
	<path class="st7" d="M379.5,237.3c0,0-6.5,24.6-4.2,58.2c0,0,20.3,2.7,31.4-1.3c0,0-5.7-40.2-11.3-55.9L379.5,237.3z"/>
</g>
<path class="st6" d="M383.4,183.1v10.2c0,1.1,0.9,2,2,2h0.2c0.8,0,1.4,0.6,1.4,1.4v2.4c0,0,1.4,3.6,6.7-0.6v-15.4L383.4,183.1z"/>
<path class="st8" d="M382.2,181c-0.3,0.8,0,3.1,2.1,2.9c2.5-0.2,5.6-0.2,6.3,2.6c0.6,2.6,0.2,9.2,3,9.6c2.8,0.4,6-1.5,6-7.1
	c-0.1-5-3.3-10.9-7.8-10c0,0-4-2.8-6.4,0.4C385.3,179.3,382.9,179.2,382.2,181z"/>
<path class="st6" d="M403.2,205c0,0,2.9,19.1,2.8,20.7c-0.1,1.6-10.3,17.3-9.7,19c0.6,1.7,1.1,4-2,4.8s-2.8-4.1-1.9-6.7
	c0.9-2.6,8-16.1,8-17.7s-4-11.6-3-15.6C398.2,205.5,403.2,205,403.2,205z"/>
<path class="st4" d="M341.2,191.3c0,0-0.3-1.1,0-2.1c0.3-1-0.5-1.9-0.6-2.8c-0.4-2.4,1.6-3,1.7-5.1c0,0,1.4,1.5,0.9,2.9
	c-0.5,1.4,0.8,1.6,0.6,3s-1.7,2.7-1.5,3.9L341.2,191.3z"/>
<path class="st5" d="M363.9,189c-1.2-1.5-3.3,0.1-4.8,1.3c-0.2,0.2-0.4,0.3-0.6,0.4l-5.6-8.3c0.2-0.2,0.3-0.5,0.3-0.8
	c0-0.8-0.7-1.5-1.5-1.5s-1.5,0.7-1.5,1.5c0,0.3,0.1,0.6,0.3,0.8l-5.8,8.5h-4.1c0,0-0.2,2.5,4.3,2.8c0.6,0.9,1.4,1.6,2.4,2
	c-0.5,0.1-0.8,0.4-0.8,0.9v0.6c0,0,0,0.1,0,0.1h10.4c0,0,0-0.1,0-0.1v-0.6c0-0.5-0.4-0.9-0.8-0.9c1.7-0.7,3-2.3,3.2-4.3
	c0.2-0.1,0.3-0.2,0.5-0.4c1.1-0.8,2.7-2.1,3.3-1.5c0.1,0.2,0.1,0.3,0.1,0.3c-0.1,0.4-0.9,0.9-1.6,1.4c-1.1,0.7-2.1,1.4-2.2,2.5
	c0,0.3,0.2,0.6,0.5,0.6c0,0,0,0,0,0c0.3,0,0.5-0.2,0.5-0.5c0-0.5,1-1.2,1.8-1.7c1-0.7,1.9-1.3,2-2.1
	C364.3,189.7,364.2,189.4,363.9,189z M354.3,191c-0.3-1.2-1-2.3-1.9-2.7c0.5-0.2,0.8-0.7,0.8-1.3c0-0.8-0.7-1.5-1.5-1.5
	c-0.8,0-1.5,0.7-1.5,1.5c0,0.6,0.3,1.1,0.8,1.3c-0.9,0.4-1.6,1.5-1.9,2.7H346l5.4-7.9c0.1,0,0.2,0.1,0.3,0.1c0.1,0,0.2,0,0.3-0.1
	l5.4,7.9H354.3z"/>
<path class="st4" d="M341.2,211.4c0,0-0.3-1.1,0-2.1c0.3-1-0.5-1.9-0.6-2.8c-0.4-2.4,1.6-3,1.7-5.1c0,0,1.4,1.5,0.9,2.9
	c-0.5,1.4,0.8,1.6,0.6,3s-1.7,2.7-1.5,3.9L341.2,211.4z"/>
<path class="st5" d="M363.9,209.1c-1.2-1.5-3.3,0.1-4.8,1.3c-0.2,0.2-0.4,0.3-0.6,0.4l-5.6-8.3c0.2-0.2,0.3-0.5,0.3-0.8
	c0-0.8-0.7-1.5-1.5-1.5s-1.5,0.7-1.5,1.5c0,0.3,0.1,0.6,0.3,0.8l-5.8,8.5h-4.1c0,0-0.2,2.5,4.3,2.8c0.6,0.9,1.4,1.6,2.4,2
	c-0.5,0.1-0.8,0.4-0.8,0.9v0.6c0,0,0,0.1,0,0.1h10.4c0,0,0-0.1,0-0.1v-0.6c0-0.5-0.4-0.9-0.8-0.9c1.7-0.7,3-2.3,3.2-4.3
	c0.2-0.1,0.3-0.2,0.5-0.4c1.1-0.8,2.7-2.1,3.3-1.5c0.1,0.2,0.1,0.3,0.1,0.3c-0.1,0.4-0.9,0.9-1.6,1.4c-1.1,0.7-2.1,1.4-2.2,2.5
	c0,0.3,0.2,0.6,0.5,0.6c0,0,0,0,0,0c0.3,0,0.5-0.2,0.5-0.5c0-0.5,1-1.2,1.8-1.7c1-0.7,1.9-1.3,2-2.1
	C364.3,209.8,364.2,209.4,363.9,209.1z M354.3,211c-0.3-1.2-1-2.3-1.9-2.7c0.5-0.2,0.8-0.7,0.8-1.3c0-0.8-0.7-1.5-1.5-1.5
	c-0.8,0-1.5,0.7-1.5,1.5c0,0.6,0.3,1.1,0.8,1.3c-0.9,0.4-1.6,1.5-1.9,2.7H346l5.4-7.9c0.1,0,0.2,0.1,0.3,0.1c0.1,0,0.2,0,0.3-0.1
	l5.4,7.9H354.3z"/>
<path class="st4" d="M341.2,231.4c0,0-0.3-1.1,0-2.1c0.3-1-0.5-1.9-0.6-2.8c-0.4-2.4,1.6-3,1.7-5.1c0,0,1.4,1.5,0.9,2.9
	c-0.5,1.4,0.8,1.6,0.6,3s-1.7,2.7-1.5,3.9L341.2,231.4z"/>
<path class="st5" d="M363.9,229.2c-1.2-1.5-3.3,0.1-4.8,1.3c-0.2,0.2-0.4,0.3-0.6,0.4l-5.6-8.3c0.2-0.2,0.3-0.5,0.3-0.8
	c0-0.8-0.7-1.5-1.5-1.5s-1.5,0.7-1.5,1.5c0,0.3,0.1,0.6,0.3,0.8l-5.8,8.5h-4.1c0,0-0.2,2.5,4.3,2.8c0.6,0.9,1.4,1.6,2.4,2
	c-0.5,0.1-0.8,0.4-0.8,0.9v0.6c0,0,0,0.1,0,0.1h10.4c0,0,0-0.1,0-0.1v-0.6c0-0.5-0.4-0.9-0.8-0.9c1.7-0.7,3-2.3,3.2-4.3
	c0.2-0.1,0.3-0.2,0.5-0.4c1.1-0.8,2.7-2.1,3.3-1.5c0.1,0.2,0.1,0.3,0.1,0.3c-0.1,0.4-0.9,0.9-1.6,1.4c-1.1,0.7-2.1,1.4-2.2,2.5
	c0,0.3,0.2,0.6,0.5,0.6c0,0,0,0,0,0c0.3,0,0.5-0.2,0.5-0.5c0-0.5,1-1.2,1.8-1.7c1-0.7,1.9-1.3,2-2.1
	C364.3,229.9,364.2,229.5,363.9,229.2z M354.3,231.1c-0.3-1.2-1-2.3-1.9-2.7c0.5-0.2,0.8-0.7,0.8-1.3c0-0.8-0.7-1.5-1.5-1.5
	c-0.8,0-1.5,0.7-1.5,1.5c0,0.6,0.3,1.1,0.8,1.3c-0.9,0.4-1.6,1.5-1.9,2.7H346l5.4-7.9c0.1,0,0.2,0.1,0.3,0.1c0.1,0,0.2,0,0.3-0.1
	l5.4,7.9H354.3z"/>
<path class="st4" d="M341.2,271.6c0,0-0.3-1.1,0-2.1c0.3-1-0.5-1.9-0.6-2.8c-0.4-2.4,1.6-3,1.7-5.1c0,0,1.4,1.5,0.9,2.9
	s0.8,1.6,0.6,3s-1.7,2.7-1.5,3.9L341.2,271.6z"/>
<path class="st5" d="M363.9,269.4c-1.2-1.5-3.3,0.1-4.8,1.3c-0.2,0.2-0.4,0.3-0.6,0.4l-5.6-8.3c0.2-0.2,0.3-0.5,0.3-0.8
	c0-0.8-0.7-1.5-1.5-1.5s-1.5,0.7-1.5,1.5c0,0.3,0.1,0.6,0.3,0.8l-5.8,8.5h-4.1c0,0-0.2,2.5,4.3,2.8c0.6,0.9,1.4,1.6,2.4,2
	c-0.5,0.1-0.8,0.4-0.8,0.9v0.6c0,0,0,0.1,0,0.1h10.4c0,0,0-0.1,0-0.1V277c0-0.5-0.4-0.9-0.8-0.9c1.7-0.7,3-2.3,3.2-4.3
	c0.2-0.1,0.3-0.2,0.5-0.4c1.1-0.8,2.7-2.1,3.3-1.5c0.1,0.2,0.1,0.3,0.1,0.3c-0.1,0.4-0.9,1-1.6,1.4c-1.1,0.7-2.1,1.4-2.2,2.5
	c0,0.3,0.2,0.6,0.5,0.6c0,0,0,0,0,0c0.3,0,0.5-0.2,0.5-0.5c0-0.5,1-1.2,1.8-1.7c1-0.7,1.9-1.3,2-2.1
	C364.3,270.1,364.2,269.7,363.9,269.4z M354.3,271.3c-0.3-1.2-1-2.3-1.9-2.7c0.5-0.2,0.8-0.7,0.8-1.3c0-0.8-0.7-1.5-1.5-1.5
	c-0.8,0-1.5,0.7-1.5,1.5c0,0.6,0.3,1.1,0.8,1.3c-0.9,0.4-1.6,1.5-1.9,2.7H346l5.4-7.9c0.1,0,0.2,0.1,0.3,0.1c0.1,0,0.2,0,0.3-0.1
	l5.4,7.9H354.3z"/>
<path class="st4" d="M341.2,291.7c0,0-0.3-1.1,0-2.1c0.3-1-0.5-1.9-0.6-2.8c-0.4-2.4,1.6-3,1.7-5.1c0,0,1.4,1.5,0.9,2.9
	c-0.5,1.4,0.8,1.6,0.6,3c-0.2,1.3-1.7,2.7-1.5,3.9L341.2,291.7z"/>
<path class="st5" d="M363.9,289.5c-1.2-1.5-3.3,0.1-4.8,1.3c-0.2,0.2-0.4,0.3-0.6,0.4l-5.6-8.3c0.2-0.2,0.3-0.5,0.3-0.8
	c0-0.8-0.7-1.5-1.5-1.5s-1.5,0.7-1.5,1.5c0,0.3,0.1,0.6,0.3,0.8l-5.8,8.5h-4.1c0,0-0.2,2.5,4.3,2.8c0.6,0.9,1.4,1.6,2.4,2
	c-0.5,0.1-0.8,0.4-0.8,0.9v0.6c0,0,0,0.1,0,0.1h10.4c0,0,0-0.1,0-0.1v-0.6c0-0.5-0.4-0.9-0.8-0.9c1.7-0.7,3-2.3,3.2-4.3
	c0.2-0.1,0.3-0.2,0.5-0.4c1.1-0.8,2.7-2.1,3.3-1.5c0.1,0.2,0.1,0.3,0.1,0.3c-0.1,0.4-0.9,1-1.6,1.4c-1.1,0.7-2.1,1.4-2.2,2.5
	c0,0.3,0.2,0.6,0.5,0.6c0,0,0,0,0,0c0.3,0,0.5-0.2,0.5-0.5c0-0.5,1-1.2,1.8-1.7c1-0.7,1.9-1.3,2-2.1
	C364.3,290.2,364.2,289.8,363.9,289.5z M354.3,291.4c-0.3-1.2-1-2.3-1.9-2.7c0.5-0.2,0.8-0.7,0.8-1.3c0-0.8-0.7-1.5-1.5-1.5
	c-0.8,0-1.5,0.7-1.5,1.5c0,0.6,0.3,1.1,0.8,1.3c-0.9,0.4-1.6,1.5-1.9,2.7H346l5.4-7.9c0.1,0,0.2,0.1,0.3,0.1c0.1,0,0.2,0,0.3-0.1
	l5.4,7.9H354.3z"/>
<path class="st4" d="M411.1,191.3c0,0-0.3-1.1,0-2.1c0.3-1-0.5-1.9-0.6-2.8c-0.4-2.4,1.6-3,1.7-5.1c0,0,1.4,1.5,0.9,2.9
	c-0.5,1.4,0.8,1.6,0.6,3s-1.7,2.7-1.5,3.9L411.1,191.3z"/>
<path class="st5" d="M433.8,189c-1.2-1.5-3.3,0.1-4.8,1.3c-0.2,0.2-0.4,0.3-0.6,0.4l-5.6-8.3c0.2-0.2,0.3-0.5,0.3-0.8
	c0-0.8-0.7-1.5-1.5-1.5s-1.5,0.7-1.5,1.5c0,0.3,0.1,0.6,0.3,0.8l-5.8,8.5h-4.1c0,0-0.2,2.5,4.3,2.8c0.6,0.9,1.4,1.6,2.4,2
	c-0.5,0.1-0.8,0.4-0.8,0.9v0.6c0,0,0,0.1,0,0.1h10.4c0,0,0-0.1,0-0.1v-0.6c0-0.5-0.4-0.9-0.8-0.9c1.7-0.7,3-2.3,3.2-4.3
	c0.2-0.1,0.3-0.2,0.5-0.4c1.1-0.8,2.7-2.1,3.3-1.5c0.1,0.2,0.1,0.3,0.1,0.3c-0.1,0.4-0.9,0.9-1.6,1.4c-1.1,0.7-2.1,1.4-2.2,2.5
	c0,0.3,0.2,0.6,0.5,0.6c0,0,0,0,0,0c0.3,0,0.5-0.2,0.5-0.5c0-0.5,1-1.2,1.8-1.7c1-0.7,1.9-1.3,2-2.1
	C434.2,189.7,434.1,189.4,433.8,189z M424.2,191c-0.3-1.2-1-2.3-1.9-2.7c0.5-0.2,0.8-0.7,0.8-1.3c0-0.8-0.7-1.5-1.5-1.5
	c-0.8,0-1.5,0.7-1.5,1.5c0,0.6,0.3,1.1,0.8,1.3c-0.9,0.4-1.6,1.5-1.9,2.7h-3.1l5.4-7.9c0.1,0,0.2,0.1,0.3,0.1c0.1,0,0.2,0,0.3-0.1
	l5.4,7.9H424.2z"/>
<path class="st4" d="M411.1,211.4c0,0-0.3-1.1,0-2.1c0.3-1-0.5-1.9-0.6-2.8c-0.4-2.4,1.6-3,1.7-5.1c0,0,1.4,1.5,0.9,2.9
	c-0.5,1.4,0.8,1.6,0.6,3s-1.7,2.7-1.5,3.9L411.1,211.4z"/>
<path class="st5" d="M433.8,209.1c-1.2-1.5-3.3,0.1-4.8,1.3c-0.2,0.2-0.4,0.3-0.6,0.4l-5.6-8.3c0.2-0.2,0.3-0.5,0.3-0.8
	c0-0.8-0.7-1.5-1.5-1.5s-1.5,0.7-1.5,1.5c0,0.3,0.1,0.6,0.3,0.8l-5.8,8.5h-4.1c0,0-0.2,2.5,4.3,2.8c0.6,0.9,1.4,1.6,2.4,2
	c-0.5,0.1-0.8,0.4-0.8,0.9v0.6c0,0,0,0.1,0,0.1h10.4c0,0,0-0.1,0-0.1v-0.6c0-0.5-0.4-0.9-0.8-0.9c1.7-0.7,3-2.3,3.2-4.3
	c0.2-0.1,0.3-0.2,0.5-0.4c1.1-0.8,2.7-2.1,3.3-1.5c0.1,0.2,0.1,0.3,0.1,0.3c-0.1,0.4-0.9,0.9-1.6,1.4c-1.1,0.7-2.1,1.4-2.2,2.5
	c0,0.3,0.2,0.6,0.5,0.6c0,0,0,0,0,0c0.3,0,0.5-0.2,0.5-0.5c0-0.5,1-1.2,1.8-1.7c1-0.7,1.9-1.3,2-2.1
	C434.2,209.8,434.1,209.4,433.8,209.1z M424.2,211c-0.3-1.2-1-2.3-1.9-2.7c0.5-0.2,0.8-0.7,0.8-1.3c0-0.8-0.7-1.5-1.5-1.5
	c-0.8,0-1.5,0.7-1.5,1.5c0,0.6,0.3,1.1,0.8,1.3c-0.9,0.4-1.6,1.5-1.9,2.7h-3.1l5.4-7.9c0.1,0,0.2,0.1,0.3,0.1c0.1,0,0.2,0,0.3-0.1
	l5.4,7.9H424.2z"/>
<path class="st4" d="M411.1,231.4c0,0-0.3-1.1,0-2.1c0.3-1-0.5-1.9-0.6-2.8c-0.4-2.4,1.6-3,1.7-5.1c0,0,1.4,1.5,0.9,2.9
	c-0.5,1.4,0.8,1.6,0.6,3s-1.7,2.7-1.5,3.9L411.1,231.4z"/>
<path class="st5" d="M433.8,229.2c-1.2-1.5-3.3,0.1-4.8,1.3c-0.2,0.2-0.4,0.3-0.6,0.4l-5.6-8.3c0.2-0.2,0.3-0.5,0.3-0.8
	c0-0.8-0.7-1.5-1.5-1.5s-1.5,0.7-1.5,1.5c0,0.3,0.1,0.6,0.3,0.8l-5.8,8.5h-4.1c0,0-0.2,2.5,4.3,2.8c0.6,0.9,1.4,1.6,2.4,2
	c-0.5,0.1-0.8,0.4-0.8,0.9v0.6c0,0,0,0.1,0,0.1h10.4c0,0,0-0.1,0-0.1v-0.6c0-0.5-0.4-0.9-0.8-0.9c1.7-0.7,3-2.3,3.2-4.3
	c0.2-0.1,0.3-0.2,0.5-0.4c1.1-0.8,2.7-2.1,3.3-1.5c0.1,0.2,0.1,0.3,0.1,0.3c-0.1,0.4-0.9,0.9-1.6,1.4c-1.1,0.7-2.1,1.4-2.2,2.5
	c0,0.3,0.2,0.6,0.5,0.6c0,0,0,0,0,0c0.3,0,0.5-0.2,0.5-0.5c0-0.5,1-1.2,1.8-1.7c1-0.7,1.9-1.3,2-2.1
	C434.2,229.9,434.1,229.5,433.8,229.2z M424.2,231.1c-0.3-1.2-1-2.3-1.9-2.7c0.5-0.2,0.8-0.7,0.8-1.3c0-0.8-0.7-1.5-1.5-1.5
	c-0.8,0-1.5,0.7-1.5,1.5c0,0.6,0.3,1.1,0.8,1.3c-0.9,0.4-1.6,1.5-1.9,2.7h-3.1l5.4-7.9c0.1,0,0.2,0.1,0.3,0.1c0.1,0,0.2,0,0.3-0.1
	l5.4,7.9H424.2z"/>
<path class="st4" d="M411.1,251.5c0,0-0.3-1.1,0-2.1c0.3-1-0.5-1.9-0.6-2.8c-0.4-2.4,1.6-3,1.7-5.1c0,0,1.4,1.5,0.9,2.9
	c-0.5,1.4,0.8,1.6,0.6,3s-1.7,2.7-1.5,3.9L411.1,251.5z"/>
<path class="st5" d="M433.8,249.3c-1.2-1.5-3.3,0.1-4.8,1.3c-0.2,0.2-0.4,0.3-0.6,0.4l-5.6-8.3c0.2-0.2,0.3-0.5,0.3-0.8
	c0-0.8-0.7-1.5-1.5-1.5s-1.5,0.7-1.5,1.5c0,0.3,0.1,0.6,0.3,0.8l-5.8,8.5h-4.1c0,0-0.2,2.5,4.3,2.8c0.6,0.9,1.4,1.6,2.4,2
	c-0.5,0.1-0.8,0.4-0.8,0.9v0.6c0,0,0,0.1,0,0.1h10.4c0,0,0-0.1,0-0.1v-0.6c0-0.5-0.4-0.9-0.8-0.9c1.7-0.7,3-2.3,3.2-4.3
	c0.2-0.1,0.3-0.2,0.5-0.4c1.1-0.8,2.7-2.1,3.3-1.5c0.1,0.2,0.1,0.3,0.1,0.3c-0.1,0.4-0.9,0.9-1.6,1.4c-1.1,0.7-2.1,1.4-2.2,2.5
	c0,0.3,0.2,0.6,0.5,0.6c0,0,0,0,0,0c0.3,0,0.5-0.2,0.5-0.5c0-0.5,1-1.2,1.8-1.7c1-0.7,1.9-1.3,2-2.1
	C434.2,250,434.1,249.6,433.8,249.3z M424.2,251.2c-0.3-1.2-1-2.3-1.9-2.7c0.5-0.2,0.8-0.7,0.8-1.3c0-0.8-0.7-1.5-1.5-1.5
	c-0.8,0-1.5,0.7-1.5,1.5c0,0.6,0.3,1.1,0.8,1.3c-0.9,0.4-1.6,1.5-1.9,2.7h-3.1l5.4-7.9c0.1,0,0.2,0.1,0.3,0.1c0.1,0,0.2,0,0.3-0.1
	l5.4,7.9H424.2z"/>
<path class="st4" d="M411.1,271.6c0,0-0.3-1.1,0-2.1c0.3-1-0.5-1.9-0.6-2.8c-0.4-2.4,1.6-3,1.7-5.1c0,0,1.4,1.5,0.9,2.9
	c-0.5,1.4,0.8,1.6,0.6,3s-1.7,2.7-1.5,3.9L411.1,271.6z"/>
<path class="st5" d="M433.8,269.4c-1.2-1.5-3.3,0.1-4.8,1.3c-0.2,0.2-0.4,0.3-0.6,0.4l-5.6-8.3c0.2-0.2,0.3-0.5,0.3-0.8
	c0-0.8-0.7-1.5-1.5-1.5s-1.5,0.7-1.5,1.5c0,0.3,0.1,0.6,0.3,0.8l-5.8,8.5h-4.1c0,0-0.2,2.5,4.3,2.8c0.6,0.9,1.4,1.6,2.4,2
	c-0.5,0.1-0.8,0.4-0.8,0.9v0.6c0,0,0,0.1,0,0.1h10.4c0,0,0-0.1,0-0.1V277c0-0.5-0.4-0.9-0.8-0.9c1.7-0.7,3-2.3,3.2-4.3
	c0.2-0.1,0.3-0.2,0.5-0.4c1.1-0.8,2.7-2.1,3.3-1.5c0.1,0.2,0.1,0.3,0.1,0.3c-0.1,0.4-0.9,1-1.6,1.4c-1.1,0.7-2.1,1.4-2.2,2.5
	c0,0.3,0.2,0.6,0.5,0.6c0,0,0,0,0,0c0.3,0,0.5-0.2,0.5-0.5c0-0.5,1-1.2,1.8-1.7c1-0.7,1.9-1.3,2-2.1
	C434.2,270.1,434.1,269.7,433.8,269.4z M424.2,271.3c-0.3-1.2-1-2.3-1.9-2.7c0.5-0.2,0.8-0.7,0.8-1.3c0-0.8-0.7-1.5-1.5-1.5
	c-0.8,0-1.5,0.7-1.5,1.5c0,0.6,0.3,1.1,0.8,1.3c-0.9,0.4-1.6,1.5-1.9,2.7h-3.1l5.4-7.9c0.1,0,0.2,0.1,0.3,0.1c0.1,0,0.2,0,0.3-0.1
	l5.4,7.9H424.2z"/>
<path class="st4" d="M411.1,291.7c0,0-0.3-1.1,0-2.1c0.3-1-0.5-1.9-0.6-2.8c-0.4-2.4,1.6-3,1.7-5.1c0,0,1.4,1.5,0.9,2.9
	c-0.5,1.4,0.8,1.6,0.6,3c-0.2,1.3-1.7,2.7-1.5,3.9L411.1,291.7z"/>
<path class="st5" d="M433.8,289.5c-1.2-1.5-3.3,0.1-4.8,1.3c-0.2,0.2-0.4,0.3-0.6,0.4l-5.6-8.3c0.2-0.2,0.3-0.5,0.3-0.8
	c0-0.8-0.7-1.5-1.5-1.5s-1.5,0.7-1.5,1.5c0,0.3,0.1,0.6,0.3,0.8l-5.8,8.5h-4.1c0,0-0.2,2.5,4.3,2.8c0.6,0.9,1.4,1.6,2.4,2
	c-0.5,0.1-0.8,0.4-0.8,0.9v0.6c0,0,0,0.1,0,0.1h10.4c0,0,0-0.1,0-0.1v-0.6c0-0.5-0.4-0.9-0.8-0.9c1.7-0.7,3-2.3,3.2-4.3
	c0.2-0.1,0.3-0.2,0.5-0.4c1.1-0.8,2.7-2.1,3.3-1.5c0.1,0.2,0.1,0.3,0.1,0.3c-0.1,0.4-0.9,1-1.6,1.4c-1.1,0.7-2.1,1.4-2.2,2.5
	c0,0.3,0.2,0.6,0.5,0.6c0,0,0,0,0,0c0.3,0,0.5-0.2,0.5-0.5c0-0.5,1-1.2,1.8-1.7c1-0.7,1.9-1.3,2-2.1
	C434.2,290.2,434.1,289.8,433.8,289.5z M424.2,291.4c-0.3-1.2-1-2.3-1.9-2.7c0.5-0.2,0.8-0.7,0.8-1.3c0-0.8-0.7-1.5-1.5-1.5
	c-0.8,0-1.5,0.7-1.5,1.5c0,0.6,0.3,1.1,0.8,1.3c-0.9,0.4-1.6,1.5-1.9,2.7h-3.1l5.4-7.9c0.1,0,0.2,0.1,0.3,0.1c0.1,0,0.2,0,0.3-0.1
	l5.4,7.9H424.2z"/>
<g>
	<path class="st7" d="M445.5,171.1c0,0,0,74.8,0,105.4c0,23.8-57.8,47.6-57.8,47.6S330,300.3,330,276.5c0-30.6,0-105.4,0-105.4h57.8
		L445.5,171.1 M448.9,167.7h-3.4h-57.8H330h-3.4v3.4v105.4c0,11.1,10.3,23.1,30.5,35.6c14.5,9,28.8,14.9,29.4,15.1l1.3,0.5l1.3-0.5
		c0.6-0.2,14.9-6.2,29.4-15.1c20.2-12.5,30.5-24.5,30.5-35.6V171.1L448.9,167.7L448.9,167.7z"/>
	<path class="st7" d="M449.4,295.3l15.4,10.6c-17.9,23-45.8,37.8-77.1,37.8c-31.3,0-59.2-14.8-77.1-37.8l15.4-10.6
		c14.5,18.1,36.8,29.7,61.7,29.7C412.7,325,434.9,313.4,449.4,295.3 M448.8,290.7l-2,2.5c-14.5,18.1-36,28.4-59,28.4
		s-44.6-10.4-59-28.4l-2-2.5l-2.6,1.8l-15.4,10.6l-3,2l2.2,2.8c19.4,24.8,48.4,39.1,79.8,39.1s60.4-14.2,79.8-39.1l2.2-2.8l-3-2
		l-15.4-10.6L448.8,290.7L448.8,290.7z"/>
</g>
<path class="st5" d="M387.8,343.7c31.3,0,59.2-14.8,77.1-37.8l-15.4-10.6c-14.5,18.1-36.8,29.7-61.7,29.7s-47.2-11.6-61.7-29.7
	l-15.4,10.6C328.6,328.9,356.4,343.7,387.8,343.7z"/>
</svg>
