<?xml version="1.0" encoding="utf-8"?>
<!-- Generator: Adobe Illustrator 25.0.0, SVG Export Plug-In . SVG Version: 6.00 Build 0)  -->
<svg version="1.1" id="Layer_1" xmlns="http://www.w3.org/2000/svg" xmlns:xlink="http://www.w3.org/1999/xlink" x="0px" y="0px"
	 viewBox="0 0 512 512" style="enable-background:new 0 0 512 512;" xml:space="preserve">
<style type="text/css">
	.st0{fill:#FDCE11;}
	.st1{fill:#009543;}
	.st2{fill:#D21034;}
</style>
<polygon class="st0" points="512,246.6 248.8,246.6 237.3,240.2 8.7,114.2 0,109.4 0,130 228.6,256 0,382 0,402.6 8.7,397.8 
	237.3,271.8 247.8,266 512,266 "/>
<polygon points="247.8,266 237.3,271.8 8.7,397.8 0,402.6 0,424.2 17.9,414.4 246.5,288.4 256.2,283 512,283 512,266 287.1,266 "/>
<g>
	<polygon class="st1" points="246.5,288.4 17.9,414.4 0,424.2 0,424.3 512,424.3 512,283 256.2,283 	"/>
</g>
<polygon points="257.2,229.5 246.5,223.6 17.9,97.6 1,88.3 0,88.3 0,109.4 8.7,114.2 217.8,229.5 217.8,229.5 237.3,240.2 
	248.8,246.6 288.1,246.6 512,246.6 512,229.5 "/>
<g>
	<polygon class="st2" points="1,88.3 17.9,97.6 246.5,223.6 257.2,229.5 512,229.5 512,88.3 	"/>
</g>
<polygon points="0,130 0,382 228.6,256 "/>
<g>
	<path class="st0" d="M76.5,206.5c-25.2-7.9-44.2,10.4-48.6,19.8c-3.7,8-10.5,44.2,23.6,49.9c34.1,5.8,33.7-26.4,33.7-26.4
		c-1.5,5.1-4.3,19.7-28.9,19.7c-9.2,0-22.5-13.7-20-28.8c2.4-14.2,15.1-21.5,24.7-21.9c9.1-0.4,30.3,5.9,30.3,31.7
		c0,29-29.9,32.3-29.9,32.3v17.5c26.1-2.6,40.8-17,44.7-40.1C109.9,237.3,102.1,214.6,76.5,206.5z"/>
	<path class="st0" d="M48.5,249.5c-0.6,0.8-0.9,1.7-0.9,2.7l-0.1,4.7l-0.9,1.6c-0.3,0.6-0.1,1.3,0.4,1.7c0.6,0.3,1.3,0.1,1.7-0.4
		l0.9-1.6l3.8-1.4c1.1-0.4,2.1-1.3,2.6-2.4c1-2.2,3.1-6.2,6.5-10.4c3.4,4.2,5.5,8.2,6.5,10.4c0.5,1.1,1.4,2,2.6,2.4l3.8,1.4l0.9,1.6
		c0.3,0.6,1.1,0.8,1.7,0.4c0.6-0.3,0.8-1.1,0.4-1.7l-0.9-1.6l-0.1-4.7c0-1-0.3-1.9-0.9-2.7c-3.2-4-6.5-7.2-9.8-9.9
		c2.6-2.5,5.6-4.9,9.4-6.7c0.9-0.4,1.3-1.4,1.1-2.3c-0.3-1.3-1.7-2-2.9-1.4c-2.5,1.2-6.9,3.5-11.7,7c-4.9-3.6-9.2-5.9-11.7-7
		c-1.2-0.6-2.6,0.1-2.9,1.4c-0.2,0.9,0.2,1.9,1.1,2.3c3.8,1.8,6.8,4.2,9.4,6.7C55.1,242.4,51.7,245.5,48.5,249.5z"/>
</g>
</svg>
