<?xml version="1.0" encoding="utf-8"?>
<!-- Generator: Adobe Illustrator 25.0.0, SVG Export Plug-In . SVG Version: 6.00 Build 0)  -->
<svg version="1.1" id="Layer_1" xmlns="http://www.w3.org/2000/svg" xmlns:xlink="http://www.w3.org/1999/xlink" x="0px" y="0px"
	 viewBox="0 0 512 512" style="enable-background:new 0 0 512 512;" xml:space="preserve">
<style type="text/css">
	.st0{fill:#CE1126;}
	.st1{fill:#002B7F;}
	.st2{fill:#FFFFFF;}
</style>
<rect y="88" class="st0" width="512" height="336"/>
<rect y="88" class="st1" width="256" height="168"/>
<g>
	<path class="st2" d="M125.8,197.6l-4.1,12.2l-12.8,0.1c-1.7,0-2.3,2.1-1,3.1l10.3,7.6l-3.9,12.2c-0.5,1.6,1.3,2.9,2.6,1.9l10.4-7.4
		l10.4,7.4c1.4,1,3.1-0.3,2.6-1.9l-3.9-12.2l10.3-7.6c1.3-1,0.6-3.1-1-3.1l-12.8-0.1l-4.1-12.2C128.5,196,126.3,196,125.8,197.6z"/>
	<path class="st2" d="M126.1,102.9l-3.3,9.8l-10.4,0.1c-1.3,0-1.9,1.7-0.8,2.5l8.3,6.2l-3.1,9.9c-0.4,1.3,1.1,2.3,2.1,1.6l8.4-6
		l8.4,6c1.1,0.8,2.5-0.3,2.1-1.6l-3.1-9.9l8.3-6.2c1.1-0.8,0.5-2.5-0.8-2.5l-10.4-0.1l-3.3-9.8C128.3,101.6,126.5,101.6,126.1,102.9
		z"/>
	<path class="st2" d="M178.5,132.1l-3.3,9.8l-10.4,0.1c-1.3,0-1.9,1.7-0.8,2.5l8.3,6.2l-3.1,9.9c-0.4,1.3,1.1,2.3,2.1,1.6l8.4-6
		l8.4,6c1.1,0.8,2.5-0.3,2.1-1.6l-3.1-9.9l8.3-6.2c1.1-0.8,0.5-2.5-0.8-2.5l-10.4-0.1l-3.3-9.8C180.7,130.8,178.9,130.8,178.5,132.1
		z"/>
	<path class="st2" d="M74.8,143.7l-3.3,9.8l-10.4,0.1c-1.3,0-1.9,1.7-0.8,2.5l8.3,6.2l-3.1,9.9c-0.4,1.3,1.1,2.3,2.1,1.6l8.4-6
		l8.4,6c1.1,0.8,2.5-0.3,2.1-1.6l-3.1-9.9l8.3-6.2c1.1-0.8,0.5-2.5-0.8-2.5l-10.4-0.1l-3.3-9.8C77,142.4,75.2,142.4,74.8,143.7z"/>
	<path class="st2" d="M155.9,175.8l-1.8,5.5l-5.8,0c-0.8,0-1.1,1-0.5,1.4l4.7,3.5l-1.8,5.5c-0.2,0.7,0.6,1.3,1.2,0.9l4.7-3.4
		l4.7,3.4c0.6,0.4,1.4-0.2,1.2-0.9l-1.8-5.5l4.7-3.5c0.6-0.4,0.3-1.4-0.5-1.4l-5.8,0l-1.8-5.5C157.1,175.1,156.1,175.1,155.9,175.8z
		"/>
</g>
</svg>
