<?xml version="1.0" encoding="utf-8"?>
<!-- Generator: Adobe Illustrator 25.0.0, SVG Export Plug-In . SVG Version: 6.00 Build 0)  -->
<svg version="1.1" id="Layer_1" xmlns="http://www.w3.org/2000/svg" xmlns:xlink="http://www.w3.org/1999/xlink" x="0px" y="0px"
	 viewBox="0 0 512 512" style="enable-background:new 0 0 512 512;" xml:space="preserve">
<style type="text/css">
	.st0{fill:#FFFFFF;}
	.st1{fill:#B4B4B4;stroke:#7F7F7F;stroke-width:0.25;}
	.st2{fill:#FF4B55;}
	.st3{fill:#41479B;}
	.st4{fill:#FFE15A;}
</style>
<g id="Page-1">
	<g id="yt">
		<path id="Rectangle" class="st0" d="M10,88h492c5.5,0,10,4.5,10,10v316c0,5.5-4.5,10-10,10H10c-5.5,0-10-4.5-10-10V98
			C0,92.5,4.5,88,10,88z"/>
		<path id="Path" class="st1" d="M72.8,307c0,0,22.8,9.1,6.8-2.8c-13.7-9.7-28.4,13.7-28.4,29c0,15.4,6.8,39.8,42.7,39.8
			c43.2,0,64.9-32.4,64.9-64.9c0-27.3-21-76.8-37-83.1c-17.6-6.8-38.1-19.9-38.7-28.4c0-2.8,8-0.6,18.8,5.1
			c17.6,9.7,37.5,14.2,37.5,8s-16.5-17.6-22.8-26.2c-6.8-9.1-5.1-31.3-17.1-31.3c-43.2,0-56.3,43.8-39.8,66.6
			c10.8,14.8-24.5,5.7-24.5,5.7s0,30.2,18.2,41.5c17.1,10.2,27.3,22.2,27.3,22.2s-1.1-26.2,2.8-22.2c3.4,4,63.1,25.6,58.6,68.3
			c-1.7,17.1-25.6,30.7-48.4,29.6c-22.8-1.1-38.7-13.7-36.4-30.7C58.6,309.3,72.8,307,72.8,307z"/>
		<path id="Path_1_" class="st1" d="M439.2,307c0,0-22.8,9.1-6.8-2.8c13.7-10.2,29,13.1,29,29s-6.8,39.8-42.7,39.8
			c-43.2,0-64.9-32.4-64.9-64.9c0-27.3,21-76.8,37-83.1c17.6-6.8,38.1-19.9,38.7-28.4c0-2.8-8-0.6-18.8,5.1
			c-17.6,9.7-37.5,14.2-37.5,8s16.5-17.6,22.8-26.2c6.8-9.1,5.1-31.3,17.1-31.3c43.2,0,56.3,43.8,39.8,66.6
			c-10.8,14.8,24.5,5.7,24.5,5.7s0,30.2-18.2,41.5c-17.1,10.2-27.3,22.2-27.3,22.2s1.1-26.2-2.8-22.2c-3.4,4-63.1,25.6-58.6,68.3
			c1.7,17.1,25.6,30.7,48.4,29.6c22.8-1.1,38.7-13.7,36.4-30.7C453.4,309.3,439.2,307,439.2,307z"/>
		<g id="Group" transform="translate(176.355556, 73.955556)">
			<path id="Path_2_" class="st2" d="M0,177.9c0,0,0,68.8,0,79.6c0,10.8,11.9,9.1,11.9,9.1s46.6,0,52.9,0c6.8,0,14.8,13.1,14.8,13.1
				s8-13.1,14.2-13.1c6.3,0,54.6,0,54.6,0s11.4,1.1,11.4-10.2s0-79.1,0-79.1H0V177.9z"/>
			<rect id="Rectangle_1_" x="0" y="88.6" class="st3" width="159.3" height="89.3"/>
		</g>
		<path id="Path_3_" class="st0" d="M285,181.9c-2.3,13.7-14.2,23.9-29,23.9c-14.2,0-26.2-10.2-29-23.9c-2.8,5.1-4.6,10.8-4.6,17.1
			c0,18.8,14.8,33.6,33.6,33.6s33.6-14.8,33.6-33.6C289.6,192.7,287.9,187,285,181.9z"/>
		<circle id="Oval" class="st4" cx="222.4" cy="295.6" r="17.1"/>
		<circle id="Oval_1_" class="st4" cx="289.6" cy="295.6" r="17.1"/>
	</g>
</g>
</svg>
