<?xml version="1.0" encoding="UTF-8"?>
<svg width="512px" height="336px" viewBox="0 0 512 336" version="1.1" xmlns="http://www.w3.org/2000/svg" xmlns:xlink="http://www.w3.org/1999/xlink">
    <title>zm</title>
    <defs>
        <rect id="path-1" x="0" y="0" width="512" height="336" rx="10"></rect>
    </defs>
    <g id="Page-1" stroke="none" stroke-width="1" fill="none" fill-rule="evenodd">
        <g id="zm">
            <mask id="mask-2" fill="white">
                <use xlink:href="#path-1"></use>
            </mask>
            <g id="Mask"></g>
            <g mask="url(#mask-2)" fill-rule="nonzero">
                <rect id="Rectangle" fill="#73AF00" x="0" y="0" width="512" height="336"></rect>
                <path d="M490.668,104.476 L442.668,104.476 C442.668,95.64 435.504,88.476 426.668,88.476 C417.832,88.476 410.668,95.64 410.668,104.476 L362.668,104.476 C362.668,113.312 370.365,120.476 379.201,120.476 L378.668,120.476 C378.668,129.312 385.83,136.476 394.668,136.476 C394.668,145.312 401.83,152.476 410.668,152.476 L442.668,152.476 C451.504,152.476 458.668,145.312 458.668,136.476 C467.504,136.476 474.668,129.312 474.668,120.476 L474.135,120.476 C482.972,120.476 490.668,113.312 490.668,104.476 Z" id="Path" fill="#FFE15A"></path>
                <rect id="Rectangle" fill="#FF4B55" x="341.337" y="164.994" width="56.888" height="170.663"></rect>
                <rect id="Rectangle" fill="#FFE15A" x="455" y="165" width="56.888" height="170.663"></rect>
                <rect id="Rectangle" fill="#464655" x="398.225" y="164.994" width="56.888" height="170.663"></rect>
            </g>
        </g>
    </g>
</svg>