<svg xmlns="http://www.w3.org/2000/svg" viewBox="0 0 512.001 512.001"><path d="M503.172 88.276H8.828A8.829 8.829 0 000 97.104v317.792a8.829 8.829 0 008.828 8.828h494.345a8.829 8.829 0 008.828-8.828V97.104a8.83 8.83 0 00-8.829-8.828z" fill="#464655"/><path fill="#ffe15a" d="M255.999 105.931l11.195 58.482 32.721-49.746-12.037 58.314 49.268-33.438-33.437 49.269 58.314-12.038-49.747 32.722 58.482 11.194-58.482 11.194 49.747 32.722-58.314-12.038 33.437 49.268-49.268-33.437 12.037 58.315-32.721-49.747-11.195 58.481-11.193-58.481-32.723 49.747 12.039-58.315-49.269 33.437 33.438-49.268-58.314 12.038 49.746-32.722-58.482-11.194 58.482-11.194-49.746-32.722 58.314 12.038-33.438-49.269 49.269 33.438-12.039-58.314 32.723 49.746z"/><g fill="#ff4b55"><path d="M0 97.104v317.792a8.829 8.829 0 008.828 8.828H256L2.298 91.289C.91 92.848 0 94.852 0 97.104z"/><path d="M255.999 423.724h247.172a8.829 8.829 0 008.828-8.828V97.104c0-2.252-.91-4.256-2.298-5.816L255.999 423.724z"/></g><path fill="#4173cd" d="M154.947 291.31h202.105l53.894-70.62H101.052z"/><path fill="#f5f5f5" d="M154.947 291.31l101.052 132.414L357.052 291.31z"/></svg>