<svg version="1.1" id="Layer_1" xmlns="http://www.w3.org/2000/svg" x="0" y="0" viewBox="0 0 512 512" xml:space="preserve"><style>.st2{fill:#ff4b55}.st5{fill:#ffb400}</style><g id="Page-1"><g id="ai"><path id="Path" d="M503.2 423.7H8.8c-4.9 0-8.8-4-8.8-8.8V97.1c0-4.9 4-8.8 8.8-8.8h494.3c4.9 0 8.8 4 8.8 8.8v317.8c.1 4.9-3.9 8.8-8.7 8.8z" fill="#41479b"/><g id="union-flag"><path id="Path_1_" d="M247.2 88.3h-15.3l-81.8 53.6V88.3H106v53.6L24.2 88.3H8.8c-4.9 0-8.8 4-8.8 8.8v7l70.2 46H0v44.1h70.2L0 240.2v7c0 4.9 4 8.8 8.8 8.8h15.3l81.8-53.6V256H150v-53.6l81.8 53.6h15.3c4.9 0 8.8-4 8.8-8.8v-7l-70.2-46H256v-44.1h-70.2l70.2-46v-7c0-4.9-4-8.8-8.8-8.8z" fill="#f5f5f5"/><path id="Path_2_" class="st2" d="M256 158.9H141.2V88.3h-26.4v70.6H0v26.5h114.8V256h26.4v-70.6H256z"/><path id="Path_3_" class="st2" d="M97.1 150.1L4.2 89.8C1.7 91.3 0 94 0 97.1v.5l80.9 52.5h16.2z"/><path id="Path_4_" class="st2" d="M166.3 150.1l88.4-57.4c-1.5-2.6-4.2-4.4-7.5-4.4h-1.9l-95.2 61.8h16.2z"/><path id="Path_5_" class="st2" d="M89.5 194.2L1.3 251.5c1.5 2.7 4.3 4.5 7.6 4.5h1.7l95.2-61.8H89.5z"/><path id="Path_6_" class="st2" d="M255.9 247.9l-82.7-53.7H157l93.9 60.9c2.8-1.3 4.7-4 5-7.2z"/></g><g id="shield" transform="translate(299.94 86.89)"><path id="Path_7_" d="M154.9 260.5c7.9-10.9 13.2-24.3 13.2-40.4V100c-10 7.5-22.5 12-36 12-19.6 0-37.1-9.4-48-24-11 14.6-28.4 24-48 24-13.5 0-26-4.5-36-12v120.1c0 16.2 5.3 29.5 13.2 40.4h141.6z" fill="#fff"/><path id="Path_8_" d="M10.3 256.1c22.4 36 73.8 48 73.8 48s51.4-12 73.8-48H10.3z" fill="#8dccff"/><path id="Path_9_" class="st5" d="M96.7 167.3c.3 1.4 8.7 10.2 17.6 20.1 1.4 1.6-8.7 12.6-6.9 12.6 4.8-.1 19.3-17.3 19.3 6.7.1 15.9-30 27.5-30 27.5h17.5l.7 15s5-13.3 7.6-16.6c8.1-10 20.2-30.1 34.6-27.1 14.4 3-13.7-13.9-13.7-13.9s-5.2-15.2-16.6-17c-10.1-1.6-14.3-2.5-26.6-7.3-1.8-.6-4-2.3-3.5 0z"/><path id="Path_10_" class="st5" d="M59.8 193.8c1.1-1 4.5-12.6 8.7-25.3.7-2 15.3 1.3 14.3-.3-2.5-4.1-24.6-8.1-3.9-20.1 13.8-8 38.8 12.3 38.8 12.3l-8.7-15.1 12.6-8s-14 2.3-18.1 1.7c-12.7-2-36.1-2.5-40.7-16.5s-5.2 18.8-5.2 18.8-10.6 12.1-6.4 22.9c3.7 9.5 5 13.6 7 26.7.1 1.8-.2 4.5 1.6 2.9z"/><path id="Path_11_" class="st5" d="M95.7 215c-1.4-.4-13.2 2.5-26.2 5.2-2.1.4-6.6-13.9-7.5-12.3-2.3 4.2 5.4 25.3-15.4 13.4-13.8-7.9-8.9-39.7-8.9-39.7L29 196.8l-13.3-6.9s9.1 11 10.6 14.8c4.6 12 16 32.5 6.2 43.5s18.9-4.9 18.9-4.9 15.8 3.1 23-6c6.4-7.9 9.3-11.1 19.6-19.4 1.5-1.1 4-2.2 1.7-2.9z"/></g></g></g></svg>