<?xml version="1.0" encoding="utf-8"?>
<!-- Generator: Adobe Illustrator 25.0.0, SVG Export Plug-In . SVG Version: 6.00 Build 0)  -->
<svg version="1.1" id="Layer_1" xmlns="http://www.w3.org/2000/svg" xmlns:xlink="http://www.w3.org/1999/xlink" x="0px" y="0px"
	 viewBox="0 0 512 512" style="enable-background:new 0 0 512 512;" xml:space="preserve">
<style type="text/css">
	.st0{fill-rule:evenodd;clip-rule:evenodd;fill:#82AFFF;}
	.st1{fill:#FFFFFF;}
</style>
<g id="Page-1">
	<g id="aq">
		<path id="Rectangle" class="st0" d="M10,88h492c5.5,0,10,4.5,10,10v316c0,5.5-4.5,10-10,10H10c-5.5,0-10-4.5-10-10V98
			C0,92.5,4.5,88,10,88z"/>
		<polygon id="Path" class="st1" points="82.6,169 144.5,212.4 181.7,202.7 197.5,147 239.5,122.2 302.8,131.9 375.1,169.7 
			379.2,231.6 402.6,239.9 402.6,303.2 357.8,382.4 304.2,398.9 254.6,387.2 267,366.5 261.5,344.5 254.6,350.7 143.1,333.5 
			109.4,275 123.2,243.3 89.5,200.7 		"/>
	</g>
</g>
</svg>
