<svg version="1.1" id="Layer_1" xmlns="http://www.w3.org/2000/svg" x="0" y="0" viewBox="0 0 512 512" xml:space="preserve"><style>.st3{fill:#ffe15a}</style><g id="Page-1"><g id="aw"><path id="Rectangle" d="M10 88h492c5.5 0 10 4.5 10 10v316c0 5.5-4.5 10-10 10H10c-5.5 0-10-4.5-10-10V98c0-5.5 4.5-10 10-10z" fill="#82afff"/><g id="Group" transform="translate(19.747 23.978)"><path id="Path" fill="#fff" d="M60.7 200.7L1 174.3l59.7-26.2 26.2-59.5 26.2 59.5 59.7 26.2-59.7 26.4-26.2 59.5z"/><path id="Path_1_" fill="#ff4b55" d="M86.9 121.3l16.2 36.8 36.8 16.2-36.8 16.2-16.2 36.9-16.2-36.9-36.8-16.2 36.8-16.2z"/></g><g id="Group_1_" transform="translate(0 214.391)"><path id="Rectangle_1_" class="st3" d="M0 88.3h512v22.1H0z"/><path id="Rectangle_2_" class="st3" d="M0 132.6h512v22.1H0z"/></g></g></g></svg>