<svg xmlns="http://www.w3.org/2000/svg" viewBox="0 0 512 512" enable-background="new 0 0 512 512"><defs><filter id="a" filterUnits="userSpaceOnUse" x="0" y="88" width="512" height="335.3"><feColorMatrix values="1 0 0 0 0 0 1 0 0 0 0 0 1 0 0 0 0 0 1 0"/></filter></defs><mask maskUnits="userSpaceOnUse" x="0" y="88" width="512" height="335.3" id="b"><g filter="url(#a)"><path d="M10 88h492c5.5 0 10 4.5 10 10v316c0 5.5-4.5 10-10 10H10c-5.5 0-10-4.5-10-10V98c0-5.5 4.5-10 10-10z" fill-rule="evenodd" clip-rule="evenodd" fill="#fff"/></g></mask><g mask="url(#b)"><path fill="#fff" d="M0 88h512v335.3H0z"/><path fill="#41479b" d="M0 423.3h512V88z"/><path fill="#ffe15a" d="M250.4 88H0v164z"/><path fill="#ff4b55" d="M138.7 205l12.2 21.2h24.5l-12.3 21.1 12.3 21.2h-24.5l-12.2 21.2-12.2-21.2H102l12.3-21.2-12.3-21.1h24.5z"/><path d="M138.9 185c34.2 0 61.9 27.7 61.9 61.9s-27.7 61.9-61.9 61.9S77 281.2 77 246.9s27.7-61.9 61.9-61.9zm-.5 8c-29.5 0-53.4 23.9-53.4 53.4s23.9 53.4 53.4 53.4 53.4-23.9 53.4-53.4S168 193 138.4 193z" fill-rule="evenodd" clip-rule="evenodd" fill="#464655"/></g></svg>