<svg xmlns="http://www.w3.org/2000/svg" viewBox="0 0 512.001 512.001"><path d="M503.172 423.721H8.828A8.829 8.829 0 010 414.893v-75.034h512v75.034a8.827 8.827 0 01-8.828 8.828z" fill="#ffe15a"/><path fill="#73af00" d="M0 255.997h512v83.86H0z"/><path fill="#f5f5f5" d="M0 172.137h512v83.86H0z"/><path d="M512 172.135H0V97.101a8.829 8.829 0 018.828-8.828h494.345a8.829 8.829 0 018.828 8.828L512 172.135z" fill="#41479b"/><path fill="#ff4b55" d="M214.07 88.277h83.86v335.45h-83.86z"/><path d="M76.5 99.571l7.366 22.087 23.282.181c1.804.014 2.551 2.316 1.1 3.388l-18.73 13.83 7.022 22.198c.544 1.719-1.414 3.143-2.881 2.093L74.718 149.81l-18.941 13.538c-1.468 1.049-3.425-.374-2.881-2.093l7.022-22.198-18.727-13.83c-1.451-1.071-.703-3.373 1.1-3.388l23.282-.181 7.366-22.087c.57-1.711 2.99-1.711 3.561 0z" fill="#ffe15a"/></svg>