<svg xmlns="http://www.w3.org/2000/svg" viewBox="0 0 512.001 512.001"><g fill="#41479b"><path d="M512 155.366H0V97.104a8.829 8.829 0 018.828-8.828h494.345a8.829 8.829 0 018.828 8.828L512 155.366zM503.172 423.724H8.828A8.829 8.829 0 010 414.896v-58.262h512v58.262a8.828 8.828 0 01-8.828 8.828z"/></g><path fill="#f5f5f5" d="M0 155.37h512v67.09H0z"/><path fill="#41479b" d="M0 222.46h512v67.09H0z"/><path fill="#f5f5f5" d="M0 289.55h512v67.09H0z"/><path d="M3.31 421.628l255.402-161.754c2.841-1.8 2.841-5.945 0-7.745L3.31 90.373C1.335 91.992 0 94.351 0 97.104v317.792c0 2.753 1.336 5.112 3.31 6.732z" fill="#ff4b55"/><path d="M88.526 213.441l9.064 27.176 28.647.222c2.219.018 3.139 2.849 1.354 4.168l-23.045 17.018 8.641 27.313c.67 2.116-1.74 3.866-3.545 2.575l-23.306-16.658-23.306 16.659c-1.805 1.291-4.215-.46-3.545-2.575l8.641-27.312-23.046-17.018c-1.785-1.319-.865-4.151 1.354-4.168l28.647-.222 9.064-27.176c.701-2.107 3.679-2.107 4.381-.002z" fill="#f5f5f5"/></svg>