<svg version="1.1" id="Layer_1" xmlns="http://www.w3.org/2000/svg" x="0" y="0" viewBox="0 0 512 512" xml:space="preserve"><style>.st2{fill:#fff}</style><g id="Page-1"><g id="cw"><path id="Rectangle" d="M10 88h492c5.5 0 10 4.5 10 10v316c0 5.5-4.5 10-10 10H10c-5.5 0-10-4.5-10-10V98c0-5.5 4.5-10 10-10z" fill="#41479b"/><path id="Rectangle_1_" fill="#ffe15a" d="M0 321.5h512v51H0z"/><g id="Group" transform="translate(52 32)"><path id="Path" class="st2" d="M116.7 142.5l12.9 39.8h41.8l-33.8 24.5 12.9 39.7-33.8-24.5-33.8 24.5 12.9-39.7L62 182.3h41.8z"/><path id="Path_1_" class="st2" d="M33.4 88.5l7.8 23.9h25l-20.3 14.7 7.8 23.8-20.3-14.7-20.3 14.7 7.8-23.8L.6 112.4h25.1z"/></g></g></g></svg>