<?xml version="1.0" encoding="utf-8"?>
<!-- Generator: Adobe Illustrator 25.0.0, SVG Export Plug-In . SVG Version: 6.00 Build 0)  -->
<svg version="1.1" id="Layer_1" xmlns="http://www.w3.org/2000/svg" xmlns:xlink="http://www.w3.org/1999/xlink" x="0px" y="0px"
	 viewBox="0 0 512 512" style="enable-background:new 0 0 512 512;" xml:space="preserve">
<style type="text/css">
	.st0{fill:#41479B;}
	.st1{fill:#FFE15A;}
	.st2{fill:#FFFFFF;}
</style>
<g id="Page-1">
	<g id="cw">
		<path id="Rectangle" class="st0" d="M10,88h492c5.5,0,10,4.5,10,10v316c0,5.5-4.5,10-10,10H10c-5.5,0-10-4.5-10-10V98
			C0,92.5,4.5,88,10,88z"/>
		<rect id="Rectangle_1_" y="321.5" class="st1" width="512" height="51"/>
		<g id="Group" transform="translate(52.000000, 32.000000)">
			<polygon id="Path" class="st2" points="116.7,142.5 129.6,182.3 171.4,182.3 137.6,206.8 150.5,246.5 116.7,222 82.9,246.5 
				95.8,206.8 62,182.3 103.8,182.3 			"/>
			<polygon id="Path_1_" class="st2" points="33.4,88.5 41.2,112.4 66.2,112.4 45.9,127.1 53.7,150.9 33.4,136.2 13.1,150.9 
				20.9,127.1 0.6,112.4 25.7,112.4 			"/>
		</g>
	</g>
</g>
</svg>
