<svg xmlns="http://www.w3.org/2000/svg" viewBox="0 0 512.001 512.001"><path d="M8.828 88.276h494.345a8.829 8.829 0 018.828 8.828v317.792a8.829 8.829 0 01-8.828 8.828H8.828A8.829 8.829 0 010 414.896V97.104a8.829 8.829 0 018.828-8.828z" fill="#41479b"/><path d="M508.743 421.591L3.256 90.41c1.53-1.274 3.425-2.134 5.571-2.134h494.345A8.829 8.829 0 01512 97.104v317.792c0 2.729-1.311 5.076-3.257 6.695z" fill="#73af00"/><circle cx="256" cy="256" r="52.965" fill="#ffe15a"/><g fill="#f5f5f5"><path d="M38.615 256.597l3.064 7.761 7.978-2.443a.511.511 0 01.593.744l-4.158 7.234 6.884 4.714a.511.511 0 01-.212.927l-8.248 1.26.607 8.321a.511.511 0 01-.856.413l-6.127-5.663-6.127 5.663a.51.51 0 01-.856-.413l.607-8.321-8.248-1.26a.511.511 0 01-.212-.927l6.884-4.714-4.158-7.234a.512.512 0 01.593-.744l7.978 2.443 3.064-7.761a.511.511 0 01.95 0zM150.192 235.677l3.064 7.761 7.978-2.443a.511.511 0 01.593.744l-4.158 7.234 6.884 4.714a.511.511 0 01-.212.927l-8.248 1.26.607 8.321a.511.511 0 01-.856.413l-6.127-5.663-6.127 5.663a.51.51 0 01-.856-.413l.607-8.321-8.248-1.26a.511.511 0 01-.212-.927l6.884-4.714-4.158-7.234a.512.512 0 01.593-.744l7.978 2.443 3.064-7.761a.51.51 0 01.95 0zM94.403 185.366l3.064 7.761 7.978-2.443a.511.511 0 01.593.744l-4.158 7.234 6.884 4.714a.511.511 0 01-.212.927l-8.248 1.26.607 8.321a.511.511 0 01-.856.413l-6.127-5.663-6.127 5.663a.51.51 0 01-.856-.413l.607-8.321-8.248-1.26a.511.511 0 01-.212-.927l6.884-4.714-4.158-7.234a.512.512 0 01.593-.744l7.978 2.443 3.064-7.761a.51.51 0 01.95 0zM94.403 368.175l3.064 7.761 7.978-2.443a.511.511 0 01.593.744l-4.158 7.234 6.884 4.714a.511.511 0 01-.212.927l-8.248 1.26.607 8.321a.511.511 0 01-.856.413l-6.127-5.663-6.127 5.663a.51.51 0 01-.856-.413l.607-8.321-8.248-1.26a.511.511 0 01-.212-.927l6.884-4.714-4.158-7.234a.512.512 0 01.593-.744l7.978 2.443 3.064-7.761a.51.51 0 01.95 0zM117.239 263.62l2.138 6.413 6.761.052c.524.004.74.672.32.983l-5.439 4.017 2.039 6.445c.158.5-.41.913-.836.608l-5.5-3.932-5.5 3.932a.545.545 0 01-.836-.608l2.039-6.445-5.439-4.017a.545.545 0 01.32-.983l6.761-.052 2.138-6.413a.545.545 0 011.034 0z"/></g><path d="M224.574 233.216c-2.166-.505-4.343 5.067-1.93 6.997s6.756 5.549 4.102 7.721c-2.654 2.172-3.619 2.413-4.102 5.067-.482 2.654 0 3.137-2.172 4.343s-7.239 3.619-5.067 6.033 5.067.966 6.997-2.895c0 0 13.512-.482 13.995.482.482.966 1.689 4.585 4.585 3.619l2.895-.966s1.689-.724 2.895.724 4.102 1.93 7.48 1.93 6.273 1.93 6.033 6.515c-.154 2.937-.904 9.043-1.421 13.052a4.02 4.02 0 003.33 4.478l6.178 1.03a2.82 2.82 0 003.281-2.53c.29-3.3.711-8.137.697-8.308-.139-1.735 3.378-10.616 3.137-14.719l-.242-4.102s3.619-.482 5.067-2.895 4.585-8.445 10.858-10.616l1.689-4.102s-4.825-2.172-3.861-3.619c.966-1.448 1.448-5.309.724-8.445s-.966-7.48-.966-7.48-1.72-.727-2.083.273-.727 1.544-1.635 1.363c-.908-.182-2.271-.273-2.634-1.09-.363-.818-1.363-1.635-2.271-1.181-.908.455-2.453 6.54-4.632 7.176 0 0-.182-2.634-1.544-2.089s-1.272 1.816-1.453 4.087-15.443 17.622-28.796 13.535c0 0-1.453-2.906-4.451-2.634-2.998.273-5.905.182-7.63-1.908-1.727-2.09-4.476-8.243-7.053-8.846z" fill="#73af00"/><path d="M322.836 258.457c4.024 4.276 48.239 16.317 92.932-7.094s71.295-30.149 71.295-30.149.354-6.03 5.853-6.916c5.497-.887 2.838-3.192 1.419-4.965s-8.335-6.562-17.736-2.483c0 0-10.936.414-12.591-14.72s-2.365-30.505-6.148-37.125c-3.784-6.621-34.997-39.726-38.781-37.125s9.459 35.47 21.756 47.058c0 0 2.838 20.337-.71 21.282-3.548.946-23.173-17.026-58.171-21.282 0 0 14.898 20.337 33.106 28.85 18.208 8.513 23.173 16.317 22.701 19.627-.473 3.31-6.621 19.154-16.789 26.485-10.168 7.33-35.706 27.193-93.642 16.789-.001-.005-6.385-.241-4.494 1.768z" fill="#ffe15a"/></svg>