<svg xmlns="http://www.w3.org/2000/svg" viewBox="0 0 512 512"><path d="M10 88h492c5.5 0 10 4.5 10 10v316c0 5.5-4.5 10-10 10H10c-5.5 0-10-4.5-10-10V98c0-5.5 4.5-10 10-10z" fill="#fff"/><path d="M371.5 356.9l-11.1-15c-22.4 16.1-67.7 35.8-104.3 35.8-35.8 0-79.6-17.1-104.3-35.8l-11.1 15c10 10.3 46.9 27 88.4 38.4-3.9 6-1.6 6.1 2.6 10.8 8.5-6.6 17.4-1.5 24.9-7.3 7.5 5.8 16.3.7 24.9 7.3 5.4-5.6 5.4-5.6 2.5-11.1 41-11.7 77-27.6 87.5-38.1z" fill="#73af00"/><path d="M113.7 249.7s.2 79.9 89 77.8L208 344h10.6s-8.9-49 71.7-49.4c0 0 0-32.9 32.9-32.9h49.4S294 200 442.8 121.1l2.2-15.6s-154.8 84.6-237 68.1c0 0 12.7 50.7-12.9 50.7-12.8 0-11.6-9.6-38.4-9.6-22.3 0-20.6 23.5-31.3 23.2-10.7-.3-22.4-14.6-23.4-12.1s11.7 23.9 11.7 23.9z" fill="#ffb100"/></svg>