<?xml version="1.0" encoding="utf-8"?>
<!-- Generator: Adobe Illustrator 25.0.0, SVG Export Plug-In . SVG Version: 6.00 Build 0)  -->
<svg version="1.1" id="Layer_1" xmlns="http://www.w3.org/2000/svg" xmlns:xlink="http://www.w3.org/1999/xlink" x="0px" y="0px"
	 viewBox="0 0 512 512" style="enable-background:new 0 0 512 512;" xml:space="preserve">
<style type="text/css">
	.st0{fill:#FFFFFF;}
	.st1{fill:#73AF00;}
	.st2{fill:#FFB100;}
</style>
<g id="Page-1">
	<g id="cy">
		<path id="Rectangle" class="st0" d="M10,88h492c5.5,0,10,4.5,10,10v316c0,5.5-4.5,10-10,10H10c-5.5,0-10-4.5-10-10V98
			C0,92.5,4.5,88,10,88z"/>
		<path id="Path" class="st1" d="M371.5,356.9l-11.1-15c-22.4,16.1-67.7,35.8-104.3,35.8c-35.8,0-79.6-17.1-104.3-35.8l-11.1,15
			c10,10.3,46.9,27,88.4,38.4c-3.9,6-1.6,6.1,2.6,10.8c8.5-6.6,17.4-1.5,24.9-7.3c7.5,5.8,16.3,0.7,24.9,7.3
			c5.4-5.6,5.4-5.6,2.5-11.1C325,383.3,361,367.4,371.5,356.9z"/>
		<path id="Path_1_" class="st2" d="M113.7,249.7c0,0,0.2,79.9,89,77.8L208,344h10.6c0,0-8.9-49,71.7-49.4c0,0,0-32.9,32.9-32.9
			s49.4,0,49.4,0S294,200,442.8,121.1l2.2-15.6c0,0-154.8,84.6-237,68.1c0,0,12.7,50.7-12.9,50.7c-12.8,0-11.6-9.6-38.4-9.6
			c-22.3,0-20.6,23.5-31.3,23.2c-10.7-0.3-22.4-14.6-23.4-12.1S113.7,249.7,113.7,249.7z"/>
	</g>
</g>
</svg>
