<svg version="1.1" id="Layer_1" xmlns="http://www.w3.org/2000/svg" x="0" y="0" viewBox="0 0 512 512" xml:space="preserve" enable-background="new 0 0 512 512"><style>.st6{fill:#ff4b55}</style><g id="Page-1"><g id="eh"><defs><filter id="Adobe_OpacityMaskFilter" filterUnits="userSpaceOnUse" x="0" y="88" width="512" height="335.4"><feColorMatrix values="1 0 0 0 0 0 1 0 0 0 0 0 1 0 0 0 0 0 1 0"/></filter></defs><mask maskUnits="userSpaceOnUse" x="0" y="88" width="512" height="335.4" id="mask-2_1_"><g filter="url(#Adobe_OpacityMaskFilter)"><path id="path-1_1_" d="M10 88h492c5.5 0 10 4.5 10 10v316c0 5.5-4.5 10-10 10H10c-5.5 0-10-4.5-10-10V98c0-5.5 4.5-10 10-10z" fill-rule="evenodd" clip-rule="evenodd" fill="#fff"/></g></mask><g mask="url(#mask-2_1_)"><path id="Rectangle" fill="#fff" d="M0 88h512v335.3H0z"/><path id="Rectangle_1_" fill="#464655" d="M0 88h512v111.8H0z"/><path id="Rectangle_2_" fill="#73af00" d="M0 311.6h512v111.8H0z"/><path id="Path" class="st6" d="M256 255.7L0 423.3V88z"/><g id="Group" transform="translate(286 120)"><path id="Path_1_" class="st6" d="M23.6 135.9c0-22.9 13.1-42.1 34.6-46.8-3.3-.7-6.7-1.1-10.3-1.1C21.5 88 0 109.4 0 135.9s21.4 47.9 47.9 47.9c3.5 0 7-.4 10.3-1.1-21.5-4.8-34.6-23.9-34.6-46.8z"/><path id="Path_2_" class="st6" d="M78.7 95L89 126.7h33.3l-27 19.6 10.3 31.7-26.9-19.6-27 19.6L62 146.3l-27-19.6h33.4z"/></g></g></g></g></svg>