<svg version="1.1" id="Layer_1" xmlns="http://www.w3.org/2000/svg" x="0" y="0" viewBox="0 0 512 512" xml:space="preserve"><style>.st2{fill:#ff4b55}.st4{fill:#fff}</style><g id="Page-1"><g id="fk"><path id="Path" d="M503.2 423.7H8.8c-4.9 0-8.8-4-8.8-8.8V97.1c0-4.9 4-8.8 8.8-8.8h494.3c4.9 0 8.8 4 8.8 8.8v317.8c.1 4.9-3.9 8.8-8.7 8.8z" fill="#41479b"/><g id="union-flag"><path id="Path_1_" d="M247.2 88.3h-15.3l-81.8 53.6V88.3H106v53.6L24.2 88.3H8.8c-4.9 0-8.8 4-8.8 8.8v7l70.2 46H0v44.1h70.2L0 240.2v7c0 4.9 4 8.8 8.8 8.8h15.3l81.8-53.6V256H150v-53.6l81.8 53.6h15.3c4.9 0 8.8-4 8.8-8.8v-7l-70.2-46H256v-44.1h-70.2l70.2-46v-7c0-4.9-4-8.8-8.8-8.8z" fill="#f5f5f5"/><path id="Path_2_" class="st2" d="M256 158.9H141.2V88.3h-26.4v70.6H0v26.5h114.8V256h26.4v-70.6H256z"/><path id="Path_3_" class="st2" d="M97.1 150.1L4.2 89.8C1.7 91.3 0 94 0 97.1v.5l80.9 52.5h16.2z"/><path id="Path_4_" class="st2" d="M166.3 150.1l88.4-57.4c-1.5-2.6-4.2-4.4-7.5-4.4h-1.9l-95.2 61.8h16.2z"/><path id="Path_5_" class="st2" d="M89.5 194.2L1.3 251.5c1.5 2.7 4.3 4.5 7.6 4.5h1.7l95.2-61.8H89.5z"/><path id="Path_6_" class="st2" d="M255.9 247.9l-82.7-53.7H157l93.9 60.9c2.8-1.3 4.7-4 5-7.2z"/></g><g id="shield" transform="translate(312 82)"><path id="Path_7_" d="M1.2 194.2v-90c0-8.5 6.5-15.3 15-15.3h120.5c8.3 0 15 6.8 15 15.3v90c0 75.2-75.2 105.3-75.2 105.3S1.2 269.4 1.2 194.2z" fill="#82afff"/><path id="Shape" class="st4" d="M.2 194.2v-90c0-8.5 6.5-15.3 15-15.3h120.5c8.3 0 15 6.8 15 15.3v90c0 75.2-75.2 105.3-75.2 105.3S.2 269.4.2 194.2zm79.6 86.3c7.9-4.5 15.9-10 23.2-16.7 20.5-18.5 32.6-41.4 32.6-69.7v-90c0-.3-120.4-.3-120.4-.3v90.3c0 28.3 12.1 51.2 32.6 69.7 8.3 7.5 17.6 13.9 27.6 19 1.4-.6 2.8-1.4 4.4-2.3z"/><path id="Path_8_" d="M35.1 198.4c-2.6-7.9 1.7-14.3 10.1-14.3h60.5c8.2 0 12.8 6.3 10.1 14.3l-5.5 16.5c-2.6 7.9-8.9 9.2-15.8 4 0 0 2.6-6.8-19.1-6.8s-19.1 6.8-19.1 6.8c-6.1 5.7-13.1 4-15.8-4 .1.1-5.4-16.5-5.4-16.5z" fill="#73af00"/><path id="Path_9_" class="st4" d="M45.4 184.1c8.1 1.6 17.8-15 30.1-15 13.1 0 21.8 17.1 30.1 15 7.4-1.8 15-22.2 15-30.1 0-16.6-20.2-30.1-45.1-30.1S30.4 137.4 30.4 154c-.1 8.5 6.6 28.5 15 30.1z"/><path id="Shape_1_" class="st4" d="M44 275.7c6.2.4 12.5-1.8 17.2-6.5l9-9c2.9-2.9 7.5-2.9 10.4 0l9 9c4.7 4.7 11 6.9 17.1 6.5 5.3-.3 32.5-33.5 25.7-32.6-4.6.6-9.1 2.8-12.7 6.3l-.1.1-9 9c-2.9 2.9-7.5 2.9-10.4 0l-9-9c-8.7-8.8-22.9-8.8-31.7-.1l-.1.1-9 9c-2.9 2.9-7.5 2.9-10.4 0l-9-9c-3.5-3.5-7.8-5.6-12.3-6.3-6.7-1.1 20.1 32.2 25.3 32.5zM10.1 215c2.9-2.9 7.5-2.9 10.4 0l9 9c8.8 8.7 22.9 8.7 31.7 0l9-9c2.9-2.9 7.5-2.9 10.4 0l9 9c8.8 8.7 22.9 8.7 31.7 0l9-9c2.9-2.9 7.5-2.9 10.4 0 0 0 5.5-14.8 2.5-15.9-7.9-2.9-17.2-1.2-23.5 5.2l-.1.1-9 9c-2.9 2.9-7.5 2.9-10.4 0l-9-9c-8.7-8.8-22.9-8.8-31.7-.1l-.1.1-9 9c-2.9 2.9-7.5 2.9-10.4 0l-9-9c-6.2-6.2-15.1-8-22.8-5.5-3.1 1.1 1.9 16.1 1.9 16.1z"/></g></g></g></svg>