<svg xmlns="http://www.w3.org/2000/svg" viewBox="0 0 512.001 512.001"><path d="M503.172 423.725H8.828A8.829 8.829 0 010 414.897V97.104a8.829 8.829 0 018.828-8.828h494.345a8.829 8.829 0 018.828 8.828v317.793a8.83 8.83 0 01-8.829 8.828z" fill="#f5f5f5"/><g fill="#ff4b55"><path d="M512 229.518H282.483V88.277h-52.966v141.241H0v52.966h229.517v141.241h52.966V282.484H512z"/><path d="M150.069 146.834c-8.744.879-17.31 1.76-25.888 2.642.882-8.579 1.762-17.145 2.643-25.888a93.961 93.961 0 01-24.129 0c.879 8.743 1.76 17.31 2.643 25.888-8.579-.881-17.146-1.762-25.888-2.642a93.954 93.954 0 010 24.128c8.744-.879 17.31-1.76 25.888-2.642-.882 8.579-1.763 17.145-2.643 25.888a93.961 93.961 0 0124.129 0c-.879-8.743-1.761-17.31-2.643-25.888 8.579.881 17.145 1.762 25.888 2.642a94.044 94.044 0 010-24.128zM432.552 146.834c-8.744.879-17.31 1.76-25.888 2.642.882-8.579 1.762-17.145 2.643-25.888a93.961 93.961 0 01-24.129 0c.879 8.743 1.76 17.31 2.643 25.888-8.579-.881-17.146-1.762-25.888-2.642a93.954 93.954 0 010 24.128c8.744-.879 17.31-1.76 25.888-2.642-.882 8.579-1.763 17.145-2.643 25.888a93.961 93.961 0 0124.129 0c-.879-8.743-1.761-17.31-2.643-25.888 8.579.881 17.145 1.762 25.888 2.642a94.044 94.044 0 010-24.128zM150.069 341.04c-8.744.879-17.31 1.76-25.888 2.642.882-8.579 1.762-17.145 2.643-25.888a93.961 93.961 0 01-24.129 0c.879 8.743 1.76 17.31 2.643 25.888-8.579-.881-17.146-1.762-25.888-2.642a93.954 93.954 0 010 24.128c8.744-.879 17.31-1.76 25.888-2.642-.882 8.579-1.763 17.145-2.643 25.888a93.961 93.961 0 0124.129 0c-.879-8.743-1.761-17.31-2.643-25.888 8.579.881 17.145 1.762 25.888 2.642a94.044 94.044 0 010-24.128zM432.552 341.04c-8.744.879-17.31 1.76-25.888 2.642.882-8.579 1.762-17.145 2.643-25.888a93.961 93.961 0 01-24.129 0c.879 8.743 1.76 17.31 2.643 25.888-8.579-.881-17.146-1.762-25.888-2.642a93.954 93.954 0 010 24.128c8.744-.879 17.31-1.76 25.888-2.642-.882 8.579-1.763 17.145-2.643 25.888a93.961 93.961 0 0124.129 0c-.879-8.743-1.761-17.31-2.643-25.888 8.579.881 17.145 1.762 25.888 2.642a94.044 94.044 0 010-24.128z"/></g></svg>