<svg xmlns="http://www.w3.org/2000/svg" viewBox="0 0 512 512" enable-background="new 0 0 512 512"><defs><filter id="a" filterUnits="userSpaceOnUse" x="0" y="88" width="512" height="335.3"><feColorMatrix values="1 0 0 0 0 0 1 0 0 0 0 0 1 0 0 0 0 0 1 0"/></filter></defs><mask maskUnits="userSpaceOnUse" x="0" y="88" width="512" height="335.3" id="b"><g filter="url(#a)"><path d="M10 88h492c5.5 0 10 4.5 10 10v316c0 5.5-4.5 10-10 10H10c-5.5 0-10-4.5-10-10V98c0-5.5 4.5-10 10-10z" fill-rule="evenodd" clip-rule="evenodd" fill="#fff"/></g></mask><g mask="url(#b)"><path fill="#ffe15a" d="M0 88l512 335.3H0z"/><path fill="#73af00" d="M512 88v335.3L0 88z"/><path fill-rule="evenodd" clip-rule="evenodd" fill="#ff4b55" d="M289.8 224.1l-31.9-98.4-31.8 98.4H122.5l83.6 60.9-31.8 99 83.6-60.9 83.6 60.9-31.8-99 83.6-60.9z"/><path d="M257.9 116.4L224 221.3H113.8l89 64.8-33.9 105.3 89-64.8 89 64.8L313 286.1l89-64.8H291.8l-33.9-104.9zm-48.4 167.5L131.3 227h96.9l29.8-92 29.8 92h96.9l-78.2 56.9 29.8 92.6-78.2-56.9-78.3 56.9 29.7-92.6z" fill-rule="evenodd" clip-rule="evenodd" fill="#c8414b"/></g></svg>