<svg version="1.1" id="Layer_1" xmlns="http://www.w3.org/2000/svg" x="0" y="0" viewBox="0 0 512 512" xml:space="preserve"><style>.st2{fill:#ff4b55}.st3{fill:#fff}.st4{fill:#ffce00}</style><path d="M503.2 423.7H8.8c-4.9 0-8.8-4-8.8-8.8V97.1c0-4.9 4-8.8 8.8-8.8h494.3c4.9 0 8.8 4 8.8 8.8v317.8c.1 4.9-3.9 8.8-8.7 8.8z" fill="#41479b"/><path d="M247.2 88.3h-15.3l-81.8 53.6V88.3H106v53.6L24.2 88.3H8.8c-4.9 0-8.8 4-8.8 8.8v7l70.2 46H0v44.1h70.2L0 240.2v7c0 4.9 4 8.8 8.8 8.8h15.3l81.8-53.6V256H150v-53.6l81.8 53.6h15.3c4.9 0 8.8-4 8.8-8.8v-7l-70.2-46H256v-44.1h-70.2l70.2-46v-7c0-4.9-4-8.8-8.8-8.8z" fill="#f5f5f5"/><path class="st2" d="M256 158.9H141.2V88.3h-26.4v70.6H0v26.5h114.8V256h26.4v-70.6H256z"/><path class="st2" d="M97.1 150.1L4.2 89.8C1.7 91.3 0 94 0 97.1v.5l80.9 52.5h16.2zM166.3 150.1l88.4-57.4c-1.5-2.6-4.2-4.4-7.5-4.4h-1.9l-95.2 61.8h16.2zM89.5 194.2L1.3 251.5c1.5 2.7 4.3 4.5 7.6 4.5h1.7l95.2-61.8H89.5zM255.9 247.9l-82.7-53.7H157l93.9 60.9c2.8-1.3 4.7-4 5-7.2z"/><g><ellipse class="st3" cx="443.4" cy="319" rx="29" ry="43.5"/><ellipse class="st4" cx="406.9" cy="403.1" rx="22" ry="9.3"/><ellipse class="st4" cx="364" cy="403.1" rx="22" ry="9.3"/><path fill="#39b200" d="M342 275.5l43.4 86.9 43.5-86.9z"/><ellipse cx="327.5" cy="319" rx="29" ry="43.5" fill="#9b9b9b"/><path d="M371 261l-14.5 14.5h57.9L399.9 261l14.5-43.5s-13-29-29-29-29 29-29 29L371 261z" fill="#757575"/><circle cx="385.4" cy="152.4" r="29" fill="#c6b56f"/><circle cx="386" cy="174.1" r="29" fill="#a54a00"/><circle class="st3" cx="443.4" cy="203.1" r="29"/><circle cx="342.2" cy="232.1" r="29" fill="#0049ff"/><circle cx="429.8" cy="232.1" r="29" fill="#0041f9"/><circle cx="386" cy="319" r="29" fill="#f7d71e"/><circle cx="457.9" cy="275.5" r="29" fill="#cec851"/><circle class="st3" cx="385.4" cy="374.9" r="29"/><path d="M371 221.1l14.5-3.5 14.5 3.5c0 7.5-14.5 11-14.5 11s-14.5-3.5-14.5-11z" fill="#7c0b29"/><circle class="st3" cx="327.5" cy="202.8" r="29"/></g></svg>