<svg xmlns="http://www.w3.org/2000/svg" viewBox="0 0 512.001 512.001"><path d="M512 256H0V97.103a8.829 8.829 0 018.828-8.828h494.345a8.829 8.829 0 018.828 8.828L512 256z" fill="#ffe15a"/><path d="M0 256h512v158.897a8.829 8.829 0 01-8.828 8.828H8.828A8.829 8.829 0 010 414.897V256z" fill="#73af00"/><path d="M167.724 88.276v335.448H8.828A8.829 8.829 0 010 414.896V97.103a8.829 8.829 0 018.828-8.828h158.896v.001z" fill="#ff4b55"/><path d="M82.197 211.959l-9.731 29.18-30.759.238c-1.686.013-2.386 2.165-1.028 3.167l24.744 18.272-9.278 29.326c-.509 1.608 1.322 2.937 2.694 1.958l25.024-17.886 25.024 17.887c1.372.981 3.202-.35 2.694-1.957l-9.278-29.326 24.744-18.272c1.356-1.002.658-3.154-1.028-3.167l-30.759-.238-9.731-29.18c-.536-1.601-2.798-1.601-3.332-.002z" fill="#464655"/></svg>