<svg xmlns="http://www.w3.org/2000/svg" viewBox="0 0 512 512" enable-background="new 0 0 512 512"><defs><filter id="a" filterUnits="userSpaceOnUse" x="0" y="88" width="512" height="336"><feColorMatrix values="1 0 0 0 0 0 1 0 0 0 0 0 1 0 0 0 0 0 1 0"/></filter></defs><mask maskUnits="userSpaceOnUse" x="0" y="88" width="512" height="336" id="b"><g filter="url(#a)"><path d="M10 88h492c5.5 0 10 4.5 10 10v316c0 5.5-4.5 10-10 10H10c-5.5 0-10-4.5-10-10V98c0-5.5 4.5-10 10-10z" fill-rule="evenodd" clip-rule="evenodd" fill="#fff"/></g></mask><g mask="url(#b)"><path fill="#73af00" d="M0 88h512v336H0z"/><path fill="#fff" d="M0 88l512 168L0 424z"/><path fill="#ffe15a" d="M0 102.6L470.4 256 0 409.4z"/><path fill="#464655" d="M0 88l243.3 168L0 424z"/><path fill="#ff4b55" d="M0 107.6L214.9 256 0 404.4z"/></g></svg>