<svg xmlns="http://www.w3.org/2000/svg" viewBox="0 0 512.001 512.001"><path d="M503.172 423.725H8.828A8.829 8.829 0 010 414.897V97.104a8.829 8.829 0 018.828-8.828h494.345a8.829 8.829 0 018.828 8.828v317.793a8.83 8.83 0 01-8.829 8.828z" fill="#41479b"/><path d="M247.172 88.277h-15.334l-81.77 53.574V88.277H105.93v53.574L24.16 88.277H8.828A8.828 8.828 0 000 97.104v7.002l70.155 45.963H0v44.138h70.155L0 240.171v7.002a8.829 8.829 0 008.828 8.828h15.334l81.77-53.574v53.574h44.138v-53.574l81.769 53.574h15.334a8.829 8.829 0 008.828-8.828v-7.002l-70.155-45.963H256V150.07h-70.155L256 104.107v-7.002a8.828 8.828 0 00-8.828-8.828z" fill="#f5f5f5"/><g fill="#ff4b55"><path d="M256 158.898H141.241V88.277h-26.482v70.621H0v26.482h114.759v70.621h26.482V185.38H256z"/><path d="M97.103 150.07L4.207 89.769C1.735 91.333 0 93.962 0 97.104v.458l80.889 52.508h16.214zM166.283 150.07l88.374-57.366c-1.536-2.599-4.246-4.427-7.485-4.427h-1.909l-95.194 61.793h16.214zM89.474 194.208L1.269 251.464c1.521 2.662 4.273 4.537 7.559 4.537h1.665l95.196-61.793H89.474zM255.86 247.866l-82.666-53.658H156.98l93.874 60.935c2.812-1.305 4.741-4.04 5.006-7.277z"/></g><g fill="#f5f5f5"><path d="M130.671 304.131l6.663 21.997 21.353-8.505c1.822-.726 3.478 1.352 2.366 2.966l-13.044 18.924 19.962 11.391c1.703.972 1.112 3.562-.844 3.699l-22.929 1.601 3.541 22.71c.302 1.938-2.092 3.091-3.418 1.646l-15.548-16.928-15.548 16.928c-1.326 1.444-3.72.291-3.418-1.646l3.541-22.71-22.929-1.601c-1.956-.137-2.547-2.727-.844-3.699l19.962-11.391-13.044-18.924c-1.112-1.614.544-3.692 2.366-2.966l21.353 8.505 6.663-21.997c.571-1.877 3.228-1.877 3.796 0zM393.279 147.73l3.255 10.745 10.43-4.154c.889-.354 1.699.66 1.155 1.449l-6.371 9.245 9.751 5.565c.832.474.543 1.74-.413 1.806l-11.2.782 1.729 11.093c.148.947-1.022 1.51-1.67.804l-7.595-8.269-7.595 8.269c-.648.705-1.817.142-1.67-.804l1.729-11.093-11.2-.782c-.956-.066-1.245-1.332-.413-1.806l9.751-5.565-6.371-9.245c-.544-.789.266-1.803 1.155-1.449l10.43 4.154 3.255-10.745c.282-.917 1.581-.917 1.858 0zM320.702 230.206l3.255 10.745 10.43-4.154c.889-.354 1.699.66 1.155 1.449l-6.371 9.245 9.751 5.565c.832.474.543 1.74-.413 1.806l-11.2.782 1.729 11.093c.148.947-1.022 1.51-1.67.804l-7.595-8.269-7.595 8.269c-.648.705-1.817.142-1.67-.804l1.729-11.093-11.2-.782c-.956-.066-1.245-1.332-.413-1.806l9.751-5.565-6.371-9.245c-.544-.789.266-1.803 1.155-1.449l10.43 4.154 3.255-10.745c.282-.917 1.58-.917 1.858 0zM461.943 194.895l3.255 10.745 10.43-4.154c.889-.354 1.699.66 1.155 1.449l-6.371 9.245 9.751 5.565c.832.474.543 1.74-.413 1.806l-11.2.782 1.729 11.093c.148.947-1.022 1.51-1.669.804l-7.595-8.269-7.595 8.269c-.648.705-1.817.142-1.67-.804l1.729-11.093-11.2-.782c-.956-.066-1.245-1.332-.413-1.806l9.751-5.565-6.371-9.245c-.544-.789.266-1.803 1.155-1.449l10.43 4.154 3.255-10.745c.281-.917 1.579-.917 1.857 0zM393.279 336.137l3.255 10.745 10.43-4.155c.889-.354 1.699.66 1.155 1.449l-6.371 9.245 9.751 5.565c.832.474.543 1.74-.413 1.806l-11.2.782 1.729 11.093c.148.947-1.022 1.51-1.67.804l-7.595-8.269-7.595 8.269c-.648.705-1.817.142-1.67-.804l1.729-11.093-11.2-.782c-.956-.066-1.245-1.332-.413-1.806l9.751-5.565-6.371-9.245c-.544-.789.266-1.803 1.155-1.449l10.43 4.155 3.255-10.745c.282-.917 1.581-.917 1.858 0zM418.461 249.514l-2.613 7.836-8.259.064c-1.069.009-1.513 1.373-.652 2.008l6.644 4.907-2.492 7.875c-.322 1.02.839 1.863 1.708 1.241l6.72-4.803 6.72 4.803c.87.622 2.03-.222 1.708-1.241l-2.492-7.875 6.644-4.907c.861-.636.417-1.999-.652-2.008l-8.259-.064-2.613-7.836c-.339-1.015-1.774-1.015-2.112 0z"/></g></svg>