<svg xmlns="http://www.w3.org/2000/svg" viewBox="0 0 512.001 512.001"><path d="M503.172 423.725H8.828A8.829 8.829 0 010 414.897V97.104a8.829 8.829 0 018.828-8.828h494.345a8.829 8.829 0 018.828 8.828v317.793a8.83 8.83 0 01-8.829 8.828z" fill="#41479b"/><path fill="#f5f5f5" d="M0 150.071h512v211.86H0z"/><path d="M301.869 256.001l22.933-39.721h-45.865L256 176.553l-22.936 39.727h-45.865l22.933 39.721-22.933 39.721h45.865L256 335.449l22.936-39.727h45.865l-22.932-39.721zm.433-26.73l-7.933 13.74-7.933-13.74h15.866zm-15.433 26.73l-15.433 26.73h-30.873l-15.432-26.73 15.433-26.73h30.873l15.432 26.73zM256 202.535l7.936 13.746h-15.872L256 202.535zm-46.302 26.736h15.865l-7.933 13.74-7.932-13.74zm0 53.46l7.933-13.74 7.933 13.74h-15.866zM256 309.467l-7.936-13.746h15.872L256 309.467zm38.369-40.476l7.933 13.74h-15.865l7.932-13.74z" fill="#41479b"/></svg>