<svg xmlns="http://www.w3.org/2000/svg" viewBox="0 0 512.001 512.001"><path d="M512 200.092H0V97.104a8.829 8.829 0 018.828-8.828h494.345a8.829 8.829 0 018.828 8.828L512 200.092z" fill="#73af00"/><path d="M503.172 423.725H8.828A8.829 8.829 0 010 414.897V311.909h512v102.988a8.829 8.829 0 01-8.828 8.828z" fill="#ff4b55"/><g fill="#f5f5f5"><path d="M0 200.088h512v111.81H0zM1.389 194.176h.077c.767 0 1.389-.621 1.389-1.389v-3.008c0-.767.621-1.389 1.389-1.389h5.827c.767 0 1.389.621 1.389 1.389v3.008c0 .767.621 1.389 1.389 1.389h11.502c.767 0 1.389-.621 1.389-1.389v-5.938c0-.767-.621-1.389-1.389-1.389h-5.79c-.767 0-1.389.621-1.389 1.389v.152c0 .767.621 1.389 1.389 1.389h2.935c.767 0 1.389.621 1.389 1.389v.151c0 .767-.621 1.389-1.389 1.389h-5.792a1.389 1.389 0 01-1.389-1.389v-3.081c0-.767-.621-1.389-1.389-1.389H1.389c-.767 0-1.389.621-1.389 1.389v5.938a1.39 1.39 0 001.389 1.389zm5.748 0h.079c.767 0 1.389-.621 1.389-1.389v-.079c0-.767-.621-1.389-1.389-1.389h-.079c-.767 0-1.389.621-1.389 1.389v.079a1.39 1.39 0 001.389 1.389zm-5.748-11.645h34.423c.767 0 1.389-.621 1.389-1.389v-.152c0-.767-.621-1.389-1.389-1.389H1.389c-.767 0-1.389.621-1.389 1.389v.152c0 .768.621 1.389 1.389 1.389zm34.422 11.645h-5.79a1.389 1.389 0 01-1.389-1.389v-5.938c0-.767.621-1.389 1.389-1.389h8.648c.767 0 1.389-.621 1.389-1.389v-3.081c0-.767.621-1.389 1.389-1.389h.077c.767 0 1.389.621 1.389 1.389v8.94c0 .767.621 1.389 1.389 1.389h.079c.767 0 1.389-.621 1.389-1.389v-8.94c0-.767.621-1.389 1.389-1.389h.077c.767 0 1.389.621 1.389 1.389v8.94c0 .767.621 1.389 1.389 1.389h.115c.767 0 1.389-.621 1.389-1.389v-8.94c0-.767.621-1.389 1.389-1.389h.042c.767 0 1.389.621 1.389 1.389v11.797c0 .767-.621 1.389-1.389 1.389H41.447a1.389 1.389 0 01-1.389-1.389v-3.008c0-.767-.621-1.389-1.389-1.389h-5.79c-.767 0-1.389.621-1.389 1.389v.151c0 .767.621 1.389 1.389 1.389h2.933c.767 0 1.389.621 1.389 1.389v.079a1.39 1.39 0 01-1.39 1.389zM58.618 194.176h.115c.767 0 1.389-.621 1.389-1.389v-3.008c0-.767.621-1.389 1.389-1.389h5.754c.767 0 1.389.621 1.389 1.389v3.008c0 .767.621 1.389 1.389 1.389h11.502c.767 0 1.389-.621 1.389-1.389v-5.938c0-.767-.621-1.389-1.389-1.389h-5.79c-.767 0-1.389.621-1.389 1.389v.152c0 .767.621 1.389 1.389 1.389h2.935c.767 0 1.389.621 1.389 1.389v.151c0 .767-.621 1.389-1.389 1.389H72.9a1.389 1.389 0 01-1.389-1.389v-3.081c0-.767-.621-1.389-1.389-1.389H58.618c-.767 0-1.389.621-1.389 1.389v5.938a1.391 1.391 0 001.389 1.389zm5.713 0h.077c.767 0 1.389-.621 1.389-1.389v-.079c0-.767-.621-1.389-1.389-1.389h-.077c-.767 0-1.389.621-1.389 1.389v.079a1.39 1.39 0 001.389 1.389zm-5.713-11.645h34.388c.767 0 1.389-.621 1.389-1.389v-.152c0-.767-.621-1.389-1.389-1.389H58.618c-.767 0-1.389.621-1.389 1.389v.152a1.39 1.39 0 001.389 1.389zm34.388 11.645h-5.827a1.389 1.389 0 01-1.389-1.389v-5.938c0-.767.621-1.389 1.389-1.389h8.648c.767 0 1.389-.621 1.389-1.389v-3.081c0-.767.621-1.389 1.389-1.389h.115c.767 0 1.389.621 1.389 1.389v8.94c0 .767.621 1.389 1.389 1.389h.115c.767 0 1.389-.621 1.389-1.389v-8.94c0-.767.621-1.389 1.389-1.389h.042c.767 0 1.389.621 1.389 1.389v8.94c0 .767.621 1.389 1.389 1.389h.115c.767 0 1.389-.621 1.389-1.389v-8.94c0-.767.621-1.389 1.389-1.389h.077c.767 0 1.389.621 1.389 1.389v11.797c0 .767-.621 1.389-1.389 1.389H98.607a1.389 1.389 0 01-1.389-1.389v-3.008c0-.767-.621-1.389-1.389-1.389h-5.754c-.767 0-1.389.621-1.389 1.389v.151c0 .767.621 1.389 1.389 1.389h2.935c.767 0 1.389.621 1.389 1.389v.079a1.396 1.396 0 01-1.393 1.389zM115.814 194.176h.077c.767 0 1.389-.621 1.389-1.389v-3.008c0-.767.621-1.389 1.389-1.389h5.792c.767 0 1.389.621 1.389 1.389v3.008c0 .767.621 1.389 1.389 1.389h11.538c.767 0 1.389-.621 1.389-1.389v-5.938c0-.767-.621-1.389-1.389-1.389h-5.79c-.767 0-1.389.621-1.389 1.389v.152c0 .767.621 1.389 1.389 1.389h2.935c.767 0 1.389.621 1.389 1.389v.151c0 .767-.621 1.389-1.389 1.389h-5.827a1.389 1.389 0 01-1.389-1.389v-3.081c0-.767-.621-1.389-1.389-1.389h-11.502c-.767 0-1.389.621-1.389 1.389v5.938a1.388 1.388 0 001.388 1.389zm5.712 0h.077c.767 0 1.389-.621 1.389-1.389v-.079c0-.767-.621-1.389-1.389-1.389h-.077c-.767 0-1.389.621-1.389 1.389v.079a1.39 1.39 0 001.389 1.389zm-5.712-11.645h34.424c.767 0 1.389-.621 1.389-1.389v-.152c0-.767-.621-1.389-1.389-1.389h-34.424c-.767 0-1.389.621-1.389 1.389v.152a1.388 1.388 0 001.389 1.389zm34.424 11.645h-5.827a1.389 1.389 0 01-1.389-1.389v-5.938c0-.767.621-1.389 1.389-1.389h8.646c.767 0 1.389-.621 1.389-1.389v-3.081c0-.767.621-1.389 1.389-1.389h.079c.767 0 1.389.621 1.389 1.389v8.94c0 .767.621 1.389 1.389 1.389h.115c.767 0 1.389-.621 1.389-1.389v-8.94c0-.767.621-1.389 1.389-1.389h.115c.767 0 1.389.621 1.389 1.389v8.94c0 .767.621 1.389 1.389 1.389h.042c.767 0 1.389-.621 1.389-1.389v-8.94c0-.767.621-1.389 1.389-1.389h.077c.767 0 1.389.621 1.389 1.389v11.797c0 .767-.621 1.389-1.389 1.389h-11.54a1.389 1.389 0 01-1.389-1.389v-3.008c0-.767-.621-1.389-1.389-1.389h-5.79c-.767 0-1.389.621-1.389 1.389v.151c0 .767.621 1.389 1.389 1.389h2.973c.767 0 1.389.621 1.389 1.389v.079a1.393 1.393 0 01-1.391 1.389zM173.007 194.176h.077c.767 0 1.389-.621 1.389-1.389v-3.008c0-.767.621-1.389 1.389-1.389h5.79c.767 0 1.389.621 1.389 1.389v3.008c0 .767.621 1.389 1.389 1.389h11.54c.767 0 1.389-.621 1.389-1.389v-5.938c0-.767-.621-1.389-1.389-1.389h-5.827c-.767 0-1.389.621-1.389 1.389v.152c0 .767.621 1.389 1.389 1.389h2.935c.767 0 1.389.621 1.389 1.389v.151c0 .767-.621 1.389-1.389 1.389h-5.79a1.389 1.389 0 01-1.389-1.389v-3.081c0-.767-.621-1.389-1.389-1.389h-11.502c-.767 0-1.389.621-1.389 1.389v5.938a1.39 1.39 0 001.388 1.389zm5.713 0h.077c.767 0 1.389-.621 1.389-1.389v-.079c0-.767-.621-1.389-1.389-1.389h-.077c-.767 0-1.389.621-1.389 1.389v.079a1.39 1.39 0 001.389 1.389zm-5.713-11.645h34.388c.767 0 1.389-.621 1.389-1.389v-.152c0-.767-.621-1.389-1.389-1.389h-34.388c-.767 0-1.389.621-1.389 1.389v.152a1.39 1.39 0 001.389 1.389zm34.388 11.645h-5.827a1.389 1.389 0 01-1.389-1.389v-5.938c0-.767.621-1.389 1.389-1.389h8.721c.767 0 1.389-.621 1.389-1.389v-3.081c0-.767.621-1.389 1.389-1.389h.077c.767 0 1.389.621 1.389 1.389v8.94c0 .767.621 1.389 1.389 1.389h.042c.767 0 1.389-.621 1.389-1.389v-8.94c0-.767.621-1.389 1.389-1.389h.115c.767 0 1.389.621 1.389 1.389v8.94c0 .767.621 1.389 1.389 1.389h.079c.767 0 1.389-.621 1.389-1.389v-8.94c0-.767.621-1.389 1.389-1.389h.077c.767 0 1.389.621 1.389 1.389v11.797c0 .767-.621 1.389-1.389 1.389h-11.507a1.389 1.389 0 01-1.389-1.389v-3.008c0-.767-.621-1.389-1.389-1.389h-5.827c-.767 0-1.389.621-1.389 1.389v.151c0 .767.621 1.389 1.389 1.389h2.935c.767 0 1.389.621 1.389 1.389v.079a1.386 1.386 0 01-1.386 1.389zM230.2 194.176h.079c.767 0 1.389-.621 1.389-1.389v-3.008c0-.767.621-1.389 1.389-1.389h5.79c.767 0 1.389.621 1.389 1.389v3.008c0 .767.621 1.389 1.389 1.389h11.54c.767 0 1.389-.621 1.389-1.389v-5.938c0-.767-.621-1.389-1.389-1.389h-5.827c-.767 0-1.389.621-1.389 1.389v.152c0 .767.621 1.389 1.389 1.389h2.97c.767 0 1.389.621 1.389 1.389v.151c0 .767-.621 1.389-1.389 1.389h-5.79a1.389 1.389 0 01-1.389-1.389v-3.081c0-.767-.621-1.389-1.389-1.389H230.2c-.767 0-1.389.621-1.389 1.389v5.938a1.39 1.39 0 001.389 1.389zm5.75 0h.042c.767 0 1.389-.621 1.389-1.389v-.079c0-.767-.621-1.389-1.389-1.389h-.042c-.767 0-1.389.621-1.389 1.389v.079a1.39 1.39 0 001.389 1.389zm-5.75-11.645h34.425c.767 0 1.389-.621 1.389-1.389v-.152c0-.767-.621-1.389-1.389-1.389H230.2c-.767 0-1.389.621-1.389 1.389v.152a1.39 1.39 0 001.389 1.389zm34.426 11.645h-5.827a1.389 1.389 0 01-1.389-1.389v-5.938c0-.767.621-1.389 1.389-1.389h8.684c.767 0 1.389-.621 1.389-1.389v-3.081c0-.767.621-1.389 1.389-1.389h.077c.767 0 1.389.621 1.389 1.389v8.94c0 .767.621 1.389 1.389 1.389h.079c.767 0 1.389-.621 1.389-1.389v-8.94c0-.767.621-1.389 1.389-1.389h.077c.767 0 1.389.621 1.389 1.389v8.94c0 .767.621 1.389 1.389 1.389h.077c.767 0 1.389-.621 1.389-1.389v-8.94c0-.767.621-1.389 1.389-1.389h.079c.767 0 1.389.621 1.389 1.389v11.797c0 .767-.621 1.389-1.389 1.389H270.26a1.389 1.389 0 01-1.389-1.389v-3.008c0-.767-.621-1.389-1.389-1.389h-5.827c-.767 0-1.389.621-1.389 1.389v.151c0 .767.621 1.389 1.389 1.389h2.97c.767 0 1.389.621 1.389 1.389v.079c0 .766-.621 1.389-1.388 1.389zM287.395 194.176h.079c.767 0 1.389-.621 1.389-1.389v-3.008c0-.767.621-1.389 1.389-1.389h5.79c.767 0 1.389.621 1.389 1.389v3.008c0 .767.621 1.389 1.389 1.389h11.54c.767 0 1.389-.621 1.389-1.389v-5.938c0-.767-.621-1.389-1.389-1.389h-5.792c-.767 0-1.389.621-1.389 1.389v.152c0 .767.621 1.389 1.389 1.389h2.899c.767 0 1.389.621 1.389 1.389v.151c0 .767-.621 1.389-1.389 1.389h-5.754a1.389 1.389 0 01-1.389-1.389v-3.081c0-.767-.621-1.389-1.389-1.389h-11.54c-.767 0-1.389.621-1.389 1.389v5.938a1.39 1.39 0 001.389 1.389zm5.749 0h.042c.767 0 1.389-.621 1.389-1.389v-.079c0-.767-.621-1.389-1.389-1.389h-.042c-.767 0-1.389.621-1.389 1.389v.079a1.39 1.39 0 001.389 1.389zm-5.749-11.645h34.424c.767 0 1.389-.621 1.389-1.389v-.152c0-.767-.621-1.389-1.389-1.389h-34.424c-.767 0-1.389.621-1.389 1.389v.152c0 .768.622 1.389 1.389 1.389zm34.425 11.645h-5.79a1.389 1.389 0 01-1.389-1.389v-5.938c0-.767.621-1.389 1.389-1.389h8.646c.767 0 1.389-.621 1.389-1.389v-3.081c0-.767.621-1.389 1.389-1.389h.079c.767 0 1.389.621 1.389 1.389v8.94c0 .767.621 1.389 1.389 1.389h.077c.767 0 1.389-.621 1.389-1.389v-8.94c0-.767.621-1.389 1.389-1.389h.079c.767 0 1.389.621 1.389 1.389v8.94c0 .767.621 1.389 1.389 1.389h.077c.767 0 1.389-.621 1.389-1.389v-8.94c0-.767.621-1.389 1.389-1.389h.079c.767 0 1.389.621 1.389 1.389v11.797c0 .767-.621 1.389-1.389 1.389h-11.505a1.389 1.389 0 01-1.389-1.389v-3.008c0-.767-.621-1.389-1.389-1.389h-5.826c-.767 0-1.389.621-1.389 1.389v.151c0 .767.621 1.389 1.389 1.389h2.97c.767 0 1.389.621 1.389 1.389v.079a1.387 1.387 0 01-1.387 1.389zM344.589 194.176h.079c.767 0 1.389-.621 1.389-1.389v-3.008c0-.767.621-1.389 1.389-1.389h5.826c.767 0 1.389.621 1.389 1.389v3.008c0 .767.621 1.389 1.389 1.389h11.505c.767 0 1.389-.621 1.389-1.389v-5.938c0-.767-.621-1.389-1.389-1.389h-5.792c-.767 0-1.389.621-1.389 1.389v.152c0 .767.621 1.389 1.389 1.389h2.973c.767 0 1.389.621 1.389 1.389v.151c0 .767-.621 1.389-1.389 1.389h-5.865a1.389 1.389 0 01-1.389-1.389v-3.081c0-.767-.621-1.389-1.389-1.389h-11.502c-.767 0-1.389.621-1.389 1.389v5.938a1.387 1.387 0 001.387 1.389zm5.713 0h.115c.767 0 1.389-.621 1.389-1.389v-.079c0-.767-.621-1.389-1.389-1.389h-.115c-.767 0-1.389.621-1.389 1.389v.079a1.39 1.39 0 001.389 1.389zm-5.713-11.645h34.424c.767 0 1.389-.621 1.389-1.389v-.152c0-.767-.621-1.389-1.389-1.389h-34.424c-.767 0-1.389.621-1.389 1.389v.152a1.39 1.39 0 001.389 1.389zm34.426 11.645h-5.79a1.389 1.389 0 01-1.389-1.389v-5.938c0-.767.621-1.389 1.389-1.389h8.646c.767 0 1.389-.621 1.389-1.389v-3.081c0-.767.621-1.389 1.389-1.389h.079c.767 0 1.389.621 1.389 1.389v8.94c0 .767.621 1.389 1.389 1.389h.077c.767 0 1.389-.621 1.389-1.389v-8.94c0-.767.621-1.389 1.389-1.389h.079c.767 0 1.389.621 1.389 1.389v8.94c0 .767.621 1.389 1.389 1.389h.115c.767 0 1.389-.621 1.389-1.389v-8.94c0-.767.621-1.389 1.389-1.389h.04c.767 0 1.389.621 1.389 1.389v11.797c0 .767-.621 1.389-1.389 1.389h-11.502a1.389 1.389 0 01-1.389-1.389v-3.008c0-.767-.621-1.389-1.389-1.389h-5.754c-.767 0-1.389.621-1.389 1.389v.151c0 .767.621 1.389 1.389 1.389h2.899c.767 0 1.389.621 1.389 1.389v.079a1.392 1.392 0 01-1.39 1.389zM401.82 194.176h.042c.767 0 1.389-.621 1.389-1.389v-3.008c0-.767.621-1.389 1.389-1.389h5.792c.767 0 1.389.621 1.389 1.389v3.008c0 .767.621 1.389 1.389 1.389h11.538c.767 0 1.389-.621 1.389-1.389v-5.938c0-.767-.621-1.389-1.389-1.389h-5.752c-.767 0-1.389.621-1.389 1.389v.152c0 .767.621 1.389 1.389 1.389h2.933c.767 0 1.389.621 1.389 1.389v.151c0 .767-.621 1.389-1.389 1.389h-5.826a1.389 1.389 0 01-1.389-1.389v-3.081c0-.767-.621-1.389-1.389-1.389H401.82c-.767 0-1.389.621-1.389 1.389v5.938a1.39 1.39 0 001.389 1.389zm5.712 0h.079c.767 0 1.389-.621 1.389-1.389v-.079c0-.767-.621-1.389-1.389-1.389h-.079c-.767 0-1.389.621-1.389 1.389v.079a1.39 1.39 0 001.389 1.389zm-5.712-11.645h34.462c.767 0 1.389-.621 1.389-1.389v-.152c0-.767-.621-1.389-1.389-1.389H401.82c-.767 0-1.389.621-1.389 1.389v.152a1.388 1.388 0 001.389 1.389zm34.461 11.645h-5.865a1.389 1.389 0 01-1.389-1.389v-5.938c0-.767.621-1.389 1.389-1.389h8.648c.767 0 1.389-.621 1.389-1.389v-3.081c0-.767.621-1.389 1.389-1.389h.115c.767 0 1.389.621 1.389 1.389v8.94c0 .767.621 1.389 1.389 1.389h.077c.767 0 1.389-.621 1.389-1.389v-8.94c0-.767.621-1.389 1.389-1.389h.042c.767 0 1.389.621 1.389 1.389v8.94c0 .767.621 1.389 1.389 1.389h.115c.767 0 1.389-.621 1.389-1.389v-8.94c0-.767.621-1.389 1.389-1.389h.079c.767 0 1.389.621 1.389 1.389v11.797c0 .767-.621 1.389-1.389 1.389h-11.54a1.389 1.389 0 01-1.389-1.389v-3.008c0-.767-.621-1.389-1.389-1.389h-5.79c-.767 0-1.389.621-1.389 1.389v.151c0 .767.621 1.389 1.389 1.389h3.008c.767 0 1.389.621 1.389 1.389v.079a1.39 1.39 0 01-1.39 1.389zM459.013 194.176h.079c.767 0 1.389-.621 1.389-1.389v-3.008c0-.767.621-1.389 1.389-1.389h5.79c.767 0 1.389.621 1.389 1.389v3.008c0 .767.621 1.389 1.389 1.389h11.54c.767 0 1.389-.621 1.389-1.389v-5.938c0-.767-.621-1.389-1.389-1.389h-5.754c-.767 0-1.389.621-1.389 1.389v.152c0 .767.621 1.389 1.389 1.389h2.935c.767 0 1.389.621 1.389 1.389v.151c0 .767-.621 1.389-1.389 1.389h-5.865a1.389 1.389 0 01-1.389-1.389v-3.081c0-.767-.621-1.389-1.389-1.389h-11.502c-.767 0-1.389.621-1.389 1.389v5.938a1.39 1.39 0 001.388 1.389zm5.713 0h.079c.767 0 1.389-.621 1.389-1.389v-.079c0-.767-.621-1.389-1.389-1.389h-.079c-.767 0-1.389.621-1.389 1.389v.079a1.39 1.39 0 001.389 1.389zm-5.713-11.645h34.388c.767 0 1.389-.621 1.389-1.389v-.152c0-.767-.621-1.389-1.389-1.389h-34.388c-.767 0-1.389.621-1.389 1.389v.152a1.39 1.39 0 001.389 1.389zm34.388 11.645h-5.79a1.389 1.389 0 01-1.389-1.389v-5.938c0-.767.621-1.389 1.389-1.389h8.721c.767 0 1.389-.621 1.389-1.389v-3.081c0-.767.621-1.389 1.389-1.389h.004c.767 0 1.389.621 1.389 1.389v8.94c0 .767.621 1.389 1.389 1.389h.152c.767 0 1.389-.621 1.389-1.389v-8.94c0-.767.621-1.389 1.389-1.389h.004c.767 0 1.389.621 1.389 1.389v8.94c0 .767.621 1.389 1.389 1.389h.079c.767 0 1.389-.621 1.389-1.389v-8.94c0-.767.621-1.389 1.389-1.389h.151c.767 0 1.389.621 1.389 1.389v11.797c0 .767-.621 1.389-1.389 1.389H499.11a1.389 1.389 0 01-1.389-1.389v-3.008c0-.767-.621-1.389-1.389-1.389h-5.864c-.767 0-1.389.621-1.389 1.389v.151c0 .767.621 1.389 1.389 1.389h2.933c.767 0 1.389.621 1.389 1.389v.079a1.39 1.39 0 01-1.389 1.389z"/><path d="M1.389 203.035h22.963c.767 0 1.389-.621 1.389-1.389v-3.081c0-.767-.621-1.389-1.389-1.389H1.389c-.767 0-1.389.621-1.389 1.389v3.081c0 .768.621 1.389 1.389 1.389zm28.633 0h22.927c.767 0 1.389-.621 1.389-1.389v-3.081c0-.767-.621-1.389-1.389-1.389H30.022c-.767 0-1.389.621-1.389 1.389v3.081c0 .768.622 1.389 1.389 1.389zM58.618 203.035h22.927c.767 0 1.389-.621 1.389-1.389v-3.081c0-.767-.621-1.389-1.389-1.389H58.618c-.767 0-1.389.621-1.389 1.389v3.081a1.39 1.39 0 001.389 1.389zm28.561 0h23c.767 0 1.389-.621 1.389-1.389v-3.081c0-.767-.621-1.389-1.389-1.389h-23c-.767 0-1.389.621-1.389 1.389v3.081c0 .768.622 1.389 1.389 1.389zM115.814 203.035h22.963c.767 0 1.389-.621 1.389-1.389v-3.081c0-.767-.621-1.389-1.389-1.389h-22.963c-.767 0-1.389.621-1.389 1.389v3.081a1.388 1.388 0 001.389 1.389zm28.596 0h22.963c.767 0 1.389-.621 1.389-1.389v-3.081c0-.767-.621-1.389-1.389-1.389H144.41c-.767 0-1.389.621-1.389 1.389v3.081a1.39 1.39 0 001.389 1.389zM173.007 203.035h22.963c.767 0 1.389-.621 1.389-1.389v-3.081c0-.767-.621-1.389-1.389-1.389h-22.963c-.767 0-1.389.621-1.389 1.389v3.081a1.39 1.39 0 001.389 1.389zm28.561 0h23c.767 0 1.389-.621 1.389-1.389v-3.081c0-.767-.621-1.389-1.389-1.389h-23c-.767 0-1.389.621-1.389 1.389v3.081c0 .768.621 1.389 1.389 1.389zM230.2 203.035h22.965c.767 0 1.389-.621 1.389-1.389v-3.081c0-.767-.621-1.389-1.389-1.389H230.2c-.767 0-1.389.621-1.389 1.389v3.081a1.39 1.39 0 001.389 1.389zm28.597 0h22.965c.767 0 1.389-.621 1.389-1.389v-3.081c0-.767-.621-1.389-1.389-1.389h-22.965c-.767 0-1.389.621-1.389 1.389v3.081a1.39 1.39 0 001.389 1.389zM287.395 203.035h22.965c.767 0 1.389-.621 1.389-1.389v-3.081c0-.767-.621-1.389-1.389-1.389h-22.965c-.767 0-1.389.621-1.389 1.389v3.081c0 .768.622 1.389 1.389 1.389zm28.635 0h22.927c.767 0 1.389-.621 1.389-1.389v-3.081c0-.767-.621-1.389-1.389-1.389H316.03c-.767 0-1.389.621-1.389 1.389v3.081c0 .768.622 1.389 1.389 1.389zM344.589 203.035h22.965c.767 0 1.389-.621 1.389-1.389v-3.081c0-.767-.621-1.389-1.389-1.389h-22.965c-.767 0-1.389.621-1.389 1.389v3.081a1.39 1.39 0 001.389 1.389zm28.635 0h22.925c.767 0 1.389-.621 1.389-1.389v-3.081c0-.767-.621-1.389-1.389-1.389h-22.925c-.767 0-1.389.621-1.389 1.389v3.081a1.39 1.39 0 001.389 1.389zM401.82 203.035h22.927c.767 0 1.389-.621 1.389-1.389v-3.081c0-.767-.621-1.389-1.389-1.389H401.82c-.767 0-1.389.621-1.389 1.389v3.081a1.388 1.388 0 001.389 1.389zm28.597 0h22.965c.767 0 1.389-.621 1.389-1.389v-3.081c0-.767-.621-1.389-1.389-1.389h-22.965c-.767 0-1.389.621-1.389 1.389v3.081c0 .768.622 1.389 1.389 1.389zM459.013 203.035h22.965c.767 0 1.389-.621 1.389-1.389v-3.081c0-.767-.621-1.389-1.389-1.389h-22.965c-.767 0-1.389.621-1.389 1.389v3.081a1.39 1.39 0 001.389 1.389zm28.599 0h23c.767 0 1.389-.621 1.389-1.389v-3.081c0-.767-.621-1.389-1.389-1.389h-23c-.767 0-1.389.621-1.389 1.389v3.081a1.387 1.387 0 001.389 1.389zM510.611 317.826h-.077c-.767 0-1.389.621-1.389 1.389v3.008c0 .767-.621 1.389-1.389 1.389h-5.827a1.389 1.389 0 01-1.389-1.389v-3.008c0-.767-.621-1.389-1.389-1.389h-11.502c-.767 0-1.389.621-1.389 1.389v5.939c0 .767.621 1.389 1.389 1.389h5.79c.767 0 1.389-.621 1.389-1.389v-.152c0-.767-.621-1.389-1.389-1.389h-2.935a1.389 1.389 0 01-1.389-1.389v-.151c0-.767.621-1.389 1.389-1.389h5.792c.767 0 1.389.621 1.389 1.389v3.081c0 .767.621 1.389 1.389 1.389h11.538c.767 0 1.389-.621 1.389-1.389v-5.939a1.39 1.39 0 00-1.39-1.389zm-5.748 0h-.079c-.767 0-1.389.621-1.389 1.389v.079c0 .767.621 1.389 1.389 1.389h.079c.767 0 1.389-.621 1.389-1.389v-.079a1.39 1.39 0 00-1.389-1.389zm5.748 11.645h-34.423c-.767 0-1.389.621-1.389 1.389v.152c0 .767.621 1.389 1.389 1.389h34.423c.767 0 1.389-.621 1.389-1.389v-.152c0-.768-.621-1.389-1.389-1.389zm-34.422-11.645h5.79c.767 0 1.389.621 1.389 1.389v5.939c0 .767-.621 1.389-1.389 1.389h-8.648c-.767 0-1.389.621-1.389 1.389v3.081c0 .767-.621 1.389-1.389 1.389h-.077a1.389 1.389 0 01-1.389-1.389v-8.94c0-.767-.621-1.389-1.389-1.389h-.079c-.767 0-1.389.621-1.389 1.389v8.94c0 .767-.621 1.389-1.389 1.389h-.077a1.389 1.389 0 01-1.389-1.389v-8.94c0-.767-.621-1.389-1.389-1.389h-.115c-.767 0-1.389.621-1.389 1.389v8.94c0 .767-.621 1.389-1.389 1.389h-.042a1.389 1.389 0 01-1.389-1.389v-11.797c0-.767.621-1.389 1.389-1.389h11.502c.767 0 1.389.621 1.389 1.389v3.008c0 .767.621 1.389 1.389 1.389h5.79c.767 0 1.389-.621 1.389-1.389v-.151c0-.767-.621-1.389-1.389-1.389h-2.933a1.389 1.389 0 01-1.389-1.389v-.079c0-.768.623-1.39 1.39-1.39zM453.382 317.826h-.115c-.767 0-1.389.621-1.389 1.389v3.008c0 .767-.621 1.389-1.389 1.389h-5.754a1.389 1.389 0 01-1.389-1.389v-3.008c0-.767-.621-1.389-1.389-1.389h-11.502c-.767 0-1.389.621-1.389 1.389v5.939c0 .767.621 1.389 1.389 1.389h5.79c.767 0 1.389-.621 1.389-1.389v-.152c0-.767-.621-1.389-1.389-1.389h-2.935a1.389 1.389 0 01-1.389-1.389v-.151c0-.767.621-1.389 1.389-1.389h5.792c.767 0 1.389.621 1.389 1.389v3.081c0 .767.621 1.389 1.389 1.389h11.502c.767 0 1.389-.621 1.389-1.389v-5.939a1.39 1.39 0 00-1.389-1.389zm-5.713 0h-.077c-.767 0-1.389.621-1.389 1.389v.079c0 .767.621 1.389 1.389 1.389h.077c.767 0 1.389-.621 1.389-1.389v-.079a1.39 1.39 0 00-1.389-1.389zm5.713 11.645h-34.388c-.767 0-1.389.621-1.389 1.389v.152c0 .767.621 1.389 1.389 1.389h34.388c.767 0 1.389-.621 1.389-1.389v-.152a1.39 1.39 0 00-1.389-1.389zm-34.388-11.645h5.827c.767 0 1.389.621 1.389 1.389v5.939c0 .767-.621 1.389-1.389 1.389h-8.648c-.767 0-1.389.621-1.389 1.389v3.081c0 .767-.621 1.389-1.389 1.389h-.115a1.389 1.389 0 01-1.389-1.389v-8.94c0-.767-.621-1.389-1.389-1.389h-.115c-.767 0-1.389.621-1.389 1.389v8.94c0 .767-.621 1.389-1.389 1.389h-.042a1.389 1.389 0 01-1.389-1.389v-8.94c0-.767-.621-1.389-1.389-1.389h-.115c-.767 0-1.389.621-1.389 1.389v8.94c0 .767-.621 1.389-1.389 1.389h-.077a1.389 1.389 0 01-1.389-1.389v-11.797c0-.767.621-1.389 1.389-1.389h11.575c.767 0 1.389.621 1.389 1.389v3.008c0 .767.621 1.389 1.389 1.389h5.754c.767 0 1.389-.621 1.389-1.389v-.151c0-.767-.621-1.389-1.389-1.389h-2.935a1.389 1.389 0 01-1.389-1.389v-.079a1.394 1.394 0 011.392-1.39zM396.186 317.826h-.077c-.767 0-1.389.621-1.389 1.389v3.008c0 .767-.621 1.389-1.389 1.389h-5.792a1.389 1.389 0 01-1.389-1.389v-3.008c0-.767-.621-1.389-1.389-1.389h-11.538c-.767 0-1.389.621-1.389 1.389v5.939c0 .767.621 1.389 1.389 1.389h5.79c.767 0 1.389-.621 1.389-1.389v-.152c0-.767-.621-1.389-1.389-1.389h-2.935a1.389 1.389 0 01-1.389-1.389v-.151c0-.767.621-1.389 1.389-1.389h5.827c.767 0 1.389.621 1.389 1.389v3.081c0 .767.621 1.389 1.389 1.389h11.502c.767 0 1.389-.621 1.389-1.389v-5.939a1.387 1.387 0 00-1.388-1.389zm-5.712 0h-.077c-.767 0-1.389.621-1.389 1.389v.079c0 .767.621 1.389 1.389 1.389h.077c.767 0 1.389-.621 1.389-1.389v-.079a1.39 1.39 0 00-1.389-1.389zm5.712 11.645h-34.425c-.767 0-1.389.621-1.389 1.389v.152c0 .767.621 1.389 1.389 1.389h34.425c.767 0 1.389-.621 1.389-1.389v-.152a1.388 1.388 0 00-1.389-1.389zm-34.424-11.645h5.827c.767 0 1.389.621 1.389 1.389v5.939c0 .767-.621 1.389-1.389 1.389h-8.646c-.767 0-1.389.621-1.389 1.389v3.081c0 .767-.621 1.389-1.389 1.389h-.079a1.389 1.389 0 01-1.389-1.389v-8.94c0-.767-.621-1.389-1.389-1.389h-.115c-.767 0-1.389.621-1.389 1.389v8.94c0 .767-.621 1.389-1.389 1.389h-.115a1.389 1.389 0 01-1.389-1.389v-8.94c0-.767-.621-1.389-1.389-1.389h-.042c-.767 0-1.389.621-1.389 1.389v8.94c0 .767-.621 1.389-1.389 1.389h-.077a1.389 1.389 0 01-1.389-1.389v-11.797c0-.767.621-1.389 1.389-1.389h11.54c.767 0 1.389.621 1.389 1.389v3.008c0 .767.621 1.389 1.389 1.389h5.79c.767 0 1.389-.621 1.389-1.389v-.151c0-.767-.621-1.389-1.389-1.389h-2.973a1.389 1.389 0 01-1.389-1.389v-.079a1.392 1.392 0 011.391-1.39zM338.993 317.826h-.077c-.767 0-1.389.621-1.389 1.389v3.008c0 .767-.621 1.389-1.389 1.389h-5.79a1.389 1.389 0 01-1.389-1.389v-3.008c0-.767-.621-1.389-1.389-1.389h-11.54c-.767 0-1.389.621-1.389 1.389v5.939c0 .767.621 1.389 1.389 1.389h5.827c.767 0 1.389-.621 1.389-1.389v-.152c0-.767-.621-1.389-1.389-1.389h-2.935a1.389 1.389 0 01-1.389-1.389v-.151c0-.767.621-1.389 1.389-1.389h5.79c.767 0 1.389.621 1.389 1.389v3.081c0 .767.621 1.389 1.389 1.389h11.502c.767 0 1.389-.621 1.389-1.389v-5.939c0-.767-.622-1.389-1.388-1.389zm-5.713 0h-.077c-.767 0-1.389.621-1.389 1.389v.079c0 .767.621 1.389 1.389 1.389h.077c.767 0 1.389-.621 1.389-1.389v-.079a1.39 1.39 0 00-1.389-1.389zm5.713 11.645h-34.388c-.767 0-1.389.621-1.389 1.389v.152c0 .767.621 1.389 1.389 1.389h34.388c.767 0 1.389-.621 1.389-1.389v-.152a1.39 1.39 0 00-1.389-1.389zm-34.388-11.645h5.827c.767 0 1.389.621 1.389 1.389v5.939c0 .767-.621 1.389-1.389 1.389h-8.721c-.767 0-1.389.621-1.389 1.389v3.081c0 .767-.621 1.389-1.389 1.389h-.077a1.389 1.389 0 01-1.389-1.389v-8.94c0-.767-.621-1.389-1.389-1.389h-.042c-.767 0-1.389.621-1.389 1.389v8.94c0 .767-.621 1.389-1.389 1.389h-.115a1.389 1.389 0 01-1.389-1.389v-8.94c0-.767-.621-1.389-1.389-1.389h-.079c-.767 0-1.389.621-1.389 1.389v8.94c0 .767-.621 1.389-1.389 1.389h-.077a1.389 1.389 0 01-1.389-1.389v-11.797c0-.767.621-1.389 1.389-1.389h11.502c.767 0 1.389.621 1.389 1.389v3.008c0 .767.621 1.389 1.389 1.389h5.827c.767 0 1.389-.621 1.389-1.389v-.151c0-.767-.621-1.389-1.389-1.389h-2.935a1.389 1.389 0 01-1.389-1.389v-.079a1.393 1.393 0 011.391-1.39zM281.8 317.826h-.079c-.767 0-1.389.621-1.389 1.389v3.008c0 .767-.621 1.389-1.389 1.389h-5.79a1.389 1.389 0 01-1.389-1.389v-3.008c0-.767-.621-1.389-1.389-1.389h-11.54c-.767 0-1.389.621-1.389 1.389v5.939c0 .767.621 1.389 1.389 1.389h5.827c.767 0 1.389-.621 1.389-1.389v-.152c0-.767-.621-1.389-1.389-1.389h-2.97a1.389 1.389 0 01-1.389-1.389v-.151c0-.767.621-1.389 1.389-1.389h5.79c.767 0 1.389.621 1.389 1.389v3.081c0 .767.621 1.389 1.389 1.389h11.54c.767 0 1.389-.621 1.389-1.389v-5.939a1.39 1.39 0 00-1.389-1.389zm-5.75 0h-.042c-.767 0-1.389.621-1.389 1.389v.079c0 .767.621 1.389 1.389 1.389h.042c.767 0 1.389-.621 1.389-1.389v-.079a1.39 1.39 0 00-1.389-1.389zm5.75 11.645h-34.425c-.767 0-1.389.621-1.389 1.389v.152c0 .767.621 1.389 1.389 1.389H281.8c.767 0 1.389-.621 1.389-1.389v-.152a1.39 1.39 0 00-1.389-1.389zm-34.426-11.645h5.827c.767 0 1.389.621 1.389 1.389v5.939c0 .767-.621 1.389-1.389 1.389h-8.684c-.767 0-1.389.621-1.389 1.389v3.081c0 .767-.621 1.389-1.389 1.389h-.077a1.389 1.389 0 01-1.389-1.389v-8.94c0-.767-.621-1.389-1.389-1.389h-.079c-.767 0-1.389.621-1.389 1.389v8.94c0 .767-.621 1.389-1.389 1.389h-.077a1.389 1.389 0 01-1.389-1.389v-8.94c0-.767-.621-1.389-1.389-1.389h-.077c-.767 0-1.389.621-1.389 1.389v8.94c0 .767-.621 1.389-1.389 1.389h-.079a1.389 1.389 0 01-1.389-1.389v-11.797c0-.767.621-1.389 1.389-1.389h11.502c.767 0 1.389.621 1.389 1.389v3.008c0 .767.621 1.389 1.389 1.389h5.827c.767 0 1.389-.621 1.389-1.389v-.151c0-.767-.621-1.389-1.389-1.389h-2.97a1.389 1.389 0 01-1.389-1.389v-.079c0-.768.621-1.39 1.388-1.39zM224.605 317.826h-.079c-.767 0-1.389.621-1.389 1.389v3.008c0 .767-.621 1.389-1.389 1.389h-5.79a1.389 1.389 0 01-1.389-1.389v-3.008c0-.767-.621-1.389-1.389-1.389h-11.54c-.767 0-1.389.621-1.389 1.389v5.939c0 .767.621 1.389 1.389 1.389h5.792c.767 0 1.389-.621 1.389-1.389v-.152c0-.767-.621-1.389-1.389-1.389h-2.899a1.389 1.389 0 01-1.389-1.389v-.151c0-.767.621-1.389 1.389-1.389h5.754c.767 0 1.389.621 1.389 1.389v3.081c0 .767.621 1.389 1.389 1.389h11.54c.767 0 1.389-.621 1.389-1.389v-5.939a1.39 1.39 0 00-1.389-1.389zm-5.749 0h-.042c-.767 0-1.389.621-1.389 1.389v.079c0 .767.621 1.389 1.389 1.389h.042c.767 0 1.389-.621 1.389-1.389v-.079a1.39 1.39 0 00-1.389-1.389zm5.749 11.645H190.18c-.767 0-1.389.621-1.389 1.389v.152c0 .767.621 1.389 1.389 1.389h34.424c.767 0 1.389-.621 1.389-1.389v-.152a1.387 1.387 0 00-1.388-1.389zm-34.425-11.645h5.79c.767 0 1.389.621 1.389 1.389v5.939c0 .767-.621 1.389-1.389 1.389h-8.646c-.767 0-1.389.621-1.389 1.389v3.081c0 .767-.621 1.389-1.389 1.389h-.079a1.389 1.389 0 01-1.389-1.389v-8.94c0-.767-.621-1.389-1.389-1.389h-.077c-.767 0-1.389.621-1.389 1.389v8.94c0 .767-.621 1.389-1.389 1.389h-.079a1.389 1.389 0 01-1.389-1.389v-8.94c0-.767-.621-1.389-1.389-1.389h-.077c-.767 0-1.389.621-1.389 1.389v8.94c0 .767-.621 1.389-1.389 1.389h-.079a1.389 1.389 0 01-1.389-1.389v-11.797c0-.767.621-1.389 1.389-1.389h11.505c.767 0 1.389.621 1.389 1.389v3.008c0 .767.621 1.389 1.389 1.389h5.826c.767 0 1.389-.621 1.389-1.389v-.151c0-.767-.621-1.389-1.389-1.389h-2.97a1.389 1.389 0 01-1.389-1.389v-.079a1.387 1.387 0 011.387-1.39zM167.411 317.826h-.079c-.767 0-1.389.621-1.389 1.389v3.008c0 .767-.621 1.389-1.389 1.389h-5.826a1.389 1.389 0 01-1.389-1.389v-3.008c0-.767-.621-1.389-1.389-1.389h-11.505c-.767 0-1.389.621-1.389 1.389v5.939c0 .767.621 1.389 1.389 1.389h5.792c.767 0 1.389-.621 1.389-1.389v-.152c0-.767-.621-1.389-1.389-1.389h-2.973a1.389 1.389 0 01-1.389-1.389v-.151c0-.767.621-1.389 1.389-1.389h5.865c.767 0 1.389.621 1.389 1.389v3.081c0 .767.621 1.389 1.389 1.389h11.502c.767 0 1.389-.621 1.389-1.389v-5.939a1.387 1.387 0 00-1.387-1.389zm-5.713 0h-.115c-.767 0-1.389.621-1.389 1.389v.079c0 .767.621 1.389 1.389 1.389h.115c.767 0 1.389-.621 1.389-1.389v-.079a1.39 1.39 0 00-1.389-1.389zm5.713 11.645h-34.424c-.767 0-1.389.621-1.389 1.389v.152c0 .767.621 1.389 1.389 1.389h34.424c.767 0 1.389-.621 1.389-1.389v-.152a1.39 1.39 0 00-1.389-1.389zm-34.426-11.645h5.79c.767 0 1.389.621 1.389 1.389v5.939c0 .767-.621 1.389-1.389 1.389h-8.646c-.767 0-1.389.621-1.389 1.389v3.081c0 .767-.621 1.389-1.389 1.389h-.079a1.389 1.389 0 01-1.389-1.389v-8.94c0-.767-.621-1.389-1.389-1.389h-.077c-.767 0-1.389.621-1.389 1.389v8.94c0 .767-.621 1.389-1.389 1.389h-.079a1.389 1.389 0 01-1.389-1.389v-8.94c0-.767-.621-1.389-1.389-1.389h-.115c-.767 0-1.389.621-1.389 1.389v8.94c0 .767-.621 1.389-1.389 1.389h-.041a1.389 1.389 0 01-1.389-1.389v-11.797c0-.767.621-1.389 1.389-1.389h11.502c.767 0 1.389.621 1.389 1.389v3.008c0 .767.621 1.389 1.389 1.389h5.754c.767 0 1.389-.621 1.389-1.389v-.151c0-.767-.621-1.389-1.389-1.389h-2.899a1.389 1.389 0 01-1.389-1.389v-.079a1.393 1.393 0 011.391-1.39zM110.18 317.826h-.042c-.767 0-1.389.621-1.389 1.389v3.008c0 .767-.621 1.389-1.389 1.389h-5.792a1.389 1.389 0 01-1.389-1.389v-3.008c0-.767-.621-1.389-1.389-1.389H87.254c-.767 0-1.389.621-1.389 1.389v5.939c0 .767.621 1.389 1.389 1.389h5.752c.767 0 1.389-.621 1.389-1.389v-.152c0-.767-.621-1.389-1.389-1.389h-2.933a1.389 1.389 0 01-1.389-1.389v-.151c0-.767.621-1.389 1.389-1.389H95.9c.767 0 1.389.621 1.389 1.389v3.081c0 .767.621 1.389 1.389 1.389h11.505c.767 0 1.389-.621 1.389-1.389v-5.939a1.393 1.393 0 00-1.392-1.389zm-5.712 0h-.079c-.767 0-1.389.621-1.389 1.389v.079c0 .767.621 1.389 1.389 1.389h.079c.767 0 1.389-.621 1.389-1.389v-.079a1.39 1.39 0 00-1.389-1.389zm5.712 11.645H75.719c-.767 0-1.389.621-1.389 1.389v.152c0 .767.621 1.389 1.389 1.389h34.462c.767 0 1.389-.621 1.389-1.389v-.152a1.39 1.39 0 00-1.39-1.389zm-34.461-11.645h5.865c.767 0 1.389.621 1.389 1.389v5.939c0 .767-.621 1.389-1.389 1.389h-8.648c-.767 0-1.389.621-1.389 1.389v3.081c0 .767-.621 1.389-1.389 1.389h-.115a1.389 1.389 0 01-1.389-1.389v-8.94c0-.767-.621-1.389-1.389-1.389h-.077c-.767 0-1.389.621-1.389 1.389v8.94c0 .767-.621 1.389-1.389 1.389h-.042a1.389 1.389 0 01-1.389-1.389v-8.94c0-.767-.621-1.389-1.389-1.389h-.115c-.767 0-1.389.621-1.389 1.389v8.94c0 .767-.621 1.389-1.389 1.389h-.079a1.389 1.389 0 01-1.389-1.389v-11.797c0-.767.621-1.389 1.389-1.389h11.54c.767 0 1.389.621 1.389 1.389v3.008c0 .767.621 1.389 1.389 1.389h5.79c.767 0 1.389-.621 1.389-1.389v-.151c0-.767-.621-1.389-1.389-1.389h-3.005a1.389 1.389 0 01-1.389-1.389v-.079a1.386 1.386 0 011.387-1.39zM52.986 317.826h-.079c-.767 0-1.389.621-1.389 1.389v3.008c0 .767-.621 1.389-1.389 1.389h-5.79a1.389 1.389 0 01-1.389-1.389v-3.008c0-.767-.621-1.389-1.389-1.389H30.022c-.767 0-1.389.621-1.389 1.389v5.939c0 .767.621 1.389 1.389 1.389h5.754c.767 0 1.389-.621 1.389-1.389v-.152c0-.767-.621-1.389-1.389-1.389h-2.935a1.389 1.389 0 01-1.389-1.389v-.151c0-.767.621-1.389 1.389-1.389h5.865c.767 0 1.389.621 1.389 1.389v3.081c0 .767.621 1.389 1.389 1.389h11.502c.767 0 1.389-.621 1.389-1.389v-5.939a1.39 1.39 0 00-1.389-1.389zm-5.712 0h-.079c-.767 0-1.389.621-1.389 1.389v.079c0 .767.621 1.389 1.389 1.389h.079c.767 0 1.389-.621 1.389-1.389v-.079a1.39 1.39 0 00-1.389-1.389zm5.712 11.645H18.599c-.767 0-1.389.621-1.389 1.389v.152c0 .767.621 1.389 1.389 1.389h34.388c.767 0 1.389-.621 1.389-1.389v-.152a1.39 1.39 0 00-1.39-1.389zm-34.387-11.645h5.79c.767 0 1.389.621 1.389 1.389v5.939c0 .767-.621 1.389-1.389 1.389H15.67c-.767 0-1.389.621-1.389 1.389v3.081c0 .767-.621 1.389-1.389 1.389h-.004a1.389 1.389 0 01-1.389-1.389v-8.94c0-.767-.621-1.389-1.389-1.389h-.154c-.767 0-1.389.621-1.389 1.389v8.94c0 .767-.621 1.389-1.389 1.389h-.003a1.389 1.389 0 01-1.389-1.389v-8.94c0-.767-.621-1.389-1.389-1.389h-.08c-.767 0-1.389.621-1.389 1.389v8.94c0 .767-.621 1.389-1.389 1.389h-.15A1.389 1.389 0 010 331.013v-11.797c0-.767.621-1.389 1.389-1.389h11.502c.767 0 1.389.621 1.389 1.389v3.008c0 .767.621 1.389 1.389 1.389h5.864c.767 0 1.389-.621 1.389-1.389v-.151c0-.767-.621-1.389-1.389-1.389H18.6a1.389 1.389 0 01-1.389-1.389v-.079a1.388 1.388 0 011.388-1.39zM510.611 308.966h-22.963c-.767 0-1.389.621-1.389 1.389v3.081c0 .767.621 1.389 1.389 1.389h22.963c.767 0 1.389-.621 1.389-1.389v-3.081c0-.768-.621-1.389-1.389-1.389zm-28.633 0h-22.927c-.767 0-1.389.621-1.389 1.389v3.081c0 .767.621 1.389 1.389 1.389h22.927c.767 0 1.389-.621 1.389-1.389v-3.081c0-.768-.622-1.389-1.389-1.389zM453.382 308.966h-22.927c-.767 0-1.389.621-1.389 1.389v3.081c0 .767.621 1.389 1.389 1.389h22.927c.767 0 1.389-.621 1.389-1.389v-3.081a1.39 1.39 0 00-1.389-1.389zm-28.561 0h-23c-.767 0-1.389.621-1.389 1.389v3.081c0 .767.621 1.389 1.389 1.389h23c.767 0 1.389-.621 1.389-1.389v-3.081c0-.768-.621-1.389-1.389-1.389zM396.186 308.966h-22.963c-.767 0-1.389.621-1.389 1.389v3.081c0 .767.621 1.389 1.389 1.389h22.963c.767 0 1.389-.621 1.389-1.389v-3.081a1.388 1.388 0 00-1.389-1.389zm-28.596 0h-22.963c-.767 0-1.389.621-1.389 1.389v3.081c0 .767.621 1.389 1.389 1.389h22.963c.767 0 1.389-.621 1.389-1.389v-3.081a1.39 1.39 0 00-1.389-1.389zM338.993 308.966H316.03c-.767 0-1.389.621-1.389 1.389v3.081c0 .767.621 1.389 1.389 1.389h22.963c.767 0 1.389-.621 1.389-1.389v-3.081a1.39 1.39 0 00-1.389-1.389zm-28.561 0h-23c-.767 0-1.389.621-1.389 1.389v3.081c0 .767.621 1.389 1.389 1.389h23c.767 0 1.389-.621 1.389-1.389v-3.081c0-.768-.621-1.389-1.389-1.389zM281.8 308.966h-22.965c-.767 0-1.389.621-1.389 1.389v3.081c0 .767.621 1.389 1.389 1.389H281.8c.767 0 1.389-.621 1.389-1.389v-3.081a1.39 1.39 0 00-1.389-1.389zm-28.597 0h-22.965c-.767 0-1.389.621-1.389 1.389v3.081c0 .767.621 1.389 1.389 1.389h22.965c.767 0 1.389-.621 1.389-1.389v-3.081a1.39 1.39 0 00-1.389-1.389zM224.605 308.966H201.64c-.767 0-1.389.621-1.389 1.389v3.081c0 .767.621 1.389 1.389 1.389h22.965c.767 0 1.389-.621 1.389-1.389v-3.081c0-.768-.622-1.389-1.389-1.389zm-28.635 0h-22.927c-.767 0-1.389.621-1.389 1.389v3.081c0 .767.621 1.389 1.389 1.389h22.927c.767 0 1.389-.621 1.389-1.389v-3.081c0-.768-.622-1.389-1.389-1.389zM167.411 308.966h-22.965c-.767 0-1.389.621-1.389 1.389v3.081c0 .767.621 1.389 1.389 1.389h22.965c.767 0 1.389-.621 1.389-1.389v-3.081a1.39 1.39 0 00-1.389-1.389zm-28.635 0h-22.925c-.767 0-1.389.621-1.389 1.389v3.081c0 .767.621 1.389 1.389 1.389h22.925c.767 0 1.389-.621 1.389-1.389v-3.081a1.39 1.39 0 00-1.389-1.389zM110.18 308.966H87.254c-.767 0-1.389.621-1.389 1.389v3.081c0 .767.621 1.389 1.389 1.389h22.927c.767 0 1.389-.621 1.389-1.389v-3.081a1.39 1.39 0 00-1.39-1.389zm-28.597 0H58.618c-.767 0-1.389.621-1.389 1.389v3.081c0 .767.621 1.389 1.389 1.389h22.965c.767 0 1.389-.621 1.389-1.389v-3.081c0-.768-.622-1.389-1.389-1.389zM52.986 308.966H30.022c-.767 0-1.389.621-1.389 1.389v3.081c0 .767.621 1.389 1.389 1.389h22.965c.767 0 1.389-.621 1.389-1.389v-3.081a1.39 1.39 0 00-1.39-1.389zm-28.598 0H1.389c-.768 0-1.389.621-1.389 1.389v3.081c0 .767.621 1.389 1.389 1.389h23c.767 0 1.389-.621 1.389-1.389v-3.081c0-.768-.622-1.389-1.39-1.389z"/></g><g fill="#ff4b55"><path d="M248.698 214.274a7.55 7.55 0 007.334-2.026c2.898 2.934 7.647 3.004 10.651.141 1.956-1.886 2.759-4.75 2.06-7.334-2.548 4.121-7.925 5.448-12.046 2.863-.21-.141-.489-.28-.663-.42-3.875 2.863-9.357 2.095-12.291-1.745-.106-.211-.314-.49-.455-.698-1.049 4.053 1.395 8.241 5.41 9.219zM264.966 295.855c9.386-5.153 17.219-13.272 21.514-23.966 7.314-18.33 2.708-39.02-11.283-52.44-.481-.461-1.212.156-.863.724 13.799 22.503 8.363 52.074-12.99 68.278l1.021-65.367a2.894 2.894 0 00-1.071-2.291l-3.473-2.807a2.887 2.887 0 00-3.642.01l-3.422 2.797a2.885 2.885 0 00-1.059 2.28l.992 65.413c-21.356-16.196-26.804-45.794-13.026-68.312.348-.568-.383-1.185-.863-.723-13.964 13.42-18.599 34.109-11.286 52.438 4.295 10.692 12.127 18.812 21.516 23.965-5.975 2.048-12.255 3.134-18.605 2.952-.671-.019-.806.925-.163 1.119 8.068 2.449 16.366 2.617 24.168.868l3.063 5.943a.57.57 0 001.012.001l3.084-5.941c7.802 1.746 16.103 1.575 24.177-.874.642-.194.508-1.138-.163-1.119-6.358.185-12.653-.901-18.638-2.948z"/><path d="M303.171 235.086a40.514 40.514 0 00-22.279-19.111c-.595-.209-1.059.577-.573.978 20.966 17.271 25.169 48.032 8.956 70.302-.839 1.118-1.747 2.305-2.62 3.281 19.905-10.685 27.272-35.546 16.516-55.45zM222.755 287.255c-16.214-22.27-12.044-53.03 8.918-70.301.487-.402.022-1.186-.573-.978-9.485 3.334-17.408 10.135-22.243 19.11-10.824 19.904-3.386 44.765 16.552 55.449-.942-.976-1.85-2.162-2.654-3.28z"/></g></svg>