<svg xmlns="http://www.w3.org/2000/svg" viewBox="0 0 512.001 512.001"><path d="M512 200.093H0V97.104a8.829 8.829 0 018.828-8.828h494.345a8.829 8.829 0 018.828 8.828L512 200.093z" fill="#464655"/><path d="M503.172 423.725H8.828A8.829 8.829 0 010 414.897V311.909h512v102.988a8.828 8.828 0 01-8.828 8.828z" fill="#73af00"/><path fill="#f5f5f5" d="M0 200.091h512v111.81H0z"/><path d="M3.256 421.591l299.112-162.017c2.838-1.537 2.838-5.61 0-7.147L3.256 90.411C1.311 92.03 0 94.376 0 97.104v317.793c0 2.729 1.311 5.075 3.256 6.694z" fill="#ff4b55"/><path d="M95.399 233.165l5.247 11.381 12.169-2.994a.917.917 0 011.038 1.302l-5.626 11.198 9.928 7.648a.916.916 0 01-.371 1.623l-12.263 2.583.211 12.531a.917.917 0 01-1.5.723l-9.665-7.977-9.665 7.977a.917.917 0 01-1.5-.723l.211-12.531-12.263-2.583a.917.917 0 01-.371-1.623l9.928-7.648-5.626-11.198a.917.917 0 011.038-1.302l12.169 2.994 5.247-11.381c.326-.71 1.336-.71 1.664 0z" fill="#f5f5f5"/></svg>