<svg xmlns="http://www.w3.org/2000/svg" viewBox="0 0 512.001 512.001"><path d="M0 311.908h512v102.988a8.829 8.829 0 01-8.828 8.828H8.828A8.829 8.829 0 010 414.896V311.908z" fill="#73af00"/><path d="M8.828 88.276h494.345a8.829 8.829 0 018.828 8.828v102.988H0V97.103a8.828 8.828 0 018.828-8.827z" fill="#464655"/><path fill="#c8414b" d="M0 200.09h512V311.9H0z"/><g fill="#f5f5f5"><path d="M0 194.21h512v17.655H0zM0 300.141h512v17.655H0z"/><path d="M303.268 181.618c7.108-14.657 14.525-48.61 14.525-48.61s-22.072 26.845-29.182 41.501c-1.49 3.072-.858 6.605 1.294 8.995l-80.967 166.934 5.496 2.666 80.967-166.934c3.212.211 6.378-1.48 7.867-4.552z"/><path d="M208.732 181.618c-7.108-14.657-14.525-48.61-14.525-48.61s22.072 26.845 29.182 41.501c1.49 3.072.858 6.605-1.294 8.995l80.967 166.934-5.496 2.666-80.967-166.934c-3.212.211-6.378-1.48-7.867-4.552z"/></g><path d="M300.138 256c0 48.754-36.012 88.276-44.138 88.276S211.862 304.754 211.862 256s36.012-88.276 44.138-88.276 44.138 39.522 44.138 88.276z" fill="#c8414b"/><g fill="#464655"><path d="M291.31 298.591c5.199-12.631 8.828-27.14 8.828-42.591s-3.628-29.959-8.828-42.591c-5.199 12.631-8.828 27.14-8.828 42.591s3.629 29.96 8.828 42.591zM220.69 213.409c-5.199 12.631-8.828 27.14-8.828 42.591s3.628 29.959 8.828 42.591c5.199-12.631 8.828-27.14 8.828-42.591s-3.629-29.959-8.828-42.591z"/></g><g fill="#f5f5f5"><ellipse cx="256" cy="256" rx="8.828" ry="13.241"/><path d="M257.324 167.724v75.034c2.407-5.01 6.676-19.815 6.676-37.517 0-17.703-4.269-32.507-6.676-37.517zM254.676 167.724c-2.407 5.01-6.676 19.814-6.676 37.517s4.269 32.508 6.676 37.517v-75.034zM257.324 269.241v75.034c2.407-5.01 6.676-19.815 6.676-37.517 0-17.703-4.269-32.507-6.676-37.517zM254.676 269.241c-2.407 5.01-6.676 19.814-6.676 37.517s4.269 32.508 6.676 37.517v-75.034z"/></g></svg>