<svg xmlns="http://www.w3.org/2000/svg" viewBox="0 0 512.001 512.001"><path d="M8.828 88.276h494.345a8.829 8.829 0 018.828 8.828v75.034H0V97.104a8.829 8.829 0 018.828-8.828z" fill="#ffe15a"/><path fill="#f5f5f5" d="M0 172.14h512V256H0z"/><path fill="#ff4b55" d="M0 256h512v83.86H0z"/><path d="M0 339.862h512v75.034a8.829 8.829 0 01-8.828 8.828H8.828A8.829 8.829 0 010 414.896v-75.034z" fill="#4173cd"/><path d="M3.256 421.591l247.383-162.079c2.53-1.658 2.53-5.366 0-7.025L3.256 90.41C1.311 92.028 0 94.375 0 97.104v317.792c0 2.729 1.311 5.076 3.256 6.695z" fill="#73af00"/><g fill="#f5f5f5"><path d="M48.833 256c0-31.919 20.865-58.927 49.689-68.229 1.515-.489 1.304-2.701-.275-2.908a69.843 69.843 0 00-9.064-.598c-39.618 0-71.735 32.117-71.735 71.735s32.117 71.735 71.735 71.735c3.074 0 6.097-.21 9.064-.598 1.579-.207 1.79-2.419.275-2.908-28.824-9.301-49.689-36.308-49.689-68.229z"/><path d="M98.89 201.208l1.975 5.921 6.241.049c.808.007 1.143 1.037.493 1.517l-5.021 3.708 1.882 5.951c.244.77-.633 1.408-1.291.938l-5.078-3.629-5.078 3.629c-.658.47-1.535-.168-1.291-.938l1.882-5.951-5.021-3.708c-.65-.48-.314-1.512.493-1.517l6.241-.049 1.975-5.921c.257-.767 1.342-.767 1.598 0zM98.89 231.214l1.975 5.921 6.241.049c.808.007 1.143 1.037.493 1.517l-5.021 3.708 1.882 5.951c.244.77-.633 1.408-1.291.938l-5.078-3.629-5.078 3.629c-.658.47-1.535-.168-1.291-.938l1.882-5.951-5.021-3.708c-.65-.48-.314-1.512.493-1.517l6.241-.049 1.975-5.921c.257-.766 1.342-.766 1.598 0zM98.89 261.22l1.975 5.921 6.241.049c.808.007 1.143 1.037.493 1.517l-5.021 3.708 1.882 5.951c.244.77-.633 1.408-1.291.938l-5.078-3.629-5.078 3.629c-.658.47-1.535-.168-1.291-.938l1.882-5.951-5.021-3.708c-.65-.48-.314-1.512.493-1.517l6.241-.049 1.975-5.921c.257-.767 1.342-.767 1.598 0zM98.89 291.227l1.975 5.921 6.241.049c.808.007 1.143 1.037.493 1.517l-5.021 3.708 1.882 5.951c.244.77-.633 1.408-1.291.938l-5.078-3.629-5.078 3.629c-.658.47-1.535-.168-1.291-.938l1.882-5.951-5.021-3.708c-.65-.48-.314-1.512.493-1.517l6.241-.049 1.975-5.921c.257-.767 1.342-.767 1.598 0z"/></g></svg>