<svg xmlns="http://www.w3.org/2000/svg" viewBox="0 0 512.001 512.001"><path d="M503.172 423.725H8.828A8.829 8.829 0 010 414.897V97.104a8.829 8.829 0 018.828-8.828h494.345a8.829 8.829 0 018.828 8.828v317.793a8.83 8.83 0 01-8.829 8.828z" fill="#41479b"/><g fill="#f5f5f5"><path d="M0 132.411h512v17.655H0zM0 361.931h512v17.655H0z"/></g><path fill="#ff4b55" d="M0 150.071h512v211.86H0z"/><circle cx="141.24" cy="256.001" r="70.62" fill="#f5f5f5"/><path d="M143.122 191.706l14.167 42.478 44.777.348c1.905.014 2.695 2.445 1.162 3.577l-36.021 26.6 13.506 42.692c.575 1.816-1.493 3.318-3.043 2.211l-36.428-26.039-36.429 26.038c-1.549 1.108-3.617-.395-3.043-2.211l13.506-42.692-36.021-26.6c-1.533-1.131-.743-3.562 1.162-3.577l44.777-.348 14.167-42.478c.603-1.806 3.158-1.806 3.761.001z" fill="#ff4b55"/></svg>