<?xml version="1.0" encoding="utf-8"?>
<!-- Generator: Adobe Illustrator 25.0.0, SVG Export Plug-In . SVG Version: 6.00 Build 0)  -->
<svg version="1.1" id="Layer_1" xmlns="http://www.w3.org/2000/svg" xmlns:xlink="http://www.w3.org/1999/xlink" x="0px" y="0px"
	 viewBox="0 0 512 512" style="enable-background:new 0 0 512 512;" xml:space="preserve">
<style type="text/css">
	.st0{filter:url(#Adobe_OpacityMaskFilter);}
	.st1{fill-rule:evenodd;clip-rule:evenodd;fill:#FFFFFF;}
	.st2{mask:url(#mask-2_1_);}
	.st3{fill:#41479B;}
	.st4{fill:#FFFFFF;}
	.st5{fill:#FFE15A;}
	.st6{fill:#FF4B55;}
</style>
<g id="Page-1">
	<g id="mf">
		<g id="Mask">
		</g>
		<defs>
			<filter id="Adobe_OpacityMaskFilter" filterUnits="userSpaceOnUse" x="0" y="88" width="512" height="336">
				<feColorMatrix  type="matrix" values="1 0 0 0 0  0 1 0 0 0  0 0 1 0 0  0 0 0 1 0"/>
			</filter>
		</defs>
		<mask maskUnits="userSpaceOnUse" x="0" y="88" width="512" height="336" id="mask-2_1_">
			<g class="st0">
				<path id="path-1_1_" class="st1" d="M10,88h492c5.5,0,10,4.5,10,10v316c0,5.5-4.5,10-10,10H10c-5.5,0-10-4.5-10-10V98
					C0,92.5,4.5,88,10,88z"/>
			</g>
		</mask>
		<g class="st2">
			<polygon id="Path" class="st3" points="0,88 512,88 512,424 0,424 			"/>
			<polygon id="Path_1_" class="st4" points="0,88 512,88 284.4,315.6 284.4,424 227.6,424 227.6,315.6 			"/>
			<path id="Combined-Shape" class="st5" d="M256,192.3c20.9,0,37.9,17,37.9,37.9l0,0h-75.9C218.1,209.3,235.1,192.3,256,192.3z"/>
			<polygon id="Path_2_" class="st6" points="256,315.6 180.1,244.4 331.9,244.4 			"/>
		</g>
	</g>
</g>
</svg>
