<svg xmlns="http://www.w3.org/2000/svg" viewBox="0 0 512 512" enable-background="new 0 0 512 512"><defs><filter id="a" filterUnits="userSpaceOnUse" x="0" y="88" width="512" height="336"><feColorMatrix values="1 0 0 0 0 0 1 0 0 0 0 0 1 0 0 0 0 0 1 0"/></filter></defs><mask maskUnits="userSpaceOnUse" x="0" y="88" width="512" height="336" id="b"><g filter="url(#a)"><path d="M10 88h492c5.5 0 10 4.5 10 10v316c0 5.5-4.5 10-10 10H10c-5.5 0-10-4.5-10-10V98c0-5.5 4.5-10 10-10z" fill-rule="evenodd" clip-rule="evenodd" fill="#fff"/></g></mask><g mask="url(#b)"><path fill="#41479b" d="M0 88h512v336H0z"/><path fill="#fff" d="M0 88h512L284.4 315.6V424h-56.8V315.6z"/><path d="M256 192.3c20.9 0 37.9 17 37.9 37.9H218c.1-20.9 17.1-37.9 38-37.9z" fill="#ffe15a"/><path fill="#ff4b55" d="M256 315.6l-75.9-71.2h151.8z"/></g></svg>