<svg xmlns="http://www.w3.org/2000/svg" viewBox="0 0 512.001 512.001"><path d="M503.172 423.725H8.828A8.829 8.829 0 010 414.897V97.104a8.829 8.829 0 018.828-8.828h494.345a8.829 8.829 0 018.828 8.828v317.793a8.83 8.83 0 01-8.829 8.828z" fill="#41479b"/><path d="M3.978 422.079L512 211.863V150.07L0 414.898c0 3.043 1.635 5.593 3.978 7.181z" fill="#f5f5f5"/><path d="M508.658 90.352L0 406.07v8.828L512 150.07V97.104c0-2.767-1.351-5.133-3.342-6.752z" fill="#ff9b55"/><path fill="#f5f5f5" d="M145.903 210.17l57.131-7.135-57.131-7.134 28.955-17.759-36.027 8.809 21.926-29.914-29.913 21.926 8.808-36.027-17.758 28.955-7.135-57.131-7.135 57.131-17.759-28.955 8.809 36.027-29.914-21.926 21.926 29.914-36.027-8.809 28.955 17.759-57.131 7.134 57.131 7.135-28.955 17.759 36.027-8.809-21.926 29.914 29.914-21.926-8.809 36.027 17.759-28.955 7.135 57.131 7.135-57.131 17.758 28.955-8.808-36.027 29.913 21.926-21.926-29.914 36.027 8.809z"/></svg>