<svg version="1.1" id="Layer_1" xmlns="http://www.w3.org/2000/svg" x="0" y="0" viewBox="0 0 512 512" xml:space="preserve" enable-background="new 0 0 512 512"><style>.st3{fill:#ffe15a}.st4{fill:#ff4b55}</style><g id="Page-1"><g id="mk"><defs><filter id="Adobe_OpacityMaskFilter" filterUnits="userSpaceOnUse" x="0" y="88" width="512" height="335.4"><feColorMatrix values="1 0 0 0 0 0 1 0 0 0 0 0 1 0 0 0 0 0 1 0"/></filter></defs><mask maskUnits="userSpaceOnUse" x="0" y="88" width="512" height="335.4" id="mask-2_1_"><g filter="url(#Adobe_OpacityMaskFilter)"><path id="path-1_1_" d="M10 88h492c5.5 0 10 4.5 10 10v316c0 5.5-4.5 10-10 10H10c-5.5 0-10-4.5-10-10V98c0-5.5 4.5-10 10-10z" fill-rule="evenodd" clip-rule="evenodd" fill="#fff"/></g></mask><g mask="url(#mask-2_1_)"><path id="Rectangle" class="st3" d="M0 88h512v335.3H0z"/><path id="Path" class="st4" d="M383.9 423.3L256 252l26.8 171.3z"/><path id="Path_1_" class="st4" d="M133.6 88L256 252 230.3 88z"/><path id="Path_2_" class="st4" d="M229.2 423.3L256 252 128.1 423.3z"/><path id="Path_3_" class="st4" d="M0 88v125.3L256 252 28.3 88z"/><path id="Path_4_" class="st4" d="M0 423.3h18.2L256 252 0 290.7z"/><path id="Path_5_" class="st4" d="M256 252l256-38.7V88h-28.3z"/><path id="Path_6_" class="st4" d="M281.7 88L256 252 378.4 88z"/><path id="Path_7_" class="st4" d="M512 423.3V290.7L256 252l237.8 171.3z"/><circle id="Oval" class="st4" cx="256.4" cy="256.4" r="59.4"/><circle id="Oval_1_" class="st3" cx="256.4" cy="256.4" r="44.5"/></g></g></g></svg>