<?xml version="1.0" encoding="utf-8"?>
<!-- Generator: Adobe Illustrator 25.0.0, SVG Export Plug-In . SVG Version: 6.00 Build 0)  -->
<svg version="1.1" id="Layer_1" xmlns="http://www.w3.org/2000/svg" xmlns:xlink="http://www.w3.org/1999/xlink" x="0px" y="0px"
	 viewBox="0 0 512 512" style="enable-background:new 0 0 512 512;" xml:space="preserve">
<style type="text/css">
	.st0{filter:url(#Adobe_OpacityMaskFilter);}
	.st1{fill-rule:evenodd;clip-rule:evenodd;fill:#FFFFFF;}
	.st2{mask:url(#mask-2_1_);}
	.st3{fill:#FFE15A;}
	.st4{fill:#FF4B55;}
</style>
<g id="Page-1">
	<g id="mk">
		<g id="Mask">
		</g>
		<defs>
			<filter id="Adobe_OpacityMaskFilter" filterUnits="userSpaceOnUse" x="0" y="88" width="512" height="335.4">
				<feColorMatrix  type="matrix" values="1 0 0 0 0  0 1 0 0 0  0 0 1 0 0  0 0 0 1 0"/>
			</filter>
		</defs>
		<mask maskUnits="userSpaceOnUse" x="0" y="88" width="512" height="335.4" id="mask-2_1_">
			<g class="st0">
				<path id="path-1_1_" class="st1" d="M10,88h492c5.5,0,10,4.5,10,10v316c0,5.5-4.5,10-10,10H10c-5.5,0-10-4.5-10-10V98
					C0,92.5,4.5,88,10,88z"/>
			</g>
		</mask>
		<g class="st2">
			<rect id="Rectangle" y="88" class="st3" width="512" height="335.3"/>
			<polygon id="Path" class="st4" points="383.9,423.3 256,252 282.8,423.3 			"/>
			<polygon id="Path_1_" class="st4" points="133.6,88 256,252 230.3,88 			"/>
			<polygon id="Path_2_" class="st4" points="229.2,423.3 256,252 128.1,423.3 			"/>
			<polygon id="Path_3_" class="st4" points="0,88 0,213.3 256,252 28.3,88 			"/>
			<polygon id="Path_4_" class="st4" points="0,423.3 18.2,423.3 256,252 0,290.7 			"/>
			<polygon id="Path_5_" class="st4" points="256,252 512,213.3 512,88 483.7,88 			"/>
			<polygon id="Path_6_" class="st4" points="281.7,88 256,252 378.4,88 			"/>
			<polygon id="Path_7_" class="st4" points="512,423.3 512,290.7 256,252 493.8,423.3 			"/>
			<circle id="Oval" class="st4" cx="256.4" cy="256.4" r="59.4"/>
			<circle id="Oval_1_" class="st3" cx="256.4" cy="256.4" r="44.5"/>
		</g>
	</g>
</g>
</svg>
