<svg xmlns="http://www.w3.org/2000/svg" viewBox="0 0 512 512" enable-background="new 0 0 512 512"><defs><filter id="a" filterUnits="userSpaceOnUse" x="0" y="88" width="512" height="335.4"><feColorMatrix values="1 0 0 0 0 0 1 0 0 0 0 0 1 0 0 0 0 0 1 0"/></filter></defs><mask maskUnits="userSpaceOnUse" x="0" y="88" width="512" height="335.4" id="b"><g filter="url(#a)"><path d="M10 88h492c5.5 0 10 4.5 10 10v316c0 5.5-4.5 10-10 10H10c-5.5 0-10-4.5-10-10V98c0-5.5 4.5-10 10-10z" fill-rule="evenodd" clip-rule="evenodd" fill="#fff"/></g></mask><g mask="url(#b)"><path fill="#73af00" d="M0 318.3h512v105.1H0z"/><path fill="#ff4b55" d="M0 191.7h512v126.8H0z"/><path fill="#41479b" d="M0 88h512v104.8H0z"/><g transform="translate(66 42)"><circle cx="125.8" cy="213.8" r="125.8" fill="#ffe15a" stroke="#464655" stroke-width="5.3"/><path d="M130.6 88l-.2 23.9 7.9-3.9 4.5 8.9-12.5 6.2-.1 18.9v.5c6 2.5 10.2 8.5 10.2 15.4s-4.2 12.9-10.2 15.4v11.5h12.2v8h-12.2V203c5.9 1.4 10.1 4.8 10.2 8.8v.2c0 4.1-4.3 7.7-10.2 9v9.3h12.2v8h-12.2v10.4c4.3 3.5 7.2 10.4 7.3 18.5v.4c0 8.2-3 15.3-7.3 18.8v8.9s12.2 1 17.7 3.3c3.7 1.6 9.8 6.6 15.7 12l.9.8c7.9 7.2 15.2 14.8 15.7 15.3l-25.4 9.6-28.9 3.4-30.2-1.9L67 325.4c.9-.9 23-23.5 32.5-26.8 6.9-2.4 17.9-3 17.9-3v-9.7c-4-3.7-6.7-10.5-6.7-18.4s2.7-14.7 6.7-18.4v-10.8h-12.5v-8h12.5v-9.7c-5.1-1.6-8.6-4.7-8.7-8.4v-.2c0-3.8 3.5-7 8.7-8.6v-10.6h-12.5v-8h12.5v-11.4c-6-2.5-10.2-8.3-10.3-15.1v-.3c0-7 4.3-12.9 10.3-15.5v-1.7l-.1-11.2-8.8 4.4-4.5-8.9 13.2-6.6-.1-30.5h13.5z" fill="#464655"/></g></g></svg>