<svg version="1.1" id="Layer_1" xmlns="http://www.w3.org/2000/svg" x="0" y="0" viewBox="0 0 512 512" xml:space="preserve" enable-background="new 0 0 512 512"><style>.st4{fill:#73af00}</style><g id="Page-1"><g id="nf"><defs><filter id="Adobe_OpacityMaskFilter" filterUnits="userSpaceOnUse" x="0" y="88.3" width="512" height="335.3"><feColorMatrix values="1 0 0 0 0 0 1 0 0 0 0 0 1 0 0 0 0 0 1 0"/></filter></defs><mask maskUnits="userSpaceOnUse" x="0" y="88.3" width="512" height="335.3" id="mask-2_1_"><g filter="url(#Adobe_OpacityMaskFilter)"><path id="path-1_1_" d="M10 88h492c5.5 0 10 4.5 10 10v316c0 5.5-4.5 10-10 10H10c-5.5 0-10-4.5-10-10V98c0-5.5 4.5-10 10-10z" fill-rule="evenodd" clip-rule="evenodd" fill="#fff"/></g></mask><g mask="url(#mask-2_1_)"><path id="Rectangle" fill="#fff" d="M0 88.3h512v335.3H0z"/><path id="Rectangle_1_" class="st4" d="M0 88.3h170.7v335.3H0z"/><path id="Rectangle_2_" class="st4" d="M341.3 88.3H512v335.3H341.3z"/><path id="Path" class="st4" d="M304 309l-48-152-48 152h36v40h24v-40z"/></g></g></g></svg>