<svg xmlns="http://www.w3.org/2000/svg" viewBox="0 0 512.001 512.001"><g fill="#41479b"><path d="M512 200.093H0V97.104a8.829 8.829 0 018.828-8.828h494.345a8.829 8.829 0 018.828 8.828L512 200.093zM503.172 423.725H8.828A8.829 8.829 0 010 414.897V311.909h512v102.988a8.828 8.828 0 01-8.828 8.828z"/></g><path fill="#f5f5f5" d="M0 200.091h512v111.81H0z"/><path fill="#afebff" d="M256 223.678l-26.927 39.599h53.854z"/><path fill="#557de6" d="M229.073 263.277l-17.424 25.344h88.702l-17.424-25.344z"/><g fill="#73af00"><path d="M262.891 261.064c.107-.221.22-.438.317-.664-.096.224-.21.443-.317.664zM263.633 259.239c.066-.199.146-.392.203-.594-.058.201-.138.394-.203.594zM261.975 262.725c.136-.217.27-.433.397-.655-.126.223-.262.439-.397.655zM266.091 255.348zM264.83 255.766a1.58 1.58 0 00-.617 1.043v.002-.002c.053-.416.281-.782.617-1.043zM264.013 267.585c.377.358.751.698 1.127 1.024 2.01-1.74 4.108-3.951 5.58-6.538-.106.185-.22.365-.332.547-1.375-2.528-2.101-4.715-2.453-6.012-.201-.74-.967-1.256-1.842-1.257.337 2.954 1.061 8.383-2.08 12.236zM271.98 259.239c.066-.199.146-.392.203-.594-.057.201-.137.394-.203.594zM273.178 255.766a1.58 1.58 0 00-.617 1.043v.002-.002c.053-.416.281-.782.617-1.043zM271.24 261.064c.107-.221.22-.438.317-.664-.098.224-.21.443-.317.664z"/><path d="M288.339 269.613c-3.053 0-5.942-1.465-7.706-3.957-2.657-3.754-3.862-7.254-4.349-9.049-.201-.742-.969-1.258-1.845-1.258l.003.001c.402 3.526 1.358 10.575-4.371 14.264h-3.73c-.153-.121-.302-.237-.459-.365l.01.009c-1.044 1.363-3.132 1.745-4.751.91-6.778-3.492-5.726-11.109-5.303-14.818-.875.001-1.641.516-1.842 1.257-.352 1.297-1.078 3.484-2.453 6.012-.111-.182-.226-.361-.332-.547 1.656 2.91 4.113 5.366 6.333 7.186-1.044 1.363-3.132 1.745-4.751.91-6.778-3.492-5.726-11.11-5.303-14.818-.875.001-1.641.516-1.842 1.257-.352 1.297-1.078 3.484-2.453 6.012-.111-.182-.226-.361-.332-.547 1.656 2.91 4.113 5.366 6.333 7.186-1.044 1.363-3.132 1.745-4.751.91-6.778-3.492-5.726-11.109-5.303-14.818l.003-.001c-.876 0-1.644.515-1.845 1.258-.487 1.795-1.692 5.295-4.349 9.049-1.763 2.493-4.652 3.957-7.706 3.957h-2.508v3.168h66.526v-3.168h-.924z"/><path d="M258.724 260.399c.097.226.21.444.317.664-.107-.22-.221-.439-.317-.664zM258.098 258.644c.056.202.137.395.203.594-.067-.199-.147-.392-.203-.594zM257.719 256.812v-.002a1.58 1.58 0 010 0v.002zM259.56 262.071c.127.223.262.438.397.655-.135-.217-.27-.433-.397-.655zM261.015 264.267c-.017-.021-.031-.043-.047-.065.136-.181.266-.363.397-.548-.13.184-.264.366-.399.546a17.692 17.692 0 01.049.067zM261.711 265.143c.154.185.308.37.466.548-.158-.178-.312-.363-.466-.548zM263.403 267.001c-.148-.148-.292-.303-.438-.456.147.154.29.308.438.456z"/></g><path d="M274.442 255.349l-.003-.001c-.481 0-.925.157-1.261.418a1.58 1.58 0 00-.617 1.043v.002a12.651 12.651 0 01-.378 1.833c-.056.202-.137.395-.203.594-.129.392-.262.782-.424 1.161-.097.226-.21.444-.317.664-.164.34-.332.679-.519 1.007-1.472 2.586-3.57 4.798-5.58 6.538a32.356 32.356 0 01-1.127-1.024c3.14-3.853 2.417-9.282 2.081-12.236l-.003-.001c-.241 0-.472.04-.685.111a1.976 1.976 0 00-.576.307 1.58 1.58 0 00-.617 1.043v.002a12.521 12.521 0 01-.379 1.833c-.056.202-.137.395-.203.594-.129.392-.262.782-.424 1.161-.097.226-.21.444-.317.664-.164.34-.332.679-.519 1.007-.127.223-.262.438-.397.655a19.74 19.74 0 01-1.007 1.475 19.233 19.233 0 01-1.011-1.475c-.136-.217-.27-.433-.397-.655a17.1 17.1 0 01-.519-1.007c-.107-.221-.22-.438-.317-.664a14.231 14.231 0 01-.424-1.161c-.066-.199-.146-.392-.203-.594-.168-.598-.3-1.208-.378-1.833v-.002a1.573 1.573 0 00-.617-1.043 2.047 2.047 0 00-1.26-.418l-.003.001c-.422 3.709-1.475 11.326 5.303 14.818a4.013 4.013 0 003.591.024c.687-.346 1.425-.578 2.194-.578h3.146c5.728-3.688 4.772-10.738 4.37-14.263z" fill="#ffe15a"/><g fill="#73af00"><path d="M249.749 258.644c.056.202.137.395.203.594-.066-.199-.146-.392-.203-.594zM249.37 256.812v-.002a1.58 1.58 0 010 0v.002zM250.376 260.399c.097.226.21.444.317.664-.108-.22-.22-.439-.317-.664zM247.494 255.348z"/></g><path d="M252.793 270.167c1.62.834 3.708.452 4.751-.91-2.22-1.82-4.676-4.275-6.333-7.186a17.1 17.1 0 01-.519-1.007c-.107-.221-.22-.438-.317-.664a14.231 14.231 0 01-.424-1.161c-.066-.199-.146-.392-.203-.594-.168-.598-.3-1.208-.378-1.833v-.002a1.573 1.573 0 00-.617-1.043c-.168-.13-.363-.235-.576-.307s-.444-.111-.685-.111l-.003.001c-.421 3.708-1.474 11.324 5.304 14.817z" fill="#ffe15a"/><g fill="#73af00"><path d="M241.401 258.644c.056.202.137.395.203.594-.066-.199-.146-.392-.203-.594zM242.028 260.399c.097.226.21.444.317.664-.107-.22-.221-.439-.317-.664zM241.023 256.812v-.002a1.58 1.58 0 010 0v.002z"/></g><path d="M244.446 270.167c1.62.834 3.708.452 4.751-.91-2.22-1.82-4.676-4.275-6.333-7.186a17.1 17.1 0 01-.519-1.007c-.107-.221-.22-.438-.317-.664a14.231 14.231 0 01-.424-1.161c-.066-.199-.146-.392-.203-.594-.168-.598-.3-1.208-.378-1.833v-.002a1.573 1.573 0 00-.617-1.043 2.048 2.048 0 00-1.261-.418l-.003.001c-.422 3.708-1.476 11.324 5.304 14.817z" fill="#ffe15a"/><path d="M242.655 242.753l-.395 1.516a49.518 49.518 0 0114.274-2.076c5.178.003 9.95.776 14.274 2.076l-.395-1.516a55.262 55.262 0 00-13.879-1.746 55.32 55.32 0 00-13.879 1.746z" fill="#41479b"/><path d="M242.827 242.094l-.395 1.516c4.276-1.3 8.99-2.08 14.102-2.082a48.34 48.34 0 0114.102 2.082l-.395-1.516a53.764 53.764 0 00-13.707-1.752 53.892 53.892 0 00-13.707 1.752z" fill="#5aa0e6"/><path d="M242.986 241.485l-.395 1.516a47.119 47.119 0 0113.943-2.088c5.053 0 9.71.783 13.943 2.088l-.395-1.516a52.546 52.546 0 00-13.548-1.759 52.508 52.508 0 00-13.548 1.759z" fill="#9bc800"/><path d="M243.167 240.789l-.395 1.516a45.895 45.895 0 0113.762-2.095c4.982.002 9.578.786 13.762 2.095l-.395-1.516a51.16 51.16 0 00-13.367-1.766c-4.758.001-9.21.644-13.367 1.766z" fill="#ffe14e"/><path d="M243.346 240.105l-.395 1.516a44.735 44.735 0 0113.583-2.102 44.73 44.73 0 0113.583 2.102l-.395-1.516a49.713 49.713 0 00-13.188-1.772 49.678 49.678 0 00-13.188 1.772z" fill="#ffb14e"/><path d="M243.421 239.813l-.277 1.062a43.45 43.45 0 0113.389-2.11 43.317 43.317 0 0113.389 2.11l-.277-1.062a49.106 49.106 0 00-13.113-1.775 48.907 48.907 0 00-13.111 1.775z" fill="#ff4b55"/><path d="M300.352 290.158h-88.703a1.587 1.587 0 01-1.397-.835 1.589 1.589 0 01.079-1.628l44.352-66.527c.588-.878 2.048-.878 2.636 0l44.352 66.527a1.585 1.585 0 01-1.319 2.463zm-85.745-3.168h82.785L256 224.903l-41.393 62.087z" fill="#ffe15a"/><path d="M259.029 248.933c0-1.394-1.412-3.512-3.673-3.512-1.321 0-2.392.808-2.392 1.803 0 .498.267.947.698 1.273l-.004.055c-.54.331-.892.829-.892 1.394 0 .95.979 1.72 2.216 1.79l1.018 2.036.919-1.838c1.207-.307 2.11-1.531 2.11-3.001z" fill="#ff4b55"/></svg>