<svg xmlns="http://www.w3.org/2000/svg" viewBox="0 0 512.001 512.001"><path d="M503.172 423.725H8.828A8.829 8.829 0 010 414.897V97.104a8.829 8.829 0 018.828-8.828h494.345a8.829 8.829 0 018.828 8.828v317.793a8.83 8.83 0 01-8.829 8.828z" fill="#f5f5f5"/><path d="M11.476 110.877l182.888 133.649H53.442l17.156 19.137L203.815 412.25H11.476V110.877M3.081 90.529C1.228 92.148 0 94.452 0 97.104v317.793a8.829 8.829 0 008.828 8.828h220.69L79.144 256.001h150.374L3.081 90.529z" fill="#41479b"/><path fill="#ff4b55" d="M11.476 110.877l182.888 133.648H53.442L70.6 263.661l133.216 148.588H11.476V110.877"/><g fill="#f5f5f5"><path d="M67.345 296.399l7.066 14.583 13.411-9.096a.856.856 0 011.334.77l-1.171 16.162 16.162-1.171a.856.856 0 01.77 1.334l-9.096 13.411 14.583 7.066a.856.856 0 010 1.54l-14.583 7.066 9.096 13.411a.856.856 0 01-.77 1.334l-16.162-1.171 1.171 16.162a.856.856 0 01-1.334.77l-13.411-9.096-7.066 14.583a.856.856 0 01-1.54 0l-7.066-14.583-13.411 9.096a.856.856 0 01-1.334-.77l1.171-16.162-16.162 1.171a.856.856 0 01-.77-1.334l9.096-13.411-14.586-7.063a.856.856 0 010-1.54l14.583-7.066-9.096-13.411a.856.856 0 01.77-1.334l16.162 1.171-1.171-16.162a.856.856 0 011.334-.77l13.411 9.096 7.066-14.583a.857.857 0 011.543-.003zM85.694 212.062l-6.135-4.191 5.401-5.661-7.697-1.405 2.632-7.367-7.603 1.847-.593-7.8-6.194 4.779-3.713-6.884-3.714 6.886-6.194-4.779-.593 7.8-7.603-1.847 2.632 7.367-7.697 1.405 5.401 5.661-6.135 4.191c-7.741-3.614-14.547-8.895-19.903-15.427 3.598 20.961 21.815 36.929 43.804 36.929s40.205-15.968 43.804-36.929c-5.353 6.531-12.16 11.811-19.9 15.425z"/></g></svg>