<svg xmlns="http://www.w3.org/2000/svg" viewBox="0 0 512.001 512.001"><path d="M503.172 423.724H8.828A8.829 8.829 0 010 414.896V97.104a8.829 8.829 0 018.828-8.828h494.345a8.829 8.829 0 018.828 8.828v317.792a8.83 8.83 0 01-8.829 8.828z" fill="#ffe15a"/><path d="M247.172 256H8.828A8.829 8.829 0 010 247.172V97.104a8.829 8.829 0 018.828-8.828h238.344A8.829 8.829 0 01256 97.104v150.069a8.827 8.827 0 01-8.828 8.827z" fill="#41479b"/><path d="M247.172 88.276h-15.333l-81.77 53.573V88.276h-44.138v53.573l-81.77-53.573H8.828A8.829 8.829 0 000 97.104v7.002l70.155 45.963H0v44.138h70.155L0 240.171v7.001A8.829 8.829 0 008.828 256h15.333l81.77-53.573V256h44.138v-53.573L231.838 256h15.333a8.829 8.829 0 008.828-8.828v-7.002l-70.154-45.963h70.154v-44.138h-70.155l70.155-45.963v-7.002a8.827 8.827 0 00-8.827-8.828z" fill="#f5f5f5"/><g fill="#ff4b55"><path d="M255.999 158.897H141.241V88.276h-26.483v70.621H0v26.482h114.758V256h26.483v-70.621h114.758z"/><path d="M97.103 150.069L4.207 89.768C1.735 91.333 0 93.961 0 97.104v.458l80.889 52.507h16.214zM166.283 150.069l88.374-57.366c-1.536-2.599-4.246-4.427-7.485-4.427h-1.909l-95.194 61.793h16.214zM89.474 194.207L1.269 251.463C2.79 254.125 5.542 256 8.828 256h1.665l95.195-61.793H89.474zM255.859 247.867l-82.666-53.659H156.98l93.873 60.934c2.813-1.305 4.741-4.04 5.006-7.275z"/></g><circle cx="128" cy="172.14" r="26.483" fill="#41479b"/><g fill="#ffe15a"><path d="M129.787 150.668l4.425 13.266 13.984.108c1.811.014 2.561 2.325 1.105 3.4l-11.25 8.307 4.218 13.333c.546 1.726-1.419 3.154-2.892 2.101L128 183.052l-11.377 8.131c-1.473 1.053-3.438-.375-2.892-2.101l4.218-13.333-11.25-8.307c-1.457-1.076-.706-3.386 1.105-3.4l13.984-.108 4.425-13.266c.572-1.718 3.002-1.718 3.574 0zM56.501 161.474l2.379 7.133 7.519.058c.973.008 1.377 1.25.594 1.828l-6.048 4.467 2.268 7.168c.294.928-.764 1.696-1.555 1.13l-6.116-4.372-6.116 4.372c-.792.566-1.848-.202-1.555-1.13l2.268-7.168-6.048-4.467c-.783-.578-.38-1.821.594-1.828l7.519-.058 2.379-7.133c.305-.923 1.61-.923 1.918 0zM202.085 161.474l2.379 7.133 7.519.058c.973.008 1.377 1.25.594 1.828l-6.048 4.467 2.268 7.168c.294.928-.764 1.696-1.555 1.13l-6.116-4.372-6.116 4.372c-.792.566-1.848-.202-1.555-1.13l2.268-7.168-6.048-4.467c-.783-.578-.38-1.821.594-1.828l7.519-.058 2.379-7.133c.305-.923 1.61-.923 1.918 0zM129.074 107.894l2.379 7.133 7.519.058c.973.008 1.377 1.25.594 1.828l-6.049 4.466 2.268 7.168c.294.928-.764 1.696-1.555 1.13l-6.116-4.372-6.116 4.372c-.792.566-1.848-.202-1.555-1.13l2.268-7.168-6.048-4.467c-.783-.578-.38-1.821.594-1.828l7.519-.058 2.379-7.133c.305-.922 1.612-.922 1.919.001zM129.074 216.316l2.379 7.133 7.519.058c.973.008 1.377 1.25.594 1.828l-6.049 4.466 2.268 7.168c.294.928-.764 1.696-1.555 1.13l-6.116-4.372-6.116 4.372c-.792.566-1.848-.202-1.555-1.13l2.268-7.168-6.048-4.467c-.783-.578-.38-1.821.594-1.828l7.519-.058 2.379-7.133c.305-.922 1.612-.922 1.919.001z"/></g></svg>