<svg version="1.1" id="Layer_1" xmlns="http://www.w3.org/2000/svg" x="0" y="0" viewBox="0 0 512 512" xml:space="preserve"><style>.st2{fill:#ff4b55}</style><g id="Page-1"><g id="sh"><path id="Path" d="M503.2 423.7H8.8c-4.9 0-8.8-4-8.8-8.8V97.1c0-4.9 4-8.8 8.8-8.8h494.3c4.9 0 8.8 4 8.8 8.8v317.8c.1 4.9-3.9 8.8-8.7 8.8z" fill="#41479b"/><g id="union-flag"><path id="Path_1_" d="M247.2 88.3h-15.3l-81.8 53.6V88.3H106v53.6L24.2 88.3H8.8c-4.9 0-8.8 4-8.8 8.8v7l70.2 46H0v44.1h70.2L0 240.2v7c0 4.9 4 8.8 8.8 8.8h15.3l81.8-53.6V256H150v-53.6l81.8 53.6h15.3c4.9 0 8.8-4 8.8-8.8v-7l-70.2-46H256v-44.1h-70.2l70.2-46v-7c0-4.9-4-8.8-8.8-8.8z" fill="#f5f5f5"/><path id="Path_2_" class="st2" d="M256 158.9H141.2V88.3h-26.4v70.6H0v26.5h114.8V256h26.4v-70.6H256z"/><path id="Path_3_" class="st2" d="M97.1 150.1L4.2 89.8C1.7 91.3 0 94 0 97.1v.5l80.9 52.5h16.2z"/><path id="Path_4_" class="st2" d="M166.3 150.1l88.4-57.4c-1.5-2.6-4.2-4.4-7.5-4.4h-1.9l-95.2 61.8h16.2z"/><path id="Path_5_" class="st2" d="M89.5 194.2L1.3 251.5c1.5 2.7 4.3 4.5 7.6 4.5h1.7l95.2-61.8H89.5z"/><path id="Path_6_" class="st2" d="M255.9 247.9l-82.7-53.7H157l93.9 60.9c2.8-1.3 4.7-4 5-7.2z"/></g><g id="shield" transform="translate(318 75)"><path id="Path_7_" d="M131 146.7c-.1 44.4-7.2 92.1-65 114.9C8.2 238.8 1.1 191.1 1 146.7h130z" fill="#8dccff"/><path id="Path_8_" d="M131 146.7c0-16.7-.9-32.9-.5-47.1C108.9 90 80.4 88 65.9 88S23 90 1.3 99.6c.4 14.2-.5 30.4-.5 47.1H131z" fill="#ffe15a"/><path id="Path_9_" d="M51.5 211.5l.3 10.3-12.8.2 4.9 13.2H26.6C8.6 215 3.2 192.8 1.7 167.1l9.1-9.7 8.3 14.3 10.8-12.8 7 7.8.8 15.7 13.8 29.1z" fill="#b95546"/><path id="Path_10_" fill="#464655" d="M118.6 199.5l-8.6 18.3H63l-29.2-19.5 25.7 10.5h25.1l3.7-6.5 7.2.2 2-3z"/></g></g></g></svg>