<?xml version="1.0" encoding="utf-8"?>
<!-- Generator: Adobe Illustrator 25.0.0, SVG Export Plug-In . SVG Version: 6.00 Build 0)  -->
<svg version="1.1" id="Layer_1" xmlns="http://www.w3.org/2000/svg" xmlns:xlink="http://www.w3.org/1999/xlink" x="0px" y="0px"
	 viewBox="0 0 512 512" style="enable-background:new 0 0 512 512;" xml:space="preserve">
<style type="text/css">
	.st0{fill:#41479B;}
	.st1{fill:#F5F5F5;}
	.st2{fill:#FF4B55;}
	.st3{fill:#8DCCFF;}
	.st4{fill:#FFE15A;}
	.st5{fill:#B95546;}
	.st6{fill:#464655;}
</style>
<g id="Page-1">
	<g id="sh">
		<path id="Path" class="st0" d="M503.2,423.7H8.8c-4.9,0-8.8-4-8.8-8.8V97.1c0-4.9,4-8.8,8.8-8.8h494.3c4.9,0,8.8,4,8.8,8.8v317.8
			C512,419.8,508,423.7,503.2,423.7z"/>
		<g id="union-flag">
			<path id="Path_1_" class="st1" d="M247.2,88.3h-15.3l-81.8,53.6V88.3H106v53.6L24.2,88.3H8.8c-4.9,0-8.8,4-8.8,8.8v7l70.2,46H0
				v44.1h70.2L0,240.2v7c0,4.9,4,8.8,8.8,8.8h15.3l81.8-53.6V256H150v-53.6l81.8,53.6h15.3c4.9,0,8.8-4,8.8-8.8v-7l-70.2-46H256
				v-44.1h-70.2l70.2-46v-7C256,92.2,252,88.3,247.2,88.3z"/>
			<polygon id="Path_2_" class="st2" points="256,158.9 141.2,158.9 141.2,88.3 114.8,88.3 114.8,158.9 0,158.9 0,185.4 
				114.8,185.4 114.8,256 141.2,256 141.2,185.4 256,185.4 			"/>
			<path id="Path_3_" class="st2" d="M97.1,150.1L4.2,89.8C1.7,91.3,0,94,0,97.1v0.5l80.9,52.5H97.1z"/>
			<path id="Path_4_" class="st2" d="M166.3,150.1l88.4-57.4c-1.5-2.6-4.2-4.4-7.5-4.4h-1.9l-95.2,61.8H166.3L166.3,150.1z"/>
			<path id="Path_5_" class="st2" d="M89.5,194.2L1.3,251.5c1.5,2.7,4.3,4.5,7.6,4.5h1.7l95.2-61.8H89.5L89.5,194.2z"/>
			<path id="Path_6_" class="st2" d="M255.9,247.9l-82.7-53.7H157l93.9,60.9C253.7,253.8,255.6,251.1,255.9,247.9z"/>
		</g>
		<g id="shield" transform="translate(318.000000, 75.000000)">
			<path id="Path_7_" class="st3" d="M131,146.7c-0.1,44.4-7.2,92.1-65,114.9C8.2,238.8,1.1,191.1,1,146.7H131L131,146.7z"/>
			<path id="Path_8_" class="st4" d="M131,146.7c0-16.7-0.9-32.9-0.5-47.1C108.9,90,80.4,88,65.9,88S23,90,1.3,99.6
				c0.4,14.2-0.5,30.4-0.5,47.1H131z"/>
			<path id="Path_9_" class="st5" d="M51.5,211.5l0.3,10.3L39,222l4.9,13.2H26.6C8.6,215,3.2,192.8,1.7,167.1l9.1-9.7l8.3,14.3
				l10.8-12.8l7,7.8l0.8,15.7L51.5,211.5z"/>
			<polygon id="Path_10_" class="st6" points="118.6,199.5 110,217.8 63,217.8 33.8,198.3 59.5,208.8 84.6,208.8 88.3,202.3 
				95.5,202.5 97.5,199.5 			"/>
		</g>
	</g>
</g>
</svg>
