<svg version="1.1" id="Layer_1" xmlns="http://www.w3.org/2000/svg" x="0" y="0" viewBox="0 0 512 512" xml:space="preserve" enable-background="new 0 0 512 512"><style>.st4{fill:#ff4b55}.st6{fill:#ffe15a}</style><g id="Page-1"><g id="sx"><defs><filter id="Adobe_OpacityMaskFilter" filterUnits="userSpaceOnUse" x="0" y="88.3" width="512" height="335.3"><feColorMatrix values="1 0 0 0 0 0 1 0 0 0 0 0 1 0 0 0 0 0 1 0"/></filter></defs><mask maskUnits="userSpaceOnUse" x="0" y="88.3" width="512" height="335.3" id="mask-2_1_"><g filter="url(#Adobe_OpacityMaskFilter)"><path id="path-1_1_" d="M10 88h492c5.5 0 10 4.5 10 10v316c0 5.5-4.5 10-10 10H10c-5.5 0-10-4.5-10-10V98c0-5.5 4.5-10 10-10z" fill-rule="evenodd" clip-rule="evenodd" fill="#fff"/></g></mask><g mask="url(#mask-2_1_)"><path id="Rectangle" fill="#41479b" d="M0 88.3h512v335.3H0z"/><path id="Path" class="st4" d="M512 88.3v163.8L0 256.2V88.3z"/><path id="Path_1_" fill="#fff" d="M256 254.4L0 423.7V88.3z"/><g id="shield" transform="translate(59.428 107.001)"><path id="Path_2_" class="st6" d="M.2 152c-.1 1.5-.2 3-.2 4.6C0 189.4 26.6 216 59.4 216s59.4-26.6 59.4-59.4c0-1.5-.1-3.1-.2-4.6H.2z"/><circle id="Oval" class="st6" cx="59.4" cy="106.3" r="18.3"/><path id="Path_3_" class="st4" d="M18.3 101.7v59.4c0 31.5 41.1 41.1 41.1 41.1s41.1-9.6 41.1-41.1v-59.4H18.3z"/><path id="Path_4_" d="M59.4 183.1c-7.6-2.7-22.9-9.8-22.9-22V120h45.7v41.1c.1 12.3-15.2 19.3-22.8 22z" fill="#8dccff"/><path id="Path_5_" fill="#f3f3f3" d="M68.6 142.9v-9.2l-9.2-4.6-9.1 4.6v9.2l-4.6 4.5v18.3h27.4v-18.3z"/></g></g></g></g></svg>