<svg version="1.1" id="Layer_1" xmlns="http://www.w3.org/2000/svg" x="0" y="0" viewBox="0 0 512 512" xml:space="preserve" enable-background="new 0 0 512 512"><style>.st4{fill:#41479b}.st5{fill:#fff}</style><g id="Page-1"><g id="tf"><g id="Mask"><path id="path-1_1_" d="M10 88h492c5.5 0 10 4.5 10 10v316c0 5.5-4.5 10-10 10H10c-5.5 0-10-4.5-10-10V98c0-5.5 4.5-10 10-10z" fill-rule="evenodd" clip-rule="evenodd" fill="#d8d8d8"/></g><defs><filter id="Adobe_OpacityMaskFilter" filterUnits="userSpaceOnUse" x="0" y="88" width="512" height="336"><feColorMatrix values="1 0 0 0 0 0 1 0 0 0 0 0 1 0 0 0 0 0 1 0"/></filter></defs><mask maskUnits="userSpaceOnUse" x="0" y="88" width="512" height="336" id="mask-2_1_"><g filter="url(#Adobe_OpacityMaskFilter)"><path id="path-1_2_" d="M10 88h492c5.5 0 10 4.5 10 10v316c0 5.5-4.5 10-10 10H10c-5.5 0-10-4.5-10-10V98c0-5.5 4.5-10 10-10z" fill-rule="evenodd" clip-rule="evenodd" fill="#fff"/></g></mask><g mask="url(#mask-2_1_)"><path id="Path" class="st4" d="M0 88h512v336H0z"/><path id="Path_1_" class="st5" d="M0 88h256.5v170.2H0z"/><path id="Path_2_" fill="#ff4b55" d="M161.2 88h81.7v158.9h-81.7z"/><path id="Path_3_" class="st4" d="M0 88h81.7v158.9H0z"/><path id="Path_4_" class="st5" d="M81.7 88h81.7v158.9H81.7z"/><path id="Shape" class="st5" d="M329.1 224.2h113.5l-11.3 22.7h-34v11.3H420l-11.3 22.7h-11.3v34h-22.7v-68.1h-34l-11.6-22.6zm90.8 56.7l22.7 34h-45.4l22.7-34zm-68.1 0l22.7 34h-45.4l22.7-34zm34.1 68.1l-22.7-34h45.4l-22.7 34zm68-79.4c-6.8 0-11.3-4.5-11.3-11.3 0-6.8 4.5-11.3 11.3-11.3s11.3 4.5 11.3 11.3c.1 6.7-4.4 11.3-11.3 11.3zm-136.1 0c-6.8 0-11.3-4.5-11.3-11.3 0-6.8 4.5-11.3 11.3-11.3s11.3 4.5 11.3 11.3c0 6.7-4.5 11.3-11.3 11.3zm22.7 90.8c-6.8 0-11.3-4.5-11.3-11.3 0-6.8 4.5-11.3 11.3-11.3s11.3 4.5 11.3 11.3c0 6.7-4.5 11.3-11.3 11.3zm90.7 0c-6.8 0-11.3-4.5-11.3-11.3 0-6.8 4.5-11.3 11.3-11.3s11.3 4.5 11.3 11.3c.1 6.7-4.4 11.3-11.3 11.3zm-45.3 22.7c-6.8 0-11.3-4.5-11.3-11.3 0-6.8 4.5-11.3 11.3-11.3s11.3 4.5 11.3 11.3c0 6.7-4.5 11.3-11.3 11.3z"/></g></g></g></svg>