<?xml version="1.0" encoding="utf-8"?>
<!-- Generator: Adobe Illustrator 25.0.0, SVG Export Plug-In . SVG Version: 6.00 Build 0)  -->
<svg version="1.1" id="Layer_1" xmlns="http://www.w3.org/2000/svg" xmlns:xlink="http://www.w3.org/1999/xlink" x="0px" y="0px"
	 viewBox="0 0 512 512" style="enable-background:new 0 0 512 512;" xml:space="preserve">
<style type="text/css">
	.st0{fill:#41479B;}
	.st1{fill:#FFFFFF;}
	.st2{fill:#FFE15A;}
</style>
<g id="Page-1">
	<g id="tk">
		<path id="Rectangle" class="st0" d="M10,87.8h492c5.5,0,10,4.5,10,10v316c0,5.5-4.5,10-10,10H10c-5.5,0-10-4.5-10-10v-316
			C0,92.3,4.5,87.8,10,87.8z"/>
		<g id="Group" transform="translate(50.000000, 34.000000)">
			<polygon id="Path" class="st1" points="160.7,142.9 164.4,154.2 176.3,154.2 166.7,161.2 170.4,172.6 160.7,165.6 151.1,172.6 
				154.8,161.2 145.1,154.2 157,154.2 			"/>
			<polygon id="Path_1_" class="st1" points="66.8,250.5 71.4,264.6 86.3,264.6 74.3,273.4 78.9,287.6 66.8,278.8 54.8,287.6 
				59.4,273.4 47.3,264.6 62.2,264.6 			"/>
			<polygon id="Path_2_" class="st1" points="94.7,88.2 99.3,102.4 114.2,102.4 102.1,111.1 106.8,125.3 94.7,116.5 82.6,125.3 
				87.2,111.1 75.2,102.4 90.1,102.4 			"/>
			<polygon id="Path_3_" class="st1" points="19.5,143.8 24.1,158 39,158 27,166.8 31.6,180.9 19.5,172.2 7.5,180.9 12.1,166.8 
				0,158 14.9,158 			"/>
		</g>
		<g id="Group_1_" transform="translate(109.000000, 48.000000)">
			<path id="Path_4_" class="st2" d="M374.4,309H8.8c0,0,109.2-88.6,310.6-220.9C319.4,88.1,231,217,374.4,309z"/>
			<path id="Path_5_" class="st2" d="M8.8,320.6c-11.2,0-11.2,17.4,0,17.4h365.6c11.2,0,11.2-17.4,0-17.4H8.8z"/>
		</g>
	</g>
</g>
</svg>
