<?xml version="1.0" encoding="utf-8"?>
<!-- Generator: Adobe Illustrator 25.1.0, SVG Export Plug-In . SVG Version: 6.00 Build 0)  -->
<svg version="1.1" id="Layer_1" xmlns="http://www.w3.org/2000/svg" xmlns:xlink="http://www.w3.org/1999/xlink" x="0px" y="0px"
	 viewBox="0 0 512 512" style="enable-background:new 0 0 512 512;" xml:space="preserve">
<style type="text/css">
	.st0{fill:#F5F5F5;}
	.st1{fill:#FFE15A;}
	.st2{fill:#41479B;}
	.st3{fill:#464655;}
	.st4{fill:#73AF00;}
	.st5{fill:#FF4B55;}
</style>
<path class="st0" d="M503,88.3H9c-5,0-9,4-9,9v318c0,4.2,2.9,7.7,6.8,8.7h498.3c3.9-1,6.8-4.5,6.8-8.7v-318
	C512,92.3,508,88.3,503,88.3z"/>
<g id="rings">
	<path class="st1" d="M241,285.4c-1.2,25.1-22,45.2-47.4,45.2c-26.2,0-47.5-21.3-47.5-47.5c0-20.6,13.3-38.2,31.7-44.8
		c0.6-3.6,0.9-7.2,0.7-10.8c-24.5,6.6-42.5,29-42.5,55.6c0,31.8,25.8,57.6,57.6,57.6c30.4,0,55.4-23.7,57.4-53.6
		C247.7,286.9,244.3,286.3,241,285.4z"/>
	<path class="st1" d="M188.4,236c1.7-0.2,3.4-0.3,5.2-0.3c23.2,0,42.6,16.8,46.7,38.9c3.4,1.2,7,2,10.6,2.4
		c-3.1-28.9-27.6-51.4-57.3-51.4c-1.7,0-3.4,0.1-5,0.2C188.8,229.2,188.8,232.6,188.4,236z"/>
	<path class="st2" d="M136,283.2c0-2.1,0.1-4.1,0.3-6.1c-1.7,0.2-3.4,0.3-5.1,0.3c-26.2,0-47.5-21.3-47.5-47.5s21.3-47.5,47.5-47.5
		s47.5,21.3,47.5,47.5c0,20.7-13.3,38.3-31.8,44.8c-0.5,2.8-0.8,5.6-0.8,8.6c0,0.8,0,1.5,0.1,2.3c22.6-6.1,39.7-25.6,42.3-49.5h-0.1
		c0.4-3.4,0.4-6.8,0.2-10.2c0,0,0,0,0.1,0c-2.1-29.9-27-53.6-57.4-53.6c-31.8,0-57.6,25.8-57.6,57.6s25.8,57.6,57.6,57.6
		c1.7,0,3.3-0.1,5-0.2C136.1,285.9,136,284.5,136,283.2z"/>
	<path class="st3" d="M256,277.3c-23.3,0-42.6-16.8-46.7-38.9c-3.4-1.2-6.9-2-10.6-2.4c2.5,23.8,19.7,43.4,42.3,49.5l0,0
		c3.2,0.9,6.6,1.5,9.9,1.8c1.7,0.1,3.4,0.2,5.1,0.2s3.3-0.1,5-0.2c-0.1-1.3-0.2-2.7-0.2-4c0-2.1,0.1-4.1,0.3-6.1
		C259.5,277.2,257.7,277.3,256,277.3z"/>
	<path class="st3" d="M313.4,225.8L313.4,225.8c-2-29.9-27-53.6-57.4-53.6s-55.4,23.7-57.4,53.6c3.4,0.3,6.8,0.9,10,1.8
		c1.2-25.1,22-45.2,47.4-45.2c26.2,0,47.5,21.3,47.5,47.5c0,20.7-13.3,38.3-31.8,44.8c-0.5,2.8-0.8,5.6-0.8,8.6c0,0.8,0,1.5,0.1,2.3
		c22.6-6.1,39.7-25.6,42.3-49.5h-0.1C313.5,232.6,313.6,229.2,313.4,225.8z"/>
	<path class="st4" d="M318.4,235.7c23.2,0,42.6,16.8,46.7,38.9c3.4,1.2,7,2,10.6,2.4c-3.1-28.9-27.6-51.4-57.3-51.4
		c-1.7,0-3.4,0.1-5,0.2c0.2,3.4,0.2,6.8-0.2,10.2C314.9,235.8,316.6,235.7,318.4,235.7z"/>
	<path class="st4" d="M365.8,285.4c-1.2,25.1-22,45.2-47.4,45.2c-26.2,0-47.5-21.3-47.5-47.5c0-20.6,13.3-38.2,31.7-44.8
		c0.6-3.6,0.9-7.2,0.7-10.8c-24.5,6.6-42.5,29-42.5,55.6c0,31.8,25.8,57.6,57.6,57.6c30.4,0,55.4-23.7,57.4-53.6
		C372.4,286.9,369.1,286.3,365.8,285.4z"/>
	<path class="st5" d="M380.8,172.2c-30.4,0-55.4,23.7-57.4,53.6c3.4,0.3,6.8,0.9,10,1.8c1.2-25.1,22-45.2,47.4-45.2
		c26.2,0,47.5,21.3,47.5,47.5s-21.3,47.5-47.5,47.5c-23.3,0-42.6-16.8-46.7-38.9c-3.4-1.2-6.9-2-10.6-2.4
		c2.5,23.8,19.7,43.4,42.3,49.5l0,0c3.2,0.9,6.6,1.5,9.9,1.8c1.7,0.1,3.4,0.2,5.1,0.2c31.8,0,57.6-25.8,57.6-57.6
		C438.4,198.1,412.6,172.2,380.8,172.2z"/>
</g>
</svg>
