<svg version="1.1" id="Layer_1" xmlns="http://www.w3.org/2000/svg" x="0" y="0" viewBox="0 0 512 512" xml:space="preserve"><style>.st0{fill:#fff}.st1{fill:#b4b4b4;stroke:#7f7f7f;stroke-width:.25}.st4{fill:#ffe15a}</style><g id="Page-1"><g id="yt"><path id="Rectangle" class="st0" d="M10 88h492c5.5 0 10 4.5 10 10v316c0 5.5-4.5 10-10 10H10c-5.5 0-10-4.5-10-10V98c0-5.5 4.5-10 10-10z"/><path id="Path" class="st1" d="M72.8 307s22.8 9.1 6.8-2.8c-13.7-9.7-28.4 13.7-28.4 29 0 15.4 6.8 39.8 42.7 39.8 43.2 0 64.9-32.4 64.9-64.9 0-27.3-21-76.8-37-83.1-17.6-6.8-38.1-19.9-38.7-28.4 0-2.8 8-.6 18.8 5.1 17.6 9.7 37.5 14.2 37.5 8s-16.5-17.6-22.8-26.2c-6.8-9.1-5.1-31.3-17.1-31.3-43.2 0-56.3 43.8-39.8 66.6 10.8 14.8-24.5 5.7-24.5 5.7s0 30.2 18.2 41.5c17.1 10.2 27.3 22.2 27.3 22.2S79.6 262 83.5 266c3.4 4 63.1 25.6 58.6 68.3-1.7 17.1-25.6 30.7-48.4 29.6-22.8-1.1-38.7-13.7-36.4-30.7 1.3-23.9 15.5-26.2 15.5-26.2z"/><path id="Path_1_" class="st1" d="M439.2 307s-22.8 9.1-6.8-2.8c13.7-10.2 29 13.1 29 29s-6.8 39.8-42.7 39.8c-43.2 0-64.9-32.4-64.9-64.9 0-27.3 21-76.8 37-83.1 17.6-6.8 38.1-19.9 38.7-28.4 0-2.8-8-.6-18.8 5.1-17.6 9.7-37.5 14.2-37.5 8s16.5-17.6 22.8-26.2c6.8-9.1 5.1-31.3 17.1-31.3 43.2 0 56.3 43.8 39.8 66.6-10.8 14.8 24.5 5.7 24.5 5.7s0 30.2-18.2 41.5c-17.1 10.2-27.3 22.2-27.3 22.2s1.1-26.2-2.8-22.2c-3.4 4-63.1 25.6-58.6 68.3 1.7 17.1 25.6 30.7 48.4 29.6 22.8-1.1 38.7-13.7 36.4-30.7-1.9-23.9-16.1-26.2-16.1-26.2z"/><g id="Group" transform="translate(176.356 73.956)"><path id="Path_2_" d="M0 177.9v79.6c0 10.8 11.9 9.1 11.9 9.1h52.9c6.8 0 14.8 13.1 14.8 13.1s8-13.1 14.2-13.1h54.6s11.4 1.1 11.4-10.2v-79.1H0v.6z" fill="#ff4b55"/><path id="Rectangle_1_" fill="#41479b" d="M0 88.6h159.3v89.3H0z"/></g><path id="Path_3_" class="st0" d="M285 181.9c-2.3 13.7-14.2 23.9-29 23.9-14.2 0-26.2-10.2-29-23.9-2.8 5.1-4.6 10.8-4.6 17.1 0 18.8 14.8 33.6 33.6 33.6s33.6-14.8 33.6-33.6c0-6.3-1.7-12-4.6-17.1z"/><circle id="Oval" class="st4" cx="222.4" cy="295.6" r="17.1"/><circle id="Oval_1_" class="st4" cx="289.6" cy="295.6" r="17.1"/></g></g></svg>