<svg version="1.1" id="Layer_1" xmlns="http://www.w3.org/2000/svg" x="0" y="0" viewBox="0 0 512 512" xml:space="preserve" enable-background="new 0 0 512 512"><style>.st4{fill:#ffe15a}</style><g id="Page-1"><g id="zm"><defs><filter id="Adobe_OpacityMaskFilter" filterUnits="userSpaceOnUse" x="0" y="88" width="512" height="336"><feColorMatrix values="1 0 0 0 0 0 1 0 0 0 0 0 1 0 0 0 0 0 1 0"/></filter></defs><mask maskUnits="userSpaceOnUse" x="0" y="88" width="512" height="336" id="mask-2_1_"><g filter="url(#Adobe_OpacityMaskFilter)"><path id="path-1_1_" d="M10 88h492c5.5 0 10 4.5 10 10v316c0 5.5-4.5 10-10 10H10c-5.5 0-10-4.5-10-10V98c0-5.5 4.5-10 10-10z" fill-rule="evenodd" clip-rule="evenodd" fill="#fff"/></g></mask><g mask="url(#mask-2_1_)"><path id="Rectangle" fill="#73af00" d="M0 88h512v336H0z"/><path id="Path" class="st4" d="M490.7 192.5h-48c0-8.8-7.2-16-16-16s-16 7.2-16 16h-48c0 8.8 7.7 16 16.5 16h-.5c0 8.8 7.2 16 16 16 0 8.8 7.2 16 16 16h32c8.8 0 16-7.2 16-16 8.8 0 16-7.2 16-16h-.5c8.8 0 16.5-7.2 16.5-16z"/><path id="Rectangle_1_" fill="#ff4b55" d="M341.3 253h56.9v170.7h-56.9z"/><path id="Rectangle_2_" class="st4" d="M455 253h56.9v170.7H455z"/><path id="Rectangle_3_" fill="#464655" d="M398.2 253h56.9v170.7h-56.9z"/></g></g></g></svg>